<svg width="35" height="35" viewBox="0 0 35 35" fill="none" xmlns="http://www.w3.org/2000/svg">
<path d="M23.3333 19.25C21.403 19.25 19.8333 20.8197 19.8333 22.75C19.8333 24.6803 21.403 26.25 23.3333 26.25C25.2635 26.25 26.8333 24.6803 26.8333 22.75C26.8333 20.8197 25.2635 19.25 23.3333 19.25ZM23.3333 25.0833C22.0464 25.0833 20.9999 24.0368 20.9999 22.75C20.9999 21.4631 22.0465 20.4167 23.3333 20.4167C24.6201 20.4167 25.6666 21.4632 25.6666 22.75C25.6666 24.0369 24.6201 25.0833 23.3333 25.0833Z" fill="#2D76C8"/>
<path d="M24.5 25.0833V27.4937L23.6565 26.9313C23.4605 26.8001 23.2056 26.8001 23.0096 26.9313L22.1666 27.4937V25.0833H21V28.5833C21 28.7986 21.1184 28.9963 21.3086 29.0978C21.4976 29.1993 21.7286 29.1876 21.9071 29.0686L23.3333 28.1178L24.7596 29.0686C24.857 29.1333 24.9702 29.1666 25.0833 29.1666C25.1778 29.1666 25.2723 29.1439 25.3587 29.0978C25.5482 28.9963 25.6667 28.7985 25.6667 28.5833V25.0833H24.5Z" fill="#2D76C8"/>
<path d="M21.0001 5.83331H13.4167V7H21.0001V5.83331Z" fill="#2D76C8"/>
<path d="M26.8334 9.33331H8.16675V10.5H26.8334V9.33331Z" fill="#2D76C8"/>
<path d="M21.0001 12.8333H8.16675V14H21.0001V12.8333Z" fill="#2D76C8"/>
<path d="M26.8333 12.8333H23.3333V14H26.8333V12.8333Z" fill="#2D76C8"/>
<path d="M26.8334 16.3333H8.16675V17.5H26.8334V16.3333Z" fill="#2D76C8"/>
<path d="M15.1668 19.8333H8.16675V21H15.1668V19.8333Z" fill="#2D76C8"/>
<path d="M11.0834 22.75H8.16675V23.9167H11.0834V22.75Z" fill="#2D76C8"/>
<path d="M15.1667 22.75H13.4167V23.9167H15.1667V22.75Z" fill="#2D76C8"/>
<path d="M32.0833 0C30.4751 0 29.1666 1.3084 29.1666 2.91669V4.08338C29.1666 4.40535 29.4273 4.66669 29.7499 4.66669H34.4166C34.7392 4.66669 34.9999 4.40535 34.9999 4.08338V2.91669C35 1.3084 33.6916 0 32.0833 0ZM33.8333 3.5H30.3333V2.91669C30.3333 1.95187 31.1185 1.16669 32.0833 1.16669C33.0481 1.16669 33.8333 1.95187 33.8333 2.91669V3.5Z" fill="#2D76C8"/>
<path d="M32.0834 0H7.58337C5.97515 0 4.66675 1.3084 4.66675 2.91669V30.9167H5.83344V2.91669C5.83344 1.95187 6.61861 1.16669 7.58344 1.16669H29.7513C29.3844 1.65437 29.1668 2.26044 29.1668 2.91669V32.0834C29.1668 33.0482 28.3816 33.8334 27.4168 33.8334H5.25006V35H27.4167C29.025 35 30.3334 33.6916 30.3334 32.0833V2.91669C30.3334 1.95187 31.1186 1.16669 32.0834 1.16669C32.406 1.16669 32.6667 0.905352 32.6667 0.583379C32.6667 0.261406 32.406 0 32.0834 0Z" fill="#2D76C8"/>
<path d="M27.4167 33.8333C26.4519 33.8333 25.6667 33.0481 25.6667 32.0833V30.9166C25.6667 30.594 25.406 30.3333 25.0834 30.3333H0.583311C0.261338 30.3333 0 30.594 0 30.9166V32.0833C0 33.6916 1.3084 35 2.91669 35H27.4167C27.7393 35 28 34.7393 28 34.4167C28 34.0941 27.7393 33.8333 27.4167 33.8333ZM2.91669 33.8333C1.95187 33.8333 1.16669 33.0481 1.16669 32.0833V31.5H24.5V32.0833C24.5 32.7396 24.7176 33.3456 25.0845 33.8333H2.91669Z" fill="#2D76C8"/>
</svg>
