<svg width="20" height="35" viewBox="0 0 20 35" fill="none" xmlns="http://www.w3.org/2000/svg">
<path d="M0.0291379 17.5565V3.82311C0.0291379 0.909379 0.932393 0.443182 3.65187 0.0546849C4.68334 -0.0182283 5.71867 -0.0182283 6.75014 0.0546849C9.97466 0.0546849 13.1895 0.0546849 16.4043 0.0546849C18.7741 0.0546849 19.959 1.21046 19.9688 3.55116C19.9688 12.8298 19.9688 22.0987 19.9688 31.3578C19.9688 33.7762 18.7644 34.9806 16.3363 35C12.1405 35 7.93505 35 3.71015 35C1.02952 35 0 33.8734 0 31.115C0.0194249 26.6085 0.0291379 22.0825 0.0291379 17.5565ZM7.38144 27.4049C7.44948 27.0847 7.49491 26.7602 7.51742 26.4336C7.51742 24.802 7.51742 23.1606 7.51742 21.5192C7.58287 20.9377 7.5106 20.349 7.30645 19.8007C7.10229 19.2523 6.77198 18.7597 6.34222 18.3626C5.84608 17.8703 5.46399 17.2751 5.2229 16.619C4.9818 15.9629 4.88757 15.262 4.94684 14.5655C5.00611 13.8691 5.21745 13.1941 5.56594 12.5882C5.91444 11.9823 6.39161 11.4603 6.96381 11.0589C7.14145 10.9088 7.34709 10.7955 7.56882 10.7255C7.79055 10.6555 8.02397 10.6301 8.25556 10.6509C8.53722 10.7578 8.69262 11.4376 8.73147 11.8747C8.7898 12.6376 8.7898 13.4039 8.73147 14.1668C8.6878 14.3674 8.68505 14.5747 8.72342 14.7763C8.76178 14.978 8.84045 15.1698 8.95472 15.3403C9.06899 15.5108 9.21651 15.6565 9.38843 15.7686C9.56035 15.8807 9.75314 15.957 9.95524 15.9928C10.3602 15.9129 10.7172 15.676 10.9482 15.334C11.1793 14.9919 11.2658 14.5724 11.1887 14.1668C11.1159 13.4045 11.1159 12.637 11.1887 11.8747C11.2796 11.4206 11.4196 10.9777 11.6064 10.5538C12.0688 10.6536 12.5161 10.8136 12.937 11.0297C13.4933 11.4137 13.9619 11.9113 14.3117 12.4897C14.6616 13.0681 14.8847 13.7141 14.9664 14.3852C15.0481 15.0562 14.9865 15.7369 14.7857 16.3823C14.5848 17.0278 14.2493 17.6233 13.8014 18.1295C13.2954 18.6312 12.9114 19.2424 12.679 19.916C12.4466 20.5896 12.372 21.3075 12.461 22.0145C12.5096 23.3742 12.461 24.7437 12.461 26.1034C12.461 26.521 12.5485 26.9387 12.597 27.4049H18.609V6.34834H1.38888V27.4049H7.38144ZM18.6867 28.8715H1.27233V30.9208C1.27233 33.1546 1.83565 33.718 4.05979 33.7277C7.86707 33.7277 11.6841 33.7277 15.4913 33.7277C15.9794 33.7668 16.4698 33.7668 16.9579 33.7277C17.3989 33.6928 17.8134 33.503 18.128 33.192C18.4427 32.8809 18.6371 32.4686 18.677 32.028C18.7547 30.9791 18.6867 29.9593 18.6867 28.8715ZM18.5313 4.90119C18.9878 1.98746 18.3953 1.27845 15.6176 1.27845H9.59588C7.52713 1.27845 5.45839 1.27845 3.38964 1.27845C1.92306 1.27845 1.31118 1.95832 1.29175 3.39576C1.29175 3.87167 1.35974 4.367 1.39859 4.89147L18.5313 4.90119ZM7.52713 12.3798C5.80803 14.3222 5.91487 16.3813 7.52713 17.7896C7.90658 18.1227 8.35035 18.3744 8.83098 18.5292C9.31162 18.6839 9.81889 18.7384 10.3214 18.6892C10.824 18.6401 11.3111 18.4883 11.7526 18.2434C12.1941 17.9984 12.5807 17.6655 12.8884 17.2651C13.1861 16.9514 13.4133 16.5777 13.5546 16.1689C13.6959 15.7601 13.748 15.3259 13.7075 14.8953C13.667 14.4647 13.5349 14.0478 13.3199 13.6725C13.1049 13.2973 12.812 12.9724 12.461 12.7197C12.4217 13.2823 12.4217 13.847 12.461 14.4097C12.5597 14.9175 12.4765 15.4439 12.2262 15.8967C11.9758 16.3495 11.5742 16.6998 11.0916 16.8863C10.5088 17.1874 9.96495 17.7216 9.31422 17.1971C8.66349 16.6726 7.32317 16.3813 7.49799 14.973C7.55243 14.1096 7.56215 13.2441 7.52713 12.3798ZM11.1984 27.4146C11.1984 24.8699 11.2664 22.4613 11.1984 20.1108H8.88687V27.4146H11.1984Z" fill="#2D71C8"/>
<path d="M9.76099 33.0769C9.36751 33.1306 8.96696 33.067 8.60938 32.8943C8.25181 32.7216 7.95307 32.4473 7.75052 32.1057C7.55415 31.746 7.47659 31.3334 7.52893 30.9269C7.58126 30.5204 7.76081 30.1409 8.04189 29.8427C8.56625 29.5004 9.17074 29.3007 9.79579 29.2633C10.4208 29.2258 11.0449 29.3519 11.6064 29.629C11.9497 29.8432 12.2116 30.166 12.3506 30.5461C12.4897 30.9261 12.4977 31.3417 12.3736 31.7269C12.0628 32.6982 11.2858 33.1158 9.76099 33.0769ZM9.48904 31.8046C9.79184 31.8476 10.0992 31.8476 10.402 31.8046C10.6655 31.6634 10.913 31.494 11.1402 31.2996C10.9289 31.0365 10.6913 30.7957 10.4311 30.5808C10.3335 30.5306 10.2253 30.5044 10.1155 30.5044C10.0057 30.5044 9.89747 30.5306 9.79984 30.5808C9.47957 30.7917 9.17743 31.0288 8.89658 31.2899L9.48904 31.8046Z" fill="#2D71C8"/>
<path d="M12.6456 3.56087H7.78937C7.49799 3.0364 7.55627 2.58963 8.10988 2.58963C9.40397 2.52164 10.7007 2.52164 11.9948 2.58963C12.1405 2.58963 12.2862 3.04611 12.6456 3.56087Z" fill="#2D71C8"/>
</svg>
