<svg width="21" height="22" viewBox="0 0 21 22" fill="none" xmlns="http://www.w3.org/2000/svg">
<path d="M20.1003 12.7361C20.7612 7.21624 19.7827 3.7314 18.0178 2.15521L18.0187 2.15429C15.1701 -0.537418 5.54974 -0.935817 2.14173 2.27518C0.611261 3.84588 0.0721817 6.1511 0.0131046 9.00492C-0.0459725 11.8596 -0.116127 17.2073 4.90635 18.6581H4.91097L4.90635 20.8735C4.90635 20.8735 4.8722 21.7711 5.45005 21.9515C6.11097 22.164 6.41005 21.7473 8.46575 19.3111C11.9033 19.6069 14.5433 18.9292 14.8433 18.8303C15.5375 18.5995 19.4652 18.0838 20.1003 12.7361ZM8.80452 17.7523C8.80452 17.7523 6.62882 20.444 5.9522 21.1428C5.73066 21.3699 5.48789 21.3489 5.49158 20.8983C5.49158 20.6024 5.5082 17.2202 5.5082 17.2202C1.25003 16.0094 1.50111 11.4558 1.54726 9.0736C1.59342 6.69054 2.0328 4.73884 3.32881 3.42459C6.31866 0.643124 14.7528 1.26499 16.9018 3.26889C19.5289 5.5796 18.5938 12.1078 18.5993 12.3304C18.0593 16.7943 14.8765 17.0773 14.2913 17.2705C14.0412 17.353 11.7196 17.9455 8.80452 17.7523Z" fill="white"/>
<path d="M10.0082 3.94754C9.65283 3.94754 9.65283 4.49706 10.0082 4.50164C12.7655 4.5227 15.0362 6.42952 15.0612 9.92719C15.0612 10.2963 15.6058 10.2917 15.6012 9.92261H15.6002C15.5707 6.15385 13.0913 3.96861 10.0082 3.94754Z" fill="white"/>
<path d="M13.635 9.34745C13.6267 9.71196 14.1704 9.72936 14.175 9.36027C14.2202 7.28219 12.9288 5.57045 10.5021 5.39002C10.1467 5.36438 10.1098 5.91847 10.4642 5.94412C12.5688 6.10256 13.6775 7.52764 13.635 9.34745Z" fill="white"/>
<path d="M13.0535 11.7113C12.5975 11.4493 12.1331 11.6124 11.9411 11.8697L11.5396 12.3853C11.3356 12.6473 10.9544 12.6125 10.9544 12.6125C8.17221 11.8825 7.42821 8.99392 7.42821 8.99392C7.42821 8.99392 7.39406 8.60285 7.64883 8.39311L8.15098 7.98098C8.40206 7.78315 8.56083 7.30691 8.30514 6.8389C7.62206 5.6144 7.16329 5.19219 6.92975 4.86797C6.68421 4.56299 6.31498 4.4943 5.93098 4.70037H5.92267C5.12421 5.16379 4.25005 6.03111 4.52974 6.92408C5.00697 7.86558 5.8839 10.8668 8.67898 13.1345C9.99253 14.207 12.0713 15.306 12.9538 15.5597L12.9621 15.5725C13.8316 15.8601 14.6772 14.9589 15.1285 14.1429V14.1365C15.3288 13.7417 15.2624 13.3681 14.9698 13.1235C14.451 12.6216 13.6682 12.0675 13.0535 11.7113Z" fill="white"/>
<path d="M10.8824 7.43421C11.7695 7.4855 12.1996 7.94526 12.2458 8.88951C12.2624 9.25861 12.8024 9.23296 12.7858 8.86387C12.7267 7.63112 12.0787 6.94423 10.9119 6.88012C10.5565 6.85905 10.5233 7.41315 10.8824 7.43421Z" fill="white"/>
</svg>
