<svg width="35" height="36" viewBox="0 0 35 36" fill="none" xmlns="http://www.w3.org/2000/svg">
<path d="M34 18.0286C34 27.2092 26.6067 34.6407 17.5 34.6407C8.39331 34.6407 1 27.2092 1 18.0286C1 8.84791 8.39331 1.41644 17.5 1.41644C26.6067 1.41644 34 8.84791 34 18.0286Z" fill="#6F3FAA" stroke="white" stroke-width="2"/>
<path d="M26.7577 12.7948L26.7519 12.7715C26.2844 10.8691 24.1763 8.82772 22.2404 8.40304L22.2186 8.3985C19.0873 7.79734 15.9123 7.79734 12.7818 8.3985L12.7593 8.40304C10.824 8.82772 8.71588 10.8692 8.24769 12.7715L8.24249 12.7948C7.66445 15.4515 7.66445 18.1459 8.24249 20.8026L8.24769 20.8259C8.69599 22.6471 10.647 24.5948 12.5107 25.1303V27.254C12.5107 28.0227 13.4414 28.4001 13.9707 27.8454L16.1086 25.6089C16.5724 25.635 17.0363 25.6496 17.5001 25.6496C19.0763 25.6496 20.6532 25.4995 22.2185 25.199L22.2403 25.1945C24.1762 24.7698 26.2843 22.7283 26.7519 20.826L26.7576 20.8027C27.3357 18.1459 27.3357 15.4517 26.7577 12.7948ZM25.0657 20.4175C24.7535 21.6586 23.153 23.2016 21.8812 23.4867C20.2163 23.8054 18.5382 23.9415 16.8617 23.8948C16.8284 23.8939 16.7963 23.9069 16.7731 23.931C16.5352 24.1767 15.2121 25.5437 15.2121 25.5437L13.5518 27.2587C13.4304 27.3861 13.2171 27.2994 13.2171 27.1236V23.6056C13.2171 23.5475 13.1759 23.4981 13.1192 23.4868C13.1188 23.4867 13.1186 23.4867 13.1182 23.4866C11.8465 23.2015 10.2464 21.6586 9.9337 20.4174C9.41342 18.0159 9.41342 15.5815 9.9337 13.18C10.2464 11.9389 11.8465 10.3959 13.1182 10.1108C16.026 9.55422 18.9742 9.55422 21.8813 10.1108C23.1536 10.3959 24.7536 11.9389 25.0658 13.18C25.5866 15.5816 25.5866 18.016 25.0657 20.4175Z" fill="white"/>
<path d="M20.2664 22.0413C20.0709 21.9816 19.8846 21.9414 19.7115 21.8693C17.9183 21.1206 16.2682 20.1546 14.9611 18.6741C14.2177 17.8321 13.6359 16.8815 13.1442 15.8756C12.9109 15.3985 12.7144 14.9029 12.514 14.4103C12.3314 13.9612 12.6004 13.4972 12.8837 13.1587C13.1496 12.8411 13.4917 12.5981 13.8622 12.4189C14.1514 12.2791 14.4365 12.3597 14.6478 12.6063C15.1043 13.1397 15.5237 13.7002 15.8632 14.3184C16.072 14.6987 16.0147 15.1635 15.6362 15.4222C15.5442 15.4851 15.4604 15.559 15.3748 15.63C15.2996 15.6922 15.2289 15.7551 15.1774 15.8394C15.0832 15.9936 15.0787 16.1755 15.1393 16.3432C15.606 17.6339 16.3926 18.6377 17.6835 19.1783C17.8901 19.2648 18.0975 19.3655 18.3355 19.3376C18.7341 19.2908 18.8631 18.8507 19.1424 18.6209C19.4154 18.3963 19.7643 18.3933 20.0583 18.5806C20.3525 18.768 20.6375 18.969 20.9209 19.1723C21.1992 19.3718 21.4761 19.5668 21.7326 19.7944C21.9794 20.0131 22.0644 20.2999 21.9254 20.5967C21.6711 21.1402 21.3009 21.5923 20.7671 21.881C20.6164 21.9623 20.4363 21.9886 20.2664 22.0413C20.0709 21.9816 20.4363 21.9886 20.2664 22.0413Z" fill="white"/>
<path d="M17.5048 11.7974C19.8501 11.8636 21.7766 13.4301 22.1894 15.7637C22.2597 16.1613 22.2847 16.5678 22.3161 16.9714C22.3292 17.1411 22.2337 17.3024 22.0517 17.3047C21.8637 17.3069 21.7792 17.1486 21.7669 16.979C21.7427 16.6431 21.726 16.3057 21.68 15.9727C21.4372 14.2143 20.0441 12.7596 18.305 12.4474C18.0433 12.4005 17.7756 12.3881 17.5104 12.3601C17.3429 12.3425 17.1234 12.3323 17.0863 12.1226C17.0552 11.9468 17.2026 11.8069 17.3689 11.7979C17.414 11.7952 17.4594 11.7973 17.5048 11.7974C19.8503 11.8636 17.4594 11.7973 17.5048 11.7974Z" fill="white"/>
<path d="M21.0691 16.4476C21.0652 16.4771 21.0632 16.5464 21.046 16.6116C20.9838 16.8486 20.6267 16.8782 20.5446 16.6392C20.5202 16.5682 20.5166 16.4875 20.5164 16.4111C20.5156 15.9112 20.4077 15.4117 20.1571 14.9767C19.8996 14.5296 19.5061 14.1539 19.0448 13.9264C18.7658 13.7889 18.4641 13.7034 18.1583 13.6526C18.0246 13.6303 17.8895 13.6169 17.7552 13.598C17.5925 13.5753 17.5055 13.4709 17.5133 13.3095C17.5205 13.1583 17.6303 13.0494 17.7941 13.0588C18.3323 13.0895 18.8522 13.2067 19.3308 13.4617C20.3038 13.9803 20.8597 14.7989 21.022 15.892C21.0293 15.9416 21.0411 15.9906 21.0448 16.0403C21.054 16.1629 21.0598 16.2857 21.0691 16.4476C21.0652 16.477 21.0598 16.2857 21.0691 16.4476Z" fill="white"/>
<path d="M19.6104 16.3906C19.4142 16.3942 19.3092 16.2848 19.2889 16.1038C19.2749 15.9776 19.2636 15.8497 19.2337 15.7268C19.1748 15.4848 19.047 15.2606 18.8448 15.1124C18.7494 15.0424 18.6412 14.9914 18.5279 14.9584C18.384 14.9165 18.2344 14.928 18.0909 14.8927C17.935 14.8542 17.8487 14.7271 17.8733 14.5799C17.8956 14.4459 18.025 14.3413 18.1706 14.3519C19.0799 14.418 19.7298 14.8912 19.8226 15.9686C19.8292 16.0447 19.8368 16.1249 19.8201 16.1978C19.7912 16.3221 19.6996 16.3845 19.6104 16.3906C19.4141 16.3941 19.6996 16.3845 19.6104 16.3906Z" fill="white"/>
<path d="M26.7577 12.7948L26.752 12.7715C26.4899 11.7051 25.7121 10.5951 24.7382 9.75055L23.4217 10.9248C24.2045 11.5526 24.8753 12.4222 25.0659 13.18C25.5868 15.5815 25.5868 18.0159 25.0659 20.4174C24.7537 21.6586 23.153 23.2016 21.8813 23.4867C20.2164 23.8054 18.5383 23.9415 16.8618 23.8948C16.8285 23.8938 16.7964 23.9069 16.7733 23.931C16.5353 24.1767 15.2123 25.5437 15.2123 25.5437L13.552 27.2587C13.4305 27.3861 13.2173 27.2995 13.2173 27.1236V23.6056C13.2173 23.5474 13.176 23.4981 13.1193 23.4868C13.119 23.4868 13.1187 23.4867 13.1183 23.4867C12.3956 23.3247 11.5671 22.7562 10.9289 22.068L9.62805 23.2282C10.4405 24.1176 11.4884 24.8367 12.5106 25.1305V27.2541C12.5106 28.0228 13.4413 28.4003 13.9706 27.8456L16.1085 25.609C16.5723 25.6351 17.0361 25.6497 17.5001 25.6497C19.0762 25.6497 20.6531 25.4996 22.2184 25.1991L22.2402 25.1947C24.1762 24.77 26.2842 22.7286 26.7518 20.8262L26.7576 20.8029C27.3357 18.1459 27.3357 15.4516 26.7577 12.7948Z" fill="#D1D1D1"/>
<path d="M20.2665 22.0429C20.4364 21.9881 20.0711 21.9808 20.2665 22.0429V22.0429Z" fill="white"/>
<path d="M21.7329 19.7942C21.4763 19.5668 21.1993 19.3716 20.9212 19.1721C20.6378 18.9688 20.3527 18.7678 20.0586 18.5804C19.7646 18.3931 19.4157 18.3961 19.1427 18.6207C18.8634 18.8505 18.7344 19.2906 18.3358 19.3374C18.0978 19.3653 17.8903 19.2646 17.6838 19.1781C16.8895 18.8456 16.2868 18.337 15.8314 17.6949L14.8634 18.5584C14.8963 18.5967 14.9277 18.636 14.9611 18.6739C16.2683 20.1544 17.9185 21.1204 19.7115 21.8691C19.8845 21.9413 20.0709 21.9815 20.2664 22.0411C20.0709 21.9814 20.4365 21.9885 20.2664 22.0411C20.4365 21.9885 20.6164 21.962 20.7673 21.8807C21.3013 21.592 21.6713 21.1399 21.9256 20.5964C22.0646 20.2997 21.9797 20.0129 21.7329 19.7942Z" fill="#D1D1D1"/>
<path d="M17.5109 11.7977C17.5089 11.7977 17.507 11.7975 17.505 11.7975C17.5031 11.7973 17.5056 11.7975 17.5109 11.7977Z" fill="white"/>
<path d="M17.5054 11.7973C17.5074 11.7973 17.5093 11.7975 17.5112 11.7975C17.6414 11.8022 19.7583 11.861 17.5054 11.7973Z" fill="white"/>
<path d="M20.8684 13.2015L20.4557 13.5696C21.1042 14.2046 21.5514 15.0462 21.6792 15.9724C21.7251 16.3055 21.742 16.6428 21.7661 16.9787C21.7784 17.1484 21.8629 17.3067 22.051 17.3045C22.233 17.3022 22.3285 17.141 22.3153 16.9712C22.2839 16.5677 22.259 16.1611 22.1887 15.7635C22.008 14.742 21.5372 13.8675 20.8684 13.2015Z" fill="#D1D1D1"/>
<path d="M21.0219 15.892C20.9037 15.0953 20.5754 14.4452 20.03 13.9498L19.6185 14.317C19.8313 14.5071 20.0154 14.7304 20.1572 14.9767C20.4077 15.4118 20.5156 15.9114 20.5164 16.4114C20.5166 16.4878 20.5202 16.5686 20.5446 16.6396C20.6268 16.8789 20.9838 16.8493 21.046 16.6121C21.0632 16.5467 21.0652 16.4775 21.0691 16.4481C21.0652 16.4776 21.0597 16.2861 21.0691 16.4481C21.0597 16.2861 21.0539 16.1632 21.0447 16.0405C21.0411 15.9906 21.0292 15.9416 21.0219 15.892Z" fill="#D1D1D1"/>
<path d="M21.0692 16.4492C21.0599 16.2832 21.0653 16.4793 21.0692 16.4492V16.4492Z" fill="white"/>
<path d="M19.6104 16.3913C19.6135 16.3911 19.6164 16.3895 19.6194 16.3892C19.6111 16.3892 19.5984 16.3894 19.5853 16.3898C19.5938 16.3901 19.6015 16.3914 19.6104 16.3913Z" fill="white"/>
<path d="M19.6104 16.3904C19.6015 16.3905 19.5937 16.3892 19.5853 16.3889C19.5428 16.3901 19.499 16.3923 19.6104 16.3904Z" fill="white"/>
<path d="M19.6193 16.3892C19.6162 16.3895 19.6133 16.3911 19.6104 16.3913C19.6333 16.3897 19.6313 16.3892 19.6193 16.3892Z" fill="white"/>
<path d="M19.1962 14.6936L18.7773 15.0675C18.8004 15.0816 18.8231 15.0963 18.845 15.1124C19.0472 15.2607 19.175 15.4849 19.2339 15.727C19.2639 15.8499 19.2749 15.9778 19.2891 16.1042C19.3084 16.2772 19.406 16.3835 19.5855 16.3897C19.5985 16.3894 19.6114 16.3891 19.6195 16.389C19.7059 16.3794 19.7925 16.3184 19.8202 16.1981C19.837 16.1253 19.8293 16.0449 19.8227 15.9688C19.7706 15.3662 19.5443 14.9527 19.1962 14.6936Z" fill="#D1D1D1"/>
</svg>
