<svg width="35" height="36" viewBox="0 0 35 36" fill="none" xmlns="http://www.w3.org/2000/svg">
<path d="M34 18.0286C34 27.2092 26.6067 34.6407 17.5 34.6407C8.39331 34.6407 1 27.2092 1 18.0286C1 8.84791 8.39331 1.41644 17.5 1.41644C26.6067 1.41644 34 8.84791 34 18.0286Z" fill="#4D76A1" stroke="white" stroke-width="2"/>
<path fill-rule="evenodd" clip-rule="evenodd" d="M16.839 25.7531H18.2125C18.2125 25.7531 18.6274 25.7072 18.8392 25.4774C19.0342 25.2664 19.028 24.8702 19.028 24.8702C19.028 24.8702 19.0011 23.0154 19.8565 22.7423C20.6997 22.4732 21.7825 24.5349 22.9302 25.3277C23.7981 25.9276 24.4575 25.7961 24.4575 25.7961L27.5262 25.7531C27.5262 25.7531 29.1315 25.6536 28.3704 24.3833C28.308 24.2794 27.9271 23.4436 26.0887 21.7263C24.1646 19.9289 24.4223 20.2197 26.7401 17.1106C28.1517 15.2171 28.716 14.0612 28.5398 13.5661C28.3716 13.0945 27.3334 13.2191 27.3334 13.2191L23.8782 13.2408C23.8782 13.2408 23.6221 13.2056 23.4321 13.3199C23.2465 13.432 23.127 13.6932 23.127 13.6932C23.127 13.6932 22.5802 15.1584 21.8508 16.4045C20.3123 19.0339 19.6971 19.1726 19.4457 19.0094C18.8608 18.6289 19.0067 17.4807 19.0067 16.6651C19.0067 14.117 19.3908 13.0546 18.259 12.7796C17.8834 12.6882 17.607 12.628 16.6465 12.6182C15.4137 12.6054 14.3702 12.622 13.7793 12.9133C13.3863 13.1071 13.083 13.5387 13.2677 13.5635C13.4961 13.5943 14.0133 13.7039 14.2875 14.0797C14.6416 14.5644 14.6291 15.6532 14.6291 15.6532C14.6291 15.6532 14.8325 18.6527 14.154 19.0254C13.6882 19.2809 13.0494 18.7591 11.6777 16.3737C10.9749 15.1518 10.4442 13.8012 10.4442 13.8012C10.4442 13.8012 10.3419 13.5488 10.1594 13.4138C9.93793 13.2502 9.62847 13.1981 9.62847 13.1981L6.34515 13.2198C6.34515 13.2198 5.85226 13.2336 5.67133 13.4493C5.51036 13.6411 5.65854 14.0379 5.65854 14.0379C5.65854 14.0379 8.22904 20.0903 11.1396 23.1404C13.8083 25.9367 16.839 25.7531 16.839 25.7531Z" fill="white"/>
</svg>
