<svg width="22" height="13" viewBox="0 0 22 13" fill="none" xmlns="http://www.w3.org/2000/svg">
<path d="M18.2561 7.45457C17.9004 6.99957 18.0021 6.79714 18.2561 6.39043C18.2606 6.38579 21.1968 2.27593 21.4993 0.882143L21.5012 0.881214C21.6515 0.373286 21.5012 0 20.7742 0H18.3688C17.7564 0 17.4741 0.320357 17.3229 0.678786C17.3229 0.678786 16.0981 3.64836 14.3656 5.57329C13.8064 6.1295 13.5479 6.30779 13.2426 6.30779C13.0923 6.30779 12.8585 6.1295 12.8585 5.62157V0.881214C12.8585 0.272071 12.6871 0 12.1802 0H8.39787C8.01378 0 7.78552 0.284143 7.78552 0.548786C7.78552 1.12636 8.6518 1.25914 8.74164 2.88414V6.40993C8.74164 7.1825 8.60322 7.32457 8.29612 7.32457C7.47843 7.32457 5.49377 4.34293 4.31765 0.930428C4.08022 0.268357 3.8483 0.000928504 3.23136 0.000928504H0.825029C0.138421 0.000928504 0 0.321286 0 0.679714C0 1.313 0.817694 4.46179 3.80246 8.62179C5.7917 11.4614 8.59313 13 11.1416 13C12.6734 13 12.8604 12.6583 12.8604 12.0705C12.8604 9.35721 12.7219 9.10093 13.4892 9.10093C13.8449 9.10093 14.4573 9.27921 15.8873 10.6489C17.5218 12.2729 17.7904 13 18.7052 13H21.1106C21.7963 13 22.1438 12.6583 21.9439 11.9841C21.4865 10.5662 18.3954 7.64957 18.2561 7.45457Z" fill="white"/>
</svg>
