<svg width="22" height="22" viewBox="0 0 22 22" fill="none" xmlns="http://www.w3.org/2000/svg">
<path d="M16.0481 13.1149L16.0398 13.1837C14.0241 12.179 13.8133 12.0452 13.5529 12.4357C13.3723 12.7061 12.8462 13.3193 12.6876 13.5008C12.5272 13.6796 12.3677 13.6933 12.0954 13.5696C11.8204 13.4321 10.9377 13.1433 9.89267 12.2083C9.07867 11.4796 8.53233 10.5859 8.371 10.3109C8.10242 9.84705 8.66433 9.78105 9.17583 8.81307C9.2675 8.62057 9.22075 8.46933 9.15292 8.33275C9.08417 8.19525 8.53692 6.84777 8.30775 6.31062C8.08775 5.77529 7.86133 5.84312 7.69175 5.84312C7.16375 5.79729 6.77783 5.80462 6.43775 6.15845C4.95825 7.78459 5.33133 9.46206 6.59725 11.2459C9.08508 14.5018 10.4106 15.1013 12.8343 15.9336C13.4888 16.1417 14.0855 16.1124 14.5576 16.0445C15.0838 15.9611 16.1773 15.3836 16.4056 14.7374C16.6393 14.0911 16.6393 13.5549 16.5706 13.4312C16.5028 13.3074 16.3231 13.2387 16.0481 13.1149Z" fill="white"/>
<path d="M18.81 3.16192C11.7618 -3.65154 0.0971667 1.29012 0.0925833 10.9021C0.0925833 12.8234 0.595833 14.697 1.55467 16.3516L0 22L5.80708 20.4857C13.0533 24.3998 21.9963 19.2024 22 10.9076C22 7.99634 20.8633 5.25647 18.7962 3.19767L18.81 3.16192ZM20.1685 10.8774C20.163 17.8742 12.4823 22.2438 6.4075 18.6726L6.0775 18.4764L2.64 19.3701L3.56125 16.0289L3.34217 15.6852C-0.438167 9.66739 3.905 1.80253 11.066 1.80253C13.4988 1.80253 15.7823 2.75126 17.5019 4.46998C19.2207 6.17404 20.1685 8.45741 20.1685 10.8774Z" fill="white"/>
</svg>
