<svg width="35" height="35" viewBox="0 0 35 35" fill="none" xmlns="http://www.w3.org/2000/svg">
<path d="M4.27964 28.0752L4.44381 27.5858L4.13995 27.1685C2.16277 24.4533 1 21.1101 1 17.5C1 8.40079 8.39909 1 17.4956 1H17.5044C26.6008 1 34 8.4029 34 17.5C34 26.5971 26.6008 34 17.5044 34C14.1473 34 11.0376 33.0022 8.42945 31.2745L8.02958 31.0096L7.57269 31.1556L2.72659 32.7048L4.27964 28.0752Z" fill="#4CAF50" stroke="white" stroke-width="2"/>
<path d="M27.6872 24.7122C27.265 25.9043 25.5894 26.8931 24.2528 27.1818C23.3385 27.3765 22.1441 27.5318 18.1235 25.865C12.9806 23.7343 9.66877 18.5084 9.41064 18.1693C9.16346 17.8303 7.33252 15.4022 7.33252 12.8909C7.33252 10.3797 8.60783 9.15684 9.12189 8.63184C9.54408 8.2009 10.2419 8.00403 10.9113 8.00403C11.1278 8.00403 11.3225 8.01497 11.4975 8.02372C12.0116 8.04559 12.2697 8.07622 12.6088 8.88778C13.031 9.90497 14.0591 12.4162 14.1816 12.6743C14.3063 12.9325 14.431 13.2825 14.256 13.6215C14.0919 13.9715 13.9475 14.1268 13.6894 14.4243C13.4313 14.7218 13.1863 14.9493 12.9281 15.2687C12.6919 15.5465 12.425 15.844 12.7225 16.3581C13.02 16.8612 14.0481 18.539 15.5619 19.8865C17.5153 21.6256 19.0991 22.1812 19.6656 22.4175C20.0878 22.5925 20.591 22.5509 20.8994 22.2228C21.291 21.8006 21.7744 21.1006 22.2666 20.4115C22.6166 19.9172 23.0585 19.8559 23.5222 20.0309C23.9947 20.195 26.495 21.4309 27.0091 21.6868C27.5231 21.945 27.8622 22.0675 27.9869 22.284C28.1094 22.5006 28.1094 23.5178 27.6872 24.7122Z" fill="#FAFAFA"/>
</svg>
