<svg width="64" height="52" viewBox="0 0 64 52" fill="none" xmlns="http://www.w3.org/2000/svg">
<g clip-path="url(#clip0)">
<path d="M9.51471 19.4405C8.96712 19.4405 8.44234 19.2592 8.03165 18.8967L1.07265 12.9377C0.456603 12.4392 0.182806 11.6462 0.319705 10.8531C0.456603 10.0828 0.98138 9.42568 1.73432 9.13113L21.5618 1.26882C22.3603 0.951611 23.2502 1.11022 23.889 1.65401L30.848 7.61305C31.4413 8.13418 31.7379 8.92721 31.601 9.69758C31.4641 10.468 30.9393 11.125 30.2092 11.4196L10.3817 19.2819C10.1079 19.3952 9.81133 19.4405 9.51471 19.4405ZM6.89083 11.9407L9.94823 14.569L24.9842 8.61L21.9268 5.98168L6.89083 11.9407Z" fill="white"/>
<path d="M28.9574 51.9989C28.4783 51.9989 27.9991 51.8403 27.6113 51.5684C27.018 51.1379 26.6758 50.4581 26.6758 49.7331V27.551C26.6758 26.3048 27.7025 25.2852 28.9574 25.2852C30.2123 25.2852 31.2391 26.3048 31.2391 27.551V46.6289L50.4277 40.6019V30.4738C50.4277 29.2276 51.4544 28.208 52.7093 28.208C53.9642 28.208 54.9909 29.2276 54.9909 30.4738V42.2786C54.9909 43.2756 54.3521 44.1366 53.3938 44.4311L29.6419 51.8856C29.4137 51.9536 29.1856 51.9989 28.9574 51.9989Z" fill="white"/>
<path d="M41.8921 35.0975C41.3445 35.0975 40.8197 34.9162 40.409 34.5537L33.45 28.5946C32.8568 28.0735 32.5601 27.2805 32.697 26.5101C32.8339 25.7397 33.3587 25.0827 34.1117 24.7881L53.9163 16.9258C54.7149 16.6086 55.6047 16.7672 56.2436 17.311L63.2026 23.27C63.7958 23.7912 64.0924 24.5842 63.9555 25.3546C63.8186 26.1249 63.2938 26.782 62.5409 27.0766L42.7134 34.9389C42.4625 35.0295 42.1887 35.0975 41.8921 35.0975ZM39.2682 27.575L42.3256 30.2034L57.3616 24.2217L54.3042 21.616L39.2682 27.575Z" fill="white"/>
<path d="M52.7314 18.9867C52.4348 18.9867 52.161 18.9414 51.8872 18.8281L32.0369 10.9431C31.3296 10.6486 30.8048 10.0368 30.6451 9.28909C30.4854 8.54138 30.7364 7.77101 31.284 7.22721L38.1061 0.633751C38.7449 -0.000671973 39.7032 -0.181936 40.5474 0.157934L60.3977 8.0429C61.105 8.33745 61.6298 8.94922 61.7895 9.69693C61.9492 10.4446 61.6982 11.2377 61.1506 11.7588L54.3285 18.3296C53.895 18.7828 53.3246 18.9867 52.7314 18.9867ZM36.9881 8.0429L52.2066 14.0926L55.4465 10.9658L40.228 4.9161L36.9881 8.0429Z" fill="white"/>
<path d="M28.5674 52C28.2708 52 27.997 51.9546 27.7004 51.8414L9.35602 44.3642C8.489 44.0244 7.94141 43.186 7.94141 42.2797V31.3586C7.94141 30.1124 8.96814 29.0928 10.223 29.0928C11.4779 29.0928 12.5047 30.1124 12.5047 31.3586V40.7616L29.4345 47.6496C30.5981 48.1255 31.1685 49.4396 30.6894 50.5952C30.3243 51.4788 29.4573 52 28.5674 52Z" fill="white"/>
<path d="M22.1337 36.3888C21.8371 36.3888 21.5633 36.3435 21.2895 36.2302L1.43926 28.3453C0.73195 28.0507 0.207173 27.4389 0.0474581 26.6912C-0.112257 25.9435 0.138724 25.1505 0.686317 24.6294L7.50842 18.0586C8.14728 17.4241 9.10557 17.2429 9.94978 17.5827L29.8 25.4677C30.5074 25.7623 31.0321 26.374 31.1918 27.1217C31.3516 27.8694 31.1006 28.6625 30.553 29.1836L23.7309 35.7544C23.2974 36.1849 22.727 36.3888 22.1337 36.3888ZM6.39042 25.445L21.609 31.4947L24.8489 28.3679L9.63035 22.3183L6.39042 25.445Z" fill="white"/>
</g>
<defs>
<clipPath id="clip0">
<rect width="64" height="52" fill="white"/>
</clipPath>
</defs>
</svg>
