<svg width="53" height="54" viewBox="0 0 53 54" fill="none" xmlns="http://www.w3.org/2000/svg">
<path d="M14.4642 53.8681C13.8741 53.8681 13.3066 53.6411 12.8527 53.2099L0.663914 41.0211C-0.221305 40.1359 -0.221305 38.7059 0.663914 37.8207L12.8527 25.6319C13.7379 24.7467 15.1679 24.7467 16.0531 25.6319C16.9383 26.5171 16.9383 27.9471 16.0531 28.8323L5.47587 39.4323L16.0531 50.0095C16.9383 50.8947 16.9383 52.3247 16.0531 53.2099C15.6218 53.6638 15.0544 53.8681 14.4642 53.8681Z" fill="white"/>
<path d="M5.58229 41.6795C4.33391 41.6795 3.3125 40.6581 3.3125 39.4097C3.3125 38.1613 4.33391 37.1399 5.58229 37.1399H49.7751C51.0235 37.1399 52.0449 38.1613 52.0449 39.4097C52.0449 40.6581 51.0235 41.6795 49.7751 41.6795H5.58229Z" fill="white"/>
<path d="M37.5958 28.9001C37.0056 28.9001 36.4382 28.6731 35.9842 28.2419C35.099 27.3566 35.099 25.9267 35.9842 25.0415L46.5614 14.4415L35.9842 3.86432C35.099 2.9791 35.099 1.54913 35.9842 0.663914C36.8694 -0.221305 38.2994 -0.221305 39.1846 0.663914L51.3734 12.8527C52.2586 13.7379 52.2586 15.1679 51.3734 16.0531L39.1846 28.2419C38.7534 28.6958 38.1859 28.9001 37.5958 28.9001Z" fill="white"/>
<path d="M2.2737 16.7115C1.02531 16.7115 0.00390625 15.69 0.00390625 14.4417C0.00390625 13.1933 1.02531 12.1719 2.2737 12.1719H46.4665C47.7149 12.1719 48.7363 13.1933 48.7363 14.4417C48.7363 15.69 47.7149 16.7115 46.4665 16.7115H2.2737Z" fill="white"/>
</svg>
