<svg width="53" height="58" viewBox="0 0 53 58" fill="none" xmlns="http://www.w3.org/2000/svg">
<g clip-path="url(#clip0)">
<path d="M45.5545 58H7.43959C5.04895 58 3.10938 56.0293 3.10938 53.6002V25.7804C3.10938 24.52 4.12427 23.4888 5.36469 23.4888C6.60512 23.4888 7.62001 24.52 7.62001 25.7804V53.3939H45.3741V25.7804C45.3741 24.52 46.389 23.4888 47.6294 23.4888C48.8698 23.4888 49.8847 24.52 49.8847 25.7804V53.5773C49.8847 56.0293 47.9451 58 45.5545 58Z" fill="white"/>
<path d="M48.6698 27.3844H4.33021C1.93957 27.3844 0 25.3907 0 22.9616V19.1118C0 16.6827 1.93957 14.7119 4.33021 14.7119H48.6698C51.0604 14.7119 53 16.6827 53 19.1118V22.9845C53 25.3907 51.0604 27.3844 48.6698 27.3844ZM4.51064 22.8012H48.4894V19.2722H4.51064V22.8012Z" fill="white"/>
<path d="M21.8113 56.5799C21.1798 56.5799 20.6836 56.0757 20.6836 55.4341V16.8667C20.6836 16.2251 21.1798 15.7209 21.8113 15.7209C22.4427 15.7209 22.9389 16.2251 22.9389 16.8667V55.4341C22.9389 56.0528 22.4202 56.5799 21.8113 56.5799Z" fill="white"/>
<path d="M31.1941 56.5799C30.5626 56.5799 30.0664 56.0757 30.0664 55.4341V16.8667C30.0664 16.2251 30.5626 15.7209 31.1941 15.7209C31.8255 15.7209 32.3217 16.2251 32.3217 16.8667V55.4341C32.3217 56.0528 31.8255 56.5799 31.1941 56.5799Z" fill="white"/>
<path d="M22.1 18.1267C16.9578 18.1267 13.4621 17.21 11.6804 15.4226C8.18466 11.8935 8.18466 6.11876 11.6804 2.5668C15.0634 -0.870575 20.9498 -0.870575 24.3327 2.5668C27.5127 5.79794 27.0391 14.2539 26.9038 15.9267C26.8136 17.0496 25.934 17.9433 24.8289 18.035C24.8289 18.035 23.7013 18.1267 22.1 18.1267ZM18.0178 4.49173C16.8225 4.49173 15.7174 4.95005 14.883 5.82085C13.1689 7.58537 13.1689 10.4269 14.883 12.1915C15.4919 12.8102 17.7698 13.5435 22.1 13.5435C22.2353 13.5435 22.3706 13.5435 22.4834 13.5435C22.5285 10.2207 22.0549 6.7604 21.1302 5.82085C20.3183 4.97297 19.2132 4.49173 18.0178 4.49173Z" fill="white"/>
<path d="M30.8939 18.1267C29.2927 18.1267 28.165 18.035 28.165 18.035C27.0599 17.9433 26.1803 17.0496 26.0901 15.9267C25.9548 14.2539 25.4812 5.82085 28.6612 2.5668C32.0442 -0.870575 37.9305 -0.870575 41.3135 2.5668C43.005 4.28549 43.9297 6.55416 43.9297 8.98324C43.9297 11.4123 43.005 13.7039 41.3135 15.3997C39.5318 17.21 36.0361 18.1267 30.8939 18.1267ZM30.488 13.5435C30.6233 13.5435 30.7586 13.5435 30.8714 13.5435C35.2242 13.5435 37.4795 12.8102 38.0884 12.1915C38.9229 11.3436 39.3739 10.2207 39.3739 9.00615C39.3739 7.79161 38.9229 6.66874 38.0884 5.82085C36.4195 4.12508 33.4876 4.12508 31.8186 5.82085C30.8488 6.82915 30.4654 10.4499 30.488 13.5435Z" fill="white"/>
</g>
<defs>
<clipPath id="clip0">
<rect width="53" height="58" fill="white"/>
</clipPath>
</defs>
</svg>
