<svg width="55" height="59" viewBox="0 0 55 59" fill="none" xmlns="http://www.w3.org/2000/svg">
<g clip-path="url(#clip0)">
<path d="M17.4015 30.8561C17.4015 32.0183 16.4712 32.9526 15.314 32.9526C14.1568 32.9526 13.2266 32.0183 13.2266 30.8561C13.2266 29.6939 14.1568 28.7595 15.314 28.7595C16.4712 28.7595 17.4015 29.6939 17.4015 30.8561Z" fill="white"/>
<path d="M38.371 27.2774C38.0079 27.2774 37.6676 27.1863 37.3273 27.004C33.6061 24.953 29.0001 24.0186 24.3941 24.406C23.1461 24.52 22.1478 23.6084 22.057 22.4234C21.9663 21.1928 22.8739 20.1446 24.0537 20.0534C29.4993 19.5976 34.9675 20.7143 39.4147 23.1755C40.4584 23.7452 40.8442 25.0669 40.2769 26.1152C39.8912 26.8672 39.1424 27.2774 38.371 27.2774Z" fill="white"/>
<path d="M33.0371 24.8625C26.2074 24.8625 20.6484 19.2793 20.6484 12.4199C20.6484 5.58324 26.2074 0 33.0371 0C39.8667 0 45.4257 5.58324 45.4257 12.4426C45.403 19.2793 39.844 24.8625 33.0371 24.8625ZM33.0371 4.55774C28.7033 4.55774 25.1864 8.09 25.1864 12.4426C25.1864 16.7953 28.7033 20.3275 33.0371 20.3275C37.3708 20.3275 40.8877 16.7953 40.8877 12.4426C40.8877 8.09 37.3481 4.55774 33.0371 4.55774Z" fill="white"/>
<path d="M33.0385 18.4132C29.7485 18.4132 27.0938 15.7241 27.0938 12.4426C27.0938 9.16099 29.7711 6.47192 33.0385 6.47192C36.3058 6.47192 38.9832 9.16099 38.9832 12.4426C38.9832 15.7241 36.3058 18.4132 33.0385 18.4132ZM33.0385 8.72801C31.0191 8.72801 29.3627 10.3916 29.3627 12.4198C29.3627 14.448 31.0191 16.1116 33.0385 16.1116C35.0579 16.1116 36.7142 14.448 36.7142 12.4198C36.7142 10.3916 35.0579 8.72801 33.0385 8.72801Z" fill="white"/>
<path d="M40.5239 58.9994H37.1205C34.67 58.9994 32.6279 57.2675 32.1514 54.9431C29.3379 55.3988 26.4563 55.4444 23.5974 55.0798C23.0528 57.3131 21.0561 58.9767 18.651 58.9767H15.2475C12.4567 58.9767 10.165 56.6978 10.165 53.872V49.337C7.80528 47.3544 5.9901 44.9844 4.83292 42.3865C2.15553 42.2953 0 40.0392 0 37.3046V33.8863C0 31.1516 2.15553 28.8955 4.85561 28.7816C6.01279 26.1837 7.82797 23.8137 10.1877 21.8082V18.3444C10.1877 17.5468 10.6415 16.7947 11.3449 16.4301C13.8861 15.0856 16.8812 15.4274 18.9913 17.1138C20.7384 16.5668 22.599 16.2022 24.4823 16.0199L24.9134 20.3498C22.894 20.5549 20.9427 20.9879 19.1502 21.6487C18.288 21.9678 17.2896 21.6715 16.7224 20.9651C16.1778 20.2586 15.2929 19.8712 14.5215 19.9168V22.8565C14.5215 23.5402 14.2038 24.1783 13.6592 24.5885C11.0953 26.5483 9.28012 28.9867 8.37252 31.653C8.07756 32.5417 7.26073 33.1342 6.33044 33.1342H5.08251C4.67409 33.1342 4.33375 33.4761 4.33375 33.8863V37.3046C4.33375 37.7148 4.67409 38.0566 5.08251 38.0566H6.35313C7.28341 38.0566 8.10025 38.6491 8.39521 39.5379C9.3028 42.2042 11.1407 44.6425 13.6819 46.6024C14.2265 47.0126 14.5441 47.6507 14.5441 48.3343V53.8948C14.5441 54.305 14.8845 54.6468 15.2929 54.6468H18.6964C19.1048 54.6468 19.4451 54.305 19.4451 53.8948V52.5274C19.4451 51.8666 19.7401 51.2513 20.262 50.8411C20.7838 50.4309 21.4418 50.2714 22.0771 50.4081C25.889 51.2513 29.9505 51.1829 33.6943 50.203C34.3523 50.0207 35.033 50.1802 35.5549 50.5904C36.0767 51.0006 36.3944 51.6387 36.3944 52.2996V53.8948C36.3944 54.305 36.7347 54.6468 37.1432 54.6468H40.5466C40.955 54.6468 41.2954 54.305 41.2954 53.8948V47.5367C41.2954 46.8986 41.5677 46.3061 42.0441 45.8959C45.3115 43.0473 47.1266 39.4011 47.1266 35.6182C47.1266 35.1169 47.3082 34.5927 47.6031 34.1825C47.2174 33.8863 46.9451 33.4533 46.8317 32.9519C45.8787 28.736 42.6568 24.9759 37.96 22.6286L39.8886 18.7318C44.0635 20.8055 47.3535 23.882 49.3276 27.4599C49.3049 26.6167 49.7587 25.8419 50.5074 25.4544C51.3469 25.0215 52.368 25.181 53.0487 25.8646C54.342 27.1864 55.0454 28.9411 55.0454 30.7642C55.0454 33.3621 53.6159 35.6866 51.415 36.9172C51.052 41.2698 49.0326 45.2806 45.6518 48.4938V53.8948C45.6064 56.6978 43.3375 58.9994 40.5239 58.9994Z" fill="white"/>
</g>
<defs>
<clipPath id="clip0">
<rect width="55" height="59" fill="white"/>
</clipPath>
</defs>
</svg>
