<svg width="20" height="21" viewBox="0 0 20 21" fill="none" xmlns="http://www.w3.org/2000/svg">
<path fill-rule="evenodd" clip-rule="evenodd" d="M19.2081 18.501C19.4034 18.6963 19.4034 19.0128 19.2081 19.2081C19.0128 19.4034 18.6963 19.4034 18.501 19.2081L10.0316 10.7387L0.855175 19.9152C0.659913 20.1105 0.34333 20.1105 0.148068 19.9152C-0.0471942 19.7199 -0.0471942 19.4034 0.148068 19.2081L9.32453 10.0316L0.146447 0.853553C-0.0488154 0.658291 -0.0488156 0.341709 0.146447 0.146447C0.341709 -0.0488156 0.658291 -0.0488154 0.853553 0.146447L10.0316 9.32453L18.5026 0.853553C18.6979 0.658291 19.0145 0.658291 19.2097 0.853553C19.405 1.04882 19.405 1.3654 19.2097 1.56066L10.7387 10.0316L19.2081 18.501Z" fill="#99C228"/>
</svg>
