<svg width="18" height="24" viewBox="0 0 18 24" fill="none" xmlns="http://www.w3.org/2000/svg">
<path d="M8.98989 0.00497698C4.0537 -0.158447 0 3.72389 0 8.53627C0 13.9978 5.3351 17.9614 8.32542 23.6616C8.47725 23.951 8.90134 23.9514 9.05368 23.662C11.7589 18.533 16.3824 15.0937 17.2392 10.1525C18.1264 5.03928 14.2667 0.179745 8.98989 0.00497698ZM8.68913 13.0076C6.17548 13.0076 4.1377 11.0056 4.1377 8.53627C4.1377 6.06692 6.17553 4.06496 8.68913 4.06496C11.2028 4.06496 13.2406 6.06692 13.2406 8.53627C13.2406 11.0056 11.2028 13.0076 8.68913 13.0076Z" fill="white"/>
</svg>
