<svg width="23" height="27" viewBox="0 0 23 27" fill="none" xmlns="http://www.w3.org/2000/svg">
<path d="M11.2187 25.8992C10.9921 25.8992 10.7655 25.8178 10.5783 25.655C9.6129 24.8 1.12109 17.1661 1.12109 11.6493C1.12109 5.89843 5.65268 1.21631 11.2187 1.21631C16.7846 1.21631 21.3162 5.89843 21.3162 11.6493C21.3162 17.1661 12.8244 24.8 11.859 25.655C11.6718 25.8178 11.4452 25.8992 11.2187 25.8992ZM11.2187 3.25201C6.73632 3.25201 3.09135 7.01807 3.09135 11.6493C3.09135 15.222 8.47015 20.9627 11.2187 23.5276C13.9672 20.9627 19.346 15.222 19.346 11.6493C19.346 7.01807 15.701 3.25201 11.2187 3.25201Z" fill="white"/>
<path d="M11.4997 15.8015C9.03958 15.8015 7.04297 13.8048 7.04297 11.3446C7.04297 8.88439 9.03958 6.8877 11.4997 6.8877C13.9598 6.8877 15.9564 8.88439 15.9564 11.3446C15.9564 13.8048 13.9598 15.8015 11.4997 15.8015ZM11.4997 8.67046C10.029 8.67046 8.82566 9.87382 8.82566 11.3446C8.82566 12.8154 10.029 14.0187 11.4997 14.0187C12.9704 14.0187 14.1737 12.8154 14.1737 11.3446C14.1737 9.87382 12.9793 8.67046 11.4997 8.67046Z" fill="white"/>
</svg>
