<svg width="24" height="24" viewBox="0 0 24 24" fill="none" xmlns="http://www.w3.org/2000/svg">
<path d="M18.3296 23.23C13.8796 23.23 9.26964 21.18 5.69964 17.6L5.62964 17.52C1.91964 13.79 -0.100363 9.1 -0.000362853 4.57L0.00963715 4.24L0.219637 3.98C0.539637 3.57 0.859637 3.21 1.18964 2.88C2.39964 1.66 3.82964 0.73 5.42964 0.11C5.61964 0.04 5.83964 0 6.07964 0C6.61964 0 7.82964 0.27 8.13964 1.12C8.68964 2.64 9.37964 4.61 9.87964 6.51C10.0196 7.04 9.87964 8.32 9.13964 8.79L7.36964 9.91C7.38964 9.92 7.37964 10.2 7.60964 10.52C8.29964 11.46 9.08964 12.39 9.96964 13.29C10.8596 14.16 11.7796 14.95 12.7196 15.63C12.8996 15.76 13.1096 15.84 13.2696 15.84L13.8796 14.99L14.4396 14.1C14.9296 13.34 16.1596 13.32 16.2896 13.32C16.4296 13.32 16.5596 13.33 16.6796 13.36C19.0096 13.88 20.3996 14.33 22.1696 15.13C22.9596 15.49 23.4596 16.92 23.1096 17.82C22.4896 19.41 21.5696 20.84 20.3596 22.05C20.0196 22.39 19.6496 22.72 19.2596 23.02L18.9996 23.22L18.3296 23.23ZM1.99964 4.95C2.01964 8.81 3.87964 12.96 7.03964 16.12L7.13964 16.22C10.2996 19.38 14.3696 21.22 18.2896 21.23C18.5196 21.04 18.7496 20.83 18.9596 20.63C19.9696 19.62 20.7496 18.42 21.2596 17.09C21.2496 17.08 21.2096 16.96 21.1696 16.86C19.6196 16.17 18.3496 15.77 16.2596 15.3C16.2096 15.31 16.1096 15.33 16.0196 15.35L15.0096 16.94C14.3896 17.95 12.7296 18.12 11.5396 17.24C10.5296 16.51 9.52964 15.65 8.55964 14.7C7.59964 13.72 6.73964 12.72 5.99964 11.7C5.49964 11.03 5.29964 10.23 5.43964 9.51C5.54964 8.96 5.85964 8.5 6.30964 8.22L7.88964 7.22C7.90964 7.12 7.92964 7 7.92964 6.94C7.48964 5.3 6.85964 3.5 6.34964 2.06C6.25964 2.03 6.15964 2 6.07964 2C4.80964 2.5 3.61964 3.28 2.59964 4.29C2.39964 4.49 2.19964 4.71 1.99964 4.95Z" fill="white"/>
</svg>
