<svg width="34" height="34" viewBox="0 0 34 34" fill="none" xmlns="http://www.w3.org/2000/svg">
<circle cx="17" cy="17" r="17" fill="white"/>
<g clip-path="url(#clip0)">
<path d="M29.0859 20.0507C29.8616 13.5214 28.7132 9.39932 26.6419 7.5349L26.643 7.53382C23.2998 4.3499 12.0093 3.87865 8.00964 7.67682C6.21347 9.53474 5.58081 12.2615 5.51147 15.6372C5.44214 19.0139 5.35981 25.3395 11.2542 27.0555H11.2596L11.2542 29.6761C11.2542 29.6761 11.2141 30.7377 11.8923 30.9512C12.668 31.2025 13.019 30.7096 15.4316 27.8279C19.4659 28.1778 22.5642 27.3762 22.9163 27.2592C23.731 26.9862 28.3406 26.3762 29.0859 20.0507ZM15.8291 25.9841C15.8291 25.9841 13.2757 29.168 12.4816 29.9946C12.2216 30.2632 11.9367 30.2383 11.9411 29.7053C11.9411 29.3554 11.9606 25.3547 11.9606 25.3547C6.96314 23.9225 7.25781 18.5362 7.31197 15.7184C7.36614 12.8996 7.88181 10.591 9.40281 9.0364C12.9117 5.74632 22.8101 6.4819 25.3321 8.85224C28.4153 11.5855 27.3179 19.3075 27.3244 19.5707C26.6906 24.8509 22.9553 25.1857 22.2685 25.4142C21.9749 25.5117 19.2503 26.2127 15.8291 25.9841Z" fill="#99C228"/>
<path d="M17.2386 9.65503C16.8215 9.65503 16.8215 10.305 17.2386 10.3104C20.4745 10.3354 23.1395 12.5909 23.1688 16.7281C23.1688 17.1647 23.8079 17.1593 23.8025 16.7227H23.8014C23.7668 12.2648 20.8569 9.67995 17.2386 9.65503Z" fill="#99C228"/>
<path d="M21.4967 16.0425C21.4869 16.4736 22.125 16.4942 22.1304 16.0576C22.1835 13.5995 20.6679 11.5748 17.8199 11.3614C17.4028 11.331 17.3594 11.9865 17.7754 12.0168C20.2454 12.2042 21.5465 13.8899 21.4967 16.0425Z" fill="#99C228"/>
<path d="M20.816 18.8385C20.2809 18.5287 19.7359 18.7215 19.5106 19.0259L19.0394 19.6359C18.7999 19.9457 18.3525 19.9045 18.3525 19.9045C15.0874 19.0411 14.2142 15.6243 14.2142 15.6243C14.2142 15.6243 14.1741 15.1617 14.4731 14.9136L15.0624 14.4261C15.3571 14.1921 15.5434 13.6288 15.2434 13.0752C14.4417 11.6268 13.9033 11.1274 13.6292 10.7439C13.341 10.3831 12.9077 10.3019 12.457 10.5456H12.4473C11.5102 11.0938 10.4843 12.1197 10.8125 13.1759C11.3726 14.2896 12.4018 17.8397 15.6821 20.522C17.2237 21.7906 19.6634 23.0906 20.699 23.3907L20.7088 23.4059C21.7293 23.746 22.7216 22.68 23.2514 21.7148V21.7072C23.4864 21.2403 23.4084 20.7983 23.065 20.509C22.4562 19.9154 21.5375 19.2599 20.816 18.8385Z" fill="#99C228"/>
<path d="M18.2665 13.7794C19.3075 13.8401 19.8124 14.3839 19.8665 15.5008C19.886 15.9374 20.5198 15.9071 20.5003 15.4705C20.431 14.0123 19.6705 13.1998 18.3011 13.124C17.884 13.0991 17.845 13.7545 18.2665 13.7794Z" fill="#99C228"/>
</g>
<defs>
<clipPath id="clip0">
<rect width="26" height="26" fill="white" transform="translate(4 5)"/>
</clipPath>
</defs>
</svg>
