<svg width="33" height="33" viewBox="0 0 33 33" fill="none" xmlns="http://www.w3.org/2000/svg">
<path d="M16.125 0C7.21971 0 0 7.21938 0 16.125C0 25.0306 7.21971 32.25 16.125 32.25C25.0303 32.25 32.25 25.0306 32.25 16.125C32.25 7.21938 25.0303 0 16.125 0ZM24.3045 17.869C25.056 18.6031 25.8511 19.2939 26.5258 20.1039C26.8247 20.4622 27.1065 20.8327 27.3209 21.2494C27.6271 21.8436 27.3506 22.4952 26.8188 22.5305L23.5153 22.5298C22.6621 22.6004 21.9831 22.2563 21.4107 21.673C20.9538 21.2081 20.5298 20.7116 20.0897 20.2309C19.9099 20.0336 19.7205 19.8479 19.4948 19.7017C19.0445 19.4087 18.6532 19.4985 18.3952 19.9689C18.1323 20.4477 18.0722 20.9782 18.0471 21.511C18.0112 22.2899 17.7763 22.4935 16.9947 22.5301C15.3246 22.6083 13.74 22.3549 12.2672 21.513C10.968 20.7703 9.96236 19.7222 9.08609 18.5354C7.37972 16.222 6.0729 13.6829 4.8987 11.0709C4.63443 10.4827 4.82777 10.1679 5.47673 10.1557C6.55492 10.1349 7.6331 10.1376 8.71129 10.1547C9.15009 10.1616 9.44042 10.4127 9.60902 10.8268C10.1917 12.2603 10.9059 13.6242 11.801 14.8891C12.0396 15.226 12.283 15.5618 12.6298 15.7997C13.0125 16.0623 13.3042 15.9755 13.4846 15.5483C13.6001 15.2768 13.6499 14.9864 13.675 14.6954C13.7608 13.6987 13.771 12.7024 13.6225 11.7096C13.5302 11.0884 13.1808 10.6872 12.5615 10.5698C12.2461 10.51 12.2923 10.3932 12.4457 10.2131C12.7119 9.90166 12.9614 9.70898 13.4599 9.70898L17.1923 9.70832C17.7806 9.8238 17.9125 10.0877 17.9924 10.6803L17.9957 14.8281C17.9887 15.0574 18.1108 15.737 18.5226 15.8871C18.8525 15.996 19.0702 15.7314 19.2675 15.5226C20.1626 14.5727 20.8003 13.4516 21.3714 12.2913C21.6235 11.7796 21.8409 11.2501 22.0521 10.7195C22.2091 10.3273 22.4533 10.1343 22.896 10.1409L26.4902 10.1451C26.5961 10.1451 26.7037 10.1461 26.8086 10.1643C27.4143 10.2679 27.5803 10.5285 27.3929 11.1194C27.0979 12.0478 26.5248 12.8211 25.9646 13.5965C25.3642 14.4266 24.7238 15.2276 24.1293 16.0613C23.5829 16.8234 23.6261 17.2071 24.3045 17.869Z" fill="white"/>
</svg>
