<svg width="34" height="34" viewBox="0 0 34 34" fill="none" xmlns="http://www.w3.org/2000/svg">
<circle cx="17" cy="17" r="17" fill="white"/>
<path d="M21.5454 19.3889L21.5387 19.4492C19.909 18.5689 19.7385 18.4516 19.5281 18.7938C19.3821 19.0307 18.9567 19.568 18.8285 19.7271C18.6988 19.8837 18.5698 19.8957 18.3497 19.7873C18.1274 19.6668 17.4137 19.4138 16.5688 18.5946C15.9107 17.9561 15.469 17.173 15.3386 16.932C15.1215 16.5256 15.5758 16.4678 15.9893 15.6197C16.0634 15.451 16.0256 15.3185 15.9708 15.1988C15.9152 15.0783 15.4727 13.8976 15.2875 13.427C15.1096 12.9579 14.9266 13.0174 14.7895 13.0174C14.3626 12.9772 14.0506 12.9836 13.7756 13.2937C12.5795 14.7185 12.8811 16.1883 13.9046 17.7513C15.9159 20.6041 16.9876 21.1294 18.947 21.8587C19.4762 22.041 19.9587 22.0153 20.3403 21.9559C20.7657 21.8828 21.6498 21.3768 21.8344 20.8106C22.0234 20.2443 22.0234 19.7745 21.9678 19.666C21.9129 19.5576 21.7677 19.4974 21.5454 19.3889Z" fill="#2E2F3B"/>
<path d="M24.955 10.0182C18.2271 3.51444 7.09275 8.23148 7.08838 17.4066C7.08838 19.2405 7.56875 21.029 8.484 22.6083L7 28L12.5431 26.5545C19.46 30.2907 27.9965 25.3295 28 17.4118C28 14.6329 26.915 12.0175 24.9419 10.0523L24.955 10.0182ZM26.2518 17.3829C26.2465 24.0617 18.9149 28.2327 13.1163 24.8238L12.8012 24.6366L9.52 25.4897L10.3994 22.3004L10.1902 21.9722C6.58175 16.228 10.7275 8.7206 17.563 8.7206C19.8853 8.7206 22.0649 9.62621 23.7064 11.2668C25.347 12.8934 26.2518 15.073 26.2518 17.3829Z" fill="#2E2F3B"/>
</svg>
