<svg width="48" height="42" viewBox="0 0 48 42" fill="none" xmlns="http://www.w3.org/2000/svg">
<path d="M21.9936 1.40128L9.3555 9.09407H1.40622C0.629613 9.09407 0 9.72368 0 10.5003V31.4999C0 32.2765 0.629613 32.9061 1.40622 32.9061H9.3555L21.9935 40.5989C24.8056 42.3106 28.4057 40.2885 28.4057 36.9953V5.00487C28.4057 1.71281 24.8063 -0.310936 21.9936 1.40128ZM2.81244 11.9065H8.34359V30.0937H2.81244V11.9065ZM25.5933 36.9953C25.5933 38.092 24.3945 38.7679 23.4558 38.1965L11.156 30.7096V11.2906L23.4558 3.80376C24.3928 3.2334 25.5933 3.90604 25.5933 5.00496V36.9953Z" fill="#FFBF45"/>
<path d="M32.4065 17.354C31.8573 17.9032 31.8573 18.7935 32.4065 19.3427C33.3224 20.2587 33.3225 21.7412 32.4065 22.6572C31.8573 23.2063 31.8573 24.0967 32.4065 24.6458C32.9556 25.195 33.846 25.1951 34.3952 24.6458C36.4055 22.6355 36.4055 19.3644 34.3952 17.354C33.846 16.8048 32.9556 16.8048 32.4065 17.354Z" fill="#FFBF45"/>
<path d="M38.6379 13.1116C38.0888 12.5624 37.1984 12.5624 36.6492 13.1116C36.1 13.6608 36.1 14.5511 36.6492 15.1003C39.9023 18.3534 39.9023 23.6467 36.6492 26.8999C36.1 27.4491 36.1 28.3394 36.6492 28.8886C37.1983 29.4377 38.0887 29.4378 38.6379 28.8886C42.9876 24.5388 42.9876 17.4613 38.6379 13.1116Z" fill="#FFBF45"/>
<path d="M42.8801 8.86891C42.331 8.31974 41.4406 8.31974 40.8914 8.86891C40.3422 9.41809 40.3422 10.3084 40.8914 10.8576C46.5787 16.5449 46.5787 25.455 40.8914 31.1424C40.3422 31.6915 40.3422 32.5819 40.8914 33.131C41.4405 33.6802 42.3309 33.6803 42.8801 33.131C49.7025 26.3086 49.7097 15.6986 42.8801 8.86891Z" fill="#FFBF45"/>
</svg>
