<svg width="18" height="18" viewBox="0 0 18 18" fill="none" xmlns="http://www.w3.org/2000/svg">
<path d="M16.5149 0.592285H1.55531C1.04308 0.592593 0.627827 1.00786 0.62793 1.52006V16.4728C0.628238 16.9848 1.04369 17.3998 1.55613 17.3997H9.61027V10.9H7.42626V8.35589H9.61027V6.48362C9.61027 4.31241 10.9364 3.13064 12.8741 3.13064C13.8022 3.13064 14.5997 3.19978 14.8322 3.23066V5.49993H13.496C12.4418 5.49993 12.2376 6.00065 12.2376 6.73556V8.35589H14.7583L14.4299 10.9H12.2376V17.3997H16.5149C17.0275 17.3998 17.443 16.9847 17.4431 16.4724C17.4431 16.4723 17.4431 16.4722 17.4431 16.472V1.51924C17.4429 1.00724 17.0274 0.592183 16.5149 0.592285Z" fill="#333333"/>
</svg>
