<svg width="18" height="17" viewBox="0 0 18 17" fill="none" xmlns="http://www.w3.org/2000/svg">
<path d="M17.2897 4.94145C17.2491 4.04841 17.1001 3.43444 16.8867 2.90244C16.6666 2.33773 16.3279 1.83214 15.8842 1.41184C15.4506 0.985008 14.9257 0.653337 14.3499 0.443253C13.798 0.236376 13.168 0.0919597 12.2468 0.052585C11.3187 0.00987572 11.0241 0 8.67026 0C6.31642 0 6.02179 0.00987572 5.09716 0.0492504C4.17597 0.088625 3.54267 0.23317 2.99403 0.439919C2.41139 0.653337 1.88987 0.981673 1.45633 1.41184C1.01605 1.83214 0.674056 2.34106 0.457221 2.89923C0.243825 3.43444 0.0948574 4.04507 0.054242 4.93812C0.0101869 5.83784 0 6.12346 0 8.4054C0 10.6873 0.0101869 10.973 0.0508023 11.8693C0.0914177 12.7624 0.240517 13.3764 0.453913 13.9084C0.674056 14.4731 1.01605 14.9787 1.45633 15.399C1.88987 15.8258 2.41483 16.1575 2.99059 16.3675C3.54267 16.5744 4.17253 16.7188 5.09385 16.7582C6.01835 16.7977 6.31311 16.8075 8.66695 16.8075C11.0208 16.8075 11.3154 16.7977 12.24 16.7582C13.1612 16.7188 13.7945 16.5744 14.3432 16.3675C15.5083 15.9308 16.4295 15.0378 16.88 13.9084C17.0932 13.3731 17.2423 12.7624 17.283 11.8693C17.3236 10.973 17.3338 10.6873 17.3338 8.4054C17.3338 6.12346 17.3303 5.83784 17.2897 4.94145ZM15.7285 11.8037C15.6912 12.6245 15.5489 13.0678 15.4304 13.3633C15.1391 14.0955 14.5396 14.6766 13.7844 14.959C13.4795 15.0739 13.019 15.2118 12.1756 15.2479C11.2612 15.2874 10.9869 15.2971 8.6737 15.2971C6.36047 15.2971 6.08278 15.2874 5.17165 15.2479C4.32494 15.2118 3.86772 15.0739 3.56291 14.959C3.18705 14.8244 2.84493 14.6109 2.56724 14.3319C2.27936 14.0593 2.05921 13.731 1.9203 13.3666C1.80176 13.0711 1.65954 12.6245 1.62237 11.807C1.58162 10.9205 1.57156 10.6545 1.57156 8.41194C1.57156 6.16938 1.58162 5.90017 1.62237 5.017C1.65954 4.19616 1.80176 3.7529 1.9203 3.4574C2.05921 3.0929 2.27936 2.76136 2.57067 2.49202C2.85168 2.21293 3.19036 1.99951 3.56635 1.86497C3.87116 1.75006 4.33182 1.61218 5.17509 1.57601C6.08953 1.53664 6.36391 1.52676 8.677 1.52676C10.9937 1.52676 11.2679 1.53664 12.1791 1.57601C13.0258 1.61218 13.483 1.75006 13.7878 1.86497C14.1637 1.99951 14.5058 2.21293 14.7835 2.49202C15.0713 2.76456 15.2915 3.0929 15.4304 3.4574C15.5489 3.7529 15.6912 4.19936 15.7285 5.017C15.7691 5.9035 15.7793 6.16938 15.7793 8.41194C15.7793 10.6545 15.7691 10.9172 15.7285 11.8037Z" fill="#333333"/>
<path d="M8.67043 4.08789C6.2117 4.08789 4.2168 6.02174 4.2168 8.40551C4.2168 10.7893 6.2117 12.7231 8.67043 12.7231C11.1293 12.7231 13.1241 10.7893 13.1241 8.40551C13.1241 6.02174 11.1293 4.08789 8.67043 4.08789ZM8.67043 11.2062C7.07533 11.2062 5.78147 9.95202 5.78147 8.40551C5.78147 6.85899 7.07533 5.60478 8.67043 5.60478C10.2657 5.60478 11.5594 6.85899 11.5594 8.40551C11.5594 9.95202 10.2657 11.2062 8.67043 11.2062Z" fill="#333333"/>
<path d="M14.3399 3.91709C14.3399 4.47372 13.8743 4.92505 13.3 4.92505C12.7258 4.92505 12.2603 4.47372 12.2603 3.91709C12.2603 3.36032 12.7258 2.90912 13.3 2.90912C13.8743 2.90912 14.3399 3.36032 14.3399 3.91709Z" fill="#333333"/>
</svg>
