<svg width="48" height="48" viewBox="0 0 48 48" fill="none" xmlns="http://www.w3.org/2000/svg">
<g clip-path="url(#clip0)">
<path d="M24.3079 17.814C21.6038 17.814 19.4116 20.0061 19.4116 22.7102C19.4116 25.4143 21.6037 27.6065 24.3079 27.6065C27.012 27.6065 29.2042 25.4144 29.2042 22.7102C29.2042 20.0061 27.0121 17.814 24.3079 17.814ZM24.3079 25.2749C22.8914 25.2749 21.7432 24.1266 21.7432 22.7101C21.7432 21.2937 22.8914 20.1454 24.3079 20.1454C25.7244 20.1454 26.8726 21.2937 26.8726 22.7101C26.8726 24.1266 25.7244 25.2749 24.3079 25.2749Z" fill="#FFBF45"/>
<path d="M43.8347 6.62244L12.0091 3.00863C10.7739 2.83302 9.52247 3.19361 8.57013 3.99958C7.61789 4.73794 7.0075 5.83242 6.87976 7.03055L6.29692 11.8102H4.48985C1.92512 11.8102 0.00157522 14.0834 0.00157522 16.6482V40.4882C-0.0630228 42.9339 1.86722 44.969 4.31302 45.0336C4.37192 45.0352 4.43094 45.0355 4.48985 45.0347H36.4903C39.055 45.0347 41.3866 43.0529 41.3866 40.4882V39.5556C42.1817 39.402 42.936 39.0843 43.6015 38.623C44.546 37.8279 45.1507 36.7018 45.2919 35.4754L47.9732 11.8102C48.2466 9.2396 46.4018 6.92713 43.8347 6.62244ZM39.055 40.4882C39.055 41.7706 37.7727 42.7032 36.4903 42.7032H4.48985C3.33144 42.7372 2.36481 41.8257 2.33078 40.6673C2.329 40.6076 2.32978 40.5479 2.33313 40.4882V36.1749L11.3679 29.53C12.4533 28.6967 13.982 28.7707 14.9818 29.7048L21.3353 35.3005C22.3002 36.1106 23.5147 36.5634 24.7744 36.5829C25.7593 36.5949 26.7281 36.3326 27.5723 35.8251L39.0551 29.1802V40.4882H39.055ZM39.055 26.4406L26.3481 33.8433C25.2569 34.4897 23.8758 34.3727 22.909 33.5519L16.4973 27.8978C14.6596 26.3188 11.9737 26.222 10.0272 27.6646L2.33313 33.2604V16.6482C2.33313 15.3658 3.20749 14.1418 4.48985 14.1418H36.4903C37.8603 14.1986 38.9668 15.2799 39.055 16.6482V26.4406ZM45.6439 11.4955C45.6431 11.5032 45.6425 11.511 45.6416 11.5187L42.902 35.1839C42.9067 35.7975 42.6269 36.3787 42.1442 36.7577C41.9111 36.9909 41.3865 37.1075 41.3865 37.224V16.6482C41.2944 13.9927 39.1465 11.8704 36.4902 11.8102H8.62836L9.15296 7.26373C9.26676 6.67499 9.57457 6.14147 10.0273 5.74819C10.5385 5.39474 11.1566 5.22995 11.776 5.28183L43.5434 8.95399C44.8251 9.07571 45.7656 10.2136 45.6439 11.4955Z" fill="#FFBF45"/>
</g>
<defs>
<clipPath id="clip0">
<rect width="48" height="48" fill="white"/>
</clipPath>
</defs>
</svg>
