<svg width="18" height="18" viewBox="0 0 18 18" fill="none" xmlns="http://www.w3.org/2000/svg">
<path d="M17.8173 10.6699C18.3993 6.30227 17.5377 3.54485 15.9834 2.29768L15.9843 2.29695C13.4757 0.167108 5.00389 -0.148129 2.00274 2.39261C0.654985 3.63544 0.180264 5.45947 0.128239 7.71758C0.0762151 9.97642 0.0144363 14.2078 4.43731 15.3557H4.44137L4.43731 17.1087C4.43731 17.1087 4.40723 17.8189 4.91609 17.9617C5.49812 18.1298 5.76149 17.8001 7.57177 15.8724C10.5989 16.1065 12.9238 15.5702 13.1879 15.492C13.7992 15.3094 17.258 14.9014 17.8173 10.6699ZM7.8701 14.639C7.8701 14.639 5.95414 16.7689 5.3583 17.3218C5.16321 17.5015 4.94942 17.4849 4.95267 17.1283C4.95267 16.8942 4.96731 14.218 4.96731 14.218C1.2175 13.26 1.4386 9.65683 1.47924 7.77193C1.51989 5.88631 1.90682 4.34201 3.0481 3.30209C5.68101 1.10122 13.1083 1.59328 15.0007 3.17889C17.3141 5.00727 16.4907 10.1728 16.4956 10.3489C16.02 13.881 13.2172 14.1049 12.7018 14.2578C12.4816 14.3231 10.4372 14.7919 7.8701 14.639Z" fill="#333333"/>
<path d="M8.93003 3.71594C8.61707 3.71594 8.61707 4.15075 8.93003 4.15438C11.3581 4.17104 13.3578 5.67983 13.3797 8.4474C13.3797 8.73944 13.8593 8.73582 13.8553 8.44377H13.8544C13.8284 5.4617 11.645 3.73261 8.93003 3.71594Z" fill="#333333"/>
<path d="M12.1239 7.9886C12.1166 8.27703 12.5954 8.2908 12.5995 7.99875C12.6393 6.35444 11.5021 5.00001 9.36501 4.85725C9.05205 4.83696 9.01953 5.27539 9.33168 5.29568C11.185 5.42105 12.1613 6.54866 12.1239 7.9886Z" fill="#333333"/>
<path d="M11.6116 9.85904C11.21 9.65178 10.8012 9.78077 10.6321 9.98441L10.2785 10.3924C10.0988 10.5997 9.76313 10.5721 9.76313 10.5721C7.31312 9.99455 6.65794 7.7089 6.65794 7.7089C6.65794 7.7089 6.62787 7.39946 6.85222 7.23351L7.29443 6.9074C7.51553 6.75087 7.65534 6.37404 7.43018 6.00372C6.82865 5.03482 6.42465 4.70074 6.21899 4.44421C6.00277 4.20289 5.67762 4.14854 5.33946 4.31159H5.33214C4.62901 4.67828 3.85921 5.36455 4.10551 6.07112C4.52577 6.81609 5.298 9.19088 7.75939 10.9852C8.91611 11.8338 10.7467 12.7034 11.5238 12.9042L11.5311 12.9143C12.2969 13.1418 13.0415 12.4288 13.439 11.7831V11.778C13.6153 11.4657 13.5568 11.17 13.2991 10.9765C12.8423 10.5794 12.153 10.1409 11.6116 9.85904Z" fill="#333333"/>
<path d="M9.69995 6.47485C10.4811 6.51543 10.8599 6.87922 10.9006 7.62637C10.9152 7.91842 11.3907 7.89813 11.3761 7.60608C11.3241 6.63065 10.7534 6.08714 9.72596 6.03641C9.413 6.01975 9.38374 6.45818 9.69995 6.47485Z" fill="#333333"/>
</svg>
