<svg width="55" height="55" viewBox="0 0 55 55" fill="none" xmlns="http://www.w3.org/2000/svg">
<g clip-path="url(#clip0)">
<path d="M27.6841 0.315918C12.6562 0.315918 0.473633 12.4985 0.473633 27.5264C0.473633 42.5543 12.6562 54.7369 27.6841 54.7369C42.712 54.7369 54.8946 42.5543 54.8946 27.5264C54.8786 12.5052 42.7054 0.331976 27.6841 0.315918ZM27.6841 50.8497C14.803 50.8497 4.36081 40.4075 4.36081 27.5264C4.36081 14.6453 14.803 4.2031 27.6841 4.2031C40.5652 4.2031 51.0074 14.6453 51.0074 27.5264C50.9935 40.4018 40.5595 50.8358 27.6841 50.8497Z" fill="white"/>
<path d="M39.1435 26.6593C38.9552 26.2815 38.6489 25.9751 38.271 25.7868L22.7221 18.0123C21.7619 17.5325 20.5946 17.9219 20.1147 18.8821C19.9797 19.1521 19.9096 19.45 19.9097 19.7519V35.3008C19.9092 36.3743 20.7789 37.2448 21.8524 37.2454C22.1543 37.2455 22.4521 37.1753 22.7221 37.0404L38.271 29.2659C39.2317 28.7871 39.6224 27.6201 39.1435 26.6593ZM23.797 32.156V22.8966L33.0564 27.5263L23.797 32.156Z" fill="white"/>
</g>
<defs>
<clipPath id="clip0">
<rect width="54.421" height="54.4211" fill="white" transform="translate(0.473633 0.315918)"/>
</clipPath>
</defs>
</svg>
