<svg width="19" height="18" viewBox="0 0 19 18" fill="none" xmlns="http://www.w3.org/2000/svg">
<path fill-rule="evenodd" clip-rule="evenodd" d="M15.5693 2.52977C13.9099 0.899286 11.7031 0.000956234 9.35212 0C4.50763 0 0.564929 3.86946 0.562981 8.62535C0.562331 10.1457 0.966994 11.6297 1.73616 12.9379L0.489258 17.4077L5.14851 16.2082C6.43233 16.8955 7.87766 17.2577 9.34854 17.2581H9.35222C14.1962 17.2581 18.1393 13.3884 18.1411 8.63225C18.1421 6.3273 17.2288 4.16015 15.5693 2.52977ZM9.35212 15.8014H9.34908C8.03831 15.8008 6.75277 15.4551 5.63101 14.802L5.36438 14.6465L2.5995 15.3584L3.33749 12.7127L3.16374 12.4415C2.43246 11.2999 2.04631 9.98054 2.04696 8.62588C2.04848 4.67291 5.32562 1.45688 9.35504 1.45688C11.3063 1.45751 13.1404 2.20423 14.5196 3.55943C15.8988 4.91462 16.6579 6.71596 16.6573 8.63172C16.6555 12.585 13.3786 15.8014 9.35212 15.8014ZM13.3591 10.4317C13.1396 10.3237 12.0598 9.80247 11.8585 9.73043C11.6573 9.6585 11.5108 9.6227 11.3645 9.83838C11.218 10.0541 10.7972 10.5396 10.6691 10.6834C10.5409 10.8272 10.4129 10.8453 10.1933 10.7373C9.97362 10.6295 9.26605 10.4018 8.42717 9.66754C7.77438 9.09603 7.33367 8.39022 7.2055 8.17453C7.07754 7.95864 7.20441 7.85324 7.30184 7.73467C7.53958 7.44493 7.77763 7.14116 7.85081 6.99741C7.9241 6.85355 7.8874 6.72764 7.83241 6.6198C7.77763 6.51196 7.33844 5.45107 7.15548 5.01938C6.97708 4.59928 6.79618 4.65601 6.66129 4.64943C6.53333 4.64316 6.38686 4.64188 6.24039 4.64188C6.09403 4.64188 5.85608 4.69575 5.65472 4.91165C5.45347 5.12744 4.88621 5.6488 4.88621 6.70969C4.88621 7.77058 5.67312 8.79545 5.7829 8.93931C5.89267 9.08317 7.33151 11.2602 9.53442 12.1937C10.0584 12.416 10.4674 12.5485 10.7864 12.6478C11.3125 12.8118 11.7911 12.7887 12.1696 12.7332C12.5916 12.6713 13.4688 12.2118 13.652 11.7084C13.8349 11.2048 13.8349 10.7734 13.7799 10.6834C13.7251 10.5935 13.5787 10.5396 13.3591 10.4317Z" fill="#333333"/>
</svg>
