<svg width="26" height="18" viewBox="0 0 26 18" fill="none" xmlns="http://www.w3.org/2000/svg">
<path d="M24.7697 3.18707C24.486 2.17243 23.6543 1.3726 22.5997 1.09939C20.6729 0.592285 12.9656 0.592285 12.9656 0.592285C12.9656 0.592285 5.25869 0.592285 3.33192 1.08016C2.29752 1.35308 1.44557 2.17257 1.16184 3.18707C0.654785 5.04028 0.654785 8.88359 0.654785 8.88359C0.654785 8.88359 0.654785 12.7463 1.16184 14.5801C1.44587 15.5946 2.27724 16.3944 3.33207 16.6677C5.27898 17.1749 12.9659 17.1749 12.9659 17.1749C12.9659 17.1749 20.6729 17.1749 22.5997 16.687C23.6545 16.414 24.486 15.6141 24.77 14.5996C25.2769 12.7463 25.2769 8.90311 25.2769 8.90311C25.2769 8.90311 25.2972 5.04028 24.7697 3.18707ZM10.5118 12.4342V5.333L16.9208 8.88359L10.5118 12.4342Z" fill="#333333"/>
</svg>
