<svg width="32" height="23" viewBox="0 0 32 23" fill="none" xmlns="http://www.w3.org/2000/svg">
<path d="M28.6897 22.1328H3.31034C1.51724 22.1328 0 20.6836 0 18.971V3.16183C0 1.44917 1.51724 0 3.31034 0H28.6897C30.4828 0 32 1.44917 32 3.16183V18.971C32 20.6836 30.4828 22.1328 28.6897 22.1328ZM3.31034 2.63486C3.03448 2.63486 2.75862 2.89834 2.75862 3.16183V18.971C2.75862 19.2345 3.03448 19.498 3.31034 19.498H28.6897C28.9655 19.498 29.2414 19.2345 29.2414 18.971V3.16183C29.2414 2.89834 28.9655 2.63486 28.6897 2.63486H3.31034Z" fill="#BA1919"/>
<path d="M30.4828 8.43237H1.37931C0.551724 8.43237 0 7.90527 0 7.11462C0 6.32397 0.551724 5.79688 1.37931 5.79688H30.4828C31.3103 5.79688 31.8621 6.32397 31.8621 7.11462C31.8621 7.7735 31.1724 8.43237 30.4828 8.43237Z" fill="#BA1919"/>
<path d="M8.82792 15.1511H5.51758V12.5156H8.82792V15.1511Z" fill="#BA1919"/>
</svg>
