<svg width="33" height="34" viewBox="0 0 33 34" fill="none" xmlns="http://www.w3.org/2000/svg">
<path d="M6.29272 34.0001C5.7334 34.0001 5.17407 33.5786 4.89441 33.0166L0.000344194 16.1571C-0.279317 15.4546 0.140175 14.6117 0.979158 14.4712L9.36899 11.9422C9.78848 11.8017 10.0681 11.9422 10.4876 12.0827C10.7673 12.2232 11.047 12.5042 11.1868 12.7852L16.0809 29.6447C16.2207 30.0662 16.0809 30.3472 15.941 30.7687C15.8012 31.0497 15.5215 31.3307 15.102 31.4712L6.71221 34.0001C6.57238 34.0001 6.43255 34.0001 6.29272 34.0001ZM3.07662 16.7191L7.27153 30.9092L13.0046 29.2232L8.80967 15.0331L3.07662 16.7191Z" fill="#BA1919"/>
<path d="M24.75 27.2562C24.3305 27.2562 23.911 27.2562 23.6313 27.1157C22.7923 26.9752 21.5338 26.8347 19.9957 26.8347L17.8983 26.6942C15.5211 26.5537 14.2627 26.6942 13.5635 26.8347C12.8644 26.9752 12.1652 26.5537 11.8855 25.8512L8.80927 15.595C8.66944 15.0331 8.80927 14.4711 9.22876 14.0496C11.1864 12.6446 14.2627 9.27273 15.3813 7.44628C15.9406 5.33884 15.661 2.95041 15.661 2.80992C15.5211 2.24793 15.8008 1.54545 16.2203 1.12397C17.1991 0 19.0169 0 19.2966 0C19.9957 0 20.6949 0.280992 21.2542 0.983471C22.3728 2.24793 22.9322 4.49587 22.7923 7.30578C22.7923 7.58678 22.6525 8.00826 22.6525 8.42975C22.6525 8.71074 22.6525 8.85124 22.5127 9.13223C22.5127 9.41322 22.5127 9.69421 22.5127 9.97521C23.2118 10.2562 24.8898 10.5372 27.8262 10.5372H28.3855C30.9025 10.5372 33 12.6446 33 15.1736C33 16.157 32.7203 17.1405 32.161 17.9835C32.161 18.2645 32.3008 18.6859 32.161 18.9669C32.161 20.0909 31.6016 21.0744 30.9025 21.7769C30.7627 23.1818 30.0635 24.3058 28.9449 25.0083C28.9449 25.1488 28.9449 25.1488 28.805 25.2893C28.2457 26.5537 26.8474 27.2562 24.75 27.2562ZM15.9406 23.7438C16.6398 23.7438 17.3389 23.7438 18.1779 23.8843L20.4152 24.0248C21.9533 24.1653 23.2118 24.3058 24.0508 24.4463C24.3305 24.4463 24.6101 24.4463 24.8898 24.4463C25.8686 24.4463 26.1483 24.1653 26.2881 24.1653C26.2881 24.0248 26.4279 23.8843 26.4279 23.7438C26.4279 23.1818 26.8474 22.7603 27.4067 22.6198C27.9661 22.4793 28.2457 21.9174 28.3855 21.4959C28.3855 21.3554 28.3855 21.3554 28.3855 21.2149C28.2457 20.6529 28.5254 20.0909 29.0847 19.8099C29.5042 19.5289 29.7838 19.2479 29.7838 18.8264C29.7838 18.6859 29.7839 18.405 29.644 18.2645C29.3644 17.7025 29.5042 17 29.9237 16.719C30.3432 16.2975 30.483 15.876 30.483 15.314C30.483 14.3306 29.644 13.4876 28.6652 13.4876C28.6652 13.4876 28.3855 13.4876 28.1059 13.4876C21.9533 13.4876 20.8347 12.3636 20.555 11.9421C19.8559 11.3802 19.5762 10.8182 19.5762 10.2562C19.5762 9.83471 19.5762 9.27273 19.7161 8.71074C19.7161 8.42975 19.8559 8.14876 19.8559 7.86777C19.8559 7.58678 19.9957 7.30578 19.9957 6.8843C20.2754 4.21488 19.5762 2.95041 19.1567 2.66942C19.0169 2.66942 18.7372 2.66942 18.5974 2.80992C18.7372 3.79339 18.7372 6.18182 18.0381 8.28926C18.0381 8.42975 18.0381 8.42975 17.8983 8.57025C16.7796 10.5372 13.983 13.7686 11.8855 15.595L14.2627 23.7438C14.822 23.8843 15.3813 23.7438 15.9406 23.7438Z" fill="#BA1919"/>
</svg>
