<svg width="32" height="25" viewBox="0 0 32 25" fill="none" xmlns="http://www.w3.org/2000/svg">
<g clip-path="url(#clip0)">
<path d="M16.4321 6.98648C16.4321 7.22826 16.4321 7.34915 16.4321 7.59094C16.8028 7.47004 17.1735 7.34915 17.5441 7.34915C17.7912 7.34915 18.1619 7.47004 18.2854 7.59094C18.5325 7.71183 18.6561 7.95361 18.6561 8.0745C18.7796 8.19539 18.7796 8.43718 18.7796 8.55807C18.7796 8.79985 18.6561 8.92075 18.5325 9.16253C18.409 9.40431 18.1619 9.52521 18.0383 9.6461C17.6677 9.76699 17.4206 9.76699 17.297 9.40431C17.1735 8.92075 16.8028 8.79985 16.3086 8.92075C16.3086 9.76699 16.3086 10.4923 16.3086 11.3386C16.8028 11.2177 17.1735 11.2177 17.4206 11.2177C17.6677 11.2177 17.9148 11.2177 18.1619 11.3386C18.409 11.4595 18.6561 11.5804 18.7796 11.8222C18.9032 12.0639 19.0267 12.3057 19.0267 12.6684C19.0267 13.152 18.9032 13.5146 18.6561 13.9982C18.409 14.4818 18.1619 14.9653 17.6677 15.328C17.297 15.8116 16.8028 16.1743 16.185 16.416C16.185 16.8996 16.185 17.3832 16.185 17.8667C16.185 18.1085 16.185 18.2294 16.0615 18.3503C16.0615 18.4712 15.9379 18.5921 15.8144 18.5921C15.6908 18.713 15.5673 18.713 15.5673 18.5921C15.5673 18.5921 15.4437 18.4712 15.4437 18.2294C15.4437 17.7459 15.4437 17.1414 15.4437 16.6578C14.9495 16.7787 14.5789 16.8996 14.2082 16.8996C13.8376 16.8996 13.5905 16.7787 13.3433 16.6578C13.0962 16.5369 12.9727 16.2952 12.8491 16.1743C12.7256 15.9325 12.7256 15.6907 12.7256 15.4489C12.7256 15.2071 12.8491 15.0862 12.9727 14.8444C13.0962 14.6027 13.3433 14.4818 13.5905 14.3609C13.714 14.24 13.9611 14.24 14.0847 14.24C14.2082 14.24 14.3318 14.3609 14.3318 14.4818C14.4553 14.7236 14.5789 14.9653 14.5789 15.0862C14.7024 15.2071 14.826 15.328 14.9495 15.328C15.0731 15.4489 15.3202 15.4489 15.5673 15.328C15.5673 14.4818 15.5673 13.5146 15.5673 12.6684C15.0731 12.7893 14.5789 12.7893 14.2082 12.7893C13.8376 12.7893 13.5905 12.6684 13.3433 12.4266C13.0962 12.1848 12.9727 11.8222 12.9727 11.3386C12.9727 10.6132 13.2198 10.0088 13.5905 9.40431C14.2082 9.04164 14.826 8.43718 15.6908 7.95361C15.6908 7.71183 15.6908 7.59094 15.6908 7.34915C15.6908 6.98648 15.8144 6.74469 16.0615 6.74469C16.3086 6.6238 16.4321 6.74469 16.4321 6.98648ZM15.6908 11.3386C15.6908 10.6132 15.6908 9.88788 15.6908 9.16253C15.3202 9.40431 15.0731 9.6461 14.9495 9.88788C14.7024 10.1297 14.7024 10.3714 14.7024 10.7341C14.7024 11.0968 14.826 11.2177 14.9495 11.3386C15.0731 11.3386 15.3202 11.4595 15.6908 11.3386ZM16.4321 12.7893C16.4321 13.6355 16.4321 14.4818 16.4321 15.328C16.8028 15.0862 17.1735 14.7236 17.4206 14.4818C17.6677 14.1191 17.7912 13.8773 17.7912 13.5146C17.7912 13.152 17.6677 12.9102 17.4206 12.9102C17.1735 12.6684 16.8028 12.6684 16.4321 12.7893Z" fill="#BA1919"/>
<path d="M6.79537 24.7577C4.57143 24.7577 2.47104 24.1532 0.617761 22.7025C0.247104 22.4607 0 22.0981 0 21.7354V6.01944C0 5.53587 0.247104 5.05231 0.741313 4.81052C1.23552 4.56874 1.72973 4.56874 2.10039 4.93141C3.58301 5.89855 5.06564 6.50301 6.79537 6.50301C9.63706 6.50301 12.4788 5.1732 15.444 3.72249C18.6564 2.27179 21.8687 0.700195 25.2046 0.700195C27.4286 0.700195 29.529 1.30466 31.3822 2.75536C31.7529 2.99714 32 3.35982 32 3.84339V19.5593C32 20.0429 31.7529 20.5265 31.2587 20.7683C30.7645 21.01 30.2703 21.01 29.8996 20.6474C28.417 19.6802 26.9344 19.0758 25.2046 19.0758C22.3629 19.0758 19.5212 20.4056 16.556 21.8563C13.4672 23.1861 10.1313 24.7577 6.79537 24.7577ZM2.71815 21.01C3.95367 21.7354 5.31274 22.219 6.79537 22.219C9.63706 22.219 12.4788 20.8891 15.444 19.4384C18.6564 17.9877 21.8687 16.4161 25.2046 16.4161C26.6873 16.4161 28.0463 16.6579 29.2819 17.2624V4.44785C28.0463 3.72249 26.6873 3.23893 25.2046 3.23893C22.3629 3.23893 19.5212 4.56874 16.556 6.01944C13.3436 7.47014 10.1313 9.04174 6.67181 9.04174C5.18919 9.04174 3.83012 8.79996 2.59459 8.1955V21.01H2.71815Z" fill="#BA1919"/>
<path d="M6.79517 11.5813C6.05386 11.5813 5.4361 11.4604 4.81834 11.3395C4.44768 11.3395 4.20058 10.9767 4.32413 10.6139C4.32413 10.3721 4.69479 10.1302 5.06544 10.2512C6.91873 10.6139 9.01911 10.3721 11.4902 9.40472C11.8608 9.2838 12.1079 9.40472 12.2315 9.76748C12.355 10.1302 12.2315 10.3721 11.8608 10.493C10.0075 11.2185 8.2778 11.5813 6.79517 11.5813Z" fill="#BA1919"/>
<path d="M20.2627 6.86728C20.0156 6.86728 19.7685 6.74636 19.645 6.50452C19.5214 6.14176 19.645 5.89991 20.0156 5.77899C22.8573 4.81163 25.0813 4.44887 27.1816 4.93255C27.5523 5.05347 27.6759 5.29531 27.6759 5.65807C27.5523 6.02083 27.3052 6.14176 26.9345 6.14176C25.0813 5.77899 22.9809 6.02083 20.3863 6.9882C20.3863 6.86728 20.3863 6.86728 20.2627 6.86728Z" fill="#BA1919"/>
<path d="M6.79526 20.7691C6.05395 20.7691 5.43619 20.6482 4.81843 20.5273C4.44777 20.4063 4.32422 20.1645 4.32422 19.8017C4.44777 19.439 4.69487 19.3181 5.06553 19.3181C6.91881 19.6808 9.0192 19.439 11.6138 18.4716C11.9844 18.3507 12.2316 18.4716 12.3551 18.8344C12.4787 19.1971 12.3551 19.439 11.9844 19.5599C10.0076 20.4063 8.27789 20.7691 6.79526 20.7691Z" fill="#BA1919"/>
<path d="M20.2627 16.1752C20.0156 16.1752 19.7685 16.0543 19.645 15.8124C19.5214 15.4497 19.645 15.2078 20.0156 15.0869C22.8573 13.9986 25.0813 13.7568 27.1816 14.2405C27.5523 14.3614 27.6758 14.6032 27.6758 14.966C27.5523 15.3288 27.3052 15.4497 26.9345 15.4497C25.0813 15.0869 22.9809 15.3288 20.3863 16.2961C20.3863 16.0543 20.3863 16.1752 20.2627 16.1752Z" fill="#BA1919"/>
</g>
<defs>
<clipPath id="clip0">
<rect width="32" height="24.0575" fill="white" transform="translate(0 0.700195)"/>
</clipPath>
</defs>
</svg>
