<svg width="25" height="29" viewBox="0 0 25 29" fill="none" xmlns="http://www.w3.org/2000/svg">
<path d="M12.561 28.869C12.3171 28.869 11.9512 28.7502 11.8293 28.6314C10.4878 27.5622 0 18.652 0 12.2367C0 5.46492 5.60976 0 12.561 0C19.5122 0 25.122 5.46492 25.122 12.2367C25.122 18.652 14.6341 27.5622 13.4146 28.6314C13.0488 28.7502 12.8049 28.869 12.561 28.869ZM12.561 2.37605C6.95122 2.37605 2.43902 6.77175 2.43902 12.2367C2.43902 16.3948 9.14634 23.1665 12.561 26.1366C15.9756 23.1665 22.6829 16.3948 22.6829 12.2367C22.561 6.77175 18.0488 2.37605 12.561 2.37605Z" fill="#BA1919"/>
<path d="M12.5612 19.6023C8.41487 19.6023 5.00024 16.2758 5.00024 12.2365C4.87829 8.07842 8.29292 4.75195 12.5612 4.75195C16.7076 4.75195 20.1222 8.07842 20.1222 12.1177C20.1222 16.2758 16.7076 19.6023 12.5612 19.6023ZM12.5612 5.93998C9.02463 5.93998 6.0978 8.79124 6.0978 12.2365C6.0978 15.6818 8.90268 18.4142 12.4393 18.4142C15.9758 18.4142 18.7807 15.6818 18.7807 12.2365C18.9027 8.79124 15.9759 5.93998 12.5612 5.93998Z" fill="#BA1919"/>
<path d="M12.5614 8.19727C10.2443 8.19727 8.41504 9.9793 8.41504 12.2366C8.41504 14.4938 10.2443 16.2758 12.5614 16.2758C14.8785 16.2758 16.7077 14.4938 16.7077 12.2366C16.5858 9.9793 14.7565 8.19727 12.5614 8.19727Z" fill="#BA1919"/>
</svg>
