<svg width="30" height="29" viewBox="0 0 30 29" fill="none" xmlns="http://www.w3.org/2000/svg">
<path d="M15.0638 28.8691C11.1064 28.8691 7.2766 27.4012 4.46808 24.71C1.53191 21.8965 0 18.2267 0 14.4345C0 10.6424 1.53191 6.97262 4.34043 4.28143C7.2766 1.46792 10.9787 0 15.0638 0C19.0213 0 22.8511 1.46792 25.6596 4.1591C31.5319 9.78613 31.5319 18.9606 25.6596 24.5876C22.8511 27.2788 19.0213 28.8691 15.0638 28.8691ZM15.0638 2.44653C11.7447 2.44653 8.55319 3.6698 6.25532 5.994C3.82979 8.19588 2.55319 11.254 2.55319 14.4345C2.55319 17.615 3.82979 20.6732 6.25532 22.8751C8.55319 25.077 11.7447 26.4225 15.0638 26.4225C18.383 26.4225 21.5745 25.1993 23.8723 22.8751C28.7234 18.2267 28.7234 10.6424 23.8723 5.994C21.4468 3.6698 18.383 2.44653 15.0638 2.44653Z" fill="#BA1919"/>
<path d="M15.0636 23.3645C12.638 23.3645 10.2125 22.3859 8.55292 20.7956C6.76569 19.083 5.87207 16.8812 5.87207 14.557C5.87207 14.19 6.12739 13.9453 6.51037 13.9453C6.89335 13.9453 7.14867 14.19 7.14867 14.557C7.14867 16.6365 8.04228 18.5937 9.44654 19.9393C10.9785 21.4072 13.021 22.1412 15.0636 22.1412C19.5316 22.1412 23.1061 18.7161 23.1061 14.4346C23.1061 14.0677 23.3614 13.823 23.7444 13.823C24.1274 13.823 24.3827 14.0677 24.3827 14.4346C24.3827 19.3277 20.1699 23.3645 15.0636 23.3645Z" fill="#BA1919"/>
<path d="M10.7235 10.887C9.70221 10.887 8.80859 11.7435 8.80859 12.7223C8.80859 13.7011 9.70221 14.5576 10.7235 14.5576C11.7448 14.5576 12.6384 13.7011 12.6384 12.7223C12.6384 11.7435 11.7448 10.887 10.7235 10.887Z" fill="#BA1919"/>
<path d="M19.4042 10.887C18.3829 10.887 17.4893 11.7435 17.4893 12.7223C17.4893 13.7011 18.3829 14.5576 19.4042 14.5576C20.4254 14.5576 21.319 13.7011 21.319 12.7223C21.319 11.7435 20.4254 10.887 19.4042 10.887Z" fill="#BA1919"/>
</svg>
