<svg width="28" height="33" viewBox="0 0 28 33" fill="none" xmlns="http://www.w3.org/2000/svg">
<g clip-path="url(#clip0)">
<path d="M14.0676 23.4938C7.63699 23.4938 2.41211 18.1975 2.41211 11.679C2.41211 5.2963 7.63699 0 14.0676 0C20.4982 0 25.7231 5.2963 25.7231 11.8148C25.5891 18.1975 20.3643 23.4938 14.0676 23.4938ZM14.0676 2.71605C9.11067 2.71605 5.09154 6.79012 5.09154 11.8148C5.09154 16.8395 9.11067 20.9136 14.0676 20.9136C19.0245 20.9136 23.0437 16.8395 23.0437 11.8148C22.9097 6.79012 18.8906 2.71605 14.0676 2.71605Z" fill="#BA1919"/>
<path d="M14.0677 18.4694C10.4505 18.4694 7.36914 15.4818 7.36914 11.6793C7.36914 8.01262 10.3165 4.88916 14.0677 4.88916C17.8189 4.88916 20.7663 7.87682 20.7663 11.6793C20.6323 15.4818 17.6849 18.4694 14.0677 18.4694ZM14.0677 6.38299C11.1203 6.38299 8.70885 8.82743 8.70885 11.8151C8.70885 14.8027 11.1203 17.2472 14.0677 17.2472C17.0151 17.2472 19.4266 14.8027 19.4266 11.8151C19.2926 8.82743 17.0151 6.38299 14.0677 6.38299Z" fill="#BA1919"/>
<path d="M8.30662 33C7.9047 33 7.36882 32.7284 7.23485 32.321L5.22528 29.0618H1.34011C0.804225 29.0618 0.402311 28.7902 0.26834 28.3828C0.000397168 27.9754 0.000397168 27.4321 0.26834 27.0247L5.22528 18.0618C5.62719 17.3828 6.43102 17.1112 7.10088 17.5186C7.77073 17.926 8.03867 18.7408 7.63676 19.4198L3.75159 26.4815H6.02911C6.43102 26.4815 6.83293 26.7531 7.10088 27.1605L8.30662 29.0618L12.0578 22C12.4597 21.321 13.2636 21.0494 13.9334 21.4568C14.6033 21.8642 14.8712 22.6791 14.4693 23.3581L9.51236 32.321C9.24442 32.7284 8.8425 33 8.30662 33Z" fill="#BA1919"/>
<path d="M19.6943 33C19.1584 33 18.7565 32.7284 18.4885 32.321L13.5316 23.3581C13.1297 22.6791 13.3976 21.8642 14.0675 21.4568C14.7374 21.0494 15.5412 21.321 15.9431 22L19.8283 29.0618L21.034 27.1605C21.3019 26.7531 21.7039 26.6173 22.1058 26.4815H24.3833L20.4981 19.4198C20.0962 18.7408 20.3641 17.926 21.034 17.5186C21.7039 17.1112 22.5077 17.3828 22.9096 18.0618L27.8665 27.0247C28.1345 27.4321 28.1345 27.9754 27.8665 28.3828C27.5986 28.7902 27.1967 29.0618 26.7948 29.0618L23.0436 29.1976L20.9 32.4568C20.6321 32.7284 20.0962 33 19.6943 33Z" fill="#BA1919"/>
</g>
<defs>
<clipPath id="clip0">
<rect width="28" height="33" fill="white"/>
</clipPath>
</defs>
</svg>
