<svg xmlns="http://www.w3.org/2000/svg"
 xmlns:xlink="http://www.w3.org/1999/xlink"
 width="114px" height="30px"  viewBox="0 0 114 30">
<path fill-rule="evenodd"  fill="#bb9c66"
 d="M111.71838,20.758163 C111.54254,20.74105 111.38031,20.83886 111.23108,21.05312 C111.08142,21.267078 110.96295,21.437325 110.87537,21.56203 C110.418396,22.187092 109.96625,22.82988 109.518616,23.490395 C109.070496,24.151215 108.57379,24.76802 108.02966,25.339592 C107.906555,25.463993 107.77008,25.602455 107.62128,25.754364 C107.47156,25.906578 107.30884,26.04015 107.13385,26.15599 C106.95776,26.27214 106.77789,26.361694 106.593445,26.42405 C106.40906,26.486706 106.220215,26.490986 106.026855,26.437191 C105.833496,26.384312 105.732544,26.240963 105.72394,26.008667 C105.714905,25.776981 105.74597,25.518093 105.81622,25.232002 C105.88617,24.946217 105.97455,24.673882 106.07965,24.414993 C106.18506,24.156105 106.26434,23.981579 106.31665,23.892326 C106.45734,23.571087 106.610596,23.249538 106.77789,22.927994 C106.94464,22.60706 107.12451,22.2849 107.31824,21.963661 C107.9328,20.89204 108.62659,19.829594 109.400024,18.776009 C109.59302,18.52629 109.78601,18.280544 109.97974,18.039387 C110.17273,17.79792 110.37463,17.553093 110.58557,17.302761 C110.72583,17.12365 110.90155,16.922836 111.11255,16.700016 C111.323425,16.47689 111.4375,16.240314 111.4552,15.989983 C111.47235,15.73996 111.39343,15.5798 111.21808,15.507969 C111.04224,15.436752 110.85779,15.427277 110.66443,15.480461 C109.99689,15.677914 109.33789,15.811176 108.68823,15.883312 C108.185486,15.938023 107.69379,15.847855 107.2124,15.614948 C106.76062,15.364315 106.378784,14.771957 105.89142,15.486576 C105.809875,15.584076 105.732056,15.697475 105.65814,15.828907 C105.560486,15.993042 105.433655,16.395584 105.31256,16.853455 C105.31207,16.855286 105.31134,16.85712 105.31067,16.85926 C104.50659,19.441109 98.9339,26.892612 96.435974,26.892612 C95.928894,26.892612 95.55597,26.70372 95.28076,26.406319 C95.21484,26.325626 95.153564,26.240963 95.105286,26.142235 C94.990845,25.911163 94.92944,25.655945 94.92084,25.379326 C94.91144,25.103016 94.95111,24.82151 95.03943,24.535725 C95.16199,24.089169 95.315796,23.727581 95.50055,23.450356 C95.685,23.173737 95.89966,22.946026 96.14606,22.767525 C96.391785,22.589024 96.677124,22.437725 97.00226,22.311798 C97.32721,22.187092 97.69153,22.044044 98.095764,21.882965 C98.44696,21.740837 98.85095,21.56203 99.30786,21.347466 C99.76453,21.133202 100.2171,20.878593 100.664795,20.583942 C101.11279,20.2896 101.53436,19.968052 101.92963,19.619915 C102.32507,19.27147 102.64142,18.896435 102.87854,18.494198 C103.11566,18.093182 103.2514,17.664043 103.28693,17.208622 C103.321655,16.753506 103.2077,16.284634 102.944214,15.802315 C102.697815,15.338028 102.16235,15.150661 101.336914,15.239914 C100.58136,15.329468 99.83893,15.529976 99.11047,15.842659 C98.3811,16.155037 97.70941,16.534351 97.094604,16.980911 C96.09338,17.695526 95.23688,18.531181 94.52557,19.485733 C93.84448,20.400246 93.276,21.38567 92.812256,22.43834 C92.63837,22.682556 92.4599,22.919128 92.27258,23.142258 C91.973755,23.49987 91.67035,23.83456 91.3634,24.14724 C91.05597,24.459312 90.75293,24.77658 90.45416,25.098125 C90.155334,25.401333 89.85693,25.700264 89.55847,25.995522 C89.25958,26.289562 88.90839,26.508713 88.504395,26.652065 C88.363525,26.687214 88.22772,26.696384 88.09601,26.678352 C87.96448,26.660622 87.898254,26.562813 87.898254,26.384312 C87.91589,26.169746 87.96857,25.955177 88.0564,25.740608 C88.19708,25.348152 88.35492,24.968834 88.53064,24.60205 C88.706116,24.236797 88.89984,23.87521 89.11035,23.517597 C89.61987,22.60706 90.12067,21.691628 90.61224,20.771614 C91.104126,19.8516 91.631165,18.936783 92.19336,18.02563 C92.75543,17.133125 93.29541,16.23573 93.81384,15.333748 C94.33185,14.432381 94.837036,13.508087 95.32892,12.5611725 C95.62775,12.025669 95.92615,11.48925 96.224976,10.953747 C96.5235,10.418243 96.84845,9.900467 97.20001,9.400114 C97.35785,9.185547 97.51605,8.962725 97.674194,8.7301235 C97.8324,8.49844 97.97711,8.252693 98.10889,7.9931946 C98.240845,7.7349186 98.34155,7.471447 98.41211,7.203083 C98.48212,6.9356365 98.49103,6.6672745 98.438354,6.399523 C98.36804,6.0244865 98.20984,5.8462906 97.96411,5.8640194 C97.71808,5.8820534 97.46332,5.917202 97.20001,5.971302 C97.04181,6.007065 96.86597,6.0159283 96.673096,5.9981995 C96.47937,5.9804726 96.28186,5.9758873 96.079895,5.9844456 C95.87799,5.9939213 95.68915,6.0208187 95.51367,6.0648327 C95.33783,6.109764 95.188354,6.2029877 95.06555,6.3463383 C94.977356,6.4533176 94.93799,6.5829144 94.94708,6.734823 C94.95563,6.886732 94.95111,7.0254993 94.93396,7.1495934 C94.89844,7.3287067 94.858765,7.493759 94.81549,7.645363 C94.77124,7.7972717 94.71399,7.9449024 94.64404,8.087948 C94.50311,8.408577 94.34076,8.713007 94.15637,8.997875 C93.971924,9.283966 93.79181,9.57892 93.61633,9.882435 C93.28241,10.454309 92.95282,11.029854 92.628235,11.610289 C92.30292,12.190418 91.982666,12.766876 91.66632,13.337837 C91.47296,13.69545 91.27997,14.057037 91.08661,14.422905 C90.89325,14.789383 90.673645,15.132629 90.42798,15.454174 C90.28729,15.63298 90.17334,15.762272 90.08545,15.842659 C89.9975,15.923046 89.90967,15.96278 89.82214,15.96278 C89.733826,15.96278 89.63739,15.927326 89.53223,15.855804 C89.4267,15.784893 89.29474,15.69503 89.1369,15.588051 C88.80292,15.35606 88.42969,15.244194 88.01672,15.253056 C87.60388,15.262531 87.1911,15.333748 86.7785,15.46793 C86.36554,15.601501 85.9657,15.7757225 85.579346,15.989983 C85.193115,16.204247 84.85913,16.40995 84.57825,16.605873 C83.6297,17.267002 82.72058,18.043968 81.85095,18.936783 C81.11426,19.693882 80.49451,20.504475 79.97833,21.363663 C79.917786,21.460861 79.869934,21.535133 79.835144,21.588318 C79.58911,21.981693 79.325745,22.356728 79.0448,22.71373 C78.76355,23.071651 78.473755,23.428345 78.17529,23.785347 C77.82373,24.196144 77.472534,24.58891 77.12134,24.964558 C76.769775,25.339592 76.40076,25.714016 76.01471,26.089054 C75.94403,26.142235 75.84747,26.222622 75.724915,26.329906 C75.60181,26.437191 75.46985,26.540195 75.32953,26.638004 C75.18848,26.737038 75.04828,26.808254 74.90808,26.852268 C74.76697,26.897198 74.64441,26.892612 74.53894,26.838818 C74.398254,26.768211 74.32825,26.660622 74.32825,26.517883 C74.32825,26.37484 74.34558,26.249825 74.3811,26.142235 C74.5213,25.518093 74.76697,24.928185 75.11865,24.374954 C75.46985,23.821415 75.80371,23.285912 76.11975,22.767525 C76.277954,22.517502 76.42731,22.267784 76.56787,22.017456 C76.708496,21.767124 76.848694,21.517712 76.98938,21.267078 C77.48126,20.409721 77.96442,19.557564 78.4386,18.709068 C78.91333,17.860886 79.42218,17.025536 79.9671,16.204247 C80.00189,16.151062 80.04602,16.079235 80.098816,15.989983 C80.15155,15.900429 80.19537,15.815762 80.23047,15.73568 C80.265625,15.654991 80.27417,15.570629 80.25702,15.480461 C80.23901,15.391823 80.18671,15.320301 80.098816,15.266506 C79.95819,15.177254 79.817505,15.164112 79.67731,15.2267685 C79.536316,15.289124 79.39612,15.320301 79.25543,15.320301 C78.956604,15.338028 78.64508,15.338028 78.32013,15.320301 C77.995056,15.302879 77.70105,15.346893 77.43738,15.454174 C77.22687,15.544037 77.068665,15.677914 76.963135,15.855804 C76.92761,15.892174 76.86182,15.985706 76.76575,16.137005 C76.66882,16.288914 76.62915,16.383053 76.647156,16.418205 C76.5061,16.222282 76.387634,16.016575 76.2912,15.802315 C76.19464,15.588051 76.023315,15.4453125 75.77765,15.373787 C75.61932,15.320301 75.456726,15.284233 75.28992,15.266506 C75.12268,15.249084 74.96045,15.231354 74.80261,15.2130165 C74.45093,15.2130165 74.112854,15.275978 73.7879,15.400688 C73.46295,15.5257 73.142395,15.651016 72.826355,15.7757225 C72.43964,15.918461 72.07532,16.088406 71.73273,16.284634 C71.39014,16.481476 71.05182,16.68626 70.71814,16.900524 C70.489624,17.061909 70.270386,17.222069 70.05951,17.382843 C69.84851,17.543617 69.646545,17.713558 69.45355,17.892365 C68.75049,18.51712 68.127014,19.195362 67.58246,19.927708 C67.266785,20.352257 66.96649,20.792091 66.674805,21.240486 C66.58728,21.365498 66.509094,21.477673 66.44995,21.56203 C65.99292,22.187092 65.54077,22.82988 65.09314,23.490395 C64.64502,24.151215 64.14838,24.76802 63.604187,25.339592 C63.4812,25.463993 63.344666,25.602455 63.1958,25.754364 C63.046204,25.906578 62.883484,26.04015 62.708496,26.15599 C62.532288,26.27214 62.352417,26.361694 62.16809,26.42405 C61.983704,26.486706 61.79486,26.490986 61.6015,26.437191 C61.408142,26.384312 61.307068,26.240963 61.298462,26.008667 C61.28949,25.776981 61.320496,25.518093 61.39087,25.232002 C61.460815,24.946217 61.54901,24.673882 61.654175,24.414993 C61.759705,24.156105 61.83893,23.981579 61.891296,23.892326 C62.031982,23.571087 62.18524,23.249538 62.352417,22.927994 C62.519287,22.60706 62.699158,22.2849 62.892883,21.963661 C63.507263,20.89204 64.20123,19.829594 64.97449,18.776009 C65.16754,18.52629 65.360535,18.280544 65.55426,18.039387 C65.74725,17.79792 65.94916,17.553093 66.16016,17.302761 C66.300354,17.12365 66.4762,16.922836 66.687195,16.700016 C66.89807,16.47689 67.012146,16.240314 67.02966,15.989983 C67.046875,15.73996 66.96808,15.5798 66.7926,15.507969 C66.61676,15.436752 66.432434,15.427277 66.239075,15.480461 C65.57153,15.677914 64.912415,15.811176 64.26282,15.883312 C63.760254,15.938023 63.26837,15.847855 62.78705,15.614948 C62.335205,15.364315 61.95337,14.771957 61.466064,15.486576 C61.38452,15.584076 61.3067,15.697475 61.232666,15.828907 C61.13501,15.993042 61.00818,16.395584 60.887085,16.853455 C60.88672,16.855286 60.885986,16.85712 60.885254,16.85926 C60.081116,19.441109 55.298767,26.410294 52.800842,26.410294 C52.677734,26.410294 52.562195,26.398373 52.450745,26.379421 C52.367798,26.356194 52.290283,26.3241 52.22101,26.27703 C52.06299,26.169746 51.948547,26.008667 51.87854,25.794403 C51.808228,25.58014 51.816772,25.32156 51.904663,25.017433 C51.992615,24.625282 52.132812,24.249634 52.32666,23.892326 C52.51953,23.535324 52.730164,23.186882 52.958557,22.847912 C53.854797,21.526272 54.706665,20.195457 55.514526,18.8567 C56.32245,17.517025 57.13922,16.168488 57.965393,14.811081 C58.14087,14.507568 58.334106,14.244404 58.545105,14.020969 C58.755615,13.797844 59.045532,13.685974 59.41461,13.685974 C59.677917,13.668858 59.963318,13.681694 60.270752,13.726322 C60.578186,13.7709465 60.854553,13.722042 61.101074,13.578995 C61.223694,13.508087 61.329224,13.364124 61.417053,13.150471 C61.504944,12.936516 61.48706,12.775131 61.36438,12.668457 C61.25879,12.596935 61.131348,12.556892 60.982544,12.5474205 C60.832825,12.538555 60.67462,12.538555 60.507874,12.5474205 C60.341064,12.556892 60.17871,12.565453 60.020508,12.574318 C59.862366,12.583485 59.730713,12.570648 59.625244,12.533665 C59.76593,12.034534 60.00299,11.556494 60.336914,11.101376 C60.670105,10.645954 60.960022,10.203674 61.206543,9.774845 C61.434265,9.382692 61.667175,8.997875 61.904785,8.623146 C62.141846,8.24811 62.330444,7.855652 62.47101,7.4442425 C62.540955,7.2663536 62.61609,7.065233 62.695007,6.8418007 C62.774292,6.618675 62.76941,6.417557 62.682007,6.2390556 C62.540955,5.989336 62.339294,5.8686028 62.07605,5.877163 C61.812378,5.8866367 61.575256,5.909256 61.36438,5.9444046 C61.188538,5.9804726 60.995544,5.989336 60.784668,5.971302 C60.574158,5.95327 60.36316,5.9444046 60.15216,5.9444046 C59.94165,5.9444046 59.73932,5.9624386 59.546326,5.9981995 C59.352966,6.033657 59.18622,6.1048737 59.045532,6.2124634 C58.922485,6.319441 58.821533,6.458208 58.742493,6.627846 C58.663696,6.7971764 58.593018,6.9759827 58.531616,7.163042 C58.46997,7.3507137 58.413147,7.5380783 58.36029,7.72575 C58.307983,7.9134197 58.25531,8.078777 58.202454,8.221518 C58.04431,8.596554 57.872986,8.962725 57.688538,9.319422 C57.504272,9.677036 57.31494,10.034954 57.12207,10.390734 C57.0166,10.587879 56.90216,10.797558 56.77948,11.020683 C56.65631,11.243811 56.516113,11.458685 56.35797,11.663776 C56.199768,11.869175 56.023926,12.043705 55.830933,12.185833 C55.637573,12.329182 55.41809,12.418434 55.172302,12.454502 C55.04889,12.471924 54.886658,12.467033 54.68463,12.440441 C54.482788,12.413849 54.280396,12.404678 54.078796,12.413849 C53.876343,12.423019 53.692078,12.463669 53.52527,12.533665 C53.358032,12.605797 53.257446,12.739674 53.22229,12.936516 C53.18689,13.150471 53.239563,13.293518 53.380554,13.364124 C53.520752,13.436256 53.68756,13.476604 53.88092,13.485466 C54.0744,13.494331 54.276184,13.502888 54.487183,13.511753 C54.697693,13.520924 54.855896,13.570133 54.961426,13.659382 C54.83838,13.712566 54.74597,13.8116 54.68463,13.953728 C54.622986,14.097382 54.5661,14.221783 54.513306,14.329067 C54.35547,14.615158 54.144592,14.9183655 53.88092,15.239914 C53.03784,16.40078 52.23413,17.596802 51.470154,18.829803 C50.890076,19.765404 50.346558,20.71415 49.82196,21.670845 C49.814087,21.67818 49.80359,21.688572 49.796448,21.695602 C49.49768,22.034878 49.238403,22.401352 49.019287,22.794422 C48.799377,23.186882 48.548767,23.561916 48.26831,23.919529 C48.02191,24.2585 47.767517,24.58891 47.50415,24.910458 C47.24048,25.232002 46.94171,25.526653 46.608032,25.794403 C46.362,25.990936 46.116333,26.174023 45.87018,26.343662 C45.624084,26.513298 45.34326,26.60744 45.02722,26.625168 C44.710815,26.660622 44.473633,26.557922 44.315796,26.316765 C44.157593,26.075603 44.034546,25.8213 43.946716,25.553246 C43.841187,25.303219 43.783997,25.026604 43.77539,24.723091 C43.766357,24.419273 43.753357,24.124622 43.736084,23.838531 C43.736084,23.428345 43.74475,23.0582 43.762268,22.72718 C43.779602,22.397076 43.92047,22.06208 44.183838,21.722195 C44.640503,21.11578 45.119263,20.499584 45.620056,19.874218 C46.120728,19.249157 46.70453,18.749111 47.372192,18.374077 C47.530396,18.302551 47.697144,18.231335 47.872986,18.159813 C48.04834,18.088291 48.224182,18.039387 48.400024,18.012184 C48.57538,17.985592 48.746704,17.998734 48.91382,18.052834 C49.080566,18.106323 49.23401,18.213303 49.374878,18.374077 C49.515198,18.570915 49.651733,18.66475 49.783325,18.655582 C49.91504,18.646412 50.068726,18.570915 50.244568,18.427563 C50.384705,18.302551 50.538513,18.110603 50.705627,17.85202 C50.872437,17.593132 51.00415,17.311932 51.100952,17.007504 C51.197144,16.703987 51.241272,16.414536 51.232666,16.137005 C51.223633,15.86039 51.114075,15.641541 50.9032,15.480461 C50.656982,15.284233 50.371765,15.195595 50.04663,15.2130165 C49.721558,15.231354 49.43628,15.284233 49.19049,15.373787 C48.803894,15.516834 48.43506,15.73996 48.083862,16.043472 C47.468628,16.543827 46.919678,17.106533 46.436768,17.730675 C45.953613,18.356651 45.457336,18.972847 44.948303,19.579567 C44.82495,19.722614 44.706177,19.856796 44.592224,19.981197 C44.477783,20.106514 44.36859,20.24039 44.263123,20.383434 C44.157593,20.526482 44.08728,20.579971 44.052124,20.543598 C44.016663,20.508446 44.0036,20.432644 44.012512,20.316193 C44.021606,20.200043 44.039124,20.070446 44.065186,19.927708 C44.091797,19.784966 44.10492,19.686852 44.10492,19.633057 C44.174744,19.169079 44.289307,18.713348 44.44751,18.267097 C44.605713,17.820538 44.772095,17.374287 44.948303,16.927727 C44.965454,16.85651 45.00067,16.762981 45.053345,16.646526 C45.10614,16.530071 45.14569,16.40995 45.171936,16.284634 C45.198547,16.159317 45.207092,16.043472 45.198547,15.936497 C45.189453,15.828907 45.13263,15.748825 45.02722,15.69503 C44.921753,15.624424 44.798584,15.601501 44.658386,15.62809 C44.517395,15.654991 44.394836,15.677914 44.289307,15.69503 C44.095947,15.731098 43.902588,15.875671 43.709595,15.892788 C43.516113,15.911125 43.322876,16.036446 43.129883,16.036446 C42.989197,16.036446 42.83557,16.036446 42.668762,16.036446 C42.501526,16.036446 42.365784,15.964615 42.260376,16.053558 C42.22522,16.089626 42.203064,16.08871 42.194458,16.169098 C42.185486,16.24887 42.16382,16.286774 42.128662,16.340569 C41.98761,16.679844 41.821228,16.996193 41.62787,17.317432 C41.43451,17.638676 41.24164,17.944023 41.048157,18.247536 C40.85492,18.586807 40.6532,18.917831 40.44232,19.248241 C40.231323,19.578957 40.011475,19.902645 39.78369,20.22419 C39.64264,20.421032 39.489014,20.608395 39.32257,20.78598 C39.155334,20.964787 39.019226,21.169575 38.914185,21.401566 C38.912292,21.406456 38.911194,21.413792 38.909668,21.418068 C38.902832,21.426628 38.894287,21.433044 38.887573,21.4413 C38.799255,21.557446 38.737976,21.651588 38.703186,21.722195 C38.404297,22.22316 38.08795,22.696613 37.75476,23.142258 C37.420715,23.589119 37.06952,24.044235 36.70044,24.508827 C36.559814,24.668991 36.42816,24.82151 36.305542,24.964558 C36.182007,25.10699 36.050415,25.25829 35.910217,25.419369 C35.751892,25.563026 35.602295,25.714016 35.462097,25.87418 C35.321472,26.03587 35.16327,26.187473 34.987915,26.329906 C34.846863,26.437191 34.689026,26.557922 34.51367,26.692104 C34.33783,26.825676 34.153076,26.866634 33.960205,26.812225 C33.573364,26.741314 33.555847,26.232403 33.90741,25.285187 C34.17096,24.570877 34.504272,23.901802 34.90851,23.27613 C35.347656,22.597889 35.756104,21.892746 36.134216,21.160099 C36.511536,20.428673 36.928528,19.722614 37.38568,19.044067 C37.64923,18.650997 37.921143,18.213303 38.202393,17.730675 C38.325012,17.517025 38.45294,17.302761 38.584656,17.088501 C38.71631,16.873932 38.808655,16.650806 38.86139,16.418205 C38.89618,16.311226 38.931335,16.186214 38.96649,16.043472 C39.001648,15.900429 39.019226,15.771137 39.019226,15.654991 C39.019226,15.539146 38.988586,15.440727 38.927307,15.360645 C38.86554,15.279953 38.74695,15.239914 38.571594,15.239914 C38.395752,15.239914 38.224426,15.253056 38.05768,15.279953 C37.890503,15.306545 37.71924,15.311131 37.543762,15.293404 C37.38568,15.275978 37.227356,15.262531 37.06952,15.253056 C36.911316,15.244194 36.753174,15.257946 36.595337,15.293404 C36.36682,15.329468 36.16449,15.382957 35.989014,15.454174 C35.865967,15.5257 35.78705,15.596916 35.751892,15.668743 C35.71637,15.73996 35.672974,15.838379 35.6203,15.96278 C35.602295,15.999458 35.571655,16.06976 35.527893,16.17735 C35.483826,16.284634 35.444458,16.40078 35.4093,16.525795 C35.16327,17.311932 34.829712,18.056808 34.408203,18.762253 C33.986633,19.468006 33.56476,20.160004 33.14337,20.83886 C32.844543,21.356632 32.54602,21.820919 32.247498,22.231411 C32.018982,22.55265 31.790588,22.874504 31.562439,23.196358 C31.333923,23.517597 31.096802,23.83028 30.851074,24.133488 C30.710083,24.311989 30.57837,24.495075 30.455688,24.682747 C30.332642,24.87011 30.192078,25.044025 30.034302,25.205105 C29.928772,25.312084 29.761536,25.49089 29.533447,25.740608 C29.30481,25.990936 29.049866,26.222622 28.769348,26.437191 C28.48816,26.652065 28.21991,26.803669 27.965637,26.892612 C27.71051,26.98278 27.504395,26.901783 27.346252,26.652065 C27.223206,26.455528 27.2146,26.21437 27.32013,25.92828 C27.425598,25.6428 27.521729,25.401333 27.609924,25.205105 C27.85559,24.705364 28.12384,24.227322 28.413635,23.772205 C28.703552,23.316174 28.997498,22.857388 29.296265,22.39249 C29.594727,21.927898 29.871582,21.463917 30.12616,20.99963 C30.380554,20.535038 30.648682,20.070446 30.92987,19.605854 C31.17572,19.195362 31.421387,18.780594 31.667786,18.360626 C31.913635,17.941883 32.124146,17.499298 32.300293,17.034706 C32.37018,16.83817 32.44507,16.597012 32.523987,16.311226 C32.60321,16.02605 32.598816,15.784893 32.510864,15.588051 C32.475708,15.480461 32.400818,15.41016 32.286865,15.373787 C32.172424,15.338028 32.045227,15.3248825 31.90503,15.333748 C31.763977,15.342918 31.623718,15.360645 31.483154,15.387238 C31.342468,15.41383 31.237,15.427277 31.166992,15.427277 C30.938477,15.427277 30.714478,15.41016 30.494873,15.373787 C30.275452,15.338028 30.051453,15.346893 29.823303,15.400688 C29.524414,15.47221 29.370728,15.614948 29.362183,15.828907 C29.353088,16.043472 29.322449,16.275768 29.269775,16.525795 C29.23462,16.703987 29.18634,16.869957 29.125061,17.021255 C29.063293,17.17347 28.988464,17.329353 28.90094,17.489517 C28.70758,17.90123 28.492554,18.29369 28.255432,18.668724 C28.01831,19.044067 27.7854,19.419102 27.557251,19.794136 C27.311035,20.222664 27.056396,20.646603 26.79309,21.065956 C26.568054,21.425098 26.3526,21.779045 26.140076,22.131157 C26.155457,22.04802 26.174133,21.966717 26.186462,21.882965 C26.221619,21.633553 26.243286,21.293976 26.252747,20.865448 C26.261292,20.436924 26.234741,20.00901 26.17334,19.579567 C26.111694,19.150738 25.993103,18.767143 25.817749,18.427563 C25.641907,18.088291 25.387268,17.883198 25.05371,17.811367 C24.79004,17.740456 24.622742,17.811367 24.552917,18.02563 C24.482605,18.240505 24.464966,18.436733 24.500122,18.615234 C24.60559,19.240295 24.662476,19.824703 24.671387,20.369682 C24.679993,20.914967 24.587952,21.49968 24.39508,22.124126 C24.254028,22.571297 24.087158,23.044754 23.894287,23.54419 C23.700928,24.044235 23.4682,24.513412 23.195923,24.950497 C22.92334,25.388496 22.598694,25.76781 22.220947,26.089054 C21.84314,26.410294 21.390991,26.615997 20.864075,26.70525 C20.407043,26.777077 19.954895,26.781662 19.506775,26.718391 C19.059143,26.656036 18.615234,26.557922 18.176147,26.42405 C17.737,26.289562 17.302002,26.138264 16.871887,25.968624 C16.441101,25.799294 16.015503,25.6428 15.593994,25.499756 C15.505737,25.463993 15.387146,25.43251 15.238281,25.406223 C15.088745,25.379326 14.944031,25.343872 14.803406,25.298943 C14.66272,25.25462 14.540039,25.196243 14.434692,25.125023 C14.329163,25.053501 14.285034,24.946217 14.3029175,24.803173 C14.320129,24.625282 14.425598,24.454727 14.6189575,24.294567 C14.811951,24.133488 14.970154,23.991055 15.093323,23.865429 C15.391663,23.561916 15.668335,23.232117 15.923462,22.874504 C16.177856,22.517502 16.4281,22.1605 16.6745,21.803192 C17.078003,21.231316 17.464722,20.642323 17.833923,20.034992 C18.202637,19.428272 18.536316,18.793736 18.835022,18.132915 C18.940674,17.883198 19.036621,17.624004 19.124939,17.35625 C19.212463,17.088501 19.388306,16.883102 19.651855,16.740055 C20.10852,16.489727 20.58728,16.24887 21.088074,16.016575 C21.588562,15.784893 22.076233,15.544037 22.550415,15.293404 C23.551697,14.793659 24.50415,14.190914 25.409302,13.485466 C26.313965,12.780022 27.170166,12.034534 27.978394,11.248701 C28.382263,10.837599 28.768982,10.418243 29.137695,9.9897175 C29.506897,9.560886 29.858093,9.114023 30.19165,8.650349 C30.437805,8.346224 30.666199,8.033541 30.876831,7.7126064 C31.087708,7.391365 31.2807,7.06065 31.456543,6.7210693 C31.649902,6.3289165 31.80774,5.8640194 31.930786,5.3279037 C32.053467,4.7927055 32.08899,4.279209 32.036255,3.7880268 C31.98346,3.2968426 31.812256,2.8634262 31.522339,2.488697 C31.232422,2.1136608 30.789001,1.8905354 30.19165,1.8187065 C29.278381,1.7297611 28.351624,1.8685284 27.41217,2.234394 C26.471802,2.6005669 25.6333,3.0339813 24.895386,3.5334167 C23.894287,4.1939335 22.96289,4.97946 22.102417,5.8906097 C21.241394,6.8017616 20.459717,7.7483673 19.757385,8.7301235 C19.317932,9.319422 18.914062,9.927364 18.545227,10.552118 C18.176147,11.177177 17.815918,11.811102 17.464722,12.454502 C17.289001,12.775131 17.122131,13.096676 16.964294,13.4185295 C16.806213,13.739464 16.647888,14.060707 16.489685,14.382862 C16.3667,14.632889 16.239502,14.887497 16.10791,15.146385 C15.976257,15.405579 15.822144,15.624424 15.6466675,15.802315 C15.470947,15.981426 15.259949,16.110413 15.014282,16.1908 C14.768188,16.271187 14.4782715,16.266907 14.144775,16.17735 C13.424377,15.981426 12.809631,15.659267 12.300232,15.2130165 C11.790344,14.766762 11.395447,14.244404 11.114563,13.645935 C10.833374,13.048386 10.662048,12.404678 10.600647,11.717266 C10.539001,11.029854 10.596252,10.337856 10.771973,9.6412735 C10.9122925,9.034859 11.1449585,8.448618 11.470276,7.8865223 C11.794922,7.3244267 12.190186,6.828354 12.655823,6.399523 C13.121094,5.971302 13.643921,5.6274433 14.223694,5.368557 C14.803406,5.1096687 15.418274,4.97946 16.068176,4.97946 C16.190979,4.97946 16.397705,5.0112476 16.687622,5.073906 C16.977417,5.136261 17.262817,5.172022 17.544006,5.1808853 C17.824524,5.190056 18.057556,5.153988 18.24231,5.073906 C18.426636,4.9935207 18.474915,4.801876 18.387024,4.497751 C18.298828,4.2303047 18.140991,4.046913 17.912842,3.948494 C17.684326,3.8506851 17.429565,3.7926102 17.148682,3.774273 C16.867493,3.756544 16.586182,3.7657127 16.305298,3.8011703 C16.024109,3.8375416 15.795532,3.8641338 15.620178,3.8818626 C14.671753,4.024601 13.766602,4.310692 12.906372,4.7389107 C12.168518,5.113947 11.478882,5.5736485 10.837891,6.1186275 C10.196411,6.6632996 9.647339,7.274912 9.191101,7.9534607 C8.8396,8.471848 8.532166,9.0565605 8.268799,9.708517 C8.005127,10.360168 7.873535,11.0072365 7.873535,11.6500225 C7.873535,12.489651 7.9920044,13.284348 8.229126,14.03442 C8.466309,14.7844925 8.90979,15.4453125 9.559937,16.016575 C9.911011,16.338123 10.3064575,16.605873 10.745483,16.820442 C11.18457,17.034706 11.641602,17.204952 12.115784,17.329353 C12.554871,17.436333 12.998413,17.485847 13.446533,17.476986 C13.894531,17.467815 14.329163,17.507854 14.750671,17.596802 C14.768188,17.596802 14.715515,17.73587 14.592834,18.012184 C14.469727,18.289715 14.329163,18.597813 14.170959,18.936783 C14.013123,19.27636 13.863525,19.597603 13.723206,19.901115 C13.582214,20.204628 13.503418,20.383434 13.486145,20.436924 C13.204895,21.008495 12.9105835,21.575481 12.603149,22.137882 C12.295715,22.699978 11.913757,23.21378 11.457153,23.678371 C11.246277,23.892326 11.022156,23.99533 10.785095,23.98647 C10.547974,23.977299 10.288452,23.945816 10.007935,23.892326 C9.375549,23.785347 8.716553,23.731552 8.031677,23.731552 C7.3464966,23.731552 6.6879883,23.77618 6.05542,23.865429 C5.651184,23.919529 5.260315,23.964157 4.8826904,23.99961 C4.5047607,24.03629 4.1140137,24.124622 3.710144,24.26767 C3.3585815,24.392681 3.0205078,24.554066 2.6957397,24.749989 C2.3704224,24.946217 2.1071167,25.178207 1.9051514,25.446266 C1.7032471,25.714016 1.5891724,26.008667 1.562561,26.329906 C1.536438,26.652065 1.6549683,27.009068 1.9182739,27.401524 C2.251831,27.883537 2.6779175,28.183384 3.196228,28.299225 C3.7142944,28.41568 4.2369995,28.499733 4.764038,28.553528 C5.2386475,28.58929 5.6949463,28.593876 6.1343384,28.567284 C6.573059,28.540386 7.021057,28.482311 7.4782104,28.393063 C7.9699707,28.286083 8.448669,28.161072 8.914307,28.018028 C9.379578,27.875591 9.832092,27.69648 10.271179,27.48191 C10.675171,27.285988 11.057373,27.133774 11.41748,27.02649 C11.777344,26.919205 12.185791,26.93785 12.6427,27.08059 C13.204895,27.276817 13.744934,27.48191 14.263367,27.69648 C14.781311,27.910744 15.330261,28.062653 15.910095,28.151901 C16.3667,28.223427 16.836487,28.314816 17.320007,28.377167 C17.802795,28.440132 18.281555,28.495457 18.755737,28.495457 C18.755737,28.495457 18.782349,28.495457 18.782349,28.495457 C19.78357,28.495457 20.745483,28.221287 21.667786,27.828217 C22.58966,27.435452 23.402039,26.869385 24.105164,26.155075 C24.215881,26.032814 24.317932,25.899548 24.420837,25.773006 C24.409607,25.827415 24.391602,25.877235 24.381836,25.93103 C24.30304,26.35986 24.316162,26.796638 24.42157,27.24289 C24.45636,27.422005 24.531067,27.617012 24.645508,27.830967 C24.759644,28.04523 24.895874,28.19714 25.053955,28.286388 C25.14154,28.339573 25.22528,28.384502 25.3042,28.420265 C25.383057,28.455719 25.466553,28.491482 25.554382,28.52694 C25.747742,28.598461 25.96283,28.629639 26.19989,28.620773 C26.4375,28.611298 26.652039,28.58929 26.845886,28.553528 C27.179077,28.482311 27.486877,28.343548 27.767761,28.138454 C28.048584,27.933056 28.32135,27.732548 28.5849,27.535706 C29.059143,27.160366 29.533447,26.714417 30.00769,26.196335 C30.165894,26.053291 30.319214,25.897408 30.468811,25.727467 C30.618042,25.558441 30.7276,25.4374 30.798279,25.365574 C30.956116,25.169651 31.044006,25.084373 31.061646,25.111576 C31.078796,25.138168 31.052673,25.312084 30.982727,25.633324 C30.89447,25.97321 30.846191,26.365974 30.837646,26.812225 C30.828552,27.258785 30.938477,27.624958 31.166992,27.910744 C31.41278,28.231678 31.746704,28.428825 32.168213,28.499733 C32.59015,28.571869 32.976135,28.562698 33.327698,28.47284 C33.854553,28.330708 34.33783,28.071514 34.776917,27.69648 C35.037598,27.473965 35.278076,27.24228 35.50775,27.007233 C35.50659,27.018848 35.502502,27.028934 35.50183,27.040245 C35.47522,27.35262 35.532104,27.65216 35.672974,27.937641 C35.865967,28.276913 36.173462,28.435852 36.595337,28.5248 C36.6828,28.542831 36.77069,28.495457 36.85852,28.495457 C36.946533,28.495457 37.033997,28.495457 37.122192,28.495457 C37.420715,28.495457 37.706116,28.466724 37.978394,28.35027 C38.25067,28.235344 38.509827,28.115528 38.75586,27.936417 C38.98401,27.776257 39.194702,27.606922 39.388367,27.401524 C39.58136,27.196125 39.774414,26.992561 39.96808,26.778297 C40.125916,26.582375 40.288208,26.398067 40.455322,26.219261 C40.622192,26.04137 40.784912,25.855228 40.943115,25.658695 C40.977905,25.622627 40.999634,25.59237 41.00891,25.565777 C41.017517,25.53888 41.039185,25.544075 41.074707,25.579834 C41.12744,25.615902 41.166748,25.695679 41.19336,25.820995 C41.21942,25.946007 41.24164,26.03526 41.259155,26.089054 C41.381836,26.517578 41.5531,26.92379 41.77307,27.307995 C41.992493,27.691895 42.30414,28.000298 42.708374,28.231678 C42.901367,28.339268 43.107727,28.410484 43.327637,28.446247 C43.546875,28.482311 43.762268,28.482311 43.973267,28.446247 C44.16632,28.428825 44.381714,28.388477 44.618835,28.325817 C44.855896,28.263466 45.070984,28.169632 45.264343,28.044922 C45.5979,27.848083 45.92285,27.611507 46.23932,27.334282 C46.55536,27.058277 46.836243,26.759045 47.082275,26.437191 C47.187805,26.295063 47.306396,26.160576 47.43799,26.03587 C47.57007,25.911163 47.697144,25.776981 47.82019,25.633324 C48.032715,25.352737 48.235718,25.082233 48.44153,24.807758 C48.396545,25.010098 48.358765,25.213665 48.334473,25.419369 C48.273193,25.937756 48.299255,26.433216 48.41339,26.906063 C48.50171,27.272232 48.68457,27.59164 48.957214,27.86734 C49.30542,28.53305 50.008484,28.688934 50.693726,28.650421 C51.050537,28.678848 51.402405,28.643085 51.74695,28.52694 C52.061035,28.42057 52.367065,28.280582 52.66577,28.114002 C57.35919,25.775452 60.309265,19.11467 61.003418,18.342285 C61.178528,18.214523 61.358276,18.116714 61.469788,18.132915 C61.645264,18.168983 61.812378,18.231335 61.97058,18.320587 C62.128723,18.410141 62.295166,18.45446 62.47101,18.45446 C62.52368,18.45446 62.59857,18.445599 62.695007,18.427563 C62.791565,18.410141 62.879395,18.400665 62.95868,18.400665 C63.037598,18.400665 63.099,18.414421 63.143127,18.441013 C63.18683,18.46791 63.18268,18.534847 63.130005,18.641827 C63.07727,18.784874 62.940674,18.936783 62.721558,19.097553 C62.501648,19.258022 62.339294,19.392204 62.233887,19.498878 C61.61902,20.124855 61.00415,20.785065 60.38971,21.481644 C59.774475,22.178226 59.27356,22.927994 58.887695,23.731552 C58.746643,23.99961 58.61505,24.285702 58.49237,24.58891 C58.369263,24.892727 58.263855,25.196243 58.176025,25.499756 C58.088013,25.803879 58.03534,26.111671 58.01819,26.42405 C58.000183,26.737038 58.03534,27.053082 58.123535,27.374931 C58.193542,27.642685 58.312134,27.861534 58.47931,28.030865 C58.64569,28.20111 58.8349,28.330708 59.045532,28.419655 C59.25641,28.509514 59.489075,28.562698 59.743713,28.58012 C59.998474,28.598461 60.24872,28.58929 60.49475,28.553528 C61.21515,28.410484 61.85205,28.111862 62.405212,27.65644 C62.95868,27.20071 63.463196,26.70525 63.920227,26.169746 C64.131226,25.919415 64.3421,25.655945 64.552734,25.379326 C64.747925,25.123192 64.93341,24.871334 65.11377,24.623142 C65.065125,24.848103 65.02698,25.069092 65.00037,25.285187 C64.96484,25.570972 64.95172,25.879375 64.96069,26.209785 C64.9693,26.540195 65.01758,26.857159 65.105896,27.160366 C65.19336,27.464489 65.329895,27.736519 65.51428,27.97768 C65.69861,28.219147 65.94879,28.393063 66.2652,28.499733 C66.2652,28.499733 66.31787,28.52694 66.31787,28.52694 C66.72186,28.634224 67.14343,28.629639 67.58246,28.513489 C68.021484,28.397343 68.41693,28.231678 68.76849,28.018028 C69.45355,27.624958 70.068115,27.133774 70.612976,26.544476 C70.73566,26.401123 70.85419,26.267555 70.96869,26.142235 C71.082825,26.018143 71.2099,25.892517 71.350525,25.76781 C71.42041,25.696594 71.495605,25.611317 71.574524,25.513508 C71.65381,25.415394 71.73688,25.356709 71.82477,25.339592 C71.842285,25.428844 71.83368,25.518093 71.79852,25.60704 C71.763,25.696594 71.72833,25.785538 71.69318,25.87418 C71.605286,26.267555 71.601135,26.669487 71.68005,27.08059 C71.75897,27.491081 71.947754,27.839523 72.24664,28.125309 C72.56268,28.446247 72.91388,28.598461 73.3006,28.58012 C73.686584,28.562698 74.0733,28.459694 74.46002,28.272331 C74.84601,28.08466 75.211,27.843803 75.55365,27.548851 C75.89624,27.2542 76.18115,26.98278 76.40967,26.731842 C76.74335,26.37484 77.072815,26.013252 77.397766,25.64708 C77.72278,25.281212 78.04364,24.910458 78.35968,24.535725 C78.496216,24.37862 78.6286,24.222431 78.75726,24.066242 C78.59003,24.581573 78.47046,25.09935 78.399414,25.620792 C78.30286,26.32624 78.368774,26.964443 78.5968,27.535706 C78.82495,28.107277 79.325745,28.46489 80.098816,28.607018 C80.45001,28.64278 80.77496,28.634224 81.07385,28.58012 C81.49524,28.509514 81.87756,28.379307 82.22015,28.191635 C82.56232,28.004883 82.88739,27.781452 83.194824,27.522564 C83.50214,27.263676 83.79205,26.986145 84.06433,26.692104 C84.33661,26.396843 84.60486,26.09822 84.86804,25.794403 C84.95587,25.705154 85.03491,25.620792 85.10516,25.539795 C85.17511,25.459408 85.21924,25.401333 85.23724,25.365574 C85.27203,25.294662 85.31616,25.25829 85.368835,25.25829 C85.33331,25.526653 85.30719,25.740608 85.28955,25.901688 C85.27203,26.062462 85.254395,26.218956 85.23724,26.37056 C85.21924,26.522774 85.21063,26.615997 85.21063,26.652065 C85.21063,26.901783 85.24579,27.152111 85.31616,27.401524 C85.38611,27.65216 85.509155,27.866425 85.684875,28.044922 C85.93054,28.295559 86.22943,28.428825 86.58093,28.446247 C86.93225,28.46489 87.256775,28.446247 87.55609,28.393063 C87.819336,28.339268 88.06061,28.2546 88.280396,28.138454 C88.5,28.022305 88.706116,27.875591 88.89984,27.69648 C89.70758,26.999897 90.480774,26.25441 91.21869,25.459408 C91.51111,25.144585 91.79126,24.820595 92.069824,24.49599 C91.98724,24.852993 91.93475,25.209995 91.91687,25.566387 C91.89032,26.09333 91.96515,26.5891 92.14087,27.053082 C92.316345,27.517979 92.65863,27.901878 93.168335,28.20539 C93.5318,28.423935 93.92749,28.503403 94.353516,28.547417 C94.75409,28.64217 95.20062,28.885162 95.60486,28.495457 C95.60535,28.495457 95.60535,28.495457 95.60535,28.495457 C95.60608,28.495457 95.606445,28.495457 95.60675,28.495457 C95.785095,28.495457 95.95569,28.47559 96.1095,28.434326 C96.15619,28.421795 96.20294,28.432491 96.25012,28.41843 C96.421814,28.368305 96.565796,28.330708 96.66998,28.292198 C96.688354,28.285168 96.70709,28.286694 96.72577,28.279358 C96.73999,28.273552 96.75342,28.269882 96.76727,28.264076 C96.8208,28.242989 96.85217,28.230453 96.85217,28.230453 C96.8772,28.219147 96.90161,28.206306 96.92633,28.195 C97.548584,27.92144 98.12079,27.57972 98.63623,27.160366 C98.642944,27.154556 98.645874,27.149971 98.65222,27.14447 C102.43829,24.311684 104.815125,19.025116 105.42877,18.34198 C105.60376,18.214218 105.78381,18.116714 105.89526,18.132915 C106.07062,18.168983 106.23773,18.231335 106.39606,18.320587 C106.55414,18.410141 106.72064,18.45446 106.89636,18.45446 C106.94916,18.45446 107.023926,18.445599 107.12036,18.427563 C107.21692,18.410141 107.30481,18.400665 107.38403,18.400665 C107.46295,18.400665 107.52423,18.414421 107.56848,18.441013 C107.61224,18.46791 107.608154,18.534847 107.55536,18.641827 C107.502686,18.784874 107.36615,18.936783 107.14697,19.097553 C106.927,19.258022 106.76477,19.392204 106.65924,19.498878 C106.04437,20.124855 105.429504,20.785065 104.815125,21.481644 C104.19983,22.178226 103.699036,22.927994 103.31305,23.731552 C103.17218,23.99961 103.040405,24.285702 102.917786,24.58891 C102.79474,24.892727 102.68921,25.196243 102.60126,25.499756 C102.51343,25.803879 102.46069,26.111671 102.44354,26.42405 C102.42554,26.737038 102.46069,27.053082 102.54907,27.374931 C102.6189,27.642685 102.73749,27.861534 102.90466,28.030865 C103.071045,28.20111 103.260376,28.330708 103.47089,28.419655 C103.68176,28.509514 103.91449,28.562698 104.16919,28.58012 C104.42383,28.598461 104.67407,28.58929 104.920105,28.553528 C105.6405,28.410484 106.277466,28.111862 106.83057,27.65644 C107.38403,27.20071 107.88867,26.70525 108.3457,26.169746 C108.55658,25.919415 108.767456,25.655945 108.97803,25.379326 C109.189026,25.103016 109.390564,24.829765 109.58429,24.562012 C109.83014,24.2585 110.075806,23.950401 110.32184,23.638023 C110.56799,23.32534 110.81372,23.008686 111.05975,22.686832 C111.11255,22.633652 111.21344,22.508942 111.36279,22.311798 C111.5119,22.11557 111.64819,21.905586 111.77118,21.682152 C111.89386,21.459637 111.968994,21.253933 111.99518,21.065956 C112.02179,20.878593 111.92926,20.7762 111.71838,20.758163 ZM96.58069,20.89204 C96.677124,20.696117 96.78265,20.508446 96.897095,20.329334 C97.01117,20.151443 97.08557,20.034992 97.12073,19.981197 C97.36688,19.605854 97.62152,19.245186 97.88519,18.896435 C98.14856,18.548298 98.42084,18.195572 98.70203,17.83796 C98.78955,17.730675 98.88635,17.62003 98.99182,17.503883 C99.096985,17.387733 99.202515,17.267002 99.30786,17.14199 C99.44818,16.999249 99.62439,16.825027 99.8349,16.619324 C100.0459,16.414536 100.25641,16.284634 100.467285,16.23145 C100.62549,16.19569 100.752686,16.244286 100.84949,16.378468 C100.94568,16.512344 100.98523,16.650806 100.96808,16.793545 C100.95007,17.151157 100.84509,17.499298 100.65173,17.83796 C100.458374,18.177845 100.25641,18.481667 100.0459,18.749111 C99.694214,19.213703 99.29474,19.660263 98.84674,20.088482 C98.39868,20.517006 97.920044,20.883179 97.41052,21.187302 C97.37549,21.204418 97.274536,21.258518 97.107605,21.347466 C96.94049,21.437325 96.78705,21.49968 96.646545,21.535133 C96.470825,21.571201 96.391785,21.521687 96.409424,21.38781 C96.426575,21.253933 96.483826,21.089188 96.58069,20.89204 ZM20.811401,14.409454 C21.144958,13.784702 21.465515,13.150471 21.772827,12.507378 C22.080261,11.864592 22.392273,11.230667 22.708618,10.605913 C23.077454,9.85523 23.463318,9.136642 23.867676,8.448618 C24.271606,7.762121 24.693481,7.069206 25.132507,6.3729305 C25.483826,5.8196983 25.852905,5.274721 26.239258,4.7389107 C26.62561,4.203102 27.091125,3.7479858 27.635681,3.3729496 C27.741272,3.3011208 27.92102,3.189558 28.176147,3.0376492 C28.430542,2.8863506 28.694214,2.761034 28.96637,2.662613 C29.238647,2.564499 29.489014,2.524458 29.717407,2.542492 C29.945557,2.5599136 30.10376,2.6855373 30.19165,2.9175282 C30.31427,3.2384624 30.340881,3.6003551 30.270996,4.0019836 C30.200684,4.4039154 30.07721,4.801876 29.901855,5.194029 C29.726013,5.5874023 29.53302,5.9624386 29.322144,6.319441 C29.111572,6.6770554 28.917908,6.988821 28.742432,7.2565727 C28.268188,7.9895267 27.749756,8.708422 27.18805,9.413258 C26.62561,10.119314 26.019653,10.792973 25.369629,11.4357605 C24.719666,12.079159 24.03888,12.672737 23.327698,13.217411 C22.61621,13.762081 21.873901,14.231564 21.101196,14.623718 C20.960205,14.694935 20.855042,14.726723 20.784851,14.716942 C20.714478,14.708996 20.723083,14.605988 20.811401,14.409454 ZM8.584839,26.142235 C8.338806,26.500156 8.009277,26.803669 7.5966797,27.053082 C7.183899,27.30341 6.7401733,27.473354 6.265991,27.562603 C5.774231,27.65216 5.2910767,27.65216 4.8167114,27.562603 C4.3425293,27.473354 3.9382935,27.250229 3.6046143,26.892612 C3.4467773,26.731842 3.3413086,26.513298 3.2885742,26.236683 C3.2359009,25.960068 3.279663,25.723186 3.4203491,25.526653 C3.5256958,25.365574 3.6749268,25.241478 3.8682861,25.15131 C4.0613403,25.062366 4.267761,25.000011 4.48761,24.964558 C4.706848,24.928185 4.9262695,24.91932 5.14624,24.937355 C5.3658447,24.955387 5.5633545,24.97342 5.7390747,24.990845 C5.8445435,25.008877 6.072754,25.044025 6.4242554,25.098125 C6.7753296,25.15131 7.1310425,25.222832 7.491333,25.312084 C7.8514404,25.401333 8.154358,25.518093 8.400391,25.660526 C8.646118,25.803879 8.70752,25.964043 8.584839,26.142235 ZM41.807373,18.936783 C41.807373,18.972847 41.734802,19.008305 41.71759,19.044067 C41.559814,19.722614 41.404907,20.414307 41.317078,21.119446 C41.229248,21.8252 41.169373,22.535534 41.169373,23.249538 C41.169373,23.463802 41.152954,23.674091 41.135742,23.879185 C41.117737,24.084278 41.043396,24.285702 40.920593,24.48193 C40.815186,24.678467 40.685364,24.852688 40.536133,25.004292 C40.3869,25.1562 40.24109,25.303219 40.10077,25.446266 C39.9599,25.58931 39.81433,25.732357 39.6651,25.87418 C39.51593,26.018143 39.35321,26.152016 39.177856,26.27703 C39.12506,26.31218 39.036865,26.37484 38.914185,26.463783 C38.79065,26.553646 38.667664,26.625168 38.544983,26.678352 C38.421936,26.731842 38.312073,26.749874 38.21582,26.731842 C38.11902,26.714417 38.061707,26.625168 38.044556,26.463783 C38.044556,26.37484 38.053223,26.289562 38.07074,26.209785 C38.08795,26.129093 38.08795,26.04504 38.07074,25.955177 C38.035217,25.794403 37.960876,25.638214 37.8468,25.486305 C37.73236,25.334396 37.587524,25.24973 37.41211,25.232002 C37.296997,25.21886 37.178833,25.225277 37.059143,25.240257 C37.083862,25.2103 37.110657,25.181877 37.135315,25.15131 C37.512756,24.687328 37.886353,24.223045 38.255188,23.758759 C38.44818,23.526463 38.628418,23.303028 38.795227,23.089073 C38.961975,22.874504 39.115784,22.642513 39.25641,22.39249 C39.309143,22.320969 39.374817,22.231411 39.454163,22.124126 C39.53308,22.017456 39.60309,21.901306 39.664856,21.775684 C39.683044,21.738087 39.6958,21.702633 39.710022,21.665344 C39.87085,21.445274 40.01111,21.256378 40.125916,21.10661 C40.30127,20.874619 40.459473,20.642323 40.600525,20.409721 C40.740723,20.17834 40.88098,19.936878 41.022034,19.686852 C41.10956,19.543808 41.265076,19.387924 41.362366,19.217674 C41.45813,19.048344 41.807373,18.919052 41.807373,18.829803 C41.807373,18.829803 41.807373,18.936783 41.807373,18.936783 ZM72.6944,22.405937 C72.184875,23.14684 71.64905,23.87521 71.08722,24.58891 C70.753296,25.000011 70.39758,25.388496 70.01984,25.754364 C69.64215,26.120228 69.21643,26.41977 68.74188,26.652065 C68.46069,26.777077 68.20593,26.816505 67.97778,26.772186 C67.74921,26.727867 67.56494,26.553646 67.42462,26.249825 C67.336426,26.071632 67.30615,25.879375 67.332214,25.673977 C67.358826,25.468884 67.40674,25.25829 67.47742,25.044025 C67.5473,24.829765 67.63074,24.625282 67.72754,24.428444 C67.82361,24.231907 67.90753,24.0531 67.97778,23.892326 C68.17078,23.517597 68.36426,23.151424 68.557495,22.794422 C68.75049,22.437725 68.96149,22.088978 69.18988,21.749702 C69.41803,21.410122 69.638,21.070541 69.84851,20.731575 C70.05951,20.3923 70.28766,20.06189 70.53375,19.73973 C70.95563,19.150738 71.41632,18.543407 71.917175,17.918652 C72.41797,17.29329 72.98419,16.80302 73.61658,16.445103 C73.84479,16.320702 74.11737,16.222282 74.43341,16.151062 C74.74982,16.079235 75.00421,16.168488 75.197876,16.418205 C75.35559,16.63308 75.4126,16.873932 75.3692,17.14199 C75.32507,17.409435 75.26776,17.660072 75.197876,17.892365 C75.056885,18.284824 74.89014,18.660164 74.69708,19.016861 C74.50372,19.374477 74.31036,19.731785 74.11737,20.088482 C73.67798,20.89204 73.2038,21.66473 72.6944,22.405937 ZM87.2793,19.901115 C87.1297,20.168869 86.99353,20.409721 86.87085,20.62429 C86.46649,21.37436 86.01843,22.088978 85.52704,22.767525 C85.03491,23.44638 84.52557,24.10659 83.998535,24.749989 C83.61218,25.21458 83.21234,25.607956 82.799866,26.04504 C82.3866,26.48304 81.89923,26.938156 81.33716,26.938156 C81.33716,26.938156 81.310974,26.938156 81.310974,26.938156 C80.90662,27.327862 80.54242,27.125519 80.21735,26.902393 C79.89203,26.678963 79.756226,26.355583 79.8089,25.872955 C79.861755,25.194408 80.05017,24.574238 80.37567,23.98494 C80.70026,23.395336 81.04724,22.849747 81.41644,22.33136 C81.83801,21.742672 82.26355,21.161015 82.6944,20.580276 C83.12451,20.00076 83.58557,19.434994 84.07782,18.880848 C84.253296,18.684616 84.463806,18.44896 84.70984,18.17265 C84.95587,17.89573 85.21924,17.633171 85.50043,17.382538 C85.78143,17.132515 86.075745,16.922836 86.38318,16.752892 C86.69049,16.58356 86.99353,16.50776 87.29242,16.525795 C87.503296,16.561249 87.68317,16.663948 87.8324,16.833279 C87.98169,17.003834 88.065,17.186615 88.08301,17.382843 C88.10016,17.650902 88.06952,17.927517 87.9906,18.213303 C87.91168,18.499088 87.81036,18.784874 87.68756,19.070961 C87.564575,19.356441 87.42804,19.633057 87.2793,19.901115 Z"/>
</svg>