<svg xmlns="http://www.w3.org/2000/svg"
 xmlns:xlink="http://www.w3.org/1999/xlink"
 width="32px" height="36px"  viewBox="0 0 32 36">
<path fill-rule="evenodd"  fill="#bb9c66"
 d="M2.293518,11.212654 C2.3842163,11.138075 2.4787598,11.1010895 2.576538,11.095894 C2.463745,10.505373 2.5804443,10.115055 2.8589478,9.886427 C3.2080688,9.599419 3.6210327,9.857697 4.218384,10.537468 C4.218384,10.537468 4.2368774,10.52249 4.2368774,10.52249 C4.2315063,10.527075 4.2230225,10.523407 4.2474976,10.553972 C4.4329834,10.786573 4.6956787,10.831505 4.9280396,10.640778 C5.0875244,10.509346 5.145813,10.260241 5.0408325,10.129421 C5.0408325,10.129421 4.8084717,9.839968 4.8084717,9.839968 C4.4696655,9.418167 4.7904663,8.89703 5.211853,8.550724 C5.211853,8.550724 10.163818,4.4821835 10.163818,4.4821835 C10.584534,4.136795 10.806824,4.214432 11.144836,4.63501 C11.144836,4.63501 11.432678,4.993845 11.432678,4.993845 C11.50592,5.0849304 11.867432,4.8862553 11.996704,4.7801933 C12.2282715,4.589773 12.377563,4.2593613 12.190613,4.0261497 C12.166809,3.996807 12.232971,3.9527931 12.226868,3.9579887 C12.226868,3.9579887 12.244019,3.9439278 12.244019,3.9439278 C11.708557,3.2131138 11.541626,2.7524948 11.891541,2.4648762 C12.169983,2.2359428 12.59668,2.2331905 13.144775,2.4648762 C13.170166,2.3689003 13.212585,2.268341 13.302734,2.1931496 C14.040405,1.5870419 15.893005,2.6592712 17.448853,4.5968018 C19.004395,6.5334167 19.664673,8.59046 18.92688,9.196569 C18.836182,9.271149 18.7406,9.306604 18.643066,9.312412 C18.75476,9.902931 18.695496,10.36355 18.416443,10.593401 C18.0542,10.890495 17.644836,10.626411 17.053162,9.942055 C17.053162,9.942055 17.037231,9.955505 17.037231,9.955505 C16.997498,9.987904 16.432007,9.8855095 16.229797,10.0517845 C16.101318,10.157541 15.826843,10.465639 15.899597,10.556112 C15.899597,10.556112 16.201782,10.932676 16.201782,10.932676 C16.403992,11.184227 16.581482,11.405827 16.505066,11.700476 C16.386658,11.231604 14.968079,9.310883 13.656921,7.6783924 C12.207703,5.873514 11.120728,4.787224 11.120728,4.787224 C11.010681,5.009739 12.280151,6.5266933 13.380005,7.8963223 C14.443237,9.220104 16.326233,11.762524 16.633057,11.772305 C16.573242,11.927881 16.53186,12.1265545 16.394287,12.239342 C16.394287,12.239342 15.441467,13.022423 15.441467,13.022423 C15.547302,12.935005 15.688843,12.93684 15.7734375,13.041985 C15.857849,13.147434 15.829834,13.288647 15.724731,13.37484 C15.724731,13.37484 15.612549,13.467148 15.612549,13.467148 C15.684631,13.40785 15.985168,13.699139 16.147644,13.901785 C16.889954,14.826078 17.262756,16.009262 17.26361,16.902683 C17.146545,16.69545 16.889954,16.191734 16.72998,15.479565 C16.513489,14.521954 15.895508,13.357418 15.450989,13.723284 C15.006714,14.088234 16.078308,14.733467 16.338013,15.549866 C16.55133,16.215881 17.064758,16.75444 17.246155,16.930801 C17.24585,17.006912 17.241028,17.08088 17.233887,17.152401 C17.744812,16.883427 18.194397,16.82138 18.367004,17.036255 C18.493958,17.19458 18.44458,17.46967 18.26587,17.782658 C18.704468,17.824226 19.12622,18.03543 19.421509,18.403439 C19.92743,19.031555 20.520752,20.884724 21.961975,22.67921 C23.447205,24.529327 28.108887,29.221706 29.018188,30.353844 C30.059998,31.651031 30.321411,33.18266 29.60138,33.77379 C29.60138,33.77379 29.570007,33.79641 29.570007,33.79641 C28.850342,34.387234 27.41986,33.812607 26.37799,32.51481 C25.468994,31.382977 21.88031,25.801758 20.395203,23.952255 C18.953247,22.158073 17.29004,21.198326 16.784973,20.56929 C16.489807,20.201897 16.371887,19.740974 16.421509,19.29808 C16.081726,19.41087 15.8046875,19.40292 15.6779785,19.2449 C15.505615,19.03033 15.6571045,18.598137 16.022583,18.14669 C15.125793,18.051327 13.920471,17.427181 13.10022,16.405693 C12.937622,16.20335 12.716919,15.846043 12.7890625,15.786743 C12.7890625,15.786743 12.677002,15.878746 12.677002,15.878746 C12.571167,15.965858 12.415222,15.946602 12.331299,15.841763 C12.246643,15.736313 12.261108,15.577984 12.366333,15.491791 C12.366333,15.491791 11.361145,16.31705 11.361145,16.31705 C10.940491,16.662746 10.204224,16.559128 9.865784,16.13794 C9.865784,16.13794 9.620239,15.831982 9.620239,15.831982 C9.515686,15.701775 9.293945,15.749149 9.135193,15.879356 C8.933105,16.045326 9.091553,16.483635 9.050903,16.516949 C9.050903,16.516949 9.035156,16.53009 9.035156,16.53009 C9.576721,17.25571 9.746948,17.713577 9.383972,18.01159 C9.105591,18.24022 8.649658,18.208126 8.100769,17.97522 C8.076721,18.07211 8.019165,18.154636 7.928528,18.229523 C7.190857,18.835629 5.331787,17.755455 3.776001,15.818226 C2.2202148,13.8810005 1.5558472,11.818764 2.293518,11.212654 ZM19.063782,7.78965 C19.063782,7.78965 18.120483,6.0565987 16.951843,4.5365887 C15.783142,3.015356 14.657898,2.3034916 14.657898,2.3034916 C16.753357,4.2236004 19.063782,7.78965 19.063782,7.78965 ZM14.244263,4.0417366 C14.624023,3.7828503 15.084534,4.5399513 16.193298,5.595064 C16.193298,5.595064 16.193298,5.595064 16.193298,5.595064 C17.53241,7.285017 18.859558,9.138189 18.841309,9.054134 C18.821777,8.964884 17.527405,6.5969925 16.274841,5.0387764 C15.024475,3.479948 13.546997,2.1335487 13.546997,2.1335487 C13.471191,2.139967 13.461853,2.1968193 13.505005,2.294016 C13.385376,2.280262 13.363525,2.4220848 13.271973,2.5449562 C13.053467,2.8362427 13.065002,3.9289513 13.065002,3.9289513 C13.24469,4.5463696 13.864807,4.30093 14.244263,4.0417366 ZM14.059814,5.724661 C14.147827,5.6522217 13.966736,5.280243 13.656677,4.894203 C13.34613,4.507553 13.023926,4.252943 12.935913,4.325077 C12.847961,4.397211 13.028564,4.7685795 13.338989,5.1555367 C13.649414,5.5418816 13.972229,5.7958775 14.059814,5.724661 ZM13.283752,6.07127 C13.424927,5.9560394 13.375305,5.6595573 13.174255,5.4092274 C12.973267,5.158592 12.696899,5.0488625 12.555908,5.1650105 C12.41571,5.279936 12.465149,5.5758076 12.666504,5.826748 C12.867615,6.077385 13.143799,6.187113 13.283752,6.07127 ZM18.093384,17.346489 C17.943298,17.157902 17.731567,17.07935 17.62146,17.170433 C17.511414,17.260906 17.543945,17.485867 17.694763,17.673843 C17.845703,17.86182 18.056946,17.940067 18.167175,17.850204 C18.276855,17.759426 18.24408,17.533855 18.093384,17.346489 ZM19.401367,20.577545 C20.782654,22.134232 22.167603,23.39872 25.252258,27.568127 C28.336365,31.738144 28.981018,32.555153 29.381104,32.226273 C29.78186,31.897388 28.364014,30.105957 27.405334,28.940506 C26.445679,27.775356 25.731384,27.386261 23.329773,24.554695 C20.9281,21.724049 19.482666,20.035316 19.236267,19.18163 C18.99054,18.328247 18.741882,18.110012 18.406677,18.148521 C17.962769,18.198345 18.018799,19.02055 19.401367,20.577545 ZM11.333252,15.566063 C11.333252,15.566063 11.541748,15.710945 13.686829,13.948856 C15.788391,12.22253 15.503113,12.140615 15.503113,12.140615 C15.22522,12.203884 14.857605,12.1687355 14.666748,11.930937 C14.398499,11.597164 10.184814,6.350025 9.91626,6.015642 C9.669373,5.7075443 9.816345,5.1714287 10.08136,4.8887005 C10.052246,4.907957 10.077759,4.878002 10.051331,4.900316 C10.051331,4.900316 9.877869,4.725788 7.7269287,6.4930725 C5.4699707,8.347771 5.6430664,8.521994 5.6430664,8.521994 C5.616333,8.544306 5.5133667,8.637531 5.48938,8.661676 C5.817932,8.45689 6.1498413,8.600241 6.3967285,8.908033 C6.665283,9.242416 10.878479,14.488945 11.147095,14.823328 C11.3377075,15.060207 11.452393,15.303204 11.333252,15.566063 ZM11.127747,16.21038 C11.238525,15.987251 9.983948,14.457462 8.884338,13.088444 C7.784912,11.71973 5.8685913,9.102734 5.661194,9.272371 C5.454956,9.441702 7.1121826,11.538174 8.561523,13.342442 C10.011108,15.148235 11.127747,16.21038 11.127747,16.21038 ZM6.315857,11.796757 C6.4471436,11.68886 6.3912354,11.397879 6.1897583,11.148773 C5.9885254,10.897526 5.718994,10.78199 5.5877686,10.89019 C5.45636,10.99778 5.5127563,11.288456 5.713745,11.538784 C5.914734,11.789114 6.1845093,11.904957 6.315857,11.796757 ZM4.9803467,13.184418 C4.8901367,12.941425 3.8866577,11.812344 4.088806,11.593803 C4.2022705,11.47093 4.3186646,11.564766 4.4489136,11.729818 C4.477661,11.76833 4.5061646,11.80562 4.536194,11.845661 C4.612976,11.952333 4.6948853,12.073067 4.784851,12.183712 C4.8120728,12.21611 4.8359985,12.241175 4.8583984,12.263794 C5.125,12.60429 5.4159546,12.968323 5.6932373,13.314932 C6.6071167,14.452877 7.3032837,15.129593 7.3032837,15.129593 C7.363037,14.996326 6.518982,14.075703 5.8258057,13.211927 C5.5023804,12.808161 5.0126953,12.276936 4.622864,11.791254 C4.6224976,11.790949 4.6222534,11.790642 4.621704,11.790031 C4.621704,11.790031 4.1124268,10.876436 3.8406372,10.80797 C3.822754,10.7987995 3.8349,10.77343 3.8269043,10.78046 C3.574768,10.801857 3.1917725,11.24872 3.8687744,12.091404 C4.5457153,12.93409 5.069336,13.427107 4.9803467,13.184418 Z"/>
</svg>