<svg width="17" height="17" viewBox="0 0 17 17" fill="none" xmlns="http://www.w3.org/2000/svg">
<path d="M8.49998 16.0542C8.25797 16.0542 8.02464 15.9666 7.8428 15.8073C7.15604 15.2068 6.49392 14.6424 5.90976 14.1447L5.90677 14.1421C4.19409 12.6826 2.71513 11.4221 1.68609 10.1805C0.535788 8.79247 0 7.47641 0 6.03869C0 4.64182 0.47898 3.35313 1.34861 2.40982C2.22863 1.45536 3.43613 0.929688 4.74908 0.929688C5.73038 0.929688 6.62907 1.23993 7.42011 1.85172C7.81932 2.16054 8.18118 2.53848 8.49998 2.97933C8.81891 2.53848 9.18065 2.16054 9.57999 1.85172C10.371 1.23993 11.2697 0.929688 12.251 0.929688C13.5638 0.929688 14.7715 1.45536 15.6515 2.40982C16.5211 3.35313 17 4.64182 17 6.03869C17 7.47641 16.4643 8.79247 15.314 10.1804C14.285 11.4221 12.8061 12.6824 11.0937 14.1418C10.5085 14.6404 9.84536 15.2056 9.15704 15.8075C8.97533 15.9666 8.74187 16.0542 8.49998 16.0542ZM4.74908 1.92552C3.71758 1.92552 2.76999 2.33719 2.08064 3.08478C1.38104 3.84365 0.995703 4.89266 0.995703 6.03869C0.995703 7.24788 1.44511 8.32932 2.45275 9.54512C3.42666 10.7203 4.87527 11.9548 6.55255 13.3842L6.55566 13.3868C7.14203 13.8866 7.80674 14.4531 8.49856 15.058C9.19452 14.4519 9.86027 13.8845 10.4478 13.384C12.125 11.9546 13.5734 10.7203 14.5474 9.54512C15.5549 8.32932 16.0043 7.24788 16.0043 6.03869C16.0043 4.89266 15.6189 3.84365 14.9193 3.08478C14.2301 2.33719 13.2824 1.92552 12.251 1.92552C11.4954 1.92552 10.8016 2.16573 10.1891 2.63939C9.64316 3.06169 9.26288 3.59554 9.03992 3.96907C8.92527 4.16116 8.72346 4.27581 8.49998 4.27581C8.27651 4.27581 8.0747 4.16116 7.96004 3.96907C7.73722 3.59554 7.35694 3.06169 6.81091 2.63939C6.19834 2.16573 5.50457 1.92552 4.74908 1.92552Z" fill="white"/>
</svg>
