<svg width="18" height="22" viewBox="0 0 18 22" fill="none" xmlns="http://www.w3.org/2000/svg">
<path d="M8.94141 0C4.25404 0 0.441406 3.70627 0.441406 8.26173C0.441406 13.97 8.06359 21.4617 8.38813 21.7771C8.53341 21.9193 8.73277 22 8.94141 22C9.15004 22 9.34941 21.9193 9.49468 21.7785C9.81922 21.4617 17.4414 13.97 17.4414 8.26173C17.4414 3.70627 13.6288 0 8.94141 0ZM8.94141 20.5333C7.20432 18.7132 1.76608 12.5459 1.76608 8.26173C1.76608 4.51587 5.10713 1.25714 8.94141 1.25714C12.7757 1.25714 16.1167 4.51587 16.1167 8.26173C16.1167 12.5459 10.6785 18.7132 8.94141 20.5333Z" fill="black"/>
<path d="M9.16246 4.3999C7.03283 4.3999 5.29883 6.0455 5.29883 8.06657C5.29883 10.0876 7.03283 11.7332 9.16246 11.7332C11.2921 11.7332 13.0261 10.0876 13.0261 8.06657C13.0261 6.0455 11.2921 4.3999 9.16246 4.3999ZM9.16246 10.2666C7.88437 10.2666 6.84428 9.2795 6.84428 8.06657C6.84428 6.85364 7.88437 5.86657 9.16246 5.86657C10.4406 5.86657 11.4806 6.85364 11.4806 8.06657C11.4806 9.2795 10.4406 10.2666 9.16246 10.2666Z" fill="black"/>
</svg>
