<svg width="33" height="42" viewBox="0 0 33 42" fill="none" xmlns="http://www.w3.org/2000/svg">
<path d="M16.8311 0C8.00778 0 0.831055 7.0756 0.831055 15.7724C0.831055 26.67 15.1787 40.9724 15.7896 41.5744C16.0631 41.846 16.4383 42 16.8311 42C17.2238 42 17.5991 41.846 17.8725 41.5772C18.4834 40.9724 32.8311 26.67 32.8311 15.7724C32.8311 7.0756 25.6543 0 16.8311 0ZM16.8311 39.2C13.5612 35.7252 3.32456 23.9512 3.32456 15.7724C3.32456 8.6212 9.6136 2.4 16.8311 2.4C24.0485 2.4 30.3375 8.6212 30.3375 15.7724C30.3375 23.9512 20.1009 35.7252 16.8311 39.2Z" fill="#AC7E00"/>
<path d="M17.2464 8.3999C13.2376 8.3999 9.97363 11.5415 9.97363 15.3999C9.97363 19.2583 13.2376 22.3999 17.2464 22.3999C21.2551 22.3999 24.5191 19.2583 24.5191 15.3999C24.5191 11.5415 21.2551 8.3999 17.2464 8.3999ZM17.2464 19.5999C14.8405 19.5999 12.8827 17.7155 12.8827 15.3999C12.8827 13.0843 14.8405 11.1999 17.2464 11.1999C19.6522 11.1999 21.61 13.0843 21.61 15.3999C21.61 17.7155 19.6522 19.5999 17.2464 19.5999Z" fill="#AC7E00"/>
</svg>
