<svg width="16" height="20" viewBox="0 0 16 20" fill="none" xmlns="http://www.w3.org/2000/svg">
<path d="M7.88965 0C3.75374 0 0.389648 3.36933 0.389648 7.51067C0.389648 12.7 7.1151 19.5107 7.40147 19.7973C7.52965 19.9267 7.70556 20 7.88965 20C8.07374 20 8.24965 19.9267 8.37783 19.7987C8.66419 19.5107 15.3896 12.7 15.3896 7.51067C15.3896 3.36933 12.0256 0 7.88965 0ZM7.88965 18.6667C6.35692 17.012 1.55848 11.4053 1.55848 7.51067C1.55848 4.10533 4.50647 1.14286 7.88965 1.14286C11.2728 1.14286 14.2208 4.10533 14.2208 7.51067C14.2208 11.4053 9.42238 17.012 7.88965 18.6667Z" fill="#AC7E00"/>
<path d="M8.08487 4C6.20578 4 4.67578 5.496 4.67578 7.33333C4.67578 9.17067 6.20578 10.6667 8.08487 10.6667C9.96396 10.6667 11.494 9.17067 11.494 7.33333C11.494 5.496 9.96396 4 8.08487 4ZM8.08487 9.33333C6.95714 9.33333 6.03942 8.436 6.03942 7.33333C6.03942 6.23067 6.95714 5.33333 8.08487 5.33333C9.2126 5.33333 10.1303 6.23067 10.1303 7.33333C10.1303 8.436 9.2126 9.33333 8.08487 9.33333Z" fill="#AC7E00"/>
</svg>
