<svg width="22" height="22" viewBox="0 0 22 22" fill="none" xmlns="http://www.w3.org/2000/svg">
<path d="M20.1667 2.75H1.83335C0.822207 2.75 0 3.57221 0 4.58335V17.4167C0 18.4278 0.822207 19.25 1.83335 19.25H20.1667C21.1778 19.25 22 18.4278 22 17.4167V4.58335C22 3.57221 21.1778 2.75 20.1667 2.75ZM1.83335 3.66665H20.1667C20.2342 3.66665 20.2938 3.69127 20.3571 3.7052C18.7699 5.15784 13.5069 9.97257 11.6652 11.632C11.521 11.7618 11.2888 11.9167 11 11.9167C10.7113 11.9167 10.479 11.7618 10.3345 11.6316C8.49286 9.9724 3.22957 5.15741 1.64261 3.70528C1.70612 3.69136 1.76576 3.66665 1.83335 3.66665ZM0.916652 17.4167V4.58335C0.916652 4.49354 0.943723 4.41207 0.967957 4.33C2.18277 5.44186 5.85505 8.80133 8.23621 10.9667C5.86279 13.0054 2.18956 16.4879 0.965078 17.6556C0.943465 17.5776 0.916652 17.5014 0.916652 17.4167ZM20.1667 18.3333H1.83335C1.76013 18.3333 1.69503 18.3078 1.62667 18.2915C2.89197 17.0853 6.58857 13.5827 8.92027 11.588C9.22423 11.8637 9.50189 12.1151 9.72078 12.3124C10.0986 12.6534 10.5407 12.8333 11 12.8333C11.4593 12.8333 11.9014 12.6534 12.2788 12.3128C12.4977 12.1155 12.7756 11.8638 13.0797 11.588C15.4116 13.5825 19.1076 17.0848 20.3733 18.2915C20.305 18.3078 20.24 18.3333 20.1667 18.3333ZM21.0833 17.4167C21.0833 17.5013 21.0565 17.5776 21.035 17.6556C19.81 16.4873 16.1372 13.0052 13.7638 10.9667C16.1451 8.80138 19.8168 5.44221 21.032 4.32992C21.0563 4.41199 21.0833 4.4935 21.0833 4.5833V17.4167Z" fill="black"/>
</svg>
