<svg width="43" height="33" viewBox="0 0 43 33" fill="none" xmlns="http://www.w3.org/2000/svg">
<path d="M39.4166 0.375H3.58336C1.60704 0.375 0 1.98204 0 3.95836V29.0417C0 31.018 1.60704 32.625 3.58336 32.625H39.4167C41.393 32.625 43 31.018 43 29.0416V3.95836C43 1.98204 41.393 0.375 39.4166 0.375ZM3.58336 2.16664H39.4167C39.5487 2.16664 39.6651 2.21476 39.7889 2.24197C36.6866 5.08123 26.3999 14.4918 22.8001 17.7352C22.5184 17.989 22.0644 18.2916 21.5001 18.2916C20.9358 18.2916 20.4818 17.989 20.1992 17.7344C16.5997 14.4915 6.31235 5.08039 3.21055 2.24214C3.33468 2.21493 3.45125 2.16664 3.58336 2.16664ZM1.79164 29.0416V3.95836C1.79164 3.78283 1.84455 3.6236 1.89192 3.46319C4.26632 5.63637 11.444 12.2026 16.098 16.4348C11.4591 20.4196 4.27959 27.2264 1.88629 29.5086C1.84404 29.3562 1.79164 29.2073 1.79164 29.0416ZM39.4166 30.8334H3.58336C3.44025 30.8334 3.31302 30.7835 3.1794 30.7516C5.65248 28.394 12.8777 21.548 17.4351 17.6492C18.0292 18.1882 18.5719 18.6796 18.9997 19.0651C19.7381 19.7317 20.6024 20.0834 21.5 20.0834C22.3976 20.0834 23.2619 19.7316 23.9994 19.0659C24.4274 18.6802 24.9705 18.1884 25.5649 17.6492C30.1226 21.5476 37.3468 28.393 39.8206 30.7516C39.687 30.7835 39.5599 30.8334 39.4166 30.8334ZM41.2084 29.0416C41.2084 29.2072 41.156 29.3562 41.1138 29.5086C38.7196 27.2252 31.5409 20.4192 26.902 16.4349C31.5563 12.2027 38.7328 5.63704 41.1081 3.46302C41.1554 3.62343 41.2084 3.78275 41.2084 3.95828V29.0416Z" fill="#AC7E00"/>
</svg>
