<svg width="21" height="17" viewBox="0 0 21 17" fill="none" xmlns="http://www.w3.org/2000/svg">
<path d="M19.25 0.625H1.75001C0.784834 0.625 0 1.40983 0 2.37501V14.625C0 15.5902 0.784834 16.375 1.75001 16.375H19.25C20.2152 16.375 21 15.5902 21 14.625V2.37501C21 1.40983 20.2152 0.625 19.25 0.625ZM1.75001 1.49999H19.25C19.3145 1.49999 19.3713 1.52349 19.4318 1.53678C17.9167 2.92339 12.893 7.51928 11.1349 9.10326C10.9974 9.22717 10.7756 9.37499 10.5 9.37499C10.2245 9.37499 10.0027 9.22717 9.86471 9.10285C8.10682 7.51911 3.08278 2.92298 1.56795 1.53686C1.62857 1.52357 1.6855 1.49999 1.75001 1.49999ZM0.874986 14.625V2.37501C0.874986 2.28929 0.900826 2.21153 0.923959 2.13319C2.08355 3.19451 5.58891 6.40127 7.86183 8.46817C5.59629 10.4142 2.09003 13.7385 0.921211 14.853C0.90058 14.7786 0.874986 14.7059 0.874986 14.625ZM19.25 15.5H1.75001C1.68012 15.5 1.61798 15.4756 1.55273 15.4601C2.76052 14.3087 6.28909 10.9653 8.5148 9.06126C8.80495 9.32445 9.06999 9.56444 9.27892 9.7527C9.63953 10.0783 10.0616 10.25 10.5 10.25C10.9384 10.25 11.3605 10.0782 11.7206 9.75311C11.9296 9.56477 12.1949 9.32458 12.4852 9.06126C14.711 10.9651 18.2391 14.3082 19.4473 15.4601C19.382 15.4756 19.32 15.5 19.25 15.5ZM20.125 14.625C20.125 14.7058 20.0994 14.7786 20.0788 14.853C18.9096 13.7379 15.4037 10.414 13.1382 8.46821C15.4112 6.40131 18.916 3.19483 20.076 2.1331C20.0992 2.21144 20.125 2.28925 20.125 2.37497V14.625Z" fill="#AC7E00"/>
</svg>
