<svg width="20" height="19" viewBox="0 0 20 19" fill="none" xmlns="http://www.w3.org/2000/svg">
<path d="M18.0866 13.9735C18.0864 13.9735 18.0864 13.9735 18.0866 13.9735L14.9061 11.8835C14.1489 11.386 13.1661 11.4293 12.4604 11.9908C11.8421 12.4829 10.9548 12.4326 10.3961 11.8739L7.16691 8.64468C6.60839 8.08616 6.55808 7.19871 7.04995 6.58059C7.61167 5.87466 7.65477 4.89173 7.15729 4.13469L5.06725 0.9542C4.70179 0.398083 4.13494 0.0653094 3.47099 0.0170837C2.80705 -0.0308216 2.19822 0.216555 1.7565 0.714193C-0.691636 3.47091 -0.566185 7.67327 2.04201 10.2813L8.75948 16.9989C10.1165 18.356 11.905 19.0408 13.6972 19.0408C15.3493 19.0408 17.0043 18.4587 18.3267 17.2844C18.8242 16.8426 19.0718 16.2336 19.0237 15.5698C18.9755 14.906 18.6427 14.3392 18.0866 13.9735ZM17.5096 16.3645C15.2392 18.3808 11.7777 18.2773 9.6293 16.129L2.91183 9.41148C0.763466 7.26312 0.659965 3.8016 2.67631 1.53115C2.8471 1.33872 3.05971 1.24147 3.30949 1.24147C3.33321 1.24147 3.3574 1.24243 3.38207 1.2442C3.6631 1.26454 3.8842 1.39432 4.03897 1.63L6.12901 4.81033C6.33698 5.12693 6.32047 5.52106 6.0872 5.81442C5.20536 6.92265 5.29556 8.5133 6.29692 9.51466L9.52612 12.7439C10.5275 13.7452 12.1181 13.8354 13.2264 12.9536C13.5197 12.7202 13.9139 12.7038 14.2303 12.9118L17.4108 15.0018C17.6463 15.1566 17.7761 15.3777 17.7964 15.6587C17.8169 15.9399 17.7203 16.1773 17.5096 16.3645Z" fill="#AC7E00"/>
</svg>
