<svg width="40" height="40" viewBox="0 0 40 40" fill="none" xmlns="http://www.w3.org/2000/svg">
<path d="M37.8957 29.4685C37.8954 29.4685 37.8954 29.4685 37.8957 29.4685L31.2318 25.0893C29.6453 24.047 27.5862 24.1376 26.1074 25.3142C24.812 26.3452 22.9529 26.2398 21.7823 25.0692L15.0164 18.3032C13.8461 17.133 13.7407 15.2736 14.7713 13.9785C15.9483 12.4994 16.0386 10.4399 14.9962 8.85375L10.6171 2.18986C9.85137 1.02466 8.66368 0.32742 7.27256 0.226375C5.88144 0.126002 4.6058 0.644316 3.68028 1.68699C-1.44914 7.46296 -1.18629 16.2679 4.27849 21.7324L18.3532 35.8074C21.1965 38.6508 24.9439 40.0855 28.699 40.0855C32.1603 40.0855 35.6281 38.8659 38.3989 36.4056C39.4412 35.4798 39.9599 34.2038 39.8592 32.813C39.7581 31.4222 39.0609 30.2345 37.8957 29.4685ZM36.6869 34.4781C31.9297 38.7028 24.677 38.4859 20.1757 33.9846L6.10098 19.9099C1.59964 15.4085 1.38278 8.15584 5.60751 3.3987C5.96536 2.99553 6.41083 2.79176 6.93418 2.79176C6.98386 2.79176 7.03455 2.79377 7.08625 2.79747C7.67506 2.8401 8.13832 3.11201 8.4626 3.60582L12.8417 10.2694C13.2775 10.9327 13.2429 11.7585 12.7541 12.3732C10.9065 14.6952 11.0955 18.028 13.1936 20.1261L19.9595 26.892C22.0576 28.9901 25.3904 29.1791 27.7124 27.3314C28.327 26.8423 29.1528 26.8081 29.8158 27.2438L36.4797 31.623C36.9732 31.9473 37.2451 32.4105 37.2878 32.9993C37.3307 33.5885 37.1283 34.086 36.6869 34.4781Z" fill="#AC7E00"/>
</svg>
