<svg width="21" height="20" viewBox="0 0 21 20" fill="none" xmlns="http://www.w3.org/2000/svg">
<path d="M19.8091 14.7341C19.8089 14.7341 19.8089 14.7341 19.8091 14.7341L16.3257 12.5445C15.4964 12.0234 14.42 12.0687 13.6471 12.657C12.9699 13.1725 11.9981 13.1198 11.3862 12.5345L7.84947 9.1515C7.23776 8.56638 7.18266 7.63667 7.72137 6.98912C8.33659 6.24958 8.3838 5.21983 7.83894 4.42675L5.54984 1.09481C5.14958 0.512207 4.52874 0.163588 3.80156 0.113066C3.07439 0.062879 2.40757 0.322036 1.92378 0.843371C-0.757506 3.73136 -0.620107 8.13384 2.23648 10.8661L9.59371 17.9036C11.08 19.3253 13.0389 20.0426 15.0017 20.0426C16.8111 20.0426 18.6238 19.4328 20.0722 18.2027C20.617 17.7398 20.8881 17.1018 20.8355 16.4064C20.7827 15.711 20.4182 15.1171 19.8091 14.7341ZM19.1772 17.2389C16.6905 19.3513 12.8994 19.2428 10.5464 16.9922L3.18915 9.95482C0.836177 7.70415 0.722819 4.0778 2.9312 1.69923C3.11826 1.49764 3.35111 1.39576 3.62468 1.39576C3.65065 1.39576 3.67715 1.39677 3.70417 1.39861C4.01196 1.41993 4.25412 1.55588 4.42363 1.80279L6.71273 5.13457C6.9405 5.46623 6.92242 5.87914 6.66693 6.18647C5.7011 7.34747 5.7999 9.01386 6.89663 10.0629L10.4334 13.4459C11.5301 14.4949 13.2722 14.5894 14.486 13.6656C14.8073 13.421 15.239 13.4039 15.5856 13.6218L19.0689 15.8114C19.3269 15.9735 19.469 16.2051 19.4913 16.4995C19.5138 16.7941 19.408 17.0429 19.1772 17.2389Z" fill="black"/>
</svg>
