<svg width="46" height="47" viewBox="0 0 46 47" fill="none" xmlns="http://www.w3.org/2000/svg">
<path d="M23 0.353027C10.2979 0.353027 0 10.6504 0 23.353C0 36.0556 10.2979 46.353 23 46.353C35.7021 46.353 46 36.0556 46 23.353C46 10.6504 35.7021 0.353027 23 0.353027ZM34.6668 25.8406C35.7388 26.8876 36.8729 27.873 37.8353 29.0283C38.2616 29.5394 38.6635 30.0678 38.9694 30.6622C39.4061 31.5097 39.0118 32.4391 38.2532 32.4895L33.5412 32.4886C32.3242 32.5893 31.3558 32.0984 30.5393 31.2664C29.8875 30.6034 29.2828 29.8951 28.6551 29.2095C28.3986 28.9281 28.1285 28.6631 27.8066 28.4547C27.1642 28.0368 26.6061 28.1648 26.2381 28.8359C25.8631 29.5187 25.7774 30.2754 25.7416 31.0354C25.6904 32.1464 25.3553 32.4368 24.2405 32.489C21.8584 32.6006 19.5981 32.2391 17.4974 31.0382C15.6442 29.9789 14.2099 28.4839 12.96 26.7911C10.5261 23.4914 8.66212 19.8697 6.98729 16.1441C6.61035 15.305 6.88612 14.8561 7.81176 14.8387C9.34965 14.809 10.8875 14.8128 12.4254 14.8373C13.0513 14.8471 13.4654 15.2053 13.7059 15.7959C14.5369 17.8406 15.5558 19.786 16.8325 21.5902C17.1727 22.0707 17.52 22.5497 18.0146 22.889C18.5605 23.2636 18.9765 23.1399 19.2339 22.5304C19.3986 22.1431 19.4696 21.729 19.5054 21.314C19.6278 19.8923 19.6424 18.4711 19.4306 17.0551C19.2988 16.169 18.8005 15.5968 17.9172 15.4293C17.4673 15.3441 17.5332 15.1775 17.752 14.9206C18.1318 14.4763 18.4875 14.2015 19.1986 14.2015L24.5224 14.2006C25.3614 14.3653 25.5496 14.7417 25.6635 15.5869L25.6682 21.5031C25.6584 21.8302 25.8325 22.7996 26.4198 23.0137C26.8904 23.169 27.2009 22.7916 27.4824 22.4937C28.7591 21.1389 29.6687 19.5399 30.4833 17.8848C30.8428 17.1549 31.1529 16.3996 31.4541 15.6429C31.6781 15.0834 32.0264 14.8081 32.6579 14.8175L37.7845 14.8236C37.9355 14.8236 38.0889 14.825 38.2386 14.8509C39.1026 14.9987 39.3393 15.3704 39.072 16.2133C38.6513 17.5375 37.8339 18.6406 37.0348 19.7464C36.1783 20.9304 35.2649 22.073 34.4169 23.2622C33.6376 24.3493 33.6993 24.8966 34.6668 25.8406Z" fill="url(#paint0_linear)"/>
<defs>
<linearGradient id="paint0_linear" x1="23" y1="0.353027" x2="23" y2="46.353" gradientUnits="userSpaceOnUse">
<stop stop-color="#AC7E00"/>
<stop offset="1" stop-color="#715302"/>
</linearGradient>
</defs>
</svg>
