<svg width="19" height="24" viewBox="0 0 19 24" fill="none" xmlns="http://www.w3.org/2000/svg">
<path d="M16.6 23.9H2C0.9 23.9 0 23 0 21.9V6.90002C0 5.80002 0.9 4.90002 2 4.90002H16.6C17.7 4.90002 18.6 5.80002 18.6 6.90002V21.9C18.6 23 17.7 23.9 16.6 23.9ZM16.6 21.9V22.9V21.9ZM2 6.90002V21.9H16.6V6.90002H2Z" fill="#223333"/>
<path d="M12.9002 9.3C12.3002 9.3 11.9002 8.9 11.9002 8.3V2H6.7002V8.3C6.7002 8.9 6.3002 9.3 5.7002 9.3C5.1002 9.3 4.7002 8.9 4.7002 8.3V2C4.7002 0.9 5.6002 0 6.7002 0H12.0002C13.1002 0 14.0002 0.9 14.0002 2V8.3C13.9002 8.8 13.5002 9.3 12.9002 9.3Z" fill="#223333"/>
</svg>
