<svg width="23" height="24" viewBox="0 0 23 24" fill="none" xmlns="http://www.w3.org/2000/svg">
<g clip-path="url(#clip0)">
<path d="M21.8 4.69995H1C0.4 4.69995 0 4.29995 0 3.69995C0 3.09995 0.4 2.69995 1 2.69995H21.8C22.4 2.69995 22.8 3.09995 22.8 3.69995C22.8 4.29995 22.3 4.69995 21.8 4.69995Z" fill="#223333"/>
<path d="M14 4.1C13.7 2.9 12.6 2 11.4 2C10.1 2 8.99999 2.9 8.79999 4.1L6.79999 3.7C7.29999 1.6 9.19999 0 11.4 0C13.6 0 15.5 1.6 15.9 3.7L14 4.1Z" fill="#223333"/>
<path d="M4.59998 23.9999C3.59998 23.9999 2.69998 23.0999 2.59998 22.0999L1.59998 4.79988C1.59998 4.19988 1.99998 3.79988 2.49998 3.69988C3.09998 3.69988 3.49998 4.09988 3.59998 4.59988L4.59998 21.8999L18.1 21.9999L19.1 4.59988C19.1 3.99988 19.6 3.59988 20.2 3.69988C20.8 3.69988 21.2 4.19988 21.1 4.79988L20.1 22.0999C20 23.1999 19.2 23.9999 18.1 23.9999H4.59998Z" fill="#223333"/>
<path d="M7.60002 20.3C7.10002 20.3 6.60002 19.9 6.60002 19.4L5.90002 7.40005C5.90002 6.80005 6.30002 6.40005 6.80002 6.30005C7.30002 6.30005 7.80002 6.70005 7.90002 7.20005L8.60002 19.1C8.60002 19.8 8.20002 20.3 7.60002 20.3Z" fill="#223333"/>
<path d="M15.2 20.3001C15.1 20.3001 15.1 20.3001 15.2 20.3001C14.6 20.3001 14.2 19.8001 14.2 19.2001L14.9 7.30008C14.9 6.70008 15.4 6.30008 16 6.40008C16.6 6.40008 17 6.90008 16.9 7.50008L16.2 19.4001C16.1 19.9001 15.7 20.3001 15.2 20.3001Z" fill="#223333"/>
<path d="M11.4 20.2999C10.8 20.2999 10.4 19.8999 10.4 19.2999V7.3999C10.4 6.7999 10.8 6.3999 11.4 6.3999C12 6.3999 12.4 6.7999 12.4 7.3999V19.2999C12.4 19.8999 11.9 20.2999 11.4 20.2999Z" fill="#223333"/>
</g>
<defs>
<clipPath id="clip0">
<rect width="22.8" height="24" fill="white"/>
</clipPath>
</defs>
</svg>
