<svg width="24" height="24" viewBox="0 0 24 24" fill="none" xmlns="http://www.w3.org/2000/svg">
<path d="M12.0255 24C8.86624 24 5.80892 22.7797 3.56688 20.5424C1.22293 18.2034 0 15.1525 0 12C0 8.84746 1.22293 5.79661 3.46497 3.55932C5.80892 1.22034 8.76433 0 12.0255 0C15.1847 0 18.242 1.22034 20.4841 3.45763C25.172 8.13559 25.172 15.7627 20.4841 20.4407C18.242 22.678 15.1847 24 12.0255 24ZM12.0255 2.0339C9.3758 2.0339 6.82802 3.05085 4.99363 4.98305C3.05732 6.81356 2.03822 9.35593 2.03822 12C2.03822 14.6441 3.05732 17.1864 4.99363 19.017C6.82802 20.8475 9.3758 21.9661 12.0255 21.9661C14.6752 21.9661 17.2229 20.9492 19.0573 19.017C22.9299 15.1525 22.9299 8.84746 19.0573 4.98305C17.121 3.05085 14.6752 2.0339 12.0255 2.0339Z" fill="#E40000"/>
<g clip-path="url(#clip0)">
<path d="M11.9992 19C10.4594 19 8.86644 18.8908 7.32662 18.6176C6.74255 18.5084 6.21157 17.9076 6.15848 17.3067C6.10538 16.8151 6.05228 16.3782 5.99919 15.9412C5.94609 15.3403 6.31777 14.6303 6.84874 14.3025C7.85759 13.8109 8.91954 13.4832 10.0346 13.2647V13.1555C9.716 12.8824 9.55671 12.5546 9.50361 12.2269C9.50361 12.1176 9.50361 12.0084 9.45051 11.8992C9.18503 11.7899 9.02573 11.5714 8.97264 11.2437L8.86644 10.042C8.86644 9.82353 8.91954 9.65966 9.02573 9.4958C9.07883 9.38655 9.13193 9.38655 9.18503 9.33193L9.13193 8.94958C9.07883 8.51261 8.97264 7.52941 9.7691 6.81933C10.247 6.32773 11.0965 6 11.9992 6C12.9018 6 13.7514 6.32773 14.2824 6.81933C15.0257 7.47479 14.9195 8.51261 14.8664 8.94958V9.05882C14.8664 9.16807 14.8664 9.22269 14.8133 9.33193C14.8664 9.38655 14.9195 9.38655 14.9195 9.44118C15.0257 9.60504 15.1319 9.82353 15.0788 10.042L14.9726 11.2983C14.9726 11.5714 14.7602 11.8445 14.4948 11.9538V12.2815C14.4948 12.6092 14.2824 12.937 13.9638 13.1555V13.2647C15.0788 13.4286 16.1408 13.8109 17.0965 14.3025C17.6275 14.5756 18.0523 15.3403 17.9461 15.9412L17.8399 17.3067C17.7868 17.9622 17.2558 18.5084 16.6718 18.6176C15.1319 18.8361 13.539 19 11.9992 19ZM10.0346 10.8613H10.0877C10.3001 10.916 10.4594 11.0798 10.4594 11.2983C10.5125 11.5714 10.5125 11.8445 10.5656 12.1176C10.5656 12.1723 10.6718 12.2815 10.831 12.3908C10.9372 12.5 11.0434 12.6092 11.0965 12.7731L11.2027 13.6471C11.2027 13.8109 11.2027 13.9202 11.0965 14.084C10.9903 14.1933 10.8841 14.3025 10.7248 14.3025C9.55671 14.4664 8.38857 14.7941 7.37972 15.2857C7.16733 15.395 7.06113 15.6681 7.06113 15.8319C7.11423 16.2689 7.16733 16.7059 7.16733 17.1975C7.16733 17.3613 7.32662 17.5252 7.43281 17.5798C10.4063 18.0714 13.4859 18.0714 16.4594 17.5798C16.5656 17.5798 16.7248 17.3613 16.7248 17.1975L16.831 15.8866C16.831 15.7227 16.7248 15.4496 16.5125 15.3403C15.5036 14.8487 14.3355 14.521 13.1673 14.3571C13.008 14.3571 12.9018 14.2479 12.7956 14.1387C12.6895 14.0294 12.6895 13.8655 12.6895 13.7017L12.7956 12.8277C12.7956 12.6639 12.9018 12.5546 13.0611 12.4454C13.2204 12.3361 13.2735 12.2269 13.2735 12.1723L13.3797 11.3529C13.3797 11.1345 13.539 10.9706 13.7514 10.916H13.8045L13.8576 10.3151C13.8045 10.3151 13.8045 10.2605 13.7514 10.2605C13.5921 10.1513 13.4859 9.93277 13.539 9.76891V9.71429C13.539 9.4958 13.5921 9.27731 13.5921 9.05882V8.94958C13.6452 8.51261 13.6452 8.02101 13.3266 7.7479C13.008 7.42017 12.424 7.20168 11.7868 7.20168C11.362 7.09244 10.7779 7.31092 10.4594 7.63866C10.1408 7.91176 10.1408 8.40336 10.1939 8.84034L10.3001 9.65966C10.3001 9.87815 10.247 10.042 10.0877 10.1513C10.0877 10.1513 10.0346 10.2059 9.98149 10.2059L10.0346 10.8613Z" fill="#E40000"/>
</g>
<defs>
<clipPath id="clip0">
<rect width="12" height="13" fill="white" transform="translate(6 6)"/>
</clipPath>
</defs>
</svg>
