<svg width="23" height="17" viewBox="0 0 23 17" fill="none" xmlns="http://www.w3.org/2000/svg">
<path d="M20.5 16.6H2.4C1.1 16.6 0 15.5 0 14.2V2.4C0 1.1 1.1 0 2.4 0H20.6C21.9 0 23 1.1 23 2.4V14.3C22.9 15.5 21.8 16.6 20.5 16.6ZM2.4 2C2.2 2 2 2.2 2 2.4V14.3C2 14.5 2.2 14.7 2.4 14.7H20.6C20.8 14.7 21 14.5 21 14.3V2.4C21 2.2 20.8 2 20.6 2H2.4Z" fill="#223333"/>
<path d="M20.4996 16.1H2.39962C1.59962 16.1 0.899624 15.6 0.699624 14.9C0.599624 14.7 0.699625 14.5 0.799625 14.3L7.79962 8C7.99962 7.8 8.29962 7.8 8.49962 8C8.69962 8.2 8.69962 8.5 8.49962 8.7L1.69962 14.7C1.89962 14.9 2.09962 15 2.29962 15H20.4996C20.6996 15 20.9996 14.9 21.0996 14.7L14.1996 8.6C13.9996 8.4 13.9996 8.1 14.1996 7.9C14.3996 7.7 14.6996 7.7 14.8996 7.9L22.0996 14.3C22.2996 14.4 22.2996 14.7 22.1996 14.8C21.9996 15.6 21.2996 16.1 20.4996 16.1Z" fill="#223333"/>
<path d="M11.3996 11.6C11.2996 11.6 11.1996 11.6 11.0996 11.5L0.799609 2.3C0.599609 2.1 0.599609 1.9 0.599609 1.7C0.899609 1 1.59961 0.5 2.29961 0.5H20.4996C21.2996 0.5 21.9996 1 22.1996 1.7C22.2996 1.9 22.1996 2.1 22.0996 2.2L11.7996 11.4C11.6996 11.6 11.5996 11.6 11.3996 11.6ZM1.69961 1.8L11.3996 10.5L21.0996 1.8C20.8996 1.6 20.6996 1.5 20.4996 1.5H2.39961C2.09961 1.5 1.89961 1.6 1.69961 1.8Z" fill="#223333"/>
</svg>
