<svg width="33" height="40" viewBox="0 0 33 40" fill="none" xmlns="http://www.w3.org/2000/svg">
<path d="M22.0525 39.2157C21.5833 39.2157 21.2705 38.902 21.2705 38.4314V29.0196C21.2705 28.549 21.5833 28.2353 22.0525 28.2353H31.4364C31.9056 28.2353 32.2184 28.549 32.2184 29.0196C32.2184 29.4902 31.9056 29.8039 31.4364 29.8039H22.8345V38.4314C22.8345 38.902 22.5217 39.2157 22.0525 39.2157Z" fill="#E6E5EB"/>
<path d="M22.0519 40H5.94289C5.0045 40 4.37891 39.3726 4.37891 38.4314V6.27451C4.37891 5.33334 5.0045 4.70589 5.94289 4.70589H31.4358C32.3742 4.70589 32.9998 5.33334 32.9998 6.27451V29.0196C32.9998 29.4902 32.8434 29.8039 32.5306 30.1177L23.1467 39.5294C22.9903 39.8431 22.5211 40 22.0519 40ZM7.50687 36.8628H21.4263L29.8718 28.3922V7.84314H7.50687V36.8628Z" fill="#E6E5EB"/>
<path d="M20.488 13.0196H11.2605C10.7913 13.0196 10.4785 12.549 10.4785 12.2353C10.4785 11.7647 10.7913 11.451 11.2605 11.451H20.488C20.9572 11.451 21.27 11.7647 21.27 12.2353C21.27 12.549 20.8008 13.0196 20.488 13.0196Z" fill="#E6E5EB"/>
<path d="M26.4311 16.7843H11.2605C10.7913 16.7843 10.4785 16.4706 10.4785 16C10.4785 15.5294 10.7913 15.2157 11.2605 15.2157H26.5875C27.0567 15.2157 27.3695 15.5294 27.3695 16C27.2131 16.4706 26.9003 16.7843 26.4311 16.7843Z" fill="#E6E5EB"/>
<path d="M26.4311 20.549H11.2605C10.7913 20.549 10.4785 20.2353 10.4785 19.7647C10.4785 19.2941 10.7913 18.9804 11.2605 18.9804H26.5875C27.0567 18.9804 27.3695 19.2941 27.3695 19.7647C27.2131 20.2353 26.9003 20.549 26.4311 20.549Z" fill="#E6E5EB"/>
<path d="M17.6728 24.3137H11.2605C10.7913 24.3137 10.4785 24 10.4785 23.5294C10.4785 23.0588 10.7913 22.7451 11.2605 22.7451H17.6728C18.142 22.7451 18.4548 23.0588 18.4548 23.5294C18.4548 24 17.9856 24.3137 17.6728 24.3137Z" fill="#E6E5EB"/>
<path d="M15.7966 7.52941H6.5691C6.09991 7.52941 5.78711 7.21569 5.78711 6.7451C5.78711 6.27451 6.09991 5.96078 6.5691 5.96078H15.7966C16.2658 5.96078 16.5786 6.27451 16.5786 6.7451C16.5786 7.21569 16.1094 7.52941 15.7966 7.52941Z" fill="#E6E5EB"/>
<path d="M1.56398 36.2353C0.625592 36.2353 0 35.6078 0 34.6667V3.13725C0 1.41176 1.40758 0 3.12796 0H27.0569C27.9953 0 28.6209 0.627451 28.6209 1.56863C28.6209 2.5098 27.9953 3.13725 27.0569 3.13725H3.12796V34.6667C3.12796 35.6078 2.50237 36.2353 1.56398 36.2353Z" fill="#E6E5EB"/>
</svg>
