<svg width="15" height="15" viewBox="0 0 15 15" fill="none" xmlns="http://www.w3.org/2000/svg">
<path d="M6.57895 12.8664C2.96053 12.8664 0 9.9569 0 6.40086C0 2.90948 2.96053 0 6.57895 0C10.1974 0 13.1579 2.90948 13.1579 6.46552C13.0921 10.0216 10.1974 12.8664 6.57895 12.8664ZM6.57895 1.2931C3.68421 1.2931 1.31579 3.62069 1.31579 6.46552C1.31579 9.31034 3.68421 11.6379 6.57895 11.6379C9.47368 11.6379 11.8421 9.31034 11.8421 6.46552C11.7763 3.62069 9.47368 1.2931 6.57895 1.2931Z" fill="#E6E5EB"/>
<path d="M2.8952 6.46548H2.2373C2.2373 4.1379 4.21099 2.19824 6.57941 2.19824V2.84479C4.53994 2.84479 2.8952 4.46117 2.8952 6.46548Z" fill="#E6E5EB"/>
<path d="M14.3421 15C14.1447 15 14.0132 14.9353 13.8816 14.806L10.1974 11.1853C9.93421 10.9267 9.93421 10.5388 10.1974 10.2801C10.4605 10.0215 10.8553 10.0215 11.1184 10.2801L14.8026 13.9008C15.0658 14.1595 15.0658 14.5474 14.8026 14.806C14.7368 14.9353 14.5395 15 14.3421 15Z" fill="#E6E5EB"/>
</svg>
