<svg width="24" height="24" viewBox="0 0 24 24" fill="none" xmlns="http://www.w3.org/2000/svg">
<path d="M18.2997 23.2C13.7997 23.2 9.19967 21.1 5.69967 17.6L5.59967 17.5C1.89967 13.8 -0.100329 9.1 -0.000329404 4.6V4.3L0.199671 4C0.499671 3.6 0.799671 3.2 1.19967 2.9C2.39967 1.7 3.79967 0.8 5.39967 0.1C5.59967 0 5.79967 0 6.09967 0C6.59967 0 7.89967 0.3 8.19967 1.1C8.69967 2.6 9.39967 4.6 9.89967 6.5C9.99967 7 9.89967 8.3 9.09967 8.8L7.39967 9.9C7.39967 9.9 7.39967 10.2 7.59967 10.5C8.29967 11.4 9.09967 12.4 9.99967 13.3C10.8997 14.2 11.7997 15 12.6997 15.6C12.8997 15.7 13.0997 15.8 13.2997 15.8L13.8997 14.9L14.4997 14C14.9997 13.2 16.1997 13.2 16.3997 13.2C16.4997 13.2 16.6997 13.2 16.7997 13.2C19.0997 13.7 20.4997 14.2 22.2997 15C23.0997 15.4 23.5997 16.8 23.1997 17.7C22.5997 19.3 21.6997 20.7 20.3997 21.9C20.0997 22.2 19.6997 22.6 19.2997 22.9L18.9997 23.2H18.2997ZM1.99967 5C1.99967 8.9 3.89967 13 6.99967 16.2L7.09967 16.3C10.2997 19.5 14.2997 21.3 18.1997 21.3C18.3997 21.1 18.6997 20.9 18.8997 20.7C19.8997 19.7 20.6997 18.5 21.1997 17.2C21.1997 17.2 21.0997 17.1 21.0997 17C19.5997 16.3 18.2997 15.9 16.1997 15.4C16.0997 15.4 15.9997 15.4 15.9997 15.4L14.9997 17C14.3997 18 12.6997 18.2 11.4997 17.3C10.4997 16.6 9.49967 15.7 8.49967 14.8C7.49967 13.8 6.69967 12.8 5.89967 11.8C5.49967 11 5.29967 10.2 5.39967 9.5C5.49967 8.9 5.79967 8.5 6.29967 8.2L7.89967 7.2C7.89967 7.1 7.89967 7 7.89967 6.9C7.49967 5.3 6.89967 3.5 6.29967 2.1C6.29967 2 6.19967 2 6.09967 2C4.79967 2.5 3.59967 3.3 2.59967 4.3C2.39967 4.5 2.19967 4.7 1.99967 5Z" fill="#223333"/>
</svg>
