<?xml version="1.0" standalone="no"?>
<!DOCTYPE svg PUBLIC "-//W3C//DTD SVG 20010904//EN"
 "http://www.w3.org/TR/2001/REC-SVG-20010904/DTD/svg10.dtd">
<svg version="1.0" xmlns="http://www.w3.org/2000/svg"
 width="1280.000000pt" height="1280.000000pt" viewBox="0 0 1280.000000 1280.000000"
 preserveAspectRatio="xMidYMid meet">
<g transform="translate(0.000000,1280.000000) scale(0.100000,-0.100000)"
fill="#000000" stroke="none">
<path d="M5461 11990 c-46 -10 -94 -21 -108 -25 -28 -7 -113 -82 -113 -100 0
-7 -15 -46 -34 -86 -30 -65 -45 -83 -124 -151 -49 -42 -122 -114 -161 -160
-69 -82 -73 -84 -163 -118 -51 -19 -104 -40 -118 -47 -14 -7 -33 -13 -42 -13
-9 0 -20 -4 -23 -10 -3 -5 -13 -10 -22 -10 -8 0 -153 -68 -322 -151 -360 -178
-344 -170 -536 -249 -317 -130 -369 -153 -650 -291 -159 -78 -319 -162 -355
-188 -164 -116 -239 -177 -256 -210 -11 -20 -30 -56 -44 -81 -28 -51 -48 -99
-60 -150 -5 -19 -16 -57 -24 -85 -41 -137 -49 -166 -62 -235 -8 -41 -19 -104
-24 -140 -4 -36 -23 -150 -40 -255 -17 -104 -35 -221 -40 -260 -11 -83 -38
-322 -44 -385 -2 -25 -12 -103 -20 -175 -9 -71 -21 -173 -26 -225 -9 -92 -22
-178 -40 -270 -5 -25 -18 -115 -30 -200 -12 -85 -28 -190 -36 -233 -7 -42 -14
-91 -14 -108 0 -17 -5 -39 -10 -50 -6 -11 -24 -83 -40 -161 -29 -138 -30 -147
-23 -331 l6 -189 91 -42 c61 -29 122 -48 186 -60 52 -9 114 -21 137 -26 22 -6
70 -14 105 -19 34 -6 128 -21 208 -35 406 -69 835 -85 918 -34 18 11 39 30 47
42 18 28 93 450 116 651 5 53 14 106 18 118 l8 21 12 -22 c6 -12 18 -54 26
-94 7 -40 21 -111 30 -158 9 -47 23 -116 31 -155 9 -38 20 -88 24 -110 4 -22
15 -74 24 -115 26 -119 47 -239 56 -322 5 -43 13 -110 19 -150 6 -40 18 -127
27 -193 29 -218 44 -319 59 -405 8 -47 24 -139 35 -205 11 -66 25 -142 31
-170 12 -58 5 -573 -11 -815 -10 -156 -26 -447 -40 -725 -5 -82 -17 -238 -29
-345 -32 -295 -61 -689 -61 -819 0 -64 -5 -168 -11 -231 -6 -63 -14 -232 -19
-375 -9 -237 -18 -398 -35 -591 l-6 -71 107 -77 c102 -74 112 -78 243 -115
197 -56 256 -68 451 -91 96 -11 229 -27 295 -36 267 -34 367 -42 554 -43 108
-1 255 -4 326 -7 72 -3 189 0 260 6 72 6 193 15 270 20 77 4 217 13 310 19 94
6 316 16 495 21 239 7 375 17 515 35 105 13 235 30 290 36 56 6 155 28 225 49
69 21 186 55 260 75 135 38 206 70 598 274 155 80 175 114 148 247 -9 43 -23
117 -32 164 -8 47 -20 105 -25 130 -24 113 -40 591 -49 1415 -8 821 -16 1060
-40 1349 -6 70 -9 135 -6 145 3 9 10 153 16 321 6 168 18 388 26 490 8 102 19
250 24 330 10 152 24 332 41 535 5 66 14 179 19 250 5 72 17 202 25 290 8 88
20 212 25 275 19 206 45 393 56 397 12 4 24 -49 45 -192 21 -146 28 -215 38
-368 13 -189 27 -227 94 -256 24 -10 63 -29 87 -41 85 -43 226 -44 630 -4 158
15 238 32 579 119 84 22 155 56 179 89 10 13 -4 610 -17 736 -5 47 -19 157
-30 245 -44 337 -61 485 -76 645 -8 91 -19 195 -25 233 -5 37 -10 98 -10 135
0 37 -5 110 -10 162 -6 52 -15 159 -20 237 -9 128 -23 206 -64 343 -8 25 -23
79 -35 121 -61 214 -218 525 -293 579 -134 98 -223 140 -453 215 -126 42 -313
98 -415 125 -102 28 -212 58 -245 66 -76 21 -631 193 -659 205 -12 4 -88 31
-169 59 -82 28 -205 78 -273 111 -125 60 -125 60 -185 142 -63 85 -108 166
-166 302 -47 110 -118 183 -232 236 l-84 40 -376 -3 c-690 -5 -1063 -2 -1131
10 -36 6 -146 13 -245 16 -151 4 -194 2 -264 -14z"/>
</g>
</svg>
