<svg width="70" height="82" viewBox="0 0 70 82" fill="none" xmlns="http://www.w3.org/2000/svg">
<g id="006-shield">
<path id="Shape" fill-rule="evenodd" clip-rule="evenodd" d="M19 41.4997C19 32.9532 26.1775 26 35.0003 26C43.8225 26 51 32.9532 51 41.4997C51 50.0468 43.8225 57 35.0003 57C26.1775 57 19 50.0468 19 41.4997ZM33.0373 49.6849L44.4997 38.5807C45.462 37.6485 45.462 36.1372 44.4997 35.2056C43.5374 34.2734 41.9773 34.2734 41.0157 35.2056L31.2946 44.6222L28.6563 42.0664C27.694 41.1341 26.134 41.1341 25.1723 42.0664C24.21 42.9986 24.21 44.5099 25.1723 45.4415L29.5526 49.6849C30.0338 50.1517 30.6642 50.3844 31.2946 50.3844C31.9251 50.3844 32.5561 50.151 33.0373 49.6849Z" fill="#89C200"/>
<path id="Shape_2" fill-rule="evenodd" clip-rule="evenodd" d="M69.9159 22.1849L69.9184 22.2487C70.1016 31.8806 70.3292 43.8679 66.3016 54.7604C64.0934 60.7337 60.7519 65.9262 56.3706 70.1948C51.3828 75.0539 44.851 78.9139 36.957 81.6678C36.6986 81.7579 36.4296 81.8311 36.1574 81.8855C35.7742 81.9618 35.3872 82 35.0009 82C34.6146 82 34.2282 81.9618 33.8444 81.8855C33.5722 81.8311 33.3051 81.7585 33.0479 81.6691C25.1445 78.9201 18.6058 75.062 13.6136 70.2023C9.23045 65.935 5.88896 60.7437 3.68263 54.7716C-0.329913 43.9117 -0.101628 31.9469 0.0821282 22.3332L0.0858911 22.1849C0.121639 21.3916 0.146098 20.5583 0.159896 19.6374C0.227001 15.1155 3.83064 11.3756 8.36309 11.1235C17.8143 10.5967 25.1257 7.52248 31.3728 1.44844L31.4261 1.39777C33.4644 -0.465922 36.5381 -0.465922 38.5757 1.39777L38.629 1.44844C44.8761 7.52248 52.1875 10.5967 61.6387 11.1229C66.1718 11.3756 69.7748 15.1155 69.8419 19.6368C69.8563 20.5639 69.8802 21.3972 69.9159 22.1849ZM14.5136 41.0013C14.5136 52.2698 23.7033 61.4369 34.9996 61.4369C46.2954 61.4369 55.4857 52.2698 55.4857 41.0013C55.4857 29.7329 46.2954 20.5658 34.9996 20.5658C23.7033 20.5658 14.5136 29.7329 14.5136 41.0013Z" fill="#89C200"/>
</g>
</svg>
