<svg width="78" height="78" viewBox="0 0 78 78" fill="none" xmlns="http://www.w3.org/2000/svg">
<g id="001-stack">
<path id="Path" d="M75.5625 78H62.5625C61.217 78 60.125 76.908 60.125 75.5625V71.5H50.375V75.5625C50.375 76.908 49.283 78 47.9375 78H30.0625C28.717 78 27.625 76.908 27.625 75.5625V71.5H17.875V75.5625C17.875 76.908 16.783 78 15.4375 78H2.4375C1.092 78 0 76.908 0 75.5625V65H78V75.5625C78 76.908 76.908 78 75.5625 78Z" fill="#89C200"/>
<path id="Path_2" d="M51.8 0H42.2V6.5C42.2 8.294 40.7664 9.75 39 9.75C37.2336 9.75 35.8 8.294 35.8 6.5V0H26.2C24.4336 0 23 1.456 23 3.25V22.75C23 24.544 24.4336 26 26.2 26H51.8C53.5664 26 55 24.544 55 22.75V3.25C55 1.456 53.5664 0 51.8 0Z" fill="#89C200"/>
<path id="Path_3" d="M31.8 32H22.2V38.5C22.2 40.294 20.7664 41.75 19 41.75C17.2336 41.75 15.8 40.294 15.8 38.5V32H6.2C4.4336 32 3 33.456 3 35.25V54.75C3 56.544 4.4336 58 6.2 58H31.8C33.5664 58 35 56.544 35 54.75V35.25C35 33.456 33.5664 32 31.8 32Z" fill="#89C200"/>
<path id="Path_4" d="M70.8 32H61.2V38.5C61.2 40.294 59.7664 41.75 58 41.75C56.2336 41.75 54.8 40.294 54.8 38.5V32H45.2C43.4336 32 42 33.456 42 35.25V54.75C42 56.544 43.4336 58 45.2 58H70.8C72.5664 58 74 56.544 74 54.75V35.25C74 33.456 72.5664 32 70.8 32Z" fill="#89C200"/>
</g>
</svg>
