<svg width="100" height="59" viewBox="0 0 100 59" fill="none" xmlns="http://www.w3.org/2000/svg">
<path d="M24.1666 4.71346C20.8332 1.38007 6.6666 0.546863 2.0832 0.130066C1.6666 0.130066 1.2498 0.130066 0.833203 0.546667C0.416602 0.963464 0 1.79686 0 2.21346V39.7135C0 40.9635 0.833398 41.7969 2.0834 41.7969H14.5834C15.4168 41.7969 16.25 41.3803 16.6668 40.5469C16.6668 39.2969 24.1668 17.2135 25.0002 6.38026C25 5.96346 25 5.13026 24.1666 4.71346Z" fill="#89C200"/>
<path d="M68.75 14.7135C64.5834 13.4635 60.8334 11.7969 57.5 10.5469C50 7.21347 46.6666 8.88027 40 15.5469C37.0834 18.4635 35 22.6303 35.4166 24.2969C35.4166 24.7135 35.4166 24.7135 36.25 25.1303C38.3334 25.9637 41.25 26.3803 44.1666 21.7969C44.5832 21.3803 45 20.9635 45.8332 20.9635C47.0832 20.9635 47.4998 20.5469 48.7498 20.1301C49.5832 19.7135 50.4164 19.2967 51.6664 18.8801C52.083 18.8801 52.083 18.8801 52.4998 18.8801C52.9164 18.8801 53.7498 19.2967 54.1664 19.2967C56.25 21.3803 60 24.2969 63.75 27.6303C69.5834 32.2137 75.4166 37.2137 78.3334 40.9637H78.75C75.8334 32.6303 70.8334 18.4635 68.75 14.7135Z" fill="#89C200"/>
<path d="M97.9166 4.29688C81.6666 4.29688 72.5 8.46348 72.0832 8.46348C71.6666 8.88008 71.2498 9.29688 70.8332 9.71348C70.8332 10.1301 70.8332 10.9635 71.2498 11.3801C73.7498 15.5467 82.0832 38.4635 83.3332 44.2967C83.7498 45.1301 84.5832 45.9633 85.4166 45.9633H97.9166C99.1666 45.9633 100 45.1299 100 43.8799V6.37988C100 5.13027 99.1666 4.29688 97.9166 4.29688Z" fill="#89C200"/>
<path d="M75.4166 45.1302C73.75 41.3802 66.6666 35.9636 60.4166 30.9636C57.0834 28.0469 53.75 25.5469 51.25 23.4635C50.8334 23.8801 50 23.8801 50 24.2969C48.75 24.7135 48.3334 25.1302 46.6666 25.1302C43.3334 29.2969 39.1666 30.9635 34.5834 29.2969C32.5 28.8802 31.25 27.2135 30.8334 25.5469C30 21.3802 33.75 15.5469 36.6668 12.6302H28.3334C26.6668 20.9636 23.75 31.7969 21.6668 37.6302C23.3334 39.2969 25.0002 41.3802 26.2502 42.2136C34.1668 48.8802 43.3336 55.547 45.0002 56.797C46.2502 57.6304 48.7502 58.4636 50.0002 58.4636C50.4168 58.4636 50.8336 58.4636 51.2502 58.4636L44.5834 51.7969C43.75 50.9635 43.75 49.7135 44.5834 48.8802C45.4168 48.047 46.6668 48.0469 47.5 48.8802L55.8334 57.2136C56.6668 58.047 57.5 57.6302 58.3334 57.6302C59.5834 57.2136 60 56.3802 60.4168 55.1302L50.8334 45.5469C50 44.7135 50 43.4635 50.8334 42.6302C51.6668 41.797 52.9168 41.7969 53.75 42.6302L64.1666 53.0469C64.5832 53.4635 66.25 53.4635 67.5 53.0469C67.9166 52.6302 68.75 52.2135 69.1666 51.3802L57.5 39.7135C56.6666 38.8801 56.6666 37.6301 57.5 36.7969C58.3334 35.9636 59.5834 35.9635 60.4166 36.7969L72.5 48.8802C73.3334 49.2969 74.1666 48.8802 75 48.4636C75.4166 48.0468 76.25 46.7969 75.4166 45.1302Z" fill="#89C200"/>
</svg>
