<svg width="77" height="87" viewBox="0 0 77 87" fill="none" xmlns="http://www.w3.org/2000/svg">
<g id="009-megaphone">
<path id="Path" d="M74.5092 36.325L40.6775 2.48446C38.6822 0.493843 35.4545 0.517395 33.4853 2.48191C31.5049 4.46761 31.5049 7.69177 33.4853 9.67493L67.322 43.5131C69.3042 45.4956 72.5268 45.4956 74.5092 43.5131C76.4969 41.5252 76.4969 38.3126 74.5092 36.325Z" fill="#89C200"/>
<path id="Path_2" d="M30.3113 15L30.0565 16.2739C28.2617 25.2282 23.8997 33.7349 18 40.6296L36.4186 59C43.3306 53.1169 51.7422 48.6496 60.7204 46.8573L62 46.6032L30.3113 15Z" fill="#89C200"/>
<path id="Shape" fill-rule="evenodd" clip-rule="evenodd" d="M2.24879 55.6612L14.912 43L33 61.0886L20.338 73.7512C17.3334 76.7557 12.4757 76.7435 9.4835 73.7512L2.24879 66.5162C-0.755817 63.5114 -0.743367 58.6535 2.24879 55.6612ZM13.1034 62.8988C14.1026 63.8981 15.7216 63.8981 16.7208 62.8988L20.3381 59.2813C21.3373 58.282 21.3373 56.663 20.3381 55.6638C19.3389 54.6645 17.72 54.6645 16.7208 55.6638L13.1034 59.2813C12.1042 60.2805 12.1042 61.8996 13.1034 62.8988Z" fill="#89C200"/>
<path id="Path_3" d="M42.4901 75.3386L45.8364 71.7722C48.7259 68.6933 48.7164 63.7149 45.8366 60.6509L43.3511 58C41.9772 58.9835 40.6653 60.0521 39.3897 61.1923L42.358 64.3606C43.3166 65.3769 43.3233 67.031 42.358 68.0652L38.9564 71.6904L33.9574 66.5287L27 73.9435L38.1612 85.4697C40.0659 87.5048 43.1931 87.5163 45.1158 85.467C47.0353 83.4214 47.0353 80.0957 45.1158 78.0499L42.4901 75.3386Z" fill="#89C200"/>
<path id="Path_4" d="M54.5 0C53.1182 0 52 1.11817 52 2.5V7.5C52 8.88183 53.1182 10 54.5 10C55.8818 10 57 8.88183 57 7.5V2.5C57 1.11817 55.8818 0 54.5 0Z" fill="#89C200"/>
<path id="Path_5" d="M74.5 20H69.5C68.1182 20 67 21.1182 67 22.5C67 23.8818 68.1182 25 69.5 25H74.5C75.8818 25 77 23.8818 77 22.5C77 21.1182 75.8818 20 74.5 20Z" fill="#89C200"/>
<path id="Path_6" d="M70.2676 5.73238C69.2911 4.75587 67.7089 4.75587 66.7324 5.73238L61.7324 10.7324C60.7559 11.7089 60.7559 13.2911 61.7324 14.2676C62.7089 15.2441 64.2911 15.2442 65.2676 14.2676L70.2676 9.26755C71.2441 8.29105 71.2441 6.70888 70.2676 5.73238Z" fill="#89C200"/>
</g>
</svg>
