<svg width="78" height="80" viewBox="0 0 78 80" fill="none" xmlns="http://www.w3.org/2000/svg">
<g id="Group 5">
<g id="002-hand-shake copy">
<path id="Path" d="M18.8499 37.6749C16.2499 35.076 5.19995 34.4264 1.6249 34.1014C1.29995 34.1014 0.974848 34.1014 0.649898 34.4262C0.324949 34.7512 0 35.401 0 35.7258V64.9631C0 65.9377 0.650051 66.5874 1.62505 66.5874H11.3751C12.0251 66.5874 12.675 66.2626 13.0001 65.6128C13.0001 64.6383 18.8501 47.4207 19.5002 38.9745C19.5 38.6495 19.5 37.9999 18.8499 37.6749Z" fill="#89C200"/>
<path id="Path_2" d="M53.625 45.4715C50.3751 44.4969 47.4501 43.1975 44.85 42.223C39 39.624 36.4 40.9236 31.2 46.1213C28.9251 48.3952 27.3 51.6439 27.625 52.9433C27.625 53.2681 27.625 53.2681 28.275 53.5931C29.9001 54.2428 32.175 54.5677 34.45 50.9942C34.7749 50.6693 35.1 50.3444 35.7499 50.3444C36.7249 50.3444 37.0499 50.0196 38.0249 49.6946C38.6749 49.3698 39.3248 49.0449 40.2998 48.72C40.6248 48.72 40.6248 48.72 40.9499 48.72C41.2748 48.72 41.9249 49.0449 42.2498 49.0449C43.875 50.6693 46.8 52.9433 49.725 55.5422C54.2751 59.1157 58.825 63.014 61.1001 65.9378H61.425C59.1501 59.4405 55.2501 48.3952 53.625 45.4715Z" fill="#89C200"/>
<path id="Path_3" d="M76.3749 37.3501C63.6999 37.3501 56.55 40.5986 56.2249 40.5986C55.8999 40.9234 55.5748 41.2484 55.2499 41.5732C55.2499 41.898 55.2499 42.5478 55.5748 42.8726C57.5248 46.1211 64.0249 63.9885 64.9999 68.5364C65.3248 69.1862 65.9749 69.8358 66.6249 69.8358H76.3749C77.3499 69.8358 78 69.186 78 68.2114V38.9741C78 37.9999 77.3499 37.3501 76.3749 37.3501Z" fill="#89C200"/>
<path id="Path_4" d="M58.8249 69.1863C57.525 66.2626 51.9999 62.0395 47.1249 58.1412C44.525 55.8671 41.925 53.9179 39.975 52.2936C39.65 52.6184 39 52.6184 39 52.9433C38.025 53.2682 37.7 53.5931 36.3999 53.5931C33.8 56.8417 30.5499 58.141 26.975 56.8417C25.35 56.5168 24.375 55.2173 24.05 53.9179C23.4 50.6694 26.325 46.1213 28.6001 43.8474H22.1C20.8001 50.3446 18.525 58.7908 16.9001 63.3389C18.2 64.6383 19.5001 66.2626 20.4751 66.9124C26.6501 72.1101 33.8002 77.3079 35.1001 78.2825C36.0751 78.9323 38.0251 79.5819 39.0001 79.5819C39.3251 79.5819 39.6502 79.5819 39.9751 79.5819L34.775 74.384C34.125 73.7343 34.125 72.7597 34.775 72.1101C35.4251 71.4604 36.4001 71.4603 37.05 72.1101L43.55 78.6073C44.2001 79.2571 44.85 78.9321 45.5 78.9321C46.475 78.6073 46.8 77.9575 47.1251 76.9829L39.65 69.5111C39 68.8614 39 67.8868 39.65 67.2372C40.3001 66.5876 41.2751 66.5874 41.925 67.2372L50.0499 75.3586C50.3749 75.6834 51.675 75.6834 52.65 75.3586C52.9749 75.0338 53.625 74.7088 53.9499 74.0592L44.85 64.9631C44.1999 64.3133 44.1999 63.3387 44.85 62.6891C45.5 62.0395 46.475 62.0393 47.1249 62.6891L56.55 72.1101C57.2 72.4349 57.8499 72.1101 58.5 71.7853C58.8249 71.4603 59.475 70.4857 58.8249 69.1863Z" fill="#89C200"/>
</g>
<g id="003-beer-factory">
<path id="Path_5" d="M13.2222 23.3333H17.8889V28H13.2222V23.3333Z" fill="#89C200"/>
<path id="Path_6" d="M10.1111 16.3333H14V17.8889H10.1111V16.3333Z" fill="#89C200"/>
<path id="Path_7" d="M4.66669 16.3333H8.55558V17.8889H4.66669V16.3333Z" fill="#89C200"/>
<path id="Shape" fill-rule="evenodd" clip-rule="evenodd" d="M11.3838 28H0V13.2222H17.8889V21.4321H11.3838V28ZM14.6364 14.8642H3.25253V19.7901H14.6364V14.8642Z" fill="#89C200"/>
<path id="Path_8" d="M3.88889 5.50624L0 3.88892V11.6667H3.88889V5.50624Z" fill="#89C200"/>
<path id="Path_9" d="M8.55558 5.50624L4.66669 3.88892V11.6667H8.55558V5.50624Z" fill="#89C200"/>
<path id="Path_10" d="M10.1111 11.6667H17.8889V7.93226L10.1111 3.88892V11.6667Z" fill="#89C200"/>
<path id="Shape_2" fill-rule="evenodd" clip-rule="evenodd" d="M28 28H20.2222V17.1111H28V28ZM24.8889 18.7863H23.3333V24.6495H24.8889V18.7863Z" fill="#89C200"/>
<path id="Path_11" d="M14.8889 1.68598H23.2222V9.33333C23.7766 9.25274 24.3337 9.25263 24.8889 9.33333V0H13.2222V3.69392L14.8889 4.5369V1.68598Z" fill="#89C200"/>
<path id="Path_12" d="M24.1111 10.8889C21.9668 10.8889 20.2222 12.6335 20.2222 14.7778V15.5556H28V14.7778C28 12.6335 26.2555 10.8889 24.1111 10.8889Z" fill="#89C200"/>
</g>
<g id="004-factory">
<path id="Path_13" d="M49.4794 11.8421L48 30H56.6842L54.7117 11.8421H49.4794Z" fill="#89C200"/>
<path id="Path_14" d="M50.5728 7.89471L50.3684 10.2631H55.1053L54.8328 7.89471H50.5728Z" fill="#89C200"/>
<path id="Shape_3" fill-rule="evenodd" clip-rule="evenodd" d="M70.7388 18.2544L75.5437 12.6316H78V30H58.0701L57.4959 24.7895H60.0575V23.0526H57.3045L56.6842 17.4231L60.7618 12.6316H63.2192V18.5251L68.2841 12.6316H70.7388V18.2544ZM61.8517 24.7895H65.4402V23.0526H61.8517V24.7895ZM70.823 24.7895H67.2345V23.0526H70.823V24.7895ZM72.6172 24.7895H76.2057V23.0526H72.6172V24.7895Z" fill="#89C200"/>
<path id="Path_15" d="M55.5595 5.3863L56.1479 11.0526C57.0544 10.9696 57.9181 10.6147 58.6289 10.0375C59.4269 10.5151 60.3421 10.7726 61.2714 10.7726C62.7175 10.7726 64.0868 10.1591 65.0694 9.09932C65.6977 9.41268 66.3865 9.57565 67.0982 9.57565C68.1226 9.57565 69.1169 9.22506 69.9234 8.59474C70.5972 9.03821 71.3815 9.27641 72.1966 9.27641C74.526 9.27641 76.4211 7.32998 76.4211 4.93744C76.4211 2.54491 74.526 0.598478 72.1966 0.598478C71.47 0.598478 70.7592 0.791727 70.1323 1.15255C69.2938 0.412651 68.2239 0 67.0982 0C66.0764 0 65.0854 0.348314 64.2804 0.97498C63.4038 0.341731 62.3605 0 61.2714 0C59.7635 0 58.3496 0.660121 57.3616 1.79705C56.8435 1.59895 56.2924 1.49619 55.7359 1.49619C53.4644 1.49619 51.5683 3.17409 51.1579 5.3863H55.5595Z" fill="#89C200"/>
</g>
</g>
</svg>
