<svg width="100" height="68" viewBox="0 0 100 68" fill="none" xmlns="http://www.w3.org/2000/svg">
<g id="005-delivery-truck">
<path id="Path" d="M0 52.3377C0 53.3511 0.719164 54.1464 1.74543 54.1464H4.53219C6.40469 50.068 10.6679 46.9819 15.618 46.9819C20.5683 46.9819 24.8306 50.068 26.7041 54.1464H62.9268V39.5122H0V52.3377Z" fill="#89C200"/>
<path id="Path_2" d="M15.6098 50.7317C11.0298 50.7317 7.31708 54.4444 7.31708 59.0244C7.31708 63.6044 11.0298 67.3171 15.6098 67.3171C20.1875 67.3119 23.8973 63.6021 23.9024 59.0244C23.9024 54.4446 20.1897 50.7317 15.6098 50.7317Z" fill="#89C200"/>
<path id="Path_3" d="M98.9336 33.2081L91.1375 29.7561H66.8293V54.1463H71.5476C73.4148 50 77.6619 46.8624 82.5948 46.8624C87.5276 46.8624 91.776 50 93.642 54.1463H98.2596C99.2822 54.1463 99.9989 53.3378 99.9989 52.3076V34.9822C100.025 34.2302 99.6067 33.5342 98.9336 33.2081Z" fill="#89C200"/>
<path id="Path_4" d="M83.0738 16.182C82.1039 14.3028 80.1672 13.1378 78.0697 13.1714H66.8293V26.3414H88.2927L83.0738 16.182Z" fill="#89C200"/>
<path id="Path_5" d="M57.3471 0H5.55016C2.42595 0 0 2.56439 0 5.67939V35.6098H62.9264V5.67939C62.9264 5.67067 62.9266 5.66195 62.9266 5.65323C62.9517 2.55615 60.4536 0.0249511 57.3471 0Z" fill="#89C200"/>
<path id="Path_6" d="M82.4388 50.7317C77.8588 50.7319 74.1461 54.4446 74.1463 59.0246C74.1466 63.6046 77.8593 67.3173 82.4393 67.3171C87.017 67.3119 90.7265 63.6021 90.7317 59.0244V59.0241C90.7315 54.4444 87.0188 50.7317 82.4388 50.7317Z" fill="#89C200"/>
</g>
</svg>
