<svg width="26" height="35" viewBox="0 0 26 35" fill="none" xmlns="http://www.w3.org/2000/svg">
<path d="M18.9167 2.25H16.5637C16.1173 0.9405 14.9127 0 13.5 0C12.0873 0 10.8827 0.9405 10.4342 2.25H8.08333C7.48533 2.25 7 2.754 7 3.375V7.875C7 8.496 7.48533 9 8.08333 9H18.9167C19.5147 9 20 8.496 20 7.875V3.375C20 2.754 19.5147 2.25 18.9167 2.25Z" fill="#919191"/>
<path fill-rule="evenodd" clip-rule="evenodd" d="M23.8333 5H21.6667V8.21429C21.6667 9.98643 20.2085 11.4286 18.4167 11.4286H7.58333C5.7915 11.4286 4.33333 9.98643 4.33333 8.21429V5H2.16667C0.972833 5 0 5.96214 0 7.14286V32.8571C0 34.0593 0.951167 35 2.16667 35H23.8333C25.0488 35 26 34.0593 26 32.8571V7.14286C26 5.94071 25.0488 5 23.8333 5ZM12.6837 23.9729L8.35033 28.2586C8.138 28.4664 7.86067 28.5714 7.58333 28.5714C7.306 28.5714 7.02867 28.4664 6.81633 28.2586L4.64967 26.1157C4.22717 25.6979 4.22717 25.0186 4.64967 24.6007C5.07217 24.1829 5.759 24.1829 6.1815 24.6007L7.58333 25.985L11.1497 22.4579C11.5722 22.04 12.259 22.04 12.6815 22.4579C13.104 22.8757 13.1062 23.5529 12.6837 23.9729ZM8.35033 19.6871L12.6837 15.4014C13.1062 14.9814 13.104 14.3043 12.6815 13.8864C12.259 13.4686 11.5722 13.4686 11.1497 13.8864L7.58333 17.4136L6.1815 16.0293C5.759 15.6114 5.07217 15.6114 4.64967 16.0293C4.22717 16.4471 4.22717 17.1264 4.64967 17.5443L6.81633 19.6871C7.02867 19.895 7.306 20 7.58333 20C7.86067 20 8.138 19.895 8.35033 19.6871ZM20.5833 26.4286H16.25C15.652 26.4286 15.1667 25.9486 15.1667 25.3571C15.1667 24.7657 15.652 24.2857 16.25 24.2857H20.5833C21.1813 24.2857 21.6667 24.7657 21.6667 25.3571C21.6667 25.9486 21.1813 26.4286 20.5833 26.4286ZM16.25 17.8571H20.5833C21.1813 17.8571 21.6667 17.3771 21.6667 16.7857C21.6667 16.1943 21.1813 15.7143 20.5833 15.7143H16.25C15.652 15.7143 15.1667 16.1943 15.1667 16.7857C15.1667 17.3771 15.652 17.8571 16.25 17.8571Z" fill="#919191"/>
</svg>
