<svg width="32" height="30" viewBox="0 0 32 30" fill="none" xmlns="http://www.w3.org/2000/svg">
<path d="M10.4444 5H6.88889C6.39799 5 6 5.41975 6 5.9375C6 6.45525 6.39799 6.875 6.88889 6.875H10.4444C10.9353 6.875 11.3333 6.45525 11.3333 5.9375C11.3333 5.41975 10.9353 5 10.4444 5Z" fill="#F7B500"/>
<path d="M10.4444 10.625H6.88889C6.39799 10.625 6 11.0447 6 11.5625C6 12.0803 6.39799 12.5 6.88889 12.5H10.4444C10.9353 12.5 11.3333 12.0803 11.3333 11.5625C11.3333 11.0447 10.9353 10.625 10.4444 10.625Z" fill="#F7B500"/>
<path d="M12.4317 15.625H6.90164C6.40369 15.625 6 16.0447 6 16.5625C6 17.0803 6.40369 17.5 6.90164 17.5H12.4317C12.9296 17.5 13.3333 17.0803 13.3333 16.5625C13.3333 16.0447 12.9296 15.625 12.4317 15.625Z" fill="#F7B500"/>
<path d="M23.0729 20.625H6.26053C5.74849 20.625 5.33337 21.0447 5.33337 21.5625C5.33337 22.0803 5.74849 22.5 6.26053 22.5H23.0729C23.5849 22.5 24 22.0803 24 21.5625C24 21.0447 23.5849 20.625 23.0729 20.625Z" fill="#F7B500"/>
<path fill-rule="evenodd" clip-rule="evenodd" d="M4.6875 0H27.3125C29.8972 0 32 1.97139 32 4.39453V6.15234C32 6.63773 31.5802 7.03125 31.0625 7.03125H28.25V26.4844C28.25 28.4229 26.5677 30 24.5 30H3.75C1.68225 30 0 28.4229 0 26.4844V25.6055C0 25.1201 0.41975 24.7266 0.9375 24.7266H1.875V2.63672C1.875 1.18283 3.13669 0 4.6875 0ZM1.875 26.4844C1.875 27.4536 2.71613 28.2422 3.75 28.2422H21.2533C20.9334 27.7248 20.75 27.1242 20.75 26.4844H1.875ZM26.375 6.15234V26.4844C26.375 27.4536 25.5339 28.2422 24.5 28.2422C23.4661 28.2422 22.625 27.4536 22.625 26.4844V25.6055C22.625 25.1201 22.2052 24.7266 21.6875 24.7266H3.75V2.63672C3.75 2.15209 4.17056 1.75781 4.6875 1.75781H26.375V6.15234ZM28.25 5.27344H30.125V4.39453C30.125 3.24867 29.3413 2.27115 28.25 1.9084V5.27344Z" fill="#F7B500"/>
<path fill-rule="evenodd" clip-rule="evenodd" d="M19 3.75C15.8754 3.75 13.3334 6.06928 13.3334 8.92004C13.3334 10.4478 14.0637 11.8227 15.2223 12.77V18.5133C15.2223 18.8311 15.414 19.1231 15.7211 19.273C16.0281 19.423 16.4008 19.4065 16.6906 19.2303L19 17.8256L21.3095 19.2303C21.4676 19.3264 21.6502 19.375 21.8334 19.375C21.9862 19.375 22.1394 19.3412 22.279 19.273C22.5861 19.1231 22.7778 18.8311 22.7778 18.5133V12.77C23.9364 11.8227 24.6667 10.4478 24.6667 8.92004C24.6667 6.06928 22.1246 3.75 19 3.75ZM20.8889 16.9033L19.5239 16.073C19.2066 15.8801 18.7934 15.8801 18.4761 16.073L17.1112 16.9033V13.7943C17.7022 13.9856 18.338 14.0901 19 14.0901C19.6621 14.0901 20.2978 13.9856 20.8889 13.7943V16.9033ZM15.2223 8.92004C15.2223 10.8205 16.917 12.3667 19 12.3667C21.0831 12.3667 22.7778 10.8205 22.7778 8.92004C22.7778 7.01953 21.0831 5.47335 19 5.47335C16.917 5.47335 15.2223 7.01953 15.2223 8.92004Z" fill="#F7B500"/>
</svg>
