<svg width="15" height="22" viewBox="0 0 15 22" fill="none" xmlns="http://www.w3.org/2000/svg">
<path id="Shape" fill-rule="evenodd" clip-rule="evenodd" d="M0 7.36084C0 3.3021 3.36453 0 7.5 0C11.6356 0 15 3.3021 15 7.36084C15 12.2114 7.50737 21.1765 7.50737 21.1765C7.50737 21.1765 0 12.4622 0 7.36084ZM7.49994 10.5882C8.29117 10.5882 9.08228 10.2871 9.6847 9.68494C10.8894 8.48064 10.8894 6.52101 9.6847 5.31658C9.1011 4.73324 8.32525 4.41176 7.49994 4.41176C6.67463 4.41176 5.89865 4.73312 5.3153 5.31658C4.11059 6.52101 4.11059 8.48064 5.3153 9.68494C5.91747 10.2871 6.70883 10.5882 7.49994 10.5882Z" fill="black"/>
</svg>
