<svg width="15" height="12" viewBox="0 0 15 12" fill="none" xmlns="http://www.w3.org/2000/svg">
<path fill-rule="evenodd" clip-rule="evenodd" d="M7.03328 6.80174C5.94209 5.82791 2.22947 2.70468 0.113645 0.929412C-0.0180864 0.819097 -0.0381698 0.625196 0.0684798 0.49036C0.31499 0.178687 0.682603 0 1.07653 0H13.9234C14.3174 0 14.685 0.178687 14.9315 0.490331C15.0382 0.625196 15.0181 0.819097 14.8864 0.929412C12.7705 2.70468 9.05788 5.82821 7.96576 6.803C7.8196 6.9338 7.66276 7 7.49998 7C7.33688 7 7.17977 6.93318 7.03328 6.80174ZM14.4855 3.07099C14.5777 2.99576 14.708 2.97858 14.8187 3.02783C14.9292 3.07653 15 3.18234 15 3.29865V10.8059C15 11.4645 14.4394 12 13.75 12H1.25001C0.560596 12 3.05136e-09 11.4645 3.05136e-09 10.8059V3.29865C3.05136e-09 3.18234 0.0708105 3.07681 0.18126 3.0278C0.291123 2.97913 0.421728 2.99573 0.514512 3.07096C2.3782 4.57988 5.65031 7.2371 6.62748 8.07814C7.14322 8.52242 7.85733 8.52242 8.37187 8.07873C9.28863 7.28961 12.2024 4.9198 14.4855 3.07099Z" fill="#F7B500"/>
</svg>
