<svg width="15" height="12" viewBox="0 0 15 12" fill="none" xmlns="http://www.w3.org/2000/svg">
<g id="mail">
<path id="Path" d="M0.113645 0.929412C2.22947 2.70468 5.94209 5.82791 7.03328 6.80174C7.17977 6.93318 7.33688 7 7.49998 7C7.66276 7 7.8196 6.9338 7.96576 6.803C9.05788 5.82821 12.7705 2.70468 14.8864 0.929412C15.0181 0.819097 15.0382 0.625196 14.9315 0.490331C14.685 0.178687 14.3174 0 13.9234 0H1.07653C0.682603 0 0.31499 0.178687 0.0684798 0.49036C-0.0381698 0.625196 -0.0180864 0.819097 0.113645 0.929412Z" fill="black"/>
<path id="Path_2" d="M14.8187 3.02783C14.708 2.97858 14.5777 2.99576 14.4855 3.07099C12.2024 4.9198 9.28863 7.28961 8.37187 8.07873C7.85733 8.52242 7.14322 8.52242 6.62748 8.07814C5.65031 7.2371 2.3782 4.57988 0.514512 3.07096C0.421728 2.99573 0.291123 2.97913 0.18126 3.0278C0.0708105 3.07681 0 3.18234 0 3.29865V10.8059C0 11.4645 0.560596 12 1.25001 12H13.75C14.4394 12 15 11.4645 15 10.8059V3.29865C15 3.18234 14.9292 3.07653 14.8187 3.02783Z" fill="black"/>
</g>
</svg>
