<svg width="31" height="30" viewBox="0 0 31 30" fill="none" xmlns="http://www.w3.org/2000/svg">
<path d="M9.82246 19.8609C10.0286 20.0698 10.3607 20.0676 10.5643 19.8561C10.5742 19.8453 10.5842 19.8345 10.5936 19.8232L21.4534 6.83224C22.0462 6.17972 23.0419 6.14366 23.6778 6.75149C24.3137 7.35933 24.3488 8.38171 23.7565 9.03423C23.7313 9.0622 23.7051 9.08913 23.6778 9.11497L8.36926 26.7413C6.9349 28.2208 4.60399 28.2267 3.16235 26.7548C1.72071 25.2828 1.7149 22.8909 3.14926 21.4114L18.4788 3.79046C20.7331 1.47708 24.3876 1.47708 26.642 3.79046C28.8963 6.10384 28.8963 9.85414 26.642 12.1676L15.3625 25.6269C15.1831 25.8406 15.1946 26.1599 15.3887 26.3591L16.1284 27.1182C16.3336 27.3281 16.6656 27.3281 16.8702 27.1176C16.8786 27.109 16.8865 27.1004 16.8943 27.0913L28.1266 13.6857C31.1458 10.4775 31.0592 5.36516 27.933 2.26683C24.8833 -0.755611 20.0489 -0.755611 16.9993 2.26683L1.69073 19.8879C-0.563575 22.2012 -0.563575 25.9515 1.69073 28.265C3.94503 30.5783 7.59956 30.5783 9.85392 28.265L25.1835 10.644C26.6178 9.17213 26.6178 6.78603 25.1835 5.31409C23.7492 3.84214 21.424 3.8422 19.9897 5.31409L9.05649 18.3696C8.87708 18.5834 8.88863 18.9026 9.08273 19.1018L9.82246 19.8609Z" fill="#89C200"/>
</svg>
