<svg width="21" height="21" viewBox="0 0 21 21" fill="none" xmlns="http://www.w3.org/2000/svg">
<path fill-rule="evenodd" clip-rule="evenodd" d="M0 8.94737C0 4.01392 4.01392 0 8.94737 0C13.8811 0 17.8947 4.01392 17.8947 8.94737C17.8947 13.8811 13.8811 17.8947 8.94737 17.8947C4.01392 17.8947 0 13.8811 0 8.94737ZM1.65182 8.94741C1.65182 12.9701 4.92464 16.243 8.94737 16.243C12.9701 16.243 16.2429 12.9701 16.2429 8.94737C16.2429 4.92464 12.9701 1.65182 8.94737 1.65182C4.92464 1.65182 1.65182 4.92468 1.65182 8.94741Z" fill="#909090"/>
<path d="M20.0765 18.9217L15.3941 14.2393C15.0751 13.9202 14.5583 13.9202 14.2393 14.2393C13.9202 14.5581 13.9202 15.0753 14.2393 15.3941L18.9217 20.0765C19.0812 20.236 19.29 20.3158 19.4991 20.3158C19.7079 20.3158 19.9169 20.236 20.0765 20.0765C20.3956 19.7577 20.3956 19.2405 20.0765 18.9217Z" fill="#909090"/>
</svg>
