<svg width="15" height="15" viewBox="0 0 15 15" fill="none" xmlns="http://www.w3.org/2000/svg">
<path id="Path" d="M13.7964 9.84578C12.878 9.84578 11.9763 9.70215 11.1218 9.41977C10.7031 9.27695 10.1884 9.40797 9.93283 9.67043L8.24623 10.9436C6.29026 9.89953 5.08542 8.69508 4.05558 6.75379L5.29131 5.11113C5.61237 4.79051 5.72752 4.32215 5.58956 3.8827C5.30596 3.02371 5.1619 2.12242 5.1619 1.20367C5.16194 0.539961 4.62198 0 3.95831 0H1.20363C0.53996 0 0 0.539961 0 1.20363C0 8.81105 6.18897 15 13.7964 15C14.46 15 15 14.46 15 13.7964V11.0494C15 10.3857 14.46 9.84578 13.7964 9.84578Z" fill="black"/>
</svg>
