<svg width="29" height="32" viewBox="0 0 29 32" fill="none" xmlns="http://www.w3.org/2000/svg">
<path d="M14.5506 2.43598C13.8248 2.43598 13.0758 2.59408 12.3035 2.91027C11.5312 3.22647 10.8566 3.62426 10.2797 4.10366C9.70275 4.58305 9.2282 5.11345 8.85601 5.69484C8.48381 6.27623 8.29771 6.82193 8.29771 7.33192V12.2279C8.29771 13.3906 8.52103 14.686 8.96766 16.114C9.4143 17.542 10.075 18.6232 10.9496 19.3576C11.0985 19.5004 11.2288 19.6687 11.3404 19.8625C11.4521 20.0563 11.5312 20.2603 11.5777 20.4745C11.6242 20.6887 11.6382 20.908 11.6196 21.1324C11.5265 21.8667 11.1822 22.3869 10.5867 22.6929L2.79849 26.7321L2.74266 26.7474L2.631 26.7933L2.49143 26.8851L2.3379 27.0228L2.19832 27.2217L2.10062 27.5277L2.0727 27.9255V29.8227L27.0565 29.8533V27.8643C27.0565 27.3543 26.8052 26.9769 26.3028 26.7321L18.4587 22.6623C17.8632 22.3563 17.5236 21.8412 17.4398 21.1171C17.3561 20.3929 17.5747 19.8064 18.0958 19.3576C18.9519 18.6028 19.6172 17.5063 20.0917 16.0681C20.5663 14.6299 20.8035 13.3498 20.8035 12.2279V7.33192C20.8035 6.65873 20.4965 5.93964 19.8824 5.17464C19.2682 4.40965 18.468 3.76196 17.4817 3.23157C16.4954 2.70117 15.5183 2.43598 14.5506 2.43598ZM14.5506 0.4776C15.8347 0.4776 17.1048 0.819296 18.361 1.50269C19.6172 2.18608 20.6361 3.06327 21.4177 4.13426C22.1993 5.20524 22.5901 6.27113 22.5901 7.33192V12.2279C22.5901 13.5538 22.3063 15.0787 21.7387 16.8025C21.1711 18.5263 20.329 19.888 19.2124 20.8876L27.0565 24.9573C27.1123 24.9777 27.1774 25.0083 27.2519 25.0491C27.3263 25.0899 27.4659 25.1817 27.6706 25.3245C27.8753 25.4673 28.0568 25.6101 28.2149 25.7529C28.3731 25.8957 28.5173 26.0742 28.6476 26.2884C28.7779 26.5026 28.843 26.7015 28.843 26.8851V29.8533C28.843 30.3836 28.6709 30.8375 28.3266 31.2149C27.9823 31.5923 27.5589 31.781 27.0565 31.781H2.04479C1.56093 31.781 1.14686 31.5923 0.80258 31.2149C0.458298 30.8375 0.286156 30.3836 0.286156 29.8533V26.8851C0.286156 26.6811 0.346638 26.472 0.467604 26.2578C0.588568 26.0436 0.737446 25.86 0.91424 25.707C1.09103 25.554 1.26318 25.4163 1.43066 25.2939C1.59815 25.1715 1.74703 25.0797 1.8773 25.0185L2.04479 24.9573L9.83302 20.8876C8.71643 19.9288 7.88364 18.6028 7.33465 16.9096C6.78566 15.2164 6.51116 13.6558 6.51116 12.2279V7.33192C6.51116 6.53633 6.74844 5.72544 7.22299 4.89925C7.69754 4.07306 8.30701 3.33357 9.05141 2.68077C9.7958 2.02798 10.6612 1.49759 11.6475 1.08959C12.6338 0.681598 13.6015 0.4776 14.5506 0.4776Z" fill="#CDCDCD"/>
<path d="M7.42578 6.32797C9.12559 5.66501 14.565 3.67612 21.7042 6.32799" stroke="#CDCDCD" stroke-width="0.7"/>
<path d="M10.6705 20.1605C14.5646 21.848 18.4587 20.1605 18.4587 20.1605" stroke="#CDCDCD" stroke-width="0.7"/>
</svg>
