<svg width="512" height="512" viewBox="0 0 512 512" fill="none" xmlns="http://www.w3.org/2000/svg">
<g clip-path="url(#clip0)">
<path fill-rule="evenodd" clip-rule="evenodd" d="M87.984 25.5L-1 154.484H106.146C106.123 141.374 106.141 128.268 106.16 115.159C106.172 106.469 106.185 97.7783 106.185 89.0848C206.753 88.9717 307.432 88.9717 408 89.0848C407.947 101.492 407.944 113.904 407.942 126.329C407.94 135.706 407.938 145.09 407.914 154.484H511L422.016 25.5H87.984ZM106.146 154.5H-1L109.098 303.532C136.815 281.14 164.62 258.84 192.41 236.552C221.173 213.482 249.92 190.426 278.536 167.296H106.185C106.167 163.03 106.154 158.765 106.146 154.5ZM174.454 392L256.086 502.5L337.029 392H174.454ZM397.132 309.949C371.06 309.91 344.973 309.91 318.886 309.91C289.218 309.91 259.551 309.91 229.906 309.853C272.64 275.571 315.421 241.346 358.182 207.139C374.747 193.886 391.31 180.636 407.866 167.386C407.888 163.089 407.903 158.793 407.914 154.5H511L397.132 309.949Z" fill="#020296"/>
</g>
<defs>
<clipPath id="clip0">
<rect width="512" height="512" fill="white"/>
</clipPath>
</defs>
</svg>
