<svg width="512" height="512" viewBox="0 0 512 512" fill="none" xmlns="http://www.w3.org/2000/svg">
<path d="M311.476 404.464L344.366 364.992C282.617 364.992 281.847 365.083 208.001 364.947C302.234 290.173 396.647 215.671 490.925 140.987C491.061 100.02 490.97 59.0529 490.97 18.0858C331.002 17.9499 171.033 17.9952 11.1094 18.0858C11.0641 59.0529 10.9282 99.9747 11.1547 140.942C102.533 141.032 193.911 140.897 285.29 140.987C191.374 215.942 96.8701 290.218 3 365.264C3.09061 408.134 2.9547 451.05 3.0453 493.966C165.687 494.011 237.721 494.011 400.362 493.966C400.362 493.286 400.362 492.607 400.362 491.927L311.476 404.464Z" fill="#04158A"/>
<path d="M508.137 405.315L474.327 365H364.764L331 405.315L419.568 492L509 405.315H508.137Z" fill="#020296"/>
</svg>
