<svg width="512" height="512" viewBox="0 0 512 512" fill="none" xmlns="http://www.w3.org/2000/svg">
<path d="M509.517 190.23L412.267 75H97.1192L0 190.23L254.758 438L512 190.23H509.517Z" fill="#020296"/>
<path d="M157 321.945C222.189 322.018 287.45 322.018 352.639 321.945C352.639 304.99 352.712 288.05 352.639 271.095C315.395 271.095 278.164 271.095 240.92 271.095C279.135 240.111 317.712 209.334 356 178.262C356 160.527 356 142.808 356 125C289.696 125 223.391 125 157.087 125C157.015 142.793 157.087 160.527 157.087 178.335C195.519 178.409 234.01 178.335 272.442 178.409C234.01 209.334 195.519 240.185 157.087 271.036C157 288.05 157.072 305.005 157 321.945Z" fill="#E5E5E5"/>
</svg>
