<svg width="512" height="512" viewBox="0 0 512 512" fill="none" xmlns="http://www.w3.org/2000/svg">
<g clip-path="url(#clip0)">
<path d="M391 174.081C294.036 173.973 196.963 173.973 99.9991 174.081C99.9991 199.127 99.8913 224.15 99.9991 249.195C155.398 249.195 210.775 249.195 266.174 249.195C209.332 294.963 151.95 340.426 95 386.324C95 412.52 95 438.695 95 465C193.624 465 292.247 465 390.871 465C390.978 438.717 390.871 412.52 390.871 386.215C333.705 386.107 276.453 386.215 219.287 386.107C276.453 340.426 333.705 294.854 390.871 249.282C391 224.15 390.892 199.105 391 174.081Z" fill="#04158A"/>
<path d="M512.993 128.591C512.993 128.585 512.987 128.578 512.987 128.571C512.98 128.558 512.973 128.538 512.973 128.517V128.417C512.953 128.255 512.899 128.127 512.846 128C512.833 127.959 512.812 127.919 512.799 127.885C512.792 127.858 512.779 127.832 512.772 127.805C512.752 127.744 512.732 127.684 512.719 127.623C512.678 127.482 512.638 127.347 512.571 127.233C512.478 127.038 512.324 126.877 512.176 126.715C512.116 126.648 512.056 126.588 511.995 126.52C511.948 126.473 511.915 126.42 511.888 126.373C511.848 126.312 511.815 126.251 511.761 126.218L429.882 59.5448C429.842 59.5044 429.781 59.4842 429.728 59.4708C429.701 59.4641 429.668 59.4573 429.647 59.4439C429.413 59.2758 429.139 59.1413 428.837 59.0337C428.67 58.9665 428.536 58.9329 428.362 58.8993C428.328 58.8993 428.295 58.8791 428.261 58.8656C428.228 58.8455 428.194 58.832 428.161 58.832L342.538 48.0672C342.404 48 342.27 48 342.129 48H170.864C170.73 48 170.596 48 170.455 48.0336L84.8392 58.7984C84.8057 58.7984 84.7789 58.8119 84.7454 58.8253C84.7053 58.8455 84.6584 58.8656 84.6048 58.8656C84.5043 58.8858 84.424 58.9127 84.3369 58.9463C84.2766 58.9665 84.2164 58.9867 84.1628 59.0001C83.8614 59.101 83.5868 59.2355 83.3524 59.4103C83.319 59.4304 83.2788 59.4439 83.2319 59.4641C83.1917 59.4842 83.1448 59.4977 83.1114 59.5179L1.25236 126.245C1.19879 126.299 1.1586 126.352 1.11842 126.413C1.07824 126.473 1.03136 126.534 0.984478 126.581C0.783564 126.783 0.575953 126.991 0.44201 127.26C0.368342 127.381 0.334856 127.516 0.294674 127.65C0.274582 127.711 0.261188 127.771 0.241097 127.832C0.221005 127.899 0.194217 127.966 0.167428 128.033C0.113851 128.168 0.0602741 128.302 0.0401828 128.443V128.544C0.0401828 128.558 0.0334856 128.578 0.0200914 128.598C0.00669713 128.625 0 128.638 0 128.659C0 128.739 0.0133943 128.82 0.0334856 128.907C0.053577 129.002 0.0669713 129.096 0.0669713 129.203C0.0803655 129.284 0.0870627 129.371 0.0937598 129.459C0.107154 129.627 0.120548 129.795 0.167428 129.95C0.200914 130.037 0.241097 130.118 0.287976 130.205C0.328159 130.292 0.375039 130.373 0.408525 130.461C0.44201 130.521 0.475496 130.575 0.502285 130.635C0.596044 130.81 0.683107 130.978 0.810352 131.106C0.830444 131.126 0.837141 131.146 0.843838 131.173C0.850535 131.2 0.863929 131.227 0.877324 131.241L28.5432 159.696H37.7785L12.1754 133.412L129.496 148.184C129.63 148.218 129.764 148.218 129.904 148.218H383.042C383.176 148.218 383.31 148.218 383.451 148.184L500.764 133.412L476.059 161.168H485.294L512.062 131.207C512.069 131.2 512.076 131.187 512.082 131.173C512.089 131.16 512.089 131.153 512.096 131.14C512.103 131.113 512.116 131.086 512.129 131.072C512.303 130.918 512.404 130.75 512.504 130.588C512.538 130.535 512.571 130.474 512.605 130.427C512.618 130.4 512.638 130.373 512.652 130.346C512.739 130.212 512.812 130.084 512.839 129.916C512.886 129.755 512.899 129.586 512.913 129.412C512.92 129.331 512.926 129.25 512.94 129.163C512.94 129.116 512.946 129.069 512.953 129.022C512.96 128.988 512.966 128.948 512.973 128.914C512.993 128.82 513.007 128.726 513.007 128.618C513 128.612 512.993 128.605 512.993 128.591ZM171.098 54.791H341.929L400.589 62.1603L341.929 69.5296H256.513H171.098L112.445 62.1603L171.098 54.791ZM11.6731 126.514L84.2365 67.3914L123.816 140.647L11.6731 126.514ZM91.3689 66.3694L170.455 76.3206C170.589 76.3542 170.723 76.3542 170.864 76.3542H243.628L131.284 140.163L91.3689 66.3694ZM142.789 141.427L256.52 76.8652L370.217 141.427H142.789ZM381.716 140.17L269.372 76.361H342.136C342.27 76.361 342.404 76.361 342.545 76.3273L421.638 66.3761L381.716 140.17ZM389.157 140.647L428.77 67.3914L501.334 126.514L389.157 140.647Z" fill="#020296"/>
</g>
<defs>
<clipPath id="clip0">
<rect width="512" height="512" fill="white"/>
</clipPath>
</defs>
</svg>
