<svg width="512" height="512" viewBox="0 0 512 512" fill="none" xmlns="http://www.w3.org/2000/svg">
<g clip-path="url(#clip0)">
<path d="M508.526 475.23L411.656 360H97.7399L1 475.23L254.763 723L511 475.23H508.526Z" fill="#020296"/>
<path d="M93 343.91C199.792 344.03 306.702 344.03 413.494 343.91C413.494 316.197 413.613 288.508 413.494 260.794C352.481 260.794 291.49 260.794 230.477 260.794C293.081 210.151 356.278 159.845 419 109.057C419 80.0702 419 51.1072 419 22C310.381 22 201.762 22 93.1424 22C93.0237 51.0832 93.1424 80.0702 93.1424 109.177C156.102 109.298 219.157 109.177 282.117 109.298C219.157 159.845 156.102 210.271 93.1424 260.698C93 288.508 93.1186 316.221 93 343.91Z" fill="#020296"/>
</g>
<defs>
<clipPath id="clip0">
<rect width="512" height="512" fill="white"/>
</clipPath>
</defs>
</svg>
