<svg width="512" height="512" viewBox="0 0 512 512" fill="none" xmlns="http://www.w3.org/2000/svg">
<g clip-path="url(#clip0)">
<path d="M367 164.069C285.76 163.977 204.429 163.977 123.188 164.069C123.188 185.155 123.098 206.222 123.188 227.309C169.604 227.309 216.001 227.309 262.416 227.309C214.792 265.841 166.715 304.118 119 342.761C119 364.816 119 386.853 119 409C201.631 409 284.261 409 366.892 409C366.982 386.871 366.892 364.816 366.892 342.669C318.996 342.578 271.028 342.669 223.132 342.578C271.028 304.118 318.996 265.75 366.892 227.382C367 206.222 366.91 185.136 367 164.069Z" fill="#04158A"/>
<path d="M512.993 110.591C512.993 110.585 512.987 110.578 512.987 110.571C512.98 110.558 512.973 110.538 512.973 110.517V110.417C512.953 110.255 512.9 110.127 512.846 110C512.833 109.959 512.812 109.919 512.799 109.885C512.792 109.858 512.779 109.832 512.772 109.805C512.752 109.744 512.732 109.684 512.719 109.623C512.678 109.482 512.638 109.347 512.571 109.233C512.478 109.038 512.324 108.877 512.176 108.715C512.116 108.648 512.056 108.588 511.995 108.52C511.948 108.473 511.915 108.42 511.888 108.373C511.848 108.312 511.815 108.251 511.761 108.218L429.882 41.5447C429.842 41.5044 429.781 41.4842 429.728 41.4708C429.701 41.4641 429.668 41.4573 429.647 41.4439C429.413 41.2758 429.139 41.1413 428.837 41.0337C428.67 40.9665 428.536 40.9329 428.362 40.8993C428.328 40.8993 428.295 40.8791 428.261 40.8656C428.228 40.8455 428.194 40.832 428.161 40.832L342.538 30.0672C342.404 30 342.27 30 342.129 30H170.864C170.73 30 170.596 30 170.455 30.0336L84.8392 40.7984C84.8057 40.7984 84.7789 40.8119 84.7454 40.8253C84.7053 40.8455 84.6584 40.8656 84.6048 40.8656C84.5044 40.8858 84.424 40.9127 84.3369 40.9463C84.2766 40.9665 84.2164 40.9867 84.1628 41.0001C83.8614 41.101 83.5868 41.2355 83.3524 41.4103C83.319 41.4304 83.2788 41.4439 83.2319 41.4641C83.1917 41.4842 83.1448 41.4977 83.1113 41.5179L1.25236 108.245C1.19879 108.299 1.1586 108.352 1.11842 108.413C1.07824 108.473 1.03136 108.534 0.984478 108.581C0.783564 108.783 0.575953 108.991 0.44201 109.26C0.368342 109.381 0.334856 109.516 0.294674 109.65C0.274582 109.711 0.261188 109.771 0.241097 109.832C0.221005 109.899 0.194217 109.966 0.167428 110.033C0.113851 110.168 0.0602741 110.302 0.0401828 110.443V110.544C0.0401828 110.558 0.0334856 110.578 0.0200914 110.598C0.00669713 110.625 0 110.638 0 110.659C0 110.739 0.0133943 110.82 0.0334856 110.907C0.053577 111.002 0.0669713 111.096 0.0669713 111.203C0.0803655 111.284 0.0870627 111.371 0.0937598 111.459C0.107154 111.627 0.120548 111.795 0.167428 111.95C0.200914 112.037 0.241097 112.118 0.287976 112.205C0.328159 112.292 0.375039 112.373 0.408525 112.461C0.44201 112.521 0.475496 112.575 0.502285 112.635C0.596044 112.81 0.683107 112.978 0.810352 113.106C0.830444 113.126 0.837141 113.146 0.843838 113.173C0.850535 113.2 0.863929 113.227 0.877324 113.241L28.5432 141.696H37.7785L12.1754 115.412L129.496 130.184C129.63 130.218 129.764 130.218 129.904 130.218H383.042C383.176 130.218 383.31 130.218 383.451 130.184L500.764 115.412L476.059 143.168H485.294L512.062 113.207C512.069 113.2 512.076 113.187 512.082 113.173C512.089 113.16 512.089 113.153 512.096 113.14C512.103 113.113 512.116 113.086 512.129 113.072C512.303 112.918 512.404 112.75 512.504 112.588C512.538 112.535 512.571 112.474 512.605 112.427C512.618 112.4 512.638 112.373 512.652 112.346C512.739 112.212 512.812 112.084 512.839 111.916C512.886 111.755 512.899 111.586 512.913 111.412C512.92 111.331 512.926 111.25 512.94 111.163C512.94 111.116 512.946 111.069 512.953 111.022C512.96 110.988 512.966 110.948 512.973 110.914C512.993 110.82 513.007 110.726 513.007 110.618C513 110.612 512.993 110.605 512.993 110.591ZM171.098 36.791H341.929L400.589 44.1603L341.929 51.5296H256.513H171.098L112.445 44.1603L171.098 36.791ZM11.6731 108.514L84.2365 49.3914L123.816 122.647L11.6731 108.514ZM91.3689 48.3694L170.455 58.3206C170.589 58.3542 170.723 58.3542 170.864 58.3542H243.628L131.284 122.163L91.3689 48.3694ZM142.789 123.427L256.52 58.8652L370.217 123.427H142.789ZM381.716 122.17L269.372 58.361H342.136C342.27 58.361 342.404 58.361 342.545 58.3273L421.638 48.3761L381.716 122.17ZM389.157 122.647L428.77 49.3914L501.334 108.514L389.157 122.647Z" fill="#020296"/>
<path d="M293.758 429H285.816L249.979 479.314L267.224 436.315L260.393 436.248C260.393 436.248 243.396 478.642 243.383 478.642C243.369 478.642 226.372 436.248 226.372 436.248L219.541 436.315L236.819 479.314L200.943 429H193L240.851 495.821C241.065 496.124 241.789 497.092 243.383 497.092C244.99 497.092 245.7 496.124 245.914 495.821L293.758 429Z" fill="#020296"/>
</g>
<defs>
<clipPath id="clip0">
<rect width="512" height="512" fill="white"/>
</clipPath>
</defs>
</svg>
