<svg width="512" height="512" viewBox="0 0 512 512" fill="none" xmlns="http://www.w3.org/2000/svg">
<path fill-rule="evenodd" clip-rule="evenodd" d="M412.265 75L509.515 190.23H511.999L407.85 290.544H239.871C259.072 275.048 278.361 259.602 297.661 244.146C318.125 227.759 338.602 211.362 358.999 194.884V140H42.3341L97.1181 75H412.265ZM4.88281 194.98L153.013 339.047C153.035 332.032 153.037 325.014 153.038 317.99C153.04 308.833 153.042 299.667 153.089 290.484C164.203 281.603 175.322 272.722 186.443 263.839C215.131 240.925 243.832 218 272.502 195.035C252.61 194.998 190.805 194.998 129.001 194.998C81.1405 194.998 33.2803 194.998 4.88281 194.98ZM157.024 342.947L254.757 438L353.39 342.999C277.499 343.004 196.478 342.987 157.024 342.947Z" fill="#020296"/>
</svg>
