<svg width="512" height="512" viewBox="0 0 512 512" fill="none" xmlns="http://www.w3.org/2000/svg">
<g clip-path="url(#clip0)">
<path d="M515 1.14304C345.64 0.952321 176.092 0.952321 6.73145 1.14304C6.73145 45.1226 6.54328 89.064 6.73145 133.044C103.493 133.044 200.216 133.044 296.977 133.044C197.694 213.412 97.4708 293.247 -2 373.844C-2 419.845 -2 465.808 -2 512C170.258 512 342.516 512 514.774 512C514.962 465.846 514.774 419.845 514.774 373.653C414.927 373.463 314.929 373.653 215.082 373.462C314.929 293.247 414.927 213.221 514.774 133.196C515 89.064 514.812 45.0844 515 1.14304Z" fill="#04158A"/>
</g>
<defs>
<clipPath id="clip0">
<rect width="512" height="512" fill="white"/>
</clipPath>
</defs>
</svg>
