<svg width="512" height="512" viewBox="0 0 512 512" fill="none" xmlns="http://www.w3.org/2000/svg">
<path d="M201.849 193.613C194.575 189.339 185.822 189.203 177.619 189.024C163.492 189.096 149.394 188.853 135.26 189.16C128.472 189.61 121.127 190.261 115.446 194.4C109.722 198.71 108.036 206.33 108 213.121C107.965 228.36 108 243.565 108 258.797C108.036 263.694 108.55 268.69 110.587 273.208C112.102 276.589 114.724 279.52 118.097 281.099C124.885 284.237 132.538 284.58 139.876 284.716C152.631 284.752 165.343 284.716 178.098 284.716C185.507 284.58 193.16 284.266 200.013 281.199C203.457 279.648 206.179 276.718 207.73 273.308C209.831 268.79 210.352 263.722 210.381 258.761C210.381 243.8 210.381 228.804 210.381 213.843C210.538 206.437 208.602 197.852 201.849 193.613ZM177.655 258.797C165.35 258.833 153.081 258.797 140.777 258.797C140.777 243.8 140.777 228.768 140.777 213.771C153.081 213.771 165.35 213.735 177.655 213.771C177.69 228.811 177.655 243.808 177.655 258.797Z" fill="url(#paint0_linear)"/>
<path d="M505.002 194.748C502.001 192.303 498.249 191.095 494.526 190.338C487.91 188.994 481.157 189.03 474.433 189.065C461.886 189.137 449.345 188.894 436.798 189.201C431.317 189.508 425.701 190.13 420.599 192.339C417.362 193.754 414.604 196.163 412.846 199.237C410.26 203.719 409.609 209.03 409.609 214.162C409.609 228.88 409.609 243.606 409.609 258.359C409.609 263.392 410.095 268.567 412.16 273.184C413.675 276.566 416.262 279.496 419.642 281.112C426.394 284.286 434.047 284.629 441.421 284.764C454.176 284.8 466.888 284.764 479.642 284.764C486.981 284.664 494.598 284.314 501.422 281.383C504.973 279.832 507.767 276.902 509.346 273.42C511.411 268.974 511.997 263.978 511.997 259.081C511.997 244.013 511.997 228.952 511.997 213.919C512.069 207.021 510.589 199.294 505.002 194.748ZM479.257 258.831C466.952 258.831 454.683 258.867 442.379 258.831C442.379 243.834 442.343 228.802 442.379 213.805C454.683 213.769 466.952 213.805 479.257 213.805C479.257 228.809 479.257 243.806 479.257 258.831Z" fill="url(#paint1_linear)"/>
<path d="M98.1576 189.058C66.0029 189.022 33.8125 189.022 1.65775 189.058C1.65775 197.3 1.62203 205.534 1.65775 213.776C20.0288 213.776 38.3927 213.776 56.7638 213.776C37.914 228.837 18.8855 243.798 0 258.902C0 267.523 0 276.137 0 284.793C32.7049 284.793 65.4098 284.793 98.1148 284.793C98.1505 276.144 98.1148 267.523 98.1148 258.867C79.1578 258.831 60.1722 258.867 41.2152 258.831C60.1722 243.798 79.1578 228.802 98.1148 213.805C98.1576 205.535 98.1219 197.293 98.1576 189.058Z" fill="url(#paint2_linear)"/>
<path d="M349.601 258.795C349.565 235.557 349.601 212.29 349.565 189.051C338.433 189.051 327.336 189.015 316.203 189.051C316.203 220.939 316.203 252.827 316.203 284.75C344.535 284.75 372.86 284.75 401.192 284.75C401.227 276.101 401.192 267.48 401.192 258.824C384 258.795 366.8 258.831 349.601 258.795Z" fill="url(#paint3_linear)"/>
<path d="M255.452 258.834C255.416 235.595 255.452 212.328 255.452 189.089C244.319 189.054 233.223 189.054 222.09 189.089C222.09 220.977 222.09 252.901 222.09 284.788C250.422 284.788 278.746 284.788 307.078 284.788C307.114 276.132 307.078 267.519 307.078 258.862C289.879 258.798 272.644 258.834 255.452 258.834Z" fill="url(#paint4_linear)"/>
<defs>
<linearGradient id="paint0_linear" x1="159.189" y1="189" x2="159.189" y2="284.732" gradientUnits="userSpaceOnUse">
<stop stop-color="#262E60"/>
<stop offset="1" stop-color="#020296"/>
</linearGradient>
<linearGradient id="paint1_linear" x1="460.806" y1="189.041" x2="460.806" y2="284.78" gradientUnits="userSpaceOnUse">
<stop stop-color="#262E60"/>
<stop offset="1" stop-color="#020296"/>
</linearGradient>
<linearGradient id="paint2_linear" x1="49.0804" y1="189.031" x2="49.0804" y2="284.793" gradientUnits="userSpaceOnUse">
<stop stop-color="#262E60"/>
<stop offset="1" stop-color="#020296"/>
</linearGradient>
<linearGradient id="paint3_linear" x1="358.707" y1="189.035" x2="358.707" y2="284.75" gradientUnits="userSpaceOnUse">
<stop stop-color="#262E60"/>
<stop offset="1" stop-color="#020296"/>
</linearGradient>
<linearGradient id="paint4_linear" x1="264.593" y1="189.063" x2="264.593" y2="284.788" gradientUnits="userSpaceOnUse">
<stop stop-color="#262E60"/>
<stop offset="1" stop-color="#020296"/>
</linearGradient>
</defs>
</svg>
