<svg width="511" height="478" viewBox="0 0 511 478" fill="none" xmlns="http://www.w3.org/2000/svg">
<path fill-rule="evenodd" clip-rule="evenodd" d="M87.984 0.5L-1 129.484H106.146C106.123 116.374 106.141 103.268 106.16 90.1594C106.172 81.4692 106.185 72.7783 106.185 64.0848C206.753 63.9717 307.432 63.9717 408 64.0848C407.947 76.4921 407.944 88.9044 407.942 101.329C407.94 110.706 407.938 120.09 407.914 129.484H511L422.016 0.5H87.984ZM106.146 129.5H-1L109.098 278.532C136.815 256.141 164.619 233.841 192.408 211.553C221.172 188.483 249.92 165.427 278.536 142.296H106.185C106.167 138.03 106.154 133.765 106.146 129.5ZM174.454 367L256.086 477.5L337.029 367H174.454ZM397.132 284.949C371.058 284.91 344.969 284.91 318.88 284.91C289.214 284.91 259.549 284.91 229.906 284.853C272.641 250.57 315.423 216.345 358.184 182.136C374.749 168.885 391.311 155.636 407.866 142.386C407.888 138.089 407.903 133.793 407.914 129.5H511L397.132 284.949Z" fill="url(#paint0_linear)"/>
<defs>
<linearGradient id="paint0_linear" x1="255" y1="0.5" x2="255" y2="477.5" gradientUnits="userSpaceOnUse">
<stop stop-color="#C4C4C4"/>
<stop offset="1" stop-color="#858585"/>
</linearGradient>
</defs>
</svg>
