<svg width="85" height="59" viewBox="0 0 85 59" fill="none" xmlns="http://www.w3.org/2000/svg">
<path d="M16.1926 24.1062L16.2183 24.0856L16.2265 24.0785C16.2552 24.0758 16.3107 24.0803 16.3731 24.1073C16.3952 24.1168 16.4124 24.1267 16.4254 24.1353C16.3963 25.4959 16.3818 26.9116 16.3818 28.3823V47.9225C16.3818 52.7978 20.334 56.75 25.2093 56.75C30.0846 56.75 34.0369 52.7978 34.0369 47.9225V12.7222C34.0369 7.33741 29.6716 2.97218 24.2869 2.97218H22.5094C20.3082 2.97218 18.1718 3.71701 16.4478 5.08547L5.42936 13.8313C2.18251 16.4085 1.69638 21.1543 4.35331 24.3362C6.93017 27.4223 11.5038 27.8762 14.637 25.357L16.1926 24.1062ZM63.9163 21.9366L63.9089 21.9527L63.9017 21.969C63.5705 22.722 62.9188 23.7368 61.859 25.0335C60.8055 26.2992 58.508 28.7424 54.9106 32.4076L44.1988 42.9604C42.6624 44.4739 41.7974 46.5404 41.7974 48.6971C41.7974 53.1446 45.4028 56.75 49.8503 56.75H75.3945C79.4568 56.75 82.75 53.4568 82.75 49.3945C82.75 45.3321 79.4568 42.0389 75.3945 42.0389H65.7304C69.7274 38.5041 72.4676 35.9807 73.9193 34.4905C75.7395 32.6458 77.2293 30.8624 78.366 29.1398L78.3722 29.1303C79.511 27.3799 80.3629 25.5796 80.9102 23.7302C81.4835 21.8727 81.7616 19.8771 81.7616 17.7559C81.7616 14.7779 80.9317 12.0587 79.2684 9.65047C77.626 7.21517 75.3163 5.37745 72.4171 4.11597C69.5492 2.85782 66.3273 2.25 62.7855 2.25C60.0131 2.25 57.4691 2.52464 55.166 3.09171L55.1617 3.0928C52.9048 3.65471 50.7972 4.47637 48.8456 5.56194C48.136 5.94845 47.3851 6.41766 46.5947 6.96348C42.9403 9.48724 42.8185 14.5143 45.541 17.6189C48.3219 20.7901 52.8882 20.8796 56.1717 18.8632C56.4891 18.6682 56.7952 18.491 57.09 18.331L57.0972 18.3271C58.555 17.527 59.915 17.1674 61.1971 17.1674C62.5072 17.1674 63.2684 17.4805 63.7204 17.8732C64.1553 18.2512 64.4243 18.7722 64.4243 19.6473C64.4243 20.4456 64.257 21.203 63.9163 21.9366Z" stroke="#333333" stroke-width="3.5"/>
</svg>
