<svg width="82" height="77" viewBox="0 0 82 77" fill="none" xmlns="http://www.w3.org/2000/svg">
<path d="M77.1684 49.9841L70.6956 47.047L68.8435 44.0538C76.0646 39.4892 80.4422 31.5572 80.4422 23.0079V10.7171C80.4235 10.0249 80.0306 9.38887 79.4133 9.07084L62.7823 0.222204C62.2211 -0.0771152 61.5476 -0.0771152 61.0051 0.240912L44.8979 9.07084C44.2993 9.40758 43.9439 10.0249 43.9626 10.7171V23.2511C43.9439 26.8055 44.6735 30.3412 46.1326 33.5963H32.6446C29.7449 33.5963 26.9949 34.962 25.2177 37.263L17.8656 46.8974L5.51871 50.2647C2.26361 51.144 0.0187075 54.0997 0 57.4671V62.1814C0.0187075 66.3157 3.38605 69.6644 7.52041 69.7018H8.41837C9.80272 74.7154 15.0034 77.6525 20.017 76.2494C23.1973 75.3701 25.6854 72.882 26.5646 69.7018H54.0646C55.449 74.7154 60.6497 77.6525 65.6633 76.2494C68.8435 75.3701 71.3316 72.882 72.2109 69.7018H74.0442C78.1786 69.6831 81.5459 66.3344 81.5646 62.1814V56.7749C81.5459 53.8378 79.8248 51.2001 77.1684 49.9841ZM47.7041 11.8208L61.9779 3.98241L76.7007 11.8395V23.0079C76.682 31.5572 71.5561 39.246 63.6803 42.5572C63.6803 42.5572 63.6616 42.5572 63.6428 42.5572L61.8469 43.3242L60.3877 42.6695C52.6803 39.2834 47.7041 31.6695 47.7041 23.2324V11.8208ZM17.4915 72.7885C14.3486 72.7885 11.8231 70.2443 11.8231 67.1201C11.8231 63.9773 14.3673 61.4518 17.4915 61.4518C20.6343 61.4518 23.1599 63.996 23.1599 67.1201C23.1599 70.2443 20.6156 72.7698 17.4915 72.7885ZM63.1377 72.7885C59.9949 72.7885 57.4694 70.2443 57.4694 67.1201C57.4694 63.996 60.0136 61.4518 63.1377 61.4518C66.2806 61.4518 68.8061 63.996 68.8061 67.1201C68.8248 70.2443 66.2806 72.7698 63.1377 72.7885ZM77.8418 62.1627H77.8231C77.8044 64.2392 76.1207 65.9229 74.0442 65.9416H72.4728C71.7993 60.7783 67.085 57.1491 61.9218 57.8225C57.6939 58.365 54.3452 61.7137 53.8027 65.9416H26.8265C26.1531 60.7783 21.4388 57.1491 16.2755 57.8225C12.0476 58.365 8.69898 61.7137 8.15646 65.9416H7.52041C5.44388 65.9229 3.7602 64.2392 3.7415 62.1627V57.4484C3.7602 55.7647 4.88265 54.3055 6.5102 53.8565L19.4558 50.3208C19.8486 50.2086 20.2041 49.9841 20.466 49.6474L28.2109 39.5079C29.2772 38.1236 30.9235 37.3191 32.6633 37.3191H48.2653C50.9218 41.1729 54.6071 44.2222 58.8911 46.1116L61.136 47.0844C61.6037 47.2902 62.1462 47.2902 62.6326 47.0844L65.1581 45.9994C65.2891 45.9433 65.4201 45.8872 65.5323 45.831L67.8333 49.5164C68.0204 49.8344 68.301 50.0776 68.6377 50.2273L75.6343 53.3889C76.9626 53.9875 77.8231 55.3157 77.8418 56.7749V62.1627Z" fill="#333333"/>
</svg>
