<svg width="74" height="39" viewBox="0 0 74 39" fill="none" xmlns="http://www.w3.org/2000/svg">
<path d="M72.783 31.4514H69.0357C68.3678 36.1018 64.0564 39.3304 59.4065 38.6625C55.669 38.1253 52.7326 35.1889 52.1959 31.4514H22.7989C22.1385 36.1028 17.8326 39.3378 13.1811 38.6773C9.17828 38.109 6.12848 34.8012 5.88638 30.7652L1.3488 26.2281C1.12154 25.9993 0.994308 25.6899 0.994804 25.3676V14.417C0.994804 14.1408 1.08887 13.8724 1.26116 13.6565L5.64179 8.18125L3.55 4.01005C3.24998 3.40851 3.49406 2.67824 4.0956 2.37821C4.22581 2.31285 4.36642 2.27176 4.51099 2.25691L11.1488 1.55684L23.0376 0.302755C30.8393 -0.562181 38.7356 0.432471 46.0789 3.20552C50.3081 4.94678 54.2466 7.32176 57.7598 10.2498L60.0863 12.1891L61.7463 13.0941L69.4189 16.0751C69.4679 16.0939 69.5154 16.1157 69.5614 16.1409C72.2974 17.6337 74 20.5013 74 23.6179V30.2349C74 30.9068 73.4554 31.4514 72.783 31.4514ZM60.6155 36.3187C63.9757 36.3187 66.6993 33.5946 66.6993 30.2349C66.6993 26.8747 63.9757 24.1511 60.6155 24.1511C57.2558 24.1511 54.5317 26.8747 54.5317 30.2349C54.5357 33.5932 57.2573 36.3147 60.6155 36.3187ZM14.3788 36.3187C17.739 36.3187 20.4631 33.5946 20.4631 30.2349C20.4631 26.8747 17.739 24.1511 14.3788 24.1511C11.0191 24.1511 8.29503 26.8747 8.29503 30.2349C8.29948 33.5932 11.0205 36.3147 14.3788 36.3187ZM3.42821 19.2838H7.34493L7.95341 16.8504H3.42821V19.2838ZM10.6388 4.05758L6.51911 4.49178L8.16779 7.78914C8.37968 8.21393 8.32572 8.72289 8.02866 9.09372L3.77032 14.417H9.51198C10.1843 14.417 10.7284 14.9621 10.7284 15.634C10.7284 15.733 10.7165 15.832 10.6923 15.9281L9.47584 20.7949C9.34068 21.337 8.85399 21.7172 8.29552 21.7172H3.4287V24.8636L6.25126 27.6856C6.25126 27.6733 6.26215 27.6614 6.26562 27.649C6.38593 27.2812 6.53099 26.9222 6.70032 26.5746C6.73695 26.4994 6.77061 26.4227 6.80973 26.3469C6.98499 26.0078 7.18254 25.6805 7.40088 25.3676C7.44494 25.3042 7.49346 25.2458 7.53851 25.1839C7.74992 24.8963 7.97964 24.623 8.2262 24.365C8.25888 24.3299 8.28958 24.2908 8.32473 24.2566C8.59654 23.9843 8.88617 23.7303 9.19215 23.4961C9.26294 23.4427 9.33225 23.3902 9.40256 23.3392C9.71546 23.1109 10.0432 22.904 10.3834 22.7198C10.4284 22.6956 10.4769 22.6762 10.5235 22.653C10.8473 22.4886 11.1814 22.345 11.5236 22.2237C11.5919 22.199 11.6572 22.1712 11.7256 22.148C12.1018 22.0262 12.486 21.9301 12.8757 21.8608C12.9584 21.8465 13.042 21.8356 13.1188 21.8232C13.5356 21.7564 13.957 21.7207 14.3793 21.7172C14.6605 21.7172 14.9392 21.7331 15.213 21.7598C15.3041 21.7682 15.3932 21.7856 15.4829 21.7979C15.6656 21.8207 15.8482 21.845 16.0245 21.8806C16.1304 21.9014 16.2324 21.9291 16.3374 21.9534C16.4953 21.9915 16.6538 22.0292 16.8092 22.0752C16.9177 22.1069 17.0221 22.1445 17.1281 22.1811C17.2756 22.2321 17.4227 22.2831 17.5662 22.3416C17.6707 22.3841 17.7742 22.4307 17.8777 22.4777C18.0163 22.5401 18.1524 22.5995 18.2876 22.6753C18.3886 22.7287 18.4886 22.7822 18.5871 22.8391C18.7183 22.9134 18.8461 22.9926 18.9728 23.0743C19.0689 23.1352 19.1624 23.1961 19.255 23.2614C19.3768 23.3491 19.4981 23.4402 19.6199 23.5342C19.7075 23.6021 19.7952 23.6689 19.8793 23.7407C20.0011 23.8417 20.1115 23.9491 20.2249 24.0561C20.3026 24.1279 20.3804 24.1982 20.4546 24.2739C20.5764 24.3952 20.6809 24.517 20.7918 24.6388C20.8537 24.7106 20.9136 24.7789 20.978 24.8517C21.1072 25.0101 21.2275 25.174 21.3428 25.3384C21.376 25.3874 21.4136 25.431 21.4463 25.4795C21.5924 25.6963 21.7285 25.9196 21.8543 26.1503C21.8904 26.2157 21.9196 26.285 21.9538 26.3523C22.0404 26.5202 22.1256 26.689 22.1974 26.8633C22.236 26.9559 22.2692 27.0504 22.3068 27.1455C22.3662 27.299 22.4286 27.452 22.4771 27.6104C22.5113 27.7149 22.539 27.8233 22.5682 27.9302C22.6108 28.0827 22.6524 28.2332 22.69 28.3877C22.7158 28.5021 22.7351 28.6164 22.7559 28.7333C22.7727 28.8259 22.796 28.916 22.8093 29.0095H35.9388L35.3304 26.5761H26.5463V24.1511H34.7219L32.1766 13.968L16.7518 13.2001C16.3468 13.1798 15.9785 12.959 15.7695 12.6114L10.6388 4.05758ZM29.3035 2.47574C29.0188 2.47574 28.7356 2.45742 28.452 2.45742C26.7285 2.45594 25.0066 2.54456 23.293 2.72379L13.3069 3.77785L17.5217 10.8008L31.5597 11.4969L29.3035 2.47574ZM56.2027 12.1198C52.8796 9.35018 49.1535 7.10293 45.1531 5.45673C40.8953 3.79864 36.4008 2.82776 31.8379 2.58021L34.099 11.6271L56.9741 12.7683L56.2027 12.1198ZM71.5666 23.6179C71.5691 21.4172 70.3813 19.3868 68.4613 18.3105L60.9804 15.4037L34.7219 14.0947L37.231 24.1511H50.8819V26.5845H37.8395L38.448 29.018H52.185C52.1984 28.9244 52.2211 28.8343 52.2385 28.7422C52.2588 28.6204 52.2786 28.511 52.3038 28.3966C52.338 28.2421 52.3796 28.0911 52.4256 27.9391C52.4548 27.8317 52.4825 27.7238 52.5167 27.6188C52.5677 27.4609 52.6276 27.3074 52.687 27.1539C52.7251 27.0593 52.7578 26.9643 52.7969 26.8717C52.8722 26.6979 52.9573 26.5286 53.04 26.3608C53.0742 26.2939 53.1034 26.2246 53.14 26.1588C53.2648 25.9295 53.4004 25.7057 53.5475 25.4884C53.5802 25.4399 53.6183 25.3958 53.651 25.3473C53.7728 25.1805 53.8941 25.0161 54.0159 24.8606C54.0758 24.7873 54.1377 24.7195 54.202 24.6477C54.3129 24.5259 54.4223 24.3957 54.5392 24.2823C54.6134 24.2071 54.6912 24.1363 54.7689 24.065C54.8823 23.9576 54.9952 23.8506 55.1145 23.7496C55.1986 23.6778 55.2863 23.611 55.3739 23.5427C55.4957 23.4491 55.6175 23.358 55.7388 23.2704C55.8314 23.2055 55.925 23.1486 56.021 23.0827C56.1428 23.0015 56.2755 22.9223 56.4072 22.848C56.5057 22.7911 56.6052 22.7371 56.7062 22.6837C56.8414 22.6144 56.9775 22.5485 57.1162 22.4866C57.2196 22.4391 57.3231 22.393 57.4276 22.3505C57.5712 22.292 57.7187 22.2411 57.8657 22.1896C57.9717 22.1534 58.0762 22.1153 58.1846 22.0841C58.3405 22.0376 58.4985 21.9999 58.6569 21.9623C58.7614 21.9381 58.8634 21.9098 58.9693 21.889C59.1471 21.8539 59.3283 21.8296 59.511 21.8064C59.6011 21.7945 59.6897 21.7771 59.7808 21.7687C60.0561 21.7336 60.3348 21.7177 60.6155 21.7177C60.8967 21.7177 61.1755 21.7336 61.4493 21.7603C61.5404 21.7687 61.6295 21.7861 61.7191 21.7979C61.9018 21.8212 62.0845 21.8455 62.2607 21.8806C62.3667 21.9014 62.4687 21.9296 62.5736 21.9539C62.7316 21.9915 62.89 22.0292 63.0455 22.0757C63.1539 22.1074 63.2588 22.145 63.3643 22.1811C63.5118 22.2326 63.6589 22.2836 63.8025 22.3421C63.9074 22.3846 64.0104 22.4307 64.1139 22.4782C64.2525 22.5401 64.3887 22.6 64.5238 22.6753C64.6248 22.7287 64.7248 22.7822 64.8234 22.8396C64.9546 22.9139 65.0823 22.9931 65.209 23.0743C65.3051 23.1352 65.3987 23.1961 65.4912 23.2619C65.613 23.3496 65.7348 23.4407 65.8561 23.5342C65.9438 23.6026 66.0314 23.6694 66.1156 23.7412C66.2374 23.8422 66.3478 23.9491 66.4611 24.0561C66.4963 24.0878 66.5329 24.1185 66.5656 24.1511H71.5666V23.6179ZM71.5666 26.5845H68.3019C68.348 26.6806 68.3955 26.7742 68.4381 26.8717C68.4806 26.9687 68.5099 27.0589 68.5475 27.1539C68.6074 27.3074 68.6693 27.4604 68.7178 27.6188C68.752 27.7233 68.7802 27.8317 68.8094 27.9386C68.852 28.0906 68.8931 28.2416 68.9312 28.3961C68.9564 28.5105 68.9757 28.6248 68.9965 28.7417C69.0139 28.8343 69.0366 28.9244 69.05 29.018H71.5666V26.5845Z" fill="#333333"/>
<path d="M44.7981 15.6334H38.7143V18.0673H44.7981V15.6334Z" fill="#333333"/>
<path d="M25.3301 15.6334H18.0294V18.0673H25.3301V15.6334Z" fill="#333333"/>
</svg>
