<svg width="82" height="47" viewBox="0 0 82 47" fill="none" xmlns="http://www.w3.org/2000/svg">
<g filter="url(#filter0_d)">
<path d="M76.783 31.4514H73.0357C72.3678 36.1018 68.0564 39.3304 63.4065 38.6625C59.669 38.1253 56.7326 35.1889 56.1959 31.4514H26.7989C26.1385 36.1028 21.8326 39.3378 17.1811 38.6773C13.1783 38.109 10.1285 34.8012 9.88638 30.7652L5.3488 26.2281C5.12154 25.9993 4.99431 25.6899 4.9948 25.3676V14.417C4.9948 14.1408 5.08887 13.8724 5.26116 13.6565L9.64179 8.18125L7.55 4.01005C7.24998 3.40851 7.49406 2.67824 8.0956 2.37821C8.22581 2.31285 8.36642 2.27176 8.51099 2.25691L15.1488 1.55684L27.0376 0.302755C34.8393 -0.562181 42.7356 0.432471 50.0789 3.20552C54.3081 4.94678 58.2466 7.32176 61.7598 10.2498L64.0863 12.1891L65.7463 13.0941L73.4189 16.0751C73.4679 16.0939 73.5154 16.1157 73.5614 16.1409C76.2974 17.6337 78 20.5013 78 23.6179V30.2349C78 30.9068 77.4554 31.4514 76.783 31.4514ZM64.6155 36.3187C67.9757 36.3187 70.6993 33.5946 70.6993 30.2349C70.6993 26.8747 67.9757 24.1511 64.6155 24.1511C61.2558 24.1511 58.5317 26.8747 58.5317 30.2349C58.5357 33.5932 61.2573 36.3147 64.6155 36.3187ZM18.3788 36.3187C21.739 36.3187 24.4631 33.5946 24.4631 30.2349C24.4631 26.8747 21.739 24.1511 18.3788 24.1511C15.0191 24.1511 12.295 26.8747 12.295 30.2349C12.2995 33.5932 15.0205 36.3147 18.3788 36.3187ZM7.42821 19.2838H11.3449L11.9534 16.8504H7.42821V19.2838ZM14.6388 4.05758L10.5191 4.49178L12.1678 7.78914C12.3797 8.21393 12.3257 8.72289 12.0287 9.09372L7.77032 14.417H13.512C14.1843 14.417 14.7284 14.9621 14.7284 15.634C14.7284 15.733 14.7165 15.832 14.6923 15.9281L13.4758 20.7949C13.3407 21.337 12.854 21.7172 12.2955 21.7172H7.4287V24.8636L10.2513 27.6856C10.2513 27.6733 10.2622 27.6614 10.2656 27.649C10.3859 27.2812 10.531 26.9222 10.7003 26.5746C10.737 26.4994 10.7706 26.4227 10.8097 26.3469C10.985 26.0078 11.1825 25.6805 11.4009 25.3676C11.4449 25.3042 11.4935 25.2458 11.5385 25.1839C11.7499 24.8963 11.9796 24.623 12.2262 24.365C12.2589 24.3299 12.2896 24.2908 12.3247 24.2566C12.5965 23.9843 12.8862 23.7303 13.1921 23.4961C13.2629 23.4427 13.3323 23.3902 13.4026 23.3392C13.7155 23.1109 14.0432 22.904 14.3834 22.7198C14.4284 22.6956 14.4769 22.6762 14.5235 22.653C14.8473 22.4886 15.1814 22.345 15.5236 22.2237C15.5919 22.199 15.6572 22.1712 15.7256 22.148C16.1018 22.0262 16.486 21.9301 16.8757 21.8608C16.9584 21.8465 17.042 21.8356 17.1188 21.8232C17.5356 21.7564 17.957 21.7207 18.3793 21.7172C18.6605 21.7172 18.9392 21.7331 19.213 21.7598C19.3041 21.7682 19.3932 21.7856 19.4829 21.7979C19.6656 21.8207 19.8482 21.845 20.0245 21.8806C20.1304 21.9014 20.2324 21.9291 20.3374 21.9534C20.4953 21.9915 20.6538 22.0292 20.8092 22.0752C20.9177 22.1069 21.0221 22.1445 21.1281 22.1811C21.2756 22.2321 21.4227 22.2831 21.5662 22.3416C21.6707 22.3841 21.7742 22.4307 21.8777 22.4777C22.0163 22.5401 22.1524 22.5995 22.2876 22.6753C22.3886 22.7287 22.4886 22.7822 22.5871 22.8391C22.7183 22.9134 22.8461 22.9926 22.9728 23.0743C23.0689 23.1352 23.1624 23.1961 23.255 23.2614C23.3768 23.3491 23.4981 23.4402 23.6199 23.5342C23.7075 23.6021 23.7952 23.6689 23.8793 23.7407C24.0011 23.8417 24.1115 23.9491 24.2249 24.0561C24.3026 24.1279 24.3804 24.1982 24.4546 24.2739C24.5764 24.3952 24.6809 24.517 24.7918 24.6388C24.8537 24.7106 24.9136 24.7789 24.978 24.8517C25.1072 25.0101 25.2275 25.174 25.3428 25.3384C25.376 25.3874 25.4136 25.431 25.4463 25.4795C25.5924 25.6963 25.7285 25.9196 25.8543 26.1503C25.8904 26.2157 25.9196 26.285 25.9538 26.3523C26.0404 26.5202 26.1256 26.689 26.1974 26.8633C26.236 26.9559 26.2692 27.0504 26.3068 27.1455C26.3662 27.299 26.4286 27.452 26.4771 27.6104C26.5113 27.7149 26.539 27.8233 26.5682 27.9302C26.6108 28.0827 26.6524 28.2332 26.69 28.3877C26.7158 28.5021 26.7351 28.6164 26.7559 28.7333C26.7727 28.8259 26.796 28.916 26.8093 29.0095H39.9388L39.3304 26.5761H30.5463V24.1511H38.7219L36.1766 13.968L20.7518 13.2001C20.3468 13.1798 19.9785 12.959 19.7695 12.6114L14.6388 4.05758ZM33.3035 2.47574C33.0188 2.47574 32.7356 2.45742 32.452 2.45742C30.7285 2.45594 29.0066 2.54456 27.293 2.72379L17.3069 3.77785L21.5217 10.8008L35.5597 11.4969L33.3035 2.47574ZM60.2027 12.1198C56.8796 9.35018 53.1535 7.10293 49.1531 5.45673C44.8953 3.79864 40.4008 2.82776 35.8379 2.58021L38.099 11.6271L60.9741 12.7683L60.2027 12.1198ZM75.5666 23.6179C75.5691 21.4172 74.3813 19.3868 72.4613 18.3105L64.9804 15.4037L38.7219 14.0947L41.231 24.1511H54.8819V26.5845H41.8395L42.448 29.018H56.185C56.1984 28.9244 56.2211 28.8343 56.2385 28.7422C56.2588 28.6204 56.2786 28.511 56.3038 28.3966C56.338 28.2421 56.3796 28.0911 56.4256 27.9391C56.4548 27.8317 56.4825 27.7238 56.5167 27.6188C56.5677 27.4609 56.6276 27.3074 56.687 27.1539C56.7251 27.0593 56.7578 26.9643 56.7969 26.8717C56.8722 26.6979 56.9573 26.5286 57.04 26.3608C57.0742 26.2939 57.1034 26.2246 57.14 26.1588C57.2648 25.9295 57.4004 25.7057 57.5475 25.4884C57.5802 25.4399 57.6183 25.3958 57.651 25.3473C57.7728 25.1805 57.8941 25.0161 58.0159 24.8606C58.0758 24.7873 58.1377 24.7195 58.202 24.6477C58.3129 24.5259 58.4223 24.3957 58.5392 24.2823C58.6134 24.2071 58.6912 24.1363 58.7689 24.065C58.8823 23.9576 58.9952 23.8506 59.1145 23.7496C59.1986 23.6778 59.2863 23.611 59.3739 23.5427C59.4957 23.4491 59.6175 23.358 59.7388 23.2704C59.8314 23.2055 59.925 23.1486 60.021 23.0827C60.1428 23.0015 60.2755 22.9223 60.4072 22.848C60.5057 22.7911 60.6052 22.7371 60.7062 22.6837C60.8414 22.6144 60.9775 22.5485 61.1162 22.4866C61.2196 22.4391 61.3231 22.393 61.4276 22.3505C61.5712 22.292 61.7187 22.2411 61.8657 22.1896C61.9717 22.1534 62.0762 22.1153 62.1846 22.0841C62.3405 22.0376 62.4985 21.9999 62.6569 21.9623C62.7614 21.9381 62.8634 21.9098 62.9693 21.889C63.1471 21.8539 63.3283 21.8296 63.511 21.8064C63.6011 21.7945 63.6897 21.7771 63.7808 21.7687C64.0561 21.7336 64.3348 21.7177 64.6155 21.7177C64.8967 21.7177 65.1755 21.7336 65.4493 21.7603C65.5404 21.7687 65.6295 21.7861 65.7191 21.7979C65.9018 21.8212 66.0845 21.8455 66.2607 21.8806C66.3667 21.9014 66.4687 21.9296 66.5736 21.9539C66.7316 21.9915 66.89 22.0292 67.0455 22.0757C67.1539 22.1074 67.2588 22.145 67.3643 22.1811C67.5118 22.2326 67.6589 22.2836 67.8025 22.3421C67.9074 22.3846 68.0104 22.4307 68.1139 22.4782C68.2525 22.5401 68.3887 22.6 68.5238 22.6753C68.6248 22.7287 68.7248 22.7822 68.8234 22.8396C68.9546 22.9139 69.0823 22.9931 69.209 23.0743C69.3051 23.1352 69.3987 23.1961 69.4912 23.2619C69.613 23.3496 69.7348 23.4407 69.8561 23.5342C69.9438 23.6026 70.0314 23.6694 70.1156 23.7412C70.2374 23.8422 70.3478 23.9491 70.4611 24.0561C70.4963 24.0878 70.5329 24.1185 70.5656 24.1511H75.5666V23.6179ZM75.5666 26.5845H72.3019C72.348 26.6806 72.3955 26.7742 72.4381 26.8717C72.4806 26.9687 72.5099 27.0589 72.5475 27.1539C72.6074 27.3074 72.6693 27.4604 72.7178 27.6188C72.752 27.7233 72.7802 27.8317 72.8094 27.9386C72.852 28.0906 72.8931 28.2416 72.9312 28.3961C72.9564 28.5105 72.9757 28.6248 72.9965 28.7417C73.0139 28.8343 73.0366 28.9244 73.05 29.018H75.5666V26.5845Z" fill="#333333"/>
<path d="M48.7981 15.6334H42.7143V18.0673H48.7981V15.6334Z" fill="#333333"/>
<path d="M29.3301 15.6334H22.0294V18.0673H29.3301V15.6334Z" fill="#333333"/>
</g>
<defs>
<filter id="filter0_d" x="0.994629" y="0" width="81.0052" height="46.7629" filterUnits="userSpaceOnUse" color-interpolation-filters="sRGB">
<feFlood flood-opacity="0" result="BackgroundImageFix"/>
<feColorMatrix in="SourceAlpha" type="matrix" values="0 0 0 0 0 0 0 0 0 0 0 0 0 0 0 0 0 0 127 0"/>
<feOffset dy="4"/>
<feGaussianBlur stdDeviation="2"/>
<feColorMatrix type="matrix" values="0 0 0 0 1 0 0 0 0 1 0 0 0 0 1 0 0 0 1 0"/>
<feBlend mode="normal" in2="BackgroundImageFix" result="effect1_dropShadow"/>
<feBlend mode="normal" in="SourceGraphic" in2="effect1_dropShadow" result="shape"/>
</filter>
</defs>
</svg>
