<svg width="74" height="71" viewBox="0 0 74 71" fill="none" xmlns="http://www.w3.org/2000/svg">
<path d="M73.8219 26.6731C73.5791 25.9296 72.9419 25.3986 72.1681 25.2772L49.1061 22L38.7281 1.13793C38.3792 0.44 37.6661 0 36.8923 0C36.1185 0 35.4054 0.44 35.0564 1.1531L24.8151 22.0758L1.75301 25.5048C0.979217 25.6262 0.341976 26.1572 0.0992176 26.9007C-0.143541 27.6441 0.0688728 28.4634 0.630251 28.9945L17.3654 45.2138L13.4964 68.1848C13.3599 68.9586 13.6785 69.7324 14.3158 70.1875C14.6647 70.4455 15.0895 70.582 15.5144 70.582C15.8482 70.582 16.1668 70.5061 16.4702 70.3392L37.0592 59.4303L57.7088 70.2179C58.0123 70.3696 58.3309 70.4455 58.6495 70.4455C59.7723 70.4455 60.6978 69.5199 60.6978 68.3972C60.6978 68.2303 60.6826 68.0786 60.6371 67.9268L56.6467 45.0924L73.2757 28.782C73.8674 28.2358 74.0647 27.4165 73.8219 26.6731ZM53.0357 42.9227C52.5502 43.3931 52.3378 44.0758 52.4592 44.7434L55.9336 64.6648L37.9999 55.3034C37.4081 54.9848 36.695 55 36.0881 55.3034L18.2151 64.771L21.5682 44.8193C21.6744 44.1517 21.462 43.4841 20.9764 43.0138L6.47162 28.9338L26.484 25.96C27.1516 25.8538 27.7282 25.4441 28.0164 24.8372L36.9075 6.67586L45.9199 24.7917C46.2233 25.3986 46.7999 25.8083 47.4674 25.9145L67.495 28.7669L53.0357 42.9227Z" fill="#FFD900"/>
</svg>
