<svg width="109" height="50" viewBox="0 0 109 50" fill="none" xmlns="http://www.w3.org/2000/svg">
<path fill-rule="evenodd" clip-rule="evenodd" d="M17.5062 2.50239C19.1668 1.17918 21.4239 1.52022e-05 24.019 0H45.9913C47.181 0 48.1455 0.964446 48.1455 2.15415C48.1455 3.34385 47.181 4.3083 45.9913 4.3083H24.019C22.7366 4.30831 21.4027 4.90632 20.1909 5.87189C18.9755 6.84033 18.1137 7.99742 17.7672 8.70368C16.7195 10.8394 14.9331 15.7334 13.0868 21.1367C11.2603 26.482 9.42962 32.1618 8.3028 35.7569C7.94698 36.8921 6.73823 37.524 5.60298 37.1682C4.46773 36.8123 3.83589 35.6036 4.19171 34.4683C5.32675 30.847 7.16892 25.1314 9.00988 19.7437C10.831 14.414 12.7067 9.23726 13.8993 6.8062C14.5567 5.46602 15.8491 3.82272 17.5062 2.50239Z" fill="#333333"/>
<path fill-rule="evenodd" clip-rule="evenodd" d="M91.4946 2.50239C89.8339 1.17918 87.5768 1.52022e-05 84.9817 0H63.0094C61.8197 0 60.8553 0.964446 60.8553 2.15415C60.8553 3.34385 61.8197 4.3083 63.0094 4.3083H84.9817C86.2641 4.30831 87.598 4.90632 88.8098 5.87189C90.0253 6.84033 90.8871 7.99742 91.2335 8.70368C92.2813 10.8394 94.0677 15.7334 95.914 21.1367C97.7405 26.482 99.5711 32.1618 100.698 35.7569C101.054 36.8921 102.263 37.524 103.398 37.1682C104.533 36.8123 105.165 35.6036 104.809 34.4683C103.674 30.847 101.832 25.1314 99.9908 19.7437C98.1697 14.414 96.2941 9.23726 95.1015 6.8062C94.444 5.46602 93.1517 3.82272 91.4946 2.50239Z" fill="#333333"/>
<path fill-rule="evenodd" clip-rule="evenodd" d="M103.399 39.4208H5.60079C4.88697 39.4208 4.3083 39.9995 4.3083 40.7133V45.0216H104.692V40.7133C104.692 39.9995 104.113 39.4208 103.399 39.4208ZM5.60079 35.1125C2.50756 35.1125 0 37.6201 0 40.7133V48.2529C0 48.8477 0.482224 49.3299 1.07708 49.3299H107.923C108.518 49.3299 109 48.8477 109 48.2529V40.7133C109 37.6201 106.492 35.1125 103.399 35.1125H5.60079Z" fill="#333333"/>
<path fill-rule="evenodd" clip-rule="evenodd" d="M34.0354 20.2488V28.2191H42.2212V20.2488H34.0354Z" fill="#333333"/>
<path fill-rule="evenodd" clip-rule="evenodd" d="M50.407 20.2488V28.2191H58.5928V20.2488H50.407Z" fill="#333333"/>
<path fill-rule="evenodd" clip-rule="evenodd" d="M42.2212 12.2786V20.2489H50.407V12.2786H42.2212Z" fill="#333333"/>
<path fill-rule="evenodd" clip-rule="evenodd" d="M66.7786 20.2488V28.2191H74.9643V20.2488H66.7786Z" fill="#333333"/>
<path fill-rule="evenodd" clip-rule="evenodd" d="M58.5928 12.2786V20.2489H66.7785V12.2786H58.5928Z" fill="#333333"/>
<path d="M56.6542 2.15415C56.6542 3.34385 55.6898 4.3083 54.5001 4.3083C53.3104 4.3083 52.3459 3.34385 52.3459 2.15415C52.3459 0.964446 53.3104 0 54.5001 0C55.6898 0 56.6542 0.964446 56.6542 2.15415Z" fill="#333333"/>
</svg>
