<svg width="50" height="50" viewBox="0 0 50 50" fill="none" xmlns="http://www.w3.org/2000/svg">
<path d="M45.8669 31.9619C45.8669 34.8453 43.529 37.1832 40.6456 37.1832H6.55696L13.4317 30.3085L10.9706 27.8474L1.12482 37.6931C0.445374 38.373 0.445374 39.4744 1.12482 40.1543L10.9706 50L13.4317 47.5389L6.55696 40.6642H40.6456C45.4492 40.6582 49.3419 36.7656 49.3479 31.9619V25H45.8669V31.9619Z" fill="#333333"/>
<path d="M4.09616 18.0382C4.09616 15.1543 6.43363 12.8168 9.31754 12.8168H43.4061L36.5314 19.6915L38.9925 22.1527L48.8383 12.3069C49.5177 11.627 49.5177 10.5256 48.8383 9.84576L38.9925 0L36.5314 2.46112L43.4061 9.33586H9.31754C4.51385 9.34139 0.620758 13.2345 0.615234 18.0382V25H4.09616V18.0382Z" fill="#333333"/>
</svg>
