<svg width="86" height="35" viewBox="0 0 86 35" fill="none" xmlns="http://www.w3.org/2000/svg">
<path d="M49.5868 13.2778H43.92V16.1118H49.5868V13.2778Z" fill="#333333"/>
<path d="M1.21579 9.0419L10.8396 7.66757C12.5944 6.58955 14.4155 5.62451 16.2931 4.77766C22.4938 1.96903 29.2236 0.519756 36.0313 0.527251H37.7031C45.737 0.533015 53.6423 2.54898 60.6985 6.39124L65.5553 9.04075C71.2406 9.10474 76.8163 10.6169 81.7556 13.4324C83.763 14.5836 85.0024 16.7195 85.0059 19.0329V27.4455C85.0059 28.2284 84.3717 28.8625 83.5889 28.8625H78.8317C77.2844 33.2767 72.4518 35.6011 68.0377 34.0538C65.6078 33.2023 63.6979 31.2918 62.8464 28.8625H24.9946C23.4473 33.2767 18.6146 35.6011 14.2005 34.0538C11.7712 33.2023 9.86073 31.2918 9.00926 28.8625H8.5008C8.32037 28.8625 8.14165 28.8285 7.9739 28.7617L3.38509 26.9204C1.33512 26.1087 -0.00750732 24.1244 -1.52588e-05 21.9205V10.4445C-1.52588e-05 9.74003 0.518242 9.14221 1.21579 9.0419ZM65.2861 27.1625C65.9127 30.2288 68.9064 32.2067 71.9727 31.5801C75.0396 30.9534 77.0175 27.9598 76.3909 24.8929C75.7637 21.8266 72.77 19.8487 69.7037 20.4753C67.0651 21.0143 65.1708 23.3358 65.1714 26.0291C65.1714 26.4096 65.21 26.7895 65.2861 27.1625ZM39.6695 26.0291H62.338C62.338 21.3343 66.1433 17.5283 70.8382 17.5283C75.5331 17.5283 79.339 21.3343 79.339 26.0291H82.1724V19.0329C82.1707 17.7353 81.4755 16.5368 80.349 15.8923C75.7256 13.2525 70.4946 11.8632 65.1714 11.8615H39.6695V26.0291ZM39.6695 9.02807H59.6147L59.3414 8.87876C53.2843 5.58704 46.5562 3.72097 39.6695 3.42292V9.02807ZM36.8361 3.36066H36.0342C30.3247 3.35432 24.6671 4.43811 19.3641 6.55438L21.8377 9.02807H36.8361V3.36066ZM11.4489 27.1625C12.0756 30.2288 15.0693 32.2067 18.1361 31.5801C21.2025 30.9534 23.1804 27.9598 22.5537 24.8929C21.9271 21.8266 18.9328 19.8487 15.8665 20.4753C13.228 21.0143 11.3336 23.3358 11.3342 26.0291C11.3342 26.4096 11.3728 26.7895 11.4489 27.1625ZM2.8334 13.2779H7.08381V16.1119H2.8334V21.9205C2.82994 22.9645 3.46638 23.9042 4.43718 24.2876L8.5008 25.9196C8.5008 25.7893 8.51752 25.6602 8.52617 25.5299C8.53482 25.3996 8.5377 25.2468 8.55154 25.105C8.56595 24.9632 8.59419 24.8214 8.61668 24.6802C8.63974 24.5383 8.65646 24.3965 8.6847 24.268C8.71295 24.1388 8.75446 23.9959 8.79135 23.861C8.82825 23.7267 8.85649 23.5906 8.89915 23.4586C8.94124 23.3272 8.99255 23.2009 9.04039 23.0718C9.08881 22.9432 9.13263 22.81 9.18221 22.6821C9.23179 22.5547 9.29866 22.4388 9.35803 22.3183C9.41741 22.1978 9.47564 22.0658 9.54193 21.9442C9.6088 21.8225 9.68375 21.7188 9.74773 21.6058C9.81115 21.4922 9.88898 21.3631 9.96968 21.2472C10.051 21.1308 10.1259 21.0391 10.2037 20.9342C10.2816 20.8293 10.3698 20.7059 10.4603 20.5969C10.5508 20.488 10.6355 20.4027 10.7237 20.3133C10.8113 20.2245 10.9093 20.104 11.0068 20.0049C11.1048 19.9057 11.201 19.8273 11.2985 19.7397C11.3965 19.6521 11.5014 19.5483 11.6092 19.4561C11.7164 19.3644 11.826 19.2935 11.9332 19.2128C12.041 19.1321 12.1488 19.0456 12.2618 18.9701C12.3753 18.8952 12.5027 18.8289 12.6244 18.7493C12.7466 18.6697 12.8458 18.6075 12.9605 18.547C13.0752 18.4858 13.2182 18.4219 13.3484 18.3596C13.4787 18.2973 13.5808 18.242 13.7013 18.1913C13.8217 18.14 13.9849 18.0863 14.1261 18.0356C14.2679 17.9843 14.3602 17.9445 14.4807 17.9065C14.6421 17.8569 14.8075 17.8212 14.9724 17.7802C15.0802 17.7549 15.1834 17.7209 15.2924 17.6984C15.4664 17.6626 15.6452 17.643 15.8221 17.6171C15.9271 17.6033 16.0274 17.5802 16.1323 17.5704C16.4159 17.5421 16.699 17.5266 16.9964 17.5266C21.6896 17.5312 25.4926 21.3343 25.4973 26.0274H36.8355V11.8609H21.2515C20.8756 11.8609 20.5153 11.7116 20.2501 11.4458L16.5762 7.77191C15.0341 8.50578 13.5347 9.32611 12.0848 10.2289C11.9176 10.3332 11.7308 10.4018 11.5354 10.4301L2.8334 11.6724V13.2779Z" fill="#333333"/>
</svg>
