<svg width="64" height="59" viewBox="0 0 64 59" fill="none" xmlns="http://www.w3.org/2000/svg">
<g filter="url(#filter0_d)">
<path d="M32.5875 20.9155C32.4687 20.8895 32.3467 20.8848 32.2263 20.903C31.0198 20.7608 30.1096 19.7275 30.1076 18.4983C30.1076 17.9092 29.6358 17.4316 29.0538 17.4316C28.4719 17.4316 28.0001 17.9092 28.0001 18.4983C28.0032 20.5509 29.3595 22.3488 31.3146 22.8921V23.9587C31.3146 24.5478 31.7864 25.0254 32.3683 25.0254C32.9503 25.0254 33.4221 24.5478 33.4221 23.9587V22.9566C35.6787 22.4785 37.2125 20.3509 36.9753 18.0296C36.7376 15.7082 34.8056 13.9441 32.5001 13.9436C31.1788 13.9436 30.1076 12.8592 30.1076 11.5217C30.1076 10.1842 31.1788 9.09987 32.5001 9.09987C33.8213 9.09987 34.8925 10.1842 34.8925 11.5217C34.8925 12.1108 35.3644 12.5884 35.9463 12.5884C36.5282 12.5884 37 12.1108 37 11.5217C36.9969 9.36654 35.5053 7.50768 33.4221 7.06289V6.09206C33.4221 5.50299 32.9503 5.02539 32.3683 5.02539C31.7864 5.02539 31.3146 5.50299 31.3146 6.09206V7.128C29.1403 7.72904 27.7408 9.86602 28.0402 12.1275C28.3397 14.3889 30.246 16.077 32.5001 16.0764C33.8038 16.0764 34.8673 17.1332 34.891 18.4525C34.9152 19.7717 33.8903 20.8676 32.5875 20.9155Z" fill="#333333"/>
</g>
<g filter="url(#filter1_d)">
<path d="M18 15.0254C18 23.3098 24.7156 30.0254 33 30.0254C41.2844 30.0254 48 23.3098 48 15.0254C48 6.74099 41.2844 0.0253906 33 0.0253906C24.7196 0.0344821 18.0096 6.74504 18 15.0254ZM33 2.09422C40.1419 2.09422 45.9312 7.8835 45.9312 15.0254C45.9312 22.1673 40.1419 27.9566 33 27.9566C25.8581 27.9566 20.0688 22.1673 20.0688 15.0254C20.0769 7.88703 25.8616 2.1023 33 2.09422Z" fill="#333333"/>
</g>
<g filter="url(#filter2_d)">
<path d="M52.9099 33.1736L44.7426 37.027C43.615 34.9325 41.4519 33.5996 39.0714 33.5325L31.5318 33.3256C30.338 33.2915 29.1666 32.9895 28.1051 32.442L27.3379 32.045C23.4098 30.0003 18.7278 30.0054 14.8037 32.0582L14.8516 30.3226C14.8674 29.7477 14.4138 29.2688 13.838 29.253L5.57042 29.0258C4.99465 29.01 4.5156 29.463 4.49981 30.0379L4.0004 48.1551C3.98462 48.7301 4.43821 49.209 5.01399 49.2247L13.2816 49.452H13.3101C13.8751 49.452 14.3374 49.0031 14.3527 48.4393L14.3766 47.5725L16.5244 46.4241C17.3675 45.9712 18.3531 45.8634 19.274 46.1237L32.0999 49.7183C32.1223 49.7249 32.1447 49.73 32.1676 49.7351C33.0947 49.9288 34.0396 50.0259 34.9865 50.0254C36.9923 50.0264 38.9746 49.5948 40.7977 48.759C40.8425 48.7387 40.8857 48.7148 40.927 48.6879L59.5234 36.6762C59.9867 36.3768 60.1363 35.7693 59.865 35.2894C58.4844 32.8431 55.4222 31.9113 52.9099 33.1736ZM6.11362 47.1719L6.5555 31.136L12.7384 31.3058L12.2965 47.3422L6.11362 47.1719ZM39.8584 46.8994C37.5935 47.9202 35.0638 48.2019 32.6294 47.7052L19.8381 44.1197C18.3984 43.7135 16.8574 43.8818 15.5404 44.5889L14.4428 45.1761L14.7365 34.5141C18.2146 32.2041 22.6752 31.9667 26.3793 33.8939L27.1465 34.2909C28.4875 34.9823 29.9664 35.3636 31.4748 35.4073L39.0149 35.6142C41.1327 35.6752 42.9313 37.181 43.3609 39.2531L32.13 38.9435C31.5542 38.9278 31.0751 39.3812 31.0589 39.9557C31.0431 40.5306 31.4972 41.0095 32.0724 41.0253L44.4667 41.3659H44.4957C45.0603 41.3654 45.522 40.9165 45.5373 40.3532C45.55 39.9008 45.5164 39.4478 45.4365 39.0025L53.8135 35.0499C53.8216 35.0464 53.8298 35.0423 53.8379 35.0382C55.0261 34.4379 56.4628 34.6387 57.4402 35.542L39.8584 46.8994Z" fill="#333333"/>
</g>
<defs>
<filter id="filter0_d" x="24" y="5.02539" width="17" height="28" filterUnits="userSpaceOnUse" color-interpolation-filters="sRGB">
<feFlood flood-opacity="0" result="BackgroundImageFix"/>
<feColorMatrix in="SourceAlpha" type="matrix" values="0 0 0 0 0 0 0 0 0 0 0 0 0 0 0 0 0 0 127 0"/>
<feOffset dy="4"/>
<feGaussianBlur stdDeviation="2"/>
<feColorMatrix type="matrix" values="0 0 0 0 1 0 0 0 0 1 0 0 0 0 1 0 0 0 1 0"/>
<feBlend mode="normal" in2="BackgroundImageFix" result="effect1_dropShadow"/>
<feBlend mode="normal" in="SourceGraphic" in2="effect1_dropShadow" result="shape"/>
</filter>
<filter id="filter1_d" x="14" y="0.0253906" width="38" height="38" filterUnits="userSpaceOnUse" color-interpolation-filters="sRGB">
<feFlood flood-opacity="0" result="BackgroundImageFix"/>
<feColorMatrix in="SourceAlpha" type="matrix" values="0 0 0 0 0 0 0 0 0 0 0 0 0 0 0 0 0 0 127 0"/>
<feOffset dy="4"/>
<feGaussianBlur stdDeviation="2"/>
<feColorMatrix type="matrix" values="0 0 0 0 1 0 0 0 0 1 0 0 0 0 1 0 0 0 1 0"/>
<feBlend mode="normal" in2="BackgroundImageFix" result="effect1_dropShadow"/>
<feBlend mode="normal" in="SourceGraphic" in2="effect1_dropShadow" result="shape"/>
</filter>
<filter id="filter2_d" x="0" y="29.0254" width="64" height="29" filterUnits="userSpaceOnUse" color-interpolation-filters="sRGB">
<feFlood flood-opacity="0" result="BackgroundImageFix"/>
<feColorMatrix in="SourceAlpha" type="matrix" values="0 0 0 0 0 0 0 0 0 0 0 0 0 0 0 0 0 0 127 0"/>
<feOffset dy="4"/>
<feGaussianBlur stdDeviation="2"/>
<feColorMatrix type="matrix" values="0 0 0 0 1 0 0 0 0 1 0 0 0 0 1 0 0 0 1 0"/>
<feBlend mode="normal" in2="BackgroundImageFix" result="effect1_dropShadow"/>
<feBlend mode="normal" in="SourceGraphic" in2="effect1_dropShadow" result="shape"/>
</filter>
</defs>
</svg>
