<svg width="30" height="30" viewBox="0 0 30 30" fill="none" xmlns="http://www.w3.org/2000/svg">
<path d="M14.875 0C6.65974 0 0 6.65974 0 14.875C0 23.0903 6.65974 29.75 14.875 29.75C23.0903 29.75 29.75 23.0903 29.75 14.875C29.75 6.65974 23.0903 0 14.875 0ZM20.5499 7.57522L18.4925 7.57613C16.8791 7.57613 16.5672 8.34278 16.5672 9.46765V11.9481H20.4144L20.4126 15.8331H16.5675V25.8029H12.5547V15.8331H9.20013V11.9481H12.5547V9.08296C12.5547 5.75796 14.5862 3.94709 17.552 3.94709L20.5502 3.95165V7.57522H20.5499Z" fill="white"/>
</svg>
