<svg width="32" height="44" viewBox="0 0 32 44" fill="none" xmlns="http://www.w3.org/2000/svg">
<path d="M16.5651 0.00917076C7.46949 -0.29196 0 6.86177 0 15.7292C0 25.7928 9.83066 33.0963 15.3407 43.5997C15.6205 44.133 16.4019 44.1337 16.6826 43.6004C21.6673 34.1496 30.1867 27.8122 31.7656 18.7073C33.4003 9.28555 26.2883 0.331205 16.5651 0.00917076ZM16.0109 23.9682C11.3792 23.9682 7.62427 20.2794 7.62427 15.7292C7.62427 11.1791 11.3792 7.49024 16.0109 7.49024C20.6426 7.49024 24.3976 11.1791 24.3976 15.7292C24.3976 20.2794 20.6426 23.9682 16.0109 23.9682Z" fill="#FFD900"/>
</svg>
