<svg width="84" height="76" viewBox="0 0 84 76" fill="none" xmlns="http://www.w3.org/2000/svg">
<path d="M9 75.1216C9 72.9124 10.7909 71.1216 13 71.1216H72C74.2091 71.1216 76 72.9124 76 75.1216H9Z" fill="#333333"/>
<path fill-rule="evenodd" clip-rule="evenodd" d="M0 37.1186C3.58333 31.1317 13.5909 19.3615 39 20.1597V21.1186V23.1213V68.1186H38V68.1213L28 68.1213L24 68.1213L23.9535 68.1213L9.54293 30.7377C7.28148 32.4903 5.35833 34.5987 4 37.1214C-1.86364 37.1214 0.977273 37.1186 1.46591 37.1186H0ZM4 37.1214H0L11.8421 68.1214H16L4.1579 37.1214H4ZM12.6975 28.6303L26.45 64.1213H35V22.9049C29.2081 23.0001 19.9574 24.4397 12.6975 28.6303Z" fill="#333333"/>
<path fill-rule="evenodd" clip-rule="evenodd" d="M84 37.1186C80.4167 31.1317 70.4091 19.3615 45 20.1597V21.1186V23.1213V68.1186H46.929C46.9524 68.1203 46.9761 68.1211 47 68.1211H56L55.9999 68.1214H60.0464L74.457 30.7376C76.7185 32.4903 78.6417 34.5987 80 37.1214C85.8636 37.1214 83.0227 37.1186 82.5341 37.1186H84ZM80 37.1214H79.8421L68 68.1214H72.1579L84 37.1214H80ZM71.3025 28.6302L57.55 64.1211H49V22.9049C54.7919 23.0001 64.0426 24.4397 71.3025 28.6302Z" fill="#333333"/>
<path fill-rule="evenodd" clip-rule="evenodd" d="M32.5247 9.4751L41.9998 -8.55753e-05L51.475 9.4751L41.9998 18.9503L32.5247 9.4751ZM36.7673 9.4751L41.9998 14.7076L47.2324 9.4751L41.9998 4.24256L36.7673 9.4751Z" fill="#333333"/>
</svg>
