<svg width="120" height="55" viewBox="0 0 120 55" fill="none" xmlns="http://www.w3.org/2000/svg">
<path fill-rule="evenodd" clip-rule="evenodd" d="M108.495 29.5716C109.569 30.6743 111.434 30.2004 111.852 28.7186L119.231 2.54472C119.649 1.06289 118.306 -0.315521 116.814 0.0635818L90.457 6.75974C88.9648 7.13885 88.4426 8.99113 89.517 10.0939L95.0482 15.7708C95.8076 16.5503 95.8044 17.7939 95.041 18.5695L73.8199 40.1291C73.0363 40.9252 71.7523 40.9251 70.9688 40.1287L41.848 10.5266C41.0762 9.74209 39.8156 9.7285 39.0271 10.4962L0.604819 47.9049C-0.174426 48.6636 -0.20458 49.9059 0.536938 50.7015L3.21277 53.5725C3.97775 54.3932 5.2681 54.4243 6.07165 53.6412L38.886 21.6646C39.6745 20.8963 40.9356 20.9096 41.7076 21.6944L70.9685 51.4388C71.7521 52.2353 73.0363 52.2353 73.8199 51.4388L100.514 24.3068C101.3 23.5076 102.589 23.5107 103.372 24.3137L108.495 29.5716Z" fill="#FFD900"/>
</svg>
