<svg width="33" height="33" viewBox="0 0 33 33" fill="none" xmlns="http://www.w3.org/2000/svg">
<path d="M16.5003 19.3224C18.0583 19.3224 19.3212 18.0595 19.3212 16.5015C19.3212 14.9436 18.0583 13.6807 16.5003 13.6807C14.9424 13.6807 13.6794 14.9436 13.6794 16.5015C13.6794 18.0595 14.9424 19.3224 16.5003 19.3224Z" fill="white"/>
<path d="M23.0964 11.5099C22.943 11.1145 22.7596 10.8336 22.4631 10.5371C22.1666 10.2406 21.8856 10.0572 21.4903 9.90373C21.1925 9.78798 20.7438 9.65013 19.9192 9.61241C19.027 9.57209 18.7591 9.56299 16.5001 9.56299C14.241 9.56299 13.9731 9.57209 13.081 9.61241C12.2564 9.65013 11.8077 9.78798 11.5099 9.90373C11.1145 10.0572 10.8336 10.2406 10.5371 10.5371C10.2406 10.8336 10.0572 11.1145 9.90373 11.5099C9.78798 11.8077 9.65013 12.2564 9.61241 13.081C9.57209 13.9731 9.56299 14.241 9.56299 16.5001C9.56299 18.7591 9.57209 19.027 9.61241 19.9192C9.65013 20.7438 9.78798 21.1925 9.90373 21.4903C10.0572 21.8856 10.2406 22.1666 10.5371 22.4631C10.8336 22.7596 11.1145 22.943 11.5099 23.0964C11.8077 23.2122 12.2564 23.3501 13.081 23.3878C13.9731 23.4281 14.241 23.4372 16.5001 23.4372C18.7591 23.4372 19.027 23.4281 19.9192 23.3878C20.7438 23.3501 21.1925 23.2122 21.4903 23.0964C21.8856 22.943 22.1666 22.7596 22.4631 22.4631C22.7596 22.1666 22.943 21.8856 23.0964 21.4903C23.2122 21.1925 23.3501 20.7438 23.3878 19.9192C23.4281 19.027 23.4372 18.7591 23.4372 16.5001C23.4372 14.241 23.4281 13.9731 23.3878 13.081C23.3501 12.2564 23.2122 11.809 23.0964 11.5099ZM16.5001 20.8452C14.1006 20.8452 12.155 18.8996 12.155 16.5001C12.155 14.1006 14.1006 12.155 16.5001 12.155C18.8996 12.155 20.8452 14.1006 20.8452 16.5001C20.8452 18.8996 18.8996 20.8452 16.5001 20.8452ZM21.0169 12.999C20.4563 12.999 20.0012 12.5438 20.0012 11.9833C20.0012 11.4228 20.4563 10.9676 21.0169 10.9676C21.5774 10.9676 22.0326 11.4228 22.0326 11.9833C22.0326 12.5451 21.5774 12.999 21.0169 12.999Z" fill="white"/>
<path d="M16.5013 0C7.38839 0 0 7.38709 0 16.5V16.5078C0 25.6168 7.38449 33 16.4922 33H16.5078C25.6168 33 33 25.6155 33 16.5078V16.5C33.0013 7.38709 25.6142 0 16.5013 0ZM24.9119 19.9894C24.8703 20.8906 24.7272 21.5045 24.5191 22.0429C24.3033 22.5996 24.0132 23.0716 23.5437 23.5411C23.0729 24.0119 22.6008 24.3007 22.0455 24.5166C21.5071 24.7259 20.8919 24.869 19.992 24.9093C19.0894 24.9509 18.8007 24.96 16.5039 24.96C14.2058 24.96 13.9171 24.9509 13.0158 24.9093C12.1146 24.8677 11.5007 24.7246 10.9623 24.5166C10.4057 24.3007 9.93356 24.0106 9.46406 23.5411C8.99326 23.0703 8.70454 22.5983 8.48865 22.0429C8.27926 21.5045 8.1362 20.8893 8.09588 19.9894C8.05427 19.0868 8.04517 18.7981 8.04517 16.5013C8.04517 14.2032 8.05427 13.9145 8.09588 13.0132C8.1375 12.112 8.28056 11.4981 8.48865 10.9597C8.70454 10.403 8.99456 9.93095 9.46406 9.46146C9.93486 8.99066 10.407 8.70194 10.9623 8.48605C11.5007 8.27666 12.1159 8.1336 13.0158 8.09328C13.9184 8.05167 14.2058 8.04256 16.5039 8.04256C18.802 8.04256 19.0907 8.05167 19.992 8.09328C20.8932 8.1349 21.5071 8.27796 22.0455 8.48605C22.6021 8.70194 23.0742 8.99196 23.5437 9.46146C24.0145 9.93225 24.3033 10.4044 24.5191 10.9597C24.7285 11.4981 24.8716 12.1133 24.9119 13.0132C24.9535 13.9158 24.9626 14.2045 24.9626 16.5013C24.9626 18.7981 24.9535 19.0868 24.9119 19.9894Z" fill="white"/>
</svg>
