<svg width="77" height="77" viewBox="0 0 77 77" fill="none" xmlns="http://www.w3.org/2000/svg">
<path d="M68.7843 14.7288H71.1634C71.9933 14.7288 72.6663 14.0558 72.6663 13.2258C72.6663 12.3959 71.9933 11.7229 71.1634 11.7229H65.4523C64.6224 11.7229 63.9494 12.3959 63.9494 13.2258V18.9369C63.9494 19.7669 64.6224 20.4399 65.4523 20.4399C66.2822 20.4399 66.9552 19.7669 66.9552 18.9369V17.2833C71.5154 23.3883 73.9942 30.7957 73.9942 38.5C73.9942 58.0716 58.0716 73.9942 38.5 73.9942C18.9284 73.9942 3.00584 58.0716 3.00584 38.5C3.00584 18.9284 18.9284 3.00584 38.5 3.00584C39.9475 3.00584 41.4042 3.09376 42.8302 3.26705C43.6531 3.36654 44.4035 2.78055 44.5036 1.9565C44.6038 1.1326 44.0171 0.383245 43.193 0.28315C41.6471 0.0952851 40.0683 0 38.5 0C28.2163 0 18.548 4.00468 11.2764 11.2764C4.00468 18.548 0 28.2163 0 38.5C0 48.7837 4.00468 58.452 11.2764 65.7236C18.548 72.9953 28.2163 77 38.5 77C48.7837 77 58.452 72.9953 65.7236 65.7236C72.9953 58.452 77 48.7837 77 38.5C77 29.822 74.1009 21.491 68.7843 14.7288Z" fill="#333333"/>
<path d="M16.3019 22.6962C15.6005 22.2523 14.6722 22.4612 14.2281 23.1621C10.7971 28.5811 9.2782 35.098 9.95136 41.5126C10.6344 48.0224 13.5644 54.1612 18.2015 58.7985C23.7976 64.3946 31.1485 67.1927 38.4996 67.1927C45.8507 67.1927 53.2015 64.3947 58.7978 58.7985C69.9902 47.6061 69.9902 29.3946 58.7978 18.2023C54.1677 13.5724 48.039 10.6435 41.54 9.95521C35.1373 9.27664 28.6274 10.7836 23.2107 14.1978C22.5084 14.6404 22.2981 15.5685 22.7406 16.2706C23.1832 16.9729 24.1113 17.1832 24.8134 16.7407C35.024 10.3052 48.1245 11.7801 56.6722 20.3278C66.6926 30.3482 66.6926 46.6525 56.6722 56.6729C46.6519 66.6935 30.3473 66.6935 20.3271 56.6729C11.8975 48.2433 10.4006 34.8263 16.7679 24.7702C17.2117 24.0688 17.0032 23.1403 16.3019 22.6962Z" fill="#333333"/>
<path d="M58.0381 40.0273H59.8915C60.7214 40.0273 61.3944 39.3543 61.3944 38.5244C61.3944 37.6945 60.7214 37.0215 59.8915 37.0215H58.0381C57.2082 37.0215 56.5352 37.6945 56.5352 38.5244C56.5352 39.3543 57.208 40.0273 58.0381 40.0273Z" fill="#333333"/>
<path d="M15.6056 38.4756C15.6056 39.3055 16.2786 39.9785 17.1085 39.9785H18.9619C19.7918 39.9785 20.4648 39.3055 20.4648 38.4756C20.4648 37.6457 19.7918 36.9727 18.9619 36.9727H17.1085C16.2786 36.9727 15.6056 37.6455 15.6056 38.4756Z" fill="#333333"/>
<path d="M40.0274 18.9618V17.1084C40.0274 16.2785 39.3544 15.6055 38.5245 15.6055C37.6946 15.6055 37.0216 16.2785 37.0216 17.1084V18.9618C37.0216 19.7917 37.6946 20.4647 38.5245 20.4647C39.3544 20.4647 40.0274 19.7917 40.0274 18.9618Z" fill="#333333"/>
<path d="M36.9728 58.0383V59.8917C36.9728 60.7216 37.6458 61.3946 38.4757 61.3946C39.3056 61.3946 39.9786 60.7216 39.9786 59.8917V58.0383C39.9786 57.2084 39.3056 56.5354 38.4757 56.5354C37.6458 56.5354 36.9728 57.2083 36.9728 58.0383Z" fill="#333333"/>
<path d="M30.9666 28.8412C30.3796 28.2545 29.4282 28.2545 28.841 28.8412C28.2542 29.4281 28.2542 30.3798 28.841 30.9668L33.9346 36.0603C33.5443 36.7878 33.3223 37.6184 33.3223 38.5C33.3223 41.355 35.6449 43.6776 38.4999 43.6776C41.3548 43.6776 43.6774 41.355 43.6774 38.5C43.6774 37.6184 43.4553 36.7878 43.0651 36.0603L53.3426 25.7829C53.9294 25.196 53.9294 24.2444 53.3426 23.6573C52.7555 23.0706 51.8042 23.0706 51.217 23.6573L40.9396 33.9348C40.2121 33.5445 39.3815 33.3225 38.4999 33.3225C37.6182 33.3225 36.7876 33.5446 36.0602 33.9348L30.9666 28.8412ZM40.6716 38.5C40.6716 39.6976 39.6974 40.6717 38.4999 40.6717C37.3023 40.6717 36.3281 39.6976 36.3281 38.5C36.3281 37.3025 37.3023 36.3283 38.4999 36.3283C39.6974 36.3283 40.6716 37.3025 40.6716 38.5Z" fill="#333333"/>
<path d="M20.3262 20.327C20.6073 20.0474 20.7679 19.6597 20.7679 19.2644C20.7679 18.8691 20.6073 18.4829 20.3262 18.2018C20.0467 17.9224 19.6603 17.7615 19.2637 17.7615C18.8684 17.7615 18.4806 17.9223 18.2011 18.2018C17.9217 18.4814 17.7607 18.8691 17.7607 19.2644C17.7607 19.6612 17.9216 20.0474 18.2011 20.327C18.4806 20.6064 18.8684 20.7673 19.2637 20.7673C19.6603 20.7673 20.0467 20.6064 20.3262 20.327Z" fill="#333333"/>
<path d="M48.911 4.49021C49.3079 4.49021 49.6957 4.33075 49.9751 4.04986C50.2546 3.77032 50.4156 3.38392 50.4156 2.98729C50.4156 2.59203 50.2548 2.20427 49.9751 1.92473C49.6957 1.64534 49.3079 1.48438 48.911 1.48438C48.5157 1.48438 48.128 1.64519 47.8486 1.92473C47.569 2.20427 47.4081 2.59203 47.4081 2.98729C47.4081 3.38407 47.5689 3.77032 47.8486 4.04986C48.128 4.33075 48.5157 4.49021 48.911 4.49021Z" fill="#333333"/>
</svg>
