<svg width="78" height="78" viewBox="0 0 78 78" fill="none" xmlns="http://www.w3.org/2000/svg">
<path d="M71.5269 48.293C72.6146 47.0788 73.2773 45.4761 73.2773 43.7227C73.2773 39.943 70.2015 36.8672 66.4219 36.8672H53.1162C54.4339 32.8682 54.9961 27.562 54.9961 25.2875V23.0039C54.9961 17.9644 50.895 13.8633 45.8555 13.8633H43.5703C42.5222 13.8633 41.6081 14.5763 41.3537 15.5939L40.1091 20.574C38.3647 27.5483 32.827 35.2432 27.0959 36.6417C26.0919 34.1006 23.6133 32.2969 20.7188 32.2969H7.00781C5.74641 32.2969 4.72266 33.3206 4.72266 34.582V75.7148C4.72266 76.9762 5.74641 78 7.00781 78H20.7188C23.4442 78 25.8025 76.4019 26.907 74.0924L34.7588 76.7096C37.3257 77.5658 40.0009 78 42.708 78H61.8516C65.6312 78 68.707 74.9242 68.707 71.1445C68.707 70.2533 68.5364 69.4002 68.2256 68.6187C71.1323 67.825 73.2773 65.1605 73.2773 62.0039C73.2773 60.2504 72.6146 58.6478 71.5269 57.4336C72.6146 56.2194 73.2773 54.6168 73.2773 52.8633C73.2773 51.1098 72.6146 49.5071 71.5269 48.293ZM23.0039 71.1445C23.0039 72.4044 21.9786 73.4297 20.7188 73.4297H9.29297V36.8672H20.7188C21.9786 36.8672 23.0039 37.8925 23.0039 39.1523V71.1445ZM61.8516 50.5781H66.4219C67.6818 50.5781 68.707 51.6034 68.707 52.8633C68.707 54.1232 67.6818 55.1484 66.4219 55.1484H61.8516C60.5902 55.1484 59.5664 56.1722 59.5664 57.4336C59.5664 58.695 60.5902 59.7188 61.8516 59.7188H66.4219C67.6818 59.7188 68.707 60.744 68.707 62.0039C68.707 63.2638 67.6818 64.2891 66.4219 64.2891H61.8516C60.5902 64.2891 59.5664 65.3128 59.5664 66.5742C59.5664 67.8356 60.5902 68.8594 61.8516 68.8594C63.1114 68.8594 64.1367 69.8846 64.1367 71.1445C64.1367 72.4044 63.1114 73.4297 61.8516 73.4297H42.708C40.493 73.4297 38.3038 73.0747 36.203 72.3739L27.5742 69.4977V41.2212C31.1589 40.5402 34.6673 38.2703 37.8346 34.5546C40.9272 30.9258 43.4347 26.1148 44.5423 21.6831L45.3543 18.4336H45.8555C48.3752 18.4336 50.4258 20.4841 50.4258 23.0039V25.2875C50.4258 28.3557 49.466 34.2408 48.2381 36.8672H43.5703C42.3089 36.8672 41.2852 37.8909 41.2852 39.1523C41.2852 40.4137 42.3089 41.4375 43.5703 41.4375H66.4219C67.6818 41.4375 68.707 42.4628 68.707 43.7227C68.707 44.9825 67.6818 46.0078 66.4219 46.0078H61.8516C60.5902 46.0078 59.5664 47.0316 59.5664 48.293C59.5664 49.5544 60.5902 50.5781 61.8516 50.5781Z" fill="#FFD900"/>
<path d="M16.1484 68.8594C17.4105 68.8594 18.4336 67.8363 18.4336 66.5742C18.4336 65.3122 17.4105 64.2891 16.1484 64.2891C14.8864 64.2891 13.8633 65.3122 13.8633 66.5742C13.8633 67.8363 14.8864 68.8594 16.1484 68.8594Z" fill="#FFD900"/>
<path d="M48.1406 0C46.8786 0 45.8555 1.02314 45.8555 2.28516V7.00781C45.8555 8.26983 46.8786 9.29297 48.1406 9.29297C49.4026 9.29297 50.4258 8.26983 50.4258 7.00781V2.28516C50.4258 1.02314 49.4026 0 48.1406 0Z" fill="#FFD900"/>
<path d="M38.4454 10.0773L35.2137 6.84559C34.3215 5.95316 32.8745 5.95316 31.9821 6.84559C31.0896 7.73802 31.0896 9.18483 31.9821 10.0773L35.2137 13.3089C36.106 14.2012 37.5531 14.2014 38.4454 13.3089C39.3378 12.4165 39.3378 10.9697 38.4454 10.0773Z" fill="#FFD900"/>
<path d="M64.2992 6.84559C63.4069 5.95316 61.9599 5.95316 61.0675 6.84559L57.8358 10.0771C56.9434 10.9695 56.9434 12.4163 57.8358 13.3088C58.7281 14.2012 60.1751 14.2014 61.0675 13.3089L64.2992 10.0773C65.1916 9.18483 65.1916 7.73802 64.2992 6.84559Z" fill="#FFD900"/>
</svg>
