<svg width="75" height="73" viewBox="0 0 75 73" fill="none" xmlns="http://www.w3.org/2000/svg">
<path d="M2.45901 31.598V35.2508C2.45901 36.2693 3.28479 37.0951 4.30328 37.0951V38.3136C4.33156 27.5332 12.6639 17.8066 25.1545 13.8267C25.4393 6.59286 31.3674 0.864732 38.6066 0.828308H38.6471C44.1518 0.811863 49.1121 4.14813 51.1721 9.2529C53.5469 7.35531 56.493 6.31545 59.5328 6.30208C60.2348 6.30208 61.3094 6.30208 61.4816 7.3865C61.5043 7.51714 61.5043 7.65054 61.4816 7.78118V20.4513C64.7846 22.8697 67.3754 26.1333 68.9816 29.8988L74.0939 31.2943C74.629 31.4401 75.0002 31.9261 75 32.4808V43.9644C75.0003 44.5153 74.6339 44.9992 74.1037 45.1484L69.0246 46.5758C67.117 51.0133 64.0356 54.8466 60.1119 57.6636L58.4828 71.0898C58.4082 71.7068 57.8848 72.1713 57.2631 72.1717H50.4098C49.7308 72.1717 49.1803 71.6212 49.1803 70.9422V69.7127H44.2623C43.5833 69.7127 43.0328 69.1622 43.0328 68.4832V64.3816C38.5342 65.0031 33.9636 64.8717 29.5082 63.9931V68.4832C29.5082 69.1622 28.9577 69.7127 28.2787 69.7127H25.8197C25.8197 70.3917 25.2692 70.9422 24.5902 70.9422H16.6894C16.076 70.9427 15.5562 70.491 15.4709 69.8836L13.6377 56.7414C7.67828 51.8406 4.37582 45.4176 4.30328 38.5939V39.5541C1.92664 39.5541 0 37.6275 0 35.2508V31.598H2.45901ZM70.082 43.7234L72.541 43.0324V33.4189L70.082 32.75V43.7234ZM49.4004 11.7316C48.2073 6.76668 43.7594 3.27196 38.6533 3.28732H38.6201C32.5117 3.31176 27.5762 8.27651 27.5877 14.3849C27.5877 14.4513 27.5877 14.5177 27.6 14.6861C27.742 20.6786 32.658 25.4529 38.6521 25.4197H38.6852C44.7898 25.4089 49.7298 20.4516 49.719 14.3469C49.7175 13.4657 49.6105 12.5876 49.4004 11.7316ZM45.4918 67.2537H47.9508V63.4336C47.1 63.6377 46.2984 63.816 45.4918 63.9709V67.2537ZM25.8197 67.2537H27.0492V63.6156C26.6311 63.5123 26.2291 63.3845 25.8197 63.2689V67.2537ZM15.5545 55.1295C15.8006 55.3256 15.9619 55.6086 16.0057 55.9201L17.759 68.4832H22.1311V60.1016C22.1318 59.4226 22.6827 58.8726 23.3619 58.8733C23.5057 58.8735 23.6485 58.8988 23.7836 58.9483C23.8623 58.9766 23.9471 58.9987 24.0295 59.027C24.3944 58.8341 24.8319 58.8387 25.1926 59.0393C26.4709 59.6527 27.8269 60.0887 29.223 60.3352C31.9651 60.9249 34.7628 61.2163 37.5676 61.2045C39.632 61.196 41.6923 61.0213 43.7287 60.6819C43.828 60.626 43.9348 60.5846 44.0459 60.559C45.655 60.2707 47.2411 59.8663 48.7918 59.3491C49.0535 59.2726 49.3332 59.2866 49.5861 59.3885L49.698 59.3602L50.1123 59.2557C50.7708 59.09 51.4389 59.4895 51.6046 60.148C51.6294 60.2462 51.6418 60.347 51.6418 60.4483V69.7127H56.1738L57.7352 56.8324C57.7767 56.4894 57.9606 56.1797 58.2418 55.9791C62.153 53.2977 65.1851 49.521 66.9578 45.1226C67.0806 44.8198 67.3205 44.5794 67.623 44.4562V32.048C67.3033 31.9309 67.0472 31.6851 66.9172 31.3705C65.4289 27.6095 62.8586 24.3743 59.5316 22.0742C59.2082 21.8434 59.0164 21.4707 59.0164 21.0734V8.77093C56.3617 8.88558 53.842 9.97262 51.9369 11.825C51.975 12.0242 51.9934 12.2258 52.023 12.425C52.0439 12.575 52.0697 12.7226 52.0869 12.8726C52.9071 20.2914 47.5581 26.9704 40.1393 27.7908C39.6589 27.844 39.176 27.8712 38.6926 27.8726H38.6521C38.2082 27.8726 37.7693 27.8492 37.3365 27.8086C37.1889 27.7939 37.0463 27.7668 36.9012 27.7484C36.6184 27.7127 36.3357 27.6771 36.059 27.6254C35.8857 27.5922 35.7172 27.5467 35.5451 27.5025C35.2992 27.4472 35.0643 27.3918 34.8295 27.3242C34.6426 27.2701 34.4607 27.2013 34.2787 27.1447C34.0684 27.0734 33.8582 27.0033 33.6529 26.9222C33.4475 26.841 33.268 26.7611 33.0787 26.6763C32.8893 26.5914 32.7098 26.5127 32.5377 26.423C32.3348 26.3222 32.1369 26.2127 31.9414 26.1021C31.7889 26.016 31.6389 25.9287 31.4902 25.8365C31.2799 25.7062 31.0746 25.5709 30.8754 25.4295C30.7525 25.3459 30.6381 25.2599 30.5225 25.1726C30.3025 25.009 30.0898 24.8406 29.882 24.6648C29.7971 24.5922 29.7148 24.5185 29.6361 24.4447C29.4074 24.2418 29.1861 24.0328 28.9721 23.8152C28.9254 23.7672 28.8811 23.7181 28.8344 23.6689C28.5959 23.423 28.3635 23.1586 28.1447 22.8894L28.1299 22.8697C26.6216 21.0107 25.6445 18.7781 25.3021 16.4086C25.3021 16.3865 25.2934 16.3668 25.291 16.3459C14.1209 20.1254 6.73771 28.8451 6.76722 38.4144C6.77583 44.691 9.9 50.6258 15.5545 55.1295Z" fill="#FFD900"/>
<path d="M39.9206 21.7558L39.9317 21.7545L39.344 21.7619V22.9914L36.885 23.0013V21.7152C34.8631 21.4589 33.3451 19.7426 33.3379 17.7046V17.2361C33.3359 14.991 35.1502 13.1674 37.3952 13.1578L38.1145 13.1554L39.912 13.148C40.7964 13.1392 41.5092 12.4206 41.5104 11.5361V11.0652C41.5036 10.1804 40.7845 9.46684 39.8997 9.46684L37.3842 9.47545C36.4988 9.48421 35.7858 10.2044 35.7858 11.0898V11.9259H33.3268V11.0923C33.3162 9.02238 34.8737 7.28016 36.9317 7.05947C36.9063 6.97002 36.8908 6.87812 36.885 6.78529V5.77832H39.344V6.42135L39.7239 7.00783H39.8985C42.1404 7.00983 43.9588 8.8235 43.967 11.0652V11.5324C43.9703 13.7781 42.1551 15.6026 39.9096 15.6107L39.344 15.6144L37.3928 15.6218C36.5089 15.6305 35.7964 16.3486 35.7944 17.2324V17.7046C35.8012 18.5893 36.5203 19.3029 37.4051 19.3029L39.9206 19.2943C40.8059 19.2855 41.519 18.5654 41.519 17.68V16.8439H43.978V17.6775C43.9814 19.9232 42.1662 21.7476 39.9206 21.7558Z" fill="#FFD900"/>
<path d="M57.7759 26.6443C60.1526 26.6443 62.0792 28.5709 62.0792 30.9476H59.6202C59.6202 29.9291 58.7944 29.1033 57.7759 29.1033C56.7575 29.1033 55.9317 29.9291 55.9317 30.9476H53.4727C53.4727 28.5709 55.3993 26.6443 57.7759 26.6443Z" fill="#FFD900"/>
<path d="M18.4423 26.68C15.7261 26.68 13.5242 28.8819 13.5242 31.598H11.0652C11.0692 27.5254 14.3697 24.2249 18.4423 24.2209V26.68Z" fill="#FFD900"/>
</svg>
