<svg width="52" height="52" viewBox="0 0 52 52" fill="none" xmlns="http://www.w3.org/2000/svg">
<g filter="url(#filter0_d)">
<path d="M26 0C13.8409 0 3.99991 9.8395 4 22C4 34.1594 13.8396 44 26 44C38.1591 44 48.0001 34.1605 48 22C48 9.84062 38.1604 0 26 0ZM39.7333 35.7334C32.1608 43.306 19.8392 43.306 12.2667 35.7334V35.7333C4.69412 28.1608 4.69412 15.8393 12.2667 8.26667C19.8572 0.676242 32.1423 0.675726 39.7334 8.26676C47.3059 15.8393 47.3059 28.1607 39.7333 35.7334Z" fill="#333333"/>
<path d="M38.895 12.4526C36.8719 10.4294 33.5879 10.4388 31.5768 12.4789L23.5503 20.6215L20.397 17.4683C18.3819 15.4531 15.1204 15.4527 13.105 17.4683C11.0946 19.4786 11.0946 22.7499 13.105 24.7604C18.329 29.9845 16.8344 28.4932 19.8457 31.5028C21.9175 33.5736 25.2878 33.5725 27.3584 31.5018C30.2333 28.6269 38.9214 19.7184 38.9214 19.7184C40.9028 17.708 40.8909 14.4486 38.895 12.4526ZM37.0852 17.9086C27.3789 27.757 25.5354 29.6788 25.5354 29.6788C24.4694 30.7448 22.7345 30.745 21.6682 29.6793C21.6682 29.6793 15.3794 23.3888 14.928 22.9374C13.9228 21.9322 13.9228 20.2965 14.928 19.2913C15.9357 18.2836 17.5663 18.2836 18.574 19.2913L22.6453 23.3626C23.1514 23.8687 23.9727 23.8655 24.4749 23.3561L33.4128 14.2889C34.4172 13.27 36.0593 13.263 37.0719 14.2757C38.0699 15.2736 38.0759 16.9034 37.0852 17.9086Z" fill="#333333"/>
</g>
<defs>
<filter id="filter0_d" x="0" y="0" width="52" height="52" filterUnits="userSpaceOnUse" color-interpolation-filters="sRGB">
<feFlood flood-opacity="0" result="BackgroundImageFix"/>
<feColorMatrix in="SourceAlpha" type="matrix" values="0 0 0 0 0 0 0 0 0 0 0 0 0 0 0 0 0 0 127 0"/>
<feOffset dy="4"/>
<feGaussianBlur stdDeviation="2"/>
<feColorMatrix type="matrix" values="0 0 0 0 1 0 0 0 0 1 0 0 0 0 1 0 0 0 1 0"/>
<feBlend mode="normal" in2="BackgroundImageFix" result="effect1_dropShadow"/>
<feBlend mode="normal" in="SourceGraphic" in2="effect1_dropShadow" result="shape"/>
</filter>
</defs>
</svg>
