<svg width="19" height="15" viewBox="0 0 19 15" fill="none" xmlns="http://www.w3.org/2000/svg">
<path d="M18.0074 1.54384C16.6728 0.257288 14.5065 0.263299 13.1799 1.56056L7.88503 6.73831L5.80496 4.7332C4.47564 3.45179 2.32414 3.45157 0.994652 4.7332C-0.331551 6.01156 -0.331551 8.09169 0.994652 9.37016C4.44077 12.692 3.45482 11.7438 5.44129 13.6575C6.80797 14.9743 9.03124 14.9736 10.3971 13.6569C12.2936 11.8288 18.0248 6.16402 18.0248 6.16402C19.3318 4.88567 19.324 2.81307 18.0074 1.54384ZM16.8136 5.01321C10.4106 11.2756 9.19456 12.4977 9.19456 12.4977C8.49132 13.1756 7.34692 13.1757 6.64352 12.498C6.64352 12.498 2.49501 8.498 2.19722 8.21094C1.53411 7.57173 1.53411 6.53163 2.19722 5.89243C2.86196 5.25164 3.93759 5.25169 4.60234 5.89243L7.28808 8.48133C7.62193 8.80314 8.16371 8.80107 8.49495 8.47718L14.391 2.71148C15.0536 2.06359 16.1368 2.05916 16.8048 2.70312C17.4631 3.33768 17.4671 4.37401 16.8136 5.01321Z" fill="#FFD900"/>
</svg>
