<svg width="90" height="16" viewBox="0 0 90 16" fill="none" xmlns="http://www.w3.org/2000/svg">
<path d="M89.7071 8.70711C90.0976 8.31658 90.0976 7.68342 89.7071 7.29289L83.3431 0.928932C82.9526 0.538408 82.3195 0.538408 81.9289 0.928932C81.5384 1.31946 81.5384 1.95262 81.9289 2.34315L87.5858 8L81.9289 13.6569C81.5384 14.0474 81.5384 14.6805 81.9289 15.0711C82.3195 15.4616 82.9526 15.4616 83.3431 15.0711L89.7071 8.70711ZM1 9H89V7H1V9Z" fill="white"/>
<path d="M0.292893 8.70711C-0.0976311 8.31658 -0.0976311 7.68342 0.292893 7.29289L6.65685 0.928932C7.04738 0.538408 7.68054 0.538408 8.07107 0.928932C8.46159 1.31946 8.46159 1.95262 8.07107 2.34315L2.41421 8L8.07107 13.6569C8.46159 14.0474 8.46159 14.6805 8.07107 15.0711C7.68054 15.4616 7.04738 15.4616 6.65685 15.0711L0.292893 8.70711ZM89 9H1V7H89V9Z" fill="white"/>
</svg>
