<svg width="39" height="39" viewBox="0 0 39 39" fill="none" xmlns="http://www.w3.org/2000/svg">
<path d="M30.7734 39C23.3025 39 15.5629 35.5583 9.56937 29.548L9.45185 29.4137C3.22326 23.1515 -0.168041 15.2777 -0.000154635 7.67241L0.016634 7.11838L0.369195 6.68188C0.906432 5.99354 1.44367 5.38915 1.99769 4.83513C4.02912 2.78691 6.42989 1.22557 9.11607 0.184675C9.43506 0.0671545 9.80441 0 10.2073 0C11.1139 0 13.1453 0.453293 13.6658 1.88033C14.5892 4.4322 15.7476 7.73956 16.587 10.9294C16.8221 11.8192 16.587 13.9681 15.3447 14.7572L12.3731 16.6375C12.4066 16.6543 12.3899 17.1244 12.776 17.6616C13.9344 19.2398 15.2607 20.8011 16.7381 22.3121C18.2323 23.7727 19.7769 25.099 21.355 26.2406C21.6572 26.4589 22.0097 26.5932 22.2784 26.5932L23.3025 25.1662L24.2426 23.672C25.0653 22.396 27.1303 22.3625 27.3485 22.3625C27.5836 22.3625 27.8018 22.3792 28.0033 22.4296C31.915 23.3026 34.2487 24.0581 37.2202 25.4012C38.5466 26.0056 39.386 28.4064 38.7984 29.9173C37.7575 32.5867 36.2129 34.9875 34.1815 37.0189C33.6107 37.5898 32.9895 38.1438 32.3348 38.6474L31.8983 38.9832L30.7734 39ZM3.35757 8.31037C3.39115 14.7908 6.51384 21.7581 11.819 27.0633L11.9869 27.2312C17.2921 32.5364 24.1251 35.6255 30.7063 35.6423C31.0924 35.3233 31.4785 34.9707 31.8311 34.635C33.5267 32.9393 34.8363 30.9247 35.6925 28.6918C35.6757 28.675 35.6085 28.4735 35.5414 28.3056C32.9391 27.1472 30.807 26.4757 27.2982 25.6866C27.2142 25.7034 27.0463 25.737 26.8952 25.7706L25.1996 28.4399C24.1587 30.1356 21.3718 30.421 19.3739 28.9436C17.6783 27.718 15.9994 26.2742 14.3709 24.6793C12.7592 23.034 11.3154 21.3551 10.073 19.6427C9.23359 18.5179 8.89782 17.1748 9.13286 15.966C9.31754 15.0426 9.83799 14.2703 10.5935 13.8003L13.2461 12.1214C13.2797 11.9535 13.3132 11.752 13.3132 11.6513C12.5745 8.89798 11.5168 5.87602 10.6606 3.45846C10.5095 3.40809 10.3416 3.35773 10.2073 3.35773C8.07518 4.19716 6.07733 5.50667 4.36489 7.20232C4.02912 7.5381 3.69335 7.90745 3.35757 8.31037Z" fill="#FFD900"/>
</svg>
