<svg width="74" height="75" viewBox="0 0 74 75" fill="none" xmlns="http://www.w3.org/2000/svg">
<path d="M33.77 50.3642C34.3772 49.7558 34.3772 48.7711 33.77 48.1627C33.1621 47.5561 32.1774 47.5561 31.569 48.1627C30.9624 48.7711 30.9624 49.7558 31.569 50.3642C32.1774 50.9708 33.1621 50.9708 33.77 50.3642Z" fill="#333333"/>
<path d="M26.9656 16.0752C26.9656 24.9391 34.1771 32.1511 43.0411 32.1511C51.9051 32.1511 59.1166 24.9391 59.1166 16.0752C59.1166 7.21136 51.9051 0 43.0411 0C34.1771 0 26.9656 7.21136 26.9656 16.0752ZM56.1941 16.0752C56.1941 23.3277 50.2937 29.228 43.0411 29.228C35.7885 29.228 29.8881 23.3277 29.8881 16.0752C29.8881 8.82334 35.7885 2.92303 43.0411 2.92303C50.2937 2.92303 56.1941 8.82334 56.1941 16.0752Z" fill="#333333"/>
<path d="M16.5663 74.2438C17.1238 74.8116 18.0314 74.8178 18.5962 74.2557L25.5692 67.3151C26.7538 66.1182 27.1141 64.3462 26.5931 62.8057L28.093 61.3443C28.9006 60.5562 29.9638 60.1218 31.0878 60.1218H50.2079C53.6 60.1218 56.806 58.8057 59.2366 56.4159C59.3366 56.3176 58.4774 57.3402 72.2806 40.6723C74.3279 38.2251 74.0216 34.5504 71.5973 32.4797C69.1881 30.4283 65.579 30.723 63.5262 33.1281L55.0392 41.9413C53.9675 40.6087 52.3333 39.778 50.5676 39.778H34.5293C32.2472 38.8134 29.8256 38.3251 27.3271 38.3251C20.4013 38.3251 14.3538 41.5569 11.1084 47.6163C9.74115 47.3546 8.29912 47.7725 7.26171 48.8206L0.419656 55.7538C-0.138948 56.3199 -0.140071 57.2358 0.417408 57.8035L16.5663 74.2438ZM27.3265 41.231C29.5294 41.231 31.6593 41.679 33.6583 42.5624C33.8404 42.6431 34.0365 42.6845 34.2349 42.6845H50.5676C52.127 42.6845 53.4443 43.9694 53.4443 45.5905C53.4443 47.1933 52.154 48.497 50.5676 48.497H38.8329C38.0389 48.497 37.3948 49.1476 37.3948 49.9499C37.3948 50.7528 38.0389 51.4029 38.8329 51.4029H50.5676C53.7399 51.4029 56.3205 48.7956 56.3205 45.5905C56.3205 45.335 56.3025 45.0817 56.2699 44.8308C64.4798 36.3043 65.6375 35.1063 65.687 35.0467C66.712 33.8242 68.5317 33.6692 69.7422 34.7003C70.9538 35.7354 71.1072 37.5727 70.0794 38.802L57.1792 54.3832C55.2955 56.2103 52.8222 57.2159 50.2079 57.2159H31.0878C29.2142 57.2159 27.4406 57.9398 26.0952 59.2531L24.8729 60.4449L13.6053 49.0613C16.2387 44.0699 21.1802 41.231 27.3265 41.231ZM9.29719 50.8743C9.77149 50.3951 10.4998 50.3088 11.0781 50.6699C11.327 50.8232 10.6122 50.1657 23.5354 63.2043C24.1103 63.7852 24.0794 64.7107 23.5433 65.2523L17.5987 71.1692L3.46669 56.7821L9.29719 50.8743Z" fill="#333333"/>
<path d="M41.1984 7.63083V9.28019C39.6058 9.86096 38.4617 11.4256 38.4617 13.2609C38.4617 15.5889 40.303 17.4836 42.5665 17.4836C43.3209 17.4836 43.9346 18.1149 43.9346 18.891C43.9346 19.667 43.3209 20.2983 42.5665 20.2983C41.9822 20.2983 41.3508 19.9205 40.79 19.2336C40.3035 18.6385 39.4406 18.5621 38.8622 19.062C38.2837 19.5625 38.2089 20.4501 38.6954 21.0452C39.4267 21.94 40.2869 22.5637 41.1984 22.8782V24.521C41.1984 25.2987 41.8111 25.9284 42.5665 25.9284C43.3219 25.9284 43.9346 25.2987 43.9346 24.521V22.8716C45.5272 22.2903 46.6713 20.7257 46.6713 18.891C46.6713 16.5624 44.8301 14.6683 42.5665 14.6683C41.8122 14.6683 41.1984 14.0369 41.1984 13.2609C41.1984 12.4849 41.8122 11.853 42.5665 11.853C43.0514 11.853 43.563 12.1076 44.0463 12.5888C44.5895 13.1294 45.4556 13.1146 45.9811 12.5564C46.5067 11.9976 46.4922 11.1066 45.9496 10.566C45.2551 9.87471 44.5601 9.48368 43.9346 9.27029V7.63083C43.9346 6.85317 43.3219 6.2229 42.5665 6.2229C41.8111 6.2229 41.1984 6.85317 41.1984 7.63083Z" fill="#333333"/>
<rect x="25.928" y="31.8384" width="43.5595" height="3.11139" rx="1.5557" transform="rotate(-45 25.928 31.8384)" fill="#333333"/>
</svg>
