<svg width="52" height="52" viewBox="0 0 52 52" fill="none" xmlns="http://www.w3.org/2000/svg">
<g clip-path="url(#clip0)">
<path d="M45.6627 18.0576L40.5655 16.2023C42.4084 14.6795 43.1954 12.2641 42.6312 9.96875C41.5224 5.45907 36.0239 3.74713 32.5501 6.81807L29.0307 9.92914L28.3345 5.26336C27.6461 0.669785 22.328 -1.54021 18.5868 1.19689C16.7161 2.56545 15.721 4.92464 16.1623 7.3201L11.3565 5.57099C8.99215 4.71025 6.36788 5.93387 5.50714 8.29855L3.42612 14.0162C3.1388 14.8057 3.54587 15.6787 4.33541 15.9659C4.65564 16.0824 27.7701 24.4954 28.1096 24.6189C27.1476 24.6189 6.08036 24.6189 5.1535 24.6189C4.31337 24.6189 3.6323 25.3 3.6323 26.1401V47.4366C3.6323 49.9529 5.67949 52.0001 8.1958 52.0001H20.3652H26.4499H38.6194C41.1357 52.0001 43.1829 49.9529 43.1829 47.4366V30.1052L44.3597 30.5336C45.1455 30.8198 46.0207 30.4171 46.3094 29.6244L48.3905 23.9068C49.2509 21.5421 48.0274 18.9182 45.6627 18.0576ZM18.8439 48.9578H8.1957C7.3569 48.9578 6.6745 48.2754 6.6745 47.4366V27.6613H18.8439V48.9578ZM24.9286 48.9578H21.8863V27.6613H24.9286V48.9578ZM34.565 9.09754C36.3296 7.53744 39.1155 8.41261 39.6767 10.6952C40.2752 13.129 37.9228 15.2392 35.5684 14.3837C33.5658 13.6548 32.6274 13.3132 30.622 12.5833L34.565 9.09754ZM20.383 3.65247C22.2842 2.26168 24.9774 3.39024 25.3258 5.7145L26.1058 10.9394C25.5444 10.735 21.712 9.34007 21.1598 9.13918C18.8052 8.28169 18.3605 5.13183 20.383 3.65247ZM21.0996 18.83L6.80531 13.6272L8.36612 9.33906C8.65304 8.55083 9.52779 8.14316 10.3159 8.42987C11.9155 9.01203 22.6873 12.9326 23.1806 13.1122L21.0996 18.83ZM26.8174 20.9112L23.9585 19.8706L26.0396 14.1529L28.8985 15.1935L26.8174 20.9112ZM40.1404 47.4366C40.1404 48.2754 39.458 48.9578 38.6192 48.9578H27.971V27.6613H36.4684L40.1405 28.9979V47.4366H40.1404ZM45.5313 22.8661L43.9706 27.1543L29.6763 21.9516L31.7574 16.2339L44.6222 20.9163C45.4104 21.2032 45.8182 22.0779 45.5313 22.8661Z" fill="#333333"/>
</g>
<defs>
<clipPath id="clip0">
<rect width="52" height="52" fill="white"/>
</clipPath>
</defs>
</svg>
