<svg width="68" height="65" viewBox="0 0 68 65" fill="none" xmlns="http://www.w3.org/2000/svg">
<path d="M67.5465 24.4057C67.3244 23.7254 66.7413 23.2395 66.0333 23.1285L44.9317 20.1298L35.436 1.0412C35.1167 0.402596 34.4642 0 33.7562 0C33.0481 0 32.3957 0.402596 32.0764 1.05508L22.7056 20.1992L1.60399 23.3367C0.895976 23.4478 0.312905 23.9337 0.0907834 24.6139C-0.131339 25.2942 0.0630181 26.0438 0.576675 26.5297L15.8892 41.3702L12.3491 62.3886C12.2242 63.0966 12.5157 63.8046 13.0988 64.2211C13.4181 64.4571 13.8068 64.582 14.1955 64.582C14.501 64.582 14.7925 64.5126 15.0701 64.3599L33.9089 54.3783L52.8031 64.2488C53.0808 64.3876 53.3723 64.4571 53.6638 64.4571C54.6912 64.4571 55.538 63.6102 55.538 62.5829C55.538 62.4302 55.5241 62.2914 55.4825 62.1525L51.8313 41.2592L67.0467 26.3354C67.5881 25.8356 67.7686 25.0859 67.5465 24.4057ZM48.5273 39.274C48.083 39.7043 47.8887 40.3291 47.9997 40.9399L51.1789 59.1678L34.7696 50.6022C34.2282 50.3107 33.5757 50.3245 33.0204 50.6022L16.6666 59.265L19.7347 41.0093C19.8319 40.3985 19.6375 39.7876 19.1933 39.3573L5.92149 26.4742L24.2327 23.7532C24.8435 23.656 25.3711 23.2812 25.6348 22.7259L33.77 6.10836L42.0163 22.6842C42.294 23.2395 42.8215 23.6144 43.4324 23.7115L61.7574 26.3215L48.5273 39.274Z" fill="#333333"/>
</svg>
