<svg width="54" height="54" viewBox="0 0 54 54" fill="none" xmlns="http://www.w3.org/2000/svg">
<path d="M53.9368 4.03134C53.8198 1.88631 52.1138 0.180566 49.9688 0.0634958C45.6406 -0.172965 37.171 0.0570624 29.0723 4.24596C24.9437 6.3815 20.5773 10.0021 17.0927 14.1795C17.0498 14.231 17.008 14.2828 16.9654 14.3344L9.05737 14.9452C7.75567 15.0459 6.59625 15.7281 5.87632 16.817L0.481175 24.9773C-0.064837 25.8031 -0.151638 26.8366 0.248827 27.7419C0.649398 28.6472 1.47248 29.2781 2.4507 29.4297L9.11327 30.4616C9.08975 30.5911 9.06612 30.7205 9.0445 30.85C8.8227 32.1768 9.26229 33.541 10.2206 34.4991L19.501 43.7797C20.2955 44.5742 21.3691 45.0122 22.4691 45.0122C22.6956 45.0122 22.9235 44.9935 23.1502 44.9556C23.2797 44.934 23.4091 44.9104 23.5387 44.8869L24.5706 51.5495C24.7221 52.5278 25.353 53.3509 26.2582 53.7514C26.6348 53.918 27.0334 54.0003 27.4301 54.0003C27.9873 54.0002 28.5406 53.838 29.0228 53.5192L37.1831 48.1239C38.2721 47.4039 38.9543 46.2445 39.0547 44.9429L39.6656 37.0349C39.7171 36.9923 39.769 36.9506 39.8205 36.9076C43.998 33.423 47.6188 29.0566 49.7542 24.928C53.9433 16.8289 54.1729 8.35925 53.9368 4.03134ZM35.4382 45.4845L27.6323 50.6454L26.6266 44.1522C29.9256 43.1822 33.1892 41.6286 36.2983 39.5474L35.9003 44.699C35.8755 45.0204 35.707 45.3067 35.4382 45.4845ZM21.7383 41.5423L12.4578 32.2618C12.221 32.025 12.1115 31.6922 12.1652 31.3717C12.4411 29.7218 12.8699 28.1513 13.4006 26.6718L27.3254 40.5966C25.5485 41.2331 23.9568 41.6128 22.6285 41.8349C22.3074 41.8883 21.9751 41.7791 21.7383 41.5423ZM9.30111 18.0999L14.4526 17.702C12.3713 20.8111 10.8177 24.0746 9.84775 27.3737L3.35467 26.368L8.51568 18.5621C8.6935 18.2931 8.97985 18.1247 9.30111 18.0999ZM37.794 34.4777C35.2382 36.6096 32.7573 38.1515 30.4705 39.2673L14.7323 23.5291C16.1939 20.5439 17.9777 18.0582 19.5224 16.2063C22.7471 12.3404 26.7578 9.00535 30.5261 7.05628C37.9589 3.21163 45.79 3.0046 49.7966 3.22271C50.3269 3.2516 50.7486 3.67337 50.7775 4.20378C50.996 8.21032 50.7885 16.0414 46.9439 23.4743C44.9949 27.2425 41.6599 31.253 37.794 34.4777Z" fill="#333333"/>
<path d="M36.9903 24.9162C39.0155 24.916 41.0415 24.145 42.5834 22.6032C44.0775 21.1092 44.9001 19.1228 44.9001 17.0101C44.9001 14.8973 44.0773 12.9109 42.5834 11.417C39.4993 8.33275 34.4811 8.33296 31.3972 11.417C29.9031 12.9109 29.0803 14.8973 29.0803 17.0101C29.0803 19.1228 29.9032 21.1092 31.3972 22.6032C32.9393 24.1454 34.9643 24.9164 36.9903 24.9162ZM33.6343 13.6542C34.5594 12.7289 35.7747 12.2663 36.9901 12.2663C38.2055 12.2663 39.4208 12.7289 40.346 13.6542C41.2423 14.5506 41.7359 15.7423 41.7359 17.01C41.7359 18.2776 41.2423 19.4695 40.346 20.3659C38.4956 22.2163 35.4846 22.2162 33.6341 20.3659C32.7378 19.4695 32.2441 18.2777 32.2441 17.0101C32.2441 15.7425 32.7379 14.5506 33.6343 13.6542Z" fill="#333333"/>
<path d="M1.61421 44.5014C2.0191 44.5014 2.42399 44.3469 2.73281 44.0379L7.89793 38.8728C8.51576 38.255 8.51576 37.2533 7.89793 36.6355C7.2802 36.0177 6.27846 36.0177 5.66062 36.6355L0.495604 41.8006C-0.122232 42.4185 -0.122232 43.4201 0.495604 44.0379C0.804416 44.3468 1.20931 44.5014 1.61421 44.5014Z" fill="#333333"/>
<path d="M12.6312 41.369C12.0135 40.7512 11.0118 40.7512 10.3939 41.369L0.463621 51.2994C-0.154215 51.9173 -0.154215 52.9189 0.463621 53.5367C0.772539 53.8457 1.17733 54.0001 1.58222 54.0001C1.98712 54.0001 2.39201 53.8457 2.70082 53.5366L12.6311 43.6063C13.2491 42.9885 13.2491 41.9869 12.6312 41.369Z" fill="#333333"/>
<path d="M15.1275 46.1025L9.9624 51.2677C9.34456 51.8855 9.34456 52.8871 9.9624 53.505C10.2713 53.8139 10.6762 53.9684 11.081 53.9684C11.4858 53.9684 11.8908 53.814 12.1996 53.505L17.3647 48.3399C17.9826 47.722 17.9826 46.7204 17.3647 46.1025C16.747 45.4847 15.7452 45.4847 15.1275 46.1025Z" fill="#333333"/>
</svg>
