<svg width="68" height="51" viewBox="0 0 68 51" fill="none" xmlns="http://www.w3.org/2000/svg">
<path d="M68 28.5463V50.3042H38.3343V33.1225C38.3343 23.8213 39.4736 17.0891 41.7609 12.9258C44.7623 7.3748 49.5153 3.1785 56.0113 0.328659L60.7302 7.61435C56.802 9.20861 53.9111 11.5876 52.049 14.7431C50.187 17.8986 49.1581 22.4996 48.9371 28.538H68V28.5463Z" fill="#F7F7F7"/>
<path d="M30.6643 28.5463V50.3042H0.998596V33.1225C0.998596 23.8213 2.13796 17.0891 4.42517 12.9258C7.4266 7.3748 12.1796 3.1785 18.6756 0.328659L23.3946 7.61435C19.4663 9.20861 16.5754 11.5876 14.7134 14.7431C12.8513 17.8986 11.8225 22.4996 11.6014 28.538H30.6643V28.5463Z" fill="#F7F7F7"/>
</svg>
