<svg width="49" height="63" viewBox="0 0 49 63" fill="none" xmlns="http://www.w3.org/2000/svg">
<g filter="url(#filter0_d)">
<path d="M4 45.6845C4.00134 49.6926 6.37622 53.3194 10.05 54.9226C10.3333 55.0461 10.6596 55.0188 10.9183 54.8497C11.177 54.6805 11.3332 54.3922 11.3332 54.0829V44.9164C11.3332 43.3978 12.5645 42.1665 14.0832 42.1665C15.6018 42.1665 16.8331 43.3978 16.8331 44.9164V54.0829C16.8331 54.5892 17.2436 54.9996 17.7498 54.9996C17.876 55 18.0009 54.9736 18.1164 54.9226C21.6899 53.3641 24.0437 49.8851 24.1614 45.9884C24.2791 42.0922 22.1392 38.477 18.6664 36.7059V18.2941C22.1392 16.5231 24.2791 12.9079 24.1614 9.0117C24.0437 5.11504 21.6899 1.63597 18.1164 0.0774822C17.833 -0.046051 17.5067 -0.0187483 17.248 0.150438C16.9893 0.319625 16.8331 0.607869 16.8331 0.917149V9.31561C16.8331 10.8343 15.6018 12.0656 14.0832 12.0656C12.5645 12.0656 11.3332 10.8343 11.3332 9.31561V0.917149C11.3332 0.607869 11.177 0.319625 10.9183 0.150438C10.6596 -0.0187483 10.3333 -0.046051 10.05 0.0774822C6.47648 1.63597 4.12264 5.11504 4.00492 9.0117C3.88721 12.9079 6.02711 16.5231 9.49991 18.2941V36.7059C6.12558 38.4278 4.0009 41.8961 4 45.6845ZM10.7831 16.8744C8.01886 15.6691 6.13319 13.0511 5.86553 10.0479C5.59832 7.04412 6.9921 4.13438 9.49991 2.45997V9.31561C9.49991 11.8467 11.5521 13.8989 14.0832 13.8989C16.6143 13.8989 18.6664 11.8467 18.6664 9.31561V2.45997C21.1742 4.13438 22.568 7.04412 22.3008 10.0479C22.0332 13.0511 20.1475 15.6691 17.3832 16.8744C17.0493 17.0199 16.8331 17.3497 16.8331 17.7136V37.286C16.8331 37.6504 17.0493 37.9802 17.3832 38.1257C20.1475 39.3306 22.0332 41.9489 22.3008 44.9522C22.568 47.956 21.1742 50.8657 18.6664 52.5401V44.9164C18.6664 42.3853 16.6143 40.3332 14.0832 40.3332C11.5521 40.3332 9.49991 42.3853 9.49991 44.9164V52.5401C6.9921 50.8657 5.59832 47.956 5.86553 44.9522C6.13319 41.9489 8.01886 39.3306 10.7831 38.1257C11.117 37.9802 11.3332 37.6504 11.3332 37.286V17.7136C11.3332 17.3497 11.117 17.0199 10.7831 16.8744Z" fill="#333333"/>
</g>
<g filter="url(#filter1_d)">
<path d="M31.5 33.917V50.9292C31.5018 52.1109 32.2587 53.1596 33.3799 53.5333L37.627 54.9485C37.8123 55.0112 38.0132 55.0112 38.199 54.9485L42.4533 53.5333C43.5745 53.1596 44.3313 52.1109 44.3331 50.9292V33.917C44.3331 33.4108 43.9227 33.0004 43.4165 33.0004H42.1498L43.3247 30.66C43.3301 30.6492 43.3314 30.6371 43.3368 30.6264C43.3422 30.6152 43.3493 30.5861 43.3578 30.5655C43.386 30.4626 43.4057 30.3569 43.4165 30.2504V24.7505C43.4165 24.2443 43.006 23.8338 42.4998 23.8338H40.6665V7.33411C40.6665 7.24907 40.6549 7.16448 40.6316 7.08302L38.7983 0.666453C38.6864 0.272131 38.3265 0 37.9166 0C37.5066 0 37.1467 0.272131 37.0348 0.666453L35.2015 7.08302C35.1782 7.16448 35.1666 7.24907 35.1666 7.33411V23.8338H33.3333C32.8271 23.8338 32.4167 24.2443 32.4167 24.7505V30.2504C32.4287 30.3569 32.4498 30.4626 32.4798 30.5655C32.4883 30.5861 32.4927 30.6071 32.5008 30.6264C32.5093 30.6456 32.5075 30.6492 32.5129 30.66L33.6833 33.0004H32.4167C31.9104 33.0004 31.5 33.4108 31.5 33.917ZM42.4998 50.9292C42.4998 51.324 42.2474 51.6745 41.8727 51.7989L38.8332 52.8109V34.8337H42.4998V50.9292ZM36.9999 7.46257L37.9166 4.25429L38.8332 7.46257V23.8338H36.9999V7.46257ZM34.25 25.6672H41.5832V29.3338H34.25V25.6672ZM34.8166 31.1671H41.0165L40.0999 33.0004H35.7332L34.8166 31.1671ZM33.3333 34.8337H36.9999V52.8109L33.9604 51.8029C33.5844 51.6776 33.3315 51.3254 33.3333 50.9292V34.8337Z" fill="#333333"/>
</g>
<g filter="url(#filter2_d)">
<path d="M14.0827 38.3519C14.5889 38.3519 14.9993 37.9415 14.9993 37.4353V23.0661C14.9993 22.5598 14.5889 22.1494 14.0827 22.1494C13.5765 22.1494 13.166 22.5598 13.166 23.0661V37.4353C13.166 37.9415 13.5765 38.3519 14.0827 38.3519Z" fill="#333333"/>
</g>
<g filter="url(#filter3_d)">
<path d="M14.0827 20.3154C14.5889 20.3154 14.9993 19.905 14.9993 19.3988V18.4821C14.9993 17.9759 14.5889 17.5654 14.0827 17.5654C13.5765 17.5654 13.166 17.9759 13.166 18.4821V19.3988C13.166 19.905 13.5765 20.3154 14.0827 20.3154Z" fill="#333333"/>
</g>
<defs>
<filter id="filter0_d" x="0" y="0.000976562" width="28.166" height="62.9986" filterUnits="userSpaceOnUse" color-interpolation-filters="sRGB">
<feFlood flood-opacity="0" result="BackgroundImageFix"/>
<feColorMatrix in="SourceAlpha" type="matrix" values="0 0 0 0 0 0 0 0 0 0 0 0 0 0 0 0 0 0 127 0"/>
<feOffset dy="4"/>
<feGaussianBlur stdDeviation="2"/>
<feColorMatrix type="matrix" values="0 0 0 0 1 0 0 0 0 1 0 0 0 0 1 0 0 0 1 0"/>
<feBlend mode="normal" in2="BackgroundImageFix" result="effect1_dropShadow"/>
<feBlend mode="normal" in="SourceGraphic" in2="effect1_dropShadow" result="shape"/>
</filter>
<filter id="filter1_d" x="27.5" y="0" width="20.8331" height="62.9955" filterUnits="userSpaceOnUse" color-interpolation-filters="sRGB">
<feFlood flood-opacity="0" result="BackgroundImageFix"/>
<feColorMatrix in="SourceAlpha" type="matrix" values="0 0 0 0 0 0 0 0 0 0 0 0 0 0 0 0 0 0 127 0"/>
<feOffset dy="4"/>
<feGaussianBlur stdDeviation="2"/>
<feColorMatrix type="matrix" values="0 0 0 0 1 0 0 0 0 1 0 0 0 0 1 0 0 0 1 0"/>
<feBlend mode="normal" in2="BackgroundImageFix" result="effect1_dropShadow"/>
<feBlend mode="normal" in="SourceGraphic" in2="effect1_dropShadow" result="shape"/>
</filter>
<filter id="filter2_d" x="9.16602" y="22.1494" width="9.83331" height="24.2025" filterUnits="userSpaceOnUse" color-interpolation-filters="sRGB">
<feFlood flood-opacity="0" result="BackgroundImageFix"/>
<feColorMatrix in="SourceAlpha" type="matrix" values="0 0 0 0 0 0 0 0 0 0 0 0 0 0 0 0 0 0 127 0"/>
<feOffset dy="4"/>
<feGaussianBlur stdDeviation="2"/>
<feColorMatrix type="matrix" values="0 0 0 0 1 0 0 0 0 1 0 0 0 0 1 0 0 0 1 0"/>
<feBlend mode="normal" in2="BackgroundImageFix" result="effect1_dropShadow"/>
<feBlend mode="normal" in="SourceGraphic" in2="effect1_dropShadow" result="shape"/>
</filter>
<filter id="filter3_d" x="9.16602" y="17.5654" width="9.83333" height="10.75" filterUnits="userSpaceOnUse" color-interpolation-filters="sRGB">
<feFlood flood-opacity="0" result="BackgroundImageFix"/>
<feColorMatrix in="SourceAlpha" type="matrix" values="0 0 0 0 0 0 0 0 0 0 0 0 0 0 0 0 0 0 127 0"/>
<feOffset dy="4"/>
<feGaussianBlur stdDeviation="2"/>
<feColorMatrix type="matrix" values="0 0 0 0 1 0 0 0 0 1 0 0 0 0 1 0 0 0 1 0"/>
<feBlend mode="normal" in2="BackgroundImageFix" result="effect1_dropShadow"/>
<feBlend mode="normal" in="SourceGraphic" in2="effect1_dropShadow" result="shape"/>
</filter>
</defs>
</svg>
