<svg width="55" height="53" viewBox="0 0 55 53" fill="none" xmlns="http://www.w3.org/2000/svg">
<path d="M54.9246 19.8452C54.744 19.292 54.2699 18.8969 53.6941 18.8066L36.5356 16.3683L28.8143 0.846637C28.5547 0.327366 28.0241 0 27.4484 0C26.8727 0 26.3421 0.327366 26.0825 0.857925L18.4628 16.4248L1.30426 18.976C0.728552 19.0663 0.254435 19.4614 0.0738194 20.0145C-0.106796 20.5676 0.0512424 21.1772 0.468917 21.5723L12.9201 33.6397L10.0416 50.7305C9.93996 51.3062 10.177 51.8819 10.6511 52.2206C10.9108 52.4125 11.2268 52.5141 11.5429 52.5141C11.7913 52.5141 12.0283 52.4576 12.2541 52.3334L27.5726 44.217L42.9362 52.2431C43.162 52.356 43.399 52.4125 43.6361 52.4125C44.4714 52.4125 45.16 51.7239 45.16 50.8885C45.16 50.7643 45.1488 50.6515 45.1149 50.5386L42.146 33.5494L54.5182 21.4143C54.9585 21.0079 55.1052 20.3983 54.9246 19.8452ZM39.4594 31.9351C39.0981 32.2851 38.9401 32.7931 39.0304 33.2898L41.6155 48.1115L28.2725 41.1465C27.8322 40.9095 27.3017 40.9208 26.8501 41.1465L13.5523 48.1906L16.047 33.3462C16.1261 32.8495 15.968 32.3528 15.6068 32.0029L4.81498 21.5272L19.7045 19.3146C20.2012 19.2356 20.6302 18.9308 20.8446 18.4793L27.4597 4.96694L34.1651 18.4454C34.3908 18.8969 34.8198 19.2017 35.3165 19.2807L50.2173 21.403L39.4594 31.9351Z" fill="#333333"/>
</svg>
