<svg width="75" height="75" viewBox="0 0 75 75" fill="none" xmlns="http://www.w3.org/2000/svg">
<path d="M32.2368 61.8556L40.4671 43.6722H44.1035V61.8556H49.2707V13.1443H40.1204C34.296 13.1443 27.3566 19.2694 27.3566 29.2213C27.3566 39.175 36.0647 43.1938 36.0647 43.1938L25.7292 61.8556H32.2368ZM35.428 36.9823C34.1565 35.3845 33.0492 32.7261 33.0492 28.3134C33.0492 18.6473 38.6072 17.3987 39.3737 17.273C39.4287 17.264 39.4825 17.261 39.5374 17.261H43.9592V39.3659H40.519C38.5522 39.3659 36.6531 38.5208 35.428 36.9823Z" fill="#FFD900"/>
<path d="M0 0V75H75V0H0ZM70.3608 70.3608H4.63917V4.63917H70.3608V70.3608Z" fill="#FFD900"/>
</svg>
