<svg width="20" height="21" viewBox="0 0 20 21" fill="none" xmlns="http://www.w3.org/2000/svg">
<path d="M9.87838 0.581055C4.42289 0.581055 0 5.00374 0 10.4594C0 15.9151 4.42289 20.3378 9.87838 20.3378C15.3339 20.3378 19.7568 15.9151 19.7568 10.4594C19.7568 5.00374 15.3339 0.581055 9.87838 0.581055ZM14.8892 11.5278C15.3496 11.9775 15.8367 12.4007 16.2501 12.8969C16.4332 13.1164 16.6058 13.3434 16.7372 13.5987C16.9247 13.9627 16.7553 14.3619 16.4295 14.3835L14.4058 14.3831C13.8831 14.4263 13.4671 14.2155 13.1165 13.8582C12.8365 13.5734 12.5768 13.2692 12.3072 12.9748C12.197 12.8539 12.081 12.7401 11.9428 12.6506C11.6669 12.4711 11.4272 12.5261 11.2691 12.8143C11.108 13.1075 11.0713 13.4325 11.0559 13.759C11.0339 14.2362 10.89 14.3609 10.4112 14.3833C9.38805 14.4312 8.41729 14.276 7.51505 13.7602C6.71912 13.3052 6.10307 12.6631 5.56625 11.9361C4.52091 10.5189 3.72033 8.96338 3.00101 7.36323C2.83911 7.00286 2.95755 6.81004 3.35511 6.80256C4.01562 6.78983 4.67614 6.79145 5.33665 6.80196C5.60546 6.8062 5.78332 6.96001 5.8866 7.21367C6.24354 8.09186 6.68112 8.9274 7.22946 9.70231C7.37559 9.90867 7.52475 10.1144 7.73717 10.2601C7.97162 10.421 8.15029 10.3679 8.26085 10.1061C8.33159 9.93979 8.36211 9.76193 8.37747 9.58367C8.43002 8.97308 8.43629 8.36269 8.34534 7.75453C8.28874 7.37394 8.0747 7.12817 7.69533 7.05622C7.50211 7.01963 7.53041 6.94809 7.62439 6.83773C7.7875 6.64693 7.9403 6.5289 8.24569 6.5289L10.5322 6.5285C10.8926 6.59924 10.9734 6.76093 11.0223 7.12393L11.0244 9.66492C11.0201 9.80539 11.0949 10.2217 11.3471 10.3137C11.5493 10.3804 11.6827 10.2183 11.8035 10.0904C12.3519 9.50848 12.7426 8.82169 13.0924 8.11085C13.2468 7.79737 13.38 7.47298 13.5094 7.14798C13.6056 6.90766 13.7551 6.78943 14.0264 6.79347L16.2282 6.7961C16.2931 6.7961 16.359 6.7967 16.4233 6.80782C16.7944 6.87128 16.896 7.03095 16.7812 7.39294C16.6005 7.96169 16.2495 8.43545 15.9063 8.91042C15.5384 9.41894 15.1461 9.90968 14.7819 10.4204C14.4472 10.8873 14.4737 11.1224 14.8892 11.5278Z" fill="#D3D5D6"/>
</svg>
