<svg width="20" height="20" viewBox="0 0 20 20" fill="none" xmlns="http://www.w3.org/2000/svg">
<circle cx="10.0385" cy="9.87838" r="9.87838" fill="#D3D5D6"/>
<path d="M12.6804 11.2664L12.6765 11.3014C11.7295 10.7899 11.6305 10.7218 11.5082 10.9206C11.4233 11.0583 11.1762 11.3705 11.1017 11.4629C11.0263 11.5539 10.9514 11.5609 10.8235 11.4979C10.6943 11.4279 10.2796 11.2809 9.78863 10.8049C9.40622 10.4338 9.14956 9.9788 9.07377 9.83879C8.94759 9.60263 9.21157 9.56903 9.45187 9.07618C9.49493 8.97818 9.47297 8.90117 9.4411 8.83163C9.4088 8.76162 9.15171 8.07556 9.04405 7.80207C8.9407 7.52951 8.83433 7.56405 8.75466 7.56405C8.50661 7.54071 8.32531 7.54445 8.16554 7.7246C7.47049 8.55254 7.64576 9.40661 8.24047 10.3148C9.40924 11.9726 10.0319 12.2778 11.1706 12.7016C11.478 12.8075 11.7584 12.7926 11.9802 12.758C12.2274 12.7156 12.7411 12.4215 12.8483 12.0925C12.9582 11.7635 12.9582 11.4905 12.9259 11.4275C12.894 11.3645 12.8096 11.3295 12.6804 11.2664Z" fill="white"/>
<path d="M14.6618 5.82145C10.7524 2.04223 4.28241 4.78322 4.27987 10.1147C4.27987 11.1804 4.55901 12.2196 5.09084 13.1373L4.22852 16.2703L7.44952 15.4304C11.4688 17.6014 16.4292 14.7186 16.4312 10.1177C16.4312 8.50294 15.8007 6.98322 14.6542 5.84127L14.6618 5.82145ZM15.4153 10.101C15.4123 13.9819 11.152 16.4056 7.78255 14.4247L7.59951 14.3159L5.69284 14.8116L6.20383 12.9584L6.08231 12.7677C3.98548 9.42982 6.3945 5.06743 10.3665 5.06743C11.7159 5.06743 12.9824 5.59367 13.9363 6.54698C14.8896 7.49217 15.4153 8.75868 15.4153 10.101Z" fill="white"/>
</svg>
