<svg id="Группа_1" data-name="Группа 1" xmlns="http://www.w3.org/2000/svg" width="124" height="40" viewBox="0 0 124 40">
  <metadata><?xpacket begin="﻿" id="W5M0MpCehiHzreSzNTczkc9d"?>
<x:xmpmeta xmlns:x="adobe:ns:meta/" x:xmptk="Adobe XMP Core 5.6-c140 79.160451, 2017/05/06-01:08:21        ">
   <rdf:RDF xmlns:rdf="http://www.w3.org/1999/02/22-rdf-syntax-ns#">
      <rdf:Description rdf:about=""/>
   </rdf:RDF>
</x:xmpmeta>
                                                                                                    
                                                                                                    
                                                                                                    
                                                                                                    
                                                                                                    
                                                                                                    
                                                                                                    
                                                                                                    
                                                                                                    
                                                                                                    
                                                                                                    
                                                                                                    
                                                                                                    
                                                                                                    
                                                                                                    
                                                                                                    
                                                                                                    
                                                                                                    
                                                                                                    
                                                                                                    
                           
<?xpacket end="w"?></metadata>
<defs>
    <style>
      .cls-1, .cls-2, .cls-3 {
        fill: #fff;
      }

      .cls-1 {
        fill-opacity: 0;
        stroke-width: 1px;
      }

      .cls-1, .cls-2 {
        stroke: #fff;
        stroke-linejoin: round;
      }

      .cls-2 {
        stroke-width: 2px;
        fill-rule: evenodd;
      }

      .cls-3 {
        font-size: 13px;
        font-family: Lato;
        font-weight: 700;
      }
    </style>
  </defs>
  <rect id="Rounded_Rectangle_7" data-name="Rounded Rectangle 7" class="cls-1" x="0.5" y="0.5" width="123" height="39"/>
  <path id="Forma_1_copy" data-name="Forma 1 copy" class="cls-2" d="M898.851,2004.79h2.438l3.474,13.25a0.862,0.862,0,0,0,.823.65h10.676a0.852,0.852,0,0,0,.78-0.54l3.885-9.41a0.941,0.941,0,0,0-.071-0.85,0.827,0.827,0,0,0-.709-0.41h-11.8a0.9,0.9,0,0,0,0,1.8h10.492l-3.148,7.62h-9.471l-3.474-13.24a0.86,0.86,0,0,0-.822-0.66h-3.077A0.9,0.9,0,0,0,898.851,2004.79Zm5.926,20.21a2.038,2.038,0,1,0-1.928-2.03A1.983,1.983,0,0,0,904.777,2025Zm12.053,0h0.141a1.865,1.865,0,0,0,1.319-.7,2.117,2.117,0,0,0,.468-1.48,1.976,1.976,0,0,0-2.056-1.89,2.015,2.015,0,0,0-1.787,2.17A1.982,1.982,0,0,0,916.83,2025Z" transform="translate(-885.5 -1992.5)"/>
  <text id="Add_to_Cart" data-name="Add to Cart" class="cls-3" x="43.5" y="25.5">Add to Cart</text>
</svg>
