<svg width="21" height="21" viewBox="0 0 21 21" fill="none" xmlns="http://www.w3.org/2000/svg">
<path d="M8.26328 20.7237C7.48923 21 6.78555 21.0691 6.15223 20.9309C5.51892 20.7928 5.16708 20.551 5.09671 20.2056C5.02634 19.7911 5.0615 19.4112 5.20223 19.0658L7.52442 12.9523L7.84109 11.8125H3.93561C3.72451 11.8816 2.91527 11.9161 1.5079 11.9161C1.36716 11.9161 1.12088 11.8816 0.769037 11.8125C0.487563 11.7434 0.311644 11.7089 0.241275 11.7089C-0.0401995 11.7089 -0.0754021 11.3289 0.135704 10.5691C0.628284 8.91118 1.12089 8.08223 1.61347 8.08223H3.83009C6.29299 8.08223 8.01698 8.11677 9.00214 8.18585L10.5854 3.62664L11.4299 0.828948C11.5002 0.621712 11.641 0.48355 11.8521 0.414471C12.0632 0.345392 12.3798 0.276317 12.802 0.207238C13.2946 0.138159 13.6817 0.0690791 13.9631 0C14.8076 0 15.2298 0.0690802 15.2298 0.207238C15.3001 0.414476 15.1594 0.863488 14.8076 1.55428L13.7521 4.45559C13.1891 5.90625 12.8021 7.14967 12.591 8.18585C13.365 8.18585 14.3854 8.25493 15.652 8.39309C16.9186 8.46217 18.2556 8.53125 19.663 8.60033C19.7334 8.60033 19.8741 8.6694 20.0852 8.80756C20.3667 8.87664 20.5778 8.91118 20.7185 8.91118C21 9.04934 21.0704 9.32565 20.9296 9.74013C20.7889 10.0855 20.5778 10.3618 20.2963 10.5691C19.0297 11.7434 17.9741 12.4342 17.1297 12.6414C16.7779 12.6414 16.2853 12.5724 15.652 12.4342C15.0891 12.2961 14.5261 12.227 13.9631 12.227C13.8928 12.227 13.0132 12.1234 11.3243 11.9161C11.254 12.1234 11.1132 12.5033 10.9021 13.0559C10.7614 13.5395 10.6558 13.8503 10.5854 13.9885L9.10771 18.2368C9.03734 18.5822 8.89658 19.0658 8.68547 19.6875C8.47437 20.2401 8.33365 20.5855 8.26328 20.7237ZM16.8131 9.94737C16.9538 9.74013 17.0242 9.60197 17.0242 9.53289C16.7427 9.53289 16.3557 9.53289 15.8631 9.53289C15.3705 9.46381 15.0187 9.39474 14.8076 9.32566H12.1688V9.63651L12.4854 9.53289H15.8631C16.2149 9.53289 16.5316 9.67105 16.8131 9.94737Z" fill="#A1C236" fill-opacity="0.7"/>
</svg>
