<svg width="20" height="4" viewBox="0 0 20 4" fill="none" xmlns="http://www.w3.org/2000/svg">
<path d="M19.5118 4C19.3816 3.92593 19.1863 3.88889 18.926 3.88889C18.7307 3.88889 18.5679 3.88889 18.4377 3.88889C17.5264 3.51852 16.8429 3.4074 16.3872 3.55555C14.6947 3.33333 13.2626 3.22222 12.0909 3.22222C11.8956 3.22222 11.7003 3.33333 11.505 3.55555C9.87766 3.4074 8.96632 3.37037 8.77104 3.44445C7.8597 3.44445 6.85076 3.48148 5.74414 3.55555H0.861957C-0.179569 3.55555 -0.27722 2.81481 0.56902 1.33333L1.54545 0.11111C6.68799 -0.0370368 10.5612 -0.0370368 13.165 0.11111C15.1179 0.185185 16.8755 0.444449 18.4377 0.888893C18.8283 0.962967 19.2514 1.18519 19.7071 1.55556C19.9024 1.70371 20 2.33334 20 3.44445C20 3.81482 19.8373 4 19.5118 4ZM13.8485 1.11111L12.5791 0.777781H10.2357L10.3333 0.888893C10.3984 0.962967 11.5702 1.03704 13.8485 1.11111ZM3.30303 2.22222H4.27945C4.01907 2.07408 3.6936 2.07408 3.30303 2.22222ZM18.3401 3.44445C18.8608 3.66667 19.2514 3.62963 19.5118 3.33334C18.9259 3.33334 18.5354 3.37037 18.3401 3.44445Z" fill="#A1C236" fill-opacity="0.7"/>
</svg>
