<svg width="256" height="137" viewBox="0 0 256 137" fill="none" xmlns="http://www.w3.org/2000/svg">
<path d="M150.127 137C145.621 137 141.554 135.985 137.923 133.955C134.292 131.881 131.427 129.056 129.328 125.482C127.272 121.907 126.244 117.913 126.244 113.5C126.244 109.087 127.272 105.093 129.328 101.518C131.427 97.9437 134.292 95.1413 137.923 93.1113C141.554 91.0371 145.621 90 150.127 90C154.632 90 158.7 91.015 162.33 93.0451C165.961 95.0751 168.804 97.8775 170.86 101.452C172.96 105.027 174.009 109.043 174.009 113.5C174.009 117.957 172.96 121.973 170.86 125.548C168.804 129.123 165.961 131.925 162.33 133.955C158.7 135.985 154.632 137 150.127 137ZM150.127 133.889C153.976 133.889 157.453 133.006 160.559 131.241C163.665 129.476 166.114 127.048 167.907 123.959C169.701 120.826 170.598 117.339 170.598 113.5C170.598 109.661 169.701 106.196 167.907 103.107C166.114 99.9737 163.665 97.5244 160.559 95.7592C157.453 93.9939 153.976 93.1113 150.127 93.1113C146.278 93.1113 142.778 93.9939 139.629 95.7592C136.523 97.5244 134.074 99.9737 132.28 103.107C130.487 106.196 129.59 109.661 129.59 113.5C129.59 117.339 130.487 120.826 132.28 123.959C134.074 127.048 136.523 129.476 139.629 131.241C142.778 133.006 146.278 133.889 150.127 133.889Z" fill="#A1C236"/>
<path d="M23.0092 110.198C22.5464 110.188 22.2751 109.96 22.1953 109.513C22.1634 109.334 22.0103 108.993 21.7358 108.489C21.5507 107.968 21.3736 107.493 21.2045 107.062C21.1407 106.705 21.0769 106.347 21.0131 105.99C20.911 104.901 21.1186 102.19 21.6359 97.856C21.7827 97.6453 21.8242 97.3613 21.7604 97.0038C21.6966 96.6464 21.5961 96.3416 21.4589 96.0894C21.3057 95.7479 21.1844 95.5851 21.095 95.6011L20.669 95.5388C20.2796 95.4239 20.0402 95.3744 19.9509 95.3904C19.236 95.518 16.804 95.5833 12.6549 95.5862C11.4709 95.1521 10.8023 94.7643 10.6491 94.4228C9.86401 93.6408 9.72043 92.8365 10.2184 92.0099C10.4546 91.7833 11.2876 91.5424 12.7174 91.2872C13.3589 91.2649 14.5813 91.1389 16.3845 90.9092C18.2772 90.6635 19.731 90.5423 20.7459 90.5456L21.8183 90.3542C22.3577 89.2435 22.8334 86.4844 23.2454 82.0769C22.4092 82.0417 21.2762 82.1518 19.8463 82.407C18.1803 82.8888 16.1504 82.8823 13.7568 82.3875C12.8472 82.4577 12.1865 82.1145 11.7749 81.3581C11.3057 80.7964 11.2021 80.2155 11.4638 79.6155C12.4564 78.9772 13.4394 78.8018 14.4128 79.0891L23.9302 77.3901C24.722 73.5602 25.4819 68.2607 26.21 61.4914C29.0729 59.966 30.8825 60.2884 31.6388 62.4587C31.6738 64.2045 31.2635 66.8136 30.408 70.286C29.5365 73.669 29.0879 75.5473 29.0624 75.9207C29.5092 75.8409 30.4188 75.7707 31.7912 75.7102C33.1476 75.5603 34.4067 75.3816 35.5685 75.1742C36.7302 74.9668 37.6446 74.6653 38.3117 74.2696C38.9916 72.3961 39.2869 70.1764 39.1977 67.6104C39.2233 67.237 39.2409 66.8189 39.2505 66.3561C39.3335 65.788 39.4324 65.3093 39.5474 64.9199L41.1559 64.6328C41.424 64.5849 41.6762 64.4477 41.9124 64.2211C42.2379 63.9785 42.5347 63.8333 42.8028 63.7855L43.0949 63.8717L44.0427 64.5324C44.9108 64.7463 45.2491 65.608 45.0575 67.1176C45.0223 67.9538 44.7861 69.4714 44.3487 71.6704L44.5641 72.8768C44.9534 72.9917 45.5056 72.9854 46.2205 72.8577L51.9845 71.8288C52.958 72.1161 54.249 72.1162 55.8575 71.829C56.3522 72.0174 56.6075 72.1562 56.6235 72.2456C56.7128 72.2296 56.7974 72.4451 56.8772 72.8919C55.9739 73.5142 55.1281 73.9418 54.3398 74.1748C51.1226 74.749 48.8757 75.3346 47.5991 75.9313C45.633 76.2823 44.3931 76.8264 43.8792 77.5636C42.9152 79.3955 42.3294 82.3126 42.1217 86.3148C42.2111 86.2989 42.4425 86.3037 42.8159 86.3292L43.2659 86.5255C44.4436 86.4075 47.1995 86.6071 51.5336 87.1244C51.6389 87.1978 51.8496 87.3447 52.1655 87.5649C52.4655 87.6958 52.7288 87.8793 52.9554 88.1155C53.1661 88.2623 53.2953 88.4698 53.3432 88.7379C53.0495 89.1591 52.0298 89.3873 50.284 89.4223C48.6276 89.4413 47.6206 89.4828 47.2632 89.5466L41.7672 90.5277C39.6957 93.3872 38.5194 96.8707 38.2383 100.978C38.1584 103.113 37.5599 104.926 36.4427 106.417C36.4108 106.238 36.2449 106.083 35.9449 105.952C35.7502 105.895 35.6816 105.769 35.739 105.574C35.7011 99.6792 35.7028 96.5897 35.7444 96.3057C35.7284 96.2163 35.722 95.6642 35.7253 94.6492C35.802 93.529 35.8898 92.7295 35.9888 92.2508L35.5866 92.3226L31.6992 93.0165C30.8471 92.892 29.7013 93.1887 28.2618 93.9068C27.2788 94.0822 26.6772 94.328 26.457 94.6439C26.2208 94.8705 26.0117 95.5072 25.8297 96.554L25.4371 97.454C25.2647 98.0381 25.129 98.5695 25.0301 99.0482C24.7395 101.037 24.5527 102.315 24.4697 102.883C24.1665 103.767 23.8824 105.016 23.6174 106.631C23.4417 108.23 23.239 109.419 23.0092 110.198ZM27.7786 88.8752C31.7107 88.1733 34.7331 87.5415 36.846 86.9799C37.4749 83.2714 37.7719 80.5442 37.7369 78.7984C35.5858 78.6291 32.5713 79.3055 28.6935 80.8277C28.3009 81.7277 27.9593 83.1719 27.6687 85.1602C27.3782 87.1485 27.1754 88.3374 27.0605 88.7268L27.7786 88.8752ZM37.6738 94.7164L37.8078 94.6925C37.7121 94.1563 37.8079 93.4015 38.0952 92.428C37.9164 92.4599 37.7521 93.0887 37.602 94.3142L37.6738 94.7164ZM24.7095 96.4774L24.9776 96.4295C25.2393 95.8295 25.3542 95.4402 25.3223 95.2614L25.0542 95.3093L24.7095 96.4774Z" fill="#75589B"/>
<path d="M141.085 104.058C142.263 103.94 142.941 103.865 143.12 103.834C143.404 103.875 144.087 103.569 145.169 102.915C146.34 102.244 147.007 101.849 147.17 101.727L146.289 102.991C143.736 104.185 141.744 104.909 140.314 105.164C138.884 105.42 137.906 105.364 137.38 104.997C136.917 104.987 136.307 105.188 135.551 105.6C135.64 105.584 135.745 105.657 135.867 105.82C136.077 105.967 136.227 106.032 136.317 106.016C138.225 105.86 139.33 105.847 139.63 105.978C141.375 105.943 143.005 105.514 144.518 104.691L144.786 104.643L144.833 104.911C143.873 105.728 142.527 106.199 140.798 106.323L137.13 106.701C137.041 106.717 136.944 106.688 136.838 106.615L136.436 106.686L135.9 106.782C135.795 106.709 135.6 106.651 135.316 106.61C135.227 106.626 135.085 106.605 134.89 106.548C134.695 106.49 134.553 106.469 134.464 106.485C134.269 106.428 134.075 106.37 133.88 106.313C133.775 106.24 133.625 106.174 133.43 106.117C133.325 106.043 133.219 105.97 133.114 105.896L132.846 105.944C133.478 106.385 134.236 106.757 135.12 107.06C132.085 106.587 130.154 106.102 129.327 105.604C129.522 105.662 129.993 105.716 130.739 105.767L130.692 105.499C130.513 105.531 130.176 105.453 129.681 105.264C129.292 105.149 129.04 105.287 128.925 105.676C128.836 105.692 128.604 105.687 128.231 105.662C127.947 105.62 127.723 105.66 127.561 105.781C126.903 105.714 124.604 104.972 120.662 103.555C119.105 103.095 115.8 101.887 110.748 99.93C110.269 99.831 109.138 99.4336 107.354 98.7378C105.585 98.1313 103.915 97.5535 102.341 97.0044C100.784 96.5448 99.6237 96.2447 98.8609 96.1042L96.1943 95.8886C94.2379 95.7768 92.5001 95.8565 90.9809 96.1277C88.2999 96.6063 86.1615 97.5413 84.5656 98.9327C84.3294 99.1593 84.0597 99.7146 83.7565 100.599C83.699 100.793 83.4995 100.967 83.158 101.12C82.8325 101.363 82.633 101.537 82.5596 101.642L82.3249 102.652C81.8941 102.821 81.6132 103.056 81.4823 103.356L80.6302 103.232C81.1568 103.599 81.4105 104.245 81.3912 105.17C81.2604 105.47 81.0481 105.831 80.7545 106.252C80.4768 106.763 80.2725 107.168 80.1416 107.468C79.8224 108.263 79.642 108.802 79.6005 109.086C78.7259 110.902 78.5694 112.867 79.131 114.98C78.9842 115.19 78.8214 115.312 78.6427 115.343C78.4799 115.465 78.2565 115.505 77.9725 115.463C77.7778 115.406 77.6358 115.385 77.5464 115.401C77.1315 115.659 76.7421 115.544 76.3783 115.056C76.273 114.983 76.0017 114.754 75.5645 114.371C75.1432 114.078 74.8719 113.85 74.7507 113.687C73.439 112.538 73.0273 111.781 73.5157 111.418C74.004 111.054 74.1269 110.709 73.8844 110.383C73.6163 110.431 73.4247 110.65 73.3098 111.039C73.0035 110.356 72.8184 109.836 72.7546 109.479C72.5951 108.585 72.5297 107.444 72.5585 106.056C72.5681 105.593 72.8155 104.396 73.3007 102.465L74.943 99.2673C76.59 97.129 77.739 95.8173 78.3901 95.3322L79.9653 94.0828C80.8685 93.4605 81.5819 92.5494 82.1054 91.3494C82.8428 89.2813 83.5562 87.0791 84.2457 84.7429L86.9081 74.862L87.8945 71.0896C85.9252 72.4554 84.0421 73.5293 82.2452 74.3111L80.4403 75.0483C78.4647 75.862 76.4939 76.4444 74.5278 76.7953C74.3491 76.8272 73.8544 76.6389 73.0438 76.2303C74.3842 75.991 75.0465 75.8267 75.0305 75.7374C75.0146 75.648 74.804 75.5012 74.3986 75.2969L74.4609 74.8708C74.5503 74.8549 74.729 74.8229 74.9971 74.7751C75.2652 74.7272 75.4359 74.6506 75.5094 74.5453C75.819 74.2134 75.8317 74.0267 75.5477 73.9852L73.9391 74.2724C72.7774 74.4797 71.9492 74.4893 71.4545 74.3009L71.5167 73.8749L72.029 73.6451C72.8077 73.8749 73.7828 73.6548 74.9541 72.9846L74.1498 73.1282C73.703 73.2079 73.2482 73.243 72.7854 73.2334C72.3961 73.1185 72.0961 72.9876 71.8854 72.8408C71.6588 72.6046 71.5743 72.3892 71.6317 72.1945L73.4461 72.2856C73.4621 72.3749 73.8722 72.3478 74.6765 72.2043C75.5542 71.9554 76.0377 71.8229 76.1271 71.807C76.3058 71.7751 76.5292 71.7352 76.7973 71.6873C77.0495 71.5501 77.3096 71.4576 77.5777 71.4097C77.8298 71.2725 78.1267 71.1273 78.4682 70.9741C80.7694 69.9178 82.046 69.3211 82.2982 69.1839C85.2664 67.7319 87.6299 66.2495 89.3885 64.7368C90.359 60.8751 91.1667 57.1346 91.8116 53.5154C94.1549 41.8471 95.9362 34.5209 97.1556 31.5369C99.7986 25.1634 103.767 21.8269 109.062 21.5272C113.521 21.1923 115.897 23.3962 116.19 28.1389C116.49 30.8518 116.295 33.3763 115.606 35.7125C112.749 45.536 106.003 55.27 95.3679 64.9143C95.3264 65.1983 94.7167 67.9814 93.5387 73.2634C91.3935 81.3922 90.0272 85.8779 89.4399 86.7204L88.3194 90.5167L87.1176 93.0827C88.8571 92.4955 90.9125 92.1286 93.2838 91.982C94.2988 91.9852 95.3663 92.0252 96.4866 92.1018C97.7121 92.2519 98.4669 92.3477 98.751 92.3892L100.479 92.7723L101.829 93.3612L103.533 93.6103L105.626 94.4817L106.526 94.8743C107.464 95.9978 108.498 96.3665 109.628 95.9804C110.269 95.9581 111.04 96.1432 111.94 96.5358C112.84 96.9285 113.529 97.1742 114.008 97.2732L115.564 98.2404L115.966 98.1686C116.84 98.9346 117.838 99.3559 118.958 99.4326C119.3 99.2794 119.892 99.4965 120.734 100.084C121.002 100.036 121.347 100.159 121.768 100.452C122.572 100.309 123.554 100.641 124.712 101.448C124.923 101.595 125.252 101.629 125.699 101.549C126.145 101.469 126.421 101.466 126.527 101.539C126.827 101.67 128.802 102.148 132.453 102.971C133.038 103.144 134.791 103.153 137.715 103C138.998 102.956 140.606 102.669 142.54 102.139L143.306 102.555C143.559 102.418 143.847 102.228 144.173 101.986C144.588 101.727 144.885 101.582 145.063 101.55L145.111 101.818C144.687 102.54 143.702 103.222 142.157 103.867L143.756 102.752L143.733 102.618L142.55 102.967L142.234 102.747C142.161 102.852 142.035 102.921 141.856 102.953L141.344 103.182C141.181 103.304 141.095 103.596 141.085 104.058ZM95.5556 48.1442C95.3928 48.2654 95.5588 48.4202 96.0535 48.6086C96.0216 48.4298 96.0343 48.2431 96.0918 48.0484C96.2227 47.7484 96.2722 47.5091 96.2403 47.3303C96.2818 47.0463 96.4143 46.2388 96.6377 44.908C96.9346 43.4718 97.214 42.4537 97.4757 41.8537C97.3481 41.1387 97.3705 40.4893 97.5428 39.9052C97.9706 38.169 98.4207 37.0743 98.8931 36.6211L98.6489 36.8031C98.3968 36.9403 98.3074 36.9562 98.3808 36.8509C98.4542 36.7456 98.475 36.6036 98.4431 36.4248C98.4846 36.1408 98.5947 35.9828 98.7734 35.9509L98.8836 35.7929C98.9698 34.2099 99.3066 32.9971 99.8939 32.1546C100.172 31.644 100.507 30.9386 100.899 30.0386C101.292 29.1386 101.582 28.4413 101.771 27.9466C102.048 27.436 102.416 26.9094 102.872 26.3668C103.312 25.7349 103.822 25.2291 104.399 24.8493L103.887 25.0791C102.432 25.7078 101.11 27.6035 99.9227 30.7663C97.6308 36.5237 96.1751 42.3164 95.5556 48.1442ZM107.76 25.0793C106.809 25.4335 106.06 25.8899 105.515 26.4484C104.879 27.0228 104.517 27.318 104.428 27.334L104.184 27.5159C104.037 27.7265 103.927 27.8845 103.853 27.9898C103.959 28.0632 104.048 28.0473 104.121 27.942L104.255 27.918C103.349 29.5553 102.867 30.4712 102.809 30.6659L102.833 30.7999L102.565 30.8478C102.492 30.9531 102.545 30.9898 102.723 30.9579L102.321 31.0297C102.426 31.1031 102.43 31.3792 102.331 31.8579C102.232 32.3366 102.369 32.5888 102.742 32.6143C102.564 32.6463 102.393 32.7228 102.23 32.8441L102.096 32.868L102.12 33.0021C101.513 34.7702 101.091 36.275 100.851 37.5165C100.631 37.8325 100.45 38.3718 100.31 39.1346C100.243 39.7921 100.055 40.2867 99.745 40.6186C99.761 40.708 99.8136 40.7447 99.903 40.7288C99.9923 40.7128 100.045 40.7495 100.061 40.8389C99.9875 40.9442 99.9301 41.1389 99.8886 41.4229C99.9205 41.6017 99.863 41.7964 99.7162 42.007C99.6587 42.2017 99.5486 42.3596 99.3858 42.4809C99.5231 42.7331 99.5055 43.1512 99.3331 43.7352C99.2501 44.3033 99.2245 44.6767 99.2564 44.8554L99.1463 45.0134L98.9021 45.1953C98.9915 45.1794 99.0809 45.1634 99.1703 45.1475C99.1128 45.3421 99.0106 45.5448 98.8638 45.7554C98.9436 46.2023 98.2205 50.1582 96.6944 57.6232L99.591 54.4781C104.455 49.1835 107.99 43.158 110.196 36.4016C111.173 33.092 111.43 30.1414 110.967 27.5498C110.824 26.7455 110.473 26.0705 109.914 25.5247C109.445 24.9629 108.727 24.8145 107.76 25.0793ZM76.7063 73.5017C81.8831 72.0243 85.8759 70.1128 88.6846 67.7672C88.7995 67.3778 88.8937 67.1305 88.9671 67.0252L88.6751 66.939C85.9876 69.4474 82.1368 71.3797 77.1228 72.7358L76.7063 73.5017ZM92.3996 67.6573L91.4469 68.519C90.8212 71.2126 90.221 73.5329 89.6464 75.4797C89.7677 75.6425 89.9305 75.5212 90.1347 75.1159C90.4284 74.6946 90.7189 73.9973 91.0062 73.0238C91.2935 72.0504 91.552 71.1744 91.7819 70.3956C92.0117 69.6169 92.299 68.6435 92.6438 67.4754L92.5097 67.4993L92.3996 67.6573ZM73.4986 74.9043C73.6199 75.067 73.6071 75.2537 73.4603 75.4644C71.5358 75.5313 70.4315 75.544 70.1475 75.5025L70.0757 75.1003L73.4986 74.9043Z" fill="#75589B"/>
<path d="M121.305 83.6603C120.858 83.74 120.492 83.7592 120.208 83.7177C119.787 83.424 118.992 83.1048 117.824 82.76C116.286 81.3748 115.61 79.6513 115.795 77.5896C116.066 76.5268 116.235 75.6667 116.302 75.0092C116.376 74.9039 116.404 74.8065 116.389 74.7172C116.43 74.4331 116.492 74.0071 116.575 73.439C116.658 72.8709 116.721 72.4448 116.762 72.1607L117.413 70.3847C117.544 70.0847 117.667 69.74 117.782 69.3506C117.986 68.9453 118.125 68.69 118.199 68.5847C118.575 67.5953 119.269 66.3187 120.281 64.7549C121.277 63.1017 121.84 62.1251 121.971 61.8251C123.555 59.3294 125.484 57.7401 127.76 57.0572C129.148 57.086 130.171 57.134 130.828 57.201C131.486 57.2681 132.272 57.5426 133.188 58.0246C134.088 58.4172 134.716 59.0891 135.07 60.0402C135.392 60.8126 135.208 62.3669 134.519 64.703C134.787 64.6552 135.247 64.3887 135.898 63.9036C136.622 63.3132 137.305 63.0069 137.947 62.9846C138.799 63.1091 139.447 63.6389 139.89 64.5741C140.155 65.5412 140.217 66.4061 140.077 67.1689C140.003 67.2742 139.975 67.3715 139.991 67.4609C139.933 67.6556 139.912 67.7976 139.928 67.887C139.864 70.1115 140.341 72.0089 141.36 73.5792C141.65 74.1729 142.14 74.5926 142.829 74.8384C143.113 74.8799 143.426 74.8241 143.768 74.6709C143.857 74.6549 144.072 74.5704 144.414 74.4172C144.755 74.264 145.007 74.1268 145.17 74.0055C146.326 73.246 148.15 71.5833 150.643 69.0174C153.02 66.8409 154.682 65.2995 155.626 64.3931C156.262 63.8187 157.06 63.1229 158.02 62.306C158.981 61.489 159.97 60.5746 160.989 59.563C161.592 58.8098 162.573 57.8508 163.933 56.6859L164.383 56.8822L163.464 58.7062C163.722 59.1211 164.088 59.102 164.56 58.6488C164.464 58.1126 164.656 57.894 165.134 57.993C164.742 58.893 163.255 60.6339 160.672 63.2157C160.436 63.4423 160.082 63.7822 159.61 64.2354C159.211 64.5832 158.966 64.7651 158.877 64.7811C158.216 65.7289 157.76 66.2715 157.508 66.4087C157.434 66.514 157.308 66.5826 157.13 66.6145C156.877 66.7518 156.707 66.8283 156.617 66.8443C156.601 66.7549 156.541 66.6735 156.435 66.6001C156.614 66.5682 156.85 66.3416 157.144 65.9204C157.632 65.5565 157.784 65.1145 157.599 64.5943C157.567 64.4156 157.417 64.3501 157.149 64.398C157.075 64.5033 156.293 65.2884 154.803 66.7532C153.558 67.5287 152.324 68.6249 151.102 70.0419C151.013 70.0579 150.805 70.1871 150.48 70.4297C150.243 70.6563 150.044 70.8302 149.881 70.9515L149.929 71.2196C150.507 70.8398 150.84 70.6419 150.93 70.626C151.313 70.1888 151.752 70.0643 152.246 70.2526C152.23 70.1633 152.222 70.1186 152.222 70.1186L152.04 69.8744C152.203 69.7532 152.545 69.6 153.065 69.4149C153.659 69.1245 154.065 68.8213 154.286 68.5054C154.448 68.3841 154.774 68.1416 155.262 67.7778C155.824 67.3086 156.178 66.9687 156.325 66.7581C156.389 67.1156 156.266 67.4602 155.957 67.7922C155.631 68.0347 155.151 68.4432 154.515 69.0176C153.88 69.5921 153.4 70.0006 153.074 70.2431C152.838 70.4697 152.618 70.7857 152.414 71.191C152.267 71.4016 151.986 71.6362 151.571 71.8947C151.855 71.9362 152.176 71.925 152.533 71.8612L152.423 72.0192C152.098 72.2617 151.801 72.4069 151.533 72.4548L151.628 72.991C151.775 72.7803 152.093 72.4931 152.581 72.1293C153.159 71.7496 153.529 71.499 153.692 71.3778L153.74 71.6459C152.501 72.9735 151.89 73.682 151.906 73.7713C151.612 74.1926 151.311 74.5692 151.001 74.9011C150.692 75.233 150.293 75.5809 149.804 75.9447C149.389 76.2032 149.027 76.4984 148.718 76.8303C148.465 76.9675 148.169 77.1127 147.827 77.2659C147.486 77.4191 147.197 77.6089 146.96 77.8355C146.472 78.1993 146.049 78.4132 145.692 78.477L145.18 78.7067C144.927 78.8439 144.712 78.9285 144.533 78.9604C144.444 78.9764 144.094 79.0849 143.485 79.2859C142.875 79.4869 142.473 79.5587 142.278 79.5013C142.189 79.5172 141.958 79.5124 141.584 79.4869C141.211 79.4613 140.971 79.4118 140.866 79.3384C140.687 79.3703 140.44 79.2762 140.124 79.0559C139.897 78.8197 139.74 78.7096 139.65 78.7256C139.439 78.5787 138.966 78.2484 138.228 77.7345C137.58 77.2046 137.127 76.7323 136.869 76.3173C136.763 76.2439 136.302 75.7269 135.485 74.7662C135.396 74.7821 135.222 74.5826 134.964 74.1677C134.727 74.3943 134.478 74.8076 134.217 75.4076C134.044 75.9916 133.779 76.3156 133.422 76.3794C133.348 76.4847 133.238 76.6427 133.092 76.8533C133.034 77.048 132.969 77.198 132.895 77.3033C130.492 79.8532 128.757 81.5 127.691 82.2436C125.738 83.6988 123.609 84.1711 121.305 83.6603ZM120.343 79.8207C122.755 79.39 124.458 78.8555 125.451 78.2173C126.858 77.3205 128.105 76.0376 129.19 74.3684C129.777 73.5259 130.451 72.3913 131.21 70.9647C131.97 69.5381 132.599 68.4116 133.097 67.585L133.647 66.7951L133.513 66.819C132.604 66.8892 131.927 66.4567 131.484 65.5215C131.024 64.497 130.751 63.4852 130.665 62.4863C130.579 61.4873 130.573 60.9352 130.646 60.8298C128.907 61.417 127.245 62.9584 125.662 65.4542C124.063 67.8605 122.895 70.0977 122.157 72.1658C121.043 75.2233 120.438 77.7749 120.343 79.8207ZM158.695 64.5369C158.874 64.505 158.931 64.3103 158.867 63.9529C158.804 63.5954 158.935 63.2954 159.26 63.0529C159.318 62.8582 159.643 62.6156 160.237 62.3252C160.326 62.3093 160.497 62.2327 160.749 62.0955C161.001 61.9582 161.172 61.8817 161.261 61.8657L161.118 61.0614L161.558 60.4295C161.526 60.2508 161.466 60.1694 161.376 60.1853C161.229 60.396 160.757 60.8492 159.959 61.5449C158.437 62.831 157.618 63.6687 157.503 64.0581C158.087 64.2305 158.484 64.3901 158.695 64.5369Z" fill="#75589B"/>
<path d="M164.223 79.0419C163.533 78.7962 163.093 78.1371 162.901 77.0647L162.341 77.0263L161.949 77.9264C160.793 76.1039 160.262 74.6772 160.355 73.6464L160.446 67.959L160.461 63.3918C160.438 62.7503 160.45 61.7801 160.494 60.4811C160.628 59.1662 160.692 58.2326 160.686 57.6805C160.664 57.039 160.638 56.1214 160.61 54.9278C160.654 53.6288 160.666 52.6585 160.643 52.017C160.627 51.9277 160.603 51.7936 160.571 51.6149C160.613 51.3308 160.67 51.1362 160.744 51.0308C160.932 50.5362 161.294 50.241 161.831 50.1452C163.165 49.3538 164.275 49.8933 165.163 51.7636C165.801 52.7562 166.142 53.894 166.187 55.177C166.203 55.2664 166.198 55.4978 166.172 55.8712C166.131 56.1552 166.134 56.4313 166.182 56.6994C166.255 56.5941 166.402 56.3835 166.622 56.0675C166.827 55.6622 166.958 55.3622 167.015 55.1675C167.261 54.4781 167.898 53.3962 168.925 51.9218C169.58 50.4218 170.742 48.9234 172.411 47.4266C173.87 45.7831 175.588 45.3379 177.567 46.0913C178.588 46.6467 179.309 47.0712 179.731 47.3648C180.047 47.5851 180.249 47.6872 180.339 47.6713C180.833 47.8596 181.287 48.332 181.698 49.0884L181.684 49.7826C181.196 50.1464 180.323 50.1639 179.065 49.8351C177.903 50.0425 177.131 50.3648 176.748 50.802C176.675 50.9073 176.047 51.5264 174.866 52.6594C174.704 52.7807 174.455 53.1939 174.12 53.8993C173.207 54.9843 172.567 55.7902 172.2 56.3168L170.251 60.1226C168.926 63.0333 168.199 64.6386 168.068 64.9386C167.927 65.7014 167.603 66.7274 167.096 68.0168C166.662 69.2009 166.387 69.9876 166.272 70.3769C166.189 70.945 166.093 71.6998 165.985 72.6413C165.95 73.4775 165.911 74.0376 165.87 74.3217C165.844 74.6951 165.843 75.2026 165.865 75.8441C165.887 76.4856 165.878 76.9484 165.836 77.2324C165.807 78.6207 165.269 79.2239 164.223 79.0419ZM167.565 58.2506C167.658 57.2197 168.177 56.2511 169.122 55.3448C169.106 55.2554 169.134 55.1581 169.208 55.0527C169.648 54.4208 170.219 53.4889 170.922 52.257C171.697 50.9198 172.195 50.0932 172.416 49.7772C172.173 49.4517 172.023 49.3862 171.966 49.5809C171.892 49.6862 171.79 49.8889 171.659 50.1889C171.512 50.3995 171.386 50.4682 171.281 50.3947C171.223 50.5894 171.129 50.8368 170.998 51.1368C170.941 51.3315 170.875 51.4815 170.802 51.5868C170.818 51.6761 170.781 51.7288 170.692 51.7448C170.35 51.8979 170.033 52.1851 169.739 52.6064C169.43 52.9383 169.144 53.4043 168.882 54.0043C168.605 54.5149 168.356 54.9282 168.135 55.2442C167.401 56.2973 167.211 57.2995 167.565 58.2506ZM169.921 56.7236C170.294 56.7491 170.612 56.4619 170.874 55.8619C171.135 55.2619 171.311 54.9539 171.4 54.938L172.942 52.7263C171.965 53.4539 171.412 53.9677 171.281 54.2677C171.044 54.4943 170.759 54.9603 170.424 55.6656C170.162 56.2656 169.994 56.6182 169.921 56.7236Z" fill="#75589B"/>
<path d="M189.638 71.4621C189.191 71.5418 188.825 71.561 188.541 71.5195C188.12 71.2258 187.325 70.9066 186.157 70.5618C184.619 69.1766 183.942 67.4531 184.128 65.3914C184.399 64.3286 184.568 63.4685 184.635 62.811C184.709 62.7057 184.737 62.6083 184.721 62.519C184.763 62.2349 184.825 61.8089 184.908 61.2408C184.991 60.6727 185.054 60.2466 185.095 59.9625L185.746 58.1865C185.877 57.8865 186 57.5418 186.115 57.1524C186.319 56.7471 186.458 56.4918 186.531 56.3865C186.908 55.3971 187.602 54.1205 188.614 52.5567C189.61 50.9035 190.173 49.9269 190.304 49.6269C191.887 47.1312 193.817 45.5419 196.092 44.859C197.481 44.8878 198.504 44.9358 199.161 45.0028C199.819 45.0699 200.605 45.3444 201.521 45.8264C202.421 46.219 203.048 46.8909 203.403 47.842C203.725 48.6144 203.541 50.1687 202.852 52.5049C203.12 52.457 203.579 52.1905 204.231 51.7055C204.955 51.115 205.638 50.8087 206.28 50.7864C207.132 50.9109 207.78 51.4408 208.223 52.3759C208.488 53.343 208.55 54.2079 208.41 54.9707C208.336 55.076 208.308 55.1733 208.324 55.2627C208.266 55.4574 208.245 55.5994 208.261 55.6888C208.197 57.9133 208.674 59.8107 209.692 61.381C209.983 61.9747 210.473 62.3944 211.162 62.6402C211.446 62.6817 211.759 62.6259 212.1 62.4727C212.19 62.4567 212.405 62.3722 212.747 62.219C213.088 62.0658 213.34 61.9286 213.503 61.8073C214.659 61.0478 216.483 59.3851 218.975 56.8192C221.353 54.6427 223.015 53.1013 223.959 52.1949C224.594 51.6205 225.392 50.9247 226.353 50.1078C227.314 49.2908 228.303 48.3764 229.321 47.3648C229.925 46.6116 230.906 45.6526 232.266 44.4877L232.716 44.684L231.797 46.508C232.055 46.9229 232.42 46.9038 232.893 46.4506C232.797 45.9144 232.989 45.6958 233.467 45.7948C233.075 46.6948 231.587 48.4357 229.005 51.0175C228.769 51.2441 228.415 51.584 227.942 52.0372C227.543 52.385 227.299 52.5669 227.21 52.5829C226.549 53.5307 226.093 54.0733 225.841 54.2105C225.767 54.3158 225.641 54.3844 225.462 54.4163C225.21 54.5536 225.04 54.6301 224.95 54.6461C224.934 54.5567 224.874 54.4753 224.768 54.4019C224.947 54.37 225.183 54.1434 225.477 53.7222C225.965 53.3584 226.117 52.9163 225.932 52.3961C225.9 52.2174 225.75 52.1519 225.482 52.1998C225.408 52.3051 224.626 53.0902 223.136 54.555C221.891 55.3305 220.657 56.4267 219.435 57.8437C219.346 57.8597 219.138 57.9889 218.813 58.2315C218.576 58.4581 218.377 58.632 218.214 58.7533L218.262 59.0214C218.84 58.6416 219.173 58.4437 219.263 58.4278C219.646 57.9906 220.084 57.8661 220.579 58.0545C220.563 57.9651 220.555 57.9204 220.555 57.9204L220.373 57.6762C220.536 57.555 220.878 57.4018 221.398 57.2167C221.991 56.9263 222.398 56.6231 222.619 56.3072C222.781 56.1859 223.107 55.9434 223.595 55.5796C224.157 55.1104 224.511 54.7705 224.658 54.5599C224.722 54.9174 224.599 55.2621 224.289 55.594C223.964 55.8365 223.484 56.245 222.848 56.8194C222.213 57.3939 221.733 57.8024 221.407 58.0449C221.171 58.2715 220.951 58.5875 220.747 58.9928C220.6 59.2034 220.319 59.438 219.904 59.6965C220.188 59.738 220.509 59.7268 220.866 59.663L220.756 59.821C220.431 60.0635 220.134 60.2087 219.866 60.2566L219.961 60.7928C220.108 60.5822 220.426 60.2949 220.914 59.9311C221.492 59.5514 221.862 59.3008 222.025 59.1796L222.073 59.4477C220.834 60.7753 220.223 61.4838 220.239 61.5731C219.945 61.9944 219.644 62.371 219.334 62.7029C219.025 63.0348 218.626 63.3827 218.137 63.7465C217.722 64.005 217.36 64.3002 217.05 64.6321C216.798 64.7693 216.501 64.9145 216.16 65.0677C215.818 65.2209 215.53 65.4107 215.293 65.6373C214.805 66.0011 214.382 66.215 214.025 66.2788L213.512 66.5085C213.26 66.6458 213.045 66.7303 212.866 66.7622C212.777 66.7782 212.427 66.8867 211.818 67.0877C211.208 67.2887 210.806 67.3605 210.611 67.3031C210.522 67.319 210.291 67.3142 209.917 67.2887C209.544 67.2631 209.304 67.2136 209.199 67.1402C209.02 67.1721 208.773 67.078 208.457 66.8577C208.23 66.6215 208.072 66.5114 207.983 66.5274C207.772 66.3805 207.298 66.0502 206.561 65.5363C205.913 65.0065 205.46 64.5341 205.202 64.1192C205.096 64.0457 204.635 63.5287 203.818 62.568C203.729 62.5839 203.555 62.3844 203.296 61.9695C203.06 62.1961 202.811 62.6094 202.55 63.2094C202.377 63.7935 202.112 64.1174 201.755 64.1812C201.681 64.2865 201.571 64.4445 201.424 64.6551C201.367 64.8498 201.302 64.9998 201.228 65.1051C198.825 67.655 197.09 69.3018 196.024 70.0454C194.071 71.5006 191.942 71.9729 189.638 71.4621ZM188.676 67.6225C191.088 67.1918 192.791 66.6573 193.784 66.0191C195.191 65.1223 196.438 63.8394 197.523 62.1702C198.11 61.3277 198.784 60.1931 199.543 58.7665C200.303 57.3399 200.932 56.2134 201.43 55.3868L201.98 54.5969L201.846 54.6208C200.937 54.691 200.26 54.2585 199.817 53.3233C199.357 52.2988 199.084 51.2871 198.998 50.2881C198.912 49.2891 198.906 48.737 198.979 48.6317C197.24 49.2188 195.578 50.7602 193.995 53.256C192.396 55.6623 191.228 57.8995 190.49 59.9676C189.376 63.0251 188.771 65.5767 188.676 67.6225ZM227.028 52.3387C227.207 52.3068 227.264 52.1121 227.2 51.7547C227.137 51.3972 227.267 51.0972 227.593 50.8547C227.65 50.66 227.976 50.4174 228.57 50.127C228.659 50.1111 228.83 50.0345 229.082 49.8973C229.334 49.76 229.505 49.6835 229.594 49.6675L229.451 48.8632L229.891 48.2313C229.859 48.0526 229.799 47.9712 229.709 47.9871C229.562 48.1978 229.09 48.651 228.292 49.3467C226.77 50.6328 225.951 51.4705 225.836 51.8599C226.42 52.0323 226.817 52.1919 227.028 52.3387Z" fill="#75589B"/>
<path d="M102.731 137C99.3629 137 96.1479 136.426 93.086 135.279C90.0679 134.087 87.7059 132.565 86 130.711L87.5091 128.196C89.1275 129.917 91.2927 131.329 94.0046 132.432C96.7603 133.492 99.6472 134.021 102.665 134.021C107.039 134.021 110.342 133.183 112.573 131.506C114.803 129.829 115.919 127.644 115.919 124.952C115.919 122.878 115.328 121.223 114.147 119.987C112.966 118.752 111.501 117.803 109.751 117.141C108.002 116.479 105.64 115.795 102.665 115.089C99.2973 114.25 96.5853 113.434 94.5295 112.639C92.5174 111.845 90.7896 110.631 89.3462 108.999C87.9465 107.322 87.2466 105.093 87.2466 102.313C87.2466 100.062 87.8371 98.0099 89.0181 96.1563C90.1991 94.2587 91.9925 92.7582 94.3983 91.6549C96.8478 90.5516 99.8878 90 103.518 90C106.055 90 108.548 90.3751 110.998 91.1254C113.447 91.8756 115.569 92.8906 117.362 94.1704L116.116 96.8845C114.279 95.6047 112.245 94.6338 110.014 93.9718C107.827 93.3099 105.662 92.9789 103.518 92.9789C99.2754 92.9789 96.0604 93.8394 93.8734 95.5606C91.6863 97.2817 90.5928 99.5103 90.5928 102.246C90.5928 104.321 91.1833 105.976 92.3643 107.211C93.5453 108.447 95.0106 109.396 96.7603 110.058C98.5099 110.72 100.894 111.426 103.912 112.176C107.28 113.015 109.97 113.831 111.982 114.625C113.994 115.42 115.7 116.633 117.1 118.266C118.543 119.855 119.265 122.017 119.265 124.754C119.265 127.004 118.653 129.056 117.428 130.91C116.247 132.763 114.41 134.242 111.917 135.345C109.423 136.448 106.361 137 102.731 137Z" fill="#A1C236"/>
<path d="M188.962 93.3761V113.169H213.435V116.214H188.962V136.669H185.616V90.331H216.322V93.3761H188.962Z" fill="#A1C236"/>
<path d="M236.12 93.3761H219.586V90.331H256V93.3761H239.466V136.669H236.12V93.3761Z" fill="#A1C236"/>
</svg>
