<svg width="12" height="11" viewBox="0 0 12 11" fill="none" xmlns="http://www.w3.org/2000/svg">
<path d="M2.49816 10.4969C1.85758 10.4969 1.28111 10.2454 0.76865 9.74234C0.384307 9.36505 0.128115 8.92487 0 8.42181C0 8.04451 0.064005 7.73009 0.19212 7.47856C0.576463 6.84973 0.960836 5.84361 1.34518 4.46019C1.85764 3.07677 2.30602 2.13352 2.69036 1.63046C4.09962 0.24704 5.44484 -0.256023 6.72599 0.121274C7.36656 0.121274 8.32741 0.247037 9.60855 0.498568C10.3772 0.498568 11.1459 0.938753 11.9146 1.81911C12.1708 3.20253 11.8505 4.46019 10.9537 5.59208C10.0569 7.22703 9.22418 8.35892 8.45549 8.98775C6.53378 11 4.54799 11.5031 2.49816 10.4969Z" fill="#75589B"/>
</svg>
