<svg width="18" height="17" viewBox="0 0 18 17" fill="none" xmlns="http://www.w3.org/2000/svg">
<path d="M3.74723 16.2225C2.78637 16.2225 1.92166 15.8338 1.15298 15.0563C0.57646 14.4733 0.192172 13.793 0 13.0155C0 12.4324 0.0960074 11.9465 0.28818 11.5578C0.864695 10.586 1.44125 9.03104 2.01777 6.89302C2.78646 4.755 3.45902 3.29727 4.03554 2.51981C6.14943 0.38179 8.16726 -0.395672 10.089 0.187423C11.0498 0.187423 12.4911 0.381785 14.4128 0.770515C15.5659 0.770515 16.7189 1.4508 17.8719 2.81136C18.2562 4.94937 17.7758 6.89302 16.4306 8.6423C15.0854 11.169 13.8363 12.9183 12.6832 13.8902C9.80066 17 6.82198 17.7775 3.74723 16.2225Z" fill="white"/>
</svg>
