<svg width="52" height="53" viewBox="0 0 52 53" fill="none" xmlns="http://www.w3.org/2000/svg">
<path d="M16.9661 6.78931C18.0813 6.49049 19.5415 6.52322 21.3466 6.88748C23.1941 7.40996 25.4451 8.16352 28.0994 9.14816C30.5945 10.1755 32.2031 10.762 32.9251 10.9077C33.8913 11.3272 35.6219 12.0506 38.1169 13.0779C40.4527 14.1479 42.3053 15.0082 43.6749 15.6588C45.2038 16.2666 45.5693 17.9494 44.7714 20.707C44.58 21.2671 44.5318 22.0431 44.6269 23.0352C44.7644 24.1854 44.817 25.0193 44.7849 25.5366C43.5733 27.3876 41.8626 29.2875 39.6528 31.2363L27.3977 41.8971C25.8573 43.1578 23.5838 44.8693 20.5774 47.0316C17.4541 49.3948 15.1806 51.1063 13.7571 52.166L11.7817 52.441L10.7468 51.4463L11.0841 46.0139C11.4349 45.4112 12.1254 44.8022 13.1558 44.1869C14.0693 43.7726 14.5845 43.4649 14.7014 43.264C17.4959 40.3106 19.0312 38.7121 19.3074 38.4685C22.9087 35.9772 28.5021 31.6803 36.0875 25.5777C36.64 25.0904 37.0704 24.4664 37.3787 23.7054C36.9753 23.4743 36.6516 23.2219 36.4075 22.9481C36.1633 22.6744 35.9404 22.4797 35.7387 22.3642C33.0844 21.3795 30.191 20.4589 27.0587 19.6023C26.2519 19.1402 24.2187 18.2434 20.9592 16.9122C17.7421 15.7391 15.5072 14.7269 14.2545 13.8754L13.6494 13.5288L15.4841 7.94956L16.9661 6.78931Z" fill="white"/>
</svg>
