<svg width="147" height="146" viewBox="0 0 147 146" fill="none" xmlns="http://www.w3.org/2000/svg">
<path d="M144.171 53.1723L144.175 53.1112L144.164 53.0508C143.144 47.3936 140.69 42.3405 136.811 37.8986C131.671 32.0123 125.636 28.7997 118.717 28.3136C108.109 22.1139 97.3726 20.0279 86.5263 22.0908C75.6638 24.1568 64.7416 30.3741 53.7585 40.684C45.0606 47.0497 35.3626 58.8377 24.6586 75.9874C14.2322 87.7787 9.8867 101.375 11.64 116.744L11.6553 116.878L11.736 116.986C19.3135 127.14 27.2817 132.6 35.6551 133.169C49.0461 136.784 59.1824 138.829 66.0432 139.29C79.6408 144.344 94.488 139.669 110.513 125.563L110.539 125.539L110.562 125.512C115.065 120.243 120.537 110.227 126.981 95.5249L126.989 95.5061L126.996 95.4866C132.072 80.7061 136.864 70.0756 141.364 63.5572L141.375 63.5414L141.385 63.5249C142.978 60.7906 143.898 57.3314 144.171 53.1723Z" stroke="#A1C236" stroke-opacity="0.7"/>
<path d="M108.638 12.117C115.456 12.5647 121.412 15.7057 126.507 21.54C130.328 25.9157 132.74 30.8864 133.744 36.4521C133.475 40.5592 132.569 43.9371 131.025 46.5856C126.485 53.1622 121.675 63.8459 116.595 78.6367C110.152 93.338 104.705 103.292 100.255 108.5C84.2659 122.575 69.5881 127.111 56.2216 122.108C49.4035 121.66 39.2664 119.62 25.81 115.986C17.6283 115.449 9.76144 110.12 2.209 99.9997C0.470588 84.7612 4.77854 71.2946 15.1329 59.6C25.8469 42.4293 35.5195 30.6899 44.1507 24.382C66.0433 3.82038 87.5391 -0.267942 108.638 12.117Z" fill="#A1C236" fill-opacity="0.3"/>
</svg>
