<svg width="90" height="89" viewBox="0 0 90 89" fill="none" xmlns="http://www.w3.org/2000/svg">
<path d="M0.5 60.9526V61.0139L0.51477 61.0733C1.41262 64.6848 3.20959 67.8456 5.8979 70.549C9.44835 74.1193 13.4708 75.9464 17.9516 75.9781C25.0139 79.5032 31.9969 80.3895 38.8789 78.6036C45.7767 76.8135 52.5233 72.352 59.124 65.2776C64.4394 60.8139 70.1519 52.8405 76.2716 41.4173C82.4651 33.3929 84.6825 24.4574 82.9084 14.6448L82.8844 14.5121L82.7969 14.4094C77.517 8.21503 72.1548 5.00965 66.7087 4.99007C58.0203 3.24426 51.455 2.35875 47.0345 2.349C38.0457 -0.328843 28.6934 3.34271 19.0296 13.0607L19.0046 13.0858L18.9833 13.1143C16.3085 16.7007 13.224 23.3664 9.72186 33.0513L9.71488 33.0706L9.7095 33.0905C7.08599 42.7639 4.47358 49.7526 1.88344 54.0937L1.87363 54.1102L1.86511 54.1273C0.94553 55.9768 0.5 58.2596 0.5 60.9526Z" stroke="white" stroke-opacity="0.7"/>
<path d="M25.0707 85.4786C20.6935 85.4786 16.7542 83.7178 13.2524 80.1964C10.6261 77.5553 8.87545 74.4741 8 70.9526C8 68.3116 8.43737 66.1106 9.31282 64.3499C11.9392 59.9481 14.5657 52.9053 17.1921 43.2213C20.6939 33.5374 23.7578 26.9347 26.3841 23.4132C36.0141 13.7293 45.2064 10.2078 53.9609 12.8489C58.3382 12.8489 64.904 13.7293 73.6585 15.49C78.9111 15.49 84.1637 18.5713 89.4164 24.7338C91.1673 34.4177 88.9787 43.2213 82.8505 51.1445C76.7224 62.5892 71.0319 70.5124 65.7792 74.9142C52.6475 89 39.0779 92.5214 25.0707 85.4786Z" fill="white" fill-opacity="0.4"/>
</svg>
