<svg width="140" height="138" viewBox="0 0 140 138" fill="none" xmlns="http://www.w3.org/2000/svg">
<path d="M0.5 93.8742V93.9356L0.514816 93.995C1.90384 99.5732 4.683 104.455 8.84468 108.633C14.3596 114.17 20.592 116.98 27.5282 117.012C38.5191 122.503 49.3694 123.881 60.0573 121.112C70.7611 118.339 81.2524 111.419 91.5364 100.412C99.7986 93.4899 108.703 81.0919 118.261 63.2776C127.892 50.8285 131.337 36.9766 128.581 21.7558L128.557 21.6229L128.469 21.5202C120.243 11.8844 111.934 6.95846 103.541 6.93899C89.9421 4.20996 79.6936 2.83281 72.8174 2.82304C58.9178 -1.32963 44.4088 4.30819 29.3429 19.434L29.3179 19.4592L29.2966 19.4876C25.1484 25.0406 20.345 35.3935 14.8785 50.4863L14.8715 50.5057L14.8661 50.5255C10.7693 65.6069 6.68346 76.5286 2.62008 83.3278L2.61025 83.3443L2.60171 83.3614C1.19092 86.1942 0.5 89.7063 0.5 93.8742Z" stroke="#75589B" stroke-opacity="0.7"/>
<path d="M38.647 132.512C31.8142 132.512 25.6652 129.768 20.1989 124.28C16.0993 120.164 13.3666 115.362 12 109.874C12 105.758 12.6827 102.328 14.0493 99.5843C18.1489 92.7244 22.2489 81.7485 26.3486 66.6566C31.8148 51.5647 36.5975 41.2748 40.6972 35.7869C55.7293 20.695 70.0783 15.207 83.7439 19.323C90.5766 19.323 100.826 20.6949 114.491 23.4389C122.691 23.4389 130.89 28.2409 139.089 37.8449C141.822 52.9367 138.406 66.6566 128.84 79.0045C119.274 96.8403 110.391 109.188 102.192 116.048C81.6936 138 60.5119 143.488 38.647 132.512Z" fill="#75589B" fill-opacity="0.3"/>
</svg>
