<svg width="169" height="164" viewBox="0 0 169 164" fill="none" xmlns="http://www.w3.org/2000/svg">
<path d="M79.1196 8.88406L79.0605 8.868L78.9992 8.86672C73.2519 8.74638 67.8129 10.1501 62.6906 13.0723C55.9027 16.9447 51.5583 22.2235 49.7112 28.9094C41.533 38.0785 37.3615 48.1893 37.2349 59.2293C37.1081 70.2858 41.0386 82.2231 48.9685 95.0309C53.485 104.817 63.1183 116.658 77.8078 130.548C87.3 143.103 99.7661 150.056 115.178 151.382L115.312 151.393L115.434 151.336C126.888 145.92 133.818 139.191 136.035 131.096C142.23 118.687 146.243 109.157 148.054 102.523C155.701 90.196 154.06 74.717 143.408 56.2156L143.39 56.1848L143.368 56.1568C139.096 50.6991 130.362 43.3521 117.228 34.1236L117.211 34.1118L117.193 34.1014C103.711 26.1979 94.2405 19.3944 88.7427 13.6922L88.7294 13.6784L88.7151 13.6656C86.3507 11.5622 83.1421 9.97562 79.1196 8.88406Z" stroke="#75589B" stroke-opacity="0.7"/>
<path d="M31.8401 35.5807C33.6295 28.9864 37.8881 23.7706 44.6161 19.9324C49.6621 17.0537 55.0121 15.674 60.6664 15.7924C64.6387 16.8703 67.7702 18.4275 70.0605 20.465C75.6074 26.2181 85.1264 33.0495 98.6178 40.9585C111.751 50.1864 120.43 57.497 124.652 62.8908C135.281 81.3507 136.819 96.6362 129.268 108.747C127.479 115.341 123.47 124.873 117.243 137.343C115.096 145.256 108.314 151.912 96.8982 157.31C81.6173 155.995 69.271 149.105 59.8593 136.639C45.1512 122.736 35.5606 110.929 31.0874 101.219C15.2701 75.6876 15.521 53.8079 31.8401 35.5807Z" fill="#75589B" fill-opacity="0.3"/>
</svg>
