<svg width="179" height="188" viewBox="0 0 179 188" fill="none" xmlns="http://www.w3.org/2000/svg">
<path d="M28.8394 96.0763C25.4891 90.1213 24.8656 83.4167 26.9685 75.9618C28.5456 70.3706 31.3908 65.6345 35.5037 61.7526C39.091 59.7345 42.4151 58.6477 45.4767 58.4933C53.4655 58.7028 65.0418 56.8944 80.2052 53.0677C96.0386 50.4319 107.352 49.5549 114.145 50.4371C134.669 56.1385 146.487 65.9534 149.6 79.8817C152.951 85.8368 156.78 95.442 161.089 108.698C165.109 115.844 164.944 125.344 160.594 137.199C148.781 146.981 135.149 150.73 119.697 148.448C99.4616 148.856 84.3445 147.169 74.3455 143.386C45.1629 136.284 29.9941 120.514 28.8394 96.0763Z" fill="#B2D621" fill-opacity="0.3"/>
<path d="M26.2674 46.6078L26.2139 46.6379L26.1693 46.68C21.9888 50.6257 19.097 55.4413 17.496 61.1171C15.3745 68.6384 15.981 75.4481 19.3544 81.5089C19.9574 93.7804 24.0765 103.913 31.7304 111.87C39.3957 119.839 50.5705 125.59 65.2062 129.156C75.2901 132.962 90.4617 134.644 110.674 134.239C126.246 136.53 140.008 132.741 151.922 122.875L152.026 122.789L152.073 122.662C156.437 110.768 156.656 101.111 152.558 93.787C148.269 80.5967 144.444 70.9894 141.081 64.9917C137.885 50.8414 125.857 40.9606 105.287 35.2464L105.253 35.2369L105.218 35.2323C98.3445 34.3397 86.9663 35.2296 71.1318 37.8655L71.1115 37.8689L71.0916 37.8739C55.9388 41.698 44.4167 43.4921 36.4986 43.2845L36.4794 43.284L36.4603 43.285C33.2996 43.4444 29.8999 44.5642 26.2674 46.6078Z" stroke="#A1C236" stroke-opacity="0.3"/>
</svg>
