<svg width="42" height="43" viewBox="0 0 42 43" fill="none" xmlns="http://www.w3.org/2000/svg">
<path d="M24.4345 43C23.28 43 21.878 42.5905 20.2287 41.7714C18.5794 40.7886 16.6001 39.4781 14.2911 37.84C12.1469 36.2019 10.745 35.219 10.0852 34.8914C9.26057 34.2362 7.77616 33.0895 5.63202 31.4514C3.65281 29.8133 2.08593 28.5029 0.931393 27.52C-0.38808 26.5371 -0.305614 24.8171 1.17879 22.36C1.50866 21.8686 1.75606 21.1314 1.921 20.1486C2.08593 19.0019 2.25087 18.1829 2.4158 17.6914C4.06514 16.2171 6.20929 14.8248 8.84823 13.5143L23.4449 6.38858C25.2592 5.56953 27.8981 4.50477 31.3617 3.1943C34.9903 1.72001 37.6292 0.655239 39.2786 0L41.2578 0.245716L42 1.4743L40.2682 6.63429C39.7734 7.12572 38.9487 7.53524 37.7942 7.86286C36.8046 8.02667 36.2273 8.19048 36.0624 8.35429C32.5988 10.4838 30.702 11.6305 30.3721 11.7943C26.2488 13.2686 19.7339 15.9714 10.8274 19.9029C10.1677 20.2305 9.59043 20.7219 9.09563 21.3771C9.4255 21.7048 9.6729 22.0324 9.83784 22.36C10.0028 22.6876 10.1677 22.9333 10.3326 23.0971C12.6417 24.7352 15.1982 26.3733 18.0021 28.0114C18.6618 28.6667 20.3936 30.0591 23.1975 32.1886C26.0014 34.1543 27.8981 35.7105 28.8877 36.8571L29.3825 37.3486L26.1663 42.2629L24.4345 43Z" fill="white"/>
</svg>
