<svg xmlns="http://www.w3.org/2000/svg" width="24" height="20" viewBox="0 0 24 20"><g><g><g><path fill="#fff" d="M18.181 18.182c0 .502.178.93.533 1.285.355.355.784.533 1.286.533s.93-.178 1.285-.533a1.75 1.75 0 0 0 .533-1.285c0-.502-.177-.93-.533-1.286A1.752 1.752 0 0 0 20 16.364c-.502 0-.93.177-1.286.532a1.753 1.753 0 0 0-.533 1.286z"/></g><g><path fill="#fff" d="M23.366 2.088a.874.874 0 0 0-.64-.27H5.669c-.01-.066-.031-.187-.064-.362a63.86 63.86 0 0 1-.079-.42A2.505 2.505 0 0 0 5.42.662a1.132 1.132 0 0 0-.185-.348A.906.906 0 0 0 4.546 0H.909C.663 0 .45.09.27.27A.874.874 0 0 0 0 .91c0 .245.09.458.27.638.18.18.393.27.64.27h2.897l2.514 11.69c-.02.038-.116.218-.291.54-.176.322-.315.604-.42.845-.104.242-.156.429-.156.561 0 .247.09.46.27.64.18.18.393.27.64.27h14.544c.246 0 .46-.09.64-.27.18-.18.27-.393.27-.64 0-.246-.09-.459-.27-.639a.874.874 0 0 0-.64-.27H7.841c.227-.454.34-.757.34-.909 0-.095-.011-.199-.035-.312-.024-.114-.052-.24-.085-.377a3.57 3.57 0 0 1-.064-.305l14.83-1.733a.882.882 0 0 0 .582-.305.895.895 0 0 0 .227-.604V2.727c0-.246-.09-.459-.27-.64z"/></g><g><path fill="#fff" d="M5.454 18.182c0 .502.178.93.533 1.285.355.355.783.533 1.286.533.501 0 .93-.178 1.285-.533a1.75 1.75 0 0 0 .533-1.285c0-.502-.178-.93-.533-1.286a1.752 1.752 0 0 0-1.285-.532c-.502 0-.931.177-1.286.532a1.752 1.752 0 0 0-.533 1.286z"/></g><g><path d="M6.363 3.35l1.665 7.555 13.79-1.5V3.349z"/></g></g></g></svg>