<svg width="46" height="55" viewBox="0 0 46 55" fill="none" xmlns="http://www.w3.org/2000/svg">
<path d="M42.7624 0.994385H3.68905C2.16396 0.994385 0.923584 2.17152 0.923584 3.61683V52.3688C0.923584 53.8141 2.16396 54.9912 3.68905 54.9912H42.7624C44.2875 54.9912 45.5278 53.8141 45.5278 52.3688V3.61683C45.5278 2.17152 44.2875 0.994385 42.7624 0.994385ZM43.6298 52.3688C43.6298 52.8223 43.2407 53.1913 42.7624 53.1913H3.68905C3.21074 53.1913 2.82164 52.8223 2.82164 52.3688V3.61683C2.82164 3.16326 3.21074 2.79428 3.68905 2.79428H42.7624C43.2407 2.79428 43.6298 3.16326 43.6298 3.61683V52.3688Z" fill="#4285F4"/>
<path d="M5.6687 50.4915H16.108V40.592H5.6687V50.4915ZM7.56675 42.3919H14.2099V48.6916H7.56675V42.3919Z" fill="#4285F4"/>
<path d="M18.0061 50.4915H28.4454V40.592H18.0061V50.4915ZM19.9042 42.3919H26.5473V48.6916H19.9042V42.3919Z" fill="#4285F4"/>
<path d="M30.3434 50.4915H40.7827V28.8926H30.3434V50.4915ZM32.2414 30.6925H38.8846V48.6915H32.2414V30.6925Z" fill="#4285F4"/>
<path d="M5.6687 38.7922H16.108V28.8926H5.6687V38.7922ZM7.56675 30.6925H14.2099V36.9923H7.56675V30.6925Z" fill="#4285F4"/>
<path d="M18.0061 38.7922H28.4454V28.8926H18.0061V38.7922ZM19.9042 30.6925H26.5473V36.9923H19.9042V30.6925Z" fill="#4285F4"/>
<path d="M5.6687 27.0928H16.108V17.1934H5.6687V27.0928ZM7.56675 18.9933H14.2099V25.2929H7.56675V18.9933Z" fill="#4285F4"/>
<path d="M18.0061 27.0928H28.4454V17.1934H18.0061V27.0928ZM19.9042 18.9933H26.5473V25.2929H19.9042V18.9933Z" fill="#4285F4"/>
<path d="M30.3434 27.0928H40.7827V17.1934H30.3434V27.0928ZM32.2414 18.9933H38.8846V25.2929H32.2414V18.9933Z" fill="#4285F4"/>
<path d="M5.6687 14.4937H40.7827V5.49414H5.6687V14.4937ZM7.56675 7.29404H38.8846V12.6937H7.56675V7.29404Z" fill="#4285F4"/>
</svg>
