<svg width="17" height="17" viewBox="0 0 17 17" fill="none" xmlns="http://www.w3.org/2000/svg">
<path d="M0.293213 15.2926C-0.0974873 15.6829 -0.0977733 16.3161 0.292575 16.7068C0.682923 17.0975 1.31609 17.0978 1.70679 16.7074L0.293213 15.2926ZM8.50678 8.5L9.21357 9.20743C9.4013 9.01986 9.50678 8.76537 9.50678 8.5C9.50678 8.23463 9.4013 7.98014 9.21357 7.79257L8.50678 8.5ZM1.70679 0.292574C1.31609 -0.0977739 0.682922 -0.0974879 0.292574 0.293213C-0.0977739 0.683913 -0.0974879 1.31708 0.293213 1.70743L1.70679 0.292574ZM14.9696 16.7074C15.3603 17.0978 15.9935 17.0975 16.3839 16.7068C16.7742 16.3161 16.7739 15.6829 16.3832 15.2926L14.9696 16.7074ZM8.16965 8.5L7.46286 7.79257C7.27513 7.98014 7.16965 8.23463 7.16965 8.5C7.16965 8.76537 7.27513 9.01986 7.46286 9.20743L8.16965 8.5ZM16.3832 1.70743C16.7739 1.31708 16.7742 0.683913 16.3839 0.293213C15.9935 -0.0974879 15.3603 -0.0977739 14.9696 0.292574L16.3832 1.70743ZM1.70679 16.7074L9.21357 9.20743L7.79999 7.79257L0.293213 15.2926L1.70679 16.7074ZM9.21357 7.79257L1.70679 0.292574L0.293213 1.70743L7.79999 9.20743L9.21357 7.79257ZM16.3832 15.2926L8.87644 7.79257L7.46286 9.20743L14.9696 16.7074L16.3832 15.2926ZM8.87644 9.20743L16.3832 1.70743L14.9696 0.292574L7.46286 7.79257L8.87644 9.20743Z" fill="white"/>
</svg>
