<svg width="39" height="37" viewBox="0 0 39 37" fill="none" xmlns="http://www.w3.org/2000/svg">
<rect x="0.70221" y="0.70221" width="36.6319" height="35.5208" rx="6.90507" stroke="#E5E5E5" stroke-width="1.40442"/>
<path d="M12.6796 21.2624C14.7575 23.7741 17.2587 25.7516 20.1135 27.1509C21.2004 27.6718 22.654 28.2898 24.2735 28.3957C24.3739 28.4002 24.47 28.4046 24.5704 28.4046C25.6573 28.4046 26.5303 28.0249 27.2418 27.2436C27.2462 27.2392 27.2549 27.2304 27.2593 27.2216C27.5125 26.9126 27.8006 26.6345 28.1018 26.3387C28.3069 26.1401 28.5165 25.9326 28.7173 25.7207C29.6471 24.7408 29.647 23.496 28.7085 22.5469L26.0851 19.894C25.6398 19.4261 25.1073 19.1789 24.5485 19.1789C23.9898 19.1789 23.4529 19.4261 22.9945 19.8895L21.4318 21.4698C21.2877 21.386 21.1393 21.3109 20.9996 21.2403C20.825 21.152 20.6635 21.0681 20.5195 20.9754C19.0964 20.0617 17.8043 18.8699 16.569 17.3381C15.9448 16.5392 15.5257 15.8682 15.2333 15.184C15.6436 14.8088 16.0277 14.4159 16.3988 14.0319C16.5297 13.895 16.665 13.7582 16.8004 13.6214C17.2718 13.1446 17.525 12.5928 17.525 12.0322C17.525 11.4716 17.2762 10.9199 16.8004 10.4431L15.4995 9.12769C15.3467 8.97319 15.2027 8.82311 15.0543 8.66861C14.7662 8.36844 14.465 8.05945 14.1682 7.78135C13.7185 7.33552 13.1904 7.10156 12.6316 7.10156C12.0772 7.10156 11.5447 7.33552 11.0776 7.78577L9.44504 9.43668C8.85138 10.037 8.51526 10.7654 8.44541 11.6085C8.36248 12.6635 8.55454 13.7847 9.05217 15.1399C9.81608 17.2366 10.9685 19.1833 12.6796 21.2624ZM9.51052 11.7012C9.5629 11.1141 9.78552 10.6241 10.2046 10.2003L11.8284 8.55825C12.0816 8.31106 12.361 8.18305 12.6316 8.18305C12.8979 8.18305 13.1685 8.31106 13.4173 8.56708C13.7098 8.84076 13.9848 9.12769 14.2816 9.43227C14.4301 9.58677 14.5828 9.74126 14.7356 9.90018L16.0364 11.2156C16.3071 11.4893 16.4468 11.7674 16.4468 12.0411C16.4468 12.3148 16.3071 12.5928 16.0364 12.8665C15.9011 13.0034 15.7658 13.1446 15.6305 13.2815C15.2245 13.6964 14.8448 14.0893 14.4257 14.4645C14.417 14.4733 14.4126 14.4777 14.4039 14.4865C14.0416 14.8529 14.0983 15.2016 14.1856 15.4665C14.19 15.4797 14.1943 15.4886 14.1987 15.5018C14.5348 16.3184 15.0019 17.0953 15.7309 18.0223C17.0404 19.6556 18.4198 20.9225 19.9389 21.898C20.1266 22.0216 20.3274 22.1187 20.5151 22.2158C20.6897 22.3041 20.8512 22.388 20.9953 22.4807C21.0127 22.4895 21.0258 22.4983 21.0433 22.5072C21.1873 22.5822 21.327 22.6175 21.4667 22.6175C21.8159 22.6175 22.0429 22.3924 22.1171 22.3174L23.7497 20.6664C24.0029 20.4104 24.2779 20.2736 24.5485 20.2736C24.8803 20.2736 25.1509 20.4811 25.3212 20.6664L27.9534 23.3238C28.4772 23.8535 28.4728 24.4274 27.9403 24.988C27.7569 25.1866 27.5649 25.3764 27.3597 25.5751C27.0541 25.8752 26.7355 26.1842 26.4474 26.5329C25.9454 27.0803 25.3474 27.3363 24.5747 27.3363C24.5005 27.3363 24.4219 27.3319 24.3477 27.3275C22.916 27.2348 21.5846 26.6698 20.585 26.1886C17.8698 24.86 15.4864 22.9751 13.509 20.5826C11.8808 18.6006 10.7851 16.7555 10.0605 14.7779C9.61091 13.564 9.44067 12.5884 9.51052 11.7012Z" fill="#E5E5E5"/>
</svg>
