<svg width="39" height="37" viewBox="0 0 39 37" fill="none" xmlns="http://www.w3.org/2000/svg">
<rect x="1.66608" y="0.70221" width="36.6319" height="35.5208" rx="6.90507" stroke="#E5E5E5" stroke-width="1.40442"/>
<path d="M19.6447 11.77C18.1601 11.77 16.9517 12.992 16.9517 14.4933C16.9517 15.9947 18.1601 17.2167 19.6447 17.2167C21.1294 17.2167 22.3378 15.9947 22.3378 14.4933C22.3378 12.992 21.1294 11.77 19.6447 11.77ZM19.6447 16.4386C18.5841 16.4386 17.7211 15.566 17.7211 14.4933C17.7211 13.4207 18.5841 12.5481 19.6447 12.5481C20.7054 12.5481 21.5684 13.4207 21.5684 14.4933C21.5684 15.566 20.7054 16.4386 19.6447 16.4386Z" fill="#E5E5E5"/>
<path d="M24.7941 9.28684C23.4006 7.87771 21.5478 7.10156 19.5772 7.10156C17.6063 7.10156 15.7539 7.87771 14.3604 9.28684C11.7816 11.8942 11.4611 16.8001 13.6663 19.7724L19.5772 28.4046L25.4793 19.7845C27.6934 16.8001 27.3729 11.8942 24.7941 9.28684ZM24.8553 19.3297L19.5772 27.0375L14.2908 19.3176C12.2906 16.6207 12.5772 12.1903 14.9048 9.83695C16.1528 8.57488 17.8121 7.87966 19.5772 7.87966C21.3424 7.87966 23.0017 8.57488 24.2501 9.83695C26.5777 12.1903 26.8643 16.6207 24.8553 19.3297Z" fill="#E5E5E5"/>
</svg>
