<svg width="25" height="25" viewBox="0 0 25 25" fill="none" xmlns="http://www.w3.org/2000/svg">
<path d="M24.863 0.150931C24.7201 -0.000312149 24.4998 -0.042462 24.3134 0.0453089L0.282047 11.3415C0.088866 11.4327 -0.0239438 11.6415 0.00413757 11.8577C0.032219 12.0739 0.194413 12.2455 0.404056 12.2812L11.183 14.1313L12.4152 24.5636C12.4413 24.7808 12.6035 24.9559 12.8141 24.9926C12.8417 24.9975 12.8688 25 12.8959 25C13.0775 25 13.2474 24.8954 13.3297 24.7243L24.9496 0.716235C25.0407 0.528296 25.0058 0.301679 24.863 0.150931ZM13.1816 22.7968L12.1009 13.6443C12.0748 13.4261 11.9116 13.2511 11.7 13.2149L2.11751 11.5696L23.4744 1.53097L13.1816 22.7968Z" fill="#1F1F1F"/>
</svg>
