<svg width="28" height="27" viewBox="0 0 28 27" fill="none" xmlns="http://www.w3.org/2000/svg">
<rect x="0.5" y="0.533707" width="26.0833" height="25.2921" rx="4.91667" stroke="#AAAAAA"/>
<path d="M9.0282 15.1729C10.5077 16.9613 12.2887 18.3694 14.3214 19.3658C15.0953 19.7367 16.1304 20.1767 17.2835 20.2521C17.355 20.2553 17.4234 20.2584 17.4948 20.2584C18.2688 20.2584 18.8904 19.9881 19.397 19.4318C19.4002 19.4287 19.4064 19.4224 19.4095 19.4161C19.5897 19.1961 19.7949 18.998 20.0094 18.7875C20.1554 18.646 20.3046 18.4983 20.4476 18.3474C21.1096 17.6497 21.1096 16.7633 20.4414 16.0875L18.5734 14.1986C18.2563 13.8654 17.8772 13.6894 17.4793 13.6894C17.0815 13.6894 16.6992 13.8654 16.3728 14.1954L15.2601 15.3206C15.1575 15.2609 15.0518 15.2075 14.9524 15.1572C14.828 15.0943 14.713 15.0346 14.6105 14.9686C13.5972 14.318 12.6772 13.4694 11.7976 12.3787C11.3531 11.8098 11.0547 11.3321 10.8465 10.8449C11.1386 10.5777 11.4122 10.298 11.6764 10.0245C11.7696 9.9271 11.866 9.82966 11.9623 9.73223C12.298 9.39278 12.4783 8.99989 12.4783 8.60072C12.4783 8.20155 12.3011 7.80866 11.9623 7.46921L11.0361 6.53257C10.9273 6.42256 10.8247 6.31569 10.719 6.20569C10.5139 5.99196 10.2994 5.77194 10.0881 5.57392C9.76795 5.25647 9.39186 5.08989 8.99401 5.08989C8.59928 5.08989 8.22008 5.25647 7.88751 5.57707L6.72505 6.75258C6.30234 7.18004 6.06301 7.69865 6.01328 8.29898C5.95423 9.05018 6.09099 9.84852 6.44532 10.8135C6.98925 12.3064 7.8098 13.6925 9.0282 15.1729ZM6.77168 8.36499C6.80897 7.94696 6.96749 7.59807 7.26587 7.29634L8.42211 6.12711C8.60239 5.9511 8.80131 5.85995 8.99401 5.85995C9.18361 5.85995 9.37632 5.9511 9.55348 6.13339C9.76173 6.32827 9.95755 6.53257 10.1689 6.74944C10.2746 6.85945 10.3834 6.96946 10.4921 7.08261L11.4184 8.01925C11.6111 8.21412 11.7106 8.41213 11.7106 8.607C11.7106 8.80187 11.6111 8.99989 11.4184 9.19476C11.322 9.2922 11.2257 9.39278 11.1293 9.49021C10.8403 9.78566 10.5699 10.0654 10.2715 10.3326C10.2653 10.3388 10.2621 10.342 10.2559 10.3483C9.99795 10.6091 10.0384 10.8575 10.1005 11.046C10.1036 11.0555 10.1067 11.0618 10.1098 11.0712C10.3492 11.6527 10.6817 12.2058 11.2008 12.8659C12.1333 14.0288 13.1154 14.9309 14.1971 15.6255C14.3307 15.7135 14.4737 15.7827 14.6074 15.8518C14.7317 15.9147 14.8467 15.9744 14.9493 16.0404C14.9617 16.0467 14.971 16.053 14.9834 16.0593C15.086 16.1127 15.1855 16.1378 15.2849 16.1378C15.5336 16.1378 15.6952 15.9775 15.7481 15.9241L16.9105 14.7486C17.0908 14.5663 17.2866 14.4689 17.4793 14.4689C17.7155 14.4689 17.9082 14.6166 18.0295 14.7486L19.9037 16.6407C20.2767 17.0179 20.2735 17.4265 19.8943 17.8257C19.7638 17.9671 19.627 18.1023 19.481 18.2437C19.2634 18.4574 19.0365 18.6775 18.8314 18.9258C18.4739 19.3155 18.0481 19.4978 17.498 19.4978C17.4451 19.4978 17.3892 19.4947 17.3363 19.4915C16.3169 19.4255 15.3689 19.0232 14.6571 18.6806C12.7238 17.7345 11.0268 16.3924 9.61876 14.6889C8.45941 13.2776 7.67926 11.9638 7.16331 10.5557C6.84316 9.69137 6.72195 8.99675 6.77168 8.36499Z" fill="#AAAAAA"/>
</svg>
