<svg width="148" height="130" viewBox="0 0 148 130" fill="none" xmlns="http://www.w3.org/2000/svg">
<path d="M43.1494 44.9343C43.1494 39.6534 43.168 34.3538 43.1494 29.0729C43.1307 21.4968 43.0561 13.9207 43.0374 6.32588C43.0374 3.45218 44.5116 1.26891 47.0867 0.42919C47.9451 0.149283 48.8968 0.0186608 49.8111 0.0186608C62.5189 4.2752e-07 75.2266 0 87.9344 0C88.5875 0 89.2406 0.0373216 89.8937 0.149284C92.8794 0.671776 94.876 2.85504 94.9693 5.89669C95.0626 9.27423 95.0253 12.6518 95.0067 16.048C95.0067 17.1676 94.5775 17.6528 93.7751 17.6154C92.9913 17.5968 92.5808 17.0929 92.5808 15.992C92.5621 12.8757 92.5808 9.77806 92.5808 6.66177C92.5621 3.91869 91.1999 2.5005 88.4755 2.5005C75.5998 2.48184 62.7241 2.48184 49.8485 2.48184C46.7322 2.51916 45.4259 3.86271 45.4259 7.01632C45.4259 14.8724 45.4259 22.7284 45.4259 30.5844C45.4259 48.0879 45.4633 65.5914 45.3886 83.0948C45.37 85.6513 46.8628 87.6293 49.9044 87.6106C62.7241 87.536 75.5438 87.536 88.3636 87.6106C90.8641 87.6293 92.6368 85.7073 92.6181 83.3187C92.5248 71.6 92.5808 59.8626 92.5808 48.1439C92.5808 47.7147 92.5435 47.2668 92.6181 46.8376C92.7114 46.1659 93.1033 45.7367 93.8124 45.7367C94.5402 45.7367 94.8947 46.1659 94.9693 46.8376C95.0067 47.1549 95.0067 47.4908 95.0067 47.808C95.0067 59.6947 95.0067 71.5813 95.0067 83.4867C95.0067 87.424 92.5062 89.9619 88.5875 89.9619C75.5439 89.9619 62.5189 89.9059 49.4753 89.9992C45.9298 90.0552 42.9814 87.2374 43.0001 83.5613C43.0934 70.6856 43.0374 57.81 43.0374 44.9343C43.0747 44.9343 43.1121 44.9343 43.1494 44.9343Z" fill="#1F1F1F"/>
<path d="M112.995 49.8045C109.562 45.5499 106.222 41.3887 102.788 37.1154C101.725 37.9552 100.754 38.7016 99.6906 39.5599C100.082 40.1011 100.418 40.5863 100.773 41.0528C103.908 44.9715 107.061 48.8715 110.178 52.7902C110.532 53.238 110.887 53.8352 110.887 54.3577C110.868 56.7462 111.932 58.6495 113.369 60.4223C115.925 63.5572 118.444 66.6922 120.982 69.8271C121.262 70.163 121.654 70.5176 121.673 70.9094C121.71 71.376 121.579 72.0104 121.281 72.3463C120.87 72.8128 120.254 72.6449 119.825 72.2343C119.508 71.9358 119.228 71.5999 118.967 71.2453C116.336 67.9798 113.723 64.6955 111.073 61.43C109.637 59.6385 108.704 57.6792 108.517 55.3467C108.48 54.8055 108.181 54.1897 107.827 53.7605C103.815 48.7222 99.7652 43.7212 95.7532 38.7016C95.2307 38.0485 94.615 37.7499 93.8126 37.6752C90.659 37.358 87.6173 39.5599 87.4494 42.8815C87.3374 45.2327 86.2738 46.5576 84.5383 47.7519C83.4187 48.5169 82.411 49.4686 81.3287 50.2897C80.2278 51.1294 79.8173 51.1481 78.9775 50.1217C76.6077 47.2667 74.2751 44.393 71.9612 41.482C71.3081 40.6423 71.3641 40.0638 72.2038 39.3733C73.9952 37.8618 75.8053 36.3504 77.69 34.9695C78.455 34.4097 79.4627 34.1298 80.3584 33.7752C82.5603 32.9168 84.3517 31.6293 85.4154 29.4087C85.7886 28.6063 86.4977 27.8972 87.1881 27.3187C90.4723 24.613 93.7193 21.8699 97.1155 19.3321C101.631 15.9545 106.688 15.6746 111.876 17.466C113.275 17.9512 114.507 18.9402 115.813 19.7239C116.037 19.8545 116.205 20.0971 116.392 20.3024C116.84 20.8062 117.25 21.3474 116.802 22.0565C116.373 22.7283 115.739 22.7096 115.067 22.4857C112.828 21.6833 110.57 21.8139 108.293 22.3364C106.296 22.8029 104.505 23.6799 103.031 25.1541C100.904 27.2814 100.68 30.6962 102.564 33.0475C106.595 38.0671 110.607 43.0868 114.675 48.0691C115.085 48.5729 115.739 49.0021 116.354 49.226C118.258 49.8978 119.881 50.9428 121.15 52.5103C123.968 55.9811 126.767 59.4706 129.585 62.9414C129.827 63.24 130.051 63.5572 130.256 63.8745C130.667 64.4903 130.48 65.0314 129.939 65.4606C129.435 65.8525 128.894 65.7592 128.446 65.3673C128.166 65.1247 127.961 64.7888 127.719 64.4903C125.05 61.1874 122.382 57.8845 119.713 54.5629C118.78 53.3873 117.661 52.4729 116.298 51.8385C115.533 51.484 114.862 51.372 114.246 52.0997C114.078 52.305 113.817 52.4356 113.593 52.5849C112.977 52.9954 112.361 53.0514 111.857 52.417C111.391 51.8572 111.54 51.2973 111.988 50.7935C112.268 50.4576 112.566 50.215 112.995 49.8045ZM84.9115 41.6686C85.1355 41.3327 85.2474 41.2207 85.2848 41.0714C86.5163 37.0035 90.547 34.5403 95.0815 35.3987C95.38 35.4547 95.7719 35.4547 95.9958 35.2867C97.1528 34.4097 98.2724 33.4766 99.2614 32.6743C99.1308 31.2001 98.8509 29.9498 98.9255 28.7369C99.1681 25.0421 101.333 22.6163 104.561 21.1235C106.24 20.3397 108.069 19.9105 109.916 19.2947C105.625 18.4177 101.65 18.6976 98.1418 21.59C95.1001 24.0718 92.0212 26.4977 88.9795 28.9982C88.4384 29.446 87.8785 29.9685 87.5986 30.5656C86.1991 33.57 83.68 35.1934 80.7503 36.2571C78.2498 37.1714 76.589 39.1121 74.499 40.6796C76.5144 43.1614 78.4177 45.494 80.3771 47.9198C81.7579 46.8002 82.9709 45.8298 84.2584 44.8035C83.2321 43.5346 82.3551 42.4337 81.478 41.314C80.9369 40.6236 80.3584 39.9705 79.8546 39.2614C79.4627 38.7016 79.5373 38.0858 80.0785 37.6566C80.6196 37.2087 81.2168 37.2834 81.7206 37.7499C82.0005 38.0111 82.2058 38.3284 82.4484 38.6269C83.2134 39.5973 84.0158 40.5676 84.9115 41.6686ZM100.922 34.9881C99.1121 35.7719 98.1978 36.6303 97.9925 37.6193C99.1494 36.8355 100.213 36.1264 100.922 34.9881Z" fill="#1F1F1F"/>
<path d="M64.2541 38.3288C63.5824 36.5001 62.9479 34.7647 62.2948 33.0293C61.567 31.0886 60.8206 29.1665 60.0929 27.2259C59.9436 26.8153 59.7756 26.4048 59.757 25.9756C59.7196 25.1732 60.3728 24.6321 61.1565 24.8187C61.567 24.912 61.9589 25.1546 62.3321 25.3785C65.3924 27.1699 68.4341 28.9613 71.4944 30.7713C71.7743 30.9393 72.0728 31.1072 72.2968 31.3312C72.7446 31.779 72.8193 32.3761 72.4087 32.7867C72.1102 33.0852 71.569 33.2532 71.1398 33.2345C70.7479 33.2159 70.3561 32.8986 69.9829 32.6747C67.9116 31.4804 65.8403 30.2675 63.5264 28.9053C63.6943 29.5398 63.7503 29.9316 63.8809 30.2862C64.8139 32.7867 65.7843 35.2685 66.7173 37.769C67.3331 39.4111 67.2211 39.6724 65.6537 40.4188C62.4067 41.9676 59.1412 43.4791 55.8943 45.0279C55.6144 45.1585 55.3531 45.3451 54.8306 45.6437C56.9766 46.1289 58.8799 46.5767 60.7646 47.0059C62.5187 47.3978 64.2728 47.771 66.0269 48.1815C67.7809 48.592 67.9489 48.9093 67.4264 50.7007C66.512 53.7796 65.579 56.8586 64.646 59.9376C64.5714 60.1802 64.534 60.4227 64.4221 61.0012C66.0082 59.9002 67.3331 58.9859 68.658 58.0715C69.647 57.3811 70.6173 56.672 71.6063 56.0189C72.9126 55.1605 73.3604 55.2725 74.2561 56.616C75.7303 58.8366 77.1858 61.0759 78.6413 63.3151C78.7906 63.5204 78.9585 63.707 79.3317 64.1735C79.4997 62.6247 79.649 61.3744 79.7796 60.1055C79.8916 59.1352 79.9662 58.1462 80.0782 57.1758C80.1528 56.4108 80.6006 55.9442 81.3657 56.0002C82.1495 56.0562 82.504 56.6347 82.448 57.3624C82.3361 59.0419 82.1868 60.7213 82.0188 62.4194C81.8509 64.1548 81.6456 65.8902 81.4963 67.6257C81.4404 68.3348 81.2724 68.9319 80.5073 69.1372C79.7049 69.3611 79.3317 68.7826 78.9585 68.2228C76.9805 65.2185 75.0025 62.2141 73.0245 59.2098C72.8752 58.9859 72.7073 58.7806 72.446 58.4261C71.3824 59.1538 70.3561 59.8443 69.3484 60.5534C67.3331 61.9529 65.3364 63.3711 63.3211 64.7706C62.7426 65.1625 62.1642 65.6663 61.3991 65.1065C60.6527 64.5654 60.8953 63.8749 61.1005 63.1845C62.2388 59.4337 63.3584 55.6643 64.478 51.9136C64.6087 51.5031 64.6833 51.0739 64.8513 50.4581C63.3211 50.0849 61.8656 49.7303 60.4101 49.3944C57.3871 48.7227 54.3454 48.0509 51.3225 47.3791C51.0612 47.3231 50.7253 47.3231 50.5387 47.1552C50.2028 46.8566 49.7177 46.5021 49.699 46.1289C49.6617 45.7557 50.0162 45.2518 50.3521 44.9533C50.7067 44.636 51.2105 44.4868 51.6583 44.2815C55.4091 42.5274 59.1598 40.7733 62.9106 39.0006C63.3211 38.8513 63.7316 38.6087 64.2541 38.3288Z" fill="#1F1F1F"/>
<path d="M68.8635 13.0062C62.4817 13.0062 56.0998 13.0062 49.718 13.0062C49.1768 13.0062 48.5797 13.0622 48.1132 12.8382C47.7586 12.6703 47.3667 12.1291 47.3854 11.7559C47.3854 11.3827 47.7959 10.8975 48.1505 10.7109C48.561 10.5057 49.1022 10.5617 49.5873 10.5617C62.519 10.5617 75.432 10.5617 88.3637 10.5617C88.7929 10.5617 89.2407 10.5803 89.6699 10.6363C90.2857 10.7109 90.6589 11.0842 90.6776 11.7186C90.6962 12.409 90.3417 12.8756 89.6326 12.9689C89.1474 13.0435 88.6622 13.0062 88.1584 13.0062C81.7392 13.0062 75.3014 13.0062 68.8635 13.0062Z" fill="#1F1F1F"/>
<path d="M68.9381 76.5452C62.5003 76.5452 56.0811 76.5452 49.6432 76.5452C49.1581 76.5452 48.6542 76.5638 48.1877 76.4705C47.5719 76.3399 47.2361 75.8174 47.3853 75.2389C47.4973 74.8471 47.8892 74.4365 48.2624 74.2499C48.6169 74.0633 49.1208 74.1566 49.5499 74.1566C62.5749 74.1566 75.5999 74.1566 88.6435 74.1566C88.9234 74.1566 89.1847 74.1753 89.4646 74.1753C90.267 74.194 90.6962 74.6231 90.6962 75.3882C90.6962 76.2093 90.1363 76.5078 89.3899 76.5452C89.0167 76.5638 88.6248 76.5452 88.2516 76.5452C81.8138 76.5265 75.376 76.5265 68.9381 76.5452C68.9381 76.5265 68.9381 76.5452 68.9381 76.5452Z" fill="#1F1F1F"/>
<path d="M69.0315 78.0376C71.4014 78.0563 73.2861 79.941 73.2675 82.2735C73.2488 84.6247 71.3641 86.5094 69.0129 86.5281C66.6617 86.5467 64.7023 84.4941 64.777 82.0869C64.8143 79.8477 66.7363 78.0376 69.0315 78.0376ZM68.9569 84.0649C70.0019 84.0649 70.8789 83.2438 70.8603 82.2548C70.8416 81.3778 69.9646 80.5008 69.0689 80.4821C68.0799 80.4448 67.1842 81.3218 67.1842 82.3108C67.2028 83.2625 67.9866 84.0649 68.9569 84.0649Z" fill="#1F1F1F"/>
<path d="M68.9753 7.98629C67.837 7.98629 66.6987 8.02361 65.5604 7.96763C64.6087 7.91165 64.1049 7.44514 64.1235 6.7547C64.1422 6.10159 64.702 5.5791 65.5977 5.56043C67.8183 5.52311 70.0389 5.54177 72.2595 5.54177C72.4274 5.54177 72.5954 5.56043 72.7447 5.59776C73.3791 5.74704 73.8643 6.08293 73.8456 6.81068C73.827 7.51978 73.3791 7.93031 72.7073 7.94897C71.4758 8.00495 70.2255 7.96763 68.9753 7.98629C68.9753 7.96763 68.9753 7.98629 68.9753 7.98629Z" fill="#1F1F1F"/>
<path d="M6.15666 126.288C5.38866 126.288 4.68066 126.198 4.03266 126.018C3.38466 125.838 2.82066 125.562 2.34066 125.19C1.87266 124.818 1.50666 124.35 1.24266 123.786C0.978664 123.222 0.846664 122.55 0.846664 121.77H2.48466C2.49666 122.346 2.60466 122.838 2.80866 123.246C3.02466 123.642 3.30066 123.966 3.63666 124.218C3.98466 124.458 4.38666 124.632 4.84266 124.74C5.29866 124.848 5.78466 124.902 6.30066 124.902C6.74466 124.902 7.15866 124.842 7.54266 124.722C7.92666 124.59 8.25666 124.41 8.53266 124.182C8.82066 123.942 9.04266 123.66 9.19866 123.336C9.36666 123 9.45066 122.628 9.45066 122.22C9.45066 121.752 9.36066 121.374 9.18066 121.086C9.00066 120.786 8.76066 120.558 8.46066 120.402C8.17266 120.234 7.83066 120.12 7.43466 120.06C7.05066 120 6.64266 119.97 6.21066 119.97C6.03066 119.97 5.82666 119.976 5.59866 119.988C5.37066 119.988 5.19066 119.994 5.05866 120.006V118.602C5.20266 118.626 5.39466 118.638 5.63466 118.638C5.87466 118.638 6.06666 118.638 6.21066 118.638C6.61866 118.638 6.99066 118.602 7.32666 118.53C7.67466 118.446 7.96866 118.314 8.20866 118.134C8.46066 117.954 8.65266 117.72 8.78466 117.432C8.92866 117.132 9.00066 116.766 9.00066 116.334C9.00066 115.938 8.92266 115.608 8.76666 115.344C8.62266 115.08 8.41866 114.87 8.15466 114.714C7.90266 114.546 7.60866 114.426 7.27266 114.354C6.94866 114.282 6.60666 114.246 6.24666 114.246C5.29866 114.246 4.55466 114.456 4.01466 114.876C3.47466 115.284 3.15666 115.956 3.06066 116.892H1.42266C1.44666 116.208 1.58466 115.614 1.83666 115.11C2.10066 114.594 2.44866 114.174 2.88066 113.85C3.31266 113.514 3.81666 113.262 4.39266 113.094C4.98066 112.926 5.61666 112.842 6.30066 112.842C6.91266 112.842 7.48266 112.914 8.01066 113.058C8.55066 113.19 9.01866 113.4 9.41466 113.688C9.81066 113.976 10.1227 114.342 10.3507 114.786C10.5787 115.218 10.6927 115.734 10.6927 116.334C10.6927 116.682 10.6327 117.006 10.5127 117.306C10.3927 117.606 10.2307 117.876 10.0267 118.116C9.83466 118.356 9.60666 118.566 9.34266 118.746C9.09066 118.914 8.83266 119.04 8.56866 119.124V119.178C8.98866 119.262 9.36066 119.406 9.68466 119.61C10.0087 119.802 10.2787 120.036 10.4947 120.312C10.7107 120.588 10.8727 120.894 10.9807 121.23C11.0887 121.566 11.1427 121.908 11.1427 122.256C11.1427 122.652 11.0527 123.084 10.8727 123.552C10.6927 124.02 10.3987 124.458 9.99066 124.866C9.59466 125.274 9.07866 125.616 8.44266 125.892C7.81866 126.156 7.05666 126.288 6.15666 126.288ZM15.684 126.198C15.264 126.198 14.868 126.15 14.496 126.054C14.124 125.97 13.794 125.826 13.506 125.622C13.23 125.406 13.008 125.136 12.84 124.812C12.684 124.476 12.606 124.074 12.606 123.606C12.606 123.078 12.696 122.646 12.876 122.31C13.056 121.974 13.29 121.704 13.578 121.5C13.878 121.284 14.214 121.122 14.586 121.014C14.97 120.906 15.36 120.816 15.756 120.744C16.176 120.66 16.572 120.6 16.944 120.564C17.328 120.516 17.664 120.456 17.952 120.384C18.24 120.3 18.468 120.186 18.636 120.042C18.804 119.886 18.888 119.664 18.888 119.376C18.888 119.04 18.822 118.77 18.69 118.566C18.57 118.362 18.408 118.206 18.204 118.098C18.012 117.99 17.79 117.918 17.538 117.882C17.298 117.846 17.058 117.828 16.818 117.828C16.17 117.828 15.63 117.954 15.198 118.206C14.766 118.446 14.532 118.908 14.496 119.592H12.966C12.99 119.016 13.11 118.53 13.326 118.134C13.542 117.738 13.83 117.42 14.19 117.18C14.55 116.928 14.958 116.748 15.414 116.64C15.882 116.532 16.38 116.478 16.908 116.478C17.328 116.478 17.742 116.508 18.15 116.568C18.57 116.628 18.948 116.754 19.284 116.946C19.62 117.126 19.89 117.384 20.094 117.72C20.298 118.056 20.4 118.494 20.4 119.034V123.822C20.4 124.182 20.418 124.446 20.454 124.614C20.502 124.782 20.646 124.866 20.886 124.866C20.994 124.866 21.15 124.836 21.354 124.776V125.964C21.09 126.12 20.724 126.198 20.256 126.198C19.86 126.198 19.542 126.09 19.302 125.874C19.074 125.646 18.96 125.28 18.96 124.776C18.54 125.28 18.048 125.646 17.484 125.874C16.932 126.09 16.332 126.198 15.684 126.198ZM16.026 124.866C16.53 124.866 16.962 124.8 17.322 124.668C17.682 124.524 17.976 124.35 18.204 124.146C18.432 123.93 18.6 123.702 18.708 123.462C18.816 123.21 18.87 122.976 18.87 122.76V121.194C18.678 121.35 18.426 121.458 18.114 121.518C17.802 121.578 17.472 121.632 17.124 121.68C16.788 121.728 16.446 121.776 16.098 121.824C15.75 121.872 15.438 121.956 15.162 122.076C14.886 122.196 14.658 122.37 14.478 122.598C14.31 122.814 14.226 123.114 14.226 123.498C14.226 123.75 14.274 123.966 14.37 124.146C14.478 124.314 14.61 124.452 14.766 124.56C14.934 124.668 15.126 124.746 15.342 124.794C15.558 124.842 15.786 124.866 16.026 124.866ZM34.838 126H22.778V116.694H24.308V124.65H28.142V116.694H29.672V124.65H33.506V116.694H35.036V124.65H36.296V128.826H34.838V126ZM37.737 116.694H39.267V124.29L43.659 116.694H45.621V126H44.091V118.404L39.699 126H37.737V116.694ZM50.1823 118.044H46.8523V116.694H55.0423V118.044H51.7123V126H50.1823V118.044ZM56.2643 116.694H57.7943V120.402H62.5103V116.694H64.0403V126H62.5103V121.716H57.7943V126H56.2643V116.694ZM70.3506 126.198C69.6066 126.198 68.9526 126.078 68.3886 125.838C67.8366 125.586 67.3686 125.244 66.9846 124.812C66.6006 124.368 66.3126 123.852 66.1206 123.264C65.9286 122.676 65.8326 122.04 65.8326 121.356C65.8326 120.672 65.9286 120.036 66.1206 119.448C66.3126 118.848 66.6006 118.332 66.9846 117.9C67.3686 117.456 67.8366 117.108 68.3886 116.856C68.9526 116.604 69.6066 116.478 70.3506 116.478C71.0826 116.478 71.7306 116.604 72.2946 116.856C72.8586 117.108 73.3326 117.456 73.7166 117.9C74.1006 118.332 74.3886 118.848 74.5806 119.448C74.7726 120.036 74.8686 120.672 74.8686 121.356C74.8686 122.04 74.7726 122.676 74.5806 123.264C74.3886 123.852 74.1006 124.368 73.7166 124.812C73.3326 125.244 72.8586 125.586 72.2946 125.838C71.7306 126.078 71.0826 126.198 70.3506 126.198ZM70.3506 124.866C70.7466 124.866 71.1186 124.788 71.4666 124.632C71.8266 124.476 72.1386 124.254 72.4026 123.966C72.6666 123.666 72.8706 123.3 73.0146 122.868C73.1706 122.424 73.2486 121.92 73.2486 121.356C73.2486 120.792 73.1706 120.294 73.0146 119.862C72.8706 119.418 72.6666 119.046 72.4026 118.746C72.1386 118.446 71.8266 118.218 71.4666 118.062C71.1186 117.906 70.7466 117.828 70.3506 117.828C69.9546 117.828 69.5766 117.906 69.2166 118.062C68.8686 118.218 68.5626 118.446 68.2986 118.746C68.0346 119.046 67.8246 119.418 67.6686 119.862C67.5246 120.294 67.4526 120.792 67.4526 121.356C67.4526 121.92 67.5246 122.424 67.6686 122.868C67.8246 123.3 68.0346 123.666 68.2986 123.966C68.5626 124.254 68.8686 124.476 69.2166 124.632C69.5766 124.788 69.9546 124.866 70.3506 124.866ZM80.6325 126.198C79.8885 126.198 79.2345 126.078 78.6705 125.838C78.1185 125.598 77.6565 125.262 77.2845 124.83C76.9125 124.398 76.6305 123.882 76.4385 123.282C76.2585 122.682 76.1685 122.028 76.1685 121.32C76.1685 120.624 76.2765 119.982 76.4925 119.394C76.7085 118.794 77.0085 118.278 77.3925 117.846C77.7885 117.414 78.2505 117.078 78.7785 116.838C79.3185 116.598 79.9065 116.478 80.5425 116.478C81.3705 116.478 82.0545 116.652 82.5945 117C83.1465 117.336 83.5845 117.768 83.9085 118.296C84.2445 118.824 84.4725 119.4 84.5925 120.024C84.7245 120.648 84.7785 121.242 84.7545 121.806H77.7885C77.7765 122.214 77.8245 122.604 77.9325 122.976C78.0405 123.336 78.2145 123.66 78.4545 123.948C78.6945 124.224 79.0005 124.446 79.3725 124.614C79.7445 124.782 80.1825 124.866 80.6865 124.866C81.3345 124.866 81.8625 124.716 82.2705 124.416C82.6905 124.116 82.9665 123.66 83.0985 123.048H84.6105C84.4065 124.104 83.9565 124.896 83.2605 125.424C82.5645 125.94 81.6885 126.198 80.6325 126.198ZM83.1345 120.456C83.1105 120.096 83.0265 119.754 82.8825 119.43C82.7505 119.106 82.5645 118.83 82.3245 118.602C82.0965 118.362 81.8205 118.176 81.4965 118.044C81.1845 117.9 80.8365 117.828 80.4525 117.828C80.0565 117.828 79.6965 117.9 79.3725 118.044C79.0605 118.176 78.7905 118.362 78.5625 118.602C78.3345 118.842 78.1545 119.124 78.0225 119.448C77.8905 119.76 77.8125 120.096 77.7885 120.456H83.1345ZM95.2022 126.198C94.4942 126.198 93.8642 126.084 93.3122 125.856C92.7722 125.628 92.3162 125.304 91.9442 124.884C91.5842 124.464 91.3082 123.966 91.1162 123.39C90.9362 122.814 90.8462 122.172 90.8462 121.464C90.8462 120.768 90.9362 120.12 91.1162 119.52C91.2962 118.908 91.5662 118.38 91.9262 117.936C92.2982 117.48 92.7542 117.126 93.2942 116.874C93.8462 116.61 94.4942 116.478 95.2382 116.478C95.7662 116.478 96.2582 116.544 96.7142 116.676C97.1822 116.796 97.5902 116.988 97.9382 117.252C98.2982 117.516 98.5922 117.852 98.8202 118.26C99.0482 118.656 99.1922 119.13 99.2522 119.682H97.6682C97.5482 119.094 97.2962 118.638 96.9122 118.314C96.5282 117.99 96.0122 117.828 95.3642 117.828C94.8122 117.828 94.3502 117.93 93.9782 118.134C93.6062 118.338 93.3062 118.608 93.0782 118.944C92.8622 119.28 92.7062 119.67 92.6102 120.114C92.5142 120.546 92.4662 120.996 92.4662 121.464C92.4662 121.896 92.5142 122.316 92.6102 122.724C92.7182 123.132 92.8802 123.498 93.0962 123.822C93.3122 124.134 93.5882 124.386 93.9242 124.578C94.2722 124.77 94.6922 124.866 95.1842 124.866C95.9402 124.866 96.5282 124.668 96.9482 124.272C97.3802 123.876 97.6442 123.318 97.7402 122.598H99.3062C99.1382 123.762 98.7122 124.656 98.0282 125.28C97.3442 125.892 96.4022 126.198 95.2022 126.198ZM103.268 118.044H99.9382V116.694H108.128V118.044H104.798V126H103.268V118.044ZM113.31 126.198C112.566 126.198 111.912 126.078 111.348 125.838C110.796 125.598 110.334 125.262 109.962 124.83C109.59 124.398 109.308 123.882 109.116 123.282C108.936 122.682 108.846 122.028 108.846 121.32C108.846 120.624 108.954 119.982 109.17 119.394C109.386 118.794 109.686 118.278 110.07 117.846C110.466 117.414 110.928 117.078 111.456 116.838C111.996 116.598 112.584 116.478 113.22 116.478C114.048 116.478 114.732 116.652 115.272 117C115.824 117.336 116.262 117.768 116.586 118.296C116.922 118.824 117.15 119.4 117.27 120.024C117.402 120.648 117.456 121.242 117.432 121.806H110.466C110.454 122.214 110.502 122.604 110.61 122.976C110.718 123.336 110.892 123.66 111.132 123.948C111.372 124.224 111.678 124.446 112.05 124.614C112.422 124.782 112.86 124.866 113.364 124.866C114.012 124.866 114.54 124.716 114.948 124.416C115.368 124.116 115.644 123.66 115.776 123.048H117.288C117.084 124.104 116.634 124.896 115.938 125.424C115.242 125.94 114.366 126.198 113.31 126.198ZM115.812 120.456C115.788 120.096 115.704 119.754 115.56 119.43C115.428 119.106 115.242 118.83 115.002 118.602C114.774 118.362 114.498 118.176 114.174 118.044C113.862 117.9 113.514 117.828 113.13 117.828C112.734 117.828 112.374 117.9 112.05 118.044C111.738 118.176 111.468 118.362 111.24 118.602C111.012 118.842 110.832 119.124 110.7 119.448C110.568 119.76 110.49 120.096 110.466 120.456H115.812ZM119.018 116.694H120.548V121.14L124.814 116.694H126.848L122.726 120.726L127.334 126H125.372L121.484 121.572L120.548 122.49V126H119.018V116.694ZM128.421 126.108C128.265 126.108 128.103 126.09 127.935 126.054C127.767 126.03 127.629 126.006 127.521 125.982V124.632C127.641 124.668 127.749 124.692 127.845 124.704C127.953 124.716 128.055 124.722 128.151 124.722C128.547 124.722 128.847 124.566 129.051 124.254C129.267 123.942 129.423 123.462 129.519 122.814C129.627 122.166 129.693 121.338 129.717 120.33C129.741 119.31 129.765 118.098 129.789 116.694H136.323V126H134.793V118.044H131.265C131.229 119.136 131.187 120.174 131.139 121.158C131.103 122.13 131.001 122.982 130.833 123.714C130.665 124.446 130.395 125.028 130.023 125.46C129.651 125.892 129.117 126.108 128.421 126.108ZM142.649 126.198C141.905 126.198 141.251 126.078 140.687 125.838C140.135 125.586 139.667 125.244 139.283 124.812C138.899 124.368 138.611 123.852 138.419 123.264C138.227 122.676 138.131 122.04 138.131 121.356C138.131 120.672 138.227 120.036 138.419 119.448C138.611 118.848 138.899 118.332 139.283 117.9C139.667 117.456 140.135 117.108 140.687 116.856C141.251 116.604 141.905 116.478 142.649 116.478C143.381 116.478 144.029 116.604 144.593 116.856C145.157 117.108 145.631 117.456 146.015 117.9C146.399 118.332 146.687 118.848 146.879 119.448C147.071 120.036 147.167 120.672 147.167 121.356C147.167 122.04 147.071 122.676 146.879 123.264C146.687 123.852 146.399 124.368 146.015 124.812C145.631 125.244 145.157 125.586 144.593 125.838C144.029 126.078 143.381 126.198 142.649 126.198ZM142.649 124.866C143.045 124.866 143.417 124.788 143.765 124.632C144.125 124.476 144.437 124.254 144.701 123.966C144.965 123.666 145.169 123.3 145.313 122.868C145.469 122.424 145.547 121.92 145.547 121.356C145.547 120.792 145.469 120.294 145.313 119.862C145.169 119.418 144.965 119.046 144.701 118.746C144.437 118.446 144.125 118.218 143.765 118.062C143.417 117.906 143.045 117.828 142.649 117.828C142.253 117.828 141.875 117.906 141.515 118.062C141.167 118.218 140.861 118.446 140.597 118.746C140.333 119.046 140.123 119.418 139.967 119.862C139.823 120.294 139.751 120.792 139.751 121.356C139.751 121.92 139.823 122.424 139.967 122.868C140.123 123.3 140.333 123.666 140.597 123.966C140.861 124.254 141.167 124.476 141.515 124.632C141.875 124.788 142.253 124.866 142.649 124.866Z" fill="#1F1F1F"/>
</svg>
