<svg width="72" height="135" viewBox="0 0 72 135" fill="none" xmlns="http://www.w3.org/2000/svg">
<path d="M0.196518 51.619C0.17937 50.1958 0.813829 49.0126 1.65406 47.9323C3.71177 45.2744 5.76947 42.6337 7.81003 39.9758C15.3892 30.1503 22.9856 20.3076 30.5648 10.482C32.7083 7.70412 34.8689 4.94337 36.978 2.14831C38.3327 0.347822 40.1332 -0.320932 42.2595 0.142052C43.8199 0.485003 45.3289 1.06802 46.8207 1.63389C54.1599 4.41179 61.499 7.22399 68.8382 10.019C71.8561 11.1679 72.8335 13.8772 71.1188 16.6723C70.1585 18.2499 68.941 19.656 67.8093 21.1307C60.9331 30.0474 54.0398 38.9813 47.1637 47.898C43.1511 53.0937 39.1043 58.2551 35.1775 63.5023C33.1713 66.1944 30.6849 66.5888 27.8898 65.5428C24.1859 64.171 20.4821 62.7478 16.7953 61.3588C12.3884 59.6955 7.99865 58.0322 3.59173 56.3517C1.17393 55.4086 0.127927 53.9682 0.196518 51.619ZM41.2992 2.2855C39.996 2.2855 39.2586 3.07428 38.5556 3.9831C31.9538 12.5569 25.352 21.1307 18.7502 29.7044C13.6745 36.2891 8.58167 42.8566 3.52314 49.4584C1.79124 51.7047 2.25422 53.3166 4.86065 54.3112C9.95347 56.2488 15.0634 58.1865 20.1563 60.1242C23.0199 61.2045 25.8493 62.3191 28.73 63.3479C30.9764 64.1539 31.8509 63.8452 33.2741 62.0276C37.3724 56.7118 41.4878 51.4132 45.5861 46.0975C50.7303 39.4271 55.8575 32.7738 61.0017 26.1034C63.6253 22.6911 66.266 19.2787 68.8553 15.8492C70.0728 14.2373 69.6955 12.8998 67.8779 12.2139C59.6985 9.09307 51.502 5.98937 43.3055 2.90281C42.6539 2.6113 41.968 2.47412 41.2992 2.2855Z" fill="#1F1F1F"/>
<path d="M9.91899 63.4852C10.5363 62.765 11.1536 62.0448 11.7709 61.3417C12.4397 60.5872 13.1427 60.4501 13.7086 60.9473C14.2059 61.3932 14.2059 62.0448 13.6057 62.8164C12.4054 64.3597 11.1536 65.8515 9.95328 67.412C9.43886 68.0807 8.85584 68.1493 8.10135 67.9435C6.26656 67.4291 5.85502 67.6177 5.58066 69.5211C5.39204 70.8415 4.80902 71.836 3.98594 72.7963C3.52295 73.3279 3.09426 73.8937 2.75131 74.4939C1.89393 75.9857 2.33977 77.2375 3.93449 77.8377C12.131 80.9585 20.3104 84.0794 28.5069 87.1659C29.0557 87.3717 29.6558 87.526 30.256 87.5775C31.2505 87.6804 32.1422 87.3889 32.7767 86.5486C33.6855 85.3655 34.6458 84.1823 35.5031 82.9477C35.8632 82.4332 36.1204 81.7816 36.2576 81.1643C36.5148 80.0326 36.0862 79.2266 35.0573 78.6951C33.6683 77.9577 33.5483 77.4947 34.4914 76.2944C41.5391 67.2405 48.5867 58.1866 55.6344 49.1498C58.035 46.0633 60.4357 42.9767 62.8363 39.9073C64.0881 38.2954 65.1512 38.2097 66.6602 39.6501C67.0889 40.0445 67.3976 40.5589 67.8263 41.1076C68.3064 40.456 68.8037 39.8902 69.1638 39.2557C69.9354 37.8496 69.5067 36.735 68.0149 36.1691C65.9572 35.3803 63.8995 34.6087 61.8418 33.8199C61.4645 33.6827 60.9844 33.5799 60.7786 33.3055C60.5214 32.9625 60.3156 32.3967 60.4185 32.0023C60.5043 31.6936 61.0187 31.3678 61.3959 31.2821C61.7389 31.2135 62.1676 31.4021 62.5448 31.5564C64.654 32.3452 66.7631 33.134 68.8551 33.9742C71.9417 35.1917 72.8334 38.1068 70.9471 40.919C70.1583 42.085 69.2667 43.1653 68.4093 44.2799C57.1776 58.8382 45.946 73.3965 34.7315 87.9719C33.2054 89.9438 31.1991 90.2868 28.9528 89.8067C28.1297 89.6352 27.3238 89.3094 26.535 89.0007C18.7671 86.0514 11.0507 82.9476 3.19715 80.204C0.127738 79.1237 -0.952558 75.6085 0.933672 72.882C1.4138 72.179 1.99682 71.5445 2.4598 70.8415C2.76846 70.3613 3.04282 69.7955 3.16285 69.2296C3.40292 68.0807 3.81446 67.0519 4.56895 66.1259C5.97505 64.3597 7.31256 62.5592 8.68437 60.7587C8.83869 60.5529 8.97587 60.3472 9.1645 60.1757C9.74751 59.6098 10.4163 59.507 10.8964 59.9528C11.4451 60.4329 11.4108 60.9988 11.0336 61.5818C10.622 62.1991 10.2105 62.8164 9.78181 63.4509C9.40456 63.8967 9.02732 64.3426 8.63292 64.7712C8.71866 64.8398 8.82155 64.9084 8.90728 64.9599C9.26738 64.4283 9.59319 63.9653 9.91899 63.4852ZM64.8769 41.2105C55.5315 53.1966 46.3061 65.0285 37.0636 76.8774C37.5951 77.6148 38.0581 78.3007 38.5725 79.0209C38.8469 78.6951 39.0698 78.4378 39.2927 78.1463C47.3692 67.6692 55.4457 57.2092 63.5222 46.732C64.1052 45.9775 64.7054 45.223 65.1512 44.4C65.6485 43.4397 65.8372 42.428 64.8769 41.2105Z" fill="#1F1F1F"/>
<path d="M64.9796 19.0733C64.7395 19.3648 64.4823 19.8964 64.0708 20.1021C63.4878 20.3765 62.8019 20.1536 62.6304 19.4505C62.3903 18.456 61.6873 18.1302 60.8642 17.8215C53.5079 14.9579 46.1516 12.0942 38.7953 9.23058C38.418 9.0934 38.0408 8.93907 37.715 8.71615C37.2177 8.3732 37.0291 7.84163 37.2692 7.25861C37.5264 6.65845 38.0408 6.50412 38.641 6.6413C38.9325 6.70989 39.2068 6.82992 39.4983 6.93281C47.0776 9.89933 54.6568 12.9002 62.2531 15.8495C63.4535 16.3125 64.3108 17.0499 64.7395 18.2502C64.8081 18.4388 64.8596 18.6446 64.9796 19.0733Z" fill="#1F1F1F"/>
<path d="M8.53009 45.0176C9.38747 45.3262 10.0391 45.532 10.6907 45.7892C17.8755 48.6014 25.0432 51.3965 32.228 54.2087C33.4112 54.6716 34.4915 55.2718 35.1088 56.4721C35.486 57.1923 35.366 57.8611 34.8344 58.204C34.3029 58.5641 33.7541 58.3584 33.1197 57.7925C32.5024 57.2438 31.8508 56.6436 31.0963 56.335C23.9286 53.4885 16.7438 50.7106 9.55894 47.9155C8.99307 47.6926 8.4272 47.4697 7.92993 47.161C7.46694 46.8695 7.22688 46.3551 7.53553 45.8578C7.80989 45.5149 8.23858 45.2576 8.53009 45.0176Z" fill="#1F1F1F"/>
<path d="M18.1153 58.6668C16.1091 58.6668 14.6172 57.1749 14.6001 55.1858C14.6001 53.2653 16.0748 51.8078 18.0468 51.8078C20.0187 51.7906 21.5963 53.351 21.5792 55.3059C21.562 57.1578 20.0359 58.6668 18.1153 58.6668ZM18.1496 56.2661C18.767 56.2147 19.1442 55.8889 19.1613 55.2373C19.1785 54.6371 18.5783 54.1398 17.961 54.1913C17.4123 54.2427 16.9322 54.7743 17.0179 55.323C17.1208 55.9232 17.4809 56.2661 18.1496 56.2661Z" fill="#1F1F1F"/>
<path d="M50.8845 7.49854C51.4161 7.65286 51.7076 7.72145 51.9819 7.82434C53.2337 8.30447 54.5026 8.7846 55.7372 9.31618C56.6118 9.67627 56.9376 10.2764 56.6804 10.9109C56.4231 11.5625 55.7544 11.8197 54.9313 11.5111C53.5252 10.9966 52.1363 10.4479 50.7473 9.88205C50.1643 9.65913 49.8042 9.16185 49.9928 8.59598C50.13 8.16729 50.6101 7.82434 50.8845 7.49854Z" fill="#1F1F1F"/>
<path d="M19.0747 125.492C18.9307 125.552 18.7267 125.624 18.4627 125.708C18.2107 125.78 17.9287 125.852 17.6167 125.924C17.3047 125.996 16.9807 126.062 16.6447 126.122C16.3087 126.17 15.9907 126.194 15.6907 126.194C14.7067 126.194 13.9207 126.074 13.3327 125.834C12.7447 125.594 12.2887 125.282 11.9647 124.898C11.6527 124.514 11.4427 124.076 11.3347 123.584C11.2387 123.092 11.1907 122.6 11.1907 122.108V118.148H12.8827V121.964C12.8827 122.252 12.9067 122.558 12.9547 122.882C13.0027 123.206 13.1227 123.506 13.3147 123.782C13.5067 124.058 13.7887 124.286 14.1607 124.466C14.5327 124.646 15.0427 124.736 15.6907 124.736C16.4947 124.736 17.1787 124.664 17.7427 124.52C18.3187 124.364 18.7627 124.208 19.0747 124.052V118.148H20.7847V131H19.0747V125.492ZM27.3044 131.198C26.5604 131.198 25.9064 131.078 25.3424 130.838C24.7904 130.598 24.3284 130.262 23.9564 129.83C23.5844 129.398 23.3024 128.882 23.1104 128.282C22.9304 127.682 22.8404 127.028 22.8404 126.32C22.8404 125.624 22.9484 124.982 23.1644 124.394C23.3804 123.794 23.6804 123.278 24.0644 122.846C24.4604 122.414 24.9224 122.078 25.4504 121.838C25.9904 121.598 26.5784 121.478 27.2144 121.478C28.0424 121.478 28.7264 121.652 29.2664 122C29.8184 122.336 30.2564 122.768 30.5804 123.296C30.9164 123.824 31.1444 124.4 31.2644 125.024C31.3964 125.648 31.4504 126.242 31.4264 126.806H24.4604C24.4484 127.214 24.4964 127.604 24.6044 127.976C24.7124 128.336 24.8864 128.66 25.1264 128.948C25.3664 129.224 25.6724 129.446 26.0444 129.614C26.4164 129.782 26.8544 129.866 27.3584 129.866C28.0064 129.866 28.5344 129.716 28.9424 129.416C29.3624 129.116 29.6384 128.66 29.7704 128.048H31.2824C31.0784 129.104 30.6284 129.896 29.9324 130.424C29.2364 130.94 28.3604 131.198 27.3044 131.198ZM29.8064 125.456C29.7824 125.096 29.6984 124.754 29.5544 124.43C29.4224 124.106 29.2364 123.83 28.9964 123.602C28.7684 123.362 28.4924 123.176 28.1684 123.044C27.8564 122.9 27.5084 122.828 27.1244 122.828C26.7284 122.828 26.3684 122.9 26.0444 123.044C25.7324 123.176 25.4624 123.362 25.2344 123.602C25.0064 123.842 24.8264 124.124 24.6944 124.448C24.5624 124.76 24.4844 125.096 24.4604 125.456H29.8064ZM35.5144 126.104L32.2744 121.694H34.2364L36.4684 124.952L38.7904 121.694H40.6264L37.4224 125.978L41.0224 131H39.0604L36.4684 127.148L33.8764 131H32.0224L35.5144 126.104ZM46.3428 131.198C45.5988 131.198 44.9448 131.078 44.3808 130.838C43.8288 130.586 43.3608 130.244 42.9768 129.812C42.5928 129.368 42.3048 128.852 42.1128 128.264C41.9208 127.676 41.8248 127.04 41.8248 126.356C41.8248 125.672 41.9208 125.036 42.1128 124.448C42.3048 123.848 42.5928 123.332 42.9768 122.9C43.3608 122.456 43.8288 122.108 44.3808 121.856C44.9448 121.604 45.5988 121.478 46.3428 121.478C47.0748 121.478 47.7228 121.604 48.2868 121.856C48.8508 122.108 49.3248 122.456 49.7088 122.9C50.0928 123.332 50.3808 123.848 50.5728 124.448C50.7648 125.036 50.8608 125.672 50.8608 126.356C50.8608 127.04 50.7648 127.676 50.5728 128.264C50.3808 128.852 50.0928 129.368 49.7088 129.812C49.3248 130.244 48.8508 130.586 48.2868 130.838C47.7228 131.078 47.0748 131.198 46.3428 131.198ZM46.3428 129.866C46.7388 129.866 47.1108 129.788 47.4588 129.632C47.8188 129.476 48.1308 129.254 48.3948 128.966C48.6588 128.666 48.8628 128.3 49.0068 127.868C49.1628 127.424 49.2408 126.92 49.2408 126.356C49.2408 125.792 49.1628 125.294 49.0068 124.862C48.8628 124.418 48.6588 124.046 48.3948 123.746C48.1308 123.446 47.8188 123.218 47.4588 123.062C47.1108 122.906 46.7388 122.828 46.3428 122.828C45.9468 122.828 45.5688 122.906 45.2088 123.062C44.8608 123.218 44.5548 123.446 44.2908 123.746C44.0268 124.046 43.8168 124.418 43.6608 124.862C43.5168 125.294 43.4448 125.792 43.4448 126.356C43.4448 126.92 43.5168 127.424 43.6608 127.868C43.8168 128.3 44.0268 128.666 44.2908 128.966C44.5548 129.254 44.8608 129.476 45.2088 129.632C45.5688 129.788 45.9468 129.866 46.3428 129.866ZM52.5927 131.108C52.4367 131.108 52.2747 131.09 52.1067 131.054C51.9387 131.03 51.8007 131.006 51.6927 130.982V129.632C51.8127 129.668 51.9207 129.692 52.0167 129.704C52.1247 129.716 52.2267 129.722 52.3227 129.722C52.7187 129.722 53.0187 129.566 53.2227 129.254C53.4387 128.942 53.5947 128.462 53.6907 127.814C53.7987 127.166 53.8647 126.338 53.8887 125.33C53.9127 124.31 53.9367 123.098 53.9607 121.694H60.4947V131H58.9647V123.044H55.4367C55.4007 124.136 55.3587 125.174 55.3107 126.158C55.2747 127.13 55.1727 127.982 55.0047 128.714C54.8367 129.446 54.5667 130.028 54.1947 130.46C53.8227 130.892 53.2887 131.108 52.5927 131.108Z" fill="#1F1F1F"/>
</svg>
