<svg width="44" height="54" viewBox="0 0 44 54" fill="none" xmlns="http://www.w3.org/2000/svg">
<path d="M27.0813 3.59977H20.8785V0H9.49014V3.59977H3.28731C1.47467 3.59977 -0.00012207 4.99828 -0.00012207 6.71718V50.8783C-0.00012207 52.5972 1.47467 53.9966 3.28731 53.9966H27.0813C28.8939 53.9966 30.3687 52.5972 30.3687 50.8783V34.3742L28.6168 31.498L30.3687 28.6218V6.71718C30.3687 4.99828 28.8939 3.59977 27.0813 3.59977ZM11.3882 1.79989H18.9804V3.59977H11.3882V1.79989ZM28.4707 28.1403L26.9741 30.5981H25.0675L22.7765 28.4256V26.0983C22.7765 25.6007 22.3523 25.1984 21.8275 25.1984C21.3027 25.1984 20.8785 25.6007 20.8785 26.0983V27.8982H18.9804C18.4556 27.8982 18.0314 28.3005 18.0314 28.7982C18.0314 29.2958 18.4556 29.6981 18.9804 29.6981H21.4346L23.4797 31.6375L21.2903 35.0978H19.9294C19.4046 35.0978 18.9804 35.5001 18.9804 35.9977C18.9804 36.4954 19.4046 36.8977 19.9294 36.8977H20.8785V37.7976C20.8785 38.2953 21.3027 38.6976 21.8275 38.6976C22.3523 38.6976 22.7765 38.2953 22.7765 37.7976V36.247L25.2117 32.3979H26.9741L28.4707 34.8557V36.8977V42.2973V47.697V50.8783C28.4707 51.6054 27.8481 52.1967 27.0813 52.1967H3.28731C2.67044 52.1967 2.15322 51.8115 1.97196 51.2824C2.45976 51.2455 2.84696 50.8693 2.84696 50.3968C2.84696 49.9 2.42179 49.4969 1.89793 49.4969V45.8971C2.42179 45.8971 2.84696 45.4939 2.84696 44.9972C2.84696 44.5004 2.42179 44.0972 1.89793 44.0972V40.4974C2.42179 40.4974 2.84696 40.0943 2.84696 39.5975C2.84696 39.1007 2.42179 38.6976 1.89793 38.6976V35.0978C2.42179 35.0978 2.84696 34.6946 2.84696 34.1978C2.84696 33.7011 2.42179 33.2979 1.89793 33.2979V29.6981C2.42179 29.6981 2.84696 29.2949 2.84696 28.7982C2.84696 28.3014 2.42179 27.8982 1.89793 27.8982V24.2985C2.42179 24.2985 2.84696 23.8953 2.84696 23.3985C2.84696 22.9018 2.42179 22.4986 1.89793 22.4986V18.8988C2.42179 18.8988 2.84696 18.4956 2.84696 17.9989C2.84696 17.5021 2.42179 17.0989 1.89793 17.0989V6.71718C1.89793 5.99002 2.52049 5.39966 3.28731 5.39966H9.49014H20.8785H27.0813C27.8481 5.39966 28.4707 5.99002 28.4707 6.71718V28.1403Z" fill="#4285F4"/>
<path d="M4.74505 21.5984C5.26918 21.5984 5.69407 21.1955 5.69407 20.6986C5.69407 20.2017 5.26918 19.7988 4.74505 19.7988C4.22091 19.7988 3.79602 20.2017 3.79602 20.6986C3.79602 21.1955 4.22091 21.5984 4.74505 21.5984Z" fill="#4285F4"/>
<path d="M7.59209 18.8987C8.11623 18.8987 8.54112 18.4957 8.54112 17.9987C8.54112 17.5016 8.11623 17.0986 7.59209 17.0986C7.06796 17.0986 6.64307 17.5016 6.64307 17.9987C6.64307 18.4957 7.06796 18.8987 7.59209 18.8987Z" fill="#4285F4"/>
<path d="M7.59209 24.2983C8.11623 24.2983 8.54112 23.8954 8.54112 23.3984C8.54112 22.9014 8.11623 22.4985 7.59209 22.4985C7.06796 22.4985 6.64307 22.9014 6.64307 23.3984C6.64307 23.8954 7.06796 24.2983 7.59209 24.2983Z" fill="#4285F4"/>
<path d="M10.4391 21.5984C10.9633 21.5984 11.3882 21.1955 11.3882 20.6986C11.3882 20.2017 10.9633 19.7988 10.4391 19.7988C9.91501 19.7988 9.49011 20.2017 9.49011 20.6986C9.49011 21.1955 9.91501 21.5984 10.4391 21.5984Z" fill="#4285F4"/>
<path d="M13.2863 24.2983C13.8104 24.2983 14.2353 23.8954 14.2353 23.3984C14.2353 22.9014 13.8104 22.4985 13.2863 22.4985C12.7622 22.4985 12.3373 22.9014 12.3373 23.3984C12.3373 23.8954 12.7622 24.2983 13.2863 24.2983Z" fill="#4285F4"/>
<path d="M4.74505 26.9983C5.26918 26.9983 5.69407 26.5954 5.69407 26.0984C5.69407 25.6014 5.26918 25.1985 4.74505 25.1985C4.22091 25.1985 3.79602 25.6014 3.79602 26.0984C3.79602 26.5954 4.22091 26.9983 4.74505 26.9983Z" fill="#4285F4"/>
<path d="M4.74505 32.3977C5.26918 32.3977 5.69407 31.9948 5.69407 31.4978C5.69407 31.0008 5.26918 30.5979 4.74505 30.5979C4.22091 30.5979 3.79602 31.0008 3.79602 31.4978C3.79602 31.9948 4.22091 32.3977 4.74505 32.3977Z" fill="#4285F4"/>
<path d="M7.59209 29.6982C8.11623 29.6982 8.54112 29.2953 8.54112 28.7982C8.54112 28.3011 8.11623 27.8982 7.59209 27.8982C7.06796 27.8982 6.64307 28.3011 6.64307 28.7982C6.64307 29.2953 7.06796 29.6982 7.59209 29.6982Z" fill="#4285F4"/>
<path d="M7.59209 35.0977C8.11623 35.0977 8.54112 34.6948 8.54112 34.1978C8.54112 33.7008 8.11623 33.2979 7.59209 33.2979C7.06796 33.2979 6.64307 33.7008 6.64307 34.1978C6.64307 34.6948 7.06796 35.0977 7.59209 35.0977Z" fill="#4285F4"/>
<path d="M10.4391 26.9983C10.9633 26.9983 11.3882 26.5954 11.3882 26.0984C11.3882 25.6014 10.9633 25.1985 10.4391 25.1985C9.91501 25.1985 9.49011 25.6014 9.49011 26.0984C9.49011 26.5954 9.91501 26.9983 10.4391 26.9983Z" fill="#4285F4"/>
<path d="M10.4391 32.3977C10.9633 32.3977 11.3882 31.9948 11.3882 31.4978C11.3882 31.0008 10.9633 30.5979 10.4391 30.5979C9.91501 30.5979 9.49011 31.0008 9.49011 31.4978C9.49011 31.9948 9.91501 32.3977 10.4391 32.3977Z" fill="#4285F4"/>
<path d="M16.1334 32.3977C16.6575 32.3977 17.0824 31.9948 17.0824 31.4978C17.0824 31.0008 16.6575 30.5979 16.1334 30.5979C15.6092 30.5979 15.1843 31.0008 15.1843 31.4978C15.1843 31.9948 15.6092 32.3977 16.1334 32.3977Z" fill="#4285F4"/>
<path d="M13.2863 29.6982C13.8104 29.6982 14.2353 29.2953 14.2353 28.7982C14.2353 28.3011 13.8104 27.8982 13.2863 27.8982C12.7622 27.8982 12.3373 28.3011 12.3373 28.7982C12.3373 29.2953 12.7622 29.6982 13.2863 29.6982Z" fill="#4285F4"/>
<path d="M33.2159 34.1978C33.74 34.1978 34.1649 33.7948 34.1649 33.2977C34.1649 32.8007 33.74 32.3977 33.2159 32.3977C32.6917 32.3977 32.2668 32.8007 32.2668 33.2977C32.2668 33.7948 32.6917 34.1978 33.2159 34.1978Z" fill="#4285F4"/>
<path d="M35.1138 40.4976C35.638 40.4976 36.0628 40.0946 36.0628 39.5975C36.0628 39.1005 35.638 38.6975 35.1138 38.6975C34.5897 38.6975 34.1648 39.1005 34.1648 39.5975C34.1648 40.0946 34.5897 40.4976 35.1138 40.4976Z" fill="#4285F4"/>
<path d="M35.1138 36.8975C35.638 36.8975 36.0628 36.4946 36.0628 35.9976C36.0628 35.5006 35.638 35.0977 35.1138 35.0977C34.5897 35.0977 34.1648 35.5006 34.1648 35.9976C34.1648 36.4946 34.5897 36.8975 35.1138 36.8975Z" fill="#4285F4"/>
<path d="M37.0119 43.1973C37.536 43.1973 37.9609 42.7944 37.9609 42.2974C37.9609 41.8004 37.536 41.3975 37.0119 41.3975C36.4878 41.3975 36.0629 41.8004 36.0629 42.2974C36.0629 42.7944 36.4878 43.1973 37.0119 43.1973Z" fill="#4285F4"/>
<path d="M37.961 45.897C38.4851 45.897 38.91 45.4941 38.91 44.9971C38.91 44.5001 38.4851 44.0972 37.961 44.0972C37.4369 44.0972 37.012 44.5001 37.012 44.9971C37.012 45.4941 37.4369 45.897 37.961 45.897Z" fill="#4285F4"/>
<path d="M40.808 49.4968C41.3322 49.4968 41.7571 49.0939 41.7571 48.5969C41.7571 48.0999 41.3322 47.697 40.808 47.697C40.2839 47.697 39.859 48.0999 39.859 48.5969C39.859 49.0939 40.2839 49.4968 40.808 49.4968Z" fill="#4285F4"/>
<path d="M38.91 40.4976C39.4341 40.4976 39.859 40.0946 39.859 39.5975C39.859 39.1005 39.4341 38.6975 38.91 38.6975C38.3858 38.6975 37.9609 39.1005 37.9609 39.5975C37.9609 40.0946 38.3858 40.4976 38.91 40.4976Z" fill="#4285F4"/>
<path d="M38.91 36.8975C39.4341 36.8975 39.859 36.4946 39.859 35.9976C39.859 35.5006 39.4341 35.0977 38.91 35.0977C38.3858 35.0977 37.9609 35.5006 37.9609 35.9976C37.9609 36.4946 38.3858 36.8975 38.91 36.8975Z" fill="#4285F4"/>
<path d="M40.808 44.0972C41.3322 44.0972 41.7571 43.6942 41.7571 43.1971C41.7571 42.7001 41.3322 42.2971 40.808 42.2971C40.2839 42.2971 39.859 42.7001 39.859 43.1971C39.859 43.6942 40.2839 44.0972 40.808 44.0972Z" fill="#4285F4"/>
<path d="M37.961 49.4968C38.4851 49.4968 38.91 49.0939 38.91 48.5969C38.91 48.0999 38.4851 47.697 37.961 47.697C37.4369 47.697 37.012 48.0999 37.012 48.5969C37.012 49.0939 37.4369 49.4968 37.961 49.4968Z" fill="#4285F4"/>
<path d="M42.7061 46.7969C43.2302 46.7969 43.6551 46.394 43.6551 45.8971C43.6551 45.4002 43.2302 44.9973 42.7061 44.9973C42.182 44.9973 41.7571 45.4002 41.7571 45.8971C41.7571 46.394 42.182 46.7969 42.7061 46.7969Z" fill="#4285F4"/>
<path d="M41.757 53.0967C42.2811 53.0967 42.706 52.6938 42.706 52.1968C42.706 51.6998 42.2811 51.2969 41.757 51.2969C41.2329 51.2969 40.808 51.6998 40.808 52.1968C40.808 52.6938 41.2329 53.0967 41.757 53.0967Z" fill="#4285F4"/>
<path d="M13.2863 35.0977C13.8104 35.0977 14.2353 34.6948 14.2353 34.1978C14.2353 33.7008 13.8104 33.2979 13.2863 33.2979C12.7622 33.2979 12.3373 33.7008 12.3373 34.1978C12.3373 34.6948 12.7622 35.0977 13.2863 35.0977Z" fill="#4285F4"/>
<path d="M4.74505 37.7976C5.26918 37.7976 5.69407 37.3947 5.69407 36.8976C5.69407 36.4005 5.26918 35.9976 4.74505 35.9976C4.22091 35.9976 3.79602 36.4005 3.79602 36.8976C3.79602 37.3947 4.22091 37.7976 4.74505 37.7976Z" fill="#4285F4"/>
<path d="M4.74505 43.1973C5.26918 43.1973 5.69407 42.7944 5.69407 42.2974C5.69407 41.8004 5.26918 41.3975 4.74505 41.3975C4.22091 41.3975 3.79602 41.8004 3.79602 42.2974C3.79602 42.7944 4.22091 43.1973 4.74505 43.1973Z" fill="#4285F4"/>
<path d="M7.59209 40.4976C8.11623 40.4976 8.54112 40.0946 8.54112 39.5975C8.54112 39.1005 8.11623 38.6975 7.59209 38.6975C7.06796 38.6975 6.64307 39.1005 6.64307 39.5975C6.64307 40.0946 7.06796 40.4976 7.59209 40.4976Z" fill="#4285F4"/>
<path d="M7.59209 45.897C8.11623 45.897 8.54112 45.4941 8.54112 44.9971C8.54112 44.5001 8.11623 44.0972 7.59209 44.0972C7.06796 44.0972 6.64307 44.5001 6.64307 44.9971C6.64307 45.4941 7.06796 45.897 7.59209 45.897Z" fill="#4285F4"/>
<path d="M10.4391 37.7976C10.9633 37.7976 11.3882 37.3947 11.3882 36.8976C11.3882 36.4005 10.9633 35.9976 10.4391 35.9976C9.91501 35.9976 9.49011 36.4005 9.49011 36.8976C9.49011 37.3947 9.91501 37.7976 10.4391 37.7976Z" fill="#4285F4"/>
<path d="M16.1334 37.7976C16.6575 37.7976 17.0824 37.3947 17.0824 36.8976C17.0824 36.4005 16.6575 35.9976 16.1334 35.9976C15.6092 35.9976 15.1843 36.4005 15.1843 36.8976C15.1843 37.3947 15.6092 37.7976 16.1334 37.7976Z" fill="#4285F4"/>
<path d="M10.4391 43.1973C10.9633 43.1973 11.3882 42.7944 11.3882 42.2974C11.3882 41.8004 10.9633 41.3975 10.4391 41.3975C9.91501 41.3975 9.49011 41.8004 9.49011 42.2974C9.49011 42.7944 9.91501 43.1973 10.4391 43.1973Z" fill="#4285F4"/>
<path d="M16.1334 43.1973C16.6575 43.1973 17.0824 42.7944 17.0824 42.2974C17.0824 41.8004 16.6575 41.3975 16.1334 41.3975C15.6092 41.3975 15.1843 41.8004 15.1843 42.2974C15.1843 42.7944 15.6092 43.1973 16.1334 43.1973Z" fill="#4285F4"/>
<path d="M13.2863 40.4976C13.8104 40.4976 14.2353 40.0946 14.2353 39.5975C14.2353 39.1005 13.8104 38.6975 13.2863 38.6975C12.7622 38.6975 12.3373 39.1005 12.3373 39.5975C12.3373 40.0946 12.7622 40.4976 13.2863 40.4976Z" fill="#4285F4"/>
<path d="M18.9804 40.4976C19.5045 40.4976 19.9294 40.0946 19.9294 39.5975C19.9294 39.1005 19.5045 38.6975 18.9804 38.6975C18.4563 38.6975 18.0314 39.1005 18.0314 39.5975C18.0314 40.0946 18.4563 40.4976 18.9804 40.4976Z" fill="#4285F4"/>
<path d="M13.2863 45.897C13.8104 45.897 14.2353 45.4941 14.2353 44.9971C14.2353 44.5001 13.8104 44.0972 13.2863 44.0972C12.7622 44.0972 12.3373 44.5001 12.3373 44.9971C12.3373 45.4941 12.7622 45.897 13.2863 45.897Z" fill="#4285F4"/>
<path d="M18.9804 45.897C19.5045 45.897 19.9294 45.4941 19.9294 44.9971C19.9294 44.5001 19.5045 44.0972 18.9804 44.0972C18.4563 44.0972 18.0314 44.5001 18.0314 44.9971C18.0314 45.4941 18.4563 45.897 18.9804 45.897Z" fill="#4285F4"/>
<path d="M27.5217 37.7976C28.0458 37.7976 28.4707 37.3947 28.4707 36.8976C28.4707 36.4005 28.0458 35.9976 27.5217 35.9976C26.9975 35.9976 26.5726 36.4005 26.5726 36.8976C26.5726 37.3947 26.9975 37.7976 27.5217 37.7976Z" fill="#4285F4"/>
<path d="M21.8274 43.1973C22.3516 43.1973 22.7765 42.7944 22.7765 42.2974C22.7765 41.8004 22.3516 41.3975 21.8274 41.3975C21.3033 41.3975 20.8784 41.8004 20.8784 42.2974C20.8784 42.7944 21.3033 43.1973 21.8274 43.1973Z" fill="#4285F4"/>
<path d="M27.5217 43.1973C28.0458 43.1973 28.4707 42.7944 28.4707 42.2974C28.4707 41.8004 28.0458 41.3975 27.5217 41.3975C26.9975 41.3975 26.5726 41.8004 26.5726 42.2974C26.5726 42.7944 26.9975 43.1973 27.5217 43.1973Z" fill="#4285F4"/>
<path d="M24.6746 40.4976C25.1987 40.4976 25.6236 40.0946 25.6236 39.5975C25.6236 39.1005 25.1987 38.6975 24.6746 38.6975C24.1505 38.6975 23.7256 39.1005 23.7256 39.5975C23.7256 40.0946 24.1505 40.4976 24.6746 40.4976Z" fill="#4285F4"/>
<path d="M24.6746 45.897C25.1987 45.897 25.6236 45.4941 25.6236 44.9971C25.6236 44.5001 25.1987 44.0972 24.6746 44.0972C24.1505 44.0972 23.7256 44.5001 23.7256 44.9971C23.7256 45.4941 24.1505 45.897 24.6746 45.897Z" fill="#4285F4"/>
<path d="M4.74505 48.5969C5.26918 48.5969 5.69407 48.194 5.69407 47.6969C5.69407 47.1998 5.26918 46.7969 4.74505 46.7969C4.22091 46.7969 3.79602 47.1998 3.79602 47.6969C3.79602 48.194 4.22091 48.5969 4.74505 48.5969Z" fill="#4285F4"/>
<path d="M7.59209 51.2969C8.11623 51.2969 8.54112 50.8939 8.54112 50.3969C8.54112 49.8998 8.11623 49.4968 7.59209 49.4968C7.06796 49.4968 6.64307 49.8998 6.64307 50.3969C6.64307 50.8939 7.06796 51.2969 7.59209 51.2969Z" fill="#4285F4"/>
<path d="M10.4391 48.5969C10.9633 48.5969 11.3882 48.194 11.3882 47.6969C11.3882 47.1998 10.9633 46.7969 10.4391 46.7969C9.91501 46.7969 9.49011 47.1998 9.49011 47.6969C9.49011 48.194 9.91501 48.5969 10.4391 48.5969Z" fill="#4285F4"/>
<path d="M16.1334 48.5969C16.6575 48.5969 17.0824 48.194 17.0824 47.6969C17.0824 47.1998 16.6575 46.7969 16.1334 46.7969C15.6092 46.7969 15.1843 47.1998 15.1843 47.6969C15.1843 48.194 15.6092 48.5969 16.1334 48.5969Z" fill="#4285F4"/>
<path d="M13.2863 51.2969C13.8104 51.2969 14.2353 50.8939 14.2353 50.3969C14.2353 49.8998 13.8104 49.4968 13.2863 49.4968C12.7622 49.4968 12.3373 49.8998 12.3373 50.3969C12.3373 50.8939 12.7622 51.2969 13.2863 51.2969Z" fill="#4285F4"/>
<path d="M18.9804 51.2969C19.5045 51.2969 19.9294 50.8939 19.9294 50.3969C19.9294 49.8998 19.5045 49.4968 18.9804 49.4968C18.4563 49.4968 18.0314 49.8998 18.0314 50.3969C18.0314 50.8939 18.4563 51.2969 18.9804 51.2969Z" fill="#4285F4"/>
<path d="M21.8274 48.5969C22.3516 48.5969 22.7765 48.194 22.7765 47.6969C22.7765 47.1998 22.3516 46.7969 21.8274 46.7969C21.3033 46.7969 20.8784 47.1998 20.8784 47.6969C20.8784 48.194 21.3033 48.5969 21.8274 48.5969Z" fill="#4285F4"/>
<path d="M27.5217 48.5969C28.0458 48.5969 28.4707 48.194 28.4707 47.6969C28.4707 47.1998 28.0458 46.7969 27.5217 46.7969C26.9975 46.7969 26.5726 47.1998 26.5726 47.6969C26.5726 48.194 26.9975 48.5969 27.5217 48.5969Z" fill="#4285F4"/>
<path d="M24.6746 51.2969C25.1987 51.2969 25.6236 50.8939 25.6236 50.3969C25.6236 49.8998 25.1987 49.4968 24.6746 49.4968C24.1505 49.4968 23.7256 49.8998 23.7256 50.3969C23.7256 50.8939 24.1505 51.2969 24.6746 51.2969Z" fill="#4285F4"/>
</svg>
