<svg width="46" height="60" viewBox="0 0 46 60" fill="none" xmlns="http://www.w3.org/2000/svg">
<path d="M28.8522 49.9995C26.9222 49.9995 25.3522 51.5695 25.3522 53.4995C25.3522 55.4295 26.9222 56.9995 28.8522 56.9995C30.7822 56.9995 32.3522 55.4295 32.3522 53.4995C32.3522 51.5695 30.7812 49.9995 28.8522 49.9995ZM28.8522 54.9995C28.0252 54.9995 27.3522 54.3265 27.3522 53.4995C27.3522 52.6725 28.0252 51.9995 28.8522 51.9995C29.6792 51.9995 30.3522 52.6725 30.3522 53.4995C30.3522 54.3265 29.6792 54.9995 28.8522 54.9995Z" fill="#1F1F1F"/>
<path d="M33.3522 36.9995C35.5582 36.9995 37.3522 35.2055 37.3522 32.9995C37.3522 30.7935 35.5582 28.9995 33.3522 28.9995C31.1462 28.9995 29.3522 30.7935 29.3522 32.9995C29.3522 35.2055 31.1452 36.9995 33.3522 36.9995ZM33.3522 30.9995C34.4552 30.9995 35.3522 31.8965 35.3522 32.9995C35.3522 34.1025 34.4552 34.9995 33.3522 34.9995C32.2492 34.9995 31.3522 34.1025 31.3522 32.9995C31.3522 31.8965 32.2492 30.9995 33.3522 30.9995Z" fill="#1F1F1F"/>
<path d="M9.35218 11.9998C9.60818 11.9998 9.86418 11.9018 10.0592 11.7068L12.0592 9.70676C12.4502 9.31576 12.4502 8.68376 12.0592 8.29276C11.6682 7.90176 11.0362 7.90176 10.6452 8.29276L8.64518 10.2928C8.25418 10.6838 8.25418 11.3158 8.64518 11.7068C8.84018 11.9018 9.09618 11.9998 9.35218 11.9998Z" fill="#1F1F1F"/>
<path d="M45.3521 29.7477C45.3521 28.8678 45.0091 28.0407 44.3871 27.4187L43.8301 26.8617C44.7791 26.0217 45.3511 24.8067 45.3511 23.4998C45.3511 21.0187 43.3321 18.9998 40.8511 18.9998C40.6691 18.9998 40.4891 19.0177 40.3111 19.0397C40.3331 18.8607 40.3511 18.6828 40.3511 18.4998C40.3511 16.0187 38.3321 13.9997 35.8511 13.9997C35.6691 13.9997 35.4891 14.0177 35.3111 14.0397C35.3331 13.8607 35.3511 13.6827 35.3511 13.4997C35.3511 11.0187 33.3321 8.99975 30.8511 8.99975C30.6691 8.99975 30.4891 9.01775 30.3111 9.03975C30.3331 8.86075 30.3511 8.68275 30.3511 8.49975C30.3511 6.01875 28.3321 3.99975 25.8511 3.99975C24.5431 3.99975 23.3291 4.57275 22.4891 5.52075L21.6951 4.72675L17.9321 0.96375C16.6471 -0.32125 14.5571 -0.32125 13.2741 0.96375L0.962128 13.2757C-0.320872 14.5607 -0.320872 16.6497 0.962128 17.9347L4.72513 21.6978L9.63513 26.6077C8.27913 27.3838 7.35213 28.8288 7.35213 30.4998C7.35213 32.0628 8.15513 33.4408 9.36913 34.2478C9.43013 34.3288 9.50113 34.4087 9.59613 34.4897L20.3521 45.2048V47.0008H18.3521V60.0008H36.3521H44.3521V47.0008H42.3521V43.9708C44.2651 42.3498 45.3521 40.0188 45.3521 37.4998C45.3521 35.7598 44.8091 34.0698 43.8161 32.6478L44.3871 32.0768C45.0091 31.4548 45.3521 30.6277 45.3521 29.7477ZM43.3521 23.4998C43.3521 24.2677 42.9981 24.9787 42.4151 25.4467L38.9041 21.9357C39.3721 21.3527 40.0841 20.9987 40.8511 20.9987C42.2301 20.9997 43.3521 22.1208 43.3521 23.4998ZM38.3521 18.4998C38.3521 19.2677 37.9981 19.9787 37.4151 20.4467L33.9041 16.9357C34.3721 16.3527 35.0841 15.9987 35.8511 15.9987C37.2301 15.9998 38.3521 17.1208 38.3521 18.4998ZM33.3521 13.4997C33.3521 14.2677 32.9981 14.9787 32.4151 15.4467L28.9041 11.9358C29.3721 11.3527 30.0841 10.9987 30.8511 10.9987C32.2301 10.9998 33.3521 12.1207 33.3521 13.4997ZM25.8521 5.99975C27.2311 5.99975 28.3521 7.12075 28.3521 8.49975C28.3521 9.26775 27.9981 9.97875 27.4151 10.4467L23.9041 6.93575C24.3721 6.35375 25.0841 5.99975 25.8521 5.99975ZM2.37613 16.5217C1.87213 16.0168 1.87213 15.1957 2.37613 14.6907L14.6881 2.37875C14.8131 2.25375 14.9591 2.15975 15.1141 2.09675C15.1841 2.06775 15.2631 2.06875 15.3371 2.05275C15.5151 2.01475 15.6911 2.01475 15.8691 2.05275C15.9431 2.06875 16.0221 2.06775 16.0921 2.09675C16.2471 2.15975 16.3921 2.25375 16.5181 2.37875L18.8671 4.72775L4.72513 18.8697L2.37613 16.5217ZM20.2811 6.14175L21.4591 7.31975L26.4591 12.3197L27.0321 12.8927L31.4591 17.3197L32.0321 17.8927L36.4591 22.3197L37.0321 22.8927L42.0321 27.8927L42.9721 28.8328C43.4771 29.3377 43.4771 30.1578 42.9721 30.6628L42.5351 31.1007L30.6611 42.9757C30.1581 43.4798 29.3351 43.4818 28.8301 42.9757L20.8551 34.9998H21.8511C24.3321 34.9998 26.3511 32.9808 26.3511 30.4998C26.3511 28.0187 24.3321 25.9998 21.8511 25.9998H11.8541L6.13813 20.2838L20.2811 6.14175ZM11.3121 28.0618L11.7271 28.0147C11.7681 28.0087 11.8091 27.9998 11.8511 27.9998H21.8511C23.2301 27.9998 24.3511 29.1208 24.3511 30.4998C24.3511 31.8787 23.2301 32.9998 21.8511 32.9998H18.8551H16.0271H11.8511C10.4721 32.9998 9.35113 31.8787 9.35113 30.4998C9.35213 29.3067 10.1931 28.3097 11.3121 28.0618ZM20.3521 57.9998V48.9998H28.7781C31.8511 48.9998 34.3521 51.5008 34.3521 54.5738V57.9998H20.3521ZM42.3521 57.9998H36.3521V54.5738C36.3521 52.3678 35.3981 50.3858 33.8881 48.9998H42.3521V57.9998ZM42.3771 34.0878C43.0111 35.1088 43.3521 36.2898 43.3521 37.4998C43.3521 39.5548 42.4041 41.4458 40.7501 42.6908L40.3521 42.9908V46.9998H28.7771H22.3511V44.2817L21.9981 43.9827C21.9531 43.9437 21.9051 43.9077 21.8181 43.8428L12.9411 34.9988H18.0261L27.4151 44.3888C28.0581 45.0308 28.9011 45.3518 29.7441 45.3518C30.5881 45.3518 31.4321 45.0308 32.0741 44.3888L42.3771 34.0878Z" fill="#1F1F1F"/>
</svg>
