<svg width="48" height="60" viewBox="0 0 48 60" fill="none" xmlns="http://www.w3.org/2000/svg">
<path d="M32.914 0H0.5V60H47.5V14.586L32.914 0ZM33.5 3.414L44.086 14H33.5V3.414ZM2.5 58V2H31.5V16H45.5V58H2.5Z" fill="#1F1F1F"/>
<path d="M10.5 17H19.5C20.053 17 20.5 16.553 20.5 16C20.5 15.447 20.053 15 19.5 15H10.5C9.947 15 9.5 15.447 9.5 16C9.5 16.553 9.947 17 10.5 17Z" fill="#1F1F1F"/>
<path d="M10.5 25H15.5C16.053 25 16.5 24.553 16.5 24C16.5 23.447 16.053 23 15.5 23H10.5C9.947 23 9.5 23.447 9.5 24C9.5 24.553 9.947 25 10.5 25Z" fill="#1F1F1F"/>
<path d="M25.5 25H32.5C33.053 25 33.5 24.553 33.5 24C33.5 23.447 33.053 23 32.5 23H25.5C24.947 23 24.5 23.447 24.5 24C24.5 24.553 24.947 25 25.5 25Z" fill="#1F1F1F"/>
<path d="M19.79 23.3C19.6 23.48 19.5 23.739 19.5 24C19.5 24.26 19.6 24.52 19.79 24.71C19.979 24.89 20.24 25 20.5 25C20.76 25 21.02 24.899 21.21 24.7C21.39 24.519 21.5 24.26 21.5 24C21.5 23.739 21.39 23.479 21.21 23.29C20.83 22.92 20.16 22.92 19.79 23.3Z" fill="#1F1F1F"/>
<path d="M37.5 25C37.76 25 38.02 24.89 38.21 24.71C38.39 24.52 38.5 24.26 38.5 24C38.5 23.739 38.39 23.479 38.21 23.29C37.83 22.92 37.17 22.92 36.79 23.29C36.609 23.479 36.5 23.739 36.5 24C36.5 24.26 36.609 24.52 36.79 24.71C36.979 24.89 37.24 25 37.5 25Z" fill="#1F1F1F"/>
<path d="M22.5 31H15.5C14.947 31 14.5 31.447 14.5 32C14.5 32.553 14.947 33 15.5 33H22.5C23.053 33 23.5 32.553 23.5 32C23.5 31.447 23.053 31 22.5 31Z" fill="#1F1F1F"/>
<path d="M10.5 33C10.76 33 11.02 32.89 11.21 32.71C11.399 32.52 11.5 32.26 11.5 32C11.5 31.739 11.399 31.479 11.21 31.29C10.83 30.92 10.17 30.92 9.79 31.29C9.6 31.479 9.5 31.729 9.5 32C9.5 32.26 9.609 32.52 9.79 32.71C9.979 32.89 10.24 33 10.5 33Z" fill="#1F1F1F"/>
<path d="M13.645 40.166C11.455 41.306 10.718 43.487 10.449 45.748C10.035 45.401 9.621 45.055 9.207 44.708C8.227 43.887 6.805 45.294 7.793 46.123C8.728 46.906 9.664 47.69 10.599 48.474C11.257 49.025 12.276 48.677 12.306 47.767C12.379 45.601 12.481 43.025 14.654 41.894C15.796 41.299 14.786 39.572 13.645 40.166Z" fill="#1F1F1F"/>
<path d="M20.295 44.155C18.91 44.476 17.334 46.238 16.359 44.261C15.79 43.107 14.064 44.119 14.632 45.27C15.149 46.319 16.132 47.054 17.301 47.202C17.895 47.277 18.432 47.193 18.989 46.976C19.398 46.817 20.926 45.668 21.256 46.259C21.884 47.383 23.612 46.375 22.983 45.25C22.446 44.288 21.359 43.908 20.295 44.155Z" fill="#1F1F1F"/>
<path d="M40.745 34.513C40.512 34.43 40.409 34.254 40.368 34.156C40.328 34.058 40.275 33.86 40.382 33.636C40.867 32.614 40.664 31.437 39.864 30.636C39.063 29.837 37.885 29.633 36.865 30.118C36.639 30.225 36.441 30.172 36.344 30.132C36.245 30.091 36.07 29.988 35.987 29.755C35.608 28.688 34.632 28 33.5 28C32.368 28 31.392 28.688 31.013 29.755C30.93 29.988 30.754 30.091 30.656 30.132C30.559 30.172 30.36 30.226 30.136 30.118C29.115 29.635 27.938 29.836 27.136 30.636C26.336 31.437 26.133 32.614 26.618 33.635C26.724 33.86 26.672 34.058 26.632 34.156C26.591 34.255 26.488 34.43 26.255 34.513C25.188 34.892 24.5 35.868 24.5 37C24.5 38.132 25.188 39.108 26.255 39.487C26.488 39.57 26.591 39.746 26.632 39.844C26.672 39.942 26.725 40.14 26.618 40.364C26.133 41.386 26.336 42.563 27.136 43.364C27.523 43.75 27.998 43.994 28.5 44.092V56.414L33.5 51.414L38.5 56.414V44.091C39.002 43.994 39.478 43.751 39.864 43.364C40.664 42.563 40.867 41.386 40.382 40.365C40.276 40.14 40.328 39.942 40.368 39.844C40.409 39.745 40.512 39.57 40.745 39.487C41.812 39.108 42.5 38.132 42.5 37C42.5 35.868 41.812 34.892 40.745 34.513ZM33.5 48.586L30.5 51.586V43.828C30.509 43.829 30.518 43.83 30.526 43.832C30.576 43.842 30.624 43.854 30.656 43.868C30.705 43.889 30.774 43.925 30.84 43.984C30.907 44.044 30.972 44.128 31.013 44.245C31.392 45.312 32.368 46 33.5 46C34.632 46 35.608 45.312 35.987 44.245C36.028 44.128 36.093 44.044 36.16 43.984C36.227 43.924 36.295 43.888 36.344 43.868C36.376 43.855 36.423 43.842 36.473 43.832C36.481 43.831 36.49 43.829 36.499 43.828V51.585L33.5 48.586ZM40.075 37.603C39.373 37.852 38.806 38.39 38.521 39.079C38.235 39.768 38.254 40.55 38.575 41.225C38.75 41.592 38.546 41.855 38.449 41.951C38.37 42.032 38.168 42.175 37.888 42.121L37.668 42.052C37.577 42.011 37.481 41.989 37.387 41.96C37.317 41.938 37.249 41.908 37.178 41.891C37.08 41.869 36.979 41.863 36.879 41.852C36.798 41.843 36.719 41.826 36.638 41.824C36.541 41.822 36.445 41.838 36.349 41.846C36.266 41.854 36.182 41.852 36.099 41.868C35.922 41.901 35.748 41.952 35.579 42.022C35.579 42.022 35.578 42.022 35.577 42.023C35.533 42.041 35.496 42.07 35.453 42.09C35.329 42.15 35.204 42.209 35.091 42.287C34.956 42.38 34.833 42.49 34.718 42.606C34.705 42.619 34.688 42.629 34.675 42.643C34.423 42.908 34.226 43.226 34.101 43.577C33.967 43.959 33.636 44 33.5 44C33.364 44 33.033 43.959 32.897 43.575C32.772 43.223 32.575 42.906 32.323 42.641C32.313 42.63 32.3 42.623 32.289 42.612C32.171 42.492 32.045 42.381 31.906 42.285C31.798 42.21 31.677 42.154 31.558 42.096C31.511 42.073 31.469 42.041 31.42 42.021C31.419 42.021 31.419 42.02 31.419 42.02C31.398 42.011 31.376 42.009 31.355 42.001C31.209 41.945 31.061 41.898 30.91 41.869C30.788 41.845 30.667 41.84 30.545 41.833C30.5 41.831 30.455 41.82 30.41 41.82C30.407 41.82 30.405 41.821 30.402 41.821C30.028 41.82 29.665 41.893 29.355 42.044L29.128 42.115C28.841 42.18 28.632 42.032 28.55 41.949C28.453 41.853 28.249 41.591 28.424 41.222C28.744 40.548 28.764 39.767 28.478 39.077C28.193 38.389 27.626 37.85 26.924 37.601C26.541 37.467 26.5 37.136 26.5 37C26.5 36.864 26.541 36.533 26.925 36.397C27.627 36.148 28.194 35.61 28.479 34.921C28.765 34.232 28.746 33.45 28.425 32.775C28.25 32.408 28.454 32.145 28.551 32.049C28.647 31.952 28.908 31.75 29.278 31.923C29.951 32.243 30.733 32.265 31.423 31.977C32.111 31.692 32.65 31.125 32.899 30.423C33.033 30.041 33.364 30 33.5 30C33.636 30 33.967 30.041 34.103 30.425C34.353 31.127 34.89 31.694 35.579 31.979C36.267 32.267 37.05 32.246 37.725 31.925C38.091 31.748 38.356 31.954 38.451 32.051C38.548 32.147 38.752 32.409 38.577 32.778C38.257 33.452 38.237 34.233 38.523 34.923C38.808 35.611 39.375 36.15 40.077 36.399C40.459 36.533 40.5 36.864 40.5 37C40.5 37.136 40.459 37.467 40.075 37.603Z" fill="#1F1F1F"/>
</svg>
