<svg width="60" height="60" viewBox="0 0 60 60" fill="none" xmlns="http://www.w3.org/2000/svg">
<path d="M29.9999 0C29.4469 0 28.9999 0.447 28.9999 1V14.292C28.9999 14.845 29.4469 15.292 29.9999 15.292C30.5529 15.292 30.9999 14.845 30.9999 14.292V2.018C45.9789 2.546 57.9999 14.896 57.9999 30C57.9999 45.439 45.4389 58 29.9999 58C14.5609 58 1.99988 45.439 1.99988 30C1.99988 22.54 4.89988 15.521 10.1659 10.236C10.5569 9.844 10.5549 9.212 10.1639 8.822C9.77188 8.434 9.13988 8.434 8.74988 8.824C3.10688 14.486 -0.00012207 22.007 -0.00012207 30C-0.00012207 46.542 13.4579 60 29.9999 60C46.5419 60 59.9999 46.542 59.9999 30C59.9999 13.458 46.5419 0 29.9999 0Z" fill="#1F1F1F"/>
<path d="M28.5549 33.5322C29.1689 34.3772 30.1179 34.9082 31.1589 34.9892C31.2519 34.9972 31.3449 35.0002 31.4369 35.0002C32.3789 35.0002 33.2849 34.6282 33.9559 33.9562C34.6929 33.2192 35.0699 32.2002 34.9889 31.1592C34.9079 30.1182 34.3769 29.1692 33.5299 28.5532L20.5859 19.1902C20.1899 18.9042 19.6409 18.9482 19.2929 19.2942C18.9449 19.6422 18.9019 20.1902 19.1889 20.5872L28.5549 33.5322ZM32.3549 30.1722C32.7259 30.4422 32.9589 30.8592 32.9949 31.3162C33.0309 31.7722 32.8649 32.2192 32.5419 32.5432C32.2179 32.8662 31.7629 33.0312 31.3139 32.9962C30.8579 32.9612 30.4409 32.7272 30.1729 32.3592L24.4599 24.4622L32.3549 30.1722Z" fill="#1F1F1F"/>
</svg>
