<svg xmlns="http://www.w3.org/2000/svg" width="24" height="21" viewBox="0 0 24 21"><g><g><path fill="#acacac" d="M20.542 10.425l-8.619 8.584-8.599-8.599a4.965 4.965 0 0 1-1.466-3.535c0-1.336.516-2.59 1.462-3.53a4.958 4.958 0 0 1 3.525-1.461c1.336 0 2.595.52 3.54 1.466l1.09 1.09a.65.65 0 0 0 .921 0l1.08-1.08a4.973 4.973 0 0 1 3.535-1.467c1.332 0 2.585.521 3.53 1.462a4.96 4.96 0 0 1 1.462 3.535 4.94 4.94 0 0 1-1.461 3.535zm.926-7.992A6.244 6.244 0 0 0 17.016.591a6.26 6.26 0 0 0-4.456 1.847l-.622.622-.632-.631A6.276 6.276 0 0 0 6.846.577c-1.68 0-3.261.656-4.448 1.842A6.236 6.236 0 0 0 .556 6.875c0 1.683.66 3.26 1.852 4.452l9.057 9.057a.65.65 0 0 0 .916.005l9.077-9.043a6.26 6.26 0 0 0 1.847-4.456 6.231 6.231 0 0 0-1.837-4.457z"/></g></g></svg>