<svg width="18" height="16" viewBox="0 0 18 16" fill="none" xmlns="http://www.w3.org/2000/svg">
<path fill-rule="evenodd" clip-rule="evenodd" d="M13.36 3.44C13.36 3.92 13.68 4.24 14.16 4.24C14.56 4.24 14.96 3.92 14.96 3.44V2.95996H16.4V6.07998H1.6V2.95996H3.12002V3.44C3.12002 3.92 3.44002 4.24 3.92002 4.24C4.40002 4.24 4.72002 3.92 4.72002 3.44V2.95996H13.36V3.44ZM1.6 6.87998V14.4H16.4V6.87998H1.6ZM0.8 1.35996H3.12002V0.8C3.12002 0.32 3.44002 0 3.92002 0C4.40002 0 4.72002 0.32 4.72002 0.8V1.35996H13.36V0.8C13.36 0.32 13.68 0 14.16 0C14.64 0 14.96 0.32 14.96 0.8V1.35996H17.2C17.68 1.35996 18 1.67996 18 2.15996V15.2C18 15.68 17.68 16 17.2 16H0.8C0.32 16 0 15.68 0 15.2V2.15996C0 1.67996 0.32 1.35996 0.8 1.35996ZM4.56001 8.47998H2.96001V9.99998H4.56001V8.47998ZM5.67998 8.47998H7.19998V9.99998H5.67998V8.47998ZM9.92 8.47998H8.4V9.99998H9.92V8.47998ZM11.04 8.47998H12.64V9.99998H11.04V8.47998ZM15.28 8.47998H13.76V9.99998H15.28V8.47998ZM2.96001 10.96H4.56001V12.56H2.96001V10.96ZM7.19998 10.96H5.67998V12.56H7.19998V10.96ZM8.4 10.96H9.92V12.56H8.4V10.96ZM12.64 10.96H11.04V12.56H12.64V10.96ZM13.76 10.96H15.28V12.56H13.76V10.96Z" fill="#EF7D00" fill-opacity="0.7"/>
</svg>
