<svg width="14" height="12" viewBox="0 0 14 12" fill="none" xmlns="http://www.w3.org/2000/svg">
<path fill-rule="evenodd" clip-rule="evenodd" d="M10.6931 1.99998L10.6963 2L10.6989 1.99998H13.0009V4H1.00091V1.99998H3.30053L3.30371 2L3.30637 1.99998H10.6931ZM1.00091 4.62222V11H13.0009V4.62222H1.00091ZM0.623134 1.05772H3V0.377358C3 0.150943 3.12148 0 3.30371 0C3.48594 0 3.60742 0.150943 3.60742 0.377358V1.05772H10.3926V0.377358C10.3926 0.150943 10.5141 0 10.6963 0C10.8785 0 11 0.150943 11 0.377358V1.05772H13.3787C13.752 1.05772 14.0009 1.30661 14.0009 1.67995V11.3704C14.0009 11.7437 13.752 11.9926 13.3787 11.9926H0.622222C0.248889 11.9926 0 11.7437 0 11.3704L0.000911593 1.67995C0.000911593 1.30661 0.2498 1.05772 0.623134 1.05772ZM3.54718 6H2.30273V7.18222H3.54718V6ZM4.41992 6H5.60214V7.18222H4.41992V6ZM7.71543 6H6.5332V7.18222H7.71543V6ZM8.58789 6H9.83234V7.18222H8.58789V6ZM11.8853 6H10.7031V7.18222H11.8853V6ZM2.30273 7.92883H3.54718V9.17328H2.30273V7.92883ZM5.60214 7.92883H4.41992V9.17328H5.60214V7.92883ZM6.5332 7.92883H7.71543V9.17328H6.5332V7.92883ZM9.83234 7.92883H8.58789V9.17328H9.83234V7.92883ZM10.7031 7.92883H11.8853V9.17328H10.7031V7.92883Z" fill="#1B1C1D"/>
</svg>
