<svg width="15" height="14" viewBox="0 0 15 14" fill="none" xmlns="http://www.w3.org/2000/svg">
<path fill-rule="evenodd" clip-rule="evenodd" d="M7.03004 14C3.12446 14 0 10.8755 0 7.03004V7.02997C4.13686e-05 3.12442 3.12449 0 7.03004 0C10.8755 0 14.0601 3.12446 14.0601 7.03004C14 10.8755 10.8755 14 7.03004 14ZM3.8589 2.12529C3.16388 2.57244 2.5725 3.16382 2.12533 3.85883L2.40344 4.0257C2.52362 4.08578 2.5837 4.26604 2.52362 4.4463C2.46353 4.50638 2.40344 4.56647 2.28327 4.56647C2.22319 4.56647 2.1631 4.56647 2.1631 4.50638L1.82092 4.39232C1.50161 5.02828 1.29508 5.73268 1.22671 6.48014C1.43496 6.5689 1.56223 6.76762 1.56223 7.02997C1.56223 7.24889 1.43461 7.46781 1.22586 7.57048C1.29279 8.31536 1.49691 9.01763 1.81313 9.6522C1.82787 9.63885 1.84435 9.62599 1.8627 9.61376L2.16313 9.4335C2.2833 9.37341 2.46356 9.37341 2.58373 9.55367C2.64382 9.67384 2.64382 9.8541 2.46356 9.97427L2.16313 10.1545L2.11176 10.1801C2.55607 10.8773 3.14505 11.4713 3.8381 11.9214C3.84032 11.9133 3.84277 11.9052 3.84547 11.8971L4.02572 11.5967C4.08581 11.4765 4.26607 11.4164 4.44632 11.4765C4.5665 11.5366 4.62658 11.7168 4.5665 11.8971L4.38624 12.1975C4.38101 12.208 4.37533 12.218 4.36923 12.2275C5.00523 12.5504 5.71033 12.7602 6.45897 12.8314C6.53373 12.5889 6.74409 12.4377 7.03006 12.4377C7.31568 12.4377 7.52587 12.5885 7.60088 12.8305C8.33259 12.7587 9.02737 12.5505 9.65788 12.2308L9.49364 11.9571C9.43356 11.8369 9.43356 11.6567 9.61381 11.5365C9.73399 11.4764 9.91424 11.4764 10.0344 11.6567L10.1938 11.9224C10.8981 11.466 11.4995 10.8615 11.9518 10.1514L11.6567 9.9743C11.5365 9.91421 11.4764 9.73395 11.5365 9.5537C11.5966 9.43353 11.7769 9.37344 11.9571 9.43353L12.2559 9.61276C12.5612 8.99724 12.7611 8.31908 12.8308 7.60085C12.5887 7.52591 12.4378 7.31567 12.4378 7.02997C12.4378 6.74426 12.5887 6.53403 12.8308 6.45908C12.7565 5.6941 12.5346 4.97456 12.1948 4.32777L11.8971 4.50642C11.837 4.56651 11.7769 4.56651 11.7168 4.56651C11.5966 4.56651 11.5365 4.50642 11.4765 4.38625C11.4164 4.26608 11.4164 4.08582 11.5966 3.96565L11.8785 3.7965C11.4258 3.12047 10.8358 2.54545 10.1504 2.10982L9.97426 2.40344C9.97426 2.52362 9.85409 2.5837 9.73392 2.5837C9.67383 2.5837 9.61374 2.5837 9.61374 2.52362C9.49357 2.46353 9.43349 2.28327 9.49357 2.10302L9.65784 1.82924C9.01854 1.50511 8.31315 1.29556 7.57019 1.22666C7.46735 1.43493 7.24871 1.56223 7.03006 1.56223C6.76771 1.56223 6.569 1.43495 6.48023 1.22671C5.73424 1.29492 5.03114 1.50076 4.39615 1.819L4.56657 2.10302C4.62665 2.22319 4.62665 2.40344 4.44639 2.52362C4.38631 2.5837 4.32622 2.5837 4.26614 2.5837C4.14596 2.5837 4.08588 2.52362 4.02579 2.40344L3.8589 2.12529ZM7.27287 7.56837C7.47364 7.4648 7.63092 7.24742 7.63092 7.03004V2.70386C7.63092 2.34335 7.39058 2.103 7.03006 2.103C6.66955 2.103 6.4292 2.34335 6.4292 2.70386V6.72963L4.74674 8.4121C4.5064 8.65244 4.5064 9.01295 4.74674 9.2533C4.86691 9.37347 4.98709 9.43355 5.16734 9.43355C5.3476 9.43355 5.52786 9.37347 5.58794 9.2533L7.27287 7.56837Z" fill="#EF7D00" fill-opacity="0.7"/>
</svg>
