<svg width="15" height="15" viewBox="0 0 15 15" fill="none" xmlns="http://www.w3.org/2000/svg">
<path d="M13.7487 6.80233L11.0452 5.87209L9.95511 6.49709V7.5V8.48837L11.0452 9.11337L13.7487 8.18314C13.9377 8.11046 14.1557 8.22674 14.2138 8.4157C14.2865 8.60465 14.1702 8.82267 13.9813 8.88081L11.8882 9.59302L13.8505 10.7267C14.0249 10.8285 14.083 11.061 13.9813 11.2355C13.8795 11.4099 13.647 11.468 13.4725 11.3663L11.5103 10.2326L11.9318 12.3983C11.9755 12.6017 11.8446 12.7907 11.6412 12.8343C11.4377 12.8779 11.2487 12.7471 11.2051 12.5436L10.6528 9.73837L9.56266 9.11337L8.73417 9.59302L8.71964 9.60756L7.87662 10.1017V11.3517L10.0278 13.2267C10.1877 13.3576 10.2022 13.5901 10.0568 13.75C9.92603 13.9099 9.69348 13.9244 9.53359 13.7791L7.87662 12.3256V14.6221C7.87662 14.8256 7.71673 15 7.49871 15C7.29522 15 7.1208 14.8401 7.1208 14.6221V12.3547L5.46383 13.7936C5.30394 13.9244 5.07138 13.9099 4.94057 13.7645C4.80976 13.6047 4.82429 13.3721 4.96964 13.2413L7.1208 11.3663V10.1163L6.27778 9.62209L5.43476 9.12791L4.34464 9.75291L3.79231 12.5581C3.74871 12.7616 3.55976 12.8924 3.35627 12.8488C3.15278 12.8052 3.02197 12.6163 3.06557 12.4128L3.48708 10.2471L1.52487 11.3808C1.35045 11.4826 1.1179 11.4244 1.01615 11.25C0.914407 11.0756 0.972546 10.843 1.14697 10.7413L3.10917 9.60756L1.01615 8.89535C0.827198 8.82267 0.710919 8.61919 0.783593 8.43023C0.856267 8.24128 1.05976 8.125 1.24871 8.19767L3.9522 9.12791L5.04231 8.50291V7.5V6.51163H5.05685L3.96673 5.88663L1.26324 6.81686C1.07429 6.88953 0.856267 6.77326 0.798128 6.5843C0.725453 6.39535 0.841733 6.17733 1.03069 6.11919L3.12371 5.40698L1.1615 4.27325C0.987081 4.17151 0.928942 3.93895 1.03069 3.76453C1.13243 3.59011 1.36499 3.53198 1.53941 3.63372L3.50162 4.76744L3.0801 2.60174C3.0365 2.39825 3.16731 2.2093 3.3708 2.1657C3.57429 2.12209 3.76324 2.25291 3.80685 2.45639L4.35917 5.26163L5.44929 5.88663L6.30685 5.39244L7.14987 4.89826V3.64826L4.99871 1.77326C4.83883 1.64244 4.82429 1.40988 4.96964 1.25C5.10045 1.09012 5.33301 1.07558 5.4929 1.22093L7.14987 2.67442V0.377906C7.14987 0.174417 7.30976 -9.53674e-07 7.52778 -9.53674e-07C7.73127 -9.53674e-07 7.90569 0.159883 7.90569 0.377906V2.64535L9.56266 1.19186C9.72255 1.06105 9.95511 1.07558 10.0859 1.22093C10.2167 1.38081 10.2022 1.61337 10.0568 1.74419L7.87662 3.63372V4.88372L8.71964 5.37791L9.56266 5.87209L10.6528 5.24709L11.2051 2.44186C11.2487 2.23837 11.4377 2.10756 11.6412 2.15116C11.8446 2.19477 11.9755 2.38372 11.9318 2.58721L11.5103 4.75291L13.4725 3.61918C13.647 3.51744 13.8795 3.57558 13.9813 3.75C14.083 3.92442 14.0249 4.15698 13.8505 4.25872L11.8882 5.39244L13.9813 6.10465C14.1702 6.17733 14.2865 6.38081 14.2138 6.56977C14.1412 6.75872 13.9377 6.875 13.7487 6.80233ZM9.17022 7.5V6.51163L8.3272 6.01744L7.49871 5.53779L6.64115 6.03198L5.79813 6.52616V7.5V8.48837L6.64115 8.98256L7.48418 9.47674L8.3272 8.98256L8.34173 8.96802L9.17022 8.48837V7.5Z" fill="#1B1C1D"/>
</svg>
