<svg width="44" height="37" viewBox="0 0 44 37" fill="none" xmlns="http://www.w3.org/2000/svg">
<mask id="path-1-outside-1" maskUnits="userSpaceOnUse" x="9.62487" y="-0.0204965" width="34.8014" height="28.7987" fill="black">
<rect fill="white" x="9.62487" y="-0.0204965" width="34.8014" height="28.7987"/>
<path fill-rule="evenodd" clip-rule="evenodd" d="M17.3398 1.51661C16.8113 1.35642 16.253 1.65503 16.0928 2.18358L15.2385 5.00222L41.6663 13.0118L42.5206 10.1932C42.6808 9.66464 42.3822 9.10631 41.8536 8.94612L17.3398 1.51661ZM40.9035 15.5288L14.4757 7.51916L11.3331 17.8881C11.1729 18.4166 11.4715 18.975 12.0001 19.1351L36.5139 26.5647C37.0424 26.7248 37.6007 26.4262 37.7609 25.8977L40.9035 15.5288Z"/>
</mask>
<path fill-rule="evenodd" clip-rule="evenodd" d="M17.3398 1.51661C16.8113 1.35642 16.253 1.65503 16.0928 2.18358L15.2385 5.00222L41.6663 13.0118L42.5206 10.1932C42.6808 9.66464 42.3822 9.10631 41.8536 8.94612L17.3398 1.51661ZM40.9035 15.5288L14.4757 7.51916L11.3331 17.8881C11.1729 18.4166 11.4715 18.975 12.0001 19.1351L36.5139 26.5647C37.0424 26.7248 37.6007 26.4262 37.7609 25.8977L40.9035 15.5288Z" fill="white"/>
<path d="M17.3398 1.51661L17.0498 2.47362L17.3398 1.51661ZM15.2385 5.00222L14.2815 4.71217L13.9914 5.66919L14.9485 5.95923L15.2385 5.00222ZM41.6663 13.0118L41.3763 13.9688L42.3333 14.2589L42.6233 13.3019L41.6663 13.0118ZM41.8536 8.94612L42.1437 7.98911L41.8536 8.94612ZM40.9035 15.5288L41.8605 15.8188L42.1506 14.8618L41.1935 14.5717L40.9035 15.5288ZM14.4757 7.51916L14.7657 6.56214L13.8087 6.2721L13.5187 7.22911L14.4757 7.51916ZM12.0001 19.1351L11.71 20.0922L12.0001 19.1351ZM36.5139 26.5647L36.8039 25.6076L36.5139 26.5647ZM17.0498 2.47362L17.0498 2.47362L17.6299 0.559596C16.5728 0.23922 15.4561 0.836444 15.1358 1.89353L17.0498 2.47362ZM16.1955 5.29227L17.0498 2.47362L15.1358 1.89353L14.2815 4.71217L16.1955 5.29227ZM14.9485 5.95923L41.3763 13.9688L41.9564 12.0548L15.5286 4.04521L14.9485 5.95923ZM41.5636 9.90313L40.7093 12.7218L42.6233 13.3019L43.4776 10.4832L41.5636 9.90313ZM41.5636 9.90313L41.5636 9.90313L43.4776 10.4832C43.798 9.42614 43.2007 8.30948 42.1437 7.98911L41.5636 9.90313ZM17.0498 2.47362L41.5636 9.90313L42.1437 7.98911L17.6299 0.559596L17.0498 2.47362ZM41.1935 14.5717L14.7657 6.56214L14.1856 8.47617L40.6134 16.4858L41.1935 14.5717ZM12.2901 18.1781L15.4327 7.8092L13.5187 7.22911L10.3761 17.598L12.2901 18.1781ZM12.2901 18.1781L12.2901 18.1781L10.3761 17.598C10.0557 18.6551 10.653 19.7718 11.71 20.0922L12.2901 18.1781ZM36.8039 25.6076L12.2901 18.1781L11.71 20.0922L36.2238 27.5217L36.8039 25.6076ZM36.8039 25.6076L36.2238 27.5217C37.2809 27.842 38.3976 27.2448 38.7179 26.1877L36.8039 25.6076ZM39.9465 15.2387L36.8039 25.6076L38.7179 26.1877L41.8605 15.8188L39.9465 15.2387Z" fill="#EF7D00" mask="url(#path-1-outside-1)"/>
<rect x="14.5156" y="4.68359" width="29.2514" height="2.30932" transform="rotate(16.8607 14.5156 4.68359)" fill="#EF7D00"/>
<mask id="path-4-outside-2" maskUnits="userSpaceOnUse" x="0.579562" y="10.9259" width="33.7106" height="26.7786" fill="black">
<rect fill="white" x="0.579562" y="10.9259" width="33.7106" height="26.7786"/>
<path fill-rule="evenodd" clip-rule="evenodd" d="M2.74377 17.7257C2.20356 17.8405 1.85871 18.3715 1.97354 18.9117L2.58595 21.7928L29.5973 16.0512L30.1441 18.6237L3.13277 24.3653L5.38544 34.9631C5.50027 35.5033 6.03129 35.8481 6.57151 35.7333L31.6266 30.4075C32.1669 30.2927 32.5117 29.7617 32.3969 29.2215L28.985 13.1701C28.8701 12.6299 28.3391 12.2851 27.7989 12.3999L2.74377 17.7257Z"/>
</mask>
<path fill-rule="evenodd" clip-rule="evenodd" d="M2.74377 17.7257C2.20356 17.8405 1.85871 18.3715 1.97354 18.9117L2.58595 21.7928L29.5973 16.0512L30.1441 18.6237L3.13277 24.3653L5.38544 34.9631C5.50027 35.5033 6.03129 35.8481 6.57151 35.7333L31.6266 30.4075C32.1669 30.2927 32.5117 29.7617 32.3969 29.2215L28.985 13.1701C28.8701 12.6299 28.3391 12.2851 27.7989 12.3999L2.74377 17.7257Z" fill="white"/>
<path d="M2.58595 21.7928L1.6078 22.0007L1.81572 22.9789L2.79386 22.7709L2.58595 21.7928ZM29.5973 16.0512L30.5754 15.8433L30.3675 14.8651L29.3894 15.0731L29.5973 16.0512ZM30.1441 18.6237L30.352 19.6019L31.3302 19.394L31.1223 18.4158L30.1441 18.6237ZM3.13277 24.3653L2.92485 23.3872L1.9467 23.5951L2.15462 24.5732L3.13277 24.3653ZM5.38544 34.9631L4.4073 35.171L5.38544 34.9631ZM2.95169 18.7038L2.95169 18.7038L2.53585 16.7475C1.45542 16.9772 0.765737 18.0392 0.995396 19.1197L2.95169 18.7038ZM3.56409 21.5849L2.95169 18.7038L0.995396 19.1197L1.6078 22.0007L3.56409 21.5849ZM2.79386 22.7709L29.8052 17.0294L29.3894 15.0731L2.37803 20.8147L2.79386 22.7709ZM28.6191 16.2591L29.166 18.8316L31.1223 18.4158L30.5754 15.8433L28.6191 16.2591ZM29.9362 17.6456L2.92485 23.3872L3.34068 25.3435L30.352 19.6019L29.9362 17.6456ZM6.36359 34.7551L4.11091 24.1574L2.15462 24.5732L4.4073 35.171L6.36359 34.7551ZM6.36359 34.7551L6.36359 34.7551L4.4073 35.171C4.63696 36.2514 5.69899 36.9411 6.77942 36.7114L6.36359 34.7551ZM31.4187 29.4294L6.36359 34.7551L6.77942 36.7114L31.8346 31.3857L31.4187 29.4294ZM31.4187 29.4294L31.8346 31.3857C32.915 31.156 33.6047 30.094 33.375 29.0135L31.4187 29.4294ZM28.0068 13.3781L31.4187 29.4294L33.375 29.0135L29.9631 12.9622L28.0068 13.3781ZM28.0068 13.3781L28.0068 13.3781L29.9631 12.9622C29.7335 11.8818 28.6714 11.1921 27.591 11.4218L28.0068 13.3781ZM2.95169 18.7038L28.0068 13.3781L27.591 11.4218L2.53585 16.7475L2.95169 18.7038Z" fill="#EF7D00" mask="url(#path-4-outside-2)"/>
<rect x="1.80078" y="21.8633" width="29.2514" height="2.30932" transform="rotate(-12.0003 1.80078 21.8633)" fill="#EF7D00"/>
<rect x="6.38672" y="33.2305" width="6.92797" height="0.769774" transform="rotate(-12 6.38672 33.2305)" fill="#EF7D00"/>
</svg>
