<svg width="26" height="26" viewBox="0 0 26 26" fill="none" xmlns="http://www.w3.org/2000/svg">
<path d="M13 26C20.1797 26 26 20.1797 26 13C26 5.8203 20.1797 0 13 0C5.8203 0 0 5.8203 0 13C0 20.1797 5.8203 26 13 26Z" fill="#F0F0F0"/>
<path d="M2.68872 5.08594C1.66756 6.41453 0.897566 7.94584 0.449219 9.60938H7.21216L2.68872 5.08594Z" fill="#0052B4"/>
<path d="M25.5519 9.60933C25.1036 7.94584 24.3335 6.41453 23.3124 5.08594L18.7891 9.60933H25.5519Z" fill="#0052B4"/>
<path d="M0.449219 16.3945C0.897617 18.058 1.66761 19.5893 2.68872 20.9179L7.21201 16.3945H0.449219Z" fill="#0052B4"/>
<path d="M20.914 2.68877C19.5854 1.66761 18.0542 0.897617 16.3906 0.449219V7.21211L20.914 2.68877Z" fill="#0052B4"/>
<path d="M5.08594 23.3124C6.41453 24.3335 7.94584 25.1035 9.60933 25.5519V18.7891L5.08594 23.3124Z" fill="#0052B4"/>
<path d="M9.60928 0.449219C7.94578 0.897617 6.41448 1.66761 5.08594 2.68872L9.60928 7.21206V0.449219Z" fill="#0052B4"/>
<path d="M16.3945 25.5519C18.058 25.1035 19.5893 24.3335 20.9179 23.3124L16.3945 18.7891V25.5519Z" fill="#0052B4"/>
<path d="M18.7891 16.3945L23.3124 20.9179C24.3335 19.5894 25.1036 18.058 25.5519 16.3945H18.7891Z" fill="#0052B4"/>
<path d="M25.89 11.3044H14.6957H14.6957V0.110043C14.1406 0.0377813 13.5747 0 13 0C12.4252 0 11.8594 0.0377813 11.3044 0.110043V11.3043V11.3043H0.110043C0.0377813 11.8594 0 12.4253 0 13C0 13.5748 0.0377813 14.1406 0.110043 14.6956H11.3043H11.3043V25.89C11.8594 25.9622 12.4252 26 13 26C13.5747 26 14.1406 25.9623 14.6956 25.89V14.6957V14.6957H25.89C25.9622 14.1406 26 13.5748 26 13C26 12.4253 25.9622 11.8594 25.89 11.3044Z" fill="#D80027"/>
<path d="M16.3906 16.3907L22.1917 22.1917C22.4585 21.925 22.713 21.6462 22.9558 21.3571L17.9893 16.3906H16.3906V16.3907Z" fill="#D80027"/>
<path d="M9.60969 16.3906H9.60959L3.80859 22.1916C4.0753 22.4584 4.35414 22.7129 4.64318 22.9558L9.60969 17.9892V16.3906Z" fill="#D80027"/>
<path d="M9.60817 9.6098V9.6097L3.80713 3.80859C3.54032 4.0753 3.2858 4.35414 3.04297 4.64318L8.00953 9.60975H9.60817V9.6098Z" fill="#D80027"/>
<path d="M16.3906 9.60822L22.1917 3.80707C21.925 3.54027 21.6462 3.28575 21.3571 3.04297L16.3906 8.00953V9.60822V9.60822Z" fill="#D80027"/>
</svg>
