<svg width="12" height="12" viewBox="0 0 12 12" fill="none" xmlns="http://www.w3.org/2000/svg">
<path d="M9.98322 2.08643C9.06712 0.76057 7.61523 0 6.00013 0C4.38503 0 2.93315 0.76057 2.01704 2.08643C1.10544 3.40559 0.894951 5.07567 1.45286 6.55118C1.60208 6.95412 1.83929 7.34559 2.15622 7.71244L5.6807 11.8523C5.76041 11.946 5.8772 12 6.00013 12C6.12306 12 6.23985 11.946 6.31956 11.8523L9.84306 7.71356C10.1614 7.34461 10.3983 6.95356 10.5463 6.55385C11.1053 5.07567 10.8948 3.40559 9.98322 2.08643ZM9.76056 6.25999C9.64644 6.56838 9.46014 6.87328 9.20713 7.16655C9.20643 7.16726 9.20573 7.16796 9.20516 7.1688L6.00013 10.9333L2.79313 7.16644C2.54026 6.87342 2.35396 6.56855 2.23872 6.2572C1.77733 5.03693 1.95243 3.65609 2.70726 2.56364C3.46445 1.4677 4.66473 0.839156 6.00013 0.839156C7.33551 0.839156 8.53565 1.46768 9.29287 2.56364C10.0478 3.65609 10.2231 5.03693 9.76056 6.25999Z" fill="white"/>
<path d="M6.00029 2.4895C4.70476 2.4895 3.65063 3.54349 3.65063 4.83916C3.65063 6.13483 4.70462 7.18882 6.00029 7.18882C7.29596 7.18882 8.34995 6.13483 8.34995 4.83916C8.34995 3.54363 7.29582 2.4895 6.00029 2.4895ZM6.00029 6.34964C5.16742 6.34964 4.48979 5.67201 4.48979 4.83914C4.48979 4.00626 5.16742 3.32863 6.00029 3.32863C6.83317 3.32863 7.51079 4.00626 7.51079 4.83914C7.51079 5.67201 6.83317 6.34964 6.00029 6.34964Z" fill="white"/>
</svg>
