<svg width="13" height="16" viewBox="0 0 13 16" fill="none" xmlns="http://www.w3.org/2000/svg">
<g clip-path="url(#clip0)">
<path d="M6.53171 16C6.40488 16 6.21463 15.9342 6.15122 15.8683C5.45366 15.2757 0 10.3374 0 6.78189C0 3.02881 2.91707 0 6.53171 0C10.1463 0 13.0634 3.02881 13.0634 6.78189C13.0634 10.3374 7.60976 15.2757 6.97561 15.8683C6.78537 15.9342 6.65854 16 6.53171 16ZM6.53171 1.31687C3.61463 1.31687 1.26829 3.75309 1.26829 6.78189C1.26829 9.08642 4.7561 12.8395 6.53171 14.4856C8.30732 12.8395 11.7951 9.08642 11.7951 6.78189C11.7317 3.75309 9.38537 1.31687 6.53171 1.31687Z" fill="#EF7D00" fill-opacity="0.7"/>
<path d="M6.53011 10.0726C4.7545 10.0726 3.35938 8.62408 3.35938 6.78046C3.35938 4.93684 4.7545 3.48828 6.53011 3.48828C8.30572 3.48828 9.70084 4.93684 9.70084 6.78046C9.70084 8.55824 8.2423 10.0726 6.53011 10.0726ZM6.53011 4.80515C5.45206 4.80515 4.62767 5.66112 4.62767 6.78046C4.62767 7.8998 5.45206 8.75577 6.53011 8.75577C7.60816 8.75577 8.43255 7.8998 8.43255 6.78046C8.43255 5.66112 7.54474 4.80515 6.53011 4.80515Z" fill="#EF7D00" fill-opacity="0.7"/>
</g>
<defs>
<clipPath id="clip0">
<rect width="13" height="16" fill="white"/>
</clipPath>
</defs>
</svg>
