<svg width="12" height="12" viewBox="0 0 12 12" fill="none" xmlns="http://www.w3.org/2000/svg">
<g clip-path="url(#clip0)">
<path d="M6.02626 4.22007C5.87307 4.22007 5.77094 4.16923 5.66882 4.06753C5.56669 3.96584 5.51562 3.86414 5.51562 3.7116C5.51562 3.55906 5.56669 3.45736 5.66882 3.35567C5.77094 3.25397 5.87307 3.20312 6.02626 3.20312C6.17946 3.20312 6.28158 3.25397 6.38371 3.35567C6.48584 3.45736 6.5369 3.55906 6.5369 3.7116C6.5369 3.86414 6.48584 4.01668 6.38371 4.06753C6.28158 4.16923 6.12839 4.22007 6.02626 4.22007ZM6.5369 5.28787V8.28787C6.5369 8.49126 6.48584 8.6438 6.38371 8.7455C6.28158 8.84719 6.17946 8.89804 6.02626 8.89804C5.87307 8.89804 5.77094 8.84719 5.66882 8.7455C5.56669 8.6438 5.51562 8.49126 5.51562 8.28787V5.33872C5.51562 5.13533 5.56669 4.98279 5.66882 4.88109C5.77094 4.7794 5.87307 4.72855 6.02626 4.72855C6.17946 4.72855 6.28158 4.7794 6.38371 4.88109C6.48584 4.93194 6.5369 5.08448 6.5369 5.28787Z" fill="#EF7D00"/>
<path d="M6.02553 12C4.44255 12 2.91064 11.3898 1.78723 10.2712C0.612766 9.1017 0 7.57627 0 6C0 4.42373 0.612766 2.89831 1.78723 1.77966C2.91064 0.61017 4.39149 0 6.02553 0C7.60851 0 9.14043 0.61017 10.2638 1.72881C12.6128 4.0678 12.6128 7.88136 10.2638 10.2203C9.14043 11.339 7.60851 12 6.02553 12ZM6.02553 1.01695C4.69787 1.01695 3.42128 1.52542 2.50213 2.49153C1.53191 3.40678 1.02128 4.67797 1.02128 6C1.02128 7.32203 1.53191 8.59322 2.50213 9.50848C3.42128 10.4237 4.69787 10.9831 6.02553 10.9831C7.35319 10.9831 8.62979 10.4746 9.54894 9.50848C11.4894 7.57627 11.4894 4.42373 9.54894 2.49153C8.57872 1.52542 7.35319 1.01695 6.02553 1.01695Z" fill="#EF7D00"/>
</g>
<defs>
<clipPath id="clip0">
<rect width="12" height="12" fill="white"/>
</clipPath>
</defs>
</svg>
