<svg width="42" height="28" viewBox="0 0 42 28" fill="none" xmlns="http://www.w3.org/2000/svg">
<path d="M40.0685 0.5625H34.1894C33.849 0.5625 33.573 0.8385 33.573 1.17894C33.573 1.51938 33.849 1.79538 34.1894 1.79538H40.0685C40.4537 1.79538 40.7671 2.10877 40.7671 2.49401V25.5077C40.7671 25.8929 40.4537 26.2063 40.0685 26.2063H1.93151C1.54627 26.2063 1.23288 25.8929 1.23288 25.5077V2.49401C1.23288 2.10877 1.54627 1.79538 1.93151 1.79538H35.1869C35.5274 1.79538 35.8034 1.51938 35.8034 1.17894C35.8034 0.8385 35.5274 0.5625 35.1869 0.5625H1.93151C0.866466 0.5625 0 1.42897 0 2.49401V25.5077C0 26.5727 0.866466 27.4392 1.93151 27.4392H40.0685C41.1335 27.4392 42 26.5727 42 25.5077V2.49401C42 1.42897 41.1335 0.5625 40.0685 0.5625Z" fill="#EF7D00"/>
<path d="M17.0138 5.7805C17.0138 5.44006 16.7378 5.16406 16.3974 5.16406H4.56175C4.22131 5.16406 3.94531 5.44006 3.94531 5.7805V18.9312C3.94531 19.2716 4.22131 19.5476 4.56175 19.5476H16.3974C16.7378 19.5476 17.0138 19.2716 17.0138 18.9312V5.7805ZM7.80833 18.3147V16.3011C7.80833 15.9158 8.12172 15.6024 8.50696 15.6024H12.4522C12.8374 15.6024 13.1508 15.9158 13.1508 16.3011V18.3147H7.80833ZM15.7809 18.3147H14.3837V16.3011C14.3837 15.236 13.5172 14.3695 12.4522 14.3695H8.50696C7.44191 14.3695 6.57545 15.236 6.57545 16.3011V18.3147H5.17819V6.39694H15.7809V18.3147Z" fill="#EF7D00"/>
<path d="M10.481 14.29C12.2711 14.29 13.7275 12.8336 13.7275 11.0434C13.7275 9.25331 12.2711 7.79688 10.481 7.79688C8.69081 7.79688 7.23438 9.25331 7.23438 11.0434C7.23438 12.8336 8.69081 14.29 10.481 14.29ZM10.481 9.02975C11.5913 9.02975 12.4946 9.93312 12.4946 11.0434C12.4946 12.1538 11.5913 13.0571 10.481 13.0571C9.37062 13.0571 8.46725 12.1538 8.46725 11.0434C8.46725 9.93312 9.37062 9.02975 10.481 9.02975Z" fill="#EF7D00"/>
<path d="M20.343 5.16406C20.0026 5.16406 19.7266 5.44006 19.7266 5.7805C19.7266 6.12094 20.0026 6.39694 20.343 6.39694H31.5211C31.8615 6.39694 32.1375 6.12094 32.1375 5.7805C32.1375 5.44006 31.8615 5.16406 31.5211 5.16406H20.343Z" fill="#EF7D00"/>
<path d="M20.343 9.686H25.6033C25.9437 9.686 26.2197 9.41 26.2197 9.06956C26.2197 8.72912 25.9437 8.45312 25.6033 8.45312H20.343C20.0026 8.45312 19.7266 8.72912 19.7266 9.06956C19.7266 9.41 20.0026 9.686 20.343 9.686Z" fill="#EF7D00"/>
<path d="M38.0555 9.06956C38.0555 8.72912 37.7795 8.45312 37.4391 8.45312H28.2336C27.8932 8.45312 27.6172 8.72912 27.6172 9.06956C27.6172 9.41 27.8932 9.686 28.2336 9.686H37.4391C37.7795 9.686 38.0555 9.41 38.0555 9.06956Z" fill="#EF7D00"/>
<path d="M34.8088 11.7422H20.343C20.0026 11.7422 19.7266 12.0182 19.7266 12.3586C19.7266 12.6991 20.0026 12.9751 20.343 12.9751H34.8088C35.1492 12.9751 35.4252 12.6991 35.4252 12.3586C35.4252 12.0182 35.1492 11.7422 34.8088 11.7422Z" fill="#EF7D00"/>
<path d="M28.8499 15.6438C28.8499 15.3033 28.5739 15.0273 28.2334 15.0273H20.343C20.0026 15.0273 19.7266 15.3033 19.7266 15.6438C19.7266 15.9842 20.0026 16.2602 20.343 16.2602H28.2334C28.5739 16.2602 28.8499 15.9842 28.8499 15.6438Z" fill="#EF7D00"/>
<path d="M34.8077 15.0273H30.8625C30.5221 15.0273 30.2461 15.3033 30.2461 15.6438C30.2461 15.9842 30.5221 16.2602 30.8625 16.2602H34.8077C35.1482 16.2602 35.4242 15.9842 35.4242 15.6438C35.4242 15.3033 35.1482 15.0273 34.8077 15.0273Z" fill="#EF7D00"/>
<path d="M20.343 18.3164C20.0026 18.3164 19.7266 18.5924 19.7266 18.9328C19.7266 19.2733 20.0026 19.5493 20.343 19.5493H24.9457C25.2862 19.5493 25.5622 19.2733 25.5622 18.9328C25.5622 18.5924 25.2862 18.3164 24.9457 18.3164H20.343Z" fill="#EF7D00"/>
<path d="M27.5735 19.5493H34.8063C35.1468 19.5493 35.4228 19.2733 35.4228 18.9328C35.4228 18.5924 35.1468 18.3164 34.8063 18.3164H27.5735C27.233 18.3164 26.957 18.5924 26.957 18.9328C26.957 19.2733 27.233 19.5493 27.5735 19.5493Z" fill="#EF7D00"/>
<path d="M4.56175 21.6055C4.22131 21.6055 3.94531 21.8815 3.94531 22.2219C3.94531 22.5623 4.22131 22.8383 4.56175 22.8383H7.84942C8.18986 22.8383 8.46586 22.5623 8.46586 22.2219C8.46586 21.8815 8.18986 21.6055 7.84942 21.6055H4.56175Z" fill="#EF7D00"/>
<path d="M16.3975 21.6055H10.4797C10.1393 21.6055 9.86328 21.8815 9.86328 22.2219C9.86328 22.5623 10.1393 22.8383 10.4797 22.8383H16.3975C16.738 22.8383 17.014 22.5623 17.014 22.2219C17.014 21.8815 16.738 21.6055 16.3975 21.6055Z" fill="#EF7D00"/>
</svg>
