<svg width="28" height="28" viewBox="0 0 28 28" fill="none" xmlns="http://www.w3.org/2000/svg">
<circle cx="14" cy="14" r="13.5" stroke="white"/>
<g clip-path="url(#clip0)">
<path d="M14.0019 15.0117C9.19447 15.0117 6.54688 17.286 6.54688 21.4156C6.54688 21.7382 6.80828 21.9996 7.13081 21.9996H20.8729C21.1954 21.9996 21.4568 21.7382 21.4568 21.4156C21.4569 17.2862 18.8093 15.0117 14.0019 15.0117Z" fill="white"/>
<path d="M13.9985 6C11.7902 6 10.125 7.69869 10.125 9.95116C10.125 12.2696 11.8626 14.1555 13.9985 14.1555C16.1343 14.1555 17.8719 12.2696 17.8719 9.95134C17.8719 7.69869 16.2068 6 13.9985 6Z" fill="white"/>
</g>
<defs>
<clipPath id="clip0">
<rect width="16" height="16" fill="white" transform="translate(6 6)"/>
</clipPath>
</defs>
</svg>
