<svg width="193" height="55" viewBox="0 0 193 55" fill="none" xmlns="http://www.w3.org/2000/svg">
<path d="M22.219 33.4006L14.9875 32.4747C14.8489 32.4574 14.7226 32.5515 14.7004 32.6901L14.3934 34.6187C14.3736 34.7449 14.2646 34.8365 14.1384 34.8365H12.299H12.2965C12.0959 34.8439 11.9375 35.0073 11.9375 35.2103C11.9375 35.4158 12.0885 35.5594 12.3039 35.5891L13.5195 35.8095L19.877 36.8418C19.8919 36.8443 19.9043 36.8443 19.9191 36.8443H21.7066C21.8328 36.8443 21.9418 36.7527 21.9616 36.6289L22.4394 33.6977C22.4641 33.5541 22.3651 33.4204 22.219 33.4006Z" fill="white"/>
<path d="M22.973 28.7403L15.7118 27.8961C15.5757 27.8812 15.4494 27.9753 15.4271 28.1115L15.1548 29.8296C15.135 29.9559 15.0261 30.0474 14.8998 30.0474H8.46301H8.46054C8.26001 30.0549 8.10156 30.2183 8.10156 30.4213C8.10156 30.6268 8.25258 30.7703 8.46796 30.8001L13.2337 31.6665L22.2402 33.2782C22.3813 33.303 22.5175 33.2089 22.5398 33.0653L23.1933 29.0398C23.2206 28.8913 23.1191 28.7576 22.973 28.7403Z" fill="white"/>
<path d="M14.0892 36.5495C14.0644 36.7054 14.1857 36.8466 14.3441 36.8466H18.7088L14.3739 36.3341C14.2377 36.3168 14.1114 36.4108 14.0892 36.5495Z" fill="white"/>
<path d="M47.9689 12.3086H38.4276C38.3484 12.3086 38.2716 12.3457 38.2221 12.4101L30.2158 22.9045C30.0994 23.058 29.8593 23.0333 29.7776 22.8575L28.2129 19.6143L27.344 17.6189L24.945 12.4571C24.9029 12.3655 24.8113 12.3086 24.7123 12.3086H23.4175H17.9339H0.423342H0.420867C0.185676 12.316 0 12.5091 0 12.7468C0 12.9894 0.178249 13.1553 0.433245 13.1899L9.50416 14.8387L26.319 17.8715C26.319 17.8715 22.9917 17.5571 20.3947 17.3144L17.4536 16.9728C17.3174 16.9579 17.1912 17.052 17.1689 17.1882L17.0253 18.0893L16.9981 18.2032C16.9783 18.3295 16.8693 18.4211 16.7431 18.4211H2.71583H2.71335C2.49302 18.4285 2.31972 18.6092 2.31972 18.8296C2.31972 19.0548 2.48559 19.2108 2.72326 19.2455L8.99665 20.3843L28.7675 23.9617L16.6193 22.2064C16.4806 22.1866 16.3494 22.2807 16.3272 22.4218L16.0078 24.432C15.988 24.5583 15.8791 24.6499 15.7528 24.6499H5.32025H5.31778C5.10982 24.6573 4.94395 24.8281 4.94395 25.0386C4.94395 25.254 5.10239 25.4025 5.32768 25.4347L22.9942 28.6655C23.1353 28.6927 23.2715 28.5961 23.2962 28.4525L23.6552 26.2467C23.6948 25.9967 24.0364 25.9496 24.1429 26.1799L26.6285 31.5125C26.6706 31.6041 26.7622 31.661 26.8612 31.661H31.1615C31.2407 31.661 31.3174 31.6239 31.367 31.5595L35.437 26.2616C35.6004 26.0487 35.9371 26.1947 35.895 26.4596L34.2808 36.548C34.2561 36.704 34.3774 36.8476 34.5358 36.8476H44.1588C44.2851 36.8476 44.394 36.756 44.4138 36.6297L48.2239 12.6081C48.2462 12.4497 48.1274 12.3086 47.9689 12.3086Z" fill="white"/>
<path d="M36.2432 0.0545691C28.5414 -0.472752 21.5773 2.862 17.0963 8.31099C16.8116 8.65511 17.0492 9.175 17.4973 9.175H22.0278C22.1566 9.175 22.2804 9.12796 22.3744 9.04131C25.8577 5.91204 30.5368 4.08994 35.6342 4.35731C44.8611 4.84007 52.4144 12.3018 53.0012 21.5212C53.6844 32.2038 45.1879 41.1138 34.6489 41.1138C31.9925 41.1138 29.4673 40.5419 27.1847 39.5244C27.1203 39.4947 27.0485 39.4799 26.9767 39.4799H20.7578C20.2602 39.4799 20.0324 40.1112 20.4211 40.4231C24.3179 43.5623 29.2667 45.4438 34.6489 45.4438C47.7156 45.4438 58.2397 34.3577 57.3138 21.0979C56.5315 9.89295 47.4482 0.822032 36.2432 0.0545691Z" fill="white"/>
<path d="M81.2979 10.9297H63.2353C63.109 10.9297 63.0026 11.0213 62.9852 11.1451L59.1751 35.1716C59.1504 35.3251 59.2692 35.4662 59.4252 35.4662H77.6982C77.8245 35.4662 77.9309 35.3746 77.9483 35.2508L78.8841 29.3092C78.9088 29.1557 78.79 29.0146 78.634 29.0146H68.5382C68.3822 29.0146 68.2634 28.8759 68.2857 28.72L68.662 26.3186C68.6818 26.1948 68.7882 26.1032 68.9145 26.1032H77.7329C77.8592 26.1032 77.9656 26.0116 77.9829 25.8878L78.8494 20.4363C78.8742 20.2828 78.7554 20.1417 78.5994 20.1417H69.9394C69.7835 20.1417 69.6646 20.0031 69.6869 19.8496L70.031 17.52C70.0484 17.3962 70.1573 17.3021 70.2836 17.3021H80.3621C80.4883 17.3021 80.5948 17.2105 80.6121 17.0867L81.5479 11.2169C81.5727 11.0683 81.4538 10.9297 81.2979 10.9297Z" fill="white"/>
<path d="M103.548 21.7603H96.5021C96.3758 21.7603 96.2669 21.8519 96.2446 21.9782L95.185 28.462C95.1677 28.5635 95.0934 28.6501 94.9944 28.6749C94.6428 28.7615 94.264 28.8061 93.8605 28.8061C92.5756 28.8061 91.5012 28.4026 90.6347 27.5955C89.7707 26.7884 89.4884 25.4169 89.7929 23.476C90.1197 21.4211 91.0432 19.8961 92.5632 18.9009C94.0808 17.9081 95.8336 17.4105 97.8216 17.4105C100.067 17.4105 101.864 17.819 103.211 18.6385C103.367 18.7325 103.568 18.6335 103.597 18.4553L104.593 12.1373C104.61 12.0234 104.551 11.9071 104.447 11.86C102.308 10.8648 99.7502 10.3672 96.7719 10.3672C95.1355 10.3672 93.5288 10.5999 91.9517 11.0678C90.3747 11.5357 88.8621 12.2363 87.4138 13.1721C85.9655 14.1079 84.7203 15.3928 83.6805 17.0268C82.6407 18.6632 81.945 20.5546 81.596 22.706C81.2692 24.8797 81.3731 26.8355 81.9104 28.5783C82.4476 30.3187 83.3116 31.715 84.5049 32.7672C85.6957 33.8194 87.087 34.624 88.6764 35.1859C90.2658 35.7479 91.9716 36.0277 93.7937 36.0277C96.7521 36.0277 99.3813 35.5325 101.689 34.5423C101.77 34.5076 101.83 34.4309 101.845 34.3417L103.808 22.0623C103.83 21.9014 103.709 21.7603 103.548 21.7603Z" fill="white"/>
<path d="M124.472 10.9297H116.099C116.005 10.9297 115.921 10.9817 115.876 11.0634L103.104 35.0949C103.015 35.2632 103.136 35.4662 103.327 35.4662H111.093C111.19 35.4662 111.279 35.4118 111.321 35.3251L112.762 32.3493C112.804 32.2627 112.893 32.2082 112.989 32.2082H121.278C121.402 32.2082 121.506 32.2973 121.526 32.4187L122.013 35.2607C122.033 35.382 122.14 35.4712 122.261 35.4712H129.624C129.785 35.4712 129.903 35.3226 129.869 35.1667L124.719 11.1352C124.692 11.0114 124.591 10.9297 124.472 10.9297ZM120.241 26.3507H116C115.814 26.3507 115.69 26.1552 115.775 25.9868L118.226 20.9859C118.495 20.4339 118.748 19.8323 118.981 19.1861C119.072 18.9311 119.446 18.9806 119.466 19.2505C119.505 19.8273 119.572 20.4165 119.661 21.0231L120.491 26.0586C120.516 26.2121 120.397 26.3507 120.241 26.3507Z" fill="white"/>
<path d="M168.789 10.9297H161.498C161.419 10.9297 161.345 10.9668 161.298 11.0287L153.284 21.5331C153.168 21.6841 152.935 21.6593 152.856 21.486L148.018 11.0758C147.976 10.9866 147.887 10.9297 147.791 10.9297H141.227C141.104 10.9297 140.997 11.0188 140.977 11.1426L137.167 35.1741C137.143 35.3276 137.261 35.4662 137.417 35.4662H144.795C144.919 35.4662 145.025 35.3771 145.045 35.2533L146.738 24.848C146.778 24.6029 147.112 24.5559 147.216 24.7812L149.712 30.1311C149.754 30.2202 149.843 30.2772 149.939 30.2772H154.247C154.326 30.2772 154.401 30.24 154.448 30.1782L158.533 24.8629C158.691 24.6549 159.023 24.7985 158.981 25.056L157.362 35.1716C157.337 35.3251 157.456 35.4637 157.612 35.4637H164.987C165.11 35.4637 165.217 35.3746 165.237 35.2508L169.047 11.2193C169.064 11.0683 168.945 10.9297 168.789 10.9297Z" fill="white"/>
<path d="M191.951 11.9615C189.953 10.8995 187.626 10.3672 184.965 10.3672C183.702 10.3672 182.447 10.5083 181.197 10.7881C179.946 11.0678 178.696 11.5357 177.446 12.1893C176.196 12.8429 175.062 13.6376 174.047 14.5734C173.029 15.5092 172.148 16.6876 171.4 18.1136C170.653 19.5396 170.138 21.1042 169.858 22.81C169.507 25.0059 169.606 26.9766 170.155 28.717C170.705 30.4574 171.574 31.8487 172.767 32.8885C173.958 33.9283 175.319 34.7106 176.849 35.2379C178.379 35.7628 180.021 36.0277 181.774 36.0277C184.356 36.0277 186.626 35.592 188.584 34.7205C188.666 34.6834 188.723 34.6091 188.735 34.52L189.82 27.6945C189.854 27.4841 189.631 27.3232 189.443 27.4247C187.621 28.4174 185.589 28.9126 183.351 28.9126C181.692 28.9126 180.325 28.4224 179.251 27.4395C178.176 26.4592 177.778 25.0802 178.06 23.3027C178.412 21.2701 179.333 19.7748 180.83 18.8167C182.326 17.8586 184.031 17.3783 185.948 17.3783C187.911 17.3783 189.493 17.7967 190.698 18.636C190.854 18.7449 191.07 18.6508 191.099 18.4627L192.09 12.2363C192.102 12.1249 192.048 12.0135 191.951 11.9615Z" fill="white"/>
<path d="M87.9774 54.7807H86.4375V41.9492H91.4607C92.3049 41.9492 93.0674 42.0631 93.7507 42.2884C94.434 42.5137 95.0257 42.9296 95.5183 43.5361C96.0135 44.1402 96.261 44.9077 96.261 45.836C96.261 46.9353 95.9441 47.7918 95.3079 48.4033C94.6716 49.0148 93.8472 49.4109 92.8347 49.5941L97.1795 54.7807H95.2559L91.0596 49.7229H87.9798V54.7807H87.9774ZM87.9774 43.4148V48.2523H91.5325C92.4361 48.2523 93.1912 48.0666 93.7952 47.6928C94.3993 47.3215 94.7038 46.7001 94.7038 45.8336C94.7038 44.9547 94.4018 44.3308 93.7952 43.9644C93.1887 43.598 92.4361 43.4148 91.5325 43.4148H87.9774Z" fill="white"/>
<path d="M99.1758 41.9492H107.828V43.4148H100.716V47.5765H107.276V49.0421H100.716V53.3126H107.937V54.7782H99.1758V41.9492Z" fill="white"/>
<path d="M112.079 54.7807H110.539V41.9492H111.97L119.687 52.1961V51.0969V41.9517H121.227V54.7832H119.796L112.079 44.519V45.6182V54.7807Z" fill="white"/>
<path d="M123.168 41.9492H133.724V43.4148H129.216V54.7782H127.676V43.4148H123.168V41.9492Z" fill="white"/>
<path d="M139.208 54.7807H137.539L143.129 41.9492H144.832L150.405 54.7807H148.756L147.437 51.6836H140.527L139.208 54.7807ZM143.77 44.0214L141.131 50.2527H146.833L144.176 44.0214C144.152 43.9595 144.085 43.7961 143.976 43.5262C143.862 43.806 143.795 43.9719 143.77 44.0214Z" fill="white"/>
<path d="M155.371 48.4569C155.371 47.0408 155.708 45.8079 156.379 44.7632C157.05 43.7184 157.889 42.951 158.889 42.4633C159.892 41.9756 160.966 41.7305 162.115 41.7305C163.434 41.7305 164.638 42.0177 165.724 42.592V44.1319C164.796 43.508 163.677 43.1961 162.37 43.1961C160.904 43.1961 159.632 43.6442 158.557 44.5428C157.483 45.4415 156.938 46.7462 156.926 48.4569C156.926 49.5437 157.203 50.4845 157.76 51.2792C158.317 52.0739 159 52.6482 159.812 53.0023C160.625 53.3563 161.496 53.5345 162.424 53.5345C163.806 53.5345 164.935 53.2226 165.816 52.5987V54.1386C164.704 54.713 163.464 55.0002 162.095 55.0002C161.276 55.0002 160.471 54.8566 159.676 54.5694C158.882 54.2822 158.161 53.8737 157.513 53.3414C156.864 52.8092 156.347 52.1185 155.955 51.2693C155.564 50.4201 155.371 49.4843 155.371 48.4569Z" fill="white"/>
<path d="M168.313 54.7807H166.645L172.235 41.9492H173.938L179.511 54.7807H177.862L176.542 51.6836H169.633L168.313 54.7807ZM172.876 44.0214L170.237 50.2527H175.938L173.282 44.0214C173.257 43.9595 173.19 43.7961 173.081 43.5262C172.967 43.806 172.901 43.9719 172.876 44.0214Z" fill="white"/>
<path d="M182.884 54.7807H181.344V41.9492H186.367C187.209 41.9492 187.974 42.0631 188.657 42.2884C189.34 42.5137 189.929 42.9296 190.425 43.5361C190.92 44.1402 191.167 44.9077 191.167 45.836C191.167 46.9353 190.85 47.7918 190.214 48.4033C189.578 49.0148 188.753 49.4109 187.741 49.5941L192.083 54.7807H190.16L185.963 49.7229H182.884V54.7807ZM182.884 43.4148V48.2523H186.439C187.342 48.2523 188.097 48.0666 188.701 47.6928C189.306 47.3215 189.608 46.7001 189.608 45.8336C189.608 44.9547 189.306 44.3308 188.701 43.9644C188.097 43.598 187.342 43.4148 186.439 43.4148H182.884Z" fill="white"/>
</svg>
