<svg width="214" height="61" viewBox="0 0 214 61" fill="none" xmlns="http://www.w3.org/2000/svg">
<path d="M90.1071 12.7406H70.0741C69.934 12.7406 69.816 12.8422 69.7967 12.9795L65.571 39.6271C65.5436 39.7973 65.6754 39.9538 65.8483 39.9538H86.1148C86.2548 39.9538 86.3729 39.8522 86.3921 39.715L87.43 33.1251C87.4575 32.9549 87.3257 32.7984 87.1527 32.7984H75.9555C75.7825 32.7984 75.6507 32.6446 75.6754 32.4716L76.0928 29.8083C76.1147 29.671 76.2328 29.5694 76.3728 29.5694H86.1532C86.2933 29.5694 86.4113 29.4678 86.4306 29.3305L87.3916 23.2843C87.419 23.1141 87.2872 22.9576 87.1143 22.9576H77.5068C77.3339 22.9576 77.2021 22.8038 77.2268 22.6336L77.6084 20.0498C77.6277 19.9125 77.7485 19.8082 77.8885 19.8082H89.0665C89.2065 19.8082 89.3246 19.7066 89.3438 19.5693L90.3817 13.0591C90.4119 12.8971 90.2801 12.7406 90.1071 12.7406Z" fill="#1B1C1D"/>
<path d="M114.786 24.7532H106.972C106.832 24.7532 106.711 24.8548 106.686 24.9948L105.511 32.186C105.492 32.2985 105.409 32.3946 105.3 32.4221C104.91 32.5182 104.49 32.5676 104.042 32.5676C102.617 32.5676 101.425 32.1201 100.464 31.2249C99.506 30.3298 99.193 28.8087 99.5307 26.656C99.8931 24.377 100.917 22.6856 102.603 21.5818C104.286 20.4808 106.23 19.9289 108.435 19.9289C110.926 19.9289 112.919 20.3819 114.413 21.2908C114.586 21.3951 114.808 21.2853 114.841 21.0876L115.945 14.0804C115.964 13.9541 115.898 13.8251 115.783 13.7729C113.411 12.6691 110.574 12.1172 107.271 12.1172C105.456 12.1172 103.674 12.3753 101.925 12.8942C100.176 13.4132 98.4983 14.1902 96.892 15.2281C95.2857 16.266 93.9046 17.6911 92.7514 19.5033C91.5982 21.3182 90.8266 23.416 90.4395 25.8021C90.077 28.2128 90.1924 30.382 90.7882 32.315C91.384 34.2453 92.3423 35.7939 93.6657 36.9608C94.9864 38.1278 96.5296 39.0202 98.2923 39.6434C100.055 40.2667 101.947 40.577 103.968 40.577C107.249 40.577 110.165 40.0278 112.724 38.9295C112.815 38.8911 112.881 38.806 112.897 38.7071L115.074 25.0882C115.099 24.9124 114.962 24.7532 114.786 24.7532Z" fill="#1B1C1D"/>
<path d="M137.991 12.7406H128.704C128.6 12.7406 128.507 12.7983 128.457 12.8889L114.292 39.542C114.193 39.7287 114.328 39.9538 114.539 39.9538H123.152C123.26 39.9538 123.358 39.8934 123.405 39.7973L125.003 36.4969C125.05 36.4008 125.149 36.3404 125.256 36.3404H134.448C134.586 36.3404 134.701 36.4393 134.723 36.5738L135.264 39.7259C135.286 39.8605 135.404 39.9593 135.539 39.9593H143.704C143.883 39.9593 144.015 39.7946 143.976 39.6216L138.265 12.9685C138.235 12.834 138.122 12.7406 137.991 12.7406ZM133.298 29.8467H128.595C128.389 29.8467 128.251 29.6298 128.345 29.4431L131.063 23.8966C131.362 23.2843 131.642 22.6171 131.9 21.9005C132.002 21.6177 132.417 21.6726 132.439 21.9718C132.483 22.6116 132.557 23.2651 132.656 23.9378L133.575 29.5227C133.603 29.6929 133.471 29.8467 133.298 29.8467Z" fill="#1B1C1D"/>
<path d="M187.144 12.7406H179.057C178.969 12.7406 178.887 12.7818 178.835 12.8504L169.947 24.5007C169.818 24.6682 169.56 24.6407 169.472 24.4485L164.107 12.9026C164.06 12.8038 163.961 12.7406 163.854 12.7406H156.575C156.438 12.7406 156.32 12.8395 156.298 12.9767L152.072 39.6298C152.045 39.8001 152.176 39.9538 152.349 39.9538H160.532C160.669 39.9538 160.787 39.855 160.809 39.7177L162.687 28.1773C162.731 27.9054 163.102 27.8533 163.217 28.1031L165.977 34.0395C166.023 34.1383 166.122 34.2015 166.229 34.2015H171.007C171.095 34.2015 171.177 34.1603 171.229 34.0916L175.76 28.1965C175.935 27.9658 176.303 28.1251 176.257 28.4107L174.461 39.6298C174.433 39.8001 174.565 39.9538 174.738 39.9538H182.918C183.055 39.9538 183.173 39.855 183.195 39.7177L187.421 13.0646C187.448 12.8944 187.317 12.7406 187.144 12.7406Z" fill="#1B1C1D"/>
<path d="M212.832 13.8883C210.616 12.7103 208.035 12.12 205.083 12.12C203.683 12.12 202.291 12.2765 200.904 12.5868C199.518 12.897 198.131 13.416 196.745 14.1409C195.358 14.8658 194.1 15.7472 192.975 16.785C191.846 17.8229 190.869 19.1299 190.039 20.7115C189.21 22.293 188.639 24.0284 188.329 25.9202C187.939 28.3557 188.049 30.5413 188.658 32.4716C189.268 34.4019 190.232 35.945 191.555 37.0982C192.876 38.2514 194.386 39.1191 196.083 39.7039C197.78 40.286 199.6 40.5798 201.544 40.5798C204.408 40.5798 206.926 40.0966 209.098 39.1301C209.188 39.0889 209.251 39.0065 209.265 38.9076L210.468 31.3376C210.506 31.1042 210.259 30.9257 210.05 31.0383C208.03 32.1393 205.775 32.6885 203.293 32.6885C201.453 32.6885 199.938 32.1448 198.746 31.0548C197.554 29.9674 197.112 28.4381 197.425 26.4666C197.815 24.2123 198.837 22.5539 200.498 21.4913C202.156 20.4287 204.048 19.896 206.173 19.896C208.351 19.896 210.105 20.36 211.443 21.2908C211.616 21.4117 211.854 21.3073 211.887 21.0986L212.986 14.193C212.999 14.0667 212.939 13.9459 212.832 13.8883Z" fill="#1B1C1D"/>
<path d="M24.6436 37.4579L16.6232 36.431C16.4694 36.4118 16.3294 36.5161 16.3047 36.6699L15.967 38.8088C15.945 38.9489 15.8242 39.0504 15.6841 39.0504H13.644H13.6413C13.4189 39.0587 13.2432 39.2399 13.2432 39.4651C13.2432 39.693 13.4107 39.8522 13.6495 39.8852L14.9977 40.1295L22.0488 41.2745C22.0653 41.2773 22.079 41.2773 22.0955 41.2773H24.0779C24.218 41.2773 24.3388 41.1757 24.3608 41.0384L24.8907 37.7874C24.9154 37.6254 24.8028 37.4771 24.6436 37.4579Z" fill="#1B1C1D"/>
<path d="M25.4811 32.2875L17.4278 31.3512C17.2768 31.3347 17.1367 31.4391 17.112 31.5901L16.81 33.4956C16.788 33.6357 16.6672 33.7373 16.5272 33.7373H9.38819H9.38544C9.16303 33.7455 8.9873 33.9267 8.9873 34.1519C8.9873 34.3798 9.1548 34.539 9.39368 34.572L14.6793 35.533L24.6683 37.3205C24.8249 37.3479 24.9759 37.2436 25.0006 37.0843L25.7255 32.6197C25.7557 32.455 25.6431 32.3067 25.4811 32.2875Z" fill="#1B1C1D"/>
<path d="M15.6256 40.9478C15.5982 41.1208 15.7327 41.2773 15.9085 41.2773H20.7492L15.9414 40.7089C15.7904 40.6897 15.6503 40.7941 15.6256 40.9478Z" fill="#1B1C1D"/>
<path d="M53.1991 14.0638H42.617C42.5291 14.0638 42.444 14.105 42.3891 14.1764L33.5093 25.8157C33.3802 25.9859 33.1139 25.9585 33.0233 25.7635L31.2879 22.1666L30.3242 19.9535L27.6635 14.2286C27.6169 14.127 27.5153 14.0638 27.4054 14.0638H25.9694H19.8903H0.469525H0.466779C0.205932 14.0721 0 14.2862 0 14.5498C0 14.8189 0.197695 15.0029 0.480508 15.0413L10.541 16.87L29.1902 20.2336C29.1902 20.2336 25.4999 19.8849 22.6196 19.6158L19.3576 19.2369C19.2066 19.2204 19.0666 19.3247 19.0419 19.4757L18.8826 20.4752L18.8524 20.6015C18.8304 20.7415 18.7096 20.8431 18.5696 20.8431H3.0121H3.00935C2.76498 20.8514 2.57278 21.0518 2.57278 21.2962C2.57278 21.546 2.75674 21.719 3.02034 21.7575L9.9781 23.0205L31.9057 26.9881L18.4323 25.0414C18.2785 25.0194 18.133 25.1238 18.1083 25.2803L17.7541 27.5098C17.7321 27.6499 17.6113 27.7515 17.4713 27.7515H5.89789H5.89515C5.66451 27.7597 5.48054 27.9492 5.48054 28.1825C5.48054 28.4214 5.65627 28.5862 5.90613 28.6219L25.4999 32.2051C25.6564 32.2353 25.8074 32.1282 25.8349 31.969L26.233 29.5225C26.2769 29.2452 26.6558 29.193 26.7739 29.4483L29.5307 35.3627C29.5773 35.4643 29.6789 35.5275 29.7888 35.5275H34.5581C34.646 35.5275 34.7311 35.4863 34.786 35.4149L39.3001 29.5389C39.4813 29.3028 39.8547 29.4648 39.808 29.7586L38.0178 40.9476C37.9903 41.1206 38.1249 41.2798 38.3006 41.2798H48.9734C49.1134 41.2798 49.2342 41.1782 49.2562 41.0382L53.4819 14.3961C53.5094 14.2203 53.3748 14.0638 53.1991 14.0638Z" fill="#1B1C1D"/>
<path d="M25.0633 37.0407L17.0429 36.0138C16.8892 35.9945 16.7491 36.0989 16.7244 36.2526L16.384 38.3916C16.362 38.5316 16.2412 38.6332 16.1011 38.6332H14.061H14.0583C13.8359 38.6414 13.6602 38.8227 13.6602 39.0478C13.6602 39.2757 13.8276 39.435 14.0665 39.4679L15.4147 39.7123L22.4658 40.8573C22.4823 40.86 22.496 40.86 22.5125 40.86H24.4949C24.635 40.86 24.7558 40.7584 24.7777 40.6211L25.3077 37.3702C25.3351 37.2109 25.2253 37.0626 25.0633 37.0407Z" fill="white"/>
<path d="M25.901 31.8731L17.8477 30.9368C17.6967 30.9203 17.5566 31.0246 17.5319 31.1757L17.2299 33.0812C17.2079 33.2212 17.0871 33.3228 16.9471 33.3228H9.80811H9.80536C9.58296 33.3311 9.40723 33.5123 9.40723 33.7374C9.40723 33.9653 9.57472 34.1246 9.8136 34.1575L15.0992 35.1186L25.0883 36.9061C25.2448 36.9335 25.3958 36.8292 25.4205 36.6699L26.1454 32.2053C26.1756 32.0406 26.063 31.8923 25.901 31.8731Z" fill="white"/>
<path d="M16.0465 40.5333C16.0191 40.7063 16.1536 40.8628 16.3293 40.8628H21.1701L16.3623 40.2944C16.2113 40.2752 16.0712 40.3795 16.0465 40.5333Z" fill="white"/>
<path d="M53.6218 13.6494H43.0396C42.9518 13.6494 42.8666 13.6906 42.8117 13.762L33.9319 25.4013C33.8029 25.5715 33.5365 25.5441 33.4459 25.3491L31.7106 21.7522L30.7469 19.5391L28.0862 13.8142C28.0395 13.7126 27.9379 13.6494 27.8281 13.6494H26.3921H20.3102H0.889447H0.886701C0.625854 13.6577 0.419922 13.8718 0.419922 14.1354C0.419922 14.4045 0.617617 14.5885 0.90043 14.6269L10.9609 16.4556L29.6101 19.8191C29.6101 19.8191 25.9198 19.4704 23.0395 19.2013L19.7775 18.8224C19.6265 18.806 19.4865 18.9103 19.4618 19.0613L19.3025 20.0608L19.2723 20.1871C19.2504 20.3271 19.1295 20.4287 18.9895 20.4287H3.43202H3.42928C3.1849 20.4369 2.9927 20.6374 2.9927 20.8817C2.9927 21.1316 3.17667 21.3046 3.44026 21.343L10.398 22.6061L32.3257 26.5737L18.8522 24.627C18.6985 24.605 18.5529 24.7093 18.5282 24.8659L18.174 27.0954C18.152 27.2354 18.0312 27.337 17.8912 27.337H6.32056H6.31782C6.08717 27.3453 5.90321 27.5347 5.90321 27.7681C5.90321 28.007 6.07894 28.1718 6.3288 28.2074L25.9226 31.7907C26.0791 31.8209 26.2301 31.7138 26.2575 31.5545L26.6557 29.1081C26.6996 28.8307 27.0785 28.7786 27.1966 29.0339L29.9533 34.9483C30 35.0499 30.1016 35.113 30.2114 35.113H34.9808C35.0687 35.113 35.1538 35.0718 35.2087 35.0005L39.7227 29.1245C39.904 28.8884 40.2774 29.0504 40.2307 29.3442L38.4405 40.5332C38.413 40.7061 38.5476 40.8654 38.7233 40.8654H49.3961C49.5361 40.8654 49.6569 40.7638 49.6789 40.6238L53.9046 13.9816C53.9293 13.8059 53.7975 13.6494 53.6218 13.6494Z" fill="white"/>
<path d="M39.9783 0.584936C31.4362 8.89897e-05 23.7151 3.69863 18.7426 9.74205C18.4268 10.1237 18.6904 10.7003 19.1874 10.7003H24.2121C24.3549 10.7003 24.4922 10.6481 24.5965 10.552C28.4598 7.0814 33.6493 5.06053 39.3028 5.35707C49.5363 5.89249 57.9136 14.1682 58.5643 24.3934C59.3222 36.2414 49.8987 46.1234 38.21 46.1234C35.2638 46.1234 32.4631 45.4891 29.9315 44.3606C29.8602 44.3277 29.7805 44.3112 29.7009 44.3112H22.8036C22.2517 44.3112 21.999 45.0114 22.4301 45.3573C26.752 48.8389 32.2407 50.9257 38.21 50.9257C52.7021 50.9257 64.3744 38.6302 63.3475 23.9239C62.4798 11.4993 52.4056 1.43887 39.9783 0.584936Z" fill="#1B1C1D"/>
<path d="M40.615 0.0605221C32.0729 -0.524325 24.3491 3.17422 19.3793 9.21764C19.0635 9.5993 19.3271 10.1759 19.8241 10.1759H24.8488C24.9916 10.1759 25.1289 10.1237 25.2333 10.0276C29.0965 6.55699 34.286 4.53611 39.9395 4.83266C50.173 5.36808 58.5503 13.6438 59.2011 23.869C59.9589 35.717 50.5354 45.599 38.8467 45.599C35.9005 45.599 33.0999 44.9647 30.5683 43.8362C30.4969 43.8032 30.4173 43.7868 30.3376 43.7868H23.4403C22.8884 43.7868 22.6358 44.4869 23.0668 44.8329C27.3887 48.3145 32.8775 50.4013 38.8467 50.4013C53.3389 50.4013 65.0111 38.1058 63.9842 23.3995C63.1165 10.9722 53.0423 0.911708 40.615 0.0605221Z" fill="white"/>
<path d="M90.5856 12.12H70.5526C70.4125 12.12 70.2945 12.2216 70.2753 12.3589L66.0495 39.0065C66.0221 39.1767 66.1539 39.3332 66.3268 39.3332H86.5933C86.7334 39.3332 86.8514 39.2316 86.8706 39.0944L87.9085 32.5045C87.936 32.3343 87.8042 32.1778 87.6312 32.1778H76.434C76.261 32.1778 76.1292 32.024 76.1539 31.851L76.5713 29.1876C76.5933 29.0504 76.7113 28.9488 76.8514 28.9488H86.6318C86.7718 28.9488 86.8899 28.8472 86.9091 28.7099L87.8701 22.6637C87.8976 22.4935 87.7658 22.337 87.5928 22.337H77.9881C77.8151 22.337 77.6833 22.1832 77.708 22.013L78.0897 19.4292C78.1089 19.2919 78.2297 19.1876 78.3698 19.1876H89.5478C89.6878 19.1876 89.8059 19.086 89.8251 18.9487L90.863 12.4385C90.8904 12.2738 90.7586 12.12 90.5856 12.12Z" fill="white"/>
<path d="M115.264 24.1327H107.449C107.309 24.1327 107.188 24.2343 107.164 24.3743L105.988 31.5655C105.969 31.678 105.887 31.7742 105.777 31.8016C105.387 31.8977 104.967 31.9471 104.519 31.9471C103.094 31.9471 101.903 31.4996 100.942 30.6045C99.9835 29.7093 99.6705 28.1882 100.008 26.0355C100.371 23.7565 101.395 22.0651 103.081 20.9613C104.764 19.8603 106.708 19.3084 108.913 19.3084C111.403 19.3084 113.397 19.7614 114.89 20.6703C115.063 20.7746 115.286 20.6648 115.319 20.4671L116.422 13.4599C116.442 13.3336 116.376 13.2046 116.26 13.1524C113.888 12.0486 111.052 11.4967 107.749 11.4967C105.934 11.4967 104.152 11.7548 102.403 12.2738C100.653 12.7927 98.9758 13.5698 97.3695 14.6076C95.7633 15.6455 94.3822 17.0706 93.2289 18.8828C92.0757 20.6977 91.3042 22.7955 90.917 25.1816C90.5546 27.5924 90.6699 29.7615 91.2657 31.6945C91.8615 33.6248 92.8198 35.1734 94.1433 36.3404C95.464 37.5073 97.0071 38.3997 98.7699 39.023C100.533 39.6462 102.424 39.9565 104.445 39.9565C107.727 39.9565 110.643 39.4074 113.202 38.3091C113.292 38.2706 113.358 38.1855 113.375 38.0867L115.552 24.4677C115.577 24.2892 115.442 24.1327 115.264 24.1327Z" fill="white"/>
<path d="M138.468 12.12H129.182C129.078 12.12 128.984 12.1777 128.935 12.2683L114.769 38.9214C114.671 39.1081 114.805 39.3332 115.017 39.3332H123.63C123.737 39.3332 123.836 39.2728 123.883 39.1767L125.481 35.8763C125.527 35.7802 125.626 35.7198 125.733 35.7198H134.926C135.063 35.7198 135.179 35.8187 135.201 35.9532L135.742 39.1053C135.763 39.2399 135.882 39.3387 136.016 39.3387H144.182C144.36 39.3387 144.492 39.174 144.454 39.001L138.743 12.3479C138.712 12.2106 138.6 12.12 138.468 12.12ZM133.776 29.2233H129.072C128.866 29.2233 128.729 29.0064 128.822 28.8197L131.541 23.2733C131.84 22.661 132.12 21.9938 132.378 21.2771C132.48 20.9943 132.894 21.0492 132.916 21.3485C132.96 21.9883 133.034 22.6418 133.133 23.3145L134.053 28.8993C134.08 29.0696 133.949 29.2233 133.776 29.2233Z" fill="white"/>
<path d="M187.62 12.12H179.534C179.446 12.12 179.364 12.1612 179.311 12.2298L170.423 23.8801C170.294 24.0476 170.036 24.0201 169.948 23.8279L164.583 12.282C164.537 12.1832 164.438 12.12 164.331 12.12H157.052C156.914 12.12 156.796 12.2188 156.774 12.3561L152.549 39.0092C152.521 39.1795 152.653 39.3332 152.826 39.3332H161.008C161.146 39.3332 161.264 39.2344 161.286 39.0971L163.164 27.5567C163.208 27.2848 163.578 27.2327 163.694 27.4825L166.461 33.4161C166.508 33.515 166.607 33.5781 166.714 33.5781H171.492C171.579 33.5781 171.662 33.5369 171.714 33.4683L176.244 27.5731C176.42 27.3425 176.788 27.5017 176.741 27.7873L174.946 39.0065C174.918 39.1767 175.05 39.3305 175.223 39.3305H183.403C183.54 39.3305 183.658 39.2316 183.68 39.0944L187.906 12.4413C187.925 12.2738 187.793 12.12 187.62 12.12Z" fill="white"/>
<path d="M213.309 13.265C211.094 12.087 208.513 11.4967 205.561 11.4967C204.161 11.4967 202.768 11.6532 201.382 11.9635C199.995 12.2738 198.609 12.7927 197.222 13.5176C195.835 14.2425 194.578 15.1239 193.452 16.1617C192.324 17.1996 191.346 18.5066 190.517 20.0882C189.688 21.6698 189.117 23.4051 188.806 25.2969C188.416 27.7324 188.526 29.918 189.136 31.8483C189.745 33.7786 190.709 35.3217 192.033 36.4749C193.353 37.6281 194.863 38.4958 196.56 39.0806C198.257 39.6627 200.078 39.9565 202.022 39.9565C204.885 39.9565 207.403 39.4733 209.575 38.5068C209.666 38.4656 209.729 38.3832 209.743 38.2844L210.945 30.7143C210.984 30.4809 210.737 30.3024 210.528 30.415C208.507 31.516 206.253 32.0652 203.771 32.0652C201.931 32.0652 200.415 31.5215 199.224 30.4315C198.032 29.3442 197.59 27.8148 197.903 25.8433C198.293 23.589 199.314 21.9306 200.975 20.868C202.634 19.8054 204.526 19.2727 206.651 19.2727C208.828 19.2727 210.583 19.7367 211.92 20.6675C212.093 20.7884 212.332 20.684 212.365 20.4753L213.463 13.5698C213.477 13.4462 213.417 13.3226 213.309 13.265Z" fill="white"/>
<path d="M97.9959 60.7585H96.2881V46.5272H101.859C102.796 46.5272 103.641 46.6535 104.399 46.9034C105.157 47.1533 105.813 47.6145 106.36 48.2873C106.909 48.9572 107.183 49.8084 107.183 50.8381C107.183 52.0572 106.832 53.0072 106.126 53.6854C105.42 54.3636 104.506 54.8029 103.383 55.0061L108.202 60.7585H106.068L101.414 55.1489H97.9987V60.7585H97.9959ZM97.9959 48.1527V53.5179H101.939C102.941 53.5179 103.779 53.312 104.448 52.8974C105.118 52.4855 105.456 51.7963 105.456 50.8353C105.456 49.8606 105.121 49.1686 104.448 48.7623C103.776 48.3559 102.941 48.1527 101.939 48.1527H97.9959Z" fill="#1B1C1D"/>
<path d="M110.415 46.5272H120.011V48.1527H112.123V52.7683H119.399V54.3938H112.123V59.1303H120.132V60.7558H110.415V46.5272Z" fill="#1B1C1D"/>
<path d="M124.726 60.7585H123.019V46.5272H124.606L133.164 57.8919V56.6728V46.53H134.872V60.7613H133.285L124.726 49.3773V50.5964V60.7585Z" fill="#1B1C1D"/>
<path d="M137.027 46.5272H148.735V48.1527H143.735V60.7558H142.027V48.1527H137.027V46.5272Z" fill="#1B1C1D"/>
<path d="M154.815 60.7585H152.964L159.164 46.5272H161.053L167.234 60.7585H165.405L163.941 57.3236H156.278L154.815 60.7585ZM159.875 48.8254L156.948 55.7365H163.271L160.325 48.8254C160.298 48.7568 160.224 48.5756 160.103 48.2763C159.977 48.5865 159.902 48.7705 159.875 48.8254Z" fill="#1B1C1D"/>
<path d="M172.744 53.7431C172.744 52.1725 173.118 50.8051 173.862 49.6464C174.606 48.4877 175.537 47.6365 176.646 47.0956C177.758 46.5547 178.95 46.2828 180.224 46.2828C181.687 46.2828 183.022 46.6013 184.227 47.2384V48.9462C183.197 48.2543 181.956 47.9083 180.506 47.9083C178.881 47.9083 177.47 48.4053 176.278 49.402C175.086 50.3987 174.482 51.8458 174.468 53.7431C174.468 54.9485 174.776 55.9919 175.394 56.8732C176.012 57.7546 176.769 58.3916 177.67 58.7843C178.571 59.1769 179.537 59.3746 180.567 59.3746C182.099 59.3746 183.351 59.0287 184.329 58.3367V60.0446C183.096 60.6816 181.72 61.0001 180.202 61.0001C179.293 61.0001 178.4 60.8409 177.519 60.5224C176.638 60.2038 175.839 59.7508 175.119 59.1605C174.4 58.5701 173.826 57.8041 173.392 56.8623C172.958 55.9205 172.744 54.8826 172.744 53.7431Z" fill="#1B1C1D"/>
<path d="M187.096 60.7585H185.245L191.445 46.5272H193.334L199.515 60.7585H197.686L196.223 57.3236H188.559L187.096 60.7585ZM192.156 48.8254L189.229 55.7365H195.553L192.607 48.8254C192.579 48.7568 192.505 48.5756 192.384 48.2763C192.258 48.5865 192.184 48.7705 192.156 48.8254Z" fill="#1B1C1D"/>
<path d="M203.257 60.7585H201.549V46.5272H207.12C208.054 46.5272 208.902 46.6535 209.66 46.9034C210.418 47.1533 211.071 47.6145 211.62 48.2873C212.169 48.9572 212.444 49.8084 212.444 50.8381C212.444 52.0572 212.093 53.0072 211.387 53.6854C210.681 54.3636 209.767 54.8029 208.644 55.0061L213.46 60.7585H211.326L206.672 55.1489H203.257V60.7585ZM203.257 48.1527V53.5179H207.2C208.202 53.5179 209.039 53.312 209.709 52.8974C210.379 52.4855 210.714 51.7963 210.714 50.8353C210.714 49.8606 210.379 49.1686 209.709 48.7623C209.039 48.3559 208.202 48.1527 207.2 48.1527H203.257Z" fill="#1B1C1D"/>
</svg>
