<svg width="14" height="14" viewBox="0 0 14 14" fill="none" xmlns="http://www.w3.org/2000/svg">
<path d="M14 7.97266C14 6.0603 13.2289 4.3249 11.9816 3.06026C11.9719 3.04732 11.9615 3.03465 11.9497 3.02285C11.9379 3.01106 11.9253 3.00068 11.9123 2.991C10.6477 1.74371 8.91231 0.972656 7 0.972656C5.08769 0.972656 3.35229 1.74376 2.08761 2.991C2.07466 3.00073 2.06204 3.0111 2.05024 3.02285C2.03845 3.03465 2.02807 3.04727 2.01834 3.06026C0.771102 4.3249 0 6.0603 0 7.97266C0 9.84219 0.727954 11.5997 2.04974 12.9218C2.04992 12.922 2.0501 12.9222 2.05029 12.9224C2.05043 12.9225 2.05052 12.9226 2.05066 12.9227C2.05084 12.9229 2.05102 12.9231 2.05121 12.9233C2.11841 12.9905 2.20649 13.024 2.29458 13.024C2.38271 13.024 2.47084 12.9904 2.53804 12.9232C2.54378 12.9175 2.54896 12.9114 2.5542 12.9053L3.61508 11.8444C3.74952 11.7099 3.74952 11.4919 3.61508 11.3575C3.48063 11.2231 3.26264 11.2231 3.12824 11.3575L2.30036 12.1854C1.335 11.1111 0.774957 9.75915 0.697934 8.31692H1.86875C2.05887 8.31692 2.21301 8.16283 2.21301 7.97266C2.21301 7.78249 2.05887 7.62839 1.86875 7.62839H0.698026C0.778079 6.14706 1.37131 4.80003 2.30261 3.76215L3.12824 4.58778C3.19544 4.65498 3.28357 4.68858 3.37166 4.68858C3.45974 4.68858 3.54788 4.65498 3.61508 4.58778C3.74952 4.45329 3.74952 4.23535 3.61508 4.1009L2.78949 3.27522C3.82742 2.34392 5.1744 1.75069 6.65574 1.67068V2.84145C6.65574 3.03162 6.80988 3.18571 7 3.18571C7.19012 3.18571 7.34426 3.03162 7.34426 2.84145V1.67068C8.8256 1.75069 10.1726 2.34397 11.2105 3.27527L10.3849 4.1009C10.2504 4.23539 10.2504 4.45333 10.3849 4.58778C10.4521 4.65498 10.5402 4.68858 10.6283 4.68858C10.7164 4.68858 10.8045 4.65498 10.8717 4.58778L11.6973 3.76215C12.6286 4.80007 13.2219 6.14706 13.3019 7.62839H12.1312C11.941 7.62839 11.7869 7.78249 11.7869 7.97266C11.7869 8.16283 11.941 8.31692 12.1312 8.31692H13.302C13.2249 9.75915 12.665 11.1112 11.6996 12.1854L10.8717 11.3575C10.7373 11.2231 10.5193 11.2231 10.3849 11.3575C10.2504 11.492 10.2504 11.7099 10.3849 11.8444L11.4629 12.9224C11.5301 12.9896 11.6182 13.0232 11.7063 13.0232C11.7503 13.0232 11.7944 13.0148 11.8358 12.998C11.8773 12.9812 11.9161 12.956 11.9498 12.9224C13.2719 11.6002 14 9.84237 14 7.97266Z" fill="#1B1C1D"/>
<path d="M8.5812 4.0248C8.40461 3.95406 8.2043 4.03981 8.13361 4.21635L7.13878 6.69963C7.09242 6.69467 7.04606 6.69127 6.99966 6.69127C6.51512 6.69127 6.07744 6.95966 5.85735 7.39169C5.62729 7.84331 5.68622 8.38293 6.01488 8.83506C6.04848 8.88129 6.09071 8.92356 6.13725 8.95739C6.40426 9.15151 6.70249 9.2541 6.99966 9.2541C7.48419 9.2541 7.92191 8.98571 8.14196 8.55369C8.37202 8.10206 8.31309 7.56249 7.98466 7.11068C7.95106 7.06432 7.90874 7.0219 7.86206 6.98794C7.83695 6.96967 7.81129 6.953 7.78563 6.93639L8.77274 4.47234C8.84343 4.29589 8.75769 4.09549 8.5812 4.0248ZM7.5284 8.24114C7.42645 8.44123 7.22384 8.56553 6.99961 8.56553C6.85254 8.56553 6.70451 8.51416 6.55946 8.41281C6.39421 8.17555 6.36176 7.91832 6.47087 7.70418C6.57277 7.5041 6.77538 7.3798 6.99966 7.3798C7.07117 7.3798 7.14287 7.39219 7.21438 7.41629C7.21672 7.41725 7.21888 7.41849 7.22127 7.41946C7.2288 7.42244 7.23637 7.42487 7.24394 7.42731C7.30958 7.45251 7.37495 7.48721 7.43976 7.53247C7.60496 7.76973 7.63746 8.02701 7.5284 8.24114Z" fill="#1B1C1D"/>
</svg>
