<svg width="12" height="12" viewBox="0 0 12 12" fill="none" xmlns="http://www.w3.org/2000/svg">
<path d="M9.46346 12C7.13587 12 4.75656 10.9138 2.94622 9.10345L2.8945 9.05172C0.980702 7.13793 -0.0537803 4.7069 -0.00205616 2.37931V2.22414L0.101392 2.06897C0.256565 1.86207 0.411737 1.65517 0.618634 1.5C1.23932 0.87931 1.96346 0.413793 2.79105 0.0517241C2.8945 0 2.99794 0 3.15312 0C3.41174 0 4.08415 0.155172 4.23932 0.568965C4.49794 1.34483 4.86001 2.37931 5.11863 3.36207C5.17036 3.62069 5.11863 4.2931 4.70484 4.55172L3.82553 5.12069C3.82553 5.12069 3.82553 5.27586 3.92898 5.43103C4.29105 5.89655 4.70484 6.41379 5.17036 6.87931C5.63587 7.34483 6.10139 7.75862 6.56691 8.06896C6.67036 8.12069 6.77381 8.17241 6.87725 8.17241L7.1876 7.7069L7.49794 7.24138C7.75656 6.82759 8.37725 6.82759 8.4807 6.82759C8.53243 6.82759 8.63587 6.82759 8.6876 6.82759C9.87725 7.08621 10.6014 7.34483 11.5324 7.75862C11.9462 7.96552 12.2048 8.68966 11.9979 9.15517C11.6876 9.98276 11.2221 10.7069 10.5497 11.3276C10.3945 11.4828 10.1876 11.6897 9.9807 11.8448L9.82553 12H9.46346ZM1.03243 2.58621C1.03243 4.60345 2.01519 6.72414 3.61863 8.37931L3.67036 8.43103C5.32553 10.0862 7.3945 11.0172 9.41174 11.0172C9.51519 10.9138 9.67036 10.8103 9.7738 10.7069C10.291 10.1897 10.7048 9.56897 10.9635 8.89655C10.9635 8.89655 10.9117 8.84483 10.9117 8.7931C10.1359 8.43103 9.46346 8.22414 8.37725 7.96552C8.32553 7.96552 8.27381 7.96552 8.27381 7.96552L7.75656 8.7931C7.44622 9.31034 6.56691 9.41379 5.94622 8.94828C5.42898 8.58621 4.91174 8.12069 4.3945 7.65517C3.87725 7.13793 3.46346 6.62069 3.04967 6.10345C2.84277 5.68965 2.73932 5.27586 2.79105 4.91379C2.84277 4.60345 2.99794 4.39655 3.25656 4.24138L4.08415 3.72414C4.08415 3.67241 4.08415 3.62069 4.08415 3.56897C3.87725 2.74138 3.56691 1.81034 3.25656 1.08621C3.25656 1.03448 3.20484 1.03448 3.15312 1.03448C2.4807 1.2931 1.86001 1.7069 1.34277 2.22414C1.23932 2.32759 1.13587 2.43103 1.03243 2.58621Z" fill="#1B1C1D"/>
</svg>
