<svg width="26" height="26" viewBox="0 0 26 26" fill="none" xmlns="http://www.w3.org/2000/svg">
<g clip-path="url(#clip0)">
<path d="M13 26C20.1797 26 26 20.1797 26 13C26 5.8203 20.1797 0 13 0C5.8203 0 0 5.8203 0 13C0 20.1797 5.8203 26 13 26Z" fill="#F0F0F0"/>
<path d="M25.1914 17.52C25.714 16.1117 26 14.5884 26 12.9983C26 11.4081 25.714 9.88488 25.1914 8.47656H0.80859C0.286051 9.88488 0 11.4081 0 12.9983C0 14.5884 0.286051 16.1117 0.80859 17.52L13 18.6504L25.1914 17.52Z" fill="#0052B4"/>
<path d="M13 26.0017C18.5895 26.0017 23.3546 22.4738 25.1914 17.5234H0.808594C2.6454 22.4738 7.41046 26.0017 13 26.0017Z" fill="#D80027"/>
</g>
<defs>
<clipPath id="clip0">
<rect width="26" height="26" fill="white"/>
</clipPath>
</defs>
</svg>
