<svg width="16" height="16" viewBox="0 0 16 16" fill="none" xmlns="http://www.w3.org/2000/svg">
<path d="M9.56375 11.6293C9.53536 11.6293 9.50726 11.6237 9.48104 11.6128C9.45482 11.602 9.431 11.586 9.41095 11.566C9.39089 11.5459 9.37499 11.522 9.36416 11.4958C9.35333 11.4696 9.34777 11.4414 9.34781 11.4131V7.15806C9.34671 7.12899 9.35148 7.1 9.36184 7.07282C9.3722 7.04564 9.38794 7.02082 9.40811 6.99987C9.42829 6.97891 9.45249 6.96224 9.47925 6.95085C9.50602 6.93946 9.53481 6.93359 9.5639 6.93359C9.59299 6.93359 9.62178 6.93946 9.64855 6.95085C9.67532 6.96224 9.69951 6.97891 9.71969 6.99987C9.73986 7.02082 9.7556 7.04564 9.76596 7.07282C9.77633 7.1 9.7811 7.12899 9.77999 7.15806V11.4131C9.77999 11.4415 9.7744 11.4696 9.76353 11.4958C9.75266 11.5221 9.73673 11.5459 9.71665 11.566C9.69657 11.5861 9.67273 11.602 9.6465 11.6129C9.62026 11.6237 9.59214 11.6293 9.56375 11.6293Z" fill="black"/>
<path d="M10.3416 10.9214C10.0773 10.9212 9.82381 10.8162 9.63686 10.6294C9.4499 10.4425 9.34472 10.1892 9.34439 9.92484V7.15547C9.34439 7.09812 9.36717 7.04311 9.40772 7.00256C9.44828 6.962 9.50328 6.93922 9.56064 6.93922C9.61799 6.93922 9.67299 6.962 9.71355 7.00256C9.7541 7.04311 9.77689 7.09812 9.77689 7.15547V9.92297C9.77689 10.0726 9.83631 10.216 9.9421 10.3218C10.0479 10.4276 10.1914 10.487 10.341 10.487C10.4906 10.487 10.634 10.4276 10.7398 10.3218C10.8456 10.216 10.905 10.0726 10.905 9.92297V6.49266C10.9043 6.06357 10.7335 5.65226 10.4301 5.34885C10.1267 5.04544 9.71535 4.87465 9.28626 4.87391H6.71407C6.28484 4.87448 5.87334 5.04519 5.56974 5.34861C5.26614 5.65203 5.0952 6.06343 5.09438 6.49266V9.92484C5.09784 10.0722 5.15881 10.2123 5.26424 10.3153C5.36968 10.4183 5.51121 10.4759 5.6586 10.4759C5.80598 10.4759 5.94751 10.4183 6.05295 10.3153C6.15838 10.2123 6.21935 10.0722 6.22282 9.92484V7.15547C6.22282 7.09791 6.24568 7.04271 6.28638 7.002C6.32708 6.9613 6.38229 6.93844 6.43985 6.93844C6.49741 6.93844 6.55261 6.9613 6.59331 7.002C6.63401 7.04271 6.65688 7.09791 6.65688 7.15547V9.92297C6.65225 10.1842 6.54524 10.4331 6.35888 10.6162C6.17252 10.7993 5.92172 10.9019 5.66047 10.9019C5.39922 10.9019 5.14842 10.7993 4.96206 10.6162C4.7757 10.4331 4.66869 10.1842 4.66406 9.92297V6.49266C4.66481 5.94886 4.88116 5.42755 5.26568 5.04303C5.65021 4.6585 6.17152 4.44215 6.71532 4.44141H9.28814C9.83193 4.44215 10.3532 4.6585 10.7378 5.04303C11.1223 5.42755 11.3386 5.94886 11.3394 6.49266V9.92484C11.3391 10.189 11.234 10.4423 11.0471 10.6292C10.8603 10.816 10.607 10.9211 10.3428 10.9214H10.3416Z" fill="black"/>
<path d="M8.78172 15.5656C8.51749 15.5654 8.26416 15.4603 8.07732 15.2735C7.89048 15.0866 7.7854 14.8333 7.78516 14.5691V10.8625C7.78516 10.8341 7.79075 10.806 7.80162 10.7797C7.81249 10.7535 7.82841 10.7297 7.84849 10.7096C7.86858 10.6895 7.89241 10.6736 7.91865 10.6627C7.94489 10.6518 7.97301 10.6462 8.00141 10.6462C8.02981 10.6462 8.05793 10.6518 8.08416 10.6627C8.1104 10.6736 8.13424 10.6895 8.15432 10.7096C8.1744 10.7297 8.19033 10.7535 8.2012 10.7797C8.21206 10.806 8.21766 10.8341 8.21766 10.8625V14.5691C8.21766 14.7187 8.27708 14.8621 8.38287 14.9679C8.48865 15.0737 8.63212 15.1331 8.78172 15.1331C8.93132 15.1331 9.07479 15.0737 9.18057 14.9679C9.28635 14.8621 9.34578 14.7187 9.34578 14.5691V7.15438C9.34578 7.09686 9.36863 7.04169 9.4093 7.00102C9.44997 6.96035 9.50514 6.9375 9.56266 6.9375C9.62018 6.9375 9.67534 6.96035 9.71601 7.00102C9.75668 7.04169 9.77953 7.09686 9.77953 7.15438V14.5691C9.77928 14.8333 9.67421 15.0866 9.48737 15.2735C9.30053 15.4603 9.0472 15.5654 8.78297 15.5656H8.78172Z" fill="black"/>
<path d="M7.2114 15.5689C6.9472 15.5686 6.69391 15.4635 6.50709 15.2766C6.32028 15.0898 6.21517 14.8365 6.21484 14.5723V7.15766C6.21484 7.1003 6.23763 7.0453 6.27818 7.00474C6.31874 6.96419 6.37374 6.94141 6.43109 6.94141C6.48845 6.94141 6.54345 6.96419 6.584 7.00474C6.62456 7.0453 6.64734 7.1003 6.64734 7.15766V14.5723C6.65081 14.7197 6.71178 14.8598 6.81721 14.9628C6.92264 15.0658 7.06418 15.1234 7.21156 15.1234C7.35894 15.1234 7.50048 15.0658 7.60591 14.9628C7.71134 14.8598 7.77231 14.7197 7.77578 14.5723V10.8658C7.77467 10.8367 7.77944 10.8077 7.7898 10.7805C7.80017 10.7533 7.81591 10.7285 7.83608 10.7076C7.85626 10.6866 7.88045 10.6699 7.90722 10.6586C7.93399 10.6472 7.96278 10.6413 7.99187 10.6413C8.02096 10.6413 8.04975 10.6472 8.07652 10.6586C8.10329 10.6699 8.12749 10.6866 8.14766 10.7076C8.16784 10.7285 8.18358 10.7533 8.19394 10.7805C8.2043 10.8077 8.20907 10.8367 8.20797 10.8658V14.5723C8.2078 14.8366 8.10275 15.09 7.9159 15.2768C7.72904 15.4637 7.47566 15.5687 7.2114 15.5689Z" fill="black"/>
<path d="M8.00125 3.92047C7.65642 3.92047 7.31933 3.81821 7.03261 3.62663C6.7459 3.43504 6.52244 3.16273 6.39049 2.84414C6.25855 2.52555 6.22404 2.17499 6.29134 1.83679C6.35863 1.49859 6.52471 1.18794 6.76856 0.944125C7.01242 0.700313 7.3231 0.534292 7.66131 0.467056C7.99953 0.39982 8.35008 0.434391 8.66865 0.566396C8.98721 0.6984 9.25948 0.921909 9.45101 1.20866C9.64254 1.49541 9.74474 1.83251 9.74468 2.17734C9.74468 2.40628 9.69958 2.63298 9.61196 2.84448C9.52434 3.05599 9.39592 3.24816 9.23402 3.41003C9.07213 3.5719 8.87993 3.70029 8.66841 3.78787C8.45689 3.87545 8.23018 3.92051 8.00125 3.92047ZM8.00125 0.866407C7.74204 0.866716 7.48873 0.943864 7.27336 1.0881C7.05798 1.23233 6.8902 1.43718 6.79122 1.67675C6.69223 1.91632 6.6665 2.17986 6.71726 2.43405C6.76801 2.68825 6.89299 2.92169 7.07639 3.10487C7.25979 3.28805 7.49338 3.41275 7.74763 3.46321C8.00189 3.51366 8.26539 3.48761 8.50484 3.38834C8.74429 3.28908 8.94894 3.12105 9.09292 2.9055C9.2369 2.68995 9.31374 2.43656 9.31374 2.17734C9.31333 1.82952 9.17487 1.49608 8.92877 1.25028C8.68267 1.00447 8.34907 0.866407 8.00125 0.866407Z" fill="black"/>
</svg>
