<svg width="13" height="12" viewBox="0 0 13 12" fill="none" xmlns="http://www.w3.org/2000/svg">
<path d="M6.02575 12C2.67811 12 0 9.32189 0 6.02575C0 2.67811 2.67811 0 6.02575 0C9.32189 0 12.0515 2.67811 12.0515 6.02575C12 9.32189 9.32189 12 6.02575 12ZM6.02575 1.03004C3.24463 1.03004 1.03004 3.24464 1.03004 6.02575C1.03004 8.80687 3.24463 11.0215 6.02575 11.0215C8.75536 11.0215 11.0215 8.80687 11.0215 6.02575C11.0215 3.24464 8.75536 1.03004 6.02575 1.03004Z" fill="#1B1C1D"/>
<path d="M6.02674 6.53898C5.71773 6.53898 5.51172 6.33297 5.51172 6.02396V2.3158C5.51172 2.00679 5.71773 1.80078 6.02674 1.80078C6.33575 1.80078 6.54176 2.00679 6.54176 2.3158V6.02396C6.54176 6.28147 6.28425 6.53898 6.02674 6.53898Z" fill="#1B1C1D"/>
<path d="M6.02674 1.33906C5.71773 1.33906 5.51172 1.13305 5.51172 0.824034V0.515021C5.51172 0.206009 5.71773 0 6.02674 0C6.33575 0 6.54176 0.206009 6.54176 0.515021V0.824034C6.54176 1.13305 6.28425 1.33906 6.02674 1.33906Z" fill="#1B1C1D"/>
<path d="M6.02674 11.9992C5.71773 11.9992 5.51172 11.7932 5.51172 11.4842V11.1752C5.51172 10.8662 5.71773 10.6602 6.02674 10.6602C6.33575 10.6602 6.54176 10.8662 6.54176 11.1752V11.4842C6.54176 11.7932 6.28425 11.9992 6.02674 11.9992Z" fill="#1B1C1D"/>
<path d="M11.4842 6.54176H11.1752C10.8662 6.54176 10.6602 6.33575 10.6602 6.02674C10.6602 5.71773 10.8662 5.51172 11.1752 5.51172H11.4842C11.7932 5.51172 11.9992 5.71773 11.9992 6.02674C11.9992 6.28425 11.7932 6.54176 11.4842 6.54176Z" fill="#1B1C1D"/>
<path d="M0.824034 6.54176H0.515021C0.206009 6.54176 0 6.33575 0 6.02674C0 5.71773 0.206009 5.51172 0.515021 5.51172H0.824034C1.13305 5.51172 1.33906 5.71773 1.33906 6.02674C1.33906 6.28425 1.13305 6.54176 0.824034 6.54176Z" fill="#1B1C1D"/>
<path d="M8.3434 2.21461C8.2919 2.21461 8.2404 2.21461 8.2404 2.16311C8.13739 2.11161 8.08589 1.9571 8.13739 1.80259L8.2919 1.54508C8.3434 1.44208 8.49791 1.39058 8.65241 1.44208C8.75542 1.54508 8.80692 1.69959 8.70392 1.80259L8.54941 2.06011C8.54941 2.16311 8.44641 2.21461 8.3434 2.21461Z" fill="#1B1C1D"/>
<path d="M3.50356 10.6091C3.45205 10.6091 3.40055 10.6091 3.40055 10.5576C3.29755 10.5061 3.24605 10.3516 3.29755 10.1971L3.45205 9.93961C3.50356 9.83661 3.65806 9.78511 3.81257 9.83661C3.91557 9.88811 3.96708 10.0426 3.91557 10.1971L3.76107 10.4546C3.70957 10.5576 3.60656 10.6091 3.50356 10.6091Z" fill="#1B1C1D"/>
<path d="M10.3509 8.75614C10.2994 8.75614 10.2479 8.75614 10.2479 8.70464L9.9904 8.55013C9.88739 8.49863 9.83589 8.34412 9.88739 8.18961C9.93889 8.08661 10.0934 8.03511 10.2479 8.08661L10.5054 8.24112C10.6084 8.29262 10.6599 8.44713 10.6084 8.60163C10.5054 8.70464 10.4024 8.75614 10.3509 8.75614Z" fill="#1B1C1D"/>
<path d="M1.9571 3.91445C1.9056 3.91445 1.8541 3.91445 1.8541 3.86295L1.54508 3.75995C1.44208 3.65694 1.39058 3.50244 1.44208 3.39943C1.54508 3.24492 1.69959 3.24493 1.80259 3.29643L2.06011 3.45093C2.16311 3.50244 2.21461 3.65694 2.16311 3.81145C2.11161 3.86295 2.06011 3.91445 1.9571 3.91445Z" fill="#1B1C1D"/>
<path d="M3.65304 2.21461C3.55003 2.21461 3.49853 2.16311 3.44703 2.06011L3.29252 1.80259C3.24102 1.69959 3.24102 1.54508 3.39553 1.44208C3.49853 1.39058 3.65304 1.44208 3.75604 1.54508L3.91055 1.80259C3.96205 1.9056 3.96205 2.06011 3.80754 2.16311C3.75604 2.21461 3.70454 2.21461 3.65304 2.21461Z" fill="#1B1C1D"/>
<path d="M8.49679 10.6112C8.39378 10.6112 8.34228 10.5597 8.29078 10.5082L8.13627 10.2507C8.08477 10.1477 8.08477 9.99318 8.23928 9.89018C8.34228 9.83868 8.49679 9.83867 8.59979 9.99318L8.7543 10.2507C8.8058 10.3537 8.8058 10.5082 8.65129 10.6112C8.59979 10.5597 8.54829 10.6112 8.49679 10.6112Z" fill="#1B1C1D"/>
<path d="M1.69775 8.75502C1.59474 8.75502 1.54324 8.70352 1.49174 8.60051C1.44024 8.49751 1.44024 8.343 1.59474 8.24L1.85225 8.08549C1.95526 8.03399 2.10977 8.03399 2.21277 8.18849C2.26427 8.2915 2.26427 8.446 2.10977 8.54901L1.85225 8.70351C1.74925 8.75502 1.74925 8.75502 1.69775 8.75502Z" fill="#1B1C1D"/>
<path d="M10.0415 3.91517C9.93849 3.91517 9.88699 3.86367 9.83549 3.76067C9.78399 3.65766 9.78399 3.50316 9.93849 3.40015L10.196 3.24565C10.299 3.19414 10.4535 3.19414 10.5565 3.34865C10.608 3.45165 10.608 3.60616 10.4535 3.70916L10.196 3.86367C10.1445 3.91517 10.093 3.91517 10.0415 3.91517Z" fill="#1B1C1D"/>
<path d="M4.42908 8.0861C4.27458 8.0861 4.17157 8.0346 4.06857 7.9316C3.86256 7.72559 3.86256 7.41658 4.06857 7.21057L5.56213 5.71701C5.76814 5.511 6.07715 5.511 6.28316 5.71701C6.48917 5.92301 6.48917 6.23203 6.28316 6.43804L4.7896 7.9316C4.7381 8.0346 4.58359 8.0861 4.42908 8.0861Z" fill="#1B1C1D"/>
</svg>
