<svg width="19" height="19" viewBox="0 0 19 19" fill="none" xmlns="http://www.w3.org/2000/svg">
<path d="M8.21484 3.96442C8.21524 3.62381 8.35072 3.29726 8.59157 3.05641C8.83241 2.81556 9.15896 2.68008 9.49957 2.67969C9.56846 2.67969 9.63454 2.65232 9.68325 2.6036C9.73197 2.55489 9.75934 2.48882 9.75934 2.41992C9.75934 2.35103 9.73197 2.28496 9.68325 2.23624C9.63454 2.18752 9.56846 2.16016 9.49957 2.16016C9.02122 2.16071 8.56262 2.35097 8.22437 2.68922C7.88613 3.02746 7.69586 3.48607 7.69531 3.96442C7.69531 4.03331 7.72268 4.09938 7.7714 4.1481C7.82011 4.19681 7.88618 4.22418 7.95508 4.22418C8.02397 4.22418 8.09004 4.19681 8.13876 4.1481C8.18748 4.09938 8.21484 4.03331 8.21484 3.96442Z" fill="black"/>
<path d="M13.9759 16.2401C13.8902 15.9552 13.7152 15.7054 13.4768 15.5274C13.2384 15.3494 12.9492 15.2526 12.6517 15.2513H12.3251C12.2655 14.9783 12.1144 14.7338 11.8969 14.5583C11.6793 14.3828 11.4084 14.2869 11.1289 14.2865H10.5537V10.5107H11.1274C11.1963 10.5107 11.2624 10.4833 11.3111 10.4346C11.3598 10.3859 11.3872 10.3198 11.3872 10.2509V8.77814C11.3669 7.47622 11.5916 6.18211 12.0498 4.96329C12.1754 4.64482 12.2396 4.30546 12.239 3.96312C12.2392 3.56218 12.1513 3.16609 11.9816 2.80283C11.8119 2.43957 11.5645 2.11797 11.257 1.86075C10.9494 1.60353 10.5891 1.41695 10.2016 1.31418C9.81402 1.21141 9.40864 1.19496 9.01403 1.26598C8.61943 1.337 8.24522 1.49377 7.91782 1.72521C7.59043 1.95666 7.31782 2.25714 7.11924 2.60546C6.92066 2.95377 6.80096 3.34143 6.76857 3.74106C6.73618 4.1407 6.79191 4.54257 6.93181 4.91832C7.40384 6.24996 7.63412 7.65523 7.6118 9.06789V10.2509C7.6118 10.3198 7.63917 10.3859 7.68788 10.4346C7.7366 10.4833 7.80267 10.5107 7.87156 10.5107H8.44587V14.2865H7.87023C7.59073 14.2869 7.31977 14.3828 7.10222 14.5583C6.88467 14.7338 6.73358 14.9783 6.67397 15.2513H6.34741C6.04991 15.2527 5.76069 15.3494 5.52231 15.5274C5.28393 15.7054 5.10898 15.9552 5.0232 16.2401L4.66695 17.4412C4.65547 17.48 4.65319 17.5209 4.6603 17.5607C4.6674 17.6005 4.6837 17.6381 4.70788 17.6705C4.73207 17.7028 4.76347 17.7291 4.79961 17.7472C4.83574 17.7654 4.8756 17.7748 4.91602 17.7748H14.082C14.1225 17.7748 14.1623 17.7654 14.1985 17.7472C14.2346 17.7291 14.266 17.7028 14.2902 17.6705C14.3144 17.6381 14.3307 17.6005 14.3378 17.5607C14.3449 17.5209 14.3426 17.48 14.3311 17.4412L13.9759 16.2401ZM7.41868 4.73648C7.29334 4.39919 7.25187 4.0365 7.29783 3.67962C7.34379 3.32275 7.4758 2.98239 7.6825 2.68786C7.88921 2.39334 8.1644 2.15347 8.48439 1.98891C8.80438 1.82435 9.15957 1.74004 9.51938 1.74323C9.87919 1.74643 10.2328 1.83703 10.5498 2.00724C10.8669 2.17745 11.1378 2.42217 11.3392 2.72032C11.5406 3.01847 11.6666 3.36111 11.7062 3.71874C11.7458 4.07638 11.6979 4.43828 11.5666 4.77329C11.0845 6.05253 10.8474 7.41107 10.8678 8.77799V8.80768H8.12955C8.12592 7.42005 7.88552 6.04322 7.41868 4.73648ZM8.13118 9.32765H10.8679V9.99117H8.13163L8.13118 9.32765ZM8.96481 10.5107H10.0336V14.2865H8.9654L8.96481 10.5107ZM7.87023 14.806H11.1293C11.2704 14.8063 11.4081 14.8489 11.5247 14.9283C11.6413 15.0077 11.7314 15.1202 11.7833 15.2513H7.21621C7.26818 15.1202 7.35828 15.0077 7.47487 14.9283C7.59146 14.8489 7.72918 14.8063 7.87023 14.806ZM5.2647 17.2553L5.52165 16.3876C5.5752 16.2099 5.68437 16.0541 5.83309 15.9431C5.98182 15.8321 6.16226 15.7717 6.34785 15.7709H12.6517C12.8373 15.7717 13.0177 15.8321 13.1664 15.9431C13.3151 16.0541 13.4242 16.2099 13.4778 16.3876L13.7347 17.2553H5.2647Z" fill="black"/>
<path d="M6.11285 9.16202L5.25578 10.0193C5.20706 10.068 5.17969 10.134 5.17969 10.2029C5.17969 10.2718 5.20706 10.3379 5.25578 10.3866C5.30449 10.4354 5.37057 10.4627 5.43947 10.4627C5.50836 10.4627 5.57444 10.4354 5.62316 10.3866L6.48038 9.52941C6.5291 9.48069 6.55647 9.41461 6.55647 9.34572C6.55647 9.27682 6.5291 9.21074 6.48038 9.16202C6.43167 9.11331 6.36559 9.08594 6.29669 9.08594C6.2278 9.08594 6.16172 9.11331 6.113 9.16202H6.11285Z" fill="black"/>
<path d="M5.92909 8.72266C5.99798 8.72266 6.06405 8.69529 6.11277 8.64657C6.16148 8.59786 6.18885 8.53178 6.18885 8.46289C6.18885 8.394 6.16148 8.32792 6.11277 8.27921C6.06405 8.23049 5.99798 8.20312 5.92909 8.20312H4.7168C4.6479 8.20313 4.58183 8.23049 4.53311 8.27921C4.4844 8.32792 4.45703 8.394 4.45703 8.46289C4.45703 8.53178 4.4844 8.59786 4.53311 8.64657C4.58183 8.69529 4.6479 8.72266 4.7168 8.72266H5.92909Z" fill="black"/>
<path d="M6.11363 7.76234C6.16235 7.81106 6.22842 7.83843 6.29732 7.83843C6.36622 7.83843 6.4323 7.81106 6.48101 7.76234C6.52973 7.71362 6.5571 7.64754 6.5571 7.57865C6.5571 7.50975 6.52973 7.44367 6.48101 7.39495L5.62379 6.53773C5.57478 6.49042 5.50916 6.46425 5.44105 6.46485C5.37294 6.46546 5.30779 6.49279 5.25964 6.54096C5.21149 6.58914 5.18418 6.6543 5.1836 6.72241C5.18303 6.79052 5.20922 6.85613 5.25655 6.90511L6.11363 7.76234Z" fill="black"/>
<path d="M12.7054 7.83793C12.7395 7.83797 12.7733 7.83127 12.8048 7.8182C12.8363 7.80513 12.8649 7.78596 12.889 7.76178L13.7461 6.90441C13.7948 6.85569 13.8222 6.78961 13.8222 6.72072C13.8222 6.65182 13.7948 6.58574 13.7461 6.53702C13.6974 6.48831 13.6313 6.46094 13.5624 6.46094C13.4935 6.46094 13.4274 6.48831 13.3787 6.53702L12.5216 7.39425C12.4852 7.43057 12.4604 7.47689 12.4503 7.52733C12.4403 7.57776 12.4454 7.63005 12.4651 7.67757C12.4848 7.72509 12.5181 7.76569 12.5609 7.79424C12.6037 7.82279 12.654 7.838 12.7054 7.83793Z" fill="black"/>
<path d="M14.2846 8.20312H13.0723C13.0034 8.20313 12.9373 8.23049 12.8886 8.27921C12.8399 8.32792 12.8125 8.394 12.8125 8.46289C12.8125 8.53178 12.8399 8.59786 12.8886 8.64657C12.9373 8.69529 13.0034 8.72266 13.0723 8.72266H14.2846C14.3534 8.72266 14.4195 8.69529 14.4682 8.64657C14.517 8.59786 14.5443 8.53178 14.5443 8.46289C14.5443 8.394 14.517 8.32792 14.4682 8.27921C14.4195 8.23049 14.3534 8.20312 14.2846 8.20312Z" fill="black"/>
<path d="M13.3786 10.3866C13.4276 10.4339 13.4933 10.4601 13.5614 10.4595C13.6295 10.4589 13.6946 10.4316 13.7428 10.3834C13.7909 10.3352 13.8182 10.2701 13.8188 10.202C13.8194 10.1338 13.7932 10.0682 13.7459 10.0193L12.8888 9.16202C12.8647 9.1379 12.836 9.11877 12.8045 9.10571C12.773 9.09266 12.7392 9.08594 12.7051 9.08594C12.671 9.08594 12.6372 9.09266 12.6057 9.10571C12.5742 9.11877 12.5455 9.1379 12.5214 9.16202C12.4973 9.18615 12.4781 9.21479 12.4651 9.2463C12.452 9.27782 12.4453 9.3116 12.4453 9.34572C12.4453 9.37983 12.452 9.41361 12.4651 9.44513C12.4781 9.47665 12.4973 9.50529 12.5214 9.52941L13.3786 10.3866Z" fill="black"/>
</svg>
