<svg width="49" height="41" viewBox="0 0 49 41" fill="none" xmlns="http://www.w3.org/2000/svg">
<mask id="path-1-inside-1" fill="white">
<path fill-rule="evenodd" clip-rule="evenodd" d="M1.80088 16.7701C1.35857 15.758 1.8205 14.5789 2.83264 14.1366L33.3483 0.800962C34.3604 0.358645 35.5395 0.820581 35.9818 1.83272L37.3233 4.9023C37.2032 4.9397 37.0839 4.98407 36.9659 5.03562C35.2323 5.79325 34.441 7.81283 35.1987 9.54649C35.9563 11.2802 37.9759 12.0714 39.7095 11.3138C39.8275 11.2622 39.9411 11.2048 40.0501 11.1421L41.3915 14.2116C41.8338 15.2237 41.3719 16.4028 40.3597 16.8451L9.84409 30.1807C8.83194 30.6231 7.65288 30.1611 7.21056 29.149L5.86904 26.0792C5.98909 26.0418 6.1083 25.9975 6.22619 25.9459C7.95985 25.1883 8.75108 23.1687 7.99345 21.4351C7.23583 19.7014 5.21624 18.9102 3.48258 19.6678C3.36469 19.7193 3.25116 19.7767 3.14217 19.8394L1.80088 16.7701Z"/>
</mask>
<path fill-rule="evenodd" clip-rule="evenodd" d="M1.80088 16.7701C1.35857 15.758 1.8205 14.5789 2.83264 14.1366L33.3483 0.800962C34.3604 0.358645 35.5395 0.820581 35.9818 1.83272L37.3233 4.9023C37.2032 4.9397 37.0839 4.98407 36.9659 5.03562C35.2323 5.79325 34.441 7.81283 35.1987 9.54649C35.9563 11.2802 37.9759 12.0714 39.7095 11.3138C39.8275 11.2622 39.9411 11.2048 40.0501 11.1421L41.3915 14.2116C41.8338 15.2237 41.3719 16.4028 40.3597 16.8451L9.84409 30.1807C8.83194 30.6231 7.65288 30.1611 7.21056 29.149L5.86904 26.0792C5.98909 26.0418 6.1083 25.9975 6.22619 25.9459C7.95985 25.1883 8.75108 23.1687 7.99345 21.4351C7.23583 19.7014 5.21624 18.9102 3.48258 19.6678C3.36469 19.7193 3.25116 19.7767 3.14217 19.8394L1.80088 16.7701Z" fill="white"/>
<path d="M2.83264 14.1366L2.4322 13.2203L2.83264 14.1366ZM33.3483 0.800962L33.7487 1.71728L33.3483 0.800962ZM35.9818 1.83272L35.0655 2.23316L35.9818 1.83272ZM37.3233 4.9023L37.6205 5.85709L38.6868 5.52511L38.2396 4.50185L37.3233 4.9023ZM40.0501 11.1421L40.9664 10.7416L40.5193 9.71837L39.5514 10.2753L40.0501 11.1421ZM7.21056 29.149L8.12688 28.7485L7.21056 29.149ZM5.86904 26.0792L5.5717 25.1244L4.50557 25.4564L4.95272 26.4796L5.86904 26.0792ZM3.14217 19.8394L2.22585 20.2398L2.673 21.263L3.64087 20.7062L3.14217 19.8394ZM2.4322 13.2203C0.91399 13.8838 0.221088 15.6524 0.884562 17.1706L2.71721 16.3697C2.49605 15.8636 2.72702 15.2741 3.23309 15.0529L2.4322 13.2203ZM32.9479 -0.11536L2.4322 13.2203L3.23309 15.0529L33.7487 1.71728L32.9479 -0.11536ZM36.8982 1.43228C36.2347 -0.0859312 34.4661 -0.778835 32.9479 -0.11536L33.7487 1.71728C34.2548 1.49612 34.8444 1.72709 35.0655 2.23316L36.8982 1.43228ZM38.2396 4.50185L36.8982 1.43228L35.0655 2.23316L36.4069 5.30274L38.2396 4.50185ZM37.3664 5.95194C37.4506 5.91513 37.5354 5.88359 37.6205 5.85709L37.026 3.94751C36.8709 3.9958 36.7171 4.05302 36.5655 4.1193L37.3664 5.95194ZM36.115 9.14605C35.5785 7.91846 36.1388 6.48841 37.3664 5.95194L36.5655 4.1193C34.3257 5.09808 33.3035 7.70721 34.2823 9.94694L36.115 9.14605ZM39.3091 10.3974C38.0815 10.9339 36.6514 10.3736 36.115 9.14605L34.2823 9.94694C35.2611 12.1867 37.8702 13.2089 40.11 12.2301L39.3091 10.3974ZM39.5514 10.2753C39.4741 10.3198 39.3933 10.3606 39.3091 10.3974L40.11 12.2301C40.2616 12.1638 40.408 12.0898 40.5489 12.0088L39.5514 10.2753ZM42.3078 13.8111L40.9664 10.7416L39.1338 11.5425L40.4752 14.612L42.3078 13.8111ZM40.7602 17.7614C42.2784 17.0979 42.9713 15.3293 42.3078 13.8111L40.4752 14.612C40.6963 15.1181 40.4654 15.7076 39.9593 15.9288L40.7602 17.7614ZM10.2445 31.0971L40.7602 17.7614L39.9593 15.9288L9.44364 29.2644L10.2445 31.0971ZM6.29424 29.5494C6.95771 31.0676 8.72632 31.7605 10.2445 31.0971L9.44364 29.2644C8.93757 29.4856 8.34804 29.2546 8.12688 28.7485L6.29424 29.5494ZM4.95272 26.4796L6.29424 29.5494L8.12688 28.7485L6.78536 25.6788L4.95272 26.4796ZM5.82575 25.0296C5.74156 25.0664 5.65677 25.0979 5.5717 25.1244L6.16638 27.034C6.3214 26.9857 6.47504 26.9285 6.62663 26.8623L5.82575 25.0296ZM7.07713 21.8355C7.6136 23.0631 7.05334 24.4931 5.82575 25.0296L6.62663 26.8623C8.86636 25.8835 9.88856 23.2744 8.90978 21.0346L7.07713 21.8355ZM3.88303 20.5841C5.11061 20.0477 6.54066 20.6079 7.07713 21.8355L8.90978 21.0346C7.93099 18.7949 5.32187 17.7727 3.08214 18.7515L3.88303 20.5841ZM3.64087 20.7062C3.7181 20.6617 3.79884 20.6209 3.88303 20.5841L3.08214 18.7515C2.93055 18.8177 2.78422 18.8916 2.64348 18.9726L3.64087 20.7062ZM0.884562 17.1706L2.22585 20.2398L4.0585 19.4389L2.71721 16.3697L0.884562 17.1706Z" fill="#EF7D00" mask="url(#path-1-inside-1)"/>
<rect x="9.37109" y="11.2812" width="0.761272" height="2.28382" transform="rotate(-23.6058 9.37109 11.2812)" fill="#EF7D00"/>
<rect x="10.8945" y="14.7656" width="0.761272" height="2.28382" transform="rotate(-23.6058 10.8945 14.7656)" fill="#EF7D00"/>
<rect x="12.418" y="18.2539" width="0.761272" height="2.28382" transform="rotate(-23.6058 12.418 18.2539)" fill="#EF7D00"/>
<rect x="13.9453" y="21.7422" width="0.761272" height="2.28382" transform="rotate(-23.6058 13.9453 21.7422)" fill="#EF7D00"/>
<rect x="15.4688" y="25.2305" width="0.761272" height="2.28382" transform="rotate(-23.6058 15.4688 25.2305)" fill="#EF7D00"/>
<mask id="path-8-inside-2" fill="white">
<path fill-rule="evenodd" clip-rule="evenodd" d="M0 19C0 17.8954 0.895431 17 2 17H47C48.1046 17 49 17.8954 49 19V24.0275C48.8358 24.0093 48.669 24 48.5 24C46.0147 24 44 26.0147 44 28.5C44 30.9853 46.0147 33 48.5 33C48.669 33 48.8358 32.9907 49 32.9725V38C49 39.1046 48.1046 40 47 40H2C0.89543 40 0 39.1046 0 38V32.9725C0.164167 32.9907 0.330995 33 0.5 33C2.98528 33 5 30.9853 5 28.5C5 26.0147 2.98528 24 0.5 24C0.330995 24 0.164167 24.0093 0 24.0275V19Z"/>
</mask>
<path fill-rule="evenodd" clip-rule="evenodd" d="M0 19C0 17.8954 0.895431 17 2 17H47C48.1046 17 49 17.8954 49 19V24.0275C48.8358 24.0093 48.669 24 48.5 24C46.0147 24 44 26.0147 44 28.5C44 30.9853 46.0147 33 48.5 33C48.669 33 48.8358 32.9907 49 32.9725V38C49 39.1046 48.1046 40 47 40H2C0.89543 40 0 39.1046 0 38V32.9725C0.164167 32.9907 0.330995 33 0.5 33C2.98528 33 5 30.9853 5 28.5C5 26.0147 2.98528 24 0.5 24C0.330995 24 0.164167 24.0093 0 24.0275V19Z" fill="white"/>
<path d="M49 24.0275L48.8901 25.0214L50 25.1441V24.0275H49ZM49 32.9725H50V31.8559L48.8901 31.9786L49 32.9725ZM0 32.9725L0.109874 31.9786L-1 31.8559V32.9725H0ZM0 24.0275H-1V25.1441L0.109876 25.0214L0 24.0275ZM2 16C0.343146 16 -1 17.3431 -1 19H1C1 18.4477 1.44771 18 2 18V16ZM47 16H2V18H47V16ZM50 19C50 17.3431 48.6569 16 47 16V18C47.5523 18 48 18.4477 48 19H50ZM50 24.0275V19H48V24.0275H50ZM48.5 25C48.6322 25 48.7624 25.0073 48.8901 25.0214L49.1099 23.0335C48.9093 23.0113 48.7058 23 48.5 23V25ZM45 28.5C45 26.567 46.567 25 48.5 25V23C45.4624 23 43 25.4624 43 28.5H45ZM48.5 32C46.567 32 45 30.433 45 28.5H43C43 31.5376 45.4624 34 48.5 34V32ZM48.8901 31.9786C48.7624 31.9927 48.6322 32 48.5 32V34C48.7058 34 48.9093 33.9887 49.1099 33.9665L48.8901 31.9786ZM50 38V32.9725H48V38H50ZM47 41C48.6569 41 50 39.6569 50 38H48C48 38.5523 47.5523 39 47 39V41ZM2 41H47V39H2V41ZM-1 38C-1 39.6569 0.343144 41 2 41V39C1.44772 39 1 38.5523 1 38H-1ZM-1 32.9725V38H1V32.9725H-1ZM0.5 32C0.367778 32 0.23763 31.9927 0.109874 31.9786L-0.109874 33.9665C0.0907043 33.9887 0.294212 34 0.5 34V32ZM4 28.5C4 30.433 2.433 32 0.5 32V34C3.53757 34 6 31.5376 6 28.5H4ZM0.5 25C2.433 25 4 26.567 4 28.5H6C6 25.4624 3.53757 23 0.5 23V25ZM0.109876 25.0214C0.237627 25.0073 0.367775 25 0.5 25V23C0.294216 23 0.0907072 23.0113 -0.109876 23.0335L0.109876 25.0214ZM-1 19V24.0275H1V19H-1Z" fill="#EF7D00" mask="url(#path-8-inside-2)"/>
<rect x="12" y="17" width="1" height="3" fill="#EF7D00"/>
<rect x="12" y="22" width="1" height="3" fill="#EF7D00"/>
<rect x="12" y="27" width="1" height="3" fill="#EF7D00"/>
<rect x="12" y="32" width="1" height="3" fill="#EF7D00"/>
<rect x="12" y="37" width="1" height="3" fill="#EF7D00"/>
<path d="M23.75 26C23.75 26.6615 23.8073 27.1562 23.9219 27.4844C24.0417 27.8073 24.2318 27.9688 24.4922 27.9688C24.9922 27.9688 25.2422 27.3125 25.2422 26C25.2422 24.6979 24.9922 24.0469 24.4922 24.0469C24.2318 24.0469 24.0417 24.2083 23.9219 24.5312C23.8073 24.849 23.75 25.3385 23.75 26ZM27.2109 25.9844C27.2109 27.1823 26.9792 28.0833 26.5156 28.6875C26.0521 29.2865 25.3724 29.5859 24.4766 29.5859C23.6172 29.5859 22.9531 29.2786 22.4844 28.6641C22.0156 28.0443 21.7812 27.151 21.7812 25.9844C21.7812 23.6042 22.6797 22.4141 24.4766 22.4141C25.3568 22.4141 26.0312 22.724 26.5 23.3438C26.974 23.9583 27.2109 24.8385 27.2109 25.9844ZM32.5859 22.5781L26.25 34H24.375L30.7109 22.5781H32.5859ZM31.75 30.5625C31.75 31.224 31.8073 31.7188 31.9219 32.0469C32.0417 32.3698 32.2318 32.5312 32.4922 32.5312C32.9922 32.5312 33.2422 31.875 33.2422 30.5625C33.2422 29.2604 32.9922 28.6094 32.4922 28.6094C32.2318 28.6094 32.0417 28.7708 31.9219 29.0938C31.8073 29.4115 31.75 29.901 31.75 30.5625ZM35.2109 30.5469C35.2109 31.7396 34.9792 32.638 34.5156 33.2422C34.0521 33.8411 33.3724 34.1406 32.4766 34.1406C31.6172 34.1406 30.9531 33.8333 30.4844 33.2188C30.0156 32.599 29.7812 31.7083 29.7812 30.5469C29.7812 28.1667 30.6797 26.9766 32.4766 26.9766C33.3568 26.9766 34.0312 27.2865 34.5 27.9062C34.974 28.5208 35.2109 29.401 35.2109 30.5469Z" fill="#EF7D00"/>
</svg>
