<svg width="53" height="49" viewBox="0 0 53 49" fill="none" xmlns="http://www.w3.org/2000/svg">
<path d="M52.4516 10.5859H38.4102C39.1602 9.56932 39.5687 8.36162 39.5687 7.08935C39.5687 5.4532 38.9007 3.91914 37.6887 2.76991C35.1775 0.388545 31.0909 0.388545 28.5796 2.76991L25.9764 5.23854L23.374 2.76991C20.8628 0.388545 16.7761 0.388545 14.2649 2.76991C13.053 3.91914 12.3849 5.4532 12.3849 7.08935C12.3849 8.36162 12.7935 9.56932 13.5435 10.5859H-0.00012207V22.8025H4.60091V48.981H48.7708V22.8025H52.4516V10.5859ZM29.8808 4.00379C31.6752 2.30306 34.5941 2.30306 36.3876 4.00379C37.2516 4.82405 37.7283 5.91918 37.7283 7.08935C37.7283 8.25866 37.2516 9.35466 36.3876 10.174L35.9532 10.5859H22.9397L27.2775 6.47241L29.8808 4.00379ZM15.5661 10.174C14.702 9.35466 14.2253 8.25866 14.2253 7.08935C14.2253 5.91918 14.702 4.82405 15.5661 4.00379C17.3605 2.30306 20.2794 2.30306 22.0729 4.00379L24.6752 6.47241L21.4223 9.55711C21.2318 9.73774 21.0569 9.94193 20.8876 10.1583C20.8379 10.222 20.7892 10.291 20.7413 10.3582C20.6861 10.435 20.6281 10.5039 20.5757 10.585H16.0004L15.5661 10.174ZM1.84029 21.0573V12.3311H15.2376H19.5929H21.668H25.7656V21.0573H4.60091H1.84029ZM25.7656 22.8025V33.2739H6.44132V22.8025H25.7656ZM6.44132 35.0191H25.7656V47.2357H6.44132V35.0191ZM27.606 47.2357V35.0191H46.9304V47.2357H27.606ZM46.9304 33.2739H27.606V22.8025H46.9304V33.2739ZM50.6112 21.0573H48.7708H27.606V12.3311H36.7152H50.6112V21.0573Z" fill="#4285F4"/>
</svg>
