<svg width="17" height="10" viewBox="0 0 17 10" fill="none" xmlns="http://www.w3.org/2000/svg">
<path d="M1.70698 0.292893C1.31646 -0.0976311 0.683295 -0.0976311 0.292771 0.292893C-0.0977532 0.683417 -0.0977532 1.31658 0.292771 1.70711L1.70698 0.292893ZM8.49988 8.5L7.79277 9.20711C8.1833 9.59763 8.81646 9.59763 9.20698 9.20711L8.49988 8.5ZM16.707 1.70711C17.0975 1.31658 17.0975 0.683417 16.707 0.292893C16.3165 -0.0976311 15.6833 -0.0976311 15.2928 0.292893L16.707 1.70711ZM1.70698 0.292893C1.31646 -0.0976311 0.683295 -0.0976311 0.292771 0.292893C-0.0977532 0.683417 -0.0977532 1.31658 0.292771 1.70711L1.70698 0.292893ZM8.49988 8.5L7.79277 9.20711C8.1833 9.59763 8.81646 9.59763 9.20698 9.20711L8.49988 8.5ZM16.707 1.70711C17.0975 1.31658 17.0975 0.683417 16.707 0.292893C16.3165 -0.0976311 15.6833 -0.0976311 15.2928 0.292893L16.707 1.70711ZM0.292771 1.70711L7.79277 9.20711L9.20698 7.79289L1.70698 0.292893L0.292771 1.70711ZM9.20698 9.20711L16.707 1.70711L15.2928 0.292893L7.79277 7.79289L9.20698 9.20711ZM0.292771 1.70711L7.79277 9.20711L9.20698 7.79289L1.70698 0.292893L0.292771 1.70711ZM9.20698 9.20711L16.707 1.70711L15.2928 0.292893L7.79277 7.79289L9.20698 9.20711Z" fill="#1F1F1F"/>
</svg>
