<svg width="28" height="27" viewBox="0 0 28 27" fill="none" xmlns="http://www.w3.org/2000/svg">
<rect x="0.5" y="0.533707" width="26.0833" height="25.2921" rx="4.91667" stroke="#AAAAAA"/>
<path d="M13.3018 8.41408C12.2447 8.41408 11.3843 9.28418 11.3843 10.3532C11.3843 11.4222 12.2447 12.2923 13.3018 12.2923C14.359 12.2923 15.2194 11.4222 15.2194 10.3532C15.2194 9.28418 14.359 8.41408 13.3018 8.41408ZM13.3018 11.7383C12.5466 11.7383 11.9322 11.1169 11.9322 10.3532C11.9322 9.58946 12.5466 8.96811 13.3018 8.96811C14.0571 8.96811 14.6715 9.58946 14.6715 10.3532C14.6715 11.1169 14.0571 11.7383 13.3018 11.7383Z" fill="#AAAAAA"/>
<path d="M16.968 6.64589C15.9758 5.64254 14.6565 5.08989 13.2534 5.08989C11.85 5.08989 10.531 5.64254 9.53883 6.64589C7.70263 8.50244 7.47444 11.9956 9.04465 14.112L13.2534 20.2584L17.4559 14.1206C19.0324 11.9956 18.8042 8.50244 16.968 6.64589ZM17.0116 13.7968L13.2534 19.285L9.48925 13.7882C8.06505 11.8679 8.26913 8.71325 9.92645 7.03759C10.8151 6.13895 11.9966 5.64392 13.2534 5.64392C14.5103 5.64392 15.6918 6.13895 16.5807 7.03759C18.238 8.71325 18.4421 11.8679 17.0116 13.7968Z" fill="#AAAAAA"/>
</svg>
