<svg width="150" height="120" viewBox="0 0 150 120" fill="none" xmlns="http://www.w3.org/2000/svg">
<g filter="url(#filter0_i)">
<circle cx="75" cy="75" r="75" fill="#AFCA0B"/>
</g>
<path d="M52.9728 86.8549C60.288 95.6977 69.094 102.66 79.1448 107.586C82.9714 109.42 88.089 111.596 93.7906 111.969C94.1441 111.984 94.4822 112 94.8356 112C98.6623 112 101.736 110.663 104.241 107.913C104.256 107.897 104.287 107.866 104.302 107.835C105.194 106.747 106.208 105.768 107.268 104.727C107.991 104.028 108.728 103.297 109.435 102.551C112.709 99.1011 112.709 94.7186 109.405 91.3773L100.168 82.0373C98.6008 80.39 96.7259 79.5197 94.7588 79.5197C92.7917 79.5197 90.9014 80.39 89.2877 82.0218L83.7859 87.5854C83.2788 87.2901 82.7563 87.0259 82.2645 86.7772C81.6498 86.4664 81.0811 86.1712 80.574 85.8448C75.564 82.6278 71.015 78.4318 66.6658 73.0392C64.4682 70.2263 62.9928 67.8641 61.9632 65.4552C63.4078 64.1343 64.7602 62.7511 66.0665 61.3991C66.5275 60.9173 67.0039 60.4356 67.4803 59.9538C69.1401 58.2754 70.0314 56.3328 70.0314 54.3591C70.0314 52.3854 69.1555 50.4428 67.4803 48.7644L62.9006 44.1332C62.3627 43.5893 61.8556 43.0609 61.3331 42.517C60.3188 41.4602 59.2584 40.3724 58.2133 39.3933C56.6304 37.8237 54.7709 37 52.8037 37C50.852 37 48.9771 37.8237 47.3327 39.4088L41.585 45.2211C39.4949 47.3346 38.3116 49.8989 38.0657 52.8672C37.7737 56.5814 38.4499 60.5288 40.2019 65.2998C42.8913 72.6817 46.9485 79.5352 52.9728 86.8549ZM41.8155 53.1935C41.9999 51.1266 42.7837 49.4016 44.259 47.9097L49.976 42.1285C50.8674 41.2582 51.8509 40.8075 52.8037 40.8075C53.7412 40.8075 54.694 41.2582 55.57 42.1596C56.5997 43.1231 57.5679 44.1332 58.6129 45.2056C59.1354 45.7495 59.6733 46.2934 60.2112 46.8529L64.7909 51.484C65.7437 52.4476 66.2355 53.4266 66.2355 54.3902C66.2355 55.3537 65.7437 56.3328 64.7909 57.2963C64.3145 57.7781 63.8381 58.2754 63.3617 58.7571C61.9324 60.218 60.5954 61.6011 59.1201 62.9221C59.0893 62.9532 59.0739 62.9687 59.0432 62.9998C57.7677 64.2897 57.9674 65.5174 58.2748 66.4499C58.2902 66.4965 58.3055 66.5276 58.3209 66.5742C59.5043 69.4492 61.1486 72.1844 63.7151 75.448C68.3256 81.1981 73.1819 85.6583 78.53 89.0928C79.1909 89.528 79.8978 89.8699 80.5586 90.2118C81.1733 90.5226 81.742 90.8179 82.2491 91.1442C82.3106 91.1753 82.3567 91.2064 82.4182 91.2375C82.9253 91.5017 83.4171 91.626 83.9089 91.626C85.1383 91.626 85.9375 90.8334 86.1987 90.5692L91.9464 84.7569C92.8378 83.8556 93.806 83.3738 94.7588 83.3738C95.9268 83.3738 96.8796 84.1042 97.479 84.7569L106.746 94.1125C108.59 95.9774 108.575 97.9977 106.7 99.9714C106.054 100.671 105.378 101.339 104.656 102.038C103.58 103.095 102.458 104.183 101.444 105.411C99.6766 107.338 97.5712 108.239 94.851 108.239C94.5897 108.239 94.3131 108.224 94.0519 108.208C89.0111 107.882 84.3238 105.892 80.8045 104.199C71.2455 99.5207 62.8545 92.8848 55.8927 84.4617C50.1604 77.4838 46.303 70.9878 43.7519 64.0255C42.169 59.7518 41.5696 56.3172 41.8155 53.1935Z" fill="white"/>
<defs>
<filter id="filter0_i" x="0" y="0" width="150" height="154" filterUnits="userSpaceOnUse" color-interpolation-filters="sRGB">
<feFlood flood-opacity="0" result="BackgroundImageFix"/>
<feBlend mode="normal" in="SourceGraphic" in2="BackgroundImageFix" result="shape"/>
<feColorMatrix in="SourceAlpha" type="matrix" values="0 0 0 0 0 0 0 0 0 0 0 0 0 0 0 0 0 0 127 0" result="hardAlpha"/>
<feOffset dy="4"/>
<feGaussianBlur stdDeviation="2"/>
<feComposite in2="hardAlpha" operator="arithmetic" k2="-1" k3="1"/>
<feColorMatrix type="matrix" values="0 0 0 0 0 0 0 0 0 0 0 0 0 0 0 0 0 0 0.25 0"/>
<feBlend mode="normal" in2="shape" result="effect1_innerShadow"/>
</filter>
</defs>
</svg>
