<svg width="19" height="19" viewBox="0 0 19 19" fill="none" xmlns="http://www.w3.org/2000/svg">
<path d="M3.91631 12.512C5.70039 14.6686 7.84804 16.3666 10.2993 17.5681C11.2326 18.0153 12.4807 18.546 13.8712 18.6369C13.9574 18.6407 14.0399 18.6445 14.1261 18.6445C15.0594 18.6445 15.809 18.3185 16.4199 17.6477C16.4237 17.6439 16.4312 17.6363 16.4349 17.6287C16.6523 17.3634 16.8997 17.1246 17.1583 16.8707C17.3344 16.7001 17.5143 16.522 17.6868 16.3401C18.4851 15.4986 18.4851 14.4298 17.6793 13.6149L15.4267 11.337C15.0444 10.9352 14.5871 10.723 14.1073 10.723C13.6276 10.723 13.1666 10.9352 12.773 11.3332L11.4312 12.6901C11.3075 12.6181 11.1801 12.5537 11.0601 12.493C10.9102 12.4172 10.7715 12.3452 10.6479 12.2656C9.42599 11.481 8.31655 10.4577 7.25585 9.14248C6.71987 8.45646 6.36006 7.88035 6.10893 7.29287C6.46125 6.9707 6.79109 6.63338 7.10967 6.30363C7.22211 6.18613 7.3383 6.06864 7.4545 5.95114C7.85929 5.5418 8.07668 5.06803 8.07668 4.58667C8.07668 4.10532 7.86304 3.63154 7.4545 3.2222L6.33757 2.09273C6.20638 1.96007 6.0827 1.8312 5.95526 1.69855C5.70789 1.44081 5.44927 1.1755 5.1944 0.936717C4.80835 0.553908 4.35483 0.353027 3.87508 0.353027C3.39907 0.353027 2.94181 0.553908 2.54076 0.940507L1.13898 2.35804C0.629239 2.87351 0.340637 3.49889 0.280667 4.22281C0.209454 5.12867 0.374369 6.09138 0.801651 7.25497C1.45757 9.05531 2.44706 10.7268 3.91631 12.512ZM1.1952 4.30241C1.24018 3.79831 1.43133 3.3776 1.79114 3.01374L3.18543 1.60379C3.40282 1.39154 3.6427 1.28162 3.87508 1.28162C4.10371 1.28162 4.33609 1.39154 4.54973 1.61137C4.80085 1.84636 5.03698 2.09273 5.29185 2.35425C5.41929 2.48691 5.55047 2.61956 5.68165 2.75601L6.79858 3.88549C7.03096 4.12048 7.1509 4.35926 7.1509 4.59425C7.1509 4.82925 7.03096 5.06803 6.79858 5.30302C6.68239 5.42052 6.5662 5.5418 6.45001 5.6593C6.10144 6.01558 5.77536 6.3529 5.41554 6.67507C5.40804 6.68265 5.4043 6.68644 5.3968 6.69402C5.08571 7.00861 5.13443 7.30803 5.20939 7.53544C5.21314 7.54681 5.21689 7.55439 5.22064 7.56576C5.50924 8.26695 5.91029 8.93402 6.53622 9.72996C7.66064 11.1323 8.84503 12.2201 10.1494 13.0578C10.3105 13.1639 10.4829 13.2473 10.6441 13.3306C10.794 13.4065 10.9327 13.4785 11.0564 13.5581C11.0714 13.5656 11.0826 13.5732 11.0976 13.5808C11.2213 13.6452 11.3413 13.6756 11.4612 13.6756C11.761 13.6756 11.9559 13.4823 12.0197 13.4178L13.4214 12.0003C13.6388 11.7805 13.875 11.663 14.1073 11.663C14.3922 11.663 14.6246 11.8411 14.7708 12.0003L17.0308 14.282C17.4806 14.7368 17.4769 15.2295 17.0196 15.7109C16.8622 15.8814 16.6973 16.0444 16.5211 16.215C16.2587 16.4727 15.9851 16.738 15.7378 17.0375C15.3067 17.5074 14.7932 17.7273 14.1298 17.7273C14.0661 17.7273 13.9986 17.7235 13.9349 17.7197C12.7056 17.6401 11.5624 17.155 10.7041 16.7418C8.37278 15.601 6.32632 13.9826 4.62844 11.9283C3.23041 10.2265 2.28964 8.64218 1.66746 6.94417C1.28141 5.90187 1.13523 5.06424 1.1952 4.30241Z" fill="white"/>
</svg>
