<svg width="178" height="30" viewBox="0 0 178 30" fill="none" xmlns="http://www.w3.org/2000/svg">
<path d="M34.5029 0H14.8603C6.66977 0 -0.00012207 6.73253 -0.00012207 15C-0.00012207 23.2675 6.66977 30 14.8603 30H34.5029C42.7039 30 49.3633 23.2675 49.3633 15C49.3633 6.73253 42.6935 0 34.5029 0ZM34.5029 27.343H14.8603C8.11701 27.343 2.63218 21.8066 2.63218 15C2.63218 8.19337 8.11701 2.65702 14.8603 2.65702H34.5029C41.2462 2.65702 46.731 8.19337 46.731 15C46.731 21.8066 41.2462 27.343 34.5029 27.343Z" fill="#1F1F1F"/>
<path d="M8.21147 7.89699C6.33426 9.79183 5.29602 12.3218 5.29602 15C5.29602 20.5364 9.76359 25.0459 15.2589 25.0459H34.503C39.9878 25.0459 44.4554 20.5364 44.4554 15C44.4554 9.46368 39.9878 4.95415 34.503 4.95415H15.2589C12.5951 4.95415 10.0992 6.00214 8.21147 7.89699ZM34.503 7.28301C38.7189 7.28301 42.1482 10.7446 42.1482 15C42.1482 19.2555 38.7189 22.717 34.503 22.717C30.2871 22.717 26.8578 19.2555 26.8578 15C26.8473 10.7446 30.2766 7.28301 34.503 7.28301ZM24.5401 15C24.5401 18.5039 26.3229 21.5844 29.0182 23.3839H15.2589C10.676 23.3839 6.94252 19.626 6.94252 15C6.94252 12.7558 7.80247 10.6493 9.37556 9.072C10.9486 7.48414 13.0356 6.61611 15.2589 6.61611H29.0287C26.3229 8.41569 24.5401 11.5067 24.5401 15Z" fill="#1F1F1F"/>
<path d="M10.5709 15C10.5709 18.0593 13.0354 20.5469 16.0662 20.5469C19.0971 20.5469 21.5616 18.0593 21.5616 15C21.5616 11.9407 19.0971 9.45306 16.0662 9.45306C13.0354 9.45306 10.5709 11.9407 10.5709 15ZM16.0662 11.1256C18.1847 11.1256 19.9151 12.8723 19.9151 15.0106C19.9151 17.1489 18.1847 18.8955 16.0662 18.8955C13.9478 18.8955 12.2174 17.1489 12.2174 15.0106C12.2174 12.8723 13.9373 11.1256 16.0662 11.1256Z" fill="#1F1F1F"/>
<path d="M72.9806 12.8934V3.92731C72.9806 3.13337 72.3933 2.54057 71.6383 2.54057C70.8517 2.54057 70.2959 3.13337 70.2959 3.92731V13.0628C70.2959 15.8045 68.7018 17.5194 66.1324 17.5194C63.5421 17.5194 61.927 15.8045 61.927 13.0628V3.92731C61.927 3.13337 61.3712 2.54057 60.5847 2.54057C59.8191 2.54057 59.2423 3.13337 59.2423 3.92731V12.8828C59.2423 17.1807 61.9585 19.9965 66.1429 19.9965C70.2434 20.0071 72.9806 17.1912 72.9806 12.8934Z" fill="#1F1F1F"/>
<path d="M87.6627 10.3L85.7855 9.43194C83.9608 8.5639 83.4574 8.07696 83.4574 7.02897C83.4574 5.77985 84.4746 4.98592 85.9953 4.98592C87.2118 4.98592 88.1976 5.54697 89.0156 6.37266C89.2673 6.60554 89.5505 6.73257 89.8231 6.73257C90.4524 6.73257 91.0711 6.17153 91.0711 5.5258C91.0711 5.21881 90.9662 4.89065 90.6621 4.55191C89.6973 3.47216 88.1766 2.51945 85.9953 2.5512C82.975 2.5512 80.7202 4.46722 80.7202 7.13483C80.7202 9.15671 81.9577 10.5646 84.6215 11.8243L86.4777 12.6923C88.3339 13.5604 88.9422 14.1214 88.9422 15.2223C88.9422 16.6302 87.8306 17.583 86.0477 17.583C84.4012 17.583 83.0798 16.7149 82.1674 15.614C81.9367 15.36 81.6641 15.2541 81.3599 15.2541C80.6992 15.2541 80.1224 15.7622 80.1224 16.482C80.1224 16.8102 80.2797 17.1489 80.5314 17.4242C81.8214 19.012 84.0027 20.0071 86.0897 20.0071C89.3407 20.0071 91.6898 18.0593 91.6898 15.1165C91.6689 12.9676 90.4524 11.6126 87.6627 10.3Z" fill="#1F1F1F"/>
<path d="M105.313 17.2971H97.8039V11.9513H103.006C103.687 11.9513 104.201 11.4432 104.201 10.7763C104.201 10.1094 103.698 9.60129 103.006 9.60129H97.8039V5.26114H105.009C105.722 5.26114 106.257 4.75302 106.257 4.05436C106.257 3.36629 105.722 2.82642 105.009 2.82642H96.4091C95.675 2.82642 95.1191 3.38746 95.1191 4.12846V18.4192C95.1191 19.1602 95.675 19.7213 96.4091 19.7213H105.313C106.026 19.7213 106.55 19.1814 106.55 18.4933C106.561 17.8052 106.026 17.2971 105.313 17.2971Z" fill="#1F1F1F"/>
<path d="M122.459 18.7791C122.459 18.451 122.334 18.1122 122.05 17.7523L118.369 12.6606C120.194 11.8455 121.316 10.1518 121.316 8.00284C121.316 4.90122 119.03 2.82642 115.632 2.82642H110.913C110.126 2.82642 109.539 3.41922 109.539 4.21315V18.6309C109.539 19.4249 110.126 20.0177 110.881 20.0177C111.647 20.0177 112.224 19.4249 112.224 18.6309V13.2004H115.622L120.005 19.319C120.33 19.7742 120.739 20.0071 121.201 20.0071C121.904 20.0071 122.459 19.4672 122.459 18.7791ZM115.59 10.7869H112.245V5.23997H115.59C117.415 5.23997 118.558 6.34088 118.558 8.0346C118.558 9.71774 117.436 10.7869 115.59 10.7869Z" fill="#1F1F1F"/>
<path d="M138.515 3.85322C138.515 3.13339 137.928 2.55118 137.194 2.55118C136.586 2.55118 136.177 2.87934 135.925 3.49331L130.975 15.7516L126.004 3.49331C125.773 2.87934 125.343 2.55118 124.735 2.55118C124.001 2.55118 123.414 3.14398 123.414 3.85322C123.414 4.08611 123.466 4.34017 123.613 4.62598L129.675 19.0861C129.926 19.7001 130.356 20.0071 130.944 20.0071C131.552 20.0071 131.982 19.7001 132.234 19.0861L138.295 4.62598C138.442 4.34017 138.515 4.08611 138.515 3.85322Z" fill="#1F1F1F"/>
<path d="M144.168 18.6203V3.92731C144.168 3.13337 143.612 2.54057 142.826 2.54057C142.039 2.54057 141.483 3.13337 141.483 3.92731V18.6203C141.483 19.4142 142.039 20.007 142.826 20.007C143.612 20.007 144.168 19.4142 144.168 18.6203Z" fill="#1F1F1F"/>
<path d="M163.108 15.9845C163.108 15.3176 162.552 14.7565 161.86 14.7565C161.43 14.7565 161.074 14.9365 160.769 15.2964C159.553 16.7572 158.001 17.5194 156.176 17.5194C152.705 17.5194 150.135 14.8518 150.135 11.2738C150.135 7.68524 152.694 5.02822 156.176 5.02822C158.032 5.02822 159.574 5.76922 160.79 7.25123C161.094 7.61114 161.451 7.7911 161.86 7.7911C162.542 7.7911 163.108 7.23006 163.108 6.56316C163.108 6.20324 162.982 5.89625 162.678 5.48341C161.157 3.64149 158.745 2.54057 156.155 2.54057C151.205 2.54057 147.356 6.35144 147.356 11.2738C147.356 16.1962 151.216 20.007 156.155 20.007C158.766 20.007 161.178 18.9061 162.647 17.0642C162.982 16.6302 163.108 16.3232 163.108 15.9845Z" fill="#1F1F1F"/>
<path d="M178 18.4933C178 17.8052 177.465 17.2865 176.762 17.2865H169.253V11.9407H174.455C175.137 11.9407 175.651 11.4326 175.651 10.7657C175.651 10.0988 175.147 9.59071 174.455 9.59071H169.253V5.26114H176.458C177.171 5.26114 177.706 4.75302 177.706 4.05436C177.706 3.36629 177.171 2.82642 176.458 2.82642H167.859C167.125 2.82642 166.569 3.38746 166.569 4.12846V18.4192C166.569 19.1602 167.125 19.7213 167.859 19.7213H176.762C177.465 19.7213 178 19.192 178 18.4933Z" fill="#1F1F1F"/>
<path d="M60.742 24.5589C61.0356 24.5589 61.2768 24.6754 61.4656 24.9083C61.5181 24.9612 61.5705 24.993 61.6334 24.993C61.7383 24.993 61.8222 24.9083 61.8222 24.8024C61.8222 24.7495 61.8012 24.6966 61.7593 24.633C61.5181 24.3472 61.151 24.1779 60.742 24.1779C59.9659 24.1779 59.3682 24.7707 59.3682 25.5434C59.3682 26.3056 59.9659 26.909 60.742 26.909C61.151 26.909 61.5285 26.7396 61.7593 26.4538C61.8117 26.3903 61.8327 26.3374 61.8327 26.2844C61.8327 26.1786 61.7488 26.0939 61.6439 26.0939C61.581 26.0939 61.5181 26.1256 61.4761 26.1786C61.2873 26.4115 61.0461 26.5279 60.763 26.5279C60.2176 26.5279 59.8191 26.1151 59.8191 25.554C59.8086 24.9718 60.2071 24.5589 60.742 24.5589Z" fill="#1F1F1F"/>
<path d="M64.7376 26.4749H63.563V25.6387H64.3705C64.4754 25.6387 64.5593 25.554 64.5593 25.4587C64.5593 25.3634 64.4754 25.2788 64.3705 25.2788H63.563V24.6013H64.6851C64.8005 24.6013 64.8844 24.5166 64.8844 24.4107C64.8844 24.3049 64.8005 24.2202 64.6851 24.2202H63.3428C63.2275 24.2202 63.1436 24.3049 63.1436 24.4213V26.6549C63.1436 26.7713 63.2275 26.856 63.3428 26.856H64.7271C64.8425 26.856 64.9159 26.7713 64.9159 26.6655C64.9159 26.5596 64.8529 26.4749 64.7376 26.4749Z" fill="#1F1F1F"/>
<path d="M67.1392 24.2202H66.405C66.2792 24.2202 66.1848 24.3155 66.1848 24.4425V26.6867C66.1848 26.8137 66.2792 26.8984 66.3946 26.8984C66.5099 26.8984 66.6043 26.8031 66.6043 26.6867V25.8398H67.1392C67.6635 25.8398 68.0201 25.5116 68.0201 25.0247C68.0306 24.5378 67.674 24.2202 67.1392 24.2202ZM67.1392 25.4587H66.6148V24.5907H67.1392C67.4223 24.5907 67.6006 24.7601 67.6006 25.0247C67.6006 25.2893 67.4223 25.4587 67.1392 25.4587Z" fill="#1F1F1F"/>
<path d="M70.7678 25.4164C70.9041 25.2999 70.988 25.12 70.988 24.9188C70.988 24.4954 70.6734 24.2202 70.2015 24.2202H69.5093C69.3834 24.2202 69.2891 24.3155 69.2891 24.4425V26.6337C69.2891 26.7608 69.3834 26.856 69.5093 26.856H70.4112C70.9146 26.856 71.2607 26.549 71.2607 26.0939C71.2502 25.7551 71.0719 25.5116 70.7678 25.4164ZM69.6981 24.5907H70.1595C70.4112 24.5907 70.558 24.7177 70.558 24.94C70.558 25.1623 70.4112 25.2999 70.1595 25.2999H69.6981V24.5907ZM70.3692 26.4855H69.6981V25.6704H70.3692C70.6524 25.6704 70.8202 25.8292 70.8202 26.0833C70.8202 26.3267 70.6524 26.4855 70.3692 26.4855Z" fill="#1F1F1F"/>
<path d="M74.5012 24.1779C74.4069 24.1779 74.3649 24.2202 74.3125 24.2837L72.9282 26.1045V24.3896C72.9282 24.2625 72.8443 24.1779 72.7184 24.1779C72.603 24.1779 72.5087 24.2731 72.5087 24.3896V26.6867C72.5087 26.8031 72.603 26.8984 72.7184 26.8984C72.7918 26.8984 72.8443 26.8772 72.8862 26.8137L74.281 24.9824V26.6867C74.281 26.8137 74.3754 26.8984 74.4907 26.8984C74.6166 26.8984 74.7005 26.8031 74.7005 26.6867V24.3896C74.711 24.2625 74.6166 24.1779 74.5012 24.1779Z" fill="#1F1F1F"/>
<path d="M77.3747 24.5589C77.6683 24.5589 77.9095 24.6754 78.0983 24.9083C78.1507 24.9612 78.2032 24.993 78.2661 24.993C78.371 24.993 78.4549 24.9083 78.4549 24.8024C78.4549 24.7495 78.4339 24.6966 78.392 24.633C78.1507 24.3472 77.7837 24.1779 77.3747 24.1779C76.5986 24.1779 76.0009 24.7707 76.0009 25.5434C76.0009 26.3056 76.5986 26.909 77.3747 26.909C77.7837 26.909 78.1612 26.7396 78.392 26.4538C78.4444 26.3903 78.4654 26.3374 78.4654 26.2844C78.4654 26.1786 78.3815 26.0939 78.2766 26.0939C78.2137 26.0939 78.1507 26.1256 78.1088 26.1786C77.92 26.4115 77.6788 26.5279 77.3957 26.5279C76.8503 26.5279 76.4518 26.1151 76.4518 25.554C76.4308 24.9718 76.8293 24.5589 77.3747 24.5589Z" fill="#1F1F1F"/>
<path d="M81.7165 24.1779C81.5907 24.1779 81.5068 24.2731 81.5068 24.3896V25.2682H80.1959V24.3896C80.1959 24.2625 80.112 24.1779 79.9861 24.1779C79.8603 24.1779 79.7764 24.2731 79.7764 24.3896V26.6867C79.7764 26.8137 79.8707 26.8984 79.9861 26.8984C80.1015 26.8984 80.1959 26.8031 80.1959 26.6867V25.6493H81.5068V26.6867C81.5068 26.8137 81.6012 26.8984 81.7165 26.8984C81.8319 26.8984 81.9263 26.8031 81.9263 26.6867V24.3896C81.9263 24.2625 81.8424 24.1779 81.7165 24.1779Z" fill="#1F1F1F"/>
<path d="M86.0583 24.1779C85.9324 24.1779 85.8485 24.2731 85.8485 24.3896V26.6867C85.8485 26.8137 85.9324 26.8984 86.0583 26.8984C86.1841 26.8984 86.268 26.8031 86.268 26.6867V24.3896C86.268 24.2625 86.1736 24.1779 86.0583 24.1779Z" fill="#1F1F1F"/>
<path d="M84.4328 25.1941H83.8035V24.3896C83.8035 24.2625 83.7196 24.1779 83.5938 24.1779C83.4784 24.1779 83.384 24.2731 83.384 24.3896V26.6338C83.384 26.7608 83.4784 26.8561 83.6043 26.8561H84.4432C84.9991 26.8561 85.3556 26.5173 85.3556 26.0304C85.3451 25.5434 84.9886 25.1941 84.4328 25.1941ZM84.4328 26.475H83.8035V25.5646H84.4328C84.7474 25.5646 84.9152 25.7551 84.9152 26.0198C84.9152 26.2844 84.7369 26.475 84.4328 26.475Z" fill="#1F1F1F"/>
<path d="M89.6973 24.1779C89.6029 24.1779 89.561 24.2202 89.5085 24.2837L88.1242 26.1045V24.3896C88.1242 24.2625 88.0403 24.1779 87.9145 24.1779C87.7991 24.1779 87.7047 24.2731 87.7047 24.3896V26.6867C87.7047 26.8031 87.7991 26.8984 87.9145 26.8984C87.9879 26.8984 88.0403 26.8772 88.0823 26.8137L89.4771 24.9824V26.6867C89.4771 26.8137 89.5714 26.8984 89.6868 26.8984C89.8126 26.8984 89.8965 26.8031 89.8965 26.6867V24.3896C89.8965 24.2625 89.8126 24.1779 89.6973 24.1779Z" fill="#1F1F1F"/>
<path d="M95.3918 26.475H95.2765V24.3896C95.2765 24.2625 95.1821 24.1779 95.0667 24.1779C94.9409 24.1779 94.857 24.2731 94.857 24.3896V26.475H93.6614V24.3896C93.6614 24.2625 93.5775 24.1779 93.4517 24.1779C93.3363 24.1779 93.2419 24.2731 93.2419 24.3896V26.6338C93.2419 26.7608 93.3363 26.8561 93.4622 26.8561H95.1926V27.2477C95.1926 27.3748 95.2765 27.4594 95.4023 27.4594C95.5177 27.4594 95.612 27.3642 95.612 27.2477V26.6973C95.612 26.5702 95.5177 26.475 95.3918 26.475Z" fill="#1F1F1F"/>
<path d="M98.4332 26.4749H97.2586V25.6387H98.0661C98.171 25.6387 98.2549 25.554 98.2549 25.4587C98.2549 25.3634 98.171 25.2788 98.0661 25.2788H97.2586V24.6013H98.3807C98.4961 24.6013 98.5695 24.5166 98.5695 24.4107C98.5695 24.3049 98.4856 24.2202 98.3807 24.2202H97.0384C96.923 24.2202 96.8391 24.3049 96.8391 24.4213V26.6549C96.8391 26.7713 96.923 26.856 97.0384 26.856H98.4227C98.538 26.856 98.6115 26.7713 98.6115 26.6655C98.6115 26.5596 98.538 26.4749 98.4332 26.4749Z" fill="#1F1F1F"/>
<path d="M101.82 24.1779C101.695 24.1779 101.611 24.2731 101.611 24.3896V25.2682H100.3V24.3896C100.3 24.2625 100.216 24.1779 100.09 24.1779C99.9643 24.1779 99.8804 24.2731 99.8804 24.3896V26.6867C99.8804 26.8137 99.9748 26.8984 100.09 26.8984C100.205 26.8984 100.3 26.8031 100.3 26.6867V25.6493H101.611V26.6867C101.611 26.8137 101.705 26.8984 101.82 26.8984C101.936 26.8984 102.03 26.8031 102.03 26.6867V24.3896C102.03 24.2625 101.946 24.1779 101.82 24.1779Z" fill="#1F1F1F"/>
<path d="M105.218 24.2202H103.383C103.268 24.2202 103.194 24.3049 103.194 24.4107C103.194 24.5166 103.278 24.6013 103.383 24.6013H104.086V26.6867C104.086 26.8137 104.18 26.8984 104.295 26.8984C104.411 26.8984 104.505 26.8031 104.505 26.6867V24.6013H105.218C105.334 24.6013 105.407 24.5166 105.407 24.4107C105.407 24.3049 105.323 24.2202 105.218 24.2202Z" fill="#1F1F1F"/>
<path d="M107.526 24.2202H106.792C106.666 24.2202 106.571 24.3155 106.571 24.4425V26.6867C106.571 26.8137 106.666 26.8984 106.781 26.8984C106.896 26.8984 106.991 26.8031 106.991 26.6867V25.8398H107.526C108.05 25.8398 108.417 25.5116 108.417 25.0247C108.407 24.5378 108.05 24.2202 107.526 24.2202ZM107.515 25.4587H106.991V24.5907H107.515C107.798 24.5907 107.977 24.7601 107.977 25.0247C107.977 25.2893 107.798 25.4587 107.515 25.4587Z" fill="#1F1F1F"/>
<path d="M113.43 24.1779C113.335 24.1779 113.293 24.2202 113.241 24.2837L111.857 26.1045V24.3896C111.857 24.2625 111.773 24.1779 111.647 24.1779C111.532 24.1779 111.437 24.2731 111.437 24.3896V26.6867C111.437 26.8031 111.532 26.8984 111.647 26.8984C111.72 26.8984 111.773 26.8772 111.815 26.8137L113.21 24.9824V26.6867C113.21 26.8137 113.304 26.8984 113.419 26.8984C113.545 26.8984 113.629 26.8031 113.629 26.6867V24.3896C113.64 24.2625 113.545 24.1779 113.43 24.1779Z" fill="#1F1F1F"/>
<path d="M119.25 24.1779C119.156 24.1779 119.104 24.2202 119.02 24.3472L118.212 25.6281L117.405 24.3472C117.321 24.2202 117.268 24.1779 117.174 24.1779C117.059 24.1779 116.975 24.2731 116.975 24.3896V26.6867C116.975 26.8137 117.069 26.8984 117.184 26.8984C117.3 26.8984 117.394 26.8031 117.394 26.6867V25.0776L118.002 26.041C118.065 26.1362 118.128 26.1786 118.212 26.1786C118.296 26.1786 118.359 26.1362 118.422 26.041L119.03 25.0776V26.6867C119.03 26.8137 119.124 26.8984 119.24 26.8984C119.355 26.8984 119.45 26.8031 119.45 26.6867V24.3896C119.45 24.2625 119.366 24.1779 119.25 24.1779Z" fill="#1F1F1F"/>
<path d="M122.082 24.3155C122.04 24.2202 121.977 24.1673 121.883 24.1673C121.788 24.1673 121.725 24.2202 121.683 24.3155L120.739 26.5702C120.718 26.6231 120.708 26.6549 120.708 26.6867C120.708 26.8031 120.802 26.8878 120.918 26.8878C121.012 26.8878 121.075 26.8349 121.117 26.7396L121.274 26.3691H122.501L122.669 26.7396C122.711 26.8349 122.774 26.8878 122.868 26.8878C122.984 26.8878 123.078 26.7925 123.078 26.6867C123.078 26.6549 123.068 26.6126 123.047 26.5702L122.082 24.3155ZM121.411 26.0198L121.883 24.7918L122.344 26.0198H121.411Z" fill="#1F1F1F"/>
<path d="M125.752 24.2202H124.525C124.4 24.2202 124.305 24.3155 124.305 24.4425V26.6867C124.305 26.8137 124.4 26.8984 124.515 26.8984C124.641 26.8984 124.725 26.8031 124.725 26.6867V24.6013H125.752C125.868 24.6013 125.952 24.5166 125.952 24.4107C125.952 24.3049 125.868 24.2202 125.752 24.2202Z" fill="#1F1F1F"/>
<path d="M127.923 24.3155C127.881 24.2202 127.819 24.1673 127.724 24.1673C127.63 24.1673 127.567 24.2202 127.525 24.3155L126.581 26.5702C126.56 26.6231 126.55 26.6549 126.55 26.6867C126.55 26.8031 126.644 26.8878 126.759 26.8878C126.854 26.8878 126.917 26.8349 126.959 26.7396L127.116 26.3691H128.343L128.5 26.7396C128.542 26.8349 128.605 26.8878 128.699 26.8878C128.815 26.8878 128.909 26.7925 128.909 26.6867C128.909 26.6549 128.899 26.6126 128.878 26.5702L127.923 24.3155ZM127.252 26.0198L127.724 24.7918L128.186 26.0198H127.252Z" fill="#1F1F1F"/>
<path d="M131.51 25.4375C131.667 25.3105 131.762 25.1306 131.762 24.9083C131.762 24.4848 131.405 24.1673 130.912 24.1673C130.598 24.1673 130.304 24.3049 130.126 24.5378C130.084 24.5907 130.073 24.6224 130.073 24.6754C130.073 24.7812 130.157 24.8659 130.272 24.8659C130.325 24.8659 130.377 24.8447 130.419 24.7918C130.556 24.6436 130.734 24.5589 130.923 24.5589C131.174 24.5589 131.342 24.7071 131.342 24.94C131.342 25.1623 131.185 25.2999 130.944 25.2999H130.681C130.577 25.2999 130.493 25.374 130.493 25.4799C130.493 25.5857 130.577 25.6598 130.681 25.6598H131.048C131.321 25.6598 131.499 25.8186 131.499 26.0621C131.499 26.3267 131.279 26.5067 130.954 26.5067C130.723 26.5067 130.524 26.4114 130.346 26.2103C130.293 26.1574 130.251 26.1362 130.199 26.1362C130.094 26.1362 130 26.2209 130 26.3267C130 26.3691 130.021 26.4114 130.052 26.4538C130.262 26.729 130.587 26.8878 130.954 26.8878C131.51 26.8878 131.919 26.549 131.919 26.0727C131.929 25.7869 131.772 25.554 131.51 25.4375Z" fill="#1F1F1F"/>
<path d="M135.201 24.1779C135.107 24.1779 135.065 24.2202 135.013 24.2837L133.628 26.1045V24.3896C133.628 24.2625 133.544 24.1779 133.418 24.1779C133.303 24.1779 133.209 24.2731 133.209 24.3896V26.6867C133.209 26.8031 133.303 26.8984 133.418 26.8984C133.492 26.8984 133.544 26.8772 133.586 26.8137L134.981 24.9824V26.6867C134.981 26.8137 135.076 26.8984 135.191 26.8984C135.317 26.8984 135.401 26.8031 135.401 26.6867V24.3896C135.411 24.2625 135.317 24.1779 135.201 24.1779Z" fill="#1F1F1F"/>
<path d="M138.799 24.1779C138.673 24.1779 138.589 24.2731 138.589 24.3896V25.2682H137.278V24.3896C137.278 24.2625 137.194 24.1779 137.068 24.1779C136.942 24.1779 136.858 24.2731 136.858 24.3896V26.6867C136.858 26.8137 136.953 26.8984 137.068 26.8984C137.183 26.8984 137.278 26.8031 137.278 26.6867V25.6493H138.589V26.6867C138.589 26.8137 138.683 26.8984 138.799 26.8984C138.914 26.8984 139.008 26.8031 139.008 26.6867V24.3896C139.008 24.2625 138.924 24.1779 138.799 24.1779Z" fill="#1F1F1F"/>
<path d="M143.528 24.3155C143.486 24.2202 143.423 24.1673 143.329 24.1673C143.235 24.1673 143.172 24.2202 143.13 24.3155L142.186 26.5702C142.165 26.6231 142.154 26.6549 142.154 26.6867C142.154 26.8031 142.249 26.8878 142.364 26.8878C142.459 26.8878 142.532 26.8349 142.563 26.7396L142.721 26.3691H143.948L144.116 26.7396C144.158 26.8349 144.22 26.8878 144.315 26.8878C144.43 26.8878 144.525 26.7925 144.525 26.6867C144.525 26.6549 144.514 26.6126 144.493 26.5702L143.528 24.3155ZM142.857 26.0198L143.329 24.7918L143.79 26.0198H142.857Z" fill="#1F1F1F"/>
<path d="M145.972 24.1779C145.846 24.1779 145.762 24.2731 145.762 24.3896V26.6867C145.762 26.8137 145.856 26.8984 145.972 26.8984C146.087 26.8984 146.182 26.8031 146.182 26.6867V24.3896C146.182 24.2625 146.087 24.1779 145.972 24.1779Z" fill="#1F1F1F"/>
<path d="M146.737 25.4482L147.65 24.5272C147.702 24.4743 147.723 24.4319 147.723 24.3684C147.723 24.2625 147.639 24.1779 147.534 24.1779C147.471 24.1779 147.429 24.199 147.377 24.252L146.339 25.3105C146.297 25.3529 146.276 25.4058 146.276 25.4482C146.276 25.5011 146.297 25.5434 146.339 25.5964L147.461 26.8137C147.513 26.8666 147.566 26.8984 147.629 26.8984C147.734 26.8984 147.828 26.8137 147.828 26.7079C147.828 26.6549 147.807 26.6126 147.765 26.5702L146.737 25.4482Z" fill="#1F1F1F"/>
<path d="M150.125 24.5589C150.418 24.5589 150.66 24.6754 150.848 24.9083C150.901 24.9612 150.953 24.993 151.016 24.993C151.121 24.993 151.205 24.9083 151.205 24.8024C151.205 24.7495 151.184 24.6966 151.142 24.633C150.901 24.3472 150.534 24.1779 150.125 24.1779C149.349 24.1779 148.751 24.7707 148.751 25.5434C148.751 26.3056 149.349 26.909 150.125 26.909C150.534 26.909 150.911 26.7396 151.142 26.4538C151.195 26.3903 151.215 26.3374 151.215 26.2844C151.215 26.1786 151.132 26.0939 151.027 26.0939C150.964 26.0939 150.901 26.1256 150.859 26.1786C150.67 26.4115 150.429 26.5279 150.146 26.5279C149.6 26.5279 149.202 26.1151 149.202 25.554C149.181 24.9718 149.579 24.5589 150.125 24.5589Z" fill="#1F1F1F"/>
<path d="M154.12 26.4749H152.946V25.6387H153.753C153.858 25.6387 153.942 25.554 153.942 25.4587C153.942 25.3634 153.869 25.2788 153.753 25.2788H152.946V24.6013H154.068C154.183 24.6013 154.257 24.5166 154.257 24.4107C154.257 24.3049 154.173 24.2202 154.068 24.2202H152.726C152.61 24.2202 152.526 24.3049 152.526 24.4213V26.6549C152.526 26.7713 152.61 26.856 152.726 26.856H154.11C154.225 26.856 154.299 26.7713 154.299 26.6655C154.299 26.5596 154.225 26.4749 154.12 26.4749Z" fill="#1F1F1F"/>
<path d="M156.7 24.5589C156.994 24.5589 157.235 24.6754 157.424 24.9083C157.476 24.9612 157.529 24.993 157.592 24.993C157.697 24.993 157.791 24.9083 157.791 24.8024C157.791 24.7495 157.77 24.6966 157.728 24.633C157.487 24.3472 157.12 24.1779 156.711 24.1779C155.935 24.1779 155.337 24.7707 155.337 25.5434C155.337 26.3056 155.935 26.909 156.711 26.909C157.12 26.909 157.497 26.7396 157.728 26.4538C157.78 26.3903 157.801 26.3374 157.801 26.2844C157.801 26.1786 157.718 26.0939 157.602 26.0939C157.539 26.0939 157.476 26.1256 157.434 26.1786C157.246 26.4115 157.004 26.5279 156.721 26.5279C156.176 26.5279 155.777 26.1151 155.777 25.554C155.767 24.9718 156.165 24.5589 156.7 24.5589Z" fill="#1F1F1F"/>
<path d="M160.308 24.5589C160.602 24.5589 160.843 24.6754 161.032 24.9083C161.084 24.9612 161.136 24.993 161.199 24.993C161.304 24.993 161.388 24.9083 161.388 24.8024C161.388 24.7495 161.367 24.6966 161.325 24.633C161.084 24.3472 160.717 24.1779 160.308 24.1779C159.532 24.1779 158.934 24.7707 158.934 25.5434C158.934 26.3056 159.532 26.909 160.308 26.909C160.717 26.909 161.094 26.7396 161.325 26.4538C161.378 26.3903 161.399 26.3374 161.399 26.2844C161.399 26.1786 161.315 26.0939 161.21 26.0939C161.147 26.0939 161.084 26.1256 161.042 26.1786C160.853 26.4115 160.612 26.5279 160.329 26.5279C159.784 26.5279 159.385 26.1151 159.385 25.554C159.364 24.9718 159.763 24.5589 160.308 24.5589Z" fill="#1F1F1F"/>
<path d="M164.45 24.2096C164.367 24.2096 164.283 24.2625 164.251 24.3366L163.632 25.7445L162.951 24.3366C162.898 24.2519 162.835 24.2096 162.751 24.2096C162.636 24.2096 162.542 24.3048 162.542 24.4213C162.542 24.453 162.552 24.4954 162.573 24.5377L163.402 26.1997V26.2103C163.307 26.4114 163.181 26.4961 162.919 26.4961C162.867 26.4961 162.835 26.4961 162.804 26.4961C162.689 26.4961 162.605 26.5808 162.605 26.6866C162.605 26.7713 162.657 26.8348 162.731 26.8666C162.793 26.8878 162.877 26.8984 162.982 26.8984C163.37 26.8984 163.632 26.7184 163.811 26.3373L164.629 24.5377C164.65 24.4954 164.66 24.453 164.66 24.4213C164.66 24.3048 164.566 24.2096 164.45 24.2096Z" fill="#1F1F1F"/>
<path d="M166.705 24.3155C166.663 24.2202 166.6 24.1673 166.506 24.1673C166.412 24.1673 166.349 24.2202 166.307 24.3155L165.363 26.5702C165.342 26.6231 165.331 26.6549 165.331 26.6867C165.331 26.8031 165.426 26.8878 165.541 26.8878C165.635 26.8878 165.698 26.8349 165.74 26.7396L165.898 26.3691H167.125L167.282 26.7396C167.324 26.8349 167.387 26.8878 167.481 26.8878C167.597 26.8878 167.691 26.7925 167.691 26.6867C167.691 26.6549 167.68 26.6126 167.659 26.5702L166.705 24.3155ZM166.034 26.0198L166.506 24.7918L166.967 26.0198H166.034Z" fill="#1F1F1F"/>
<path d="M169.883 24.2202H169.149C169.023 24.2202 168.928 24.3155 168.928 24.4425V26.6867C168.928 26.8137 169.023 26.8984 169.138 26.8984C169.254 26.8984 169.348 26.8031 169.348 26.6867V25.8398H169.883C170.407 25.8398 170.774 25.5116 170.774 25.0247C170.764 24.5378 170.407 24.2202 169.883 24.2202ZM169.883 25.4587H169.358V24.5907H169.883C170.166 24.5907 170.344 24.7601 170.344 25.0247C170.344 25.2893 170.166 25.4587 169.883 25.4587Z" fill="#1F1F1F"/>
<path d="M173.239 24.1779C172.473 24.1779 171.875 24.7812 171.875 25.5434C171.875 26.3056 172.473 26.909 173.239 26.909C174.004 26.909 174.613 26.3056 174.613 25.5434C174.613 24.7812 174.004 24.1779 173.239 24.1779ZM173.239 26.5067C172.693 26.5067 172.305 26.0939 172.305 25.5328C172.305 24.9718 172.704 24.5589 173.239 24.5589C173.774 24.5589 174.172 24.9718 174.172 25.5328C174.183 26.0939 173.784 26.5067 173.239 26.5067Z" fill="#1F1F1F"/>
<path d="M177.381 25.4164C177.517 25.2999 177.601 25.12 177.601 24.9188C177.601 24.4954 177.287 24.2202 176.815 24.2202H176.123C175.997 24.2202 175.902 24.3155 175.902 24.4425V26.6337C175.902 26.7608 175.997 26.856 176.123 26.856H177.024C177.528 26.856 177.874 26.549 177.874 26.0939C177.863 25.7551 177.685 25.5116 177.381 25.4164ZM176.311 24.5907H176.773C177.024 24.5907 177.171 24.7177 177.171 24.94C177.171 25.1623 177.024 25.2999 176.773 25.2999H176.311V24.5907ZM176.983 26.4855H176.311V25.6704H176.983C177.266 25.6704 177.433 25.8292 177.433 26.0833C177.444 26.3267 177.266 26.4855 176.983 26.4855Z" fill="#1F1F1F"/>
<path d="M76.6197 7.93931C77.3538 7.93931 77.9516 7.33593 77.9516 6.59492C77.9516 5.85392 77.3538 5.25053 76.6197 5.25053C75.8856 5.25053 75.2878 5.85392 75.2878 6.59492C75.2878 7.33593 75.8856 7.93931 76.6197 7.93931Z" fill="#1F1F1F"/>
<path d="M77.9516 15.9633C77.9516 15.2223 77.3538 14.6189 76.6197 14.6189C75.8856 14.6189 75.2878 15.2223 75.2878 15.9633C75.2878 16.7043 75.8856 17.3077 76.6197 17.3077C77.3538 17.3077 77.9516 16.7043 77.9516 15.9633Z" fill="#1F1F1F"/>
</svg>
