<svg width="50" height="30" viewBox="0 0 50 30" fill="none" xmlns="http://www.w3.org/2000/svg">
<path d="M34.5029 0H14.8603C6.66977 0 -0.00012207 6.73253 -0.00012207 15C-0.00012207 23.2675 6.66977 30 14.8603 30H34.5029C42.7039 30 49.3633 23.2675 49.3633 15C49.3633 6.73253 42.6935 0 34.5029 0ZM34.5029 27.343H14.8603C8.11701 27.343 2.63218 21.8066 2.63218 15C2.63218 8.19337 8.11701 2.65702 14.8603 2.65702H34.5029C41.2462 2.65702 46.731 8.19337 46.731 15C46.731 21.8066 41.2462 27.343 34.5029 27.343Z" fill="#1F1F1F"/>
<path d="M8.21147 7.89699C6.33426 9.79183 5.29602 12.3218 5.29602 15C5.29602 20.5364 9.76359 25.0459 15.2589 25.0459H34.503C39.9878 25.0459 44.4554 20.5364 44.4554 15C44.4554 9.46368 39.9878 4.95415 34.503 4.95415H15.2589C12.5951 4.95415 10.0992 6.00214 8.21147 7.89699ZM34.503 7.28301C38.7189 7.28301 42.1482 10.7446 42.1482 15C42.1482 19.2555 38.7189 22.717 34.503 22.717C30.2871 22.717 26.8578 19.2555 26.8578 15C26.8473 10.7446 30.2766 7.28301 34.503 7.28301ZM24.5401 15C24.5401 18.5039 26.3229 21.5844 29.0182 23.3839H15.2589C10.676 23.3839 6.94252 19.626 6.94252 15C6.94252 12.7558 7.80247 10.6493 9.37556 9.072C10.9486 7.48414 13.0356 6.61611 15.2589 6.61611H29.0286C26.3229 8.41569 24.5401 11.5067 24.5401 15Z" fill="#1F1F1F"/>
<path d="M10.5709 15C10.5709 18.0593 13.0354 20.5469 16.0662 20.5469C19.0971 20.5469 21.5616 18.0593 21.5616 15C21.5616 11.9407 19.0971 9.45306 16.0662 9.45306C13.0354 9.45306 10.5709 11.9407 10.5709 15ZM16.0662 11.1256C18.1847 11.1256 19.9151 12.8723 19.9151 15.0106C19.9151 17.1489 18.1847 18.8955 16.0662 18.8955C13.9478 18.8955 12.2174 17.1489 12.2174 15.0106C12.2174 12.8723 13.9373 11.1256 16.0662 11.1256Z" fill="#1F1F1F"/>
</svg>
