<svg width="655" height="171" viewBox="0 0 655 171" fill="none" xmlns="http://www.w3.org/2000/svg">
<rect x="2" y="2" width="651" height="167" rx="23" stroke="#1F1F1F" stroke-width="3"/>
<path d="M56.1965 68.619C56.1794 67.1958 56.8138 66.0126 57.6541 64.9323C59.7118 62.2744 61.7695 59.6337 63.81 56.9758C71.3892 47.1503 78.9856 37.3076 86.5648 27.482C88.7083 24.7041 90.8689 21.9434 92.978 19.1483C94.3327 17.3478 96.1332 16.6791 98.2595 17.1421C99.8199 17.485 101.329 18.068 102.821 18.6339C110.16 21.4118 117.499 24.224 124.838 27.019C127.856 28.1679 128.834 30.8772 127.119 33.6723C126.159 35.2499 124.941 36.656 123.809 38.1307C116.933 47.0474 110.04 55.9813 103.164 64.898C99.1511 70.0937 95.1043 75.2551 91.1775 80.5023C89.1713 83.1944 86.6849 83.5888 83.8898 82.5428C80.1859 81.171 76.4821 79.7478 72.7953 78.3588C68.3884 76.6955 63.9987 75.0322 59.5917 73.3517C57.1739 72.4086 56.1279 70.9682 56.1965 68.619ZM97.2992 19.2855C95.996 19.2855 95.2586 20.0743 94.5556 20.9831C87.9538 29.5569 81.352 38.1307 74.7502 46.7044C69.6745 53.2891 64.5817 59.8566 59.5231 66.4584C57.7912 68.7047 58.2542 70.3166 60.8607 71.3112C65.9535 73.2488 71.0634 75.1865 76.1563 77.1242C79.0199 78.2045 81.8493 79.3191 84.73 80.3479C86.9764 81.1539 87.8509 80.8452 89.2741 79.0276C93.3724 73.7118 97.4878 68.4132 101.586 63.0975C106.73 56.4271 111.857 49.7738 117.002 43.1034C119.625 39.6911 122.266 36.2787 124.855 32.8492C126.073 31.2373 125.696 29.8998 123.878 29.2139C115.699 26.0931 107.502 22.9894 99.3055 19.9028C98.6539 19.6113 97.968 19.4741 97.2992 19.2855Z" fill="#1F1F1F"/>
<path d="M65.919 80.4852C66.5363 79.765 67.1536 79.0448 67.7709 78.3417C68.4397 77.5872 69.1427 77.4501 69.7086 77.9473C70.2059 78.3932 70.2059 79.0448 69.6057 79.8164C68.4054 81.3597 67.1536 82.8515 65.9533 84.412C65.4389 85.0807 64.8558 85.1493 64.1013 84.9435C62.2666 84.4291 61.855 84.6177 61.5807 86.5211C61.392 87.8415 60.809 88.836 59.9859 89.7963C59.523 90.3279 59.0943 90.8937 58.7513 91.4939C57.8939 92.9857 58.3398 94.2375 59.9345 94.8377C68.131 97.9585 76.3104 101.079 84.5069 104.166C85.0557 104.372 85.6558 104.526 86.256 104.577C87.2505 104.68 88.1422 104.389 88.7767 103.549C89.6855 102.365 90.6458 101.182 91.5031 99.9477C91.8632 99.4332 92.1204 98.7816 92.2576 98.1643C92.5148 97.0326 92.0861 96.2266 91.0573 95.6951C89.6683 94.9577 89.5483 94.4947 90.4914 93.2944C97.5391 84.2405 104.587 75.1866 111.634 66.1498C114.035 63.0633 116.436 59.9767 118.836 56.9073C120.088 55.2954 121.151 55.2097 122.66 56.6501C123.089 57.0445 123.398 57.5589 123.826 58.1076C124.306 57.456 124.804 56.8901 125.164 56.2557C125.935 54.8496 125.507 53.735 124.015 53.1691C121.957 52.3803 119.899 51.6087 117.842 50.8199C117.465 50.6827 116.984 50.5799 116.779 50.3055C116.521 49.9625 116.316 49.3967 116.419 49.0023C116.504 48.6936 117.019 48.3678 117.396 48.2821C117.739 48.2135 118.168 48.4021 118.545 48.5564C120.654 49.3452 122.763 50.134 124.855 50.9742C127.942 52.1917 128.833 55.1068 126.947 57.919C126.158 59.085 125.267 60.1653 124.409 61.2799C113.178 75.8382 101.946 90.3965 90.7315 104.972C89.2054 106.944 87.1991 107.287 84.9528 106.807C84.1297 106.635 83.3238 106.309 82.535 106.001C74.7671 103.051 67.0507 99.9476 59.1971 97.204C56.1277 96.1237 55.0474 92.6085 56.9337 89.882C57.4138 89.179 57.9968 88.5445 58.4598 87.8415C58.7685 87.3613 59.0428 86.7955 59.1629 86.2296C59.4029 85.0807 59.8145 84.0519 60.569 83.1259C61.9751 81.3597 63.3126 79.5592 64.6844 77.7587C64.8387 77.5529 64.9759 77.3472 65.1645 77.1757C65.7475 76.6098 66.4163 76.507 66.8964 76.9528C67.4451 77.4329 67.4108 77.9988 67.0336 78.5818C66.622 79.1991 66.2105 79.8164 65.7818 80.4509C65.4046 80.8967 65.0273 81.3426 64.6329 81.7712C64.7187 81.8398 64.8215 81.9084 64.9073 81.9599C65.2674 81.4283 65.5932 80.9653 65.919 80.4852ZM120.877 58.2105C111.531 70.1966 102.306 82.0285 93.0636 93.8774C93.5951 94.6148 94.0581 95.3007 94.5725 96.0209C94.8469 95.6951 95.0698 95.4378 95.2927 95.1463C103.369 84.6692 111.446 74.2092 119.522 63.732C120.105 62.9775 120.705 62.223 121.151 61.4C121.649 60.4397 121.837 59.428 120.877 58.2105Z" fill="#1F1F1F"/>
<path d="M120.98 36.0733C120.74 36.3648 120.482 36.8964 120.071 37.1021C119.488 37.3765 118.802 37.1536 118.63 36.4505C118.39 35.456 117.687 35.1302 116.864 34.8215C109.508 31.9579 102.152 29.0942 94.7953 26.2306C94.418 26.0934 94.0408 25.9391 93.715 25.7162C93.2177 25.3732 93.0291 24.8416 93.2692 24.2586C93.5264 23.6584 94.0408 23.5041 94.641 23.6413C94.9325 23.7099 95.2068 23.8299 95.4983 23.9328C103.078 26.8993 110.657 29.9002 118.253 32.8495C119.453 33.3125 120.311 34.0499 120.74 35.2502C120.808 35.4388 120.86 35.6446 120.98 36.0733Z" fill="#1F1F1F"/>
<path d="M64.5301 62.0176C65.3875 62.3262 66.0391 62.532 66.6907 62.7892C73.8755 65.6014 81.0432 68.3965 88.228 71.2087C89.4112 71.6716 90.4915 72.2718 91.1088 73.4721C91.486 74.1923 91.366 74.8611 90.8344 75.204C90.3029 75.5641 89.7541 75.3584 89.1197 74.7925C88.5024 74.2438 87.8508 73.6436 87.0963 73.335C79.9286 70.4885 72.7438 67.7106 65.5589 64.9155C64.9931 64.6926 64.4272 64.4697 63.9299 64.161C63.4669 63.8695 63.2269 63.3551 63.5355 62.8578C63.8099 62.5149 64.2386 62.2576 64.5301 62.0176Z" fill="#1F1F1F"/>
<path d="M74.1153 75.6668C72.1091 75.6668 70.6172 74.1749 70.6001 72.1858C70.6001 70.2653 72.0748 68.8078 74.0468 68.8078C76.0187 68.7906 77.5963 70.351 77.5792 72.3059C77.562 74.1578 76.0359 75.6668 74.1153 75.6668ZM74.1496 73.2661C74.767 73.2147 75.1442 72.8889 75.1613 72.2373C75.1785 71.6371 74.5783 71.1398 73.961 71.1913C73.4123 71.2427 72.9322 71.7743 73.0179 72.323C73.1208 72.9232 73.4809 73.2661 74.1496 73.2661Z" fill="#1F1F1F"/>
<path d="M106.884 24.4985C107.416 24.6529 107.708 24.7215 107.982 24.8243C109.234 25.3045 110.503 25.7846 111.737 26.3162C112.612 26.6763 112.938 27.2764 112.68 27.9109C112.423 28.5625 111.754 28.8197 110.931 28.5111C109.525 27.9966 108.136 27.4479 106.747 26.882C106.164 26.6591 105.804 26.1618 105.993 25.596C106.13 25.1673 106.61 24.8243 106.884 24.4985Z" fill="#1F1F1F"/>
<path d="M296.149 66.9343C296.149 61.6534 296.168 56.3538 296.149 51.0729C296.131 43.4968 296.056 35.9207 296.037 28.3259C296.037 25.4522 297.512 23.2689 300.087 22.4292C300.945 22.1493 301.897 22.0187 302.811 22.0187C315.519 22 328.227 22 340.934 22C341.587 22 342.241 22.0373 342.894 22.1493C345.879 22.6718 347.876 24.855 347.969 27.8967C348.063 31.2742 348.025 34.6518 348.007 38.048C348.007 39.1676 347.577 39.6528 346.775 39.6154C345.991 39.5968 345.581 39.0929 345.581 37.992C345.562 34.8757 345.581 31.7781 345.581 28.6618C345.562 25.9187 344.2 24.5005 341.476 24.5005C328.6 24.4818 315.724 24.4818 302.848 24.4818C299.732 24.5192 298.426 25.8627 298.426 29.0163C298.426 36.8724 298.426 44.7284 298.426 52.5844C298.426 70.0879 298.463 87.5914 298.389 105.095C298.37 107.651 299.863 109.629 302.904 109.611C315.724 109.536 328.544 109.536 341.364 109.611C343.864 109.629 345.637 107.707 345.618 105.319C345.525 93.6 345.581 81.8626 345.581 70.1439C345.581 69.7147 345.543 69.2668 345.618 68.8376C345.711 68.1659 346.103 67.7367 346.812 67.7367C347.54 67.7367 347.895 68.1659 347.969 68.8376C348.007 69.1549 348.007 69.4908 348.007 69.808C348.007 81.6947 348.007 93.5813 348.007 105.487C348.007 109.424 345.506 111.962 341.587 111.962C328.544 111.962 315.519 111.906 302.475 111.999C298.93 112.055 295.981 109.237 296 105.561C296.093 92.6856 296.037 79.81 296.037 66.9343C296.075 66.9343 296.112 66.9343 296.149 66.9343Z" fill="#1F1F1F"/>
<path d="M365.995 71.8045C362.562 67.5499 359.222 63.3887 355.788 59.1154C354.725 59.9552 353.754 60.7016 352.691 61.5599C353.082 62.1011 353.418 62.5863 353.773 63.0528C356.908 66.9715 360.061 70.8715 363.178 74.7902C363.532 75.238 363.887 75.8352 363.887 76.3577C363.868 78.7462 364.932 80.6495 366.369 82.4223C368.925 85.5572 371.444 88.6922 373.982 91.8271C374.262 92.163 374.654 92.5176 374.673 92.9094C374.71 93.376 374.579 94.0104 374.281 94.3463C373.87 94.8128 373.254 94.6449 372.825 94.2343C372.508 93.9358 372.228 93.5999 371.967 93.2453C369.336 89.9798 366.723 86.6955 364.073 83.4299C362.637 81.6385 361.704 79.6792 361.517 77.3467C361.48 76.8055 361.181 76.1897 360.827 75.7605C356.815 70.7222 352.765 65.7212 348.753 60.7016C348.231 60.0484 347.615 59.7499 346.813 59.6752C343.659 59.358 340.617 61.5599 340.449 64.8815C340.337 67.2327 339.274 68.5576 337.538 69.7519C336.419 70.5169 335.411 71.4686 334.329 72.2897C333.228 73.1294 332.817 73.1481 331.978 72.1217C329.608 69.2667 327.275 66.393 324.961 63.482C324.308 62.6423 324.364 62.0638 325.204 61.3733C326.995 59.8618 328.805 58.3504 330.69 56.9695C331.455 56.4097 332.463 56.1298 333.358 55.7752C335.56 54.9168 337.352 53.6293 338.415 51.4087C338.789 50.6063 339.498 49.8972 340.188 49.3187C343.472 46.613 346.719 43.8699 350.115 41.3321C354.631 37.9545 359.688 37.6746 364.876 39.466C366.275 39.9512 367.507 40.9402 368.813 41.7239C369.037 41.8545 369.205 42.0971 369.392 42.3024C369.84 42.8062 370.25 43.3474 369.802 44.0565C369.373 44.7283 368.739 44.7096 368.067 44.4857C365.828 43.6833 363.57 43.8139 361.293 44.3364C359.296 44.8029 357.505 45.6799 356.031 47.1541C353.904 49.2814 353.68 52.6962 355.564 55.0475C359.595 60.0671 363.607 65.0868 367.675 70.0691C368.085 70.5729 368.739 71.0021 369.354 71.226C371.258 71.8978 372.881 72.9428 374.15 74.5103C376.968 77.9811 379.767 81.4706 382.585 84.9414C382.827 85.24 383.051 85.5572 383.256 85.8745C383.667 86.4903 383.48 87.0314 382.939 87.4606C382.435 87.8525 381.894 87.7592 381.446 87.3673C381.166 87.1247 380.961 86.7888 380.719 86.4903C378.05 83.1874 375.382 79.8845 372.713 76.5629C371.78 75.3873 370.661 74.473 369.298 73.8385C368.533 73.4839 367.862 73.372 367.246 74.0997C367.078 74.305 366.817 74.4356 366.593 74.5849C365.977 74.9954 365.361 75.0514 364.857 74.417C364.391 73.8572 364.54 73.2973 364.988 72.7935C365.268 72.4576 365.566 72.215 365.995 71.8045ZM337.912 63.6686C338.135 63.3327 338.247 63.2207 338.285 63.0714C339.516 59.0035 343.547 56.5403 348.081 57.3987C348.38 57.4547 348.772 57.4547 348.996 57.2867C350.153 56.4097 351.272 55.4766 352.261 54.6743C352.131 53.2001 351.851 51.9498 351.926 50.7369C352.168 47.0421 354.333 44.6163 357.561 43.1235C359.24 42.3397 361.069 41.9105 362.916 41.2947C358.625 40.4177 354.65 40.6976 351.142 43.59C348.1 46.0718 345.021 48.4977 341.98 50.9982C341.438 51.446 340.879 51.9685 340.599 52.5656C339.199 55.57 336.68 57.1934 333.75 58.2571C331.25 59.1714 329.589 61.1121 327.499 62.6796C329.514 65.1614 331.418 67.494 333.377 69.9198C334.758 68.8002 335.971 67.8298 337.258 66.8035C336.232 65.5346 335.355 64.4337 334.478 63.314C333.937 62.6236 333.358 61.9705 332.855 61.2614C332.463 60.7016 332.537 60.0858 333.078 59.6566C333.62 59.2087 334.217 59.2834 334.721 59.7499C335.001 60.0111 335.206 60.3284 335.448 60.6269C336.213 61.5973 337.016 62.5676 337.912 63.6686ZM353.922 56.9881C352.112 57.7719 351.198 58.6303 350.992 59.6193C352.149 58.8355 353.213 58.1264 353.922 56.9881Z" fill="#1F1F1F"/>
<path d="M317.254 60.3288C316.582 58.5001 315.948 56.7647 315.295 55.0293C314.567 53.0886 313.821 51.1665 313.093 49.2259C312.944 48.8153 312.776 48.4048 312.757 47.9756C312.72 47.1732 313.373 46.6321 314.156 46.8187C314.567 46.912 314.959 47.1546 315.332 47.3785C318.392 49.1699 321.434 50.9613 324.494 52.7713C324.774 52.9393 325.073 53.1072 325.297 53.3312C325.745 53.779 325.819 54.3761 325.409 54.7867C325.11 55.0852 324.569 55.2532 324.14 55.2345C323.748 55.2159 323.356 54.8986 322.983 54.6747C320.912 53.4804 318.84 52.2675 316.526 50.9053C316.694 51.5398 316.75 51.9316 316.881 52.2862C317.814 54.7867 318.784 57.2685 319.717 59.769C320.333 61.4111 320.221 61.6724 318.654 62.4188C315.407 63.9676 312.141 65.4791 308.894 67.0279C308.614 67.1585 308.353 67.3451 307.831 67.6437C309.977 68.1289 311.88 68.5767 313.765 69.0059C315.519 69.3978 317.273 69.771 319.027 70.1815C320.781 70.592 320.949 70.9093 320.426 72.7007C319.512 75.7796 318.579 78.8586 317.646 81.9376C317.571 82.1802 317.534 82.4227 317.422 83.0012C319.008 81.9002 320.333 80.9859 321.658 80.0715C322.647 79.3811 323.617 78.672 324.606 78.0189C325.913 77.1605 326.36 77.2725 327.256 78.616C328.73 80.8366 330.186 83.0759 331.641 85.3151C331.791 85.5204 331.959 85.707 332.332 86.1735C332.5 84.6247 332.649 83.3744 332.78 82.1055C332.892 81.1352 332.966 80.1462 333.078 79.1758C333.153 78.4108 333.601 77.9442 334.366 78.0002C335.149 78.0562 335.504 78.6347 335.448 79.3624C335.336 81.0419 335.187 82.7213 335.019 84.4194C334.851 86.1548 334.646 87.8902 334.496 89.6257C334.44 90.3348 334.272 90.9319 333.507 91.1372C332.705 91.3611 332.332 90.7826 331.959 90.2228C329.981 87.2185 328.003 84.2141 326.025 81.2098C325.875 80.9859 325.707 80.7806 325.446 80.4261C324.382 81.1538 323.356 81.8443 322.348 82.5534C320.333 83.9529 318.336 85.3711 316.321 86.7706C315.743 87.1625 315.164 87.6663 314.399 87.1065C313.653 86.5654 313.895 85.8749 314.101 85.1845C315.239 81.4337 316.358 77.6643 317.478 73.9136C317.609 73.5031 317.683 73.0739 317.851 72.4581C316.321 72.0849 314.866 71.7303 313.41 71.3944C310.387 70.7227 307.345 70.0509 304.322 69.3791C304.061 69.3231 303.725 69.3231 303.539 69.1552C303.203 68.8566 302.718 68.5021 302.699 68.1289C302.662 67.7557 303.016 67.2518 303.352 66.9533C303.707 66.636 304.21 66.4868 304.658 66.2815C308.409 64.5274 312.16 62.7733 315.911 61.0006C316.321 60.8513 316.732 60.6087 317.254 60.3288Z" fill="#1F1F1F"/>
<path d="M321.864 35.0062C315.482 35.0062 309.1 35.0062 302.718 35.0062C302.177 35.0062 301.58 35.0622 301.113 34.8382C300.759 34.6703 300.367 34.1291 300.385 33.7559C300.385 33.3827 300.796 32.8975 301.15 32.7109C301.561 32.5057 302.102 32.5617 302.587 32.5617C315.519 32.5617 328.432 32.5617 341.364 32.5617C341.793 32.5617 342.241 32.5803 342.67 32.6363C343.286 32.7109 343.659 33.0842 343.678 33.7186C343.696 34.409 343.342 34.8756 342.633 34.9689C342.147 35.0435 341.662 35.0062 341.158 35.0062C334.739 35.0062 328.301 35.0062 321.864 35.0062Z" fill="#1F1F1F"/>
<path d="M321.938 98.5452C315.5 98.5452 309.081 98.5452 302.643 98.5452C302.158 98.5452 301.654 98.5638 301.188 98.4705C300.572 98.3399 300.236 97.8174 300.385 97.2389C300.497 96.8471 300.889 96.4365 301.262 96.2499C301.617 96.0633 302.121 96.1566 302.55 96.1566C315.575 96.1566 328.6 96.1566 341.644 96.1566C341.923 96.1566 342.185 96.1753 342.465 96.1753C343.267 96.194 343.696 96.6231 343.696 97.3882C343.696 98.2093 343.136 98.5078 342.39 98.5452C342.017 98.5638 341.625 98.5452 341.252 98.5452C334.814 98.5265 328.376 98.5265 321.938 98.5452C321.938 98.5452 321.938 98.5265 321.938 98.5452Z" fill="#1F1F1F"/>
<path d="M322.032 100.038C324.401 100.056 326.286 101.941 326.267 104.274C326.249 106.625 324.364 108.509 322.013 108.528C319.662 108.547 317.702 106.494 317.777 104.087C317.814 101.848 319.736 100.038 322.032 100.038ZM321.957 106.065C323.002 106.065 323.879 105.244 323.86 104.255C323.842 103.378 322.965 102.501 322.069 102.482C321.08 102.445 320.184 103.322 320.184 104.311C320.203 105.263 320.987 106.065 321.957 106.065Z" fill="#1F1F1F"/>
<path d="M321.975 29.9863C320.837 29.9863 319.699 30.0236 318.56 29.9676C317.609 29.9116 317.105 29.4451 317.124 28.7547C317.142 28.1016 317.702 27.5791 318.598 27.5604C320.818 27.5231 323.039 27.5418 325.259 27.5418C325.427 27.5418 325.595 27.5604 325.745 27.5978C326.379 27.747 326.864 28.0829 326.846 28.8107C326.827 29.5198 326.379 29.9303 325.707 29.949C324.476 30.0049 323.226 29.9676 321.975 29.9863C321.975 29.9863 321.975 29.9676 321.975 29.9863Z" fill="#1F1F1F"/>
<path d="M538.633 68.8672C538.782 68.419 538.932 67.9896 539.062 67.5414C540.817 61.3049 543.282 55.3859 546.886 49.9709C548.828 47.0394 551.124 44.4253 554.019 42.3713C555.662 41.2137 557.398 40.6348 559.49 40.6535C574.763 40.7282 590.056 40.6909 605.33 40.6909C605.815 40.6909 606.319 40.6722 606.805 40.7282C607.384 40.7842 607.869 40.9896 607.981 41.6618C608.075 42.2593 607.925 42.7448 607.346 43.0249C607.29 43.0435 607.253 43.0809 607.197 43.0996C602.548 45.5083 599.523 49.4668 596.965 53.8547C593.286 60.1846 591.027 67.056 589.552 74.2074C588.357 79.9958 587.946 85.8589 588.002 91.7779C588.039 96.2593 587.909 100.722 588.039 105.203C588.17 109.404 585.089 112.019 581.168 112C568.396 111.925 555.624 111.963 542.853 111.981C540.743 111.981 538.857 111.458 537.438 109.778C536.598 108.788 536.112 107.668 536.037 106.361C536 105.875 536 105.371 536 104.886C536.019 94.4107 536.037 83.9356 536.037 73.4605C536.037 58.6161 536.019 43.7718 536 28.9461C536 27.6203 536.037 26.3133 536.747 25.1369C538.017 23.0643 539.884 22.0187 542.311 22C546.624 22 550.938 22 555.251 22C563.934 22 572.597 22.0187 581.28 22C582.68 22 583.987 22.2241 585.183 22.9896C586.788 24.0353 587.853 25.4917 587.909 27.4149C588.021 31.1307 587.983 34.8278 587.965 38.5436C587.965 39.4958 587.442 40 586.751 39.944C586.079 39.8879 585.612 39.3278 585.612 38.4128C585.593 35.2572 585.5 32.083 585.649 28.9274C585.761 26.5373 584.193 24.3714 581.093 24.39C568.378 24.4834 555.662 24.4647 542.946 24.39C540.089 24.3714 538.371 26.1639 538.39 28.89C538.465 41.9792 538.409 55.0871 538.409 68.1763C538.409 68.3817 538.446 68.6058 538.483 68.8112C538.521 68.8485 538.577 68.8485 538.633 68.8672ZM588.002 68.8112C591.064 59.3257 594.668 50.2884 602.342 43.2676C601.782 43.2303 601.409 43.1929 601.054 43.1929C587.199 43.1929 573.344 43.2303 559.471 43.1556C557.697 43.1556 556.315 43.6971 554.971 44.724C551.927 47.0581 549.631 50.0083 547.689 53.2572C542.983 61.2116 540.388 69.8941 539.1 78.9875C537.83 88.0062 538.558 97.0808 538.427 106.118C538.409 107.556 539.268 108.62 540.556 109.143C541.284 109.442 542.143 109.479 542.946 109.479C555.382 109.498 567.836 109.404 580.272 109.554C584.436 109.591 585.631 107.836 585.612 104.232C585.519 84.9252 585.575 65.5995 585.575 46.2925C585.575 44.7987 585.948 44.2199 586.844 44.2759C587.666 44.3133 587.965 44.8174 587.965 46.2738C587.965 49.9896 587.965 53.6867 587.965 57.4025C587.983 61.1929 588.002 65.002 588.002 68.8112Z" fill="#1F1F1F"/>
<path d="M562.197 32.5117C568.639 32.5117 575.062 32.5117 581.504 32.5117C581.878 32.5117 582.27 32.4744 582.643 32.5304C583.316 32.6424 583.708 33.0532 583.67 33.7814C583.633 34.4163 583.297 34.7897 582.662 34.8831C582.345 34.9391 582.008 34.9391 581.691 34.9391C568.938 34.9391 556.166 34.9578 543.413 34.9578C542.76 34.9578 542.106 34.9391 541.452 34.9017C540.743 34.8457 540.351 34.4536 540.332 33.7441C540.313 33.0159 540.724 32.6237 541.415 32.5491C541.845 32.493 542.293 32.5117 542.722 32.5117C549.201 32.5117 555.699 32.5117 562.197 32.5117Z" fill="#1F1F1F"/>
<path d="M561.935 29.9167C560.796 29.9167 559.657 29.954 558.518 29.898C557.604 29.8607 557.062 29.3565 557.137 28.6656C557.211 27.8814 557.734 27.5453 558.481 27.5266C560.815 27.5266 563.149 27.508 565.483 27.5453C566.398 27.564 566.958 28.1055 566.884 28.7777C566.809 29.5619 566.305 29.898 565.539 29.898C564.326 29.9167 563.13 29.9167 561.935 29.9167Z" fill="#1F1F1F"/>
<path d="M561.973 98.4636C555.606 98.4636 549.22 98.4636 542.853 98.4636C542.367 98.4636 541.863 98.4636 541.377 98.4263C540.761 98.3703 540.369 98.0155 540.35 97.362C540.332 96.7458 540.631 96.2976 541.209 96.1296C541.564 96.0362 541.956 96.0362 542.348 96.0362C555.475 96.0362 568.62 96.0362 581.747 96.0362C582.12 96.0362 582.624 95.9616 582.848 96.1483C583.222 96.4657 583.595 96.9698 583.595 97.418C583.614 97.7354 583.072 98.2022 582.699 98.3516C582.269 98.5196 581.728 98.4263 581.243 98.4263C574.819 98.4636 568.396 98.4636 561.973 98.4636Z" fill="#1F1F1F"/>
<path d="M561.992 108.472C559.62 108.453 557.753 106.567 557.753 104.215C557.772 101.825 559.639 99.9761 562.01 99.9761C564.363 99.9947 566.267 101.899 566.249 104.233C566.23 106.623 564.344 108.491 561.992 108.472ZM563.784 104.271C563.803 103.356 563.018 102.478 562.104 102.422C561.151 102.366 560.18 103.244 560.162 104.196C560.143 105.13 561.095 106.082 562.029 106.063C562.906 106.045 563.765 105.186 563.784 104.271Z" fill="#1F1F1F"/>
<path d="M578.125 48.29C576.649 48.29 575.193 48.3087 573.718 48.29C572.747 48.2713 572.261 47.8419 572.224 47.151C572.187 46.4415 572.691 45.9373 573.625 45.9186C576.668 45.8813 579.712 45.8813 582.774 45.9186C583.726 45.9373 584.23 46.4228 584.193 47.1323C584.156 47.8232 583.651 48.234 582.699 48.29C582.419 48.3087 582.158 48.29 581.878 48.29C580.627 48.3087 579.376 48.3087 578.125 48.29Z" fill="#1F1F1F"/>
<path d="M75.0747 142.492C74.9307 142.552 74.7267 142.624 74.4627 142.708C74.2107 142.78 73.9287 142.852 73.6167 142.924C73.3047 142.996 72.9807 143.062 72.6447 143.122C72.3087 143.17 71.9907 143.194 71.6907 143.194C70.7067 143.194 69.9207 143.074 69.3327 142.834C68.7447 142.594 68.2887 142.282 67.9647 141.898C67.6527 141.514 67.4427 141.076 67.3347 140.584C67.2387 140.092 67.1907 139.6 67.1907 139.108V135.148H68.8827V138.964C68.8827 139.252 68.9067 139.558 68.9547 139.882C69.0027 140.206 69.1227 140.506 69.3147 140.782C69.5067 141.058 69.7887 141.286 70.1607 141.466C70.5327 141.646 71.0427 141.736 71.6907 141.736C72.4947 141.736 73.1787 141.664 73.7427 141.52C74.3187 141.364 74.7627 141.208 75.0747 141.052V135.148H76.7847V148H75.0747V142.492ZM83.3044 148.198C82.5604 148.198 81.9064 148.078 81.3424 147.838C80.7904 147.598 80.3284 147.262 79.9564 146.83C79.5844 146.398 79.3024 145.882 79.1104 145.282C78.9304 144.682 78.8404 144.028 78.8404 143.32C78.8404 142.624 78.9484 141.982 79.1644 141.394C79.3804 140.794 79.6804 140.278 80.0644 139.846C80.4604 139.414 80.9224 139.078 81.4504 138.838C81.9904 138.598 82.5784 138.478 83.2144 138.478C84.0424 138.478 84.7264 138.652 85.2664 139C85.8184 139.336 86.2564 139.768 86.5804 140.296C86.9164 140.824 87.1444 141.4 87.2644 142.024C87.3964 142.648 87.4504 143.242 87.4264 143.806H80.4604C80.4484 144.214 80.4964 144.604 80.6044 144.976C80.7124 145.336 80.8864 145.66 81.1264 145.948C81.3664 146.224 81.6724 146.446 82.0444 146.614C82.4164 146.782 82.8544 146.866 83.3584 146.866C84.0064 146.866 84.5344 146.716 84.9424 146.416C85.3624 146.116 85.6384 145.66 85.7704 145.048H87.2824C87.0784 146.104 86.6284 146.896 85.9324 147.424C85.2364 147.94 84.3604 148.198 83.3044 148.198ZM85.8064 142.456C85.7824 142.096 85.6984 141.754 85.5544 141.43C85.4224 141.106 85.2364 140.83 84.9964 140.602C84.7684 140.362 84.4924 140.176 84.1684 140.044C83.8564 139.9 83.5084 139.828 83.1244 139.828C82.7284 139.828 82.3684 139.9 82.0444 140.044C81.7324 140.176 81.4624 140.362 81.2344 140.602C81.0064 140.842 80.8264 141.124 80.6944 141.448C80.5624 141.76 80.4844 142.096 80.4604 142.456H85.8064ZM91.5144 143.104L88.2744 138.694H90.2364L92.4684 141.952L94.7904 138.694H96.6264L93.4224 142.978L97.0224 148H95.0604L92.4684 144.148L89.8764 148H88.0224L91.5144 143.104ZM102.343 148.198C101.599 148.198 100.945 148.078 100.381 147.838C99.8288 147.586 99.3608 147.244 98.9768 146.812C98.5928 146.368 98.3048 145.852 98.1128 145.264C97.9208 144.676 97.8248 144.04 97.8248 143.356C97.8248 142.672 97.9208 142.036 98.1128 141.448C98.3048 140.848 98.5928 140.332 98.9768 139.9C99.3608 139.456 99.8288 139.108 100.381 138.856C100.945 138.604 101.599 138.478 102.343 138.478C103.075 138.478 103.723 138.604 104.287 138.856C104.851 139.108 105.325 139.456 105.709 139.9C106.093 140.332 106.381 140.848 106.573 141.448C106.765 142.036 106.861 142.672 106.861 143.356C106.861 144.04 106.765 144.676 106.573 145.264C106.381 145.852 106.093 146.368 105.709 146.812C105.325 147.244 104.851 147.586 104.287 147.838C103.723 148.078 103.075 148.198 102.343 148.198ZM102.343 146.866C102.739 146.866 103.111 146.788 103.459 146.632C103.819 146.476 104.131 146.254 104.395 145.966C104.659 145.666 104.863 145.3 105.007 144.868C105.163 144.424 105.241 143.92 105.241 143.356C105.241 142.792 105.163 142.294 105.007 141.862C104.863 141.418 104.659 141.046 104.395 140.746C104.131 140.446 103.819 140.218 103.459 140.062C103.111 139.906 102.739 139.828 102.343 139.828C101.947 139.828 101.569 139.906 101.209 140.062C100.861 140.218 100.555 140.446 100.291 140.746C100.027 141.046 99.8168 141.418 99.6608 141.862C99.5168 142.294 99.4448 142.792 99.4448 143.356C99.4448 143.92 99.5168 144.424 99.6608 144.868C99.8168 145.3 100.027 145.666 100.291 145.966C100.555 146.254 100.861 146.476 101.209 146.632C101.569 146.788 101.947 146.866 102.343 146.866ZM108.593 148.108C108.437 148.108 108.275 148.09 108.107 148.054C107.939 148.03 107.801 148.006 107.693 147.982V146.632C107.813 146.668 107.921 146.692 108.017 146.704C108.125 146.716 108.227 146.722 108.323 146.722C108.719 146.722 109.019 146.566 109.223 146.254C109.439 145.942 109.595 145.462 109.691 144.814C109.799 144.166 109.865 143.338 109.889 142.33C109.913 141.31 109.937 140.098 109.961 138.694H116.495V148H114.965V140.044H111.437C111.401 141.136 111.359 142.174 111.311 143.158C111.275 144.13 111.173 144.982 111.005 145.714C110.837 146.446 110.567 147.028 110.195 147.46C109.823 147.892 109.289 148.108 108.593 148.108Z" fill="#1F1F1F"/>
<path d="M259.157 148.288C258.389 148.288 257.681 148.198 257.033 148.018C256.385 147.838 255.821 147.562 255.341 147.19C254.873 146.818 254.507 146.35 254.243 145.786C253.979 145.222 253.847 144.55 253.847 143.77H255.485C255.497 144.346 255.605 144.838 255.809 145.246C256.025 145.642 256.301 145.966 256.637 146.218C256.985 146.458 257.387 146.632 257.843 146.74C258.299 146.848 258.785 146.902 259.301 146.902C259.745 146.902 260.159 146.842 260.543 146.722C260.927 146.59 261.257 146.41 261.533 146.182C261.821 145.942 262.043 145.66 262.199 145.336C262.367 145 262.451 144.628 262.451 144.22C262.451 143.752 262.361 143.374 262.181 143.086C262.001 142.786 261.761 142.558 261.461 142.402C261.173 142.234 260.831 142.12 260.435 142.06C260.051 142 259.643 141.97 259.211 141.97C259.031 141.97 258.827 141.976 258.599 141.988C258.371 141.988 258.191 141.994 258.059 142.006V140.602C258.203 140.626 258.395 140.638 258.635 140.638C258.875 140.638 259.067 140.638 259.211 140.638C259.619 140.638 259.991 140.602 260.327 140.53C260.675 140.446 260.969 140.314 261.209 140.134C261.461 139.954 261.653 139.72 261.785 139.432C261.929 139.132 262.001 138.766 262.001 138.334C262.001 137.938 261.923 137.608 261.767 137.344C261.623 137.08 261.419 136.87 261.155 136.714C260.903 136.546 260.609 136.426 260.273 136.354C259.949 136.282 259.607 136.246 259.247 136.246C258.299 136.246 257.555 136.456 257.015 136.876C256.475 137.284 256.157 137.956 256.061 138.892H254.423C254.447 138.208 254.585 137.614 254.837 137.11C255.101 136.594 255.449 136.174 255.881 135.85C256.313 135.514 256.817 135.262 257.393 135.094C257.981 134.926 258.617 134.842 259.301 134.842C259.913 134.842 260.483 134.914 261.011 135.058C261.551 135.19 262.019 135.4 262.415 135.688C262.811 135.976 263.123 136.342 263.351 136.786C263.579 137.218 263.693 137.734 263.693 138.334C263.693 138.682 263.633 139.006 263.513 139.306C263.393 139.606 263.231 139.876 263.027 140.116C262.835 140.356 262.607 140.566 262.343 140.746C262.091 140.914 261.833 141.04 261.569 141.124V141.178C261.989 141.262 262.361 141.406 262.685 141.61C263.009 141.802 263.279 142.036 263.495 142.312C263.711 142.588 263.873 142.894 263.981 143.23C264.089 143.566 264.143 143.908 264.143 144.256C264.143 144.652 264.053 145.084 263.873 145.552C263.693 146.02 263.399 146.458 262.991 146.866C262.595 147.274 262.079 147.616 261.443 147.892C260.819 148.156 260.057 148.288 259.157 148.288ZM268.684 148.198C268.264 148.198 267.868 148.15 267.496 148.054C267.124 147.97 266.794 147.826 266.506 147.622C266.23 147.406 266.008 147.136 265.84 146.812C265.684 146.476 265.606 146.074 265.606 145.606C265.606 145.078 265.696 144.646 265.876 144.31C266.056 143.974 266.29 143.704 266.578 143.5C266.878 143.284 267.214 143.122 267.586 143.014C267.97 142.906 268.36 142.816 268.756 142.744C269.176 142.66 269.572 142.6 269.944 142.564C270.328 142.516 270.664 142.456 270.952 142.384C271.24 142.3 271.468 142.186 271.636 142.042C271.804 141.886 271.888 141.664 271.888 141.376C271.888 141.04 271.822 140.77 271.69 140.566C271.57 140.362 271.408 140.206 271.204 140.098C271.012 139.99 270.79 139.918 270.538 139.882C270.298 139.846 270.058 139.828 269.818 139.828C269.17 139.828 268.63 139.954 268.198 140.206C267.766 140.446 267.532 140.908 267.496 141.592H265.966C265.99 141.016 266.11 140.53 266.326 140.134C266.542 139.738 266.83 139.42 267.19 139.18C267.55 138.928 267.958 138.748 268.414 138.64C268.882 138.532 269.38 138.478 269.908 138.478C270.328 138.478 270.742 138.508 271.15 138.568C271.57 138.628 271.948 138.754 272.284 138.946C272.62 139.126 272.89 139.384 273.094 139.72C273.298 140.056 273.4 140.494 273.4 141.034V145.822C273.4 146.182 273.418 146.446 273.454 146.614C273.502 146.782 273.646 146.866 273.886 146.866C273.994 146.866 274.15 146.836 274.354 146.776V147.964C274.09 148.12 273.724 148.198 273.256 148.198C272.86 148.198 272.542 148.09 272.302 147.874C272.074 147.646 271.96 147.28 271.96 146.776C271.54 147.28 271.048 147.646 270.484 147.874C269.932 148.09 269.332 148.198 268.684 148.198ZM269.026 146.866C269.53 146.866 269.962 146.8 270.322 146.668C270.682 146.524 270.976 146.35 271.204 146.146C271.432 145.93 271.6 145.702 271.708 145.462C271.816 145.21 271.87 144.976 271.87 144.76V143.194C271.678 143.35 271.426 143.458 271.114 143.518C270.802 143.578 270.472 143.632 270.124 143.68C269.788 143.728 269.446 143.776 269.098 143.824C268.75 143.872 268.438 143.956 268.162 144.076C267.886 144.196 267.658 144.37 267.478 144.598C267.31 144.814 267.226 145.114 267.226 145.498C267.226 145.75 267.274 145.966 267.37 146.146C267.478 146.314 267.61 146.452 267.766 146.56C267.934 146.668 268.126 146.746 268.342 146.794C268.558 146.842 268.786 146.866 269.026 146.866ZM287.838 148H275.778V138.694H277.308V146.65H281.142V138.694H282.672V146.65H286.506V138.694H288.036V146.65H289.296V150.826H287.838V148ZM290.737 138.694H292.267V146.29L296.659 138.694H298.621V148H297.091V140.404L292.699 148H290.737V138.694ZM303.182 140.044H299.852V138.694H308.042V140.044H304.712V148H303.182V140.044ZM309.264 138.694H310.794V142.402H315.51V138.694H317.04V148H315.51V143.716H310.794V148H309.264V138.694ZM323.351 148.198C322.607 148.198 321.953 148.078 321.389 147.838C320.837 147.586 320.369 147.244 319.985 146.812C319.601 146.368 319.313 145.852 319.121 145.264C318.929 144.676 318.833 144.04 318.833 143.356C318.833 142.672 318.929 142.036 319.121 141.448C319.313 140.848 319.601 140.332 319.985 139.9C320.369 139.456 320.837 139.108 321.389 138.856C321.953 138.604 322.607 138.478 323.351 138.478C324.083 138.478 324.731 138.604 325.295 138.856C325.859 139.108 326.333 139.456 326.717 139.9C327.101 140.332 327.389 140.848 327.581 141.448C327.773 142.036 327.869 142.672 327.869 143.356C327.869 144.04 327.773 144.676 327.581 145.264C327.389 145.852 327.101 146.368 326.717 146.812C326.333 147.244 325.859 147.586 325.295 147.838C324.731 148.078 324.083 148.198 323.351 148.198ZM323.351 146.866C323.747 146.866 324.119 146.788 324.467 146.632C324.827 146.476 325.139 146.254 325.403 145.966C325.667 145.666 325.871 145.3 326.015 144.868C326.171 144.424 326.249 143.92 326.249 143.356C326.249 142.792 326.171 142.294 326.015 141.862C325.871 141.418 325.667 141.046 325.403 140.746C325.139 140.446 324.827 140.218 324.467 140.062C324.119 139.906 323.747 139.828 323.351 139.828C322.955 139.828 322.577 139.906 322.217 140.062C321.869 140.218 321.563 140.446 321.299 140.746C321.035 141.046 320.825 141.418 320.669 141.862C320.525 142.294 320.453 142.792 320.453 143.356C320.453 143.92 320.525 144.424 320.669 144.868C320.825 145.3 321.035 145.666 321.299 145.966C321.563 146.254 321.869 146.476 322.217 146.632C322.577 146.788 322.955 146.866 323.351 146.866ZM333.633 148.198C332.889 148.198 332.235 148.078 331.671 147.838C331.119 147.598 330.657 147.262 330.285 146.83C329.913 146.398 329.631 145.882 329.439 145.282C329.259 144.682 329.169 144.028 329.169 143.32C329.169 142.624 329.277 141.982 329.493 141.394C329.709 140.794 330.009 140.278 330.393 139.846C330.789 139.414 331.251 139.078 331.779 138.838C332.319 138.598 332.907 138.478 333.543 138.478C334.371 138.478 335.055 138.652 335.595 139C336.147 139.336 336.585 139.768 336.909 140.296C337.245 140.824 337.473 141.4 337.593 142.024C337.725 142.648 337.779 143.242 337.755 143.806H330.789C330.777 144.214 330.825 144.604 330.933 144.976C331.041 145.336 331.215 145.66 331.455 145.948C331.695 146.224 332.001 146.446 332.373 146.614C332.745 146.782 333.183 146.866 333.687 146.866C334.335 146.866 334.863 146.716 335.271 146.416C335.691 146.116 335.967 145.66 336.099 145.048H337.611C337.407 146.104 336.957 146.896 336.261 147.424C335.565 147.94 334.689 148.198 333.633 148.198ZM336.135 142.456C336.111 142.096 336.027 141.754 335.883 141.43C335.751 141.106 335.565 140.83 335.325 140.602C335.097 140.362 334.821 140.176 334.497 140.044C334.185 139.9 333.837 139.828 333.453 139.828C333.057 139.828 332.697 139.9 332.373 140.044C332.061 140.176 331.791 140.362 331.563 140.602C331.335 140.842 331.155 141.124 331.023 141.448C330.891 141.76 330.813 142.096 330.789 142.456H336.135ZM348.202 148.198C347.494 148.198 346.864 148.084 346.312 147.856C345.772 147.628 345.316 147.304 344.944 146.884C344.584 146.464 344.308 145.966 344.116 145.39C343.936 144.814 343.846 144.172 343.846 143.464C343.846 142.768 343.936 142.12 344.116 141.52C344.296 140.908 344.566 140.38 344.926 139.936C345.298 139.48 345.754 139.126 346.294 138.874C346.846 138.61 347.494 138.478 348.238 138.478C348.766 138.478 349.258 138.544 349.714 138.676C350.182 138.796 350.59 138.988 350.938 139.252C351.298 139.516 351.592 139.852 351.82 140.26C352.048 140.656 352.192 141.13 352.252 141.682H350.668C350.548 141.094 350.296 140.638 349.912 140.314C349.528 139.99 349.012 139.828 348.364 139.828C347.812 139.828 347.35 139.93 346.978 140.134C346.606 140.338 346.306 140.608 346.078 140.944C345.862 141.28 345.706 141.67 345.61 142.114C345.514 142.546 345.466 142.996 345.466 143.464C345.466 143.896 345.514 144.316 345.61 144.724C345.718 145.132 345.88 145.498 346.096 145.822C346.312 146.134 346.588 146.386 346.924 146.578C347.272 146.77 347.692 146.866 348.184 146.866C348.94 146.866 349.528 146.668 349.948 146.272C350.38 145.876 350.644 145.318 350.74 144.598H352.306C352.138 145.762 351.712 146.656 351.028 147.28C350.344 147.892 349.402 148.198 348.202 148.198ZM356.268 140.044H352.938V138.694H361.128V140.044H357.798V148H356.268V140.044ZM366.31 148.198C365.566 148.198 364.912 148.078 364.348 147.838C363.796 147.598 363.334 147.262 362.962 146.83C362.59 146.398 362.308 145.882 362.116 145.282C361.936 144.682 361.846 144.028 361.846 143.32C361.846 142.624 361.954 141.982 362.17 141.394C362.386 140.794 362.686 140.278 363.07 139.846C363.466 139.414 363.928 139.078 364.456 138.838C364.996 138.598 365.584 138.478 366.22 138.478C367.048 138.478 367.732 138.652 368.272 139C368.824 139.336 369.262 139.768 369.586 140.296C369.922 140.824 370.15 141.4 370.27 142.024C370.402 142.648 370.456 143.242 370.432 143.806H363.466C363.454 144.214 363.502 144.604 363.61 144.976C363.718 145.336 363.892 145.66 364.132 145.948C364.372 146.224 364.678 146.446 365.05 146.614C365.422 146.782 365.86 146.866 366.364 146.866C367.012 146.866 367.54 146.716 367.948 146.416C368.368 146.116 368.644 145.66 368.776 145.048H370.288C370.084 146.104 369.634 146.896 368.938 147.424C368.242 147.94 367.366 148.198 366.31 148.198ZM368.812 142.456C368.788 142.096 368.704 141.754 368.56 141.43C368.428 141.106 368.242 140.83 368.002 140.602C367.774 140.362 367.498 140.176 367.174 140.044C366.862 139.9 366.514 139.828 366.13 139.828C365.734 139.828 365.374 139.9 365.05 140.044C364.738 140.176 364.468 140.362 364.24 140.602C364.012 140.842 363.832 141.124 363.7 141.448C363.568 141.76 363.49 142.096 363.466 142.456H368.812ZM372.018 138.694H373.548V143.14L377.814 138.694H379.848L375.726 142.726L380.334 148H378.372L374.484 143.572L373.548 144.49V148H372.018V138.694ZM381.421 148.108C381.265 148.108 381.103 148.09 380.935 148.054C380.767 148.03 380.629 148.006 380.521 147.982V146.632C380.641 146.668 380.749 146.692 380.845 146.704C380.953 146.716 381.055 146.722 381.151 146.722C381.547 146.722 381.847 146.566 382.051 146.254C382.267 145.942 382.423 145.462 382.519 144.814C382.627 144.166 382.693 143.338 382.717 142.33C382.741 141.31 382.765 140.098 382.789 138.694H389.323V148H387.793V140.044H384.265C384.229 141.136 384.187 142.174 384.139 143.158C384.103 144.13 384.001 144.982 383.833 145.714C383.665 146.446 383.395 147.028 383.023 147.46C382.651 147.892 382.117 148.108 381.421 148.108ZM395.649 148.198C394.905 148.198 394.251 148.078 393.687 147.838C393.135 147.586 392.667 147.244 392.283 146.812C391.899 146.368 391.611 145.852 391.419 145.264C391.227 144.676 391.131 144.04 391.131 143.356C391.131 142.672 391.227 142.036 391.419 141.448C391.611 140.848 391.899 140.332 392.283 139.9C392.667 139.456 393.135 139.108 393.687 138.856C394.251 138.604 394.905 138.478 395.649 138.478C396.381 138.478 397.029 138.604 397.593 138.856C398.157 139.108 398.631 139.456 399.015 139.9C399.399 140.332 399.687 140.848 399.879 141.448C400.071 142.036 400.167 142.672 400.167 143.356C400.167 144.04 400.071 144.676 399.879 145.264C399.687 145.852 399.399 146.368 399.015 146.812C398.631 147.244 398.157 147.586 397.593 147.838C397.029 148.078 396.381 148.198 395.649 148.198ZM395.649 146.866C396.045 146.866 396.417 146.788 396.765 146.632C397.125 146.476 397.437 146.254 397.701 145.966C397.965 145.666 398.169 145.3 398.313 144.868C398.469 144.424 398.547 143.92 398.547 143.356C398.547 142.792 398.469 142.294 398.313 141.862C398.169 141.418 397.965 141.046 397.701 140.746C397.437 140.446 397.125 140.218 396.765 140.062C396.417 139.906 396.045 139.828 395.649 139.828C395.253 139.828 394.875 139.906 394.515 140.062C394.167 140.218 393.861 140.446 393.597 140.746C393.333 141.046 393.123 141.418 392.967 141.862C392.823 142.294 392.751 142.792 392.751 143.356C392.751 143.92 392.823 144.424 392.967 144.868C393.123 145.3 393.333 145.666 393.597 145.966C393.861 146.254 394.167 146.476 394.515 146.632C394.875 146.788 395.253 146.866 395.649 146.866Z" fill="#1F1F1F"/>
<path d="M516.864 124.148H518.574V129.674H525.342V124.148H527.052V137H525.342V131.114H518.574V137H516.864V124.148ZM533.562 137.198C532.818 137.198 532.164 137.078 531.6 136.838C531.048 136.598 530.586 136.262 530.214 135.83C529.842 135.398 529.56 134.882 529.368 134.282C529.188 133.682 529.098 133.028 529.098 132.32C529.098 131.624 529.206 130.982 529.422 130.394C529.638 129.794 529.938 129.278 530.322 128.846C530.718 128.414 531.18 128.078 531.708 127.838C532.248 127.598 532.836 127.478 533.472 127.478C534.3 127.478 534.984 127.652 535.524 128C536.076 128.336 536.514 128.768 536.838 129.296C537.174 129.824 537.402 130.4 537.522 131.024C537.654 131.648 537.708 132.242 537.684 132.806H530.718C530.706 133.214 530.754 133.604 530.862 133.976C530.97 134.336 531.144 134.66 531.384 134.948C531.624 135.224 531.93 135.446 532.302 135.614C532.674 135.782 533.112 135.866 533.616 135.866C534.264 135.866 534.792 135.716 535.2 135.416C535.62 135.116 535.896 134.66 536.028 134.048H537.54C537.336 135.104 536.886 135.896 536.19 136.424C535.494 136.94 534.618 137.198 533.562 137.198ZM536.064 131.456C536.04 131.096 535.956 130.754 535.812 130.43C535.68 130.106 535.494 129.83 535.254 129.602C535.026 129.362 534.75 129.176 534.426 129.044C534.114 128.9 533.766 128.828 533.382 128.828C532.986 128.828 532.626 128.9 532.302 129.044C531.99 129.176 531.72 129.362 531.492 129.602C531.264 129.842 531.084 130.124 530.952 130.448C530.82 130.76 530.742 131.096 530.718 131.456H536.064ZM539.27 127.694H543.572C543.98 127.694 544.37 127.724 544.742 127.784C545.126 127.844 545.468 127.958 545.768 128.126C546.068 128.282 546.308 128.51 546.488 128.81C546.668 129.11 546.758 129.494 546.758 129.962C546.758 130.466 546.638 130.874 546.398 131.186C546.158 131.498 545.822 131.756 545.39 131.96V131.978C545.93 132.086 546.356 132.338 546.668 132.734C546.992 133.13 547.154 133.64 547.154 134.264C547.154 134.66 547.082 135.026 546.938 135.362C546.806 135.698 546.614 135.986 546.362 136.226C546.11 136.466 545.81 136.658 545.462 136.802C545.114 136.934 544.736 137 544.328 137H539.27V127.694ZM544.04 135.704C544.544 135.704 544.922 135.56 545.174 135.272C545.438 134.972 545.57 134.6 545.57 134.156C545.57 133.736 545.432 133.4 545.156 133.148C544.88 132.896 544.418 132.77 543.77 132.77H540.782V135.704H544.04ZM543.41 131.51C544.07 131.51 544.526 131.39 544.778 131.15C545.042 130.91 545.174 130.592 545.174 130.196C545.174 129.812 545.048 129.518 544.796 129.314C544.544 129.098 544.082 128.99 543.41 128.99H540.782V131.51H543.41ZM548.991 127.694H550.521V135.29L554.913 127.694H556.875V137H555.345V129.404L550.953 137H548.991V127.694ZM558.088 135.65H559.186C559.318 135.398 559.45 135.056 559.582 134.624C559.726 134.18 559.852 133.694 559.96 133.166C560.08 132.626 560.176 132.056 560.248 131.456C560.32 130.856 560.356 130.268 560.356 129.692V127.694H567.088V135.65H568.348V139.826H566.89V137H559.546V139.826H558.088V135.65ZM565.558 135.65V129.044H561.85V129.836C561.85 130.424 561.814 131.012 561.742 131.6C561.682 132.176 561.598 132.722 561.49 133.238C561.382 133.754 561.262 134.222 561.13 134.642C561.01 135.062 560.89 135.398 560.77 135.65H565.558ZM569.786 127.694H571.316V135.29L575.708 127.694H577.67V137H576.14V129.404L571.748 137H569.786V127.694ZM579.981 127.694H582.177L585.003 135.236H585.039L587.865 127.694H590.061V137H588.531V129.62L585.723 137H584.319L581.511 129.62V137H579.981V127.694ZM594.948 137.198C594.528 137.198 594.132 137.15 593.76 137.054C593.388 136.97 593.058 136.826 592.77 136.622C592.494 136.406 592.272 136.136 592.104 135.812C591.948 135.476 591.87 135.074 591.87 134.606C591.87 134.078 591.96 133.646 592.14 133.31C592.32 132.974 592.554 132.704 592.842 132.5C593.142 132.284 593.478 132.122 593.85 132.014C594.234 131.906 594.624 131.816 595.02 131.744C595.44 131.66 595.836 131.6 596.208 131.564C596.592 131.516 596.928 131.456 597.216 131.384C597.504 131.3 597.732 131.186 597.9 131.042C598.068 130.886 598.152 130.664 598.152 130.376C598.152 130.04 598.086 129.77 597.954 129.566C597.834 129.362 597.672 129.206 597.468 129.098C597.276 128.99 597.054 128.918 596.802 128.882C596.562 128.846 596.322 128.828 596.082 128.828C595.434 128.828 594.894 128.954 594.462 129.206C594.03 129.446 593.796 129.908 593.76 130.592H592.23C592.254 130.016 592.374 129.53 592.59 129.134C592.806 128.738 593.094 128.42 593.454 128.18C593.814 127.928 594.222 127.748 594.678 127.64C595.146 127.532 595.644 127.478 596.172 127.478C596.592 127.478 597.006 127.508 597.414 127.568C597.834 127.628 598.212 127.754 598.548 127.946C598.884 128.126 599.154 128.384 599.358 128.72C599.562 129.056 599.664 129.494 599.664 130.034V134.822C599.664 135.182 599.682 135.446 599.718 135.614C599.766 135.782 599.91 135.866 600.15 135.866C600.258 135.866 600.414 135.836 600.618 135.776V136.964C600.354 137.12 599.988 137.198 599.52 137.198C599.124 137.198 598.806 137.09 598.566 136.874C598.338 136.646 598.224 136.28 598.224 135.776C597.804 136.28 597.312 136.646 596.748 136.874C596.196 137.09 595.596 137.198 594.948 137.198ZM595.29 135.866C595.794 135.866 596.226 135.8 596.586 135.668C596.946 135.524 597.24 135.35 597.468 135.146C597.696 134.93 597.864 134.702 597.972 134.462C598.08 134.21 598.134 133.976 598.134 133.76V132.194C597.942 132.35 597.69 132.458 597.378 132.518C597.066 132.578 596.736 132.632 596.388 132.68C596.052 132.728 595.71 132.776 595.362 132.824C595.014 132.872 594.702 132.956 594.426 133.076C594.15 133.196 593.922 133.37 593.742 133.598C593.574 133.814 593.49 134.114 593.49 134.498C593.49 134.75 593.538 134.966 593.634 135.146C593.742 135.314 593.874 135.452 594.03 135.56C594.198 135.668 594.39 135.746 594.606 135.794C594.822 135.842 595.05 135.866 595.29 135.866ZM604.004 133.364C603.344 133.268 602.804 132.968 602.384 132.464C601.964 131.96 601.754 131.324 601.754 130.556C601.754 129.68 602.012 128.984 602.528 128.468C603.056 127.952 603.77 127.694 604.67 127.694H609.386V137H607.856V133.418H605.822L602.978 137H600.944L604.004 133.364ZM607.856 132.104V129.044H605.156C604.508 129.044 604.04 129.182 603.752 129.458C603.464 129.734 603.32 130.106 603.32 130.574C603.32 131.054 603.464 131.432 603.752 131.708C604.04 131.972 604.508 132.104 605.156 132.104H607.856ZM513.317 158.198C512.117 158.198 511.145 157.892 510.401 157.28C509.669 156.668 509.207 155.72 509.015 154.436C508.943 153.932 508.907 153.368 508.907 152.744C508.907 152.3 508.919 151.838 508.943 151.358C508.979 150.878 509.033 150.404 509.105 149.936C509.189 149.468 509.297 149.018 509.429 148.586C509.573 148.154 509.759 147.764 509.987 147.416C510.395 146.78 510.893 146.312 511.481 146.012C512.069 145.7 512.807 145.514 513.695 145.454C514.283 145.406 514.775 145.352 515.171 145.292C515.567 145.232 515.789 145.082 515.837 144.842H517.367C517.343 145.31 517.241 145.67 517.061 145.922C516.881 146.174 516.629 146.366 516.305 146.498C515.981 146.618 515.585 146.702 515.117 146.75C514.649 146.786 514.103 146.828 513.479 146.876C512.963 146.912 512.513 147.032 512.129 147.236C511.745 147.44 511.415 147.716 511.139 148.064C510.875 148.4 510.659 148.802 510.491 149.27C510.323 149.726 510.203 150.23 510.131 150.782H510.185C510.449 150.17 510.857 149.666 511.409 149.27C511.973 148.874 512.651 148.676 513.443 148.676C514.751 148.676 515.783 149.084 516.539 149.9C517.295 150.716 517.673 151.892 517.673 153.428C517.673 154.208 517.565 154.898 517.349 155.498C517.145 156.086 516.851 156.584 516.467 156.992C516.083 157.388 515.621 157.688 515.081 157.892C514.553 158.096 513.965 158.198 513.317 158.198ZM513.335 156.902C513.695 156.902 514.043 156.83 514.379 156.686C514.715 156.53 515.009 156.308 515.261 156.02C515.513 155.732 515.717 155.378 515.873 154.958C516.029 154.526 516.107 154.028 516.107 153.464C516.107 152.372 515.855 151.514 515.351 150.89C514.847 150.266 514.163 149.954 513.299 149.954C512.435 149.954 511.745 150.272 511.229 150.908C510.725 151.532 510.473 152.39 510.473 153.482C510.473 154.538 510.725 155.372 511.229 155.984C511.733 156.596 512.435 156.902 513.335 156.902ZM519.531 148.694H521.061V149.954H521.097C521.349 149.438 521.745 149.066 522.285 148.838C522.825 148.598 523.419 148.478 524.067 148.478C524.787 148.478 525.411 148.61 525.939 148.874C526.479 149.138 526.923 149.498 527.271 149.954C527.631 150.398 527.901 150.914 528.081 151.502C528.261 152.09 528.351 152.714 528.351 153.374C528.351 154.046 528.261 154.676 528.081 155.264C527.913 155.84 527.649 156.35 527.289 156.794C526.941 157.226 526.497 157.568 525.957 157.82C525.429 158.072 524.811 158.198 524.103 158.198C523.863 158.198 523.605 158.174 523.329 158.126C523.053 158.078 522.777 158 522.501 157.892C522.225 157.784 521.961 157.64 521.709 157.46C521.469 157.268 521.265 157.034 521.097 156.758H521.061V161.546H519.531V148.694ZM523.941 156.866C524.457 156.866 524.895 156.764 525.255 156.56C525.615 156.356 525.903 156.086 526.119 155.75C526.335 155.414 526.491 155.03 526.587 154.598C526.683 154.166 526.731 153.722 526.731 153.266C526.731 152.834 526.671 152.414 526.551 152.006C526.443 151.586 526.269 151.214 526.029 150.89C525.801 150.566 525.501 150.308 525.129 150.116C524.769 149.924 524.343 149.828 523.851 149.828C523.335 149.828 522.897 149.93 522.537 150.134C522.177 150.338 521.883 150.608 521.655 150.944C521.427 151.268 521.259 151.64 521.151 152.06C521.055 152.48 521.007 152.906 521.007 153.338C521.007 153.794 521.061 154.238 521.169 154.67C521.277 155.09 521.445 155.462 521.673 155.786C521.913 156.11 522.219 156.374 522.591 156.578C522.963 156.77 523.413 156.866 523.941 156.866ZM534.161 158.198C533.417 158.198 532.763 158.078 532.199 157.838C531.647 157.586 531.179 157.244 530.795 156.812C530.411 156.368 530.123 155.852 529.931 155.264C529.739 154.676 529.643 154.04 529.643 153.356C529.643 152.672 529.739 152.036 529.931 151.448C530.123 150.848 530.411 150.332 530.795 149.9C531.179 149.456 531.647 149.108 532.199 148.856C532.763 148.604 533.417 148.478 534.161 148.478C534.893 148.478 535.541 148.604 536.105 148.856C536.669 149.108 537.143 149.456 537.527 149.9C537.911 150.332 538.199 150.848 538.391 151.448C538.583 152.036 538.679 152.672 538.679 153.356C538.679 154.04 538.583 154.676 538.391 155.264C538.199 155.852 537.911 156.368 537.527 156.812C537.143 157.244 536.669 157.586 536.105 157.838C535.541 158.078 534.893 158.198 534.161 158.198ZM534.161 156.866C534.557 156.866 534.929 156.788 535.277 156.632C535.637 156.476 535.949 156.254 536.213 155.966C536.477 155.666 536.681 155.3 536.825 154.868C536.981 154.424 537.059 153.92 537.059 153.356C537.059 152.792 536.981 152.294 536.825 151.862C536.681 151.418 536.477 151.046 536.213 150.746C535.949 150.446 535.637 150.218 535.277 150.062C534.929 149.906 534.557 149.828 534.161 149.828C533.765 149.828 533.387 149.906 533.027 150.062C532.679 150.218 532.373 150.446 532.109 150.746C531.845 151.046 531.635 151.418 531.479 151.862C531.335 152.294 531.263 152.792 531.263 153.356C531.263 153.92 531.335 154.424 531.479 154.868C531.635 155.3 531.845 155.666 532.109 155.966C532.373 156.254 532.679 156.476 533.027 156.632C533.387 156.788 533.765 156.866 534.161 156.866ZM540.483 148.694H542.013V152.402H546.729V148.694H548.259V158H546.729V153.716H542.013V158H540.483V148.694ZM554.515 158.198C553.771 158.198 553.117 158.078 552.553 157.838C552.001 157.598 551.539 157.262 551.167 156.83C550.795 156.398 550.513 155.882 550.321 155.282C550.141 154.682 550.051 154.028 550.051 153.32C550.051 152.624 550.159 151.982 550.375 151.394C550.591 150.794 550.891 150.278 551.275 149.846C551.671 149.414 552.133 149.078 552.661 148.838C553.201 148.598 553.789 148.478 554.425 148.478C555.253 148.478 555.937 148.652 556.477 149C557.029 149.336 557.467 149.768 557.791 150.296C558.127 150.824 558.355 151.4 558.475 152.024C558.607 152.648 558.661 153.242 558.637 153.806H551.671C551.659 154.214 551.707 154.604 551.815 154.976C551.923 155.336 552.097 155.66 552.337 155.948C552.577 156.224 552.883 156.446 553.255 156.614C553.627 156.782 554.065 156.866 554.569 156.866C555.217 156.866 555.745 156.716 556.153 156.416C556.573 156.116 556.849 155.66 556.981 155.048H558.493C558.289 156.104 557.839 156.896 557.143 157.424C556.447 157.94 555.571 158.198 554.515 158.198ZM557.017 152.456C556.993 152.096 556.909 151.754 556.765 151.43C556.633 151.106 556.447 150.83 556.207 150.602C555.979 150.362 555.703 150.176 555.379 150.044C555.067 149.9 554.719 149.828 554.335 149.828C553.939 149.828 553.579 149.9 553.255 150.044C552.943 150.176 552.673 150.362 552.445 150.602C552.217 150.842 552.037 151.124 551.905 151.448C551.773 151.76 551.695 152.096 551.671 152.456H557.017ZM560.223 148.694H567.819V158H566.289V150.044H561.753V158H560.223V148.694ZM570.048 158.108C569.892 158.108 569.73 158.09 569.562 158.054C569.394 158.03 569.256 158.006 569.148 157.982V156.632C569.268 156.668 569.376 156.692 569.472 156.704C569.58 156.716 569.682 156.722 569.778 156.722C570.174 156.722 570.474 156.566 570.678 156.254C570.894 155.942 571.05 155.462 571.146 154.814C571.254 154.166 571.32 153.338 571.344 152.33C571.368 151.31 571.392 150.098 571.416 148.694H577.95V158H576.42V150.044H572.892C572.856 151.136 572.814 152.174 572.766 153.158C572.73 154.13 572.628 154.982 572.46 155.714C572.292 156.446 572.022 157.028 571.65 157.46C571.278 157.892 570.744 158.108 570.048 158.108ZM584.222 158.198C583.478 158.198 582.824 158.078 582.26 157.838C581.708 157.598 581.246 157.262 580.874 156.83C580.502 156.398 580.22 155.882 580.028 155.282C579.848 154.682 579.758 154.028 579.758 153.32C579.758 152.624 579.866 151.982 580.082 151.394C580.298 150.794 580.598 150.278 580.982 149.846C581.378 149.414 581.84 149.078 582.368 148.838C582.908 148.598 583.496 148.478 584.132 148.478C584.96 148.478 585.644 148.652 586.184 149C586.736 149.336 587.174 149.768 587.498 150.296C587.834 150.824 588.062 151.4 588.182 152.024C588.314 152.648 588.368 153.242 588.344 153.806H581.378C581.366 154.214 581.414 154.604 581.522 154.976C581.63 155.336 581.804 155.66 582.044 155.948C582.284 156.224 582.59 156.446 582.962 156.614C583.334 156.782 583.772 156.866 584.276 156.866C584.924 156.866 585.452 156.716 585.86 156.416C586.28 156.116 586.556 155.66 586.688 155.048H588.2C587.996 156.104 587.546 156.896 586.85 157.424C586.154 157.94 585.278 158.198 584.222 158.198ZM586.724 152.456C586.7 152.096 586.616 151.754 586.472 151.43C586.34 151.106 586.154 150.83 585.914 150.602C585.686 150.362 585.41 150.176 585.086 150.044C584.774 149.9 584.426 149.828 584.042 149.828C583.646 149.828 583.286 149.9 582.962 150.044C582.65 150.176 582.38 150.362 582.152 150.602C581.924 150.842 581.744 151.124 581.612 151.448C581.48 151.76 581.402 152.096 581.378 152.456H586.724ZM589.93 148.694H591.46V152.402H596.176V148.694H597.706V158H596.176V153.716H591.46V158H589.93V148.694ZM600.003 148.694H601.533V153.14L605.799 148.694H607.833L603.711 152.726L608.319 158H606.357L602.469 153.572L601.533 154.49V158H600.003V148.694ZM612.051 158.198C611.631 158.198 611.235 158.15 610.863 158.054C610.491 157.97 610.161 157.826 609.873 157.622C609.597 157.406 609.375 157.136 609.207 156.812C609.051 156.476 608.973 156.074 608.973 155.606C608.973 155.078 609.063 154.646 609.243 154.31C609.423 153.974 609.657 153.704 609.945 153.5C610.245 153.284 610.581 153.122 610.953 153.014C611.337 152.906 611.727 152.816 612.123 152.744C612.543 152.66 612.939 152.6 613.311 152.564C613.695 152.516 614.031 152.456 614.319 152.384C614.607 152.3 614.835 152.186 615.003 152.042C615.171 151.886 615.255 151.664 615.255 151.376C615.255 151.04 615.189 150.77 615.057 150.566C614.937 150.362 614.775 150.206 614.571 150.098C614.379 149.99 614.157 149.918 613.905 149.882C613.665 149.846 613.425 149.828 613.185 149.828C612.537 149.828 611.997 149.954 611.565 150.206C611.133 150.446 610.899 150.908 610.863 151.592H609.333C609.357 151.016 609.477 150.53 609.693 150.134C609.909 149.738 610.197 149.42 610.557 149.18C610.917 148.928 611.325 148.748 611.781 148.64C612.249 148.532 612.747 148.478 613.275 148.478C613.695 148.478 614.109 148.508 614.517 148.568C614.937 148.628 615.315 148.754 615.651 148.946C615.987 149.126 616.257 149.384 616.461 149.72C616.665 150.056 616.767 150.494 616.767 151.034V155.822C616.767 156.182 616.785 156.446 616.821 156.614C616.869 156.782 617.013 156.866 617.253 156.866C617.361 156.866 617.517 156.836 617.721 156.776V157.964C617.457 158.12 617.091 158.198 616.623 158.198C616.227 158.198 615.909 158.09 615.669 157.874C615.441 157.646 615.327 157.28 615.327 156.776C614.907 157.28 614.415 157.646 613.851 157.874C613.299 158.09 612.699 158.198 612.051 158.198ZM612.393 156.866C612.897 156.866 613.329 156.8 613.689 156.668C614.049 156.524 614.343 156.35 614.571 156.146C614.799 155.93 614.967 155.702 615.075 155.462C615.183 155.21 615.237 154.976 615.237 154.76V153.194C615.045 153.35 614.793 153.458 614.481 153.518C614.169 153.578 613.839 153.632 613.491 153.68C613.155 153.728 612.813 153.776 612.465 153.824C612.117 153.872 611.805 153.956 611.529 154.076C611.253 154.196 611.025 154.37 610.845 154.598C610.677 154.814 610.593 155.114 610.593 155.498C610.593 155.75 610.641 155.966 610.737 156.146C610.845 156.314 610.977 156.452 611.133 156.56C611.301 156.668 611.493 156.746 611.709 156.794C611.925 156.842 612.153 156.866 612.393 156.866Z" fill="#1F1F1F"/>
<line x1="210" y1="21" x2="210" y2="145" stroke="#1F1F1F" stroke-width="2"/>
<line x1="448" y1="21" x2="448" y2="145" stroke="#1F1F1F" stroke-width="2"/>
</svg>
