<svg width="73" height="90" viewBox="0 0 73 90" fill="none" xmlns="http://www.w3.org/2000/svg">
<path d="M2.63265 46.8672C2.78203 46.419 2.93141 45.9896 3.06212 45.5414C4.8173 39.3049 7.28203 33.3859 10.8858 27.9709C12.8277 25.0394 15.1243 22.4253 18.0185 20.3713C19.6617 19.2137 21.3982 18.6348 23.4895 18.6535C38.7633 18.7282 54.0558 18.6909 69.3297 18.6909C69.8152 18.6909 70.3193 18.6722 70.8048 18.7282C71.3836 18.7842 71.8691 18.9896 71.9811 19.6618C72.0745 20.2593 71.9251 20.7448 71.3463 21.0249C71.2903 21.0435 71.2529 21.0809 71.1969 21.0996C66.5475 23.5083 63.5226 27.4668 60.9645 31.8547C57.2861 38.1846 55.0268 45.056 53.5517 52.2074C52.3567 57.9958 51.9459 63.8589 52.0019 69.7779C52.0392 74.2593 51.9085 78.7219 52.0392 83.2032C52.1699 87.4045 49.089 90.0186 45.1679 89.9999C32.3961 89.9252 19.6243 89.9626 6.85257 89.9812C4.74261 89.9812 2.85672 89.4584 1.43764 87.7779C0.597389 86.7883 0.111912 85.668 0.0372231 84.3609C-0.000121215 83.8754 -0.00012207 83.3713 -0.00012207 82.8858C0.0185501 72.4107 0.0372231 61.9356 0.0372231 51.4605C0.0372231 36.6161 0.0185501 21.7718 -0.00012207 6.94605C-0.00012207 5.62033 0.0372234 4.31327 0.746766 3.13693C2.01647 1.06431 3.88369 0.0186722 6.31107 0C10.6243 0 14.9376 0 19.2509 0C27.9335 0 36.5973 0.0186722 45.2799 0C46.6803 0 47.9874 0.224067 49.1824 0.989626C50.7882 2.03527 51.8525 3.4917 51.9085 5.41493C52.0206 9.1307 51.9832 12.8278 51.9646 16.5436C51.9646 17.4958 51.4417 18 50.7509 17.944C50.0787 17.8879 49.6119 17.3278 49.6119 16.4128C49.5932 13.2572 49.4998 10.083 49.6492 6.92738C49.7612 4.53734 48.1928 2.37137 45.0932 2.39004C32.3774 2.4834 19.6617 2.46473 6.94593 2.39004C4.08909 2.37137 2.37125 4.1639 2.38992 6.89003C2.46461 19.9792 2.40859 33.0871 2.40859 46.1763C2.40859 46.3817 2.44593 46.6058 2.48328 46.8112C2.52062 46.8485 2.57664 46.8485 2.63265 46.8672ZM52.0019 46.8112C55.0641 37.3257 58.6679 28.2884 66.3421 21.2676C65.782 21.2303 65.4085 21.1929 65.0537 21.1929C51.199 21.1929 37.3442 21.2303 23.4708 21.1556C21.6969 21.1556 20.3152 21.6971 18.9708 22.724C15.9272 25.0581 13.6306 28.0083 11.6887 31.2572C6.98327 39.2116 4.38784 47.8941 3.09946 56.9875C1.82975 66.0062 2.55797 75.0808 2.42726 84.1182C2.40859 85.5559 3.26751 86.6202 4.55589 87.1431C5.28411 87.4418 6.14302 87.4792 6.94593 87.4792C19.3816 87.4978 31.8359 87.4045 44.2716 87.5538C48.4355 87.5912 49.6305 85.836 49.6119 82.2323C49.5185 62.9252 49.5745 43.5995 49.5745 24.2925C49.5745 22.7987 49.948 22.2199 50.8442 22.2759C51.6658 22.3133 51.9646 22.8174 51.9646 24.2738C51.9646 27.9896 51.9646 31.6867 51.9646 35.4025C51.9832 39.1929 52.0019 43.002 52.0019 46.8112Z" fill="#1F1F1F"/>
<path d="M26.197 10.5117C32.6389 10.5117 39.0621 10.5117 45.504 10.5117C45.8774 10.5117 46.2696 10.4744 46.643 10.5304C47.3152 10.6424 47.7073 11.0532 47.67 11.7814C47.6326 12.4163 47.2965 12.7897 46.6617 12.8831C46.3443 12.9391 46.0082 12.9391 45.6907 12.9391C32.9376 12.9391 20.1659 12.9578 7.41276 12.9578C6.75923 12.9578 6.1057 12.9391 5.45218 12.9017C4.74264 12.8457 4.35052 12.4536 4.33185 11.7441C4.31318 11.0159 4.72396 10.6237 5.41483 10.5491C5.84429 10.493 6.29243 10.5117 6.72189 10.5117C13.2011 10.5117 19.6991 10.5117 26.197 10.5117Z" fill="#1F1F1F"/>
<path d="M25.9354 7.91668C24.7964 7.91668 23.6574 7.95402 22.5184 7.89801C21.6035 7.86066 21.062 7.35651 21.1367 6.66564C21.2114 5.88141 21.7342 5.54531 22.4811 5.52664C24.8151 5.52664 27.1491 5.50797 29.4831 5.54531C30.3981 5.56399 30.9582 6.10548 30.8835 6.77768C30.8089 7.56191 30.3047 7.89801 29.5391 7.89801C28.3255 7.91668 27.1304 7.91668 25.9354 7.91668Z" fill="#1F1F1F"/>
<path d="M25.9729 76.4636C19.6057 76.4636 13.2198 76.4636 6.85257 76.4636C6.36709 76.4636 5.86294 76.4636 5.37747 76.4263C4.76128 76.3703 4.36917 76.0155 4.3505 75.362C4.33182 74.7458 4.63058 74.2976 5.20942 74.1296C5.56419 74.0362 5.9563 74.0362 6.34842 74.0362C19.475 74.0362 32.6202 74.0362 45.7467 74.0362C46.1202 74.0362 46.6243 73.9616 46.8484 74.1483C47.2218 74.4657 47.5953 74.9698 47.5953 75.418C47.6139 75.7354 47.0725 76.2022 46.699 76.3516C46.2695 76.5196 45.7281 76.4263 45.2426 76.4263C38.8193 76.4636 32.3961 76.4636 25.9729 76.4636Z" fill="#1F1F1F"/>
<path d="M25.9916 86.4719C23.6202 86.4532 21.753 84.5674 21.753 82.2147C21.7717 79.8246 23.6389 77.9761 26.0102 77.9761C28.3629 77.9947 30.2675 79.8993 30.2488 82.2333C30.2302 84.6234 28.3443 86.4906 25.9916 86.4719ZM27.7841 82.2707C27.8028 81.3557 27.0185 80.4781 26.1036 80.4221C25.1513 80.3661 24.1804 81.2437 24.1617 82.196C24.143 83.1296 25.0953 84.0819 26.0289 84.0632C26.9065 84.0445 27.7654 83.1856 27.7841 82.2707Z" fill="#1F1F1F"/>
<path d="M42.1243 26.29C40.6492 26.29 39.1928 26.3087 37.7177 26.29C36.7467 26.2713 36.2613 25.8419 36.2239 25.151C36.1866 24.4415 36.6907 23.9373 37.6243 23.9186C40.6679 23.8813 43.7115 23.8813 46.7737 23.9186C47.726 23.9373 48.2301 24.4228 48.1928 25.1323C48.1554 25.8232 47.6513 26.234 46.699 26.29C46.4189 26.3087 46.1575 26.29 45.8774 26.29C44.6264 26.3087 43.3754 26.3087 42.1243 26.29Z" fill="#1F1F1F"/>
</svg>
