<svg width="72" height="90" viewBox="0 0 72 90" fill="none" xmlns="http://www.w3.org/2000/svg">
<path d="M0.196151 51.619C0.179004 50.1958 0.813463 49.0126 1.65369 47.9323C3.7114 45.2744 5.76911 42.6337 7.80966 39.9758C15.3889 30.1503 22.9852 20.3076 30.5645 10.482C32.7079 7.70412 34.8685 4.94337 36.9776 2.14831C38.3323 0.347822 40.1328 -0.320932 42.2591 0.142052C43.8195 0.485003 45.3285 1.06802 46.8203 1.63389C54.1595 4.41179 61.4986 7.22399 68.8378 10.019C71.8558 11.1679 72.8332 13.8772 71.1184 16.6723C70.1582 18.2499 68.9407 19.656 67.8089 21.1307C60.9328 30.0474 54.0395 38.9813 47.1633 47.898C43.1508 53.0937 39.1039 58.2551 35.1772 63.5023C33.1709 66.1944 30.6845 66.5888 27.8894 65.5428C24.1856 64.171 20.4817 62.7478 16.795 61.3588C12.3881 59.6955 7.99829 58.0322 3.59137 56.3517C1.17356 55.4086 0.127561 53.9682 0.196151 51.619ZM41.2988 2.2855C39.9956 2.2855 39.2583 3.07428 38.5552 3.9831C31.9534 12.5569 25.3516 21.1307 18.7498 29.7044C13.6741 36.2891 8.5813 42.8566 3.52278 49.4584C1.79087 51.7047 2.25386 53.3166 4.86028 54.3112C9.95311 56.2488 15.0631 58.1865 20.1559 60.1242C23.0195 61.2045 25.8489 62.3191 28.7297 63.3479C30.976 64.1539 31.8505 63.8452 33.2738 62.0276C37.372 56.7118 41.4874 51.4132 45.5857 46.0975C50.73 39.4271 55.8571 32.7738 61.0014 26.1034C63.6249 22.6911 66.2657 19.2787 68.8549 15.8492C70.0724 14.2373 69.6952 12.8998 67.8775 12.2139C59.6981 9.09307 51.5016 5.98937 43.3051 2.90281C42.6535 2.6113 41.9676 2.47412 41.2988 2.2855Z" fill="#1F1F1F"/>
<path d="M9.91887 63.4852C10.5362 62.765 11.1535 62.0448 11.7708 61.3417C12.4396 60.5872 13.1426 60.4501 13.7085 60.9473C14.2058 61.3932 14.2058 62.0448 13.6056 62.8164C12.4053 64.3597 11.1535 65.8515 9.95316 67.412C9.43874 68.0807 8.85572 68.1493 8.10123 67.9435C6.26644 67.4291 5.8549 67.6177 5.58054 69.5211C5.39191 70.8415 4.8089 71.836 3.98581 72.7963C3.52283 73.3279 3.09414 73.8937 2.75119 74.4939C1.89381 75.9857 2.33965 77.2375 3.93437 77.8377C12.1309 80.9585 20.3103 84.0794 28.5068 87.1659C29.0555 87.3717 29.6557 87.526 30.2559 87.5775C31.2504 87.6804 32.1421 87.3889 32.7766 86.5486C33.6854 85.3655 34.6456 84.1823 35.503 82.9477C35.8631 82.4332 36.1203 81.7816 36.2575 81.1643C36.5147 80.0326 36.086 79.2266 35.0572 78.6951C33.6682 77.9577 33.5482 77.4947 34.4913 76.2944C41.5389 67.2405 48.5866 58.1866 55.6342 49.1498C58.0349 46.0633 60.4356 42.9767 62.8362 39.9073C64.088 38.2954 65.1511 38.2097 66.6601 39.6501C67.0888 40.0445 67.3975 40.5589 67.8261 41.1076C68.3063 40.456 68.8036 39.8902 69.1637 39.2557C69.9353 37.8496 69.5066 36.735 68.0148 36.1691C65.9571 35.3803 63.8994 34.6087 61.8416 33.8199C61.4644 33.6827 60.9843 33.5799 60.7785 33.3055C60.5213 32.9625 60.3155 32.3967 60.4184 32.0023C60.5041 31.6936 61.0186 31.3678 61.3958 31.2821C61.7388 31.2135 62.1675 31.4021 62.5447 31.5564C64.6539 32.3452 66.763 33.134 68.855 33.9742C71.9416 35.1917 72.8332 38.1068 70.947 40.919C70.1582 42.085 69.2665 43.1653 68.4092 44.2799C57.1775 58.8382 45.9459 73.3965 34.7314 87.9719C33.2052 89.9438 31.199 90.2868 28.9526 89.8067C28.1296 89.6352 27.3236 89.3094 26.5348 89.0007C18.767 86.0514 11.0506 82.9476 3.19703 80.204C0.127616 79.1237 -0.95268 75.6085 0.93355 72.882C1.41368 72.179 1.9967 71.5445 2.45968 70.8415C2.76834 70.3613 3.0427 69.7955 3.16273 69.2296C3.4028 68.0807 3.81434 67.0519 4.56883 66.1259C5.97493 64.3597 7.31244 62.5592 8.68424 60.7587C8.83857 60.5529 8.97575 60.3472 9.16437 60.1757C9.74739 59.6098 10.4161 59.507 10.8963 59.9528C11.445 60.4329 11.4107 60.9988 11.0335 61.5818C10.6219 62.1991 10.2104 62.8164 9.78169 63.4509C9.40444 63.8967 9.02719 64.3426 8.6328 64.7712C8.71854 64.8398 8.82142 64.9084 8.90716 64.9599C9.26726 64.4283 9.59306 63.9653 9.91887 63.4852ZM64.8768 41.2105C55.5313 53.1966 46.306 65.0285 37.0634 76.8774C37.595 77.6148 38.058 78.3007 38.5724 79.0209C38.8468 78.6951 39.0697 78.4378 39.2926 78.1463C47.3691 67.6692 55.4456 57.2092 63.5221 46.732C64.1051 45.9775 64.7053 45.223 65.1511 44.4C65.6484 43.4397 65.837 42.428 64.8768 41.2105Z" fill="#1F1F1F"/>
<path d="M64.9797 19.0733C64.7397 19.3648 64.4824 19.8964 64.0709 20.1021C63.4879 20.3765 62.802 20.1536 62.6305 19.4505C62.3904 18.456 61.6874 18.1302 60.8643 17.8215C53.508 14.9579 46.1517 12.0942 38.7954 9.23058C38.4182 9.0934 38.0409 8.93907 37.7151 8.71615C37.2178 8.3732 37.0292 7.84163 37.2693 7.25861C37.5265 6.65845 38.0409 6.50412 38.6411 6.6413C38.9326 6.70989 39.207 6.82992 39.4985 6.93281C47.0777 9.89933 54.6569 12.9002 62.2533 15.8495C63.4536 16.3125 64.311 17.0499 64.7397 18.2502C64.8082 18.4388 64.8597 18.6446 64.9797 19.0733Z" fill="#1F1F1F"/>
<path d="M8.52997 45.0176C9.38735 45.3262 10.039 45.532 10.6906 45.7892C17.8754 48.6014 25.0431 51.3965 32.2279 54.2087C33.4111 54.6716 34.4914 55.2718 35.1087 56.4721C35.4859 57.1923 35.3659 57.8611 34.8343 58.204C34.3027 58.5641 33.754 58.3584 33.1196 57.7925C32.5022 57.2438 31.8506 56.6436 31.0961 56.335C23.9285 53.4885 16.7436 50.7106 9.55882 47.9155C8.99295 47.6926 8.42708 47.4697 7.9298 47.161C7.46682 46.8695 7.22675 46.3551 7.53541 45.8578C7.80977 45.5149 8.23846 45.2576 8.52997 45.0176Z" fill="#1F1F1F"/>
<path d="M18.1153 58.6668C16.1091 58.6668 14.6172 57.1749 14.6001 55.1858C14.6001 53.2653 16.0748 51.8078 18.0468 51.8078C20.0187 51.7906 21.5963 53.351 21.5792 55.3059C21.562 57.1578 20.0359 58.6668 18.1153 58.6668ZM18.1496 56.2661C18.767 56.2147 19.1442 55.8889 19.1613 55.2373C19.1785 54.6371 18.5783 54.1398 17.961 54.1913C17.4123 54.2427 16.9322 54.7743 17.0179 55.323C17.1208 55.9232 17.4809 56.2661 18.1496 56.2661Z" fill="#1F1F1F"/>
<path d="M50.8844 7.49854C51.4159 7.65286 51.7074 7.72145 51.9818 7.82434C53.2336 8.30447 54.5025 8.7846 55.7371 9.31618C56.6116 9.67627 56.9374 10.2764 56.6802 10.9109C56.423 11.5625 55.7543 11.8197 54.9312 11.5111C53.5251 10.9966 52.1361 10.4479 50.7472 9.88205C50.1642 9.65913 49.8041 9.16185 49.9927 8.59598C50.1299 8.16729 50.61 7.82434 50.8844 7.49854Z" fill="#1F1F1F"/>
</svg>
