<svg width="88" height="90" viewBox="0 0 88 90" fill="none" xmlns="http://www.w3.org/2000/svg">
<path d="M0.149249 44.9343C0.149249 39.6534 0.16791 34.3538 0.149249 29.0729C0.130589 21.4968 0.0559472 13.9207 0.0372868 6.32588C0.0372868 3.45218 1.51146 1.26891 4.0866 0.42919C4.94498 0.149283 5.89666 0.0186608 6.81102 0.0186608C19.5188 4.2752e-07 32.2265 0 44.9342 0C45.5874 0 46.2405 0.0373216 46.8936 0.149284C49.8793 0.671776 51.8759 2.85504 51.9692 5.89669C52.0625 9.27423 52.0252 12.6518 52.0065 16.048C52.0065 17.1676 51.5774 17.6528 50.775 17.6154C49.9912 17.5968 49.5807 17.0929 49.5807 15.992C49.562 12.8757 49.5807 9.77806 49.5807 6.66177C49.562 3.91869 48.1998 2.5005 45.4754 2.5005C32.5997 2.48184 19.724 2.48184 6.84834 2.48184C3.73205 2.51916 2.42582 3.86271 2.42582 7.01632C2.42582 14.8724 2.42582 22.7284 2.42582 30.5844C2.42582 48.0879 2.46314 65.5914 2.3885 83.0948C2.36984 85.6513 3.86267 87.6293 6.90432 87.6106C19.724 87.536 32.5437 87.536 45.3634 87.6106C47.8639 87.6293 49.6367 85.7073 49.618 83.3187C49.5247 71.6 49.5807 59.8626 49.5807 48.1439C49.5807 47.7147 49.5434 47.2668 49.618 46.8376C49.7113 46.1659 50.1032 45.7367 50.8123 45.7367C51.54 45.7367 51.8946 46.1659 51.9692 46.8376C52.0065 47.1549 52.0065 47.4908 52.0065 47.808C52.0065 59.6947 52.0065 71.5813 52.0065 83.4867C52.0065 87.424 49.506 89.9619 45.5874 89.9619C32.5437 89.9619 19.5188 89.9059 6.47513 89.9992C2.92965 90.0552 -0.0186944 87.2374 -3.39757e-05 83.5613C0.0932681 70.6856 0.0372868 57.81 0.0372868 44.9343C0.0746076 44.9343 0.111928 44.9343 0.149249 44.9343Z" fill="#1F1F1F"/>
<path d="M69.9952 49.8045C66.5617 45.5499 63.2215 41.3887 59.788 37.1154C58.7243 37.9552 57.754 38.7016 56.6903 39.5599C57.0822 40.1011 57.4181 40.5863 57.7727 41.0528C60.9076 44.9715 64.0612 48.8715 67.1775 52.7902C67.532 53.238 67.8866 53.8352 67.8866 54.3577C67.8679 56.7462 68.9316 58.6495 70.3684 60.4223C72.9249 63.5572 75.4441 66.6922 77.9819 69.8271C78.2618 70.163 78.6537 70.5176 78.6723 70.9094C78.7096 71.376 78.579 72.0104 78.2804 72.3463C77.8699 72.8128 77.2541 72.6449 76.8249 72.2343C76.5077 71.9358 76.2278 71.5999 75.9666 71.2453C73.3354 67.9798 70.723 64.6955 68.0732 61.43C66.6363 59.6385 65.7033 57.6792 65.5167 55.3467C65.4794 54.8055 65.1808 54.1897 64.8263 53.7605C60.8143 48.7222 56.765 43.7212 52.753 38.7016C52.2305 38.0485 51.6147 37.7499 50.8123 37.6752C47.6587 37.358 44.6171 39.5599 44.4491 42.8815C44.3372 45.2327 43.2735 46.5576 41.5381 47.7519C40.4185 48.5169 39.4108 49.4686 38.3285 50.2897C37.2275 51.1294 36.817 51.1481 35.9773 50.1217C33.6074 47.2667 31.2749 44.393 28.961 41.482C28.3079 40.6423 28.3638 40.0638 29.2036 39.3733C30.995 37.8618 32.805 36.3504 34.6897 34.9695C35.4548 34.4097 36.4625 34.1298 37.3582 33.7752C39.5601 32.9168 41.3515 31.6293 42.4151 29.4087C42.7883 28.6063 43.4974 27.8972 44.1879 27.3187C47.4721 24.613 50.719 21.8699 54.1152 19.3321C58.631 15.9545 63.688 15.6746 68.8756 17.466C70.2751 17.9512 71.5067 18.9402 72.8129 19.7239C73.0369 19.8545 73.2048 20.0971 73.3914 20.3024C73.8393 20.8062 74.2498 21.3474 73.8019 22.0565C73.3728 22.7283 72.7383 22.7096 72.0665 22.4857C69.8273 21.6833 67.5694 21.8139 65.2928 22.3364C63.2961 22.8029 61.5047 23.6799 60.0306 25.1541C57.9033 27.2814 57.6793 30.6962 59.564 33.0475C63.5947 38.0671 67.6067 43.0868 71.6747 48.0691C72.0852 48.5729 72.7383 49.0021 73.3541 49.226C75.2575 49.8978 76.8809 50.9428 78.1498 52.5103C80.9675 55.9811 83.7666 59.4706 86.5843 62.9414C86.8269 63.24 87.0508 63.5572 87.2561 63.8745C87.6666 64.4903 87.48 65.0314 86.9389 65.4606C86.435 65.8525 85.8939 65.7592 85.446 65.3673C85.1661 65.1247 84.9609 64.7888 84.7183 64.4903C82.0498 61.1874 79.3814 57.8845 76.713 54.5629C75.7799 53.3873 74.6603 52.4729 73.2981 51.8385C72.533 51.484 71.8613 51.372 71.2455 52.0997C71.0775 52.305 70.8163 52.4356 70.5924 52.5849C69.9766 52.9954 69.3608 53.0514 68.8569 52.417C68.3904 51.8572 68.5397 51.2973 68.9876 50.7935C69.2675 50.4576 69.566 50.215 69.9952 49.8045ZM41.9113 41.6686C42.1352 41.3327 42.2472 41.2207 42.2845 41.0714C43.5161 37.0035 47.5467 34.5403 52.0812 35.3987C52.3798 35.4547 52.7717 35.4547 52.9956 35.2867C54.1525 34.4097 55.2722 33.4766 56.2612 32.6743C56.1305 31.2001 55.8506 29.9498 55.9253 28.7369C56.1679 25.0421 58.3325 22.6163 61.5607 21.1235C63.2402 20.3397 65.0689 19.9105 66.9162 19.2947C62.6244 18.4177 58.6497 18.6976 55.1415 21.59C52.0999 24.0718 49.0209 26.4977 45.9793 28.9982C45.4381 29.446 44.8783 29.9685 44.5984 30.5656C43.1989 33.57 40.6797 35.1934 37.75 36.2571C35.2495 37.1714 33.5888 39.1121 31.4988 40.6796C33.5141 43.1614 35.4175 45.494 37.3768 47.9198C38.7577 46.8002 39.9706 45.8298 41.2582 44.8035C40.2319 43.5346 39.3548 42.4337 38.4778 41.314C37.9366 40.6236 37.3582 39.9705 36.8543 39.2614C36.4625 38.7016 36.5371 38.0858 37.0783 37.6566C37.6194 37.2087 38.2165 37.2834 38.7204 37.7499C39.0003 38.0111 39.2055 38.3284 39.4481 38.6269C40.2132 39.5973 41.0156 40.5676 41.9113 41.6686ZM57.9219 34.9881C56.1119 35.7719 55.1975 36.6303 54.9922 37.6193C56.1492 36.8355 57.2128 36.1264 57.9219 34.9881Z" fill="#1F1F1F"/>
<path d="M21.2541 38.3288C20.5824 36.5001 19.9479 34.7647 19.2948 33.0293C18.567 31.0886 17.8206 29.1665 17.0929 27.2259C16.9436 26.8153 16.7756 26.4048 16.757 25.9756C16.7196 25.1732 17.3728 24.6321 18.1565 24.8187C18.567 24.912 18.9589 25.1546 19.3321 25.3785C22.3924 27.1699 25.4341 28.9613 28.4944 30.7713C28.7743 30.9393 29.0728 31.1072 29.2968 31.3312C29.7446 31.779 29.8193 32.3761 29.4087 32.7867C29.1102 33.0852 28.569 33.2532 28.1398 33.2345C27.7479 33.2159 27.3561 32.8986 26.9829 32.6747C24.9116 31.4804 22.8403 30.2675 20.5264 28.9053C20.6943 29.5398 20.7503 29.9316 20.8809 30.2862C21.8139 32.7867 22.7843 35.2685 23.7173 37.769C24.3331 39.4111 24.2211 39.6724 22.6537 40.4188C19.4067 41.9676 16.1412 43.4791 12.8943 45.0279C12.6144 45.1585 12.3531 45.3451 11.8306 45.6437C13.9766 46.1289 15.8799 46.5767 17.7646 47.0059C19.5187 47.3978 21.2728 47.771 23.0269 48.1815C24.7809 48.592 24.9489 48.9093 24.4264 50.7007C23.512 53.7796 22.579 56.8586 21.646 59.9376C21.5714 60.1802 21.534 60.4227 21.4221 61.0012C23.0082 59.9002 24.3331 58.9859 25.658 58.0715C26.647 57.3811 27.6173 56.672 28.6063 56.0189C29.9126 55.1605 30.3604 55.2725 31.2561 56.616C32.7303 58.8366 34.1858 61.0759 35.6413 63.3151C35.7906 63.5204 35.9585 63.707 36.3317 64.1735C36.4997 62.6247 36.649 61.3744 36.7796 60.1055C36.8916 59.1352 36.9662 58.1462 37.0782 57.1758C37.1528 56.4108 37.6006 55.9442 38.3657 56.0002C39.1495 56.0562 39.504 56.6347 39.448 57.3624C39.3361 59.0419 39.1868 60.7213 39.0188 62.4194C38.8509 64.1548 38.6456 65.8902 38.4963 67.6257C38.4404 68.3348 38.2724 68.9319 37.5073 69.1372C36.7049 69.3611 36.3317 68.7826 35.9585 68.2228C33.9805 65.2185 32.0025 62.2141 30.0245 59.2098C29.8752 58.9859 29.7073 58.7806 29.446 58.4261C28.3824 59.1538 27.3561 59.8443 26.3484 60.5534C24.3331 61.9529 22.3364 63.3711 20.3211 64.7706C19.7426 65.1625 19.1642 65.6663 18.3991 65.1065C17.6527 64.5654 17.8953 63.8749 18.1005 63.1845C19.2388 59.4337 20.3584 55.6643 21.478 51.9136C21.6087 51.5031 21.6833 51.0739 21.8513 50.4581C20.3211 50.0849 18.8656 49.7303 17.4101 49.3944C14.3871 48.7227 11.3454 48.0509 8.32246 47.3791C8.06121 47.3231 7.72532 47.3231 7.53872 47.1552C7.20283 46.8566 6.71766 46.5021 6.699 46.1289C6.66168 45.7557 7.01623 45.2518 7.35212 44.9533C7.70666 44.636 8.21049 44.4868 8.65834 44.2815C12.4091 42.5274 16.1598 40.7733 19.9106 39.0006C20.3211 38.8513 20.7316 38.6087 21.2541 38.3288Z" fill="#1F1F1F"/>
<path d="M25.8633 13.0062C19.4814 13.0062 13.0996 13.0062 6.71771 13.0062C6.17656 13.0062 5.57943 13.0622 5.11292 12.8382C4.75837 12.6703 4.3665 12.1291 4.38516 11.7559C4.38516 11.3827 4.79569 10.8975 5.15024 10.7109C5.56077 10.5057 6.10192 10.5617 6.58709 10.5617C19.5188 10.5617 32.4318 10.5617 45.3634 10.5617C45.7926 10.5617 46.2405 10.5803 46.6697 10.6363C47.2854 10.7109 47.6587 11.0842 47.6773 11.7186C47.696 12.409 47.3414 12.8756 46.6323 12.9689C46.1472 13.0435 45.662 13.0062 45.1582 13.0062C38.739 13.0062 32.3011 13.0062 25.8633 13.0062Z" fill="#1F1F1F"/>
<path d="M25.938 76.5452C19.5001 76.5452 13.081 76.5452 6.64312 76.5452C6.15795 76.5452 5.65412 76.5638 5.18761 76.4705C4.57182 76.3399 4.23593 75.8174 4.38521 75.2389C4.49717 74.8471 4.88904 74.4365 5.26225 74.2499C5.6168 74.0633 6.12063 74.1566 6.54982 74.1566C19.5748 74.1566 32.5998 74.1566 45.6434 74.1566C45.9233 74.1566 46.1845 74.1753 46.4644 74.1753C47.2668 74.194 47.696 74.6231 47.696 75.3882C47.696 76.2093 47.1362 76.5078 46.3898 76.5452C46.0166 76.5638 45.6247 76.5452 45.2515 76.5452C38.8137 76.5265 32.3758 76.5265 25.938 76.5452C25.938 76.5452 25.938 76.5265 25.938 76.5452Z" fill="#1F1F1F"/>
<path d="M26.0313 78.0376C28.4012 78.0563 30.2859 79.941 30.2672 82.2735C30.2486 84.6247 28.3639 86.5094 26.0126 86.5281C23.6614 86.5467 21.7021 84.4941 21.7767 82.0869C21.814 79.8477 23.7361 78.0376 26.0313 78.0376ZM25.9567 84.0649C27.0016 84.0649 27.8787 83.2438 27.86 82.2548C27.8414 81.3778 26.9643 80.5008 26.0686 80.4821C25.0796 80.4448 24.1839 81.3218 24.1839 82.3108C24.2026 83.2625 24.9863 84.0649 25.9567 84.0649Z" fill="#1F1F1F"/>
<path d="M25.9753 7.98629C24.837 7.98629 23.6987 8.02361 22.5604 7.96763C21.6087 7.91165 21.1049 7.44514 21.1235 6.7547C21.1422 6.10159 21.702 5.5791 22.5977 5.56043C24.8183 5.52311 27.0389 5.54177 29.2595 5.54177C29.4274 5.54177 29.5954 5.56043 29.7447 5.59776C30.3791 5.74704 30.8643 6.08293 30.8456 6.81068C30.827 7.51978 30.3791 7.93031 29.7073 7.94897C28.4758 8.00495 27.2255 7.96763 25.9753 7.98629C25.9753 7.98629 25.9753 7.96763 25.9753 7.98629Z" fill="#1F1F1F"/>
</svg>
