<svg width="110" height="140" viewBox="0 0 110 140" fill="none" xmlns="http://www.w3.org/2000/svg">
<path d="M30.6328 46.8672C30.7822 46.419 30.9315 45.9896 31.0622 45.5414C32.8174 39.3049 35.2821 33.3859 38.8859 27.9709C40.8278 25.0394 43.1245 22.4253 46.0187 20.3713C47.6618 19.2137 49.3983 18.6348 51.4896 18.6535C66.7634 18.7282 82.056 18.6909 97.3298 18.6909C97.8153 18.6909 98.3194 18.6722 98.8049 18.7282C99.3837 18.7842 99.8692 18.9896 99.9812 19.6618C100.075 20.2593 99.9252 20.7448 99.3464 21.0249C99.2904 21.0435 99.253 21.0809 99.197 21.0996C94.5476 23.5083 91.5228 27.4668 88.9647 31.8547C85.2862 38.1846 83.0269 45.056 81.5518 52.2074C80.3568 57.9958 79.946 63.8589 80.002 69.7779C80.0394 74.2593 79.9087 78.7219 80.0394 83.2032C80.1701 87.4045 77.0892 90.0186 73.168 89.9999C60.3962 89.9252 47.6245 89.9626 34.8527 89.9812C32.7427 89.9812 30.8568 89.4584 29.4378 87.7779C28.5975 86.7883 28.112 85.668 28.0373 84.3609C28 83.8754 28 83.3713 28 82.8858C28.0187 72.4107 28.0373 61.9356 28.0373 51.4605C28.0373 36.6161 28.0187 21.7718 28 6.94605C28 5.62033 28.0373 4.31327 28.7469 3.13693C30.0166 1.06431 31.8838 0.0186722 34.3112 0C38.6245 0 42.9377 0 47.251 0C55.9336 0 64.5975 0.0186722 73.28 0C74.6804 0 75.9875 0.224067 77.1825 0.989626C78.7883 2.03527 79.8526 3.4917 79.9087 5.41493C80.0207 9.1307 79.9833 12.8278 79.9647 16.5436C79.9647 17.4958 79.4418 18 78.751 17.944C78.0788 17.8879 77.612 17.3278 77.612 16.4128C77.5933 13.2572 77.4999 10.083 77.6493 6.92738C77.7614 4.53734 76.1929 2.37137 73.0933 2.39004C60.3776 2.4834 47.6618 2.46473 34.9461 2.39004C32.0892 2.37137 30.3714 4.1639 30.39 6.89003C30.4647 19.9792 30.4087 33.0871 30.4087 46.1763C30.4087 46.3817 30.4461 46.6058 30.4834 46.8112C30.5207 46.8485 30.5768 46.8485 30.6328 46.8672ZM80.002 46.8112C83.0643 37.3257 86.668 28.2884 94.3422 21.2676C93.7821 21.2303 93.4086 21.1929 93.0539 21.1929C79.1991 21.1929 65.3444 21.2303 51.4709 21.1556C49.6971 21.1556 48.3153 21.6971 46.9709 22.724C43.9274 25.0581 41.6307 28.0083 39.6888 31.2572C34.9834 39.2116 32.388 47.8941 31.0996 56.9875C29.8299 66.0062 30.5581 75.0808 30.4274 84.1182C30.4087 85.5559 31.2676 86.6202 32.556 87.1431C33.2842 87.4418 34.1431 87.4792 34.9461 87.4792C47.3817 87.4978 59.8361 87.4045 72.2717 87.5538C76.4356 87.5912 77.6306 85.836 77.612 82.2323C77.5186 62.9252 77.5746 43.5995 77.5746 24.2925C77.5746 22.7987 77.9481 22.2199 78.8443 22.2759C79.6659 22.3133 79.9647 22.8174 79.9647 24.2738C79.9647 27.9896 79.9647 31.6867 79.9647 35.4025C79.9833 39.1929 80.002 43.002 80.002 46.8112Z" fill="#1F1F1F"/>
<path d="M54.1973 10.5117C60.6392 10.5117 67.0624 10.5117 73.5043 10.5117C73.8778 10.5117 74.2699 10.4744 74.6433 10.5304C75.3155 10.6424 75.7076 11.0532 75.6703 11.7814C75.6329 12.4163 75.2968 12.7897 74.662 12.8831C74.3446 12.9391 74.0085 12.9391 73.691 12.9391C60.9379 12.9391 48.1662 12.9578 35.4131 12.9578C34.7595 12.9578 34.106 12.9391 33.4525 12.9017C32.7429 12.8457 32.3508 12.4536 32.3322 11.7441C32.3135 11.0159 32.7243 10.6237 33.4151 10.5491C33.8446 10.493 34.2927 10.5117 34.7222 10.5117C41.2014 10.5117 47.6994 10.5117 54.1973 10.5117Z" fill="#1F1F1F"/>
<path d="M53.9355 7.91668C52.7965 7.91668 51.6575 7.95402 50.5185 7.89801C49.6035 7.86066 49.062 7.35651 49.1367 6.66564C49.2114 5.88141 49.7342 5.54531 50.4811 5.52664C52.8151 5.52664 55.1492 5.50797 57.4832 5.54531C58.3981 5.56399 58.9583 6.10548 58.8836 6.77768C58.8089 7.56191 58.3048 7.89801 57.5392 7.89801C56.3255 7.91668 55.1305 7.91668 53.9355 7.91668Z" fill="#1F1F1F"/>
<path d="M53.9728 76.4636C47.6056 76.4636 41.2197 76.4636 34.8525 76.4636C34.367 76.4636 33.8629 76.4636 33.3774 76.4263C32.7612 76.3703 32.3691 76.0155 32.3504 75.362C32.3318 74.7458 32.6305 74.2976 33.2094 74.1296C33.5641 74.0362 33.9562 74.0362 34.3484 74.0362C47.4749 74.0362 60.6201 74.0362 73.7467 74.0362C74.1201 74.0362 74.6243 73.9616 74.8483 74.1483C75.2218 74.4657 75.5952 74.9698 75.5952 75.418C75.6139 75.7354 75.0724 76.2022 74.6989 76.3516C74.2695 76.5196 73.728 76.4263 73.2425 76.4263C66.8193 76.4636 60.396 76.4636 53.9728 76.4636Z" fill="#1F1F1F"/>
<path d="M53.9915 86.4719C51.6201 86.4532 49.7529 84.5674 49.7529 82.2147C49.7716 79.8246 51.6388 77.9761 54.0102 77.9761C56.3629 77.9947 58.2674 79.8993 58.2488 82.2333C58.2301 84.6234 56.3442 86.4906 53.9915 86.4719ZM55.784 82.2707C55.8027 81.3557 55.0185 80.4781 54.1035 80.4221C53.1513 80.3661 52.1803 81.2437 52.1616 82.196C52.143 83.1296 53.0953 84.0819 54.0289 84.0632C54.9065 84.0445 55.7654 83.1856 55.784 82.2707Z" fill="#1F1F1F"/>
<path d="M70.1245 26.29C68.6494 26.29 67.193 26.3087 65.7179 26.29C64.7469 26.2713 64.2614 25.8419 64.2241 25.151C64.1868 24.4415 64.6909 23.9373 65.6245 23.9186C68.6681 23.8813 71.7116 23.8813 74.7739 23.9186C75.7262 23.9373 76.2303 24.4228 76.193 25.1323C76.1556 25.8232 75.6515 26.234 74.6992 26.29C74.4191 26.3087 74.1577 26.29 73.8776 26.29C72.6266 26.3087 71.3755 26.3087 70.1245 26.29Z" fill="#1F1F1F"/>
<path d="M8.86396 102.148H10.574V107.674H17.342V102.148H19.052V115H17.342V109.114H10.574V115H8.86396V102.148ZM25.5622 115.198C24.8182 115.198 24.1642 115.078 23.6002 114.838C23.0482 114.598 22.5862 114.262 22.2142 113.83C21.8422 113.398 21.5602 112.882 21.3682 112.282C21.1882 111.682 21.0982 111.028 21.0982 110.32C21.0982 109.624 21.2062 108.982 21.4222 108.394C21.6382 107.794 21.9382 107.278 22.3222 106.846C22.7182 106.414 23.1802 106.078 23.7082 105.838C24.2482 105.598 24.8362 105.478 25.4722 105.478C26.3002 105.478 26.9842 105.652 27.5242 106C28.0762 106.336 28.5142 106.768 28.8382 107.296C29.1742 107.824 29.4022 108.4 29.5222 109.024C29.6542 109.648 29.7082 110.242 29.6842 110.806H22.7182C22.7062 111.214 22.7542 111.604 22.8622 111.976C22.9702 112.336 23.1442 112.66 23.3842 112.948C23.6242 113.224 23.9302 113.446 24.3022 113.614C24.6742 113.782 25.1122 113.866 25.6162 113.866C26.2642 113.866 26.7922 113.716 27.2002 113.416C27.6202 113.116 27.8962 112.66 28.0282 112.048H29.5402C29.3362 113.104 28.8862 113.896 28.1902 114.424C27.4942 114.94 26.6182 115.198 25.5622 115.198ZM28.0642 109.456C28.0402 109.096 27.9562 108.754 27.8122 108.43C27.6802 108.106 27.4942 107.83 27.2542 107.602C27.0262 107.362 26.7502 107.176 26.4262 107.044C26.1142 106.9 25.7662 106.828 25.3822 106.828C24.9862 106.828 24.6262 106.9 24.3022 107.044C23.9902 107.176 23.7202 107.362 23.4922 107.602C23.2642 107.842 23.0842 108.124 22.9522 108.448C22.8202 108.76 22.7422 109.096 22.7182 109.456H28.0642ZM31.2702 105.694H35.5722C35.9802 105.694 36.3702 105.724 36.7422 105.784C37.1262 105.844 37.4682 105.958 37.7682 106.126C38.0682 106.282 38.3082 106.51 38.4882 106.81C38.6682 107.11 38.7582 107.494 38.7582 107.962C38.7582 108.466 38.6382 108.874 38.3982 109.186C38.1582 109.498 37.8222 109.756 37.3902 109.96V109.978C37.9302 110.086 38.3562 110.338 38.6682 110.734C38.9922 111.13 39.1542 111.64 39.1542 112.264C39.1542 112.66 39.0822 113.026 38.9382 113.362C38.8062 113.698 38.6142 113.986 38.3622 114.226C38.1102 114.466 37.8102 114.658 37.4622 114.802C37.1142 114.934 36.7362 115 36.3282 115H31.2702V105.694ZM36.0402 113.704C36.5442 113.704 36.9222 113.56 37.1742 113.272C37.4382 112.972 37.5702 112.6 37.5702 112.156C37.5702 111.736 37.4322 111.4 37.1562 111.148C36.8802 110.896 36.4182 110.77 35.7702 110.77H32.7822V113.704H36.0402ZM35.4102 109.51C36.0702 109.51 36.5262 109.39 36.7782 109.15C37.0422 108.91 37.1742 108.592 37.1742 108.196C37.1742 107.812 37.0482 107.518 36.7962 107.314C36.5442 107.098 36.0822 106.99 35.4102 106.99H32.7822V109.51H35.4102ZM40.9909 105.694H42.5209V113.29L46.9129 105.694H48.8749V115H47.3449V107.404L42.9529 115H40.9909V105.694ZM50.0882 113.65H51.1862C51.3182 113.398 51.4502 113.056 51.5822 112.624C51.7262 112.18 51.8522 111.694 51.9602 111.166C52.0802 110.626 52.1762 110.056 52.2482 109.456C52.3202 108.856 52.3562 108.268 52.3562 107.692V105.694H59.0882V113.65H60.3482V117.826H58.8902V115H51.5462V117.826H50.0882V113.65ZM57.5582 113.65V107.044H53.8502V107.836C53.8502 108.424 53.8142 109.012 53.7422 109.6C53.6822 110.176 53.5982 110.722 53.4902 111.238C53.3822 111.754 53.2622 112.222 53.1302 112.642C53.0102 113.062 52.8902 113.398 52.7702 113.65H57.5582ZM61.7858 105.694H63.3158V113.29L67.7078 105.694H69.6698V115H68.1398V107.404L63.7478 115H61.7858V105.694ZM71.9811 105.694H74.1771L77.0031 113.236H77.0391L79.8651 105.694H82.0611V115H80.5311V107.62L77.7231 115H76.3191L73.5111 107.62V115H71.9811V105.694ZM86.9477 115.198C86.5277 115.198 86.1317 115.15 85.7597 115.054C85.3877 114.97 85.0577 114.826 84.7697 114.622C84.4937 114.406 84.2717 114.136 84.1037 113.812C83.9477 113.476 83.8697 113.074 83.8697 112.606C83.8697 112.078 83.9597 111.646 84.1397 111.31C84.3197 110.974 84.5537 110.704 84.8417 110.5C85.1417 110.284 85.4777 110.122 85.8497 110.014C86.2337 109.906 86.6237 109.816 87.0197 109.744C87.4397 109.66 87.8357 109.6 88.2077 109.564C88.5917 109.516 88.9277 109.456 89.2157 109.384C89.5037 109.3 89.7317 109.186 89.8997 109.042C90.0677 108.886 90.1517 108.664 90.1517 108.376C90.1517 108.04 90.0857 107.77 89.9537 107.566C89.8337 107.362 89.6717 107.206 89.4677 107.098C89.2757 106.99 89.0537 106.918 88.8017 106.882C88.5617 106.846 88.3217 106.828 88.0817 106.828C87.4337 106.828 86.8937 106.954 86.4617 107.206C86.0297 107.446 85.7957 107.908 85.7597 108.592H84.2297C84.2537 108.016 84.3737 107.53 84.5897 107.134C84.8057 106.738 85.0937 106.42 85.4537 106.18C85.8137 105.928 86.2217 105.748 86.6777 105.64C87.1457 105.532 87.6437 105.478 88.1717 105.478C88.5917 105.478 89.0057 105.508 89.4137 105.568C89.8337 105.628 90.2117 105.754 90.5477 105.946C90.8837 106.126 91.1537 106.384 91.3577 106.72C91.5617 107.056 91.6637 107.494 91.6637 108.034V112.822C91.6637 113.182 91.6817 113.446 91.7177 113.614C91.7657 113.782 91.9097 113.866 92.1497 113.866C92.2577 113.866 92.4137 113.836 92.6177 113.776V114.964C92.3537 115.12 91.9877 115.198 91.5197 115.198C91.1237 115.198 90.8057 115.09 90.5657 114.874C90.3377 114.646 90.2237 114.28 90.2237 113.776C89.8037 114.28 89.3117 114.646 88.7477 114.874C88.1957 115.09 87.5957 115.198 86.9477 115.198ZM87.2897 113.866C87.7937 113.866 88.2257 113.8 88.5857 113.668C88.9457 113.524 89.2397 113.35 89.4677 113.146C89.6957 112.93 89.8637 112.702 89.9717 112.462C90.0797 112.21 90.1337 111.976 90.1337 111.76V110.194C89.9417 110.35 89.6897 110.458 89.3777 110.518C89.0657 110.578 88.7357 110.632 88.3877 110.68C88.0517 110.728 87.7097 110.776 87.3617 110.824C87.0137 110.872 86.7017 110.956 86.4257 111.076C86.1497 111.196 85.9217 111.37 85.7417 111.598C85.5737 111.814 85.4897 112.114 85.4897 112.498C85.4897 112.75 85.5377 112.966 85.6337 113.146C85.7417 113.314 85.8737 113.452 86.0297 113.56C86.1977 113.668 86.3897 113.746 86.6057 113.794C86.8217 113.842 87.0497 113.866 87.2897 113.866ZM96.0036 111.364C95.3436 111.268 94.8036 110.968 94.3836 110.464C93.9636 109.96 93.7536 109.324 93.7536 108.556C93.7536 107.68 94.0116 106.984 94.5276 106.468C95.0556 105.952 95.7696 105.694 96.6696 105.694H101.386V115H99.8556V111.418H97.8216L94.9776 115H92.9436L96.0036 111.364ZM99.8556 110.104V107.044H97.1556C96.5076 107.044 96.0396 107.182 95.7516 107.458C95.4636 107.734 95.3196 108.106 95.3196 108.574C95.3196 109.054 95.4636 109.432 95.7516 109.708C96.0396 109.972 96.5076 110.104 97.1556 110.104H99.8556ZM5.31684 136.198C4.11684 136.198 3.14484 135.892 2.40084 135.28C1.66884 134.668 1.20684 133.72 1.01484 132.436C0.942836 131.932 0.906836 131.368 0.906836 130.744C0.906836 130.3 0.918836 129.838 0.942836 129.358C0.978836 128.878 1.03284 128.404 1.10484 127.936C1.18884 127.468 1.29684 127.018 1.42884 126.586C1.57284 126.154 1.75884 125.764 1.98684 125.416C2.39484 124.78 2.89284 124.312 3.48084 124.012C4.06884 123.7 4.80684 123.514 5.69484 123.454C6.28284 123.406 6.77484 123.352 7.17084 123.292C7.56684 123.232 7.78884 123.082 7.83684 122.842H9.36684C9.34284 123.31 9.24084 123.67 9.06084 123.922C8.88084 124.174 8.62884 124.366 8.30484 124.498C7.98084 124.618 7.58484 124.702 7.11684 124.75C6.64884 124.786 6.10284 124.828 5.47884 124.876C4.96284 124.912 4.51284 125.032 4.12884 125.236C3.74484 125.44 3.41484 125.716 3.13884 126.064C2.87484 126.4 2.65884 126.802 2.49084 127.27C2.32284 127.726 2.20284 128.23 2.13084 128.782H2.18484C2.44884 128.17 2.85684 127.666 3.40884 127.27C3.97284 126.874 4.65084 126.676 5.44284 126.676C6.75084 126.676 7.78284 127.084 8.53884 127.9C9.29484 128.716 9.67284 129.892 9.67284 131.428C9.67284 132.208 9.56484 132.898 9.34884 133.498C9.14484 134.086 8.85084 134.584 8.46684 134.992C8.08284 135.388 7.62084 135.688 7.08084 135.892C6.55284 136.096 5.96484 136.198 5.31684 136.198ZM5.33484 134.902C5.69484 134.902 6.04284 134.83 6.37884 134.686C6.71484 134.53 7.00884 134.308 7.26084 134.02C7.51284 133.732 7.71684 133.378 7.87284 132.958C8.02884 132.526 8.10684 132.028 8.10684 131.464C8.10684 130.372 7.85484 129.514 7.35084 128.89C6.84684 128.266 6.16284 127.954 5.29884 127.954C4.43484 127.954 3.74484 128.272 3.22884 128.908C2.72484 129.532 2.47284 130.39 2.47284 131.482C2.47284 132.538 2.72484 133.372 3.22884 133.984C3.73284 134.596 4.43484 134.902 5.33484 134.902ZM11.5312 126.694H13.0612V127.954H13.0972C13.3492 127.438 13.7452 127.066 14.2852 126.838C14.8252 126.598 15.4192 126.478 16.0672 126.478C16.7872 126.478 17.4112 126.61 17.9392 126.874C18.4792 127.138 18.9232 127.498 19.2712 127.954C19.6312 128.398 19.9012 128.914 20.0812 129.502C20.2612 130.09 20.3512 130.714 20.3512 131.374C20.3512 132.046 20.2612 132.676 20.0812 133.264C19.9132 133.84 19.6492 134.35 19.2892 134.794C18.9412 135.226 18.4972 135.568 17.9572 135.82C17.4292 136.072 16.8112 136.198 16.1032 136.198C15.8632 136.198 15.6052 136.174 15.3292 136.126C15.0532 136.078 14.7772 136 14.5012 135.892C14.2252 135.784 13.9612 135.64 13.7092 135.46C13.4692 135.268 13.2652 135.034 13.0972 134.758H13.0612V139.546H11.5312V126.694ZM15.9412 134.866C16.4572 134.866 16.8952 134.764 17.2552 134.56C17.6152 134.356 17.9032 134.086 18.1192 133.75C18.3352 133.414 18.4912 133.03 18.5872 132.598C18.6832 132.166 18.7312 131.722 18.7312 131.266C18.7312 130.834 18.6712 130.414 18.5512 130.006C18.4432 129.586 18.2692 129.214 18.0292 128.89C17.8012 128.566 17.5012 128.308 17.1292 128.116C16.7692 127.924 16.3432 127.828 15.8512 127.828C15.3352 127.828 14.8972 127.93 14.5372 128.134C14.1772 128.338 13.8832 128.608 13.6552 128.944C13.4272 129.268 13.2592 129.64 13.1512 130.06C13.0552 130.48 13.0072 130.906 13.0072 131.338C13.0072 131.794 13.0612 132.238 13.1692 132.67C13.2772 133.09 13.4452 133.462 13.6732 133.786C13.9132 134.11 14.2192 134.374 14.5912 134.578C14.9632 134.77 15.4132 134.866 15.9412 134.866ZM26.1611 136.198C25.4171 136.198 24.7631 136.078 24.1991 135.838C23.6471 135.586 23.1791 135.244 22.7951 134.812C22.4111 134.368 22.1231 133.852 21.9311 133.264C21.7391 132.676 21.6431 132.04 21.6431 131.356C21.6431 130.672 21.7391 130.036 21.9311 129.448C22.1231 128.848 22.4111 128.332 22.7951 127.9C23.1791 127.456 23.6471 127.108 24.1991 126.856C24.7631 126.604 25.4171 126.478 26.1611 126.478C26.8931 126.478 27.5411 126.604 28.1051 126.856C28.6691 127.108 29.1431 127.456 29.5271 127.9C29.9111 128.332 30.1991 128.848 30.3911 129.448C30.5831 130.036 30.6791 130.672 30.6791 131.356C30.6791 132.04 30.5831 132.676 30.3911 133.264C30.1991 133.852 29.9111 134.368 29.5271 134.812C29.1431 135.244 28.6691 135.586 28.1051 135.838C27.5411 136.078 26.8931 136.198 26.1611 136.198ZM26.1611 134.866C26.5571 134.866 26.9291 134.788 27.2771 134.632C27.6371 134.476 27.9491 134.254 28.2131 133.966C28.4771 133.666 28.6811 133.3 28.8251 132.868C28.9811 132.424 29.0591 131.92 29.0591 131.356C29.0591 130.792 28.9811 130.294 28.8251 129.862C28.6811 129.418 28.4771 129.046 28.2131 128.746C27.9491 128.446 27.6371 128.218 27.2771 128.062C26.9291 127.906 26.5571 127.828 26.1611 127.828C25.7651 127.828 25.3871 127.906 25.0271 128.062C24.6791 128.218 24.3731 128.446 24.1091 128.746C23.8451 129.046 23.6351 129.418 23.4791 129.862C23.3351 130.294 23.2631 130.792 23.2631 131.356C23.2631 131.92 23.3351 132.424 23.4791 132.868C23.6351 133.3 23.8451 133.666 24.1091 133.966C24.3731 134.254 24.6791 134.476 25.0271 134.632C25.3871 134.788 25.7651 134.866 26.1611 134.866ZM32.4831 126.694H34.0131V130.402H38.7291V126.694H40.2591V136H38.7291V131.716H34.0131V136H32.4831V126.694ZM46.5153 136.198C45.7713 136.198 45.1173 136.078 44.5533 135.838C44.0013 135.598 43.5393 135.262 43.1673 134.83C42.7953 134.398 42.5133 133.882 42.3213 133.282C42.1413 132.682 42.0513 132.028 42.0513 131.32C42.0513 130.624 42.1593 129.982 42.3753 129.394C42.5913 128.794 42.8913 128.278 43.2753 127.846C43.6713 127.414 44.1333 127.078 44.6613 126.838C45.2013 126.598 45.7893 126.478 46.4253 126.478C47.2533 126.478 47.9373 126.652 48.4773 127C49.0293 127.336 49.4673 127.768 49.7913 128.296C50.1273 128.824 50.3553 129.4 50.4753 130.024C50.6073 130.648 50.6613 131.242 50.6373 131.806H43.6713C43.6593 132.214 43.7073 132.604 43.8153 132.976C43.9233 133.336 44.0973 133.66 44.3373 133.948C44.5773 134.224 44.8833 134.446 45.2553 134.614C45.6273 134.782 46.0653 134.866 46.5693 134.866C47.2173 134.866 47.7453 134.716 48.1533 134.416C48.5733 134.116 48.8493 133.66 48.9813 133.048H50.4933C50.2893 134.104 49.8393 134.896 49.1433 135.424C48.4473 135.94 47.5713 136.198 46.5153 136.198ZM49.0173 130.456C48.9933 130.096 48.9093 129.754 48.7653 129.43C48.6333 129.106 48.4473 128.83 48.2073 128.602C47.9793 128.362 47.7033 128.176 47.3793 128.044C47.0673 127.9 46.7193 127.828 46.3353 127.828C45.9393 127.828 45.5793 127.9 45.2553 128.044C44.9433 128.176 44.6733 128.362 44.4453 128.602C44.2173 128.842 44.0373 129.124 43.9053 129.448C43.7733 129.76 43.6953 130.096 43.6713 130.456H49.0173ZM52.2233 126.694H59.8193V136H58.2893V128.044H53.7533V136H52.2233V126.694ZM62.0478 136.108C61.8918 136.108 61.7298 136.09 61.5618 136.054C61.3938 136.03 61.2558 136.006 61.1478 135.982V134.632C61.2678 134.668 61.3758 134.692 61.4718 134.704C61.5798 134.716 61.6818 134.722 61.7778 134.722C62.1738 134.722 62.4738 134.566 62.6778 134.254C62.8938 133.942 63.0498 133.462 63.1458 132.814C63.2538 132.166 63.3198 131.338 63.3438 130.33C63.3678 129.31 63.3918 128.098 63.4158 126.694H69.9498V136H68.4198V128.044H64.8918C64.8558 129.136 64.8138 130.174 64.7658 131.158C64.7298 132.13 64.6278 132.982 64.4598 133.714C64.2918 134.446 64.0218 135.028 63.6498 135.46C63.2778 135.892 62.7438 136.108 62.0478 136.108ZM76.2224 136.198C75.4784 136.198 74.8244 136.078 74.2604 135.838C73.7084 135.598 73.2464 135.262 72.8744 134.83C72.5024 134.398 72.2204 133.882 72.0284 133.282C71.8484 132.682 71.7584 132.028 71.7584 131.32C71.7584 130.624 71.8664 129.982 72.0824 129.394C72.2984 128.794 72.5984 128.278 72.9824 127.846C73.3784 127.414 73.8404 127.078 74.3684 126.838C74.9084 126.598 75.4964 126.478 76.1324 126.478C76.9604 126.478 77.6444 126.652 78.1844 127C78.7364 127.336 79.1744 127.768 79.4984 128.296C79.8344 128.824 80.0624 129.4 80.1824 130.024C80.3144 130.648 80.3684 131.242 80.3444 131.806H73.3784C73.3664 132.214 73.4144 132.604 73.5224 132.976C73.6304 133.336 73.8044 133.66 74.0444 133.948C74.2844 134.224 74.5904 134.446 74.9624 134.614C75.3344 134.782 75.7724 134.866 76.2764 134.866C76.9244 134.866 77.4524 134.716 77.8604 134.416C78.2804 134.116 78.5564 133.66 78.6884 133.048H80.2004C79.9964 134.104 79.5464 134.896 78.8504 135.424C78.1544 135.94 77.2784 136.198 76.2224 136.198ZM78.7244 130.456C78.7004 130.096 78.6164 129.754 78.4724 129.43C78.3404 129.106 78.1544 128.83 77.9144 128.602C77.6864 128.362 77.4104 128.176 77.0864 128.044C76.7744 127.9 76.4264 127.828 76.0424 127.828C75.6464 127.828 75.2864 127.9 74.9624 128.044C74.6504 128.176 74.3804 128.362 74.1524 128.602C73.9244 128.842 73.7444 129.124 73.6124 129.448C73.4804 129.76 73.4024 130.096 73.3784 130.456H78.7244ZM81.9303 126.694H83.4603V130.402H88.1763V126.694H89.7063V136H88.1763V131.716H83.4603V136H81.9303V126.694ZM92.0026 126.694H93.5326V131.14L97.7986 126.694H99.8326L95.7106 130.726L100.319 136H98.3566L94.4686 131.572L93.5326 132.49V136H92.0026V126.694ZM104.051 136.198C103.631 136.198 103.235 136.15 102.863 136.054C102.491 135.97 102.161 135.826 101.873 135.622C101.597 135.406 101.375 135.136 101.207 134.812C101.051 134.476 100.973 134.074 100.973 133.606C100.973 133.078 101.063 132.646 101.243 132.31C101.423 131.974 101.657 131.704 101.945 131.5C102.245 131.284 102.581 131.122 102.953 131.014C103.337 130.906 103.727 130.816 104.123 130.744C104.543 130.66 104.939 130.6 105.311 130.564C105.695 130.516 106.031 130.456 106.319 130.384C106.607 130.3 106.835 130.186 107.003 130.042C107.171 129.886 107.255 129.664 107.255 129.376C107.255 129.04 107.189 128.77 107.057 128.566C106.937 128.362 106.775 128.206 106.571 128.098C106.379 127.99 106.157 127.918 105.905 127.882C105.665 127.846 105.425 127.828 105.185 127.828C104.537 127.828 103.997 127.954 103.565 128.206C103.133 128.446 102.899 128.908 102.863 129.592H101.333C101.357 129.016 101.477 128.53 101.693 128.134C101.909 127.738 102.197 127.42 102.557 127.18C102.917 126.928 103.325 126.748 103.781 126.64C104.249 126.532 104.747 126.478 105.275 126.478C105.695 126.478 106.109 126.508 106.517 126.568C106.937 126.628 107.315 126.754 107.651 126.946C107.987 127.126 108.257 127.384 108.461 127.72C108.665 128.056 108.767 128.494 108.767 129.034V133.822C108.767 134.182 108.785 134.446 108.821 134.614C108.869 134.782 109.013 134.866 109.253 134.866C109.361 134.866 109.517 134.836 109.721 134.776V135.964C109.457 136.12 109.091 136.198 108.623 136.198C108.227 136.198 107.909 136.09 107.669 135.874C107.441 135.646 107.327 135.28 107.327 134.776C106.907 135.28 106.415 135.646 105.851 135.874C105.299 136.09 104.699 136.198 104.051 136.198ZM104.393 134.866C104.897 134.866 105.329 134.8 105.689 134.668C106.049 134.524 106.343 134.35 106.571 134.146C106.799 133.93 106.967 133.702 107.075 133.462C107.183 133.21 107.237 132.976 107.237 132.76V131.194C107.045 131.35 106.793 131.458 106.481 131.518C106.169 131.578 105.839 131.632 105.491 131.68C105.155 131.728 104.813 131.776 104.465 131.824C104.117 131.872 103.805 131.956 103.529 132.076C103.253 132.196 103.025 132.37 102.845 132.598C102.677 132.814 102.593 133.114 102.593 133.498C102.593 133.75 102.641 133.966 102.737 134.146C102.845 134.314 102.977 134.452 103.133 134.56C103.301 134.668 103.493 134.746 103.709 134.794C103.925 134.842 104.153 134.866 104.393 134.866Z" fill="#1F1F1F"/>
</svg>
