<svg width="46" height="55" viewBox="0 0 46 55" fill="none" xmlns="http://www.w3.org/2000/svg">
<path d="M31.6853 0.989014H0.923584V54.9856H45.5278V14.1156L31.6853 0.989014ZM32.2415 4.06142L42.2879 13.5882H32.2415V4.06142ZM2.82164 53.1857V2.7889H30.3434V15.3881H43.6298V53.1857H2.82164Z" fill="#4285F4"/>
<path d="M10.4139 16.2881H18.9551C19.4799 16.2881 19.9041 15.8858 19.9041 15.3881C19.9041 14.8903 19.4799 14.488 18.9551 14.488H10.4139C9.88906 14.488 9.46484 14.8903 9.46484 15.3881C9.46484 15.8858 9.88906 16.2881 10.4139 16.2881Z" fill="#4285F4"/>
<path d="M10.4139 23.4878H15.159C15.6838 23.4878 16.108 23.0855 16.108 22.5878C16.108 22.0901 15.6838 21.6877 15.159 21.6877H10.4139C9.88906 21.6877 9.46484 22.0901 9.46484 22.5878C9.46484 23.0855 9.88906 23.4878 10.4139 23.4878Z" fill="#4285F4"/>
<path d="M24.6492 23.4878H31.2924C31.8172 23.4878 32.2414 23.0855 32.2414 22.5878C32.2414 22.0901 31.8172 21.6877 31.2924 21.6877H24.6492C24.1244 21.6877 23.7002 22.0901 23.7002 22.5878C23.7002 23.0855 24.1244 23.4878 24.6492 23.4878Z" fill="#4285F4"/>
<path d="M19.2303 21.9576C19.05 22.1196 18.9551 22.3528 18.9551 22.5877C18.9551 22.8217 19.05 23.0557 19.2303 23.2268C19.4097 23.3888 19.6574 23.4878 19.9041 23.4878C20.1509 23.4878 20.3976 23.3969 20.5779 23.2178C20.7487 23.0548 20.8531 22.8217 20.8531 22.5877C20.8531 22.3528 20.7487 22.1187 20.5779 21.9486C20.2173 21.6156 19.5814 21.6156 19.2303 21.9576Z" fill="#4285F4"/>
<path d="M36.0375 23.4878C36.2843 23.4878 36.531 23.3888 36.7113 23.2268C36.8822 23.0558 36.9866 22.8218 36.9866 22.5878C36.9866 22.3528 36.8822 22.1188 36.7113 21.9487C36.3507 21.6157 35.7243 21.6157 35.3637 21.9487C35.1919 22.1188 35.0885 22.3528 35.0885 22.5878C35.0885 22.8218 35.1919 23.0558 35.3637 23.2268C35.5431 23.3888 35.7908 23.4878 36.0375 23.4878Z" fill="#4285F4"/>
<path d="M21.8022 28.8875H15.159C14.6342 28.8875 14.21 29.2897 14.21 29.7874C14.21 30.285 14.6342 30.6873 15.159 30.6873H21.8022C22.327 30.6873 22.7512 30.285 22.7512 29.7874C22.7512 29.2897 22.327 28.8875 21.8022 28.8875Z" fill="#4285F4"/>
<path d="M10.4139 30.6873C10.6606 30.6873 10.9074 30.5883 11.0877 30.4262C11.267 30.2552 11.3629 30.0212 11.3629 29.7872C11.3629 29.5523 11.267 29.3183 11.0877 29.1482C10.727 28.8152 10.1007 28.8152 9.74006 29.1482C9.55975 29.3183 9.46484 29.5433 9.46484 29.7872C9.46484 30.0212 9.56829 30.2552 9.74006 30.4262C9.91943 30.5883 10.1671 30.6873 10.4139 30.6873Z" fill="#4285F4"/>
<path d="M13.3986 37.1362C11.3202 38.1621 10.6208 40.1249 10.3655 42.1598C9.97261 41.8475 9.57971 41.5361 9.18681 41.2238C8.25677 40.4849 6.90725 41.7512 7.84489 42.4972C8.73223 43.2019 9.62052 43.9075 10.5079 44.6131C11.1323 45.1089 12.0994 44.7958 12.1278 43.9768C12.1971 42.0275 12.2939 39.7092 14.3562 38.6913C15.4399 38.1558 14.4814 36.6016 13.3986 37.1362Z" fill="#4285F4"/>
<path d="M19.7095 40.7261C18.3951 41.015 16.8994 42.6007 15.9741 40.8215C15.4341 39.783 13.7961 40.6937 14.3352 41.7295C14.8258 42.6736 15.7587 43.335 16.8681 43.4682C17.4318 43.5357 17.9415 43.4601 18.4701 43.2649C18.8582 43.1218 20.3083 42.0877 20.6215 42.6196C21.2175 43.6311 22.8574 42.724 22.2605 41.7115C21.7509 40.8458 20.7193 40.5038 19.7095 40.7261Z" fill="#4285F4"/>
<path d="M39.1171 32.0489C38.896 31.9742 38.7983 31.8158 38.7594 31.7276C38.7214 31.6394 38.6711 31.4612 38.7726 31.2596C39.2329 30.3399 39.0403 29.2806 38.281 28.5598C37.5209 27.8407 36.4029 27.6571 35.4349 28.0936C35.2204 28.1899 35.0325 28.1422 34.9405 28.1062C34.8465 28.0693 34.6804 27.9766 34.6017 27.7669C34.242 26.8067 33.3157 26.1875 32.2414 26.1875C31.1671 26.1875 30.2409 26.8067 29.8812 27.7669C29.8024 27.9766 29.6354 28.0693 29.5424 28.1062C29.4503 28.1422 29.2615 28.1908 29.0489 28.0936C28.08 27.6589 26.963 27.8398 26.2018 28.5598C25.4426 29.2806 25.25 30.3399 25.7102 31.2587C25.8108 31.4612 25.7615 31.6394 25.7235 31.7276C25.6846 31.8167 25.5869 31.9742 25.3657 32.0489C24.3531 32.39 23.7002 33.2683 23.7002 34.2871C23.7002 35.3058 24.3531 36.1842 25.3657 36.5253C25.5869 36.6 25.6846 36.7584 25.7235 36.8466C25.7615 36.9348 25.8118 37.1129 25.7102 37.3145C25.25 38.2343 25.4426 39.2935 26.2018 40.0144C26.5691 40.3618 27.0199 40.5814 27.4963 40.6696V51.7588L32.2414 47.259L36.9866 51.7588V40.6687C37.463 40.5814 37.9147 40.3627 38.281 40.0144C39.0403 39.2935 39.2329 38.2343 38.7726 37.3154C38.672 37.1129 38.7214 36.9348 38.7594 36.8466C38.7983 36.7575 38.896 36.6 39.1171 36.5253C40.1297 36.1842 40.7827 35.3058 40.7827 34.2871C40.7827 33.2683 40.1297 32.39 39.1171 32.0489ZM32.2414 44.7139L29.3944 47.4138V40.432C29.4029 40.4329 29.4114 40.4338 29.419 40.4356C29.4665 40.4446 29.512 40.4554 29.5424 40.468C29.5889 40.4869 29.6544 40.5193 29.717 40.5724C29.7806 40.6264 29.8423 40.702 29.8812 40.8072C30.2409 41.7675 31.1671 42.3867 32.2414 42.3867C33.3157 42.3867 34.242 41.7675 34.6017 40.8072C34.6406 40.702 34.7023 40.6264 34.7658 40.5724C34.8294 40.5184 34.894 40.486 34.9405 40.468C34.9708 40.4563 35.0154 40.4446 35.0629 40.4356C35.0705 40.4347 35.079 40.4329 35.0876 40.432V47.4129L32.2414 44.7139ZM38.4813 34.8298C37.8151 35.0538 37.277 35.538 37.0065 36.1581C36.7351 36.7782 36.7531 37.4819 37.0577 38.0894C37.2238 38.4197 37.0302 38.6564 36.9382 38.7428C36.8632 38.8157 36.6715 38.9443 36.4058 38.8957L36.197 38.8336C36.1106 38.7968 36.0195 38.777 35.9303 38.7509C35.8639 38.7311 35.7993 38.7041 35.732 38.6888C35.639 38.669 35.5431 38.6636 35.4482 38.6537C35.3713 38.6456 35.2964 38.6303 35.2195 38.6285C35.1274 38.6267 35.0363 38.6411 34.9452 38.6483C34.8664 38.6555 34.7867 38.6537 34.708 38.6681C34.54 38.6978 34.3748 38.7437 34.2145 38.8067C34.2145 38.8067 34.2135 38.8067 34.2126 38.8076C34.1708 38.8238 34.1357 38.8499 34.0949 38.8678C33.9772 38.9218 33.8586 38.9749 33.7513 39.0451C33.6232 39.1288 33.5065 39.2278 33.3973 39.3322C33.385 39.3439 33.3689 39.3529 33.3565 39.3655C33.1174 39.604 32.9304 39.8902 32.8118 40.2061C32.6846 40.5499 32.3705 40.5868 32.2414 40.5868C32.1124 40.5868 31.7982 40.5499 31.6692 40.2043C31.5505 39.8875 31.3636 39.6022 31.1244 39.3637C31.1149 39.3538 31.1026 39.3475 31.0922 39.3376C30.9802 39.2296 30.8606 39.1297 30.7287 39.0433C30.6262 38.9758 30.5114 38.9254 30.3984 38.8733C30.3538 38.8526 30.314 38.8238 30.2675 38.8058C30.2665 38.8058 30.2665 38.8049 30.2665 38.8049C30.2466 38.7968 30.2257 38.795 30.2058 38.7878C30.0672 38.7374 29.9268 38.6951 29.7835 38.669C29.6677 38.6474 29.5528 38.6429 29.4371 38.6366C29.3944 38.6348 29.3516 38.6249 29.3089 38.6249C29.3061 38.6249 29.3042 38.6258 29.3014 38.6258C28.9464 38.6249 28.6019 38.6906 28.3077 38.8265L28.0923 38.8904C27.8199 38.9488 27.6216 38.8157 27.5438 38.741C27.4517 38.6546 27.2581 38.4188 27.4242 38.0867C27.7279 37.4801 27.7468 36.7773 27.4754 36.1563C27.205 35.5371 26.6669 35.052 26.0006 34.828C25.6372 34.7074 25.5982 34.4095 25.5982 34.2871C25.5982 34.1647 25.6372 33.8668 26.0016 33.7444C26.6678 33.5203 27.2059 33.0361 27.4764 32.4161C27.7478 31.796 27.7298 31.0922 27.4251 30.4848C27.259 30.1545 27.4526 29.9178 27.5447 29.8314C27.6358 29.7441 27.8835 29.5623 28.2346 29.718C28.8733 30.006 29.6155 30.0258 30.2703 29.7666C30.9232 29.5101 31.4348 28.9999 31.6711 28.3681C31.7982 28.0243 32.1124 27.9874 32.2414 27.9874C32.3705 27.9874 32.6846 28.0243 32.8137 28.3699C33.051 29.0017 33.5606 29.5119 34.2145 29.7684C34.8674 30.0276 35.6105 30.0087 36.2511 29.7198C36.5984 29.5605 36.8499 29.7459 36.9401 29.8332C37.0321 29.9196 37.2257 30.1554 37.0596 30.4875C36.756 31.094 36.737 31.7969 37.0084 32.4179C37.2789 33.037 37.817 33.5221 38.4832 33.7462C38.8457 33.8668 38.8846 34.1647 38.8846 34.2871C38.8846 34.4095 38.8457 34.7074 38.4813 34.8298Z" fill="#4285F4"/>
</svg>
