<svg width="25" height="25" viewBox="0 0 25 25" fill="none" xmlns="http://www.w3.org/2000/svg">
<path d="M12.4999 0C5.60738 0 -0.00012207 5.6075 -0.00012207 12.5C-0.00012207 19.3925 5.60738 25 12.4999 25C19.3924 25 24.9999 19.3925 24.9999 12.5C24.9999 5.6075 19.3924 0 12.4999 0ZM12.4999 24.1667C6.06696 24.1667 0.833211 18.9329 0.833211 12.5C0.833211 6.06708 6.06696 0.833333 12.4999 0.833333C18.9328 0.833333 24.1665 6.06708 24.1665 12.5C24.1665 18.9329 18.9328 24.1667 12.4999 24.1667Z" fill="#1F1F1F"/>
<path d="M12.4998 2.49998C12.2698 2.49998 12.0832 2.68623 12.0832 2.91665V12.5H5.83317C5.60317 12.5 5.4165 12.6862 5.4165 12.9167C5.4165 13.1471 5.60317 13.3333 5.83317 13.3333H12.4998C12.7298 13.3333 12.9165 13.1471 12.9165 12.9167V2.91665C12.9165 2.68623 12.7298 2.49998 12.4998 2.49998Z" fill="#1F1F1F"/>
</svg>
