<svg width="46" height="60" viewBox="0 0 46 60" fill="none" xmlns="http://www.w3.org/2000/svg">
<path d="M29.176 49.999C27.246 49.999 25.676 51.569 25.676 53.499C25.676 55.429 27.246 56.999 29.176 56.999C31.106 56.999 32.676 55.429 32.676 53.499C32.676 51.569 31.105 49.999 29.176 49.999ZM29.176 54.999C28.349 54.999 27.676 54.326 27.676 53.499C27.676 52.672 28.349 51.999 29.176 51.999C30.003 51.999 30.676 52.672 30.676 53.499C30.676 54.326 30.003 54.999 29.176 54.999Z" fill="#1F1F1F"/>
<path d="M33.676 36.999C35.882 36.999 37.676 35.205 37.676 32.999C37.676 30.793 35.882 28.999 33.676 28.999C31.47 28.999 29.676 30.793 29.676 32.999C29.676 35.205 31.469 36.999 33.676 36.999ZM33.676 30.999C34.779 30.999 35.676 31.896 35.676 32.999C35.676 34.102 34.779 34.999 33.676 34.999C32.573 34.999 31.676 34.102 31.676 32.999C31.676 31.896 32.573 30.999 33.676 30.999Z" fill="#1F1F1F"/>
<path d="M9.676 11.999C9.932 11.999 10.188 11.901 10.383 11.706L12.383 9.706C12.774 9.315 12.774 8.683 12.383 8.292C11.992 7.901 11.36 7.901 10.969 8.292L8.969 10.292C8.578 10.683 8.578 11.315 8.969 11.706C9.164 11.901 9.42 11.999 9.676 11.999Z" fill="#1F1F1F"/>
<path d="M45.676 29.747C45.676 28.867 45.333 28.04 44.711 27.418L44.154 26.861C45.103 26.021 45.675 24.806 45.675 23.499C45.675 21.018 43.656 18.999 41.175 18.999C40.993 18.999 40.813 19.017 40.635 19.039C40.657 18.86 40.675 18.682 40.675 18.499C40.675 16.018 38.656 13.999 36.175 13.999C35.993 13.999 35.813 14.017 35.635 14.039C35.657 13.86 35.675 13.682 35.675 13.499C35.675 11.018 33.656 8.99899 31.175 8.99899C30.993 8.99899 30.813 9.01699 30.635 9.03899C30.657 8.85999 30.675 8.68199 30.675 8.49899C30.675 6.01799 28.656 3.99899 26.175 3.99899C24.867 3.99899 23.653 4.57199 22.813 5.51999L22.019 4.72599L18.256 0.962987C16.971 -0.322013 14.881 -0.322013 13.598 0.962987L1.286 13.275C0.00300336 14.56 0.00300336 16.649 1.286 17.934L5.049 21.697L9.959 26.607C8.603 27.383 7.676 28.828 7.676 30.499C7.676 32.062 8.479 33.44 9.693 34.247C9.754 34.328 9.825 34.408 9.92 34.489L20.676 45.204V47H18.676V60H36.676H44.676V47H42.676V43.97C44.589 42.349 45.676 40.018 45.676 37.499C45.676 35.759 45.133 34.069 44.14 32.647L44.711 32.076C45.333 31.454 45.676 30.627 45.676 29.747ZM43.676 23.499C43.676 24.267 43.322 24.978 42.739 25.446L39.228 21.935C39.696 21.352 40.408 20.998 41.175 20.998C42.554 20.999 43.676 22.12 43.676 23.499ZM38.676 18.499C38.676 19.267 38.322 19.978 37.739 20.446L34.228 16.935C34.696 16.352 35.408 15.998 36.175 15.998C37.554 15.999 38.676 17.12 38.676 18.499ZM33.676 13.499C33.676 14.267 33.322 14.978 32.739 15.446L29.228 11.935C29.696 11.352 30.408 10.998 31.175 10.998C32.554 10.999 33.676 12.12 33.676 13.499ZM26.176 5.99899C27.555 5.99899 28.676 7.11999 28.676 8.49899C28.676 9.26699 28.322 9.97799 27.739 10.446L24.228 6.93499C24.696 6.35299 25.408 5.99899 26.176 5.99899ZM2.7 16.521C2.196 16.016 2.196 15.195 2.7 14.69L15.012 2.37799C15.137 2.25299 15.283 2.15899 15.438 2.09599C15.508 2.06699 15.587 2.06799 15.661 2.05199C15.839 2.01399 16.015 2.01399 16.193 2.05199C16.267 2.06799 16.346 2.06699 16.416 2.09599C16.571 2.15899 16.716 2.25299 16.842 2.37799L19.191 4.72699L5.049 18.869L2.7 16.521ZM20.605 6.14099L21.783 7.31899L26.783 12.319L27.356 12.892L31.783 17.319L32.356 17.892L36.783 22.319L37.356 22.892L42.356 27.892L43.296 28.832C43.801 29.337 43.801 30.157 43.296 30.662L42.859 31.1L30.985 42.975C30.482 43.479 29.659 43.481 29.154 42.975L21.179 34.999H22.175C24.656 34.999 26.675 32.98 26.675 30.499C26.675 28.018 24.656 25.999 22.175 25.999H12.178L6.462 20.283L20.605 6.14099ZM11.636 28.061L12.051 28.014C12.092 28.008 12.133 27.999 12.175 27.999H22.175C23.554 27.999 24.675 29.12 24.675 30.499C24.675 31.878 23.554 32.999 22.175 32.999H19.179H16.351H12.175C10.796 32.999 9.675 31.878 9.675 30.499C9.676 29.306 10.517 28.309 11.636 28.061ZM20.676 57.999V48.999H29.102C32.175 48.999 34.676 51.5 34.676 54.573V57.999H20.676ZM42.676 57.999H36.676V54.573C36.676 52.367 35.722 50.385 34.212 48.999H42.676V57.999ZM42.701 34.087C43.335 35.108 43.676 36.289 43.676 37.499C43.676 39.554 42.728 41.445 41.074 42.69L40.676 42.99V46.999H29.101H22.675V44.281L22.322 43.982C22.277 43.943 22.229 43.907 22.142 43.842L13.265 34.998H18.35L27.739 44.388C28.382 45.03 29.225 45.351 30.068 45.351C30.912 45.351 31.756 45.03 32.398 44.388L42.701 34.087Z" fill="#1F1F1F"/>
</svg>
