<svg width="60" height="60" viewBox="0 0 60 60" fill="none" xmlns="http://www.w3.org/2000/svg">
<path d="M29.9999 26C33.8599 26 36.9999 22.859 36.9999 19C36.9999 15.141 33.8599 12 29.9999 12C26.1399 12 22.9999 15.141 22.9999 19C22.9999 22.859 26.1399 26 29.9999 26ZM29.9999 14C32.7569 14 34.9999 16.243 34.9999 19C34.9999 21.757 32.7569 24 29.9999 24C27.2429 24 24.9999 21.757 24.9999 19C24.9999 16.243 27.2429 14 29.9999 14Z" fill="#1F1F1F"/>
<path d="M29.8229 54.757L45.1639 32.6C50.9179 24.929 50.0859 12.32 43.3829 5.618C39.7609 1.995 34.9449 0 29.8229 0C24.7009 0 19.8849 1.995 16.2629 5.617C9.55991 12.319 8.72791 24.928 14.4589 32.569L29.8229 54.757ZM17.6769 7.031C20.9219 3.787 25.2349 2 29.8229 2C34.4109 2 38.7239 3.787 41.9689 7.031C48.0189 13.08 48.7639 24.468 43.5419 31.43L29.8229 51.243L16.0819 31.4C10.8819 24.468 11.6279 13.08 17.6769 7.031Z" fill="#1F1F1F"/>
<path d="M42.1169 43.0068C41.5669 42.9398 41.0709 43.3338 41.0069 43.8828C40.9429 44.4318 41.3349 44.9288 41.8829 44.9928C52.3989 46.2308 57.9999 49.5668 57.9999 51.4998C57.9999 54.2138 47.3479 57.9998 29.9999 57.9998C12.6519 57.9998 1.99988 54.2138 1.99988 51.4998C1.99988 49.5668 7.60088 46.2308 18.1169 44.9928C18.6649 44.9288 19.0569 44.4308 18.9929 43.8828C18.9279 43.3338 18.4319 42.9378 17.8829 43.0068C7.35388 44.2468 -0.00012207 47.7388 -0.00012207 51.4998C-0.00012207 55.7238 10.3049 59.9998 29.9999 59.9998C49.6949 59.9998 59.9999 55.7238 59.9999 51.4998C59.9999 47.7388 52.6459 44.2468 42.1169 43.0068Z" fill="#1F1F1F"/>
</svg>
