<svg width="192" height="33" viewBox="0 0 192 33" fill="none" xmlns="http://www.w3.org/2000/svg">
<path d="M37.2166 0H16.0291C7.19436 0 -0.00012207 7.26206 -0.00012207 16.1798C-0.00012207 25.0975 7.19436 32.3596 16.0291 32.3596H37.2166C46.0627 32.3596 53.2459 25.0975 53.2459 16.1798C53.2459 7.26206 46.0514 0 37.2166 0ZM37.2166 29.4935H16.0291C8.75543 29.4935 2.83921 23.5218 2.83921 16.1798C2.83921 8.83779 8.75543 2.866 16.0291 2.866H37.2166C44.4903 2.866 50.4065 8.83779 50.4065 16.1798C50.4065 23.5218 44.4903 29.4935 37.2166 29.4935Z" fill="#F2F2F2"/>
<path d="M8.85728 8.51805C6.83242 10.5619 5.71252 13.2909 5.71252 16.1797C5.71252 22.1515 10.5315 27.0157 16.459 27.0157H37.2167C43.1329 27.0157 47.9518 22.1515 47.9518 16.1797C47.9518 10.208 43.1329 5.34375 37.2167 5.34375H16.459C13.5857 5.34375 10.8935 6.47417 8.85728 8.51805ZM37.2167 7.85578C41.7641 7.85578 45.4632 11.5896 45.4632 16.1797C45.4632 20.7699 41.7641 24.5037 37.2167 24.5037C32.6692 24.5037 28.9702 20.7699 28.9702 16.1797C28.9589 11.5896 32.6579 7.85578 37.2167 7.85578ZM26.4702 16.1797C26.4702 19.9592 28.3932 23.282 31.3004 25.2231H16.459C11.5156 25.2231 7.48852 21.1696 7.48852 16.1797C7.48852 13.7591 8.41611 11.4868 10.1129 9.78548C11.8097 8.07273 14.0608 7.13643 16.459 7.13643H31.3118C28.3932 9.07755 26.4702 12.4117 26.4702 16.1797Z" fill="#F2F2F2"/>
<path d="M11.4024 16.1795C11.4024 19.4794 14.0607 22.1627 17.3299 22.1627C20.5991 22.1627 23.2575 19.4794 23.2575 16.1795C23.2575 12.8796 20.5991 10.1963 17.3299 10.1963C14.0607 10.1963 11.4024 12.8796 11.4024 16.1795ZM17.3299 12.0004C19.615 12.0004 21.4815 13.8844 21.4815 16.1909C21.4815 18.4974 19.615 20.3814 17.3299 20.3814C15.0449 20.3814 13.1784 18.4974 13.1784 16.1909C13.1784 13.8844 15.0336 12.0004 17.3299 12.0004Z" fill="#F2F2F2"/>
<path d="M78.7207 13.9074V4.23604C78.7207 3.37966 78.0872 2.74023 77.2728 2.74023C76.4244 2.74023 75.8248 3.37966 75.8248 4.23604V14.0901C75.8248 17.0474 74.1054 18.8972 71.3339 18.8972C68.5398 18.8972 66.7978 17.0474 66.7978 14.0901V4.23604C66.7978 3.37966 66.1982 2.74023 65.3498 2.74023C64.524 2.74023 63.9019 3.37966 63.9019 4.23604V13.8959C63.9019 18.5318 66.8317 21.5691 71.3452 21.5691C75.7683 21.5805 78.7207 18.5432 78.7207 13.9074Z" fill="#F2F2F2"/>
<path d="M94.5576 11.11L92.5327 10.1737C90.5644 9.23742 90.0214 8.71218 90.0214 7.58176C90.0214 6.2344 91.1187 5.37803 92.759 5.37803C94.0712 5.37803 95.1345 5.9832 96.0168 6.87383C96.2883 7.12503 96.5937 7.26205 96.8879 7.26205C97.5666 7.26205 98.234 6.65688 98.234 5.96036C98.234 5.62923 98.1209 5.27526 97.7928 4.90987C96.7521 3.7452 95.1119 2.71755 92.759 2.75181C89.5011 2.75181 87.069 4.81853 87.069 7.69595C87.069 9.87685 88.4038 11.3955 91.2771 12.7543L93.2793 13.6906C95.2815 14.6269 95.9376 15.232 95.9376 16.4196C95.9376 17.9382 94.7386 18.9658 92.8155 18.9658C91.0395 18.9658 89.6142 18.0295 88.63 16.842C88.3812 16.568 88.0871 16.4538 87.759 16.4538C87.0464 16.4538 86.4242 17.0019 86.4242 17.7783C86.4242 18.1323 86.5939 18.4977 86.8654 18.7946C88.2567 20.5073 90.6097 21.5806 92.8608 21.5806C96.3675 21.5806 98.9014 19.4797 98.9014 16.3054C98.8788 13.9874 97.5666 12.5259 94.5576 11.11Z" fill="#F2F2F2"/>
<path d="M113.596 18.6572H105.496V12.8909H111.107C111.842 12.8909 112.397 12.3429 112.397 11.6235C112.397 10.9042 111.854 10.3561 111.107 10.3561H105.496V5.67456H113.268C114.037 5.67456 114.614 5.12648 114.614 4.37287C114.614 3.63067 114.037 3.04834 113.268 3.04834H103.992C103.2 3.04834 102.6 3.65351 102.6 4.45279V19.8675C102.6 20.6668 103.2 21.272 103.992 21.272H113.596C114.365 21.272 114.931 20.6897 114.931 19.9475C114.942 19.2053 114.365 18.6572 113.596 18.6572Z" fill="#F2F2F2"/>
<path d="M132.091 20.2558C132.091 19.9018 131.955 19.5364 131.65 19.1482L127.679 13.656C129.648 12.7768 130.858 10.9498 130.858 8.6319C130.858 5.28633 128.392 3.04834 124.727 3.04834H119.636C118.788 3.04834 118.155 3.68777 118.155 4.54414V20.0959C118.155 20.9523 118.788 21.5917 119.602 21.5917C120.428 21.5917 121.05 20.9523 121.05 20.0959V14.2383H124.716L129.444 20.8381C129.795 21.3291 130.236 21.5803 130.734 21.5803C131.491 21.5803 132.091 20.998 132.091 20.2558ZM124.682 11.6349H121.073V5.65172H124.682C126.65 5.65172 127.883 6.83923 127.883 8.66616C127.883 10.4817 126.673 11.6349 124.682 11.6349Z" fill="#F2F2F2"/>
<path d="M149.41 4.15641C149.41 3.37996 148.776 2.75195 147.985 2.75195C147.328 2.75195 146.887 3.10592 146.616 3.76818L141.277 16.9906L135.915 3.76818C135.666 3.10592 135.202 2.75195 134.546 2.75195C133.754 2.75195 133.12 3.39138 133.12 4.15641C133.12 4.40761 133.177 4.68165 133.335 4.98995L139.874 20.5874C140.145 21.2497 140.609 21.5808 141.243 21.5808C141.899 21.5808 142.362 21.2497 142.634 20.5874L149.172 4.98995C149.331 4.68165 149.41 4.40761 149.41 4.15641Z" fill="#F2F2F2"/>
<path d="M155.507 20.0847V4.23604C155.507 3.37966 154.908 2.74023 154.059 2.74023C153.211 2.74023 152.611 3.37966 152.611 4.23604V20.0847C152.611 20.9411 153.211 21.5805 154.059 21.5805C154.908 21.5805 155.507 20.9411 155.507 20.0847Z" fill="#F2F2F2"/>
<path d="M175.937 17.2415C175.937 16.5222 175.337 15.917 174.591 15.917C174.127 15.917 173.742 16.1111 173.414 16.4993C172.102 18.0751 170.428 18.8972 168.459 18.8972C164.715 18.8972 161.944 16.0198 161.944 12.1604C161.944 8.28954 164.704 5.42354 168.459 5.42354C170.462 5.42354 172.125 6.22283 173.437 7.82139C173.765 8.20961 174.149 8.40373 174.591 8.40373C175.326 8.40373 175.937 7.79855 175.937 7.0792C175.937 6.69098 175.801 6.35984 175.473 5.91453C173.833 3.92774 171.231 2.74023 168.437 2.74023C163.098 2.74023 158.946 6.85083 158.946 12.1604C158.946 17.4699 163.109 21.5805 168.437 21.5805C171.254 21.5805 173.855 20.393 175.439 18.4062C175.801 17.938 175.937 17.6069 175.937 17.2415Z" fill="#F2F2F2"/>
<path d="M192 19.9475C192 19.2053 191.423 18.6458 190.665 18.6458H182.566V12.8795H188.176C188.912 12.8795 189.466 12.3314 189.466 11.6121C189.466 10.8927 188.923 10.3447 188.176 10.3447H182.566V5.67456H190.337C191.106 5.67456 191.683 5.12648 191.683 4.37287C191.683 3.63067 191.106 3.04834 190.337 3.04834H181.061C180.269 3.04834 179.67 3.65351 179.67 4.45279V19.8675C179.67 20.6668 180.269 21.272 181.061 21.272H190.665C191.423 21.272 192 20.7011 192 19.9475Z" fill="#F2F2F2"/>
<path d="M65.5194 26.4907C65.8362 26.4907 66.0963 26.6163 66.3 26.8675C66.3565 26.9245 66.4131 26.9588 66.481 26.9588C66.5941 26.9588 66.6846 26.8675 66.6846 26.7533C66.6846 26.6962 66.6619 26.6391 66.6167 26.5706C66.3565 26.2623 65.9606 26.0796 65.5194 26.0796C64.6823 26.0796 64.0375 26.719 64.0375 27.5526C64.0375 28.3747 64.6823 29.0255 65.5194 29.0255C65.9606 29.0255 66.3678 28.8428 66.6167 28.5345C66.6733 28.466 66.6959 28.4089 66.6959 28.3518C66.6959 28.2377 66.6054 28.1463 66.4923 28.1463C66.4244 28.1463 66.3565 28.1806 66.3113 28.2377C66.1077 28.4889 65.8475 28.6145 65.542 28.6145C64.9538 28.6145 64.524 28.1692 64.524 27.564C64.5126 26.936 64.9425 26.4907 65.5194 26.4907Z" fill="#F2F2F2"/>
<path d="M69.8293 28.5571H68.5624V27.6551H69.4334C69.5465 27.6551 69.637 27.5637 69.637 27.4609C69.637 27.3582 69.5465 27.2668 69.4334 27.2668H68.5624V26.5361H69.7728C69.8972 26.5361 69.9877 26.4447 69.9877 26.3305C69.9877 26.2163 69.8972 26.125 69.7728 26.125H68.3249C68.2004 26.125 68.1099 26.2163 68.1099 26.3419V28.7512C68.1099 28.8768 68.2004 28.9682 68.3249 28.9682H69.818C69.9424 28.9682 70.0216 28.8768 70.0216 28.7626C70.0216 28.6484 69.9538 28.5571 69.8293 28.5571Z" fill="#F2F2F2"/>
<path d="M72.4198 26.125H71.628C71.4922 26.125 71.3904 26.2278 71.3904 26.3648V28.7855C71.3904 28.9225 71.4923 29.0138 71.6167 29.0138C71.7411 29.0138 71.8429 28.9111 71.8429 28.7855V27.872H72.4198C72.9854 27.872 73.3701 27.518 73.3701 26.9928C73.3814 26.4675 72.9968 26.125 72.4198 26.125ZM72.4198 27.4609H71.8542V26.5246H72.4198C72.7253 26.5246 72.9176 26.7073 72.9176 26.9928C72.9176 27.2782 72.7253 27.4609 72.4198 27.4609Z" fill="#F2F2F2"/>
<path d="M76.3338 27.4153C76.4809 27.2897 76.5714 27.0956 76.5714 26.8786C76.5714 26.4219 76.232 26.125 75.723 26.125H74.9764C74.8406 26.125 74.7388 26.2278 74.7388 26.3648V28.7284C74.7388 28.8654 74.8406 28.9682 74.9764 28.9682H75.9492C76.4922 28.9682 76.8655 28.637 76.8655 28.146C76.8542 27.7807 76.6619 27.518 76.3338 27.4153ZM75.18 26.5246H75.6777C75.9492 26.5246 76.1076 26.6617 76.1076 26.9014C76.1076 27.1412 75.9492 27.2897 75.6777 27.2897H75.18V26.5246ZM75.904 28.5685H75.18V27.6893H75.904C76.2094 27.6893 76.3904 27.8606 76.3904 28.1346C76.3904 28.3972 76.2094 28.5685 75.904 28.5685Z" fill="#F2F2F2"/>
<path d="M80.3609 26.0796C80.2591 26.0796 80.2138 26.1253 80.1573 26.1938L78.6641 28.1577V26.308C78.6641 26.1709 78.5736 26.0796 78.4378 26.0796C78.3134 26.0796 78.2116 26.1824 78.2116 26.308V28.7857C78.2116 28.9113 78.3134 29.0141 78.4378 29.0141C78.517 29.0141 78.5736 28.9913 78.6188 28.9228L80.1233 26.9474V28.7857C80.1233 28.9228 80.2252 29.0141 80.3496 29.0141C80.4853 29.0141 80.5758 28.9113 80.5758 28.7857V26.308C80.5871 26.1709 80.4853 26.0796 80.3609 26.0796Z" fill="#F2F2F2"/>
<path d="M83.4603 26.4907C83.777 26.4907 84.0372 26.6163 84.2408 26.8675C84.2974 26.9245 84.3539 26.9588 84.4218 26.9588C84.5349 26.9588 84.6254 26.8675 84.6254 26.7533C84.6254 26.6962 84.6028 26.6391 84.5576 26.5706C84.2974 26.2623 83.9015 26.0796 83.4603 26.0796C82.6232 26.0796 81.9784 26.719 81.9784 27.5526C81.9784 28.3747 82.6232 29.0255 83.4603 29.0255C83.9015 29.0255 84.3087 28.8428 84.5576 28.5345C84.6141 28.466 84.6367 28.4089 84.6367 28.3518C84.6367 28.2377 84.5462 28.1463 84.4331 28.1463C84.3652 28.1463 84.2974 28.1806 84.2521 28.2377C84.0485 28.4889 83.7883 28.6145 83.4829 28.6145C82.8947 28.6145 82.4648 28.1692 82.4648 27.564C82.4422 26.936 82.872 26.4907 83.4603 26.4907Z" fill="#F2F2F2"/>
<path d="M88.1438 26.0796C88.008 26.0796 87.9175 26.1824 87.9175 26.308V27.2557H86.5035V26.308C86.5035 26.1709 86.413 26.0796 86.2773 26.0796C86.1415 26.0796 86.051 26.1824 86.051 26.308V28.7857C86.051 28.9228 86.1528 29.0141 86.2773 29.0141C86.4017 29.0141 86.5035 28.9113 86.5035 28.7857V27.6667H87.9175V28.7857C87.9175 28.9228 88.0193 29.0141 88.1438 29.0141C88.2682 29.0141 88.37 28.9113 88.37 28.7857V26.308C88.37 26.1709 88.2795 26.0796 88.1438 26.0796Z" fill="#F2F2F2"/>
<path d="M92.8269 26.0796C92.6911 26.0796 92.6006 26.1824 92.6006 26.308V28.7857C92.6006 28.9228 92.6911 29.0141 92.8269 29.0141C92.9627 29.0141 93.0532 28.9113 93.0532 28.7857V26.308C93.0532 26.1709 92.9513 26.0796 92.8269 26.0796Z" fill="#F2F2F2"/>
<path d="M91.0735 27.1758H90.3947V26.308C90.3947 26.1709 90.3042 26.0796 90.1685 26.0796C90.0441 26.0796 89.9423 26.1824 89.9423 26.308V28.7286C89.9423 28.8657 90.0441 28.9684 90.1798 28.9684H91.0848C91.6843 28.9684 92.0689 28.603 92.0689 28.0778C92.0576 27.5526 91.673 27.1758 91.0735 27.1758ZM91.0735 28.5574H90.3947V27.5754H91.0735C91.4128 27.5754 91.5938 27.7809 91.5938 28.0664C91.5938 28.3518 91.4015 28.5574 91.0735 28.5574Z" fill="#F2F2F2"/>
<path d="M96.7521 26.0796C96.6503 26.0796 96.6051 26.1253 96.5485 26.1938L95.0553 28.1577V26.308C95.0553 26.1709 94.9648 26.0796 94.8291 26.0796C94.7047 26.0796 94.6028 26.1824 94.6028 26.308V28.7857C94.6028 28.9113 94.7047 29.0141 94.8291 29.0141C94.9083 29.0141 94.9648 28.9913 95.0101 28.9228L96.5146 26.9474V28.7857C96.5146 28.9228 96.6164 29.0141 96.7408 29.0141C96.8766 29.0141 96.9671 28.9113 96.9671 28.7857V26.308C96.9671 26.1709 96.8766 26.0796 96.7521 26.0796Z" fill="#F2F2F2"/>
<path d="M102.895 28.5574H102.77V26.308C102.77 26.1709 102.668 26.0796 102.544 26.0796C102.408 26.0796 102.318 26.1824 102.318 26.308V28.5574H101.028V26.308C101.028 26.1709 100.938 26.0796 100.802 26.0796C100.677 26.0796 100.576 26.1824 100.576 26.308V28.7286C100.576 28.8657 100.677 28.9684 100.813 28.9684H102.68V29.3909C102.68 29.5279 102.77 29.6193 102.906 29.6193C103.03 29.6193 103.132 29.5165 103.132 29.3909V28.7972C103.132 28.6601 103.03 28.5574 102.895 28.5574Z" fill="#F2F2F2"/>
<path d="M106.175 28.5571H104.908V27.6551H105.779C105.892 27.6551 105.983 27.5637 105.983 27.4609C105.983 27.3582 105.892 27.2668 105.779 27.2668H104.908V26.5361H106.118C106.243 26.5361 106.322 26.4447 106.322 26.3305C106.322 26.2163 106.232 26.125 106.118 26.125H104.671C104.546 26.125 104.456 26.2163 104.456 26.3419V28.7512C104.456 28.8768 104.546 28.9682 104.671 28.9682H106.164C106.288 28.9682 106.367 28.8768 106.367 28.7626C106.367 28.6484 106.288 28.5571 106.175 28.5571Z" fill="#F2F2F2"/>
<path d="M109.829 26.0796C109.693 26.0796 109.603 26.1824 109.603 26.308V27.2557H108.189V26.308C108.189 26.1709 108.098 26.0796 107.962 26.0796C107.827 26.0796 107.736 26.1824 107.736 26.308V28.7857C107.736 28.9228 107.838 29.0141 107.962 29.0141C108.087 29.0141 108.189 28.9113 108.189 28.7857V27.6667H109.603V28.7857C109.603 28.9228 109.704 29.0141 109.829 29.0141C109.953 29.0141 110.055 28.9113 110.055 28.7857V26.308C110.055 26.1709 109.965 26.0796 109.829 26.0796Z" fill="#F2F2F2"/>
<path d="M113.494 26.125H111.514C111.39 26.125 111.311 26.2163 111.311 26.3305C111.311 26.4447 111.401 26.5361 111.514 26.5361H112.272V28.7855C112.272 28.9225 112.374 29.0138 112.499 29.0138C112.623 29.0138 112.725 28.9111 112.725 28.7855V26.5361H113.494C113.618 26.5361 113.698 26.4447 113.698 26.3305C113.698 26.2163 113.607 26.125 113.494 26.125Z" fill="#F2F2F2"/>
<path d="M115.983 26.125H115.191C115.055 26.125 114.953 26.2278 114.953 26.3648V28.7855C114.953 28.9225 115.055 29.0138 115.179 29.0138C115.304 29.0138 115.406 28.9111 115.406 28.7855V27.872H115.983C116.548 27.872 116.944 27.518 116.944 26.9928C116.933 26.4675 116.548 26.125 115.983 26.125ZM115.971 27.4609H115.406V26.5246H115.971C116.277 26.5246 116.469 26.7073 116.469 26.9928C116.469 27.2782 116.277 27.4609 115.971 27.4609Z" fill="#F2F2F2"/>
<path d="M122.351 26.0796C122.25 26.0796 122.204 26.1253 122.148 26.1938L120.655 28.1577V26.308C120.655 26.1709 120.564 26.0796 120.428 26.0796C120.304 26.0796 120.202 26.1824 120.202 26.308V28.7857C120.202 28.9113 120.304 29.0141 120.428 29.0141C120.508 29.0141 120.564 28.9913 120.609 28.9228L122.114 26.9474V28.7857C122.114 28.9228 122.216 29.0141 122.34 29.0141C122.476 29.0141 122.566 28.9113 122.566 28.7857V26.308C122.578 26.1709 122.476 26.0796 122.351 26.0796Z" fill="#F2F2F2"/>
<path d="M128.63 26.0796C128.528 26.0796 128.471 26.1253 128.381 26.2623L127.51 27.6439L126.639 26.2623C126.548 26.1253 126.492 26.0796 126.39 26.0796C126.265 26.0796 126.175 26.1824 126.175 26.308V28.7857C126.175 28.9228 126.277 29.0141 126.401 29.0141C126.526 29.0141 126.627 28.9113 126.627 28.7857V27.0502L127.283 28.0892C127.351 28.192 127.419 28.2377 127.51 28.2377C127.6 28.2377 127.668 28.192 127.736 28.0892L128.392 27.0502V28.7857C128.392 28.9228 128.494 29.0141 128.618 29.0141C128.743 29.0141 128.845 28.9113 128.845 28.7857V26.308C128.845 26.1709 128.754 26.0796 128.63 26.0796Z" fill="#F2F2F2"/>
<path d="M131.684 26.2282C131.639 26.1255 131.571 26.0684 131.469 26.0684C131.367 26.0684 131.299 26.1255 131.254 26.2282L130.236 28.6603C130.213 28.7174 130.202 28.7517 130.202 28.7859C130.202 28.9115 130.304 29.0029 130.428 29.0029C130.53 29.0029 130.598 28.9458 130.643 28.843L130.813 28.4434H132.136L132.317 28.843C132.363 28.9458 132.43 29.0029 132.532 29.0029C132.657 29.0029 132.758 28.9001 132.758 28.7859C132.758 28.7517 132.747 28.706 132.725 28.6603L131.684 26.2282ZM130.96 28.0666L131.469 26.742L131.967 28.0666H130.96Z" fill="#F2F2F2"/>
<path d="M135.643 26.125H134.32C134.184 26.125 134.082 26.2278 134.082 26.3648V28.7855C134.082 28.9225 134.184 29.0138 134.308 29.0138C134.444 29.0138 134.534 28.9111 134.534 28.7855V26.5361H135.643C135.767 26.5361 135.858 26.4447 135.858 26.3305C135.858 26.2163 135.767 26.125 135.643 26.125Z" fill="#F2F2F2"/>
<path d="M137.985 26.2282C137.94 26.1255 137.872 26.0684 137.77 26.0684C137.668 26.0684 137.6 26.1255 137.555 26.2282L136.537 28.6603C136.514 28.7174 136.503 28.7517 136.503 28.7859C136.503 28.9115 136.605 29.0029 136.729 29.0029C136.831 29.0029 136.899 28.9458 136.944 28.843L137.114 28.4434H138.437L138.607 28.843C138.652 28.9458 138.72 29.0029 138.822 29.0029C138.946 29.0029 139.048 28.9001 139.048 28.7859C139.048 28.7517 139.037 28.706 139.014 28.6603L137.985 26.2282ZM137.261 28.0666L137.77 26.742L138.268 28.0666H137.261Z" fill="#F2F2F2"/>
<path d="M141.853 27.4386C142.023 27.3015 142.125 27.1074 142.125 26.8676C142.125 26.4109 141.74 26.0684 141.209 26.0684C140.869 26.0684 140.553 26.2168 140.36 26.468C140.315 26.5251 140.304 26.5593 140.304 26.6164C140.304 26.7306 140.394 26.822 140.519 26.822C140.575 26.822 140.632 26.7991 140.677 26.742C140.824 26.5822 141.016 26.4908 141.22 26.4908C141.491 26.4908 141.672 26.6507 141.672 26.9019C141.672 27.1417 141.503 27.2901 141.243 27.2901H140.96C140.847 27.2901 140.756 27.3701 140.756 27.4842C140.756 27.5984 140.847 27.6783 140.96 27.6783H141.356C141.65 27.6783 141.842 27.8496 141.842 28.1122C141.842 28.3977 141.605 28.5918 141.254 28.5918C141.005 28.5918 140.79 28.489 140.598 28.2721C140.541 28.215 140.496 28.1922 140.439 28.1922C140.326 28.1922 140.224 28.2835 140.224 28.3977C140.224 28.4434 140.247 28.489 140.281 28.5347C140.507 28.8316 140.858 29.0029 141.254 29.0029C141.853 29.0029 142.295 28.6375 142.295 28.1237C142.306 27.8154 142.136 27.5642 141.853 27.4386Z" fill="#F2F2F2"/>
<path d="M145.835 26.0796C145.733 26.0796 145.688 26.1253 145.632 26.1938L144.138 28.1577V26.308C144.138 26.1709 144.048 26.0796 143.912 26.0796C143.788 26.0796 143.686 26.1824 143.686 26.308V28.7857C143.686 28.9113 143.788 29.0141 143.912 29.0141C143.991 29.0141 144.048 28.9913 144.093 28.9228L145.598 26.9474V28.7857C145.598 28.9228 145.7 29.0141 145.824 29.0141C145.96 29.0141 146.05 28.9113 146.05 28.7857V26.308C146.062 26.1709 145.96 26.0796 145.835 26.0796Z" fill="#F2F2F2"/>
<path d="M149.715 26.0796C149.58 26.0796 149.489 26.1824 149.489 26.308V27.2557H148.075V26.308C148.075 26.1709 147.985 26.0796 147.849 26.0796C147.713 26.0796 147.623 26.1824 147.623 26.308V28.7857C147.623 28.9228 147.724 29.0141 147.849 29.0141C147.973 29.0141 148.075 28.9113 148.075 28.7857V27.6667H149.489V28.7857C149.489 28.9228 149.591 29.0141 149.715 29.0141C149.84 29.0141 149.942 28.9113 149.942 28.7857V26.308C149.942 26.1709 149.851 26.0796 149.715 26.0796Z" fill="#F2F2F2"/>
<path d="M154.817 26.2282C154.772 26.1255 154.704 26.0684 154.602 26.0684C154.5 26.0684 154.432 26.1255 154.387 26.2282L153.369 28.6603C153.346 28.7174 153.335 28.7517 153.335 28.7859C153.335 28.9115 153.437 29.0029 153.561 29.0029C153.663 29.0029 153.742 28.9458 153.776 28.843L153.946 28.4434H155.27L155.451 28.843C155.496 28.9458 155.564 29.0029 155.665 29.0029C155.79 29.0029 155.892 28.9001 155.892 28.7859C155.892 28.7517 155.88 28.706 155.858 28.6603L154.817 26.2282ZM154.093 28.0666L154.602 26.742L155.1 28.0666H154.093Z" fill="#F2F2F2"/>
<path d="M157.453 26.0796C157.317 26.0796 157.227 26.1824 157.227 26.308V28.7857C157.227 28.9228 157.328 29.0141 157.453 29.0141C157.577 29.0141 157.679 28.9113 157.679 28.7857V26.308C157.679 26.1709 157.577 26.0796 157.453 26.0796Z" fill="#F2F2F2"/>
<path d="M158.279 27.4498L159.263 26.4564C159.319 26.3993 159.342 26.3536 159.342 26.2851C159.342 26.1709 159.251 26.0796 159.138 26.0796C159.07 26.0796 159.025 26.1024 158.969 26.1595L157.849 27.3014C157.803 27.347 157.781 27.4041 157.781 27.4498C157.781 27.5069 157.803 27.5526 157.849 27.6097L159.059 28.9228C159.116 28.9799 159.172 29.0141 159.24 29.0141C159.353 29.0141 159.455 28.9228 159.455 28.8086C159.455 28.7515 159.432 28.7058 159.387 28.6601L158.279 27.4498Z" fill="#F2F2F2"/>
<path d="M161.932 26.4907C162.249 26.4907 162.509 26.6163 162.713 26.8675C162.769 26.9245 162.826 26.9588 162.894 26.9588C163.007 26.9588 163.098 26.8675 163.098 26.7533C163.098 26.6962 163.075 26.6391 163.03 26.5706C162.769 26.2623 162.374 26.0796 161.932 26.0796C161.095 26.0796 160.451 26.719 160.451 27.5526C160.451 28.3747 161.095 29.0255 161.932 29.0255C162.374 29.0255 162.781 28.8428 163.03 28.5345C163.086 28.466 163.109 28.4089 163.109 28.3518C163.109 28.2377 163.018 28.1463 162.905 28.1463C162.837 28.1463 162.769 28.1806 162.724 28.2377C162.521 28.4889 162.26 28.6145 161.955 28.6145C161.367 28.6145 160.937 28.1692 160.937 27.564C160.914 26.936 161.344 26.4907 161.932 26.4907Z" fill="#F2F2F2"/>
<path d="M166.242 28.5571H164.975V27.6551H165.846C165.959 27.6551 166.05 27.5637 166.05 27.4609C166.05 27.3582 165.971 27.2668 165.846 27.2668H164.975V26.5361H166.186C166.31 26.5361 166.389 26.4447 166.389 26.3305C166.389 26.2163 166.299 26.125 166.186 26.125H164.738C164.613 26.125 164.523 26.2163 164.523 26.3419V28.7512C164.523 28.8768 164.613 28.9682 164.738 28.9682H166.231C166.355 28.9682 166.435 28.8768 166.435 28.7626C166.435 28.6484 166.355 28.5571 166.242 28.5571Z" fill="#F2F2F2"/>
<path d="M169.025 26.4907C169.342 26.4907 169.602 26.6163 169.806 26.8675C169.862 26.9245 169.919 26.9588 169.987 26.9588C170.1 26.9588 170.202 26.8675 170.202 26.7533C170.202 26.6962 170.179 26.6391 170.134 26.5706C169.874 26.2623 169.478 26.0796 169.036 26.0796C168.199 26.0796 167.555 26.719 167.555 27.5526C167.555 28.3747 168.199 29.0255 169.036 29.0255C169.478 29.0255 169.885 28.8428 170.134 28.5345C170.19 28.466 170.213 28.4089 170.213 28.3518C170.213 28.2377 170.122 28.1463 169.998 28.1463C169.93 28.1463 169.862 28.1806 169.817 28.2377C169.613 28.4889 169.353 28.6145 169.048 28.6145C168.46 28.6145 168.03 28.1692 168.03 27.564C168.018 26.936 168.448 26.4907 169.025 26.4907Z" fill="#F2F2F2"/>
<path d="M172.916 26.4907C173.233 26.4907 173.493 26.6163 173.697 26.8675C173.753 26.9245 173.81 26.9588 173.878 26.9588C173.991 26.9588 174.081 26.8675 174.081 26.7533C174.081 26.6962 174.059 26.6391 174.014 26.5706C173.753 26.2623 173.357 26.0796 172.916 26.0796C172.079 26.0796 171.434 26.719 171.434 27.5526C171.434 28.3747 172.079 29.0255 172.916 29.0255C173.357 29.0255 173.765 28.8428 174.014 28.5345C174.07 28.466 174.093 28.4089 174.093 28.3518C174.093 28.2377 174.002 28.1463 173.889 28.1463C173.821 28.1463 173.753 28.1806 173.708 28.2377C173.505 28.4889 173.244 28.6145 172.939 28.6145C172.351 28.6145 171.921 28.1692 171.921 27.564C171.898 26.936 172.328 26.4907 172.916 26.4907Z" fill="#F2F2F2"/>
<path d="M177.385 26.1133C177.294 26.1133 177.204 26.1704 177.17 26.2503L176.502 27.7689L175.767 26.2503C175.71 26.159 175.642 26.1133 175.552 26.1133C175.428 26.1133 175.326 26.216 175.326 26.3416C175.326 26.3759 175.337 26.4216 175.36 26.4672L176.253 28.2599V28.2713C176.152 28.4883 176.016 28.5796 175.733 28.5796C175.676 28.5796 175.642 28.5796 175.609 28.5796C175.484 28.5796 175.394 28.671 175.394 28.7852C175.394 28.8765 175.45 28.945 175.529 28.9793C175.597 29.0021 175.688 29.0135 175.801 29.0135C176.219 29.0135 176.502 28.8194 176.694 28.4084L177.577 26.4672C177.599 26.4216 177.611 26.3759 177.611 26.3416C177.611 26.216 177.509 26.1133 177.385 26.1133Z" fill="#F2F2F2"/>
<path d="M179.817 26.2282C179.772 26.1255 179.704 26.0684 179.602 26.0684C179.5 26.0684 179.432 26.1255 179.387 26.2282L178.369 28.6603C178.346 28.7174 178.335 28.7517 178.335 28.7859C178.335 28.9115 178.437 29.0029 178.561 29.0029C178.663 29.0029 178.731 28.9458 178.776 28.843L178.946 28.4434H180.269L180.439 28.843C180.484 28.9458 180.552 29.0029 180.654 29.0029C180.778 29.0029 180.88 28.9001 180.88 28.7859C180.88 28.7517 180.869 28.706 180.846 28.6603L179.817 26.2282ZM179.093 28.0666L179.602 26.742L180.1 28.0666H179.093Z" fill="#F2F2F2"/>
<path d="M183.244 26.125H182.452C182.317 26.125 182.215 26.2278 182.215 26.3648V28.7855C182.215 28.9225 182.317 29.0138 182.441 29.0138C182.566 29.0138 182.667 28.9111 182.667 28.7855V27.872H183.244C183.81 27.872 184.206 27.518 184.206 26.9928C184.195 26.4675 183.81 26.125 183.244 26.125ZM183.244 27.4609H182.679V26.5246H183.244C183.55 26.5246 183.742 26.7073 183.742 26.9928C183.742 27.2782 183.55 27.4609 183.244 27.4609Z" fill="#F2F2F2"/>
<path d="M186.864 26.0796C186.038 26.0796 185.394 26.7304 185.394 27.5526C185.394 28.3747 186.038 29.0255 186.864 29.0255C187.69 29.0255 188.346 28.3747 188.346 27.5526C188.346 26.7304 187.69 26.0796 186.864 26.0796ZM186.864 28.5916C186.276 28.5916 185.857 28.1463 185.857 27.5411C185.857 26.936 186.287 26.4907 186.864 26.4907C187.441 26.4907 187.871 26.936 187.871 27.5411C187.882 28.1463 187.452 28.5916 186.864 28.5916Z" fill="#F2F2F2"/>
<path d="M191.332 27.4153C191.48 27.2897 191.57 27.0956 191.57 26.8786C191.57 26.4219 191.231 26.125 190.722 26.125H189.975C189.839 26.125 189.737 26.2278 189.737 26.3648V28.7284C189.737 28.8654 189.839 28.9682 189.975 28.9682H190.948C191.491 28.9682 191.864 28.637 191.864 28.146C191.853 27.7807 191.66 27.518 191.332 27.4153ZM190.179 26.5246H190.676C190.948 26.5246 191.106 26.6617 191.106 26.9014C191.106 27.1412 190.948 27.2897 190.676 27.2897H190.179V26.5246ZM190.903 28.5685H190.179V27.6893H190.903C191.208 27.6893 191.389 27.8606 191.389 28.1346C191.4 28.3972 191.208 28.5685 190.903 28.5685Z" fill="#F2F2F2"/>
<path d="M82.646 8.56383C83.4378 8.56383 84.0826 7.91299 84.0826 7.1137C84.0826 6.31442 83.4378 5.66357 82.646 5.66357C81.8541 5.66357 81.2094 6.31442 81.2094 7.1137C81.2094 7.91299 81.8541 8.56383 82.646 8.56383Z" fill="#F2F2F2"/>
<path d="M84.0826 17.2187C84.0826 16.4194 83.4378 15.7686 82.646 15.7686C81.8541 15.7686 81.2094 16.4194 81.2094 17.2187C81.2094 18.018 81.8541 18.6688 82.646 18.6688C83.4378 18.6688 84.0826 18.018 84.0826 17.2187Z" fill="#F2F2F2"/>
</svg>
