<svg width="17" height="17" viewBox="0 0 17 17" fill="none" xmlns="http://www.w3.org/2000/svg">
<path d="M0.300881 14.965C-0.0940051 15.3511 -0.101117 15.9842 0.284996 16.3791C0.671109 16.774 1.30423 16.7811 1.69912 16.395L0.300881 14.965ZM8.50678 8.34L9.2059 9.055C9.39831 8.86686 9.50678 8.60911 9.50678 8.34C9.50678 8.07089 9.39831 7.81314 9.2059 7.62499L8.50678 8.34ZM1.69912 0.284995C1.30423 -0.101118 0.671108 -0.0940058 0.284995 0.30088C-0.101118 0.695767 -0.0940058 1.32889 0.30088 1.715L1.69912 0.284995ZM14.9773 16.395C15.3722 16.7811 16.0053 16.774 16.3914 16.3791C16.7775 15.9842 16.7704 15.3511 16.3755 14.965L14.9773 16.395ZM8.16965 8.34L7.47053 7.62499C7.27811 7.81314 7.16965 8.07089 7.16965 8.34C7.16965 8.60911 7.27811 8.86686 7.47053 9.055L8.16965 8.34ZM16.3755 1.715C16.7704 1.32889 16.7775 0.695767 16.3914 0.30088C16.0053 -0.0940058 15.3722 -0.101118 14.9773 0.284995L16.3755 1.715ZM1.69912 16.395L9.2059 9.055L7.80766 7.62499L0.300881 14.965L1.69912 16.395ZM9.2059 7.62499L1.69912 0.284995L0.30088 1.715L7.80766 9.055L9.2059 7.62499ZM16.3755 14.965L8.86877 7.62499L7.47053 9.055L14.9773 16.395L16.3755 14.965ZM8.86877 9.055L16.3755 1.715L14.9773 0.284995L7.47053 7.62499L8.86877 9.055Z" fill="#223333"/>
</svg>
