<svg width="20" height="21" viewBox="0 0 20 21" fill="none" xmlns="http://www.w3.org/2000/svg">
<path fill-rule="evenodd" clip-rule="evenodd" d="M19.2081 18.5005C19.4034 18.6958 19.4034 19.0124 19.2081 19.2076C19.0128 19.4029 18.6963 19.4029 18.501 19.2076L10.0316 10.7383L0.855175 19.9147C0.659913 20.11 0.34333 20.11 0.148068 19.9147C-0.0471942 19.7195 -0.0471942 19.4029 0.148068 19.2076L9.32453 10.0311L0.146447 0.853065C-0.0488154 0.657803 -0.0488156 0.34122 0.146447 0.145958C0.341709 -0.0493039 0.658291 -0.0493037 0.853553 0.145958L10.0316 9.32404L18.5026 0.853065C18.6979 0.657803 19.0145 0.657803 19.2097 0.853065C19.405 1.04833 19.405 1.36491 19.2097 1.56017L10.7387 10.0311L19.2081 18.5005Z" fill="#D3D5D6"/>
</svg>
