<svg width="17" height="17" viewBox="0 0 17 17" fill="none" xmlns="http://www.w3.org/2000/svg">
<path d="M12.0714 0H4.88619C2.19173 0 0 2.19173 0 4.88619V12.0714C0 14.7659 2.19173 16.9576 4.88619 16.9576H12.0714C14.7659 16.9576 16.9576 14.7659 16.9576 12.0714V4.88055C16.9576 2.19173 14.7659 0 12.0714 0ZM15.2291 12.0714C15.2291 13.8113 13.8169 15.2235 12.0771 15.2235H4.88619C3.14637 15.2235 1.73417 13.8113 1.73417 12.0714V4.88055C1.73417 3.14072 3.14637 1.72853 4.88619 1.72853H12.0714C13.8113 1.72853 15.2235 3.14072 15.2235 4.88055V12.0714H15.2291Z" fill="#F2F2F2"/>
<path d="M8.47883 4.53613C6.30969 4.53613 4.54163 6.3042 4.54163 8.47333C4.54163 10.6425 6.30969 12.4105 8.47883 12.4105C10.648 12.4105 12.416 10.6425 12.416 8.47333C12.416 6.3042 10.648 4.53613 8.47883 4.53613ZM8.47883 10.6029C7.30388 10.6029 6.34924 9.64828 6.34924 8.47333C6.34924 7.29838 7.30388 6.34374 8.47883 6.34374C9.65377 6.34374 10.6084 7.29838 10.6084 8.47333C10.6084 9.64828 9.65377 10.6029 8.47883 10.6029Z" fill="#F2F2F2"/>
<path d="M12.8905 2.83008C12.2465 2.83008 11.7212 3.35541 11.7212 3.99937C11.7212 4.64334 12.2465 5.16867 12.8905 5.16867C13.5344 5.16867 14.0598 4.64334 14.0598 3.99937C14.0598 3.35541 13.5344 2.83008 12.8905 2.83008Z" fill="#F2F2F2"/>
</svg>
