<svg width="20" height="21" viewBox="0 0 20 21" fill="none" xmlns="http://www.w3.org/2000/svg">
<path d="M9.96032 12.1496C10.893 12.1496 11.6491 11.3935 11.6491 10.4608C11.6491 9.52809 10.893 8.77197 9.96032 8.77197C9.0276 8.77197 8.27148 9.52809 8.27148 10.4608C8.27148 11.3935 9.0276 12.1496 9.96032 12.1496Z" fill="#4491FF"/>
<path d="M13.907 7.47248C13.8152 7.23578 13.7054 7.0676 13.5278 6.89007C13.3503 6.71255 13.1821 6.60276 12.9454 6.51088C12.7671 6.44159 12.4985 6.35905 12.0049 6.33647C11.4707 6.31234 11.3103 6.30688 9.95786 6.30688C8.60539 6.30688 8.44499 6.31234 7.91086 6.33647C7.41721 6.35905 7.14859 6.44159 6.97029 6.51088C6.73358 6.60276 6.5654 6.71255 6.38787 6.89007C6.21035 7.0676 6.10056 7.23578 6.00869 7.47248C5.93939 7.65079 5.85686 7.91941 5.83428 8.41306C5.81014 8.94719 5.80469 9.10759 5.80469 10.4601C5.80469 11.8125 5.81014 11.9729 5.83428 12.5071C5.85686 13.0007 5.93939 13.2693 6.00869 13.4476C6.10056 13.6843 6.21035 13.8525 6.38787 14.03C6.5654 14.2076 6.73358 14.3173 6.97029 14.4092C7.14859 14.4785 7.41721 14.5611 7.91086 14.5836C8.44499 14.6078 8.60539 14.6132 9.95786 14.6132C11.3103 14.6132 11.4707 14.6078 12.0049 14.5836C12.4985 14.5611 12.7671 14.4785 12.9454 14.4092C13.1821 14.3173 13.3503 14.2076 13.5278 14.03C13.7054 13.8525 13.8152 13.6843 13.907 13.4476C13.9763 13.2693 14.0589 13.0007 14.0814 12.5071C14.1056 11.9729 14.111 11.8125 14.111 10.4601C14.111 9.10759 14.1056 8.94719 14.0814 8.41306C14.0589 7.91941 13.9763 7.65157 13.907 7.47248ZM9.95786 13.0614C8.5213 13.0614 7.35648 11.8966 7.35648 10.4601C7.35648 9.0235 8.5213 7.85868 9.95786 7.85868C11.3944 7.85868 12.5592 9.0235 12.5592 10.4601C12.5592 11.8966 11.3944 13.0614 9.95786 13.0614ZM12.662 8.364C12.3264 8.364 12.0539 8.09149 12.0539 7.7559C12.0539 7.42031 12.3264 7.1478 12.662 7.1478C12.9976 7.1478 13.2701 7.42031 13.2701 7.7559C13.2701 8.09227 12.9976 8.364 12.662 8.364Z" fill="#4491FF"/>
<path d="M9.96119 0.581055C4.50538 0.581055 0.0820312 5.00363 0.0820312 10.4594V10.4641C0.0820312 15.9176 4.50305 20.3378 9.95574 20.3378H9.96508C15.4185 20.3378 19.8388 15.9168 19.8388 10.4641V10.4594C19.8396 5.00363 15.417 0.581055 9.96119 0.581055ZM14.9965 12.5485C14.9716 13.0881 14.886 13.4556 14.7614 13.7779C14.6321 14.1112 14.4585 14.3938 14.1774 14.6749C13.8956 14.9568 13.6129 15.1296 13.2805 15.2589C12.9581 15.3842 12.5898 15.4699 12.051 15.494C11.5106 15.5189 11.3378 15.5244 9.96274 15.5244C8.58692 15.5244 8.41407 15.5189 7.87448 15.494C7.3349 15.4691 6.96739 15.3834 6.64504 15.2589C6.31179 15.1296 6.02915 14.956 5.74806 14.6749C5.4662 14.393 5.29335 14.1104 5.1641 13.7779C5.03874 13.4556 4.95309 13.0873 4.92895 12.5485C4.90404 12.0081 4.89859 11.8353 4.89859 10.4602C4.89859 9.08439 4.90404 8.91153 4.92895 8.37195C4.95387 7.83236 5.03952 7.46485 5.1641 7.1425C5.29335 6.80925 5.46698 6.52661 5.74806 6.24553C6.02993 5.96367 6.31256 5.79081 6.64504 5.66156C6.96739 5.53621 7.33567 5.45056 7.87448 5.42642C8.41484 5.4015 8.58692 5.39605 9.96274 5.39605C11.3386 5.39605 11.5114 5.4015 12.051 5.42642C12.5906 5.45134 12.9581 5.53698 13.2805 5.66156C13.6137 5.79081 13.8963 5.96445 14.1774 6.24553C14.4593 6.52739 14.6321 6.81003 14.7614 7.1425C14.8867 7.46485 14.9724 7.83314 14.9965 8.37195C15.0215 8.91231 15.0269 9.08516 15.0269 10.4602C15.0269 11.8353 15.0215 12.0081 14.9965 12.5485Z" fill="#4491FF"/>
</svg>
