<svg width="23" height="18" viewBox="0 0 23 18" fill="none" xmlns="http://www.w3.org/2000/svg">
<path d="M21.0411 0.669922H2.67171C1.59297 0.669922 0.712891 1.54904 0.712891 2.62874V15.6875C0.712891 16.7636 1.58905 17.6464 2.67171 17.6464H21.0411C22.1171 17.6464 22.9999 16.7702 22.9999 15.6875V2.62874C22.9999 1.5527 22.1237 0.669922 21.0411 0.669922ZM20.7706 1.9758L11.8979 10.8485L2.94851 1.9758H20.7706ZM2.01877 15.4171V2.89292L8.30784 9.12806L2.01877 15.4171ZM2.94216 16.3405L9.23519 10.0474L11.4403 12.2336C11.6955 12.4867 12.1074 12.4858 12.3616 12.2316L14.5117 10.0815L20.7706 16.3405H2.94216ZM21.694 15.4171L15.4351 9.15814L21.694 2.89915V15.4171Z" fill="#F2F2F2"/>
</svg>
