<svg width="23" height="17" viewBox="0 0 23 17" fill="none" xmlns="http://www.w3.org/2000/svg">
<path d="M20.3282 0H1.95882C0.880076 0 0 0.879118 0 1.95882V15.0176C0 16.0937 0.876158 16.9764 1.95882 16.9764H20.3282C21.4042 16.9764 22.287 16.1003 22.287 15.0176V1.95882C22.287 0.882775 21.4109 0 20.3282 0ZM20.0577 1.30588L11.185 10.1786L2.23562 1.30588H20.0577ZM1.30588 14.7472V2.223L7.59495 8.45814L1.30588 14.7472ZM2.22927 15.6706L8.5223 9.37752L10.7274 11.5637C10.9826 11.8167 11.3945 11.8159 11.6488 11.5616L13.7988 9.41161L20.0577 15.6706H2.22927ZM20.9811 14.7472L14.7222 8.48822L20.9811 2.22922V14.7472Z" fill="#6C8DFF"/>
</svg>
