<svg width="11" height="11" viewBox="0 0 11 11" fill="none" xmlns="http://www.w3.org/2000/svg">
<path d="M2.22068 7.31206C3.30564 8.60899 4.61169 9.63013 6.10236 10.3527C6.66992 10.6216 7.42893 10.9407 8.27456 10.9954C8.32698 10.9977 8.37713 11 8.42955 11C8.9971 11 9.45296 10.804 9.82449 10.4005C9.82677 10.3983 9.83133 10.3937 9.83361 10.3891C9.96581 10.2296 10.1162 10.086 10.2735 9.93328C10.3806 9.83071 10.4901 9.72358 10.5949 9.61417C11.0804 9.10816 11.0804 8.4654 10.5903 7.97534L9.22047 6.60547C8.98798 6.36386 8.70991 6.23622 8.41815 6.23622C8.1264 6.23622 7.84604 6.36386 7.60672 6.60319L6.79072 7.41919C6.7155 7.37588 6.638 7.33713 6.56507 7.30066C6.47389 7.25508 6.38956 7.21177 6.31434 7.1639C5.57128 6.69208 4.8966 6.07667 4.25156 5.28574C3.92561 4.87319 3.7068 4.52673 3.55408 4.17344C3.76834 3.97969 3.96892 3.77683 4.16266 3.57853C4.23104 3.50787 4.3017 3.43722 4.37236 3.36656C4.61853 3.12039 4.75073 2.83547 4.75073 2.546C4.75073 2.25653 4.62081 1.97161 4.37236 1.72545L3.69312 1.04621C3.61335 0.966432 3.53813 0.888935 3.46063 0.809159C3.3102 0.654165 3.15292 0.494613 2.99793 0.351015C2.76316 0.120804 2.48736 0 2.19561 0C1.90614 0 1.62806 0.120804 1.38417 0.353295L0.531706 1.20576C0.221718 1.51575 0.0462107 1.89184 0.00974162 2.32719C-0.0335655 2.87194 0.0667246 3.45089 0.326567 4.15064C0.725448 5.23332 1.32719 6.2385 2.22068 7.31206ZM0.565896 2.37505C0.593248 2.0719 0.709493 1.8189 0.928308 1.60008L1.77621 0.752176C1.90842 0.624534 2.05429 0.558433 2.19561 0.558433C2.33465 0.558433 2.47597 0.624534 2.60589 0.756734C2.7586 0.898052 2.9022 1.04621 3.05719 1.20348C3.13469 1.28326 3.21447 1.36303 3.29424 1.44509L3.97348 2.12433C4.1148 2.26564 4.18774 2.40924 4.18774 2.55056C4.18774 2.69188 4.1148 2.83547 3.97348 2.97679C3.90282 3.04745 3.83216 3.12039 3.7615 3.19105C3.54953 3.4053 3.35123 3.60816 3.13241 3.80191C3.12785 3.80647 3.12557 3.80874 3.12101 3.8133C2.93183 4.00249 2.96146 4.18255 3.00705 4.31931C3.00933 4.32615 3.01161 4.33071 3.01389 4.33755C3.18939 4.75922 3.43328 5.16038 3.81393 5.63904C4.49772 6.48239 5.21799 7.13655 6.01119 7.64028C6.1092 7.7041 6.21405 7.75425 6.31206 7.80439C6.40323 7.84998 6.48757 7.89329 6.56279 7.94115C6.5719 7.94571 6.57874 7.95027 6.58786 7.95483C6.66308 7.99358 6.73602 8.01181 6.80895 8.01181C6.9913 8.01181 7.10982 7.89557 7.14857 7.85682L8.00104 7.00435C8.13324 6.87215 8.27684 6.80149 8.41815 6.80149C8.59138 6.80149 8.7327 6.90862 8.82159 7.00435L10.196 8.3765C10.4695 8.65002 10.4673 8.94633 10.1892 9.23581C10.0935 9.33838 9.99316 9.43639 9.88604 9.53896C9.72648 9.69395 9.56009 9.8535 9.40966 10.0336C9.14754 10.3162 8.83527 10.4484 8.43183 10.4484C8.39308 10.4484 8.35205 10.4461 8.3133 10.4438C7.56569 10.396 6.87049 10.1042 6.34853 9.85578C4.93079 9.16971 3.68629 8.19644 2.65375 6.96104C1.80357 5.93763 1.23146 4.98487 0.85309 3.96374C0.61832 3.33692 0.529427 2.8332 0.565896 2.37505Z" fill="white"/>
</svg>
