<svg width="12" height="10" viewBox="0 0 12 10" fill="none" xmlns="http://www.w3.org/2000/svg">
<path d="M11.8147 0.273775C11.6681 0.09721 11.4486 0 11.1964 0C11.0594 0 10.9142 0.0284055 10.7649 0.0845853L0.607195 3.90382C0.0681339 4.10644 -0.00446723 4.41052 0.000201939 4.57374C0.00487111 4.73696 0.0948672 5.03652 0.644732 5.20885C0.648028 5.20984 0.651323 5.21083 0.654619 5.21173L2.76161 5.80563L3.90107 9.01501C4.05644 9.45254 4.40516 9.72433 4.81129 9.72433C5.06736 9.72433 5.31922 9.61864 5.53968 9.41881L6.84293 8.23687L8.73321 9.73605C8.7334 9.73623 8.73367 9.73632 8.73385 9.7365L8.7518 9.75075C8.75345 9.75202 8.75519 9.75337 8.75683 9.75463C8.96695 9.91514 9.19629 9.99991 9.42031 10H9.42041C9.85812 10 10.2067 9.68087 10.3082 9.18706L11.9725 1.09248C12.0394 0.76758 11.9833 0.476852 11.8147 0.273775ZM3.46647 5.69282L7.53149 3.64736L5.00034 6.29646C4.95887 6.33984 4.92948 6.39295 4.91502 6.45075L4.42695 8.39802L3.46647 5.69282ZM5.06333 8.90932C5.04649 8.92456 5.02955 8.93818 5.01261 8.95071L5.46543 7.1443L6.28913 7.79763L5.06333 8.90932ZM11.2834 0.954966L9.61907 9.04963C9.60305 9.12709 9.55188 9.30736 9.42031 9.30736C9.35531 9.30736 9.27365 9.27246 9.19006 9.20906L7.0481 7.51032C7.04782 7.51005 7.04746 7.50978 7.04709 7.5096L5.77259 6.49873L9.43295 2.66777C9.55014 2.54513 9.56076 2.3573 9.45813 2.22257C9.3554 2.08785 9.16928 2.04547 9.01703 2.12212L2.99672 5.1515L0.86107 4.54966L11.0157 0.7316C11.1015 0.699316 11.1614 0.692553 11.1964 0.692553C11.2179 0.692553 11.2562 0.695078 11.2704 0.712302C11.2891 0.734756 11.3129 0.811315 11.2834 0.954966Z" fill="white"/>
</svg>
