<svg width="27" height="16" viewBox="0 0 27 16" fill="none" xmlns="http://www.w3.org/2000/svg">
<path d="M21.7503 8.77232C21.3282 8.23835 21.4502 7.99934 21.7503 7.52131C21.7554 7.51623 25.2541 2.68001 25.6152 1.04251C25.7932 0.447515 25.6152 0.00508552 24.7507 0.00508552H21.8825C21.1553 0.00508552 20.8146 0.381405 20.6366 0.803494C20.6366 0.803494 19.1771 4.29716 17.1124 6.56017C16.4462 7.21619 16.136 7.42469 15.7749 7.42469C15.5969 7.42469 15.3172 7.21619 15.3172 6.61611V1.03742C15.3172 0.32038 15.1138 0 14.5087 0H10.003C9.5453 0 9.27577 0.335636 9.27577 0.645845C9.27577 1.32729 10.3081 1.47985 10.4149 3.39196V7.54165C10.4149 8.45194 10.2522 8.61976 9.88602 8.61976C8.90963 8.61976 6.54491 5.11083 5.14643 1.09845C4.86164 0.32038 4.58703 0.00508552 3.84965 0.00508552H0.981483C0.162733 0.00508552 0 0.381405 0 0.803494C0 1.54596 0.976397 5.25322 4.53109 10.1454C6.90089 13.4865 10.2369 15.2969 13.2729 15.2969C15.0986 15.2969 15.3223 14.8951 15.3223 14.2035C15.3223 11.0099 15.1596 10.7099 16.0699 10.7099C16.492 10.7099 17.2243 10.9184 18.9279 12.5304C20.8756 14.4425 21.196 15.2969 22.2842 15.2969H25.1524C25.9712 15.2969 26.3831 14.8951 26.1441 14.1018C25.5999 12.4287 21.9181 9.00116 21.7503 8.77232Z" fill="#F2F2F2"/>
</svg>
