<svg width="20" height="20" viewBox="0 0 20 20" fill="none" xmlns="http://www.w3.org/2000/svg">
<path d="M14.1785 12.0897L12.4298 11.2878C12.2739 11.2154 12.0901 11.2321 11.9509 11.3323L11.2604 11.828C11.0487 11.9783 10.7759 12.0006 10.5475 11.8781C10.2635 11.7277 8.23087 9.68393 8.08051 9.40548C7.958 9.17716 7.98027 8.90428 8.13063 8.69267L8.62626 8.00212C8.7265 7.8629 8.74321 7.67913 8.67081 7.5232L7.86889 5.77456C7.77422 5.56851 7.56817 5.44043 7.34542 5.44043H6.76625C6.69386 5.44043 6.62146 5.45157 6.55463 5.47941C5.47427 5.94163 5.54109 7.28373 5.54109 7.28373C5.54109 9.27183 7.18949 11.1096 7.9747 11.8725C8.65968 12.5965 10.5809 14.4231 12.6748 14.4231C12.6748 14.4231 14.0114 14.4899 14.4792 13.4095C14.507 13.3427 14.5182 13.2703 14.5182 13.1979V12.6187C14.5126 12.3904 14.3845 12.1844 14.1785 12.0897Z" fill="#F2F2F2"/>
<path d="M0 19.9534L1.7375 14.5348C0.90773 13.0758 0.473356 11.4274 0.473356 9.74C0.473356 4.36602 4.84494 0 10.2134 0C15.5818 0 19.9534 4.37158 19.9534 9.74C19.9534 15.114 15.5818 19.48 10.2134 19.48C8.52598 19.48 6.87759 19.0456 5.41854 18.2214L0 19.9534ZM5.65243 16.3169L5.99213 16.5285C7.25627 17.3193 8.72089 17.7369 10.2189 17.7369C14.6295 17.7369 18.2214 14.1506 18.2214 9.73443C18.2214 5.32387 14.6351 1.73193 10.2189 1.73193C5.80279 1.73193 2.21642 5.3183 2.21642 9.73443C2.21642 11.2325 2.63409 12.6915 3.42487 13.9612L3.63649 14.3065L2.68978 17.2636L5.65243 16.3169Z" fill="#F2F2F2"/>
</svg>
