<svg width="13" height="13" viewBox="0 0 13 13" fill="none" xmlns="http://www.w3.org/2000/svg">
<path d="M8.68039 7.26645L8.67651 7.30145C7.72953 6.78994 7.63048 6.7218 7.50818 6.92061C7.42334 7.05829 7.17616 7.37052 7.10166 7.46293C7.02629 7.55394 6.95136 7.56094 6.82346 7.49793C6.69427 7.42793 6.27956 7.28091 5.78863 6.80487C5.40622 6.43384 5.14956 5.9788 5.07377 5.83879C4.94759 5.60263 5.21157 5.56903 5.45187 5.07618C5.49493 4.97818 5.47297 4.90117 5.4411 4.83163C5.4088 4.76162 5.15171 4.07556 5.04405 3.80207C4.9407 3.52951 4.83433 3.56405 4.75466 3.56405C4.50661 3.54071 4.32531 3.54445 4.16554 3.7246C3.47049 4.55254 3.64576 5.40661 4.24047 6.31483C5.40924 7.97257 6.03194 8.2778 7.17056 8.70157C7.47804 8.80752 7.75838 8.79258 7.98016 8.75805C8.22735 8.71557 8.74111 8.42155 8.84834 8.09252C8.95815 7.76349 8.95815 7.49047 8.92585 7.42746C8.89399 7.36445 8.80958 7.32945 8.68039 7.26645Z" fill="white"/>
<path d="M10.6618 1.82145C6.75239 -1.95777 0.282411 0.783217 0.279869 6.11468C0.279869 7.18037 0.559005 8.21961 1.09084 9.13734L0.228516 12.2703L3.44952 11.4304C7.46879 13.6014 12.4292 10.7186 12.4312 6.11774C12.4312 4.50294 11.8007 2.98322 10.6542 1.84127L10.6618 1.82145ZM11.4153 6.10096C11.4123 9.98185 7.15202 12.4056 3.78255 10.4247L3.59951 10.3159L1.69284 10.8116L2.20383 8.95837L2.08231 8.76771C-0.0145216 5.42982 2.3945 1.06743 6.36647 1.06743C7.71589 1.06743 8.98243 1.59367 9.93627 2.54698C10.8896 3.49217 11.4153 4.75868 11.4153 6.10096Z" fill="white"/>
</svg>
