<svg width="31" height="30" viewBox="0 0 31 30" fill="none" xmlns="http://www.w3.org/2000/svg">
<path d="M10.8949 11.0836C10.2896 11.2658 9.95664 11.3872 9.56317 11.448C8.80648 11.5694 8.0498 11.7516 7.29311 11.7212C5.81001 11.6605 4.65985 10.9014 4.1453 9.444C3.63075 7.98657 3.9637 6.68096 5.11386 5.67898C5.81001 5.07172 6.6575 4.58591 7.50498 4.28228C9.7145 3.49284 11.9543 2.82486 14.1638 2.15687C15.5864 1.73179 17.0392 1.39779 18.4618 1.00307C19.5514 0.729806 20.5805 0.729806 21.5793 1.3067C23.4559 2.43014 23.7586 4.9199 22.1847 6.6506C20.52 8.47238 18.7645 10.2334 17.0998 12.0856C13.7401 15.8506 10.4107 19.6763 7.08124 23.4717C6.8391 23.745 6.6575 24.0486 6.53643 24.4737C6.80883 24.3826 7.05097 24.2612 7.32338 24.1701C13.5585 21.4981 19.7936 18.8262 26.0589 16.1846C26.8761 15.8506 27.8144 15.6988 28.6922 15.6684C29.1159 15.6684 29.7515 16.0328 29.9331 16.3971C30.1147 16.8222 30.0542 17.5813 29.7818 17.8849C29.237 18.5225 28.5408 19.0691 27.7842 19.4031C21.2464 22.3483 14.6784 25.2328 8.11033 28.0869C6.8391 28.6334 5.56787 29.0889 4.26637 29.5443C3.75182 29.7265 3.20701 29.848 2.6622 29.8783C0.543478 30.0605 -0.636951 28.512 0.422409 26.6902C2.32926 23.411 4.38744 20.2229 6.47589 17.0348C7.65632 15.2433 9.01835 13.5734 10.3199 11.873C10.4409 11.7516 10.5923 11.539 10.8949 11.0836Z" fill="black"/>
</svg>
