<svg width="51" height="109" viewBox="0 0 51 109" fill="none" xmlns="http://www.w3.org/2000/svg">
<rect x="25.4895" width="36.0476" height="36.0476" transform="rotate(45 25.4895 0)" fill="#DC3B18"/>
<rect x="48.6619" y="27.8068" width="3.27706" height="36.0476" transform="rotate(135 48.6619 27.8068)" fill="#141414"/>
<rect x="44.0273" y="32.4412" width="3.27706" height="36.0476" transform="rotate(135 44.0273 32.4412)" fill="#141414"/>
<rect x="39.3928" y="37.0758" width="3.27706" height="36.0476" transform="rotate(135 39.3928 37.0758)" fill="#141414"/>
<rect x="34.7583" y="41.7101" width="3.27706" height="36.0476" transform="rotate(135 34.7583 41.7101)" fill="#141414"/>
<rect x="30.124" y="46.3445" width="3.27706" height="36.0476" transform="rotate(135 30.124 46.3445)" fill="#141414"/>
<path d="M50.979 25.4895L25.4895 50.9791L-1.93e-05 25.4895H50.979Z" fill="#DC3B18"/>
<rect x="27.8066" y="2.31729" width="3.27706" height="36.0476" transform="rotate(45 27.8066 2.31729)" fill="#141414"/>
<rect x="32.4412" y="6.95166" width="3.27706" height="36.0476" transform="rotate(45 32.4412 6.95166)" fill="#141414"/>
<rect x="37.0757" y="11.5862" width="3.27706" height="36.0476" transform="rotate(45 37.0757 11.5862)" fill="#141414"/>
<rect x="41.7102" y="16.2206" width="3.27706" height="36.0476" transform="rotate(45 41.7102 16.2206)" fill="#141414"/>
<rect x="46.3445" y="20.855" width="3.27706" height="36.0476" transform="rotate(45 46.3445 20.855)" fill="#141414"/>
<path d="M0.0754395 28.7289L25.565 54.2184L0.0754395 79.7079V28.7289Z" fill="#8C8C8C"/>
<path d="M50.979 28.7289L25.4895 54.2184L50.979 79.7079V28.7289Z" fill="#D9D9D9"/>
<rect x="25.4895" y="57.4577" width="36.0476" height="36.0476" transform="rotate(45 25.4895 57.4577)" fill="#D9D9D9"/>
<path d="M25.4895 57.4577V108.437L-2.0351e-05 82.9472L25.4895 57.4577Z" fill="#8C8C8C"/>
</svg>
