<svg width="270" height="109" viewBox="0 0 270 109" fill="none" xmlns="http://www.w3.org/2000/svg">
<path d="M75.5631 68.4468C73.728 68.4468 72.0785 68.2065 70.6148 67.7258C69.151 67.2452 67.8839 66.5461 66.8134 65.6285C65.7647 64.6891 64.9564 63.553 64.3884 62.2204C63.8422 60.8658 63.5691 59.3256 63.5691 57.5997C63.5691 55.8738 63.864 54.3226 64.4539 52.9463C65.0656 51.5699 65.9176 50.4011 67.01 49.4398C68.1024 48.4567 69.4023 47.7139 70.9097 47.2114C72.439 46.6871 74.1321 46.4249 75.9891 46.4249C78.1083 46.4249 79.9544 46.7526 81.5274 47.408C83.1003 48.0635 84.3456 48.981 85.2632 50.1608C86.2026 51.3187 86.7379 52.706 86.869 54.3226H83.3297C83.0457 53.3832 82.5869 52.5749 81.9534 51.8976C81.3198 51.2204 80.5006 50.696 79.4956 50.3246C78.5125 49.9532 77.3437 49.7675 75.9891 49.7675C74.2195 49.7675 72.6902 50.0952 71.4013 50.7506C70.1341 51.4061 69.151 52.3236 68.4519 53.5034C67.7746 54.6831 67.436 56.0486 67.436 57.5997C67.436 59.129 67.731 60.4617 68.3208 61.5977C68.9325 62.7119 69.8501 63.5749 71.0736 64.1866C72.297 64.7983 73.8263 65.1042 75.6614 65.1042C77.0815 65.1042 78.3268 64.8966 79.3973 64.4815C80.4678 64.0664 81.3526 63.4875 82.0517 62.7447C82.7726 61.98 83.2751 61.0952 83.5591 60.0903L85.2304 59.6643C84.9246 62.4825 83.9196 64.6563 82.2155 66.1856C80.5115 67.6931 78.294 68.4468 75.5631 68.4468ZM84.3129 68.0535C84.3129 67.3544 84.3456 66.5679 84.4112 65.694C84.4767 64.7983 84.5641 63.8917 84.6733 62.9741C84.7826 62.0565 84.8809 61.2154 84.9683 60.4508H76.1202V57.7636H87.6882V68.0535H84.3129Z" fill="#DC3B18"/>
<path d="M97.015 46.8182V64.8092H110.353V68.0535H93.2464V46.8182H97.015Z" fill="#DC3B18"/>
<path d="M114.953 57.6325H135.347L138.187 60.6474H114.953V57.6325Z" fill="#CCCCCC"/>
<path d="M166.308 60.5818C166.09 62.2422 165.511 63.6623 164.571 64.842C163.632 65.9999 162.365 66.8956 160.77 67.5292C159.197 68.1409 157.362 68.4468 155.264 68.4468C153.451 68.4468 151.78 68.2064 150.25 67.7258C148.743 67.2452 147.432 66.5461 146.318 65.6285C145.226 64.6891 144.374 63.5421 143.762 62.1876C143.15 60.8112 142.844 59.2382 142.844 57.4686C142.844 55.6772 143.15 54.1042 143.762 52.7496C144.374 51.3733 145.226 50.2154 146.318 49.276C147.432 48.3365 148.743 47.6265 150.25 47.1459C151.78 46.6652 153.451 46.4249 155.264 46.4249C157.383 46.4249 159.23 46.7417 160.803 47.3753C162.397 48.0088 163.664 48.9264 164.604 50.128C165.543 51.3077 166.111 52.7278 166.308 54.3882H162.605C162.321 53.4051 161.851 52.5749 161.196 51.8976C160.54 51.1985 159.71 50.6742 158.705 50.3246C157.7 49.9532 156.553 49.7675 155.264 49.7675C153.626 49.7675 152.151 50.0625 150.84 50.6523C149.551 51.2422 148.535 52.1052 147.793 53.2412C147.072 54.3773 146.711 55.7864 146.711 57.4686C146.711 59.129 147.072 60.5272 147.793 61.6632C148.535 62.7993 149.551 63.6623 150.84 64.2521C152.151 64.842 153.626 65.1369 155.264 65.1369C156.553 65.1369 157.689 64.9622 158.672 64.6126C159.677 64.2412 160.508 63.7169 161.163 63.0396C161.818 62.3405 162.299 61.5212 162.605 60.5818H166.308Z" fill="#CCCCCC"/>
<path d="M171.562 68.0535V46.8182H184.277C185.871 46.8182 187.248 47.0476 188.406 47.5064C189.563 47.9433 190.459 48.6315 191.093 49.5709C191.726 50.4885 192.043 51.6682 192.043 53.1101C192.043 54.0932 191.879 54.9344 191.552 55.6335C191.224 56.3107 190.765 56.8678 190.175 57.3048C189.585 57.7417 188.897 58.0803 188.111 58.3206C187.346 58.5391 186.516 58.6811 185.62 58.7467L185.292 58.5173C186.691 58.561 187.859 58.703 188.799 58.9433C189.738 59.1618 190.448 59.5769 190.929 60.1886C191.41 60.8003 191.65 61.7069 191.65 62.9085V68.0535H187.849V63.1052C187.849 62.275 187.707 61.6305 187.422 61.1717C187.138 60.7129 186.636 60.3961 185.915 60.2213C185.194 60.0247 184.178 59.9264 182.867 59.9264H175.33V68.0535H171.562ZM175.33 56.846H184.277C185.587 56.846 186.581 56.5292 187.259 55.8956C187.936 55.2402 188.275 54.3773 188.275 53.3067C188.275 52.2799 187.936 51.4934 187.259 50.9473C186.581 50.4011 185.587 50.128 184.277 50.128H175.33V56.846Z" fill="#CCCCCC"/>
<path d="M200.585 63.1052V59.8609H213.365V63.1052H200.585ZM195.636 68.0535L204.976 46.8182H209.04L218.477 68.0535H214.348L206.189 48.8827H207.827L199.7 68.0535H195.636Z" fill="#CCCCCC"/>
<path d="M242.446 64.121L241.266 64.5798V46.8182H245.068V68.0535H241.266L225.241 50.849L226.388 50.3902V68.0535H222.62V46.8182H226.388L234.417 55.4696L242.446 64.121Z" fill="#CCCCCC"/>
<path d="M254.926 59.0416V64.8092H270V68.0535H251.157V46.8182H269.967V50.0625H254.926V55.9284H267.247V59.0416H254.926Z" fill="#CCCCCC"/>
<rect x="25.4895" width="36.0476" height="36.0476" transform="rotate(45 25.4895 0)" fill="#DC3B18"/>
<rect x="48.6619" y="27.8068" width="3.27706" height="36.0476" transform="rotate(135 48.6619 27.8068)" fill="#141414"/>
<rect x="44.0273" y="32.4412" width="3.27706" height="36.0476" transform="rotate(135 44.0273 32.4412)" fill="#141414"/>
<rect x="39.3928" y="37.0758" width="3.27706" height="36.0476" transform="rotate(135 39.3928 37.0758)" fill="#141414"/>
<rect x="34.7583" y="41.7101" width="3.27706" height="36.0476" transform="rotate(135 34.7583 41.7101)" fill="#141414"/>
<rect x="30.124" y="46.3445" width="3.27706" height="36.0476" transform="rotate(135 30.124 46.3445)" fill="#141414"/>
<path d="M50.979 25.4895L25.4895 50.9791L-1.93e-05 25.4895H50.979Z" fill="#DC3B18"/>
<rect x="27.8066" y="2.31729" width="3.27706" height="36.0476" transform="rotate(45 27.8066 2.31729)" fill="#141414"/>
<rect x="32.4412" y="6.95166" width="3.27706" height="36.0476" transform="rotate(45 32.4412 6.95166)" fill="#141414"/>
<rect x="37.0757" y="11.5862" width="3.27706" height="36.0476" transform="rotate(45 37.0757 11.5862)" fill="#141414"/>
<rect x="41.7102" y="16.2206" width="3.27706" height="36.0476" transform="rotate(45 41.7102 16.2206)" fill="#141414"/>
<rect x="46.3445" y="20.855" width="3.27706" height="36.0476" transform="rotate(45 46.3445 20.855)" fill="#141414"/>
<path d="M0.0754395 28.7289L25.565 54.2184L0.0754395 79.7079V28.7289Z" fill="#8C8C8C"/>
<path d="M50.979 28.7289L25.4895 54.2184L50.979 79.7079V28.7289Z" fill="#D9D9D9"/>
<rect x="25.4895" y="57.4577" width="36.0476" height="36.0476" transform="rotate(45 25.4895 57.4577)" fill="#D9D9D9"/>
<path d="M25.4895 57.4577V108.437L-2.0351e-05 82.9472L25.4895 57.4577Z" fill="#8C8C8C"/>
</svg>
