<svg width="40" height="41" viewBox="0 0 40 41" fill="none" xmlns="http://www.w3.org/2000/svg">
<g clip-path="url(#clip0)">
<circle cx="20" cy="20.5" r="18.5" stroke="#DC3B18" stroke-width="3"/>
<path d="M22.6314 22.9L20.1114 25.4C17.6114 23.97 15.5414 21.9 14.1114 19.4L16.6114 16.88C16.8414 16.64 16.9414 16.31 16.8814 15.98L16.1314 12.3C16.0414 11.84 15.6314 11.5 15.1514 11.5H11.0014C10.4414 11.5 9.97136 11.97 10.0014 12.53C10.1714 15.42 11.0514 18.13 12.4314 20.5C14.0114 23.23 16.2814 25.49 19.0014 27.07C21.3714 28.44 24.0814 29.33 26.9714 29.5C27.5314 29.53 28.0014 29.06 28.0014 28.5V24.35C28.0014 23.87 27.6614 23.46 27.2014 23.37L23.5314 22.64C23.2014 22.57 22.8614 22.67 22.6314 22.9Z" fill="white"/>
</g>
<defs>
<clipPath id="clip0">
<rect width="40" height="40" fill="white" transform="translate(0 0.5)"/>
</clipPath>
</defs>
</svg>
