<svg width="20" height="21" viewBox="0 0 20 21" fill="none" xmlns="http://www.w3.org/2000/svg">
<path fill-rule="evenodd" clip-rule="evenodd" d="M7.60253 13.8173C7.41053 13.8173 7.21853 13.7425 7.07253 13.5919C6.77953 13.2918 6.77953 12.8064 7.07253 12.5063L11.8645 7.59836C12.1575 7.29827 12.6315 7.29827 12.9245 7.59836C13.2175 7.89845 13.2175 8.38391 12.9245 8.684L8.13253 13.5919C7.98653 13.7425 7.79453 13.8173 7.60253 13.8173Z" fill="#8C8C8C"/>
<path fill-rule="evenodd" clip-rule="evenodd" d="M12.3965 13.8203C12.2045 13.8203 12.0125 13.7455 11.8665 13.595L7.07046 8.68193C6.77746 8.38184 6.77746 7.89637 7.07046 7.59628C7.36446 7.29619 7.83846 7.29619 8.13046 7.59628L12.9265 12.5093C13.2195 12.8094 13.2195 13.2949 12.9265 13.595C12.7805 13.7455 12.5875 13.8203 12.3965 13.8203Z" fill="#8C8C8C"/>
<path fill-rule="evenodd" clip-rule="evenodd" d="M5.665 1.89908C3.135 1.89908 1.5 3.67401 1.5 6.42192V14.7875C1.5 17.5354 3.135 19.3104 5.665 19.3104H14.333C16.864 19.3104 18.5 17.5354 18.5 14.7875V6.42192C18.5 3.67401 16.864 1.89908 14.334 1.89908H5.665ZM14.333 20.8467H5.665C2.276 20.8467 0 18.4111 0 14.7875V6.42192C0 2.79833 2.276 0.362793 5.665 0.362793H14.334C17.723 0.362793 20 2.79833 20 6.42192V14.7875C20 18.4111 17.723 20.8467 14.333 20.8467Z" fill="#8C8C8C"/>
</svg>
