<svg width="24" height="21" viewBox="0 0 24 21" fill="none" xmlns="http://www.w3.org/2000/svg">
<path d="M13.2427 7.00246L10.6769 6.9977L10.6494 15.9977L6.80073 15.9905L11.917 21L17.0639 16.0096L13.2152 16.0024L13.2427 7.00246Z" fill="white"/>
<path d="M20.9585 1.01678L2.99788 0.983416C1.58284 0.980787 0.429342 1.87565 0.42597 2.97864L0.398457 11.9786C0.395086 13.0816 1.5431 13.9808 2.95814 13.9834L8.08974 13.9929L8.09585 11.9929L2.96426 11.9834L2.99177 2.98341L20.9524 3.01677L20.9248 12.0167L15.7933 12.0072L15.7871 14.0072L20.9187 14.0167C22.3338 14.0194 23.4873 13.1245 23.4906 12.0215L23.5182 3.02154C23.5215 1.91854 22.3735 1.0194 20.9585 1.01678Z" fill="white"/>
</svg>
