<svg width="32" height="58" viewBox="0 0 32 58" fill="none" xmlns="http://www.w3.org/2000/svg">
<path d="M31.8387 10.4138L24.6581 0.75415H0V57.2542H31.8387V10.4138ZM25.0645 3.85254L29.5355 9.86705H25.0645V3.85254ZM1.35484 55.4316V2.57673H23.7097V11.6896H30.4839V55.4316H1.35484Z" fill="black"/>
<path d="M21.3388 9.86707H11.1775V11.6896H21.3388V9.86707Z" fill="black"/>
<path d="M26.4193 17.1573H6.09668V18.9799H26.4193V17.1573Z" fill="black"/>
<path d="M26.4193 21.7139H6.09668V23.5364H26.4193V21.7139Z" fill="black"/>
<path d="M26.4193 26.2703H6.09668V28.0928H26.4193V26.2703Z" fill="black"/>
<path d="M26.4193 30.8268H6.09668V32.6494H26.4193V30.8268Z" fill="black"/>
<path d="M22.6934 37.2058C20.4579 37.2058 18.6289 39.6663 18.6289 42.6736C18.6289 44.4961 19.3063 46.0909 20.3225 47.0933V52.6978L22.6934 51.4219L25.0644 52.6978V48.5969H23.7095V49.9639L22.6934 49.4171L21.6773 49.9639V47.959C22.016 48.0502 22.3547 48.1413 22.6934 48.1413C24.9289 48.1413 26.7579 45.6808 26.7579 42.6736C26.7579 39.6663 24.9289 37.2058 22.6934 37.2058ZM22.6934 46.3187C21.2031 46.3187 19.9837 44.6784 19.9837 42.6736C19.9837 40.6687 21.2031 39.0284 22.6934 39.0284C24.1837 39.0284 25.4031 40.6687 25.4031 42.6736C25.4031 44.6784 24.1837 46.3187 22.6934 46.3187Z" fill="black"/>
</svg>
