<svg width="32" height="43" viewBox="0 0 32 43" fill="none" xmlns="http://www.w3.org/2000/svg">
<path d="M31.8387 8.15721L24.6581 0.976562H0V42.9766H31.8387V8.15721ZM25.0645 3.27979L29.5355 7.75076H25.0645V3.27979ZM1.35484 41.6217V2.3314H23.7097V9.10559H30.4839V41.6217H1.35484Z" fill="black"/>
<path d="M21.3388 7.75073H11.1775V9.10557H21.3388V7.75073Z" fill="black"/>
<path d="M26.4193 13.1701H6.09668V14.5249H26.4193V13.1701Z" fill="black"/>
<path d="M26.4193 16.5573H6.09668V17.9121H26.4193V16.5573Z" fill="black"/>
<path d="M26.4193 19.9443H6.09668V21.2991H26.4193V19.9443Z" fill="black"/>
<path d="M26.4193 23.3314H6.09668V24.6863H26.4193V23.3314Z" fill="black"/>
<path d="M22.6937 28.0734C20.4582 28.0734 18.6292 29.9024 18.6292 32.1379C18.6292 33.4927 19.3066 34.6782 20.3227 35.4234V39.5895L22.6937 38.6411L25.0646 39.5895V36.5411H23.7098V37.5572L22.6937 37.1508L21.6775 37.5572V36.0669C22.0162 36.1347 22.355 36.2024 22.6937 36.2024C24.9292 36.2024 26.7582 34.3734 26.7582 32.1379C26.7582 29.9024 24.9292 28.0734 22.6937 28.0734ZM22.6937 34.8476C21.2033 34.8476 19.984 33.6282 19.984 32.1379C19.984 30.6476 21.2033 29.4282 22.6937 29.4282C24.184 29.4282 25.4033 30.6476 25.4033 32.1379C25.4033 33.6282 24.184 34.8476 22.6937 34.8476Z" fill="black"/>
</svg>
