<svg width="11" height="11" viewBox="0 0 11 11" fill="none" xmlns="http://www.w3.org/2000/svg">
<path d="M10.25 5.5C10.25 8.12335 8.12335 10.25 5.5 10.25C2.87665 10.25 0.75 8.12335 0.75 5.5C0.75 2.87665 2.87665 0.75 5.5 0.75C8.12335 0.75 10.25 2.87665 10.25 5.5Z" fill="#ED6B6A"/>
<path d="M10.25 5.5C10.25 8.12335 8.12335 10.25 5.5 10.25C2.87665 10.25 0.75 8.12335 0.75 5.5C0.75 2.87665 2.87665 0.75 5.5 0.75C8.12335 0.75 10.25 2.87665 10.25 5.5Z" stroke="url(#paint0_linear)" stroke-width="0.5"/>
<path d="M10.25 5.5C10.25 8.12335 8.12335 10.25 5.5 10.25C2.87665 10.25 0.75 8.12335 0.75 5.5C0.75 2.87665 2.87665 0.75 5.5 0.75C8.12335 0.75 10.25 2.87665 10.25 5.5Z" stroke="url(#paint1_linear)" stroke-width="0.5"/>
<defs>
<linearGradient id="paint0_linear" x1="0.548928" y1="0.5" x2="0.548928" y2="10.4021" gradientUnits="userSpaceOnUse">
<stop stop-opacity="0"/>
<stop offset="0.8" stop-opacity="0.02"/>
<stop offset="1" stop-opacity="0.04"/>
</linearGradient>
<linearGradient id="paint1_linear" x1="0.5" y1="0.5" x2="0.5" y2="10.5" gradientUnits="userSpaceOnUse">
<stop stop-color="white" stop-opacity="0.12"/>
<stop offset="0.2" stop-color="white" stop-opacity="0.06"/>
<stop offset="1" stop-color="white" stop-opacity="0"/>
</linearGradient>
</defs>
</svg>
