<svg width="20" height="20" viewBox="0 0 20 20" fill="none" xmlns="http://www.w3.org/2000/svg">
<rect opacity="0.6" width="20" height="20" rx="10" fill="#8C8C8C"/>
<path d="M9.91548 5.108C10.7715 5.108 11.4555 5.332 11.9675 5.78C12.4875 6.228 12.7475 6.86 12.7475 7.676C12.7475 8.428 12.4995 9.016 12.0035 9.44C11.5155 9.856 10.8675 10.068 10.0595 10.076L9.99948 10.976H8.19948L8.13948 8.744H8.85948C9.47548 8.744 9.94348 8.668 10.2635 8.516C10.5915 8.364 10.7555 8.088 10.7555 7.688C10.7555 7.408 10.6795 7.188 10.5275 7.028C10.3755 6.868 10.1635 6.788 9.89148 6.788C9.60348 6.788 9.37948 6.872 9.21948 7.04C9.05948 7.2 8.97948 7.42 8.97948 7.7H7.04748C7.03148 7.212 7.13148 6.772 7.34748 6.38C7.57148 5.988 7.89948 5.68 8.33148 5.456C8.77148 5.224 9.29948 5.108 9.91548 5.108ZM9.12348 14.096C8.76348 14.096 8.46748 13.992 8.23548 13.784C8.01148 13.568 7.89948 13.304 7.89948 12.992C7.89948 12.672 8.01148 12.404 8.23548 12.188C8.46748 11.972 8.76348 11.864 9.12348 11.864C9.47548 11.864 9.76348 11.972 9.98748 12.188C10.2195 12.404 10.3355 12.672 10.3355 12.992C10.3355 13.304 10.2195 13.568 9.98748 13.784C9.76348 13.992 9.47548 14.096 9.12348 14.096Z" fill="white"/>
</svg>
