<svg width="8" height="8" viewBox="0 0 8 8" fill="none" xmlns="http://www.w3.org/2000/svg">
<path d="M7.75 4C7.75 6.07107 6.07107 7.75 4 7.75C1.92893 7.75 0.25 6.07107 0.25 4C0.25 1.92893 1.92893 0.25 4 0.25C6.07107 0.25 7.75 1.92893 7.75 4Z" fill="#ED6B6A"/>
<path d="M7.75 4C7.75 6.07107 6.07107 7.75 4 7.75C1.92893 7.75 0.25 6.07107 0.25 4C0.25 1.92893 1.92893 0.25 4 0.25C6.07107 0.25 7.75 1.92893 7.75 4Z" stroke="url(#paint0_linear)" stroke-width="0.5"/>
<path d="M7.75 4C7.75 6.07107 6.07107 7.75 4 7.75C1.92893 7.75 0.25 6.07107 0.25 4C0.25 1.92893 1.92893 0.25 4 0.25C6.07107 0.25 7.75 1.92893 7.75 4Z" stroke="url(#paint1_linear)" stroke-width="0.5"/>
<defs>
<linearGradient id="paint0_linear" x1="0.039142" y1="0" x2="0.039142" y2="7.92172" gradientUnits="userSpaceOnUse">
<stop stop-opacity="0"/>
<stop offset="0.8" stop-opacity="0.02"/>
<stop offset="1" stop-opacity="0.04"/>
</linearGradient>
<linearGradient id="paint1_linear" x1="0" y1="0" x2="0" y2="8" gradientUnits="userSpaceOnUse">
<stop stop-color="white" stop-opacity="0.12"/>
<stop offset="0.2" stop-color="white" stop-opacity="0.06"/>
<stop offset="1" stop-color="white" stop-opacity="0"/>
</linearGradient>
</defs>
</svg>
