<svg width="45" height="41" viewBox="0 0 45 41" fill="none" xmlns="http://www.w3.org/2000/svg">
<path d="M22.3552 34.8541C21.7657 34.8541 21.1894 34.6838 20.6992 34.3647C20.2091 34.0456 19.827 33.592 19.6014 33.0614C19.3758 32.5307 19.3168 31.9468 19.4318 31.3834C19.5468 30.8201 19.8307 30.3026 20.2475 29.8965C20.6644 29.4903 21.1955 29.2138 21.7737 29.1017C22.3519 28.9896 22.9512 29.0472 23.4959 29.267C24.0405 29.4868 24.5061 29.859 24.8336 30.3366C25.1611 30.8142 25.3359 31.3756 25.3359 31.95C25.3359 32.7202 25.0219 33.4589 24.4629 34.0035C23.9039 34.5482 23.1458 34.8541 22.3552 34.8541Z" fill="#B7926A"/>
<path d="M22.3575 26.1417C21.9623 26.1417 21.5832 25.9887 21.3037 25.7164C21.0242 25.4441 20.8672 25.0748 20.8672 24.6897V13.0732C20.8672 12.688 21.0242 12.3187 21.3037 12.0464C21.5832 11.7741 21.9623 11.6211 22.3575 11.6211C22.7528 11.6211 23.1319 11.7741 23.4114 12.0464C23.6909 12.3187 23.8479 12.688 23.8479 13.0732V24.6897C23.8479 25.0748 23.6909 25.4441 23.4114 25.7164C23.1319 25.9887 22.7528 26.1417 22.3575 26.1417Z" fill="#B7926A"/>
<path d="M39.9114 40.6624H4.79891C3.96615 40.6679 3.14649 40.4603 2.42199 40.0602C1.69749 39.6601 1.09356 39.0816 0.670662 38.3826C0.247565 37.6994 0.016554 36.9196 0.00085703 36.1218C-0.0148399 35.324 0.18533 34.5362 0.581241 33.8376L18.1375 2.42943C18.5529 1.6937 19.1635 1.08013 19.9054 0.652784C20.6473 0.225441 21.4933 0 22.3552 0C23.217 0 24.0631 0.225441 24.805 0.652784C25.5469 1.08013 26.1574 1.6937 26.5728 2.42943L44.1291 33.8376C44.525 34.5362 44.7252 35.324 44.7095 36.1218C44.6938 36.9196 44.4628 37.6994 44.0397 38.3826C43.6168 39.0816 43.0128 39.6601 42.2883 40.0602C41.5638 40.4603 40.7442 40.6679 39.9114 40.6624ZM22.3552 2.90861C22.0284 2.90163 21.706 2.98353 21.4243 3.14512C21.1427 3.30671 20.9128 3.54159 20.7605 3.82341L3.20425 35.2171C3.04643 35.4711 2.96299 35.7624 2.96299 36.0593C2.96299 36.3562 3.04643 36.6475 3.20425 36.9015C3.35689 37.1564 3.57401 37.369 3.8349 37.519C4.09579 37.669 4.39176 37.7513 4.69459 37.7582H39.9114C40.2142 37.7513 40.5102 37.669 40.7711 37.519C41.032 37.369 41.2491 37.1564 41.4018 36.9015C41.5596 36.6475 41.643 36.3562 41.643 36.0593C41.643 35.7624 41.5596 35.4711 41.4018 35.2171L23.9498 3.82341C23.7975 3.54159 23.5677 3.30671 23.286 3.14512C23.0043 2.98353 22.682 2.90163 22.3552 2.90861Z" fill="#B7926A"/>
</svg>
