<svg width="17" height="11" viewBox="0 0 17 11" fill="none" xmlns="http://www.w3.org/2000/svg">
<path d="M16.8301 1.92238L15.9785 1.07079C15.865 0.957071 15.7343 0.900391 15.5865 0.900391C15.4391 0.900391 15.3084 0.957071 15.1949 1.07079L8.50009 7.76527L1.80555 1.07097C1.69201 0.95725 1.56135 0.90057 1.41374 0.90057C1.26607 0.90057 1.13541 0.95725 1.02192 1.07097L0.1704 1.92261C0.0566808 2.03609 0 2.16676 0 2.31443C0 2.46198 0.0568598 2.59264 0.1704 2.70612L8.10828 10.6442C8.22176 10.7577 8.35248 10.8145 8.50009 10.8145C8.6477 10.8145 8.77818 10.7577 8.8916 10.6442L16.8301 2.70612C16.9436 2.59258 17 2.46192 17 2.31443C17 2.16676 16.9436 2.03609 16.8301 1.92238Z" fill="black" fill-opacity="0.45"/>
</svg>
